  0
SECTION
  2
HEADER
  9
$ACADVER
  1
AC1014
  9
$HANDSEED
  5
FFFF
  9
$MEASUREMENT
 70
     1
  0
ENDSEC
  0
SECTION
  2
TABLES
  0
TABLE
  2
VPORT
  5
8
330
0
100
AcDbSymbolTable
 70
     4
  0
VPORT
  5
2E
330
8
100
AcDbSymbolTableRecord
100
AcDbViewportTableRecord
  2
*ACTIVE
 70
     0
 10
0.0
 20
0.0
 11
1.0
 21
1.0
 12
210.0
 22
148.5
 13
0.0
 23
0.0
 14
10.0
 24
10.0
 15
10.0
 25
10.0
 16
0.0
 26
0.0
 36
1.0
 17
0.0
 27
0.0
 37
0.0
 40
341.0
 41
1.24
 42
50.0
 43
0.0
 44
0.0
 50
0.0
 51
0.0
 71
     0
 72
   100
 73
     1
 74
     3
 75
     0
 76
     0
 77
     0
 78
     0
  0
ENDTAB
  0
TABLE
  2
LTYPE
  5
5
330
0
100
AcDbSymbolTable
 70
     1
  0
LTYPE
  5
14
330
5
100
AcDbSymbolTableRecord
100
AcDbLinetypeTableRecord
  2
BYBLOCK
 70
     0
  3

 72
    65
 73
     0
 40
0.0
  0
LTYPE
  5
15
330
5
100
AcDbSymbolTableRecord
100
AcDbLinetypeTableRecord
  2
BYLAYER
 70
     0
  3

 72
    65
 73
     0
 40
0.0
  0
LTYPE
  5
16
330
5
100
AcDbSymbolTableRecord
100
AcDbLinetypeTableRecord
  2
CONTINUOUS
 70
     0
  3
Solid line
 72
    65
 73
     0
 40
0.0
  0
ENDTAB
  0
TABLE
  2
LAYER
  5
2
100
AcDbSymbolTable
 70
1
  0
LAYER
  5
50
100
AcDbSymbolTableRecord
100
AcDbLayerTableRecord
  2
0
 70
0
  6
CONTINUOUS
  0
ENDTAB
  0
TABLE
  2
STYLE
  5
3
330
0
100
AcDbSymbolTable
 70
     1
  0
STYLE
  5
11
330
3
100
AcDbSymbolTableRecord
100
AcDbTextStyleTableRecord
  2
STANDARD
 70
     0
 40
0.0
 41
1.0
 50
0.0
 71
     0
 42
2.5
  3
txt
  4

  0
ENDTAB
  0
TABLE
  2
VIEW
  5
6
330
0
100
AcDbSymbolTable
 70
     0
  0
ENDTAB
  0
TABLE
  2
UCS
  5
7
330
0
100
AcDbSymbolTable
 70
     0
  0
ENDTAB
  0
TABLE
  2
APPID
  5
9
330
0
100
AcDbSymbolTable
 70
     2
  0
APPID
  5
12
330
9
100
AcDbSymbolTableRecord
100
AcDbRegAppTableRecord
  2
ACAD
 70
     0
  0
ENDTAB
  0
TABLE
  2
DIMSTYLE
  5
A
330
0
100
AcDbSymbolTable
 70
     1
  0
DIMSTYLE
105
27
330
A
100
AcDbSymbolTableRecord
100
AcDbDimStyleTableRecord
  2
ISO-25
 70
     0
  3

  4

  5

  6

  7

 40
1.0
 41
2.5
 42
0.625
 43
3.75
 44
1.25
 45
0.0
 46
0.0
 47
0.0
 48
0.0
140
2.5
141
2.5
142
0.0
143
0.03937007874016
144
1.0
145
0.0
146
1.0
147
0.625
 71
     0
 72
     0
 73
     0
 74
     0
 75
     0
 76
     0
 77
     1
 78
     8
170
     0
171
     3
172
     1
173
     0
174
     0
175
     0
176
     0
177
     0
178
     0
270
     2
271
     2
272
     2
273
     2
274
     3
340
11
275
     0
280
     0
281
     0
282
     0
283
     0
284
     8
285
     0
286
     0
287
     3
288
     0
  0
ENDTAB
  0
TABLE
  2
BLOCK_RECORD
  5
1
330
0
100
AcDbSymbolTable
 70
     1
  0
BLOCK_RECORD
  5
1F
330
1
100
AcDbSymbolTableRecord
100
AcDbBlockTableRecord
  2
*MODEL_SPACE
  0
BLOCK_RECORD
  5
1B
330
1
100
AcDbSymbolTableRecord
100
AcDbBlockTableRecord
  2
*PAPER_SPACE
  0
ENDTAB
  0
ENDSEC
  0
SECTION
  2
BLOCKS
  0
BLOCK
  5
20
330
1F
100
AcDbEntity
  8
0
100
AcDbBlockBegin
  2
*MODEL_SPACE
 70
     0
 10
0.0
 20
0.0
 30
0.0
  3
*MODEL_SPACE
  1

  0
ENDBLK
  5
21
330
1F
100
AcDbEntity
  8
0
100
AcDbBlockEnd
  0
BLOCK
  5
1C
330
1B
100
AcDbEntity
 67
     1
  8
0
100
AcDbBlockBegin
  2
*PAPER_SPACE
  1

  0
ENDBLK
  5
1D
330
1B
100
AcDbEntity
 67
     1
  8
0
100
AcDbBlockEnd
  0
ENDSEC
  0
SECTION
  2
ENTITIES
  0
SPLINE
  5
100
100
AcDbEntity
  8
0
 62
7
100
AcDbSpline
 70
8
 71
3
 72
8
 73
4
 74
0
 40
0
 40
0
 40
0
 40
0
 40
1
 40
1
 40
1
 40
1
 10
114.976281
 20
126.953922
 30
0.0
 10
121.637998
 20
126.953922
 30
0.0
 10
127.000000
 20
121.591493
 30
0.0
 10
127.000000
 20
114.932325
 30
0.0
  0
SPLINE
  5
101
100
AcDbEntity
  8
0
 62
7
100
AcDbSpline
 70
8
 71
3
 72
8
 73
4
 74
0
 40
0
 40
0
 40
0
 40
0
 40
1
 40
1
 40
1
 40
1
 10
127.000000
 20
12.019150
 30
0.0
 10
127.000000
 20
5.359953
 30
0.0
 10
121.637998
 20
0.000006
 30
0.0
 10
114.976281
 20
0.000006
 30
0.0
  0
LWPOLYLINE
  5
102
100
AcDbEntity
  8
0
 62
7
100
AcDbPolyline
 90
2
 70
0
 10
127.000000
 20
114.932325
 30
0.0
 10
127.000000
 20
12.019150
 30
0.0
  0
SPLINE
  5
103
100
AcDbEntity
  8
0
 62
7
100
AcDbSpline
 70
8
 71
3
 72
8
 73
4
 74
0
 40
0
 40
0
 40
0
 40
0
 40
1
 40
1
 40
1
 40
1
 10
12.023712
 20
0.000006
 30
0.0
 10
5.361991
 20
0.000006
 30
0.0
 10
0.000000
 20
5.359953
 30
0.0
 10
0.000000
 20
12.019150
 30
0.0
  0
LWPOLYLINE
  5
104
100
AcDbEntity
  8
0
 62
7
100
AcDbPolyline
 90
2
 70
0
 10
114.976281
 20
0.000006
 30
0.0
 10
12.023712
 20
0.000006
 30
0.0
  0
SPLINE
  5
105
100
AcDbEntity
  8
0
 62
7
100
AcDbSpline
 70
8
 71
3
 72
8
 73
4
 74
0
 40
0
 40
0
 40
0
 40
0
 40
1
 40
1
 40
1
 40
1
 10
0.000000
 20
114.932325
 30
0.0
 10
0.000000
 20
121.591493
 30
0.0
 10
5.361991
 20
126.953922
 30
0.0
 10
12.023712
 20
126.953922
 30
0.0
  0
LWPOLYLINE
  5
106
100
AcDbEntity
  8
0
 62
7
100
AcDbPolyline
 90
2
 70
0
 10
0.000000
 20
12.019150
 30
0.0
 10
0.000000
 20
114.932325
 30
0.0
  0
SPLINE
  5
107
100
AcDbEntity
  8
0
 62
7
100
AcDbSpline
 70
8
 71
3
 72
8
 73
4
 74
0
 40
0
 40
0
 40
0
 40
0
 40
1
 40
1
 40
1
 40
1
 10
114.976281
 20
127.048545
 30
0.0
 10
121.637998
 20
127.048545
 30
0.0
 10
127.000000
 20
132.408490
 30
0.0
 10
127.000000
 20
139.067659
 30
0.0
  0
LWPOLYLINE
  5
108
100
AcDbEntity
  8
0
 62
7
100
AcDbPolyline
 90
2
 70
0
 10
12.023712
 20
126.953922
 30
0.0
 10
114.976281
 20
127.048545
 30
0.0
  0
SPLINE
  5
109
100
AcDbEntity
  8
0
 62
7
100
AcDbSpline
 70
8
 71
3
 72
8
 73
4
 74
0
 40
0
 40
0
 40
0
 40
0
 40
1
 40
1
 40
1
 40
1
 10
127.000000
 20
241.980890
 30
0.0
 10
127.000000
 20
248.640087
 30
0.0
 10
121.638006
 20
254.000006
 30
0.0
 10
114.976281
 20
254.000006
 30
0.0
  0
LWPOLYLINE
  5
10a
100
AcDbEntity
  8
0
 62
7
100
AcDbPolyline
 90
2
 70
0
 10
127.000000
 20
139.067659
 30
0.0
 10
127.000000
 20
241.980890
 30
0.0
  0
SPLINE
  5
10b
100
AcDbEntity
  8
0
 62
7
100
AcDbSpline
 70
8
 71
3
 72
8
 73
4
 74
0
 40
0
 40
0
 40
0
 40
0
 40
1
 40
1
 40
1
 40
1
 10
12.023712
 20
254.000006
 30
0.0
 10
5.361991
 20
254.000006
 30
0.0
 10
0.000000
 20
248.640087
 30
0.0
 10
0.000000
 20
241.980890
 30
0.0
  0
LWPOLYLINE
  5
10c
100
AcDbEntity
  8
0
 62
7
100
AcDbPolyline
 90
2
 70
0
 10
114.976281
 20
254.000006
 30
0.0
 10
12.023712
 20
254.000006
 30
0.0
  0
SPLINE
  5
10d
100
AcDbEntity
  8
0
 62
7
100
AcDbSpline
 70
8
 71
3
 72
8
 73
4
 74
0
 40
0
 40
0
 40
0
 40
0
 40
1
 40
1
 40
1
 40
1
 10
0.000000
 20
139.067659
 30
0.0
 10
0.000000
 20
132.408490
 30
0.0
 10
5.361991
 20
127.048545
 30
0.0
 10
12.023712
 20
127.048545
 30
0.0
  0
LWPOLYLINE
  5
10e
100
AcDbEntity
  8
0
 62
7
100
AcDbPolyline
 90
2
 70
0
 10
0.000000
 20
241.980890
 30
0.0
 10
0.000000
 20
139.067659
 30
0.0
  0
SPLINE
  5
10f
100
AcDbEntity
  8
0
 62
7
100
AcDbSpline
 70
8
 71
3
 72
8
 73
4
 74
0
 40
0
 40
0
 40
0
 40
0
 40
1
 40
1
 40
1
 40
1
 10
110.830112
 20
196.667446
 30
0.0
 10
109.849251
 20
198.395023
 30
0.0
 10
108.229174
 20
199.788109
 30
0.0
 10
106.309737
 20
200.926749
 30
0.0
  0
SPLINE
  5
110
100
AcDbEntity
  8
0
 62
7
100
AcDbSpline
 70
8
 71
3
 72
8
 73
4
 74
0
 40
0
 40
0
 40
0
 40
0
 40
1
 40
1
 40
1
 40
1
 10
106.309737
 20
200.926749
 30
0.0
 10
104.390195
 20
202.065284
 30
0.0
 10
102.391658
 20
202.734268
 30
0.0
 10
102.391658
 20
202.734268
 30
0.0
  0
SPLINE
  5
111
100
AcDbEntity
  8
0
 62
7
100
AcDbSpline
 70
8
 71
3
 72
8
 73
4
 74
0
 40
0
 40
0
 40
0
 40
0
 40
1
 40
1
 40
1
 40
1
 10
102.391658
 20
202.734268
 30
0.0
 10
102.211790
 20
203.348134
 30
0.0
 10
106.829988
 20
212.809734
 30
0.0
 10
106.899516
 20
216.025065
 30
0.0
  0
SPLINE
  5
112
100
AcDbEntity
  8
0
 62
7
100
AcDbSpline
 70
8
 71
3
 72
8
 73
4
 74
0
 40
0
 40
0
 40
0
 40
0
 40
1
 40
1
 40
1
 40
1
 10
106.899516
 20
216.025065
 30
0.0
 10
106.968939
 20
219.240290
 30
0.0
 10
105.368637
 20
222.922226
 30
0.0
 10
104.445313
 20
223.249355
 30
0.0
  0
SPLINE
  5
113
100
AcDbEntity
  8
0
 62
7
100
AcDbSpline
 70
8
 71
3
 72
8
 73
4
 74
0
 40
0
 40
0
 40
0
 40
0
 40
1
 40
1
 40
1
 40
1
 10
104.445313
 20
223.249355
 30
0.0
 10
103.521988
 20
223.576484
 30
0.0
 10
101.637263
 20
221.742984
 30
0.0
 10
101.418055
 20
221.084939
 30
0.0
  0
SPLINE
  5
114
100
AcDbEntity
  8
0
 62
7
100
AcDbSpline
 70
8
 71
3
 72
8
 73
4
 74
0
 40
0
 40
0
 40
0
 40
0
 40
1
 40
1
 40
1
 40
1
 10
101.418055
 20
221.084939
 30
0.0
 10
100.643885
 20
218.761693
 30
0.0
 10
101.818393
 20
212.812890
 30
0.0
 10
101.186751
 20
211.202805
 30
0.0
  0
SPLINE
  5
115
100
AcDbEntity
  8
0
 62
7
100
AcDbSpline
 70
8
 71
3
 72
8
 73
4
 74
0
 40
0
 40
0
 40
0
 40
0
 40
1
 40
1
 40
1
 40
1
 10
101.186751
 20
211.202805
 30
0.0
 10
101.186751
 20
211.202805
 30
0.0
 10
99.948815
 20
220.389659
 30
0.0
 10
98.648083
 20
220.514304
 30
0.0
  0
SPLINE
  5
116
100
AcDbEntity
  8
0
 62
7
100
AcDbSpline
 70
8
 71
3
 72
8
 73
4
 74
0
 40
0
 40
0
 40
0
 40
0
 40
1
 40
1
 40
1
 40
1
 10
98.648083
 20
220.514304
 30
0.0
 10
97.347456
 20
220.638950
 30
0.0
 10
96.274136
 20
219.122797
 30
0.0
 10
96.274136
 20
219.122797
 30
0.0
  0
SPLINE
  5
117
100
AcDbEntity
  8
0
 62
7
100
AcDbSpline
 70
8
 71
3
 72
8
 73
4
 74
0
 40
0
 40
0
 40
0
 40
0
 40
1
 40
1
 40
1
 40
1
 10
96.274136
 20
219.122797
 30
0.0
 10
96.274136
 20
219.122797
 30
0.0
 10
94.731792
 20
217.310650
 30
0.0
 10
94.824356
 20
212.051342
 30
0.0
  0
SPLINE
  5
118
100
AcDbEntity
  8
0
 62
7
100
AcDbSpline
 70
8
 71
3
 72
8
 73
4
 74
0
 40
0
 40
0
 40
0
 40
0
 40
1
 40
1
 40
1
 40
1
 10
94.824356
 20
212.051342
 30
0.0
 10
94.856543
 20
210.217421
 30
0.0
 10
94.865589
 20
208.458288
 30
0.0
 10
94.824356
 20
206.857355
 30
0.0
  0
SPLINE
  5
119
100
AcDbEntity
  8
0
 62
7
100
AcDbSpline
 70
8
 71
3
 72
8
 73
4
 74
0
 40
0
 40
0
 40
0
 40
0
 40
1
 40
1
 40
1
 40
1
 10
94.824356
 20
206.857355
 30
0.0
 10
94.748306
 20
203.867228
 30
0.0
 10
94.498699
 20
201.429118
 30
0.0
 10
93.903766
 20
200.087258
 30
0.0
  0
SPLINE
  5
11a
100
AcDbEntity
  8
0
 62
7
100
AcDbSpline
 70
8
 71
3
 72
8
 73
4
 74
0
 40
0
 40
0
 40
0
 40
0
 40
1
 40
1
 40
1
 40
1
 10
93.903766
 20
200.087258
 30
0.0
 10
92.990330
 20
198.026872
 30
0.0
 10
90.521400
 20
196.079561
 30
0.0
 10
89.927414
 20
195.841945
 30
0.0
  0
SPLINE
  5
11b
100
AcDbEntity
  8
0
 62
7
100
AcDbSpline
 70
8
 71
3
 72
8
 73
4
 74
0
 40
0
 40
0
 40
0
 40
0
 40
1
 40
1
 40
1
 40
1
 10
89.927414
 20
195.841945
 30
0.0
 10
89.333533
 20
195.604435
 30
0.0
 10
82.516629
 20
193.602742
 30
0.0
 10
78.347681
 20
195.166229
 30
0.0
  0
SPLINE
  5
11c
100
AcDbEntity
  8
0
 62
7
100
AcDbSpline
 70
8
 71
3
 72
8
 73
4
 74
0
 40
0
 40
0
 40
0
 40
0
 40
1
 40
1
 40
1
 40
1
 10
78.347681
 20
195.166229
 30
0.0
 10
72.772289
 20
197.257014
 30
0.0
 10
68.196165
 20
200.418174
 30
0.0
 10
56.929045
 20
202.612673
 30
0.0
  0
SPLINE
  5
11d
100
AcDbEntity
  8
0
 62
7
100
AcDbSpline
 70
8
 71
3
 72
8
 73
4
 74
0
 40
0
 40
0
 40
0
 40
0
 40
1
 40
1
 40
1
 40
1
 10
56.929045
 20
202.612673
 30
0.0
 10
50.594208
 20
203.846506
 30
0.0
 10
41.368225
 20
201.068540
 30
0.0
 10
38.992491
 20
199.999428
 30
0.0
  0
SPLINE
  5
11e
100
AcDbEntity
  8
0
 62
7
100
AcDbSpline
 70
8
 71
3
 72
8
 73
4
 74
0
 40
0
 40
0
 40
0
 40
0
 40
1
 40
1
 40
1
 40
1
 10
38.992491
 20
199.999428
 30
0.0
 10
36.616862
 20
198.930316
 30
0.0
 10
31.746637
 20
194.297707
 30
0.0
 10
30.558770
 20
188.239721
 30
0.0
  0
SPLINE
  5
11f
100
AcDbEntity
  8
0
 62
7
100
AcDbSpline
 70
8
 71
3
 72
8
 73
4
 74
0
 40
0
 40
0
 40
0
 40
0
 40
1
 40
1
 40
1
 40
1
 10
30.558770
 20
188.239721
 30
0.0
 10
29.370903
 20
182.181735
 30
0.0
 10
28.351228
 20
188.660465
 30
0.0
 10
27.222055
 20
189.273701
 30
0.0
  0
SPLINE
  5
120
100
AcDbEntity
  8
0
 62
7
100
AcDbSpline
 70
8
 71
3
 72
8
 73
4
 74
0
 40
0
 40
0
 40
0
 40
0
 40
1
 40
1
 40
1
 40
1
 10
27.222055
 20
189.273701
 30
0.0
 10
25.027030
 20
190.465670
 30
0.0
 10
19.422712
 20
189.401817
 30
0.0
 10
19.422712
 20
189.401817
 30
0.0
  0
SPLINE
  5
121
100
AcDbEntity
  8
0
 62
7
100
AcDbSpline
 70
8
 71
3
 72
8
 73
4
 74
0
 40
0
 40
0
 40
0
 40
0
 40
1
 40
1
 40
1
 40
1
 10
19.422712
 20
189.401817
 30
0.0
 10
19.422712
 20
189.401817
 30
0.0
 10
21.703569
 20
186.750390
 30
0.0
 10
23.137466
 20
184.277884
 30
0.0
  0
SPLINE
  5
122
100
AcDbEntity
  8
0
 62
7
100
AcDbSpline
 70
8
 71
3
 72
8
 73
4
 74
0
 40
0
 40
0
 40
0
 40
0
 40
1
 40
1
 40
1
 40
1
 10
23.137466
 20
184.277884
 30
0.0
 10
24.491422
 20
181.943383
 30
0.0
 10
29.158111
 20
179.794430
 30
0.0
 10
29.158111
 20
179.794430
 30
0.0
  0
SPLINE
  5
123
100
AcDbEntity
  8
0
 62
7
100
AcDbSpline
 70
8
 71
3
 72
8
 73
4
 74
0
 40
0
 40
0
 40
0
 40
0
 40
1
 40
1
 40
1
 40
1
 10
29.158111
 20
179.794430
 30
0.0
 10
29.158111
 20
179.794430
 30
0.0
 10
33.129204
 20
173.901901
 30
0.0
 10
32.221763
 20
170.540783
 30
0.0
  0
SPLINE
  5
124
100
AcDbEntity
  8
0
 62
7
100
AcDbSpline
 70
8
 71
3
 72
8
 73
4
 74
0
 40
0
 40
0
 40
0
 40
0
 40
1
 40
1
 40
1
 40
1
 10
32.221763
 20
170.540783
 30
0.0
 10
31.314322
 20
167.179664
 30
0.0
 10
32.012758
 20
163.910794
 30
0.0
 10
27.837499
 20
163.083610
 30
0.0
  0
SPLINE
  5
125
100
AcDbEntity
  8
0
 62
7
100
AcDbSpline
 70
8
 71
3
 72
8
 73
4
 74
0
 40
0
 40
0
 40
0
 40
0
 40
1
 40
1
 40
1
 40
1
 10
27.837499
 20
163.083610
 30
0.0
 10
26.420011
 20
162.802763
 30
0.0
 10
22.006399
 20
160.515701
 30
0.0
 10
20.500554
 20
160.300595
 30
0.0
  0
SPLINE
  5
126
100
AcDbEntity
  8
0
 62
7
100
AcDbSpline
 70
8
 71
3
 72
8
 73
4
 74
0
 40
0
 40
0
 40
0
 40
0
 40
1
 40
1
 40
1
 40
1
 10
20.500554
 20
160.300595
 30
0.0
 10
18.729535
 20
160.047517
 30
0.0
 10
13.922528
 20
157.770552
 30
0.0
 10
15.853220
 20
154.742453
 30
0.0
  0
SPLINE
  5
127
100
AcDbEntity
  8
0
 62
7
100
AcDbSpline
 70
8
 71
3
 72
8
 73
4
 74
0
 40
0
 40
0
 40
0
 40
0
 40
1
 40
1
 40
1
 40
1
 10
15.853220
 20
154.742453
 30
0.0
 10
18.293328
 20
150.915360
 30
0.0
 10
23.710626
 20
147.453684
 30
0.0
 10
23.591765
 20
146.265817
 30
0.0
  0
SPLINE
  5
128
100
AcDbEntity
  8
0
 62
7
100
AcDbSpline
 70
8
 71
3
 72
8
 73
4
 74
0
 40
0
 40
0
 40
0
 40
0
 40
1
 40
1
 40
1
 40
1
 10
23.591765
 20
146.265817
 30
0.0
 10
23.473010
 20
145.077949
 30
0.0
 10
37.367049
 20
143.185756
 30
0.0
 10
42.425346
 20
142.342478
 30
0.0
  0
SPLINE
  5
129
100
AcDbEntity
  8
0
 62
7
100
AcDbSpline
 70
8
 71
3
 72
8
 73
4
 74
0
 40
0
 40
0
 40
0
 40
0
 40
1
 40
1
 40
1
 40
1
 10
42.425346
 20
142.342478
 30
0.0
 10
44.000193
 20
142.079828
 30
0.0
 10
43.699046
 20
142.890919
 30
0.0
 10
43.699046
 20
142.890919
 30
0.0
  0
SPLINE
  5
12a
100
AcDbEntity
  8
0
 62
7
100
AcDbSpline
 70
8
 71
3
 72
8
 73
4
 74
0
 40
0
 40
0
 40
0
 40
0
 40
1
 40
1
 40
1
 40
1
 10
43.699046
 20
142.890919
 30
0.0
 10
43.699046
 20
142.890919
 30
0.0
 10
45.721670
 20
143.065949
 30
0.0
 10
46.504676
 20
143.185756
 30
0.0
  0
SPLINE
  5
12b
100
AcDbEntity
  8
0
 62
7
100
AcDbSpline
 70
8
 71
3
 72
8
 73
4
 74
0
 40
0
 40
0
 40
0
 40
0
 40
1
 40
1
 40
1
 40
1
 10
46.504676
 20
143.185756
 30
0.0
 10
47.714106
 20
143.370988
 30
0.0
 10
48.386246
 20
144.482701
 30
0.0
 10
48.483438
 20
144.871469
 30
0.0
  0
SPLINE
  5
12c
100
AcDbEntity
  8
0
 62
7
100
AcDbSpline
 70
8
 71
3
 72
8
 73
4
 74
0
 40
0
 40
0
 40
0
 40
0
 40
1
 40
1
 40
1
 40
1
 10
48.483438
 20
144.871469
 30
0.0
 10
48.632381
 20
145.467454
 30
0.0
 10
47.558326
 20
147.559817
 30
0.0
 10
45.705261
 20
148.814793
 30
0.0
  0
SPLINE
  5
12d
100
AcDbEntity
  8
0
 62
7
100
AcDbSpline
 70
8
 71
3
 72
8
 73
4
 74
0
 40
0
 40
0
 40
0
 40
0
 40
1
 40
1
 40
1
 40
1
 10
45.705261
 20
148.814793
 30
0.0
 10
45.942771
 20
149.765044
 30
0.0
 10
43.776673
 20
153.319390
 30
0.0
 10
39.594997
 20
152.417419
 30
0.0
  0
SPLINE
  5
12e
100
AcDbEntity
  8
0
 62
7
100
AcDbSpline
 70
8
 71
3
 72
8
 73
4
 74
0
 40
0
 40
0
 40
0
 40
0
 40
1
 40
1
 40
1
 40
1
 10
39.594997
 20
152.417419
 30
0.0
 10
36.976493
 20
151.852674
 30
0.0
 10
34.667131
 20
152.206310
 30
0.0
 10
31.939549
 20
152.375765
 30
0.0
  0
SPLINE
  5
12f
100
AcDbEntity
  8
0
 62
7
100
AcDbSpline
 70
8
 71
3
 72
8
 73
4
 74
0
 40
0
 40
0
 40
0
 40
0
 40
1
 40
1
 40
1
 40
1
 10
31.939549
 20
152.375765
 30
0.0
 10
29.182515
 20
152.547113
 30
0.0
 10
28.374580
 20
153.767588
 30
0.0
 10
28.195027
 20
154.911698
 30
0.0
  0
SPLINE
  5
130
100
AcDbEntity
  8
0
 62
7
100
AcDbSpline
 70
8
 71
3
 72
8
 73
4
 74
0
 40
0
 40
0
 40
0
 40
0
 40
1
 40
1
 40
1
 40
1
 10
28.195027
 20
154.911698
 30
0.0
 10
28.576222
 20
155.428372
 30
0.0
 10
29.064706
 20
155.913386
 30
0.0
 10
29.670578
 20
156.224421
 30
0.0
  0
SPLINE
  5
131
100
AcDbEntity
  8
0
 62
7
100
AcDbSpline
 70
8
 71
3
 72
8
 73
4
 74
0
 40
0
 40
0
 40
0
 40
0
 40
1
 40
1
 40
1
 40
1
 10
29.670578
 20
156.224421
 30
0.0
 10
34.198948
 20
158.549140
 30
0.0
 10
43.825059
 20
160.545679
 30
0.0
 10
44.767001
 20
162.429773
 30
0.0
  0
SPLINE
  5
132
100
AcDbEntity
  8
0
 62
7
100
AcDbSpline
 70
8
 71
3
 72
8
 73
4
 74
0
 40
0
 40
0
 40
0
 40
0
 40
1
 40
1
 40
1
 40
1
 10
44.767001
 20
162.429773
 30
0.0
 10
46.073623
 20
165.043018
 30
0.0
 10
48.330392
 20
167.676984
 30
0.0
 10
50.733896
 20
168.776075
 30
0.0
  0
SPLINE
  5
133
100
AcDbEntity
  8
0
 62
7
100
AcDbSpline
 70
8
 71
3
 72
8
 73
4
 74
0
 40
0
 40
0
 40
0
 40
0
 40
1
 40
1
 40
1
 40
1
 10
50.733896
 20
168.776075
 30
0.0
 10
52.187253
 20
169.440641
 30
0.0
 10
55.699313
 20
167.799632
 30
0.0
 10
61.486340
 20
167.550446
 30
0.0
  0
SPLINE
  5
134
100
AcDbEntity
  8
0
 62
7
100
AcDbSpline
 70
8
 71
3
 72
8
 73
4
 74
0
 40
0
 40
0
 40
0
 40
0
 40
1
 40
1
 40
1
 40
1
 10
61.486340
 20
167.550446
 30
0.0
 10
67.444505
 20
167.293897
 30
0.0
 10
70.836443
 20
168.621241
 30
0.0
 10
71.430429
 20
168.027360
 30
0.0
  0
SPLINE
  5
135
100
AcDbEntity
  8
0
 62
7
100
AcDbSpline
 70
8
 71
3
 72
8
 73
4
 74
0
 40
0
 40
0
 40
0
 40
0
 40
1
 40
1
 40
1
 40
1
 10
71.430429
 20
168.027360
 30
0.0
 10
72.024310
 20
167.433479
 30
0.0
 10
66.388330
 20
164.720307
 30
0.0
 10
66.434612
 20
163.141673
 30
0.0
  0
SPLINE
  5
136
100
AcDbEntity
  8
0
 62
7
100
AcDbSpline
 70
8
 71
3
 72
8
 73
4
 74
0
 40
0
 40
0
 40
0
 40
0
 40
1
 40
1
 40
1
 40
1
 10
66.434612
 20
163.141673
 30
0.0
 10
66.462697
 20
162.184479
 30
0.0
 10
67.580510
 20
161.017649
 30
0.0
 10
69.124643
 20
160.067397
 30
0.0
  0
SPLINE
  5
137
100
AcDbEntity
  8
0
 62
7
100
AcDbSpline
 70
8
 71
3
 72
8
 73
4
 74
0
 40
0
 40
0
 40
0
 40
0
 40
1
 40
1
 40
1
 40
1
 10
69.124643
 20
160.067397
 30
0.0
 10
69.395392
 20
159.900782
 30
0.0
 10
69.985381
 20
159.922977
 30
0.0
 10
70.786689
 20
160.068660
 30
0.0
  0
LWPOLYLINE
  5
138
100
AcDbEntity
  8
0
 62
7
100
AcDbPolyline
 90
2
 70
0
 10
111.993576
 20
192.695406
 30
0.0
 10
110.830112
 20
196.667446
 30
0.0
  0
SPLINE
  5
139
100
AcDbEntity
  8
0
 62
7
100
AcDbSpline
 70
8
 71
3
 72
8
 73
4
 74
0
 40
0
 40
0
 40
0
 40
0
 40
1
 40
1
 40
1
 40
1
 10
70.786689
 20
160.068660
 30
0.0
 10
70.786689
 20
160.068660
 30
0.0
 10
73.320624
 20
157.264923
 30
0.0
 10
75.626304
 20
156.885411
 30
0.0
  0
SPLINE
  5
13a
100
AcDbEntity
  8
0
 62
7
100
AcDbSpline
 70
8
 71
3
 72
8
 73
4
 74
0
 40
0
 40
0
 40
0
 40
0
 40
1
 40
1
 40
1
 40
1
 10
75.626304
 20
156.885411
 30
0.0
 10
77.931775
 20
156.505899
 30
0.0
 10
82.559124
 20
162.934036
 30
0.0
 10
84.762669
 20
162.830848
 30
0.0
  0
SPLINE
  5
13b
100
AcDbEntity
  8
0
 62
7
100
AcDbSpline
 70
8
 71
3
 72
8
 73
4
 74
0
 40
0
 40
0
 40
0
 40
0
 40
1
 40
1
 40
1
 40
1
 10
84.762669
 20
162.830848
 30
0.0
 10
85.206344
 20
162.810126
 30
0.0
 10
85.705768
 20
162.932458
 30
0.0
 10
86.233171
 20
163.133784
 30
0.0
  0
SPLINE
  5
13c
100
AcDbEntity
  8
0
 62
7
100
AcDbSpline
 70
8
 71
3
 72
8
 73
4
 74
0
 40
0
 40
0
 40
0
 40
0
 40
1
 40
1
 40
1
 40
1
 10
86.233171
 20
163.133784
 30
0.0
 10
88.378864
 20
161.970215
 30
0.0
 10
92.688130
 20
159.320050
 30
0.0
 10
93.719901
 20
159.555246
 30
0.0
  0
SPLINE
  5
13d
100
AcDbEntity
  8
0
 62
7
100
AcDbSpline
 70
8
 71
3
 72
8
 73
4
 74
0
 40
0
 40
0
 40
0
 40
0
 40
1
 40
1
 40
1
 40
1
 10
93.719901
 20
159.555246
 30
0.0
 10
95.405299
 20
159.939491
 30
0.0
 10
95.695297
 20
161.668962
 30
0.0
 10
95.262140
 20
163.083926
 30
0.0
  0
SPLINE
  5
13e
100
AcDbEntity
  8
0
 62
7
100
AcDbSpline
 70
8
 71
3
 72
8
 73
4
 74
0
 40
0
 40
0
 40
0
 40
0
 40
1
 40
1
 40
1
 40
1
 10
95.262140
 20
163.083926
 30
0.0
 10
95.172522
 20
163.376554
 30
0.0
 10
95.085217
 20
163.703262
 30
0.0
 10
94.983397
 20
164.051323
 30
0.0
  0
SPLINE
  5
13f
100
AcDbEntity
  8
0
 62
7
100
AcDbSpline
 70
8
 71
3
 72
8
 73
4
 74
0
 40
0
 40
0
 40
0
 40
0
 40
1
 40
1
 40
1
 40
1
 10
94.983397
 20
164.051323
 30
0.0
 10
96.028947
 20
163.474692
 30
0.0
 10
96.954060
 20
163.011137
 30
0.0
 10
97.286132
 20
163.210360
 30
0.0
  0
SPLINE
  5
140
100
AcDbEntity
  8
0
 62
7
100
AcDbSpline
 70
8
 71
3
 72
8
 73
4
 74
0
 40
0
 40
0
 40
0
 40
0
 40
1
 40
1
 40
1
 40
1
 10
97.286132
 20
163.210360
 30
0.0
 10
97.918617
 20
163.589871
 30
0.0
 10
99.436663
 20
166.646476
 30
0.0
 10
97.286132
 20
168.027675
 30
0.0
  0
SPLINE
  5
141
100
AcDbEntity
  8
0
 62
7
100
AcDbSpline
 70
8
 71
3
 72
8
 73
4
 74
0
 40
0
 40
0
 40
0
 40
0
 40
1
 40
1
 40
1
 40
1
 10
97.286132
 20
168.027675
 30
0.0
 10
95.135601
 20
169.408875
 30
0.0
 10
91.594930
 20
170.926816
 30
0.0
 10
90.645520
 20
170.673843
 30
0.0
  0
SPLINE
  5
142
100
AcDbEntity
  8
0
 62
7
100
AcDbSpline
 70
8
 71
3
 72
8
 73
4
 74
0
 40
0
 40
0
 40
0
 40
0
 40
1
 40
1
 40
1
 40
1
 10
90.645520
 20
170.673843
 30
0.0
 10
90.092767
 20
170.526583
 30
0.0
 10
88.244646
 20
169.854022
 30
0.0
 10
86.755841
 20
169.508170
 30
0.0
  0
SPLINE
  5
143
100
AcDbEntity
  8
0
 62
7
100
AcDbSpline
 70
8
 71
3
 72
8
 73
4
 74
0
 40
0
 40
0
 40
0
 40
0
 40
1
 40
1
 40
1
 40
1
 10
86.755841
 20
169.508170
 30
0.0
 10
89.100230
 20
170.802170
 30
0.0
 10
93.108980
 20
173.182638
 30
0.0
 10
94.204073
 20
176.361574
 30
0.0
  0
SPLINE
  5
144
100
AcDbEntity
  8
0
 62
7
100
AcDbSpline
 70
8
 71
3
 72
8
 73
4
 74
0
 40
0
 40
0
 40
0
 40
0
 40
1
 40
1
 40
1
 40
1
 10
94.204073
 20
176.361574
 30
0.0
 10
94.742942
 20
177.925798
 30
0.0
 10
97.200406
 20
179.616560
 30
0.0
 10
98.406155
 20
180.179095
 30
0.0
  0
SPLINE
  5
145
100
AcDbEntity
  8
0
 62
7
100
AcDbSpline
 70
8
 71
3
 72
8
 73
4
 74
0
 40
0
 40
0
 40
0
 40
0
 40
1
 40
1
 40
1
 40
1
 10
98.406155
 20
180.179095
 30
0.0
 10
99.159708
 20
180.530522
 30
0.0
 10
101.561844
 20
182.555777
 30
0.0
 10
104.949259
 20
182.304066
 30
0.0
  0
SPLINE
  5
146
100
AcDbEntity
  8
0
 62
7
100
AcDbSpline
 70
8
 71
3
 72
8
 73
4
 74
0
 40
0
 40
0
 40
0
 40
0
 40
1
 40
1
 40
1
 40
1
 10
104.949259
 20
182.304066
 30
0.0
 10
108.430816
 20
182.045413
 30
0.0
 10
111.639099
 20
184.019863
 30
0.0
 10
111.639099
 20
184.019863
 30
0.0
  0
SPLINE
  5
147
100
AcDbEntity
  8
0
 62
7
100
AcDbSpline
 70
8
 71
3
 72
8
 73
4
 74
0
 40
0
 40
0
 40
0
 40
0
 40
1
 40
1
 40
1
 40
1
 10
111.639099
 20
184.019863
 30
0.0
 10
111.639099
 20
184.019863
 30
0.0
 10
114.828553
 20
183.802022
 30
0.0
 10
114.946257
 20
186.376348
 30
0.0
  0
SPLINE
  5
148
100
AcDbEntity
  8
0
 62
7
100
AcDbSpline
 70
8
 71
3
 72
8
 73
4
 74
0
 40
0
 40
0
 40
0
 40
0
 40
1
 40
1
 40
1
 40
1
 10
114.946257
 20
186.376348
 30
0.0
 10
115.063960
 20
188.950569
 30
0.0
 10
112.189643
 20
191.006327
 30
0.0
 10
111.993576
 20
192.695722
 30
0.0
  0
SPLINE
  5
149
100
AcDbEntity
  8
0
 62
7
100
AcDbSpline
 70
8
 71
3
 72
8
 73
4
 74
0
 40
0
 40
0
 40
0
 40
0
 40
1
 40
1
 40
1
 40
1
 10
23.112074
 20
43.809284
 30
0.0
 10
21.283413
 20
43.809284
 30
0.0
 10
19.942289
 20
44.053105
 30
0.0
 10
16.772610
 20
45.881767
 30
0.0
  0
SPLINE
  5
14a
100
AcDbEntity
  8
0
 62
7
100
AcDbSpline
 70
8
 71
3
 72
8
 73
4
 74
0
 40
0
 40
0
 40
0
 40
0
 40
1
 40
1
 40
1
 40
1
 10
16.772610
 20
45.881767
 30
0.0
 10
19.332736
 20
49.295373
 30
0.0
 10
21.994261
 20
46.436939
 30
0.0
 10
23.721628
 20
47.588623
 30
0.0
  0
SPLINE
  5
14b
100
AcDbEntity
  8
0
 62
7
100
AcDbSpline
 70
8
 71
3
 72
8
 73
4
 74
0
 40
0
 40
0
 40
0
 40
0
 40
1
 40
1
 40
1
 40
1
 10
23.721628
 20
47.588623
 30
0.0
 10
25.184557
 20
48.563909
 30
0.0
 10
25.618976
 20
49.914078
 30
0.0
 10
25.618976
 20
49.914078
 30
0.0
  0
SPLINE
  5
14c
100
AcDbEntity
  8
0
 62
7
100
AcDbSpline
 70
8
 71
3
 72
8
 73
4
 74
0
 40
0
 40
0
 40
0
 40
0
 40
1
 40
1
 40
1
 40
1
 10
25.618976
 20
49.914078
 30
0.0
 10
25.618976
 20
49.914078
 30
0.0
 10
19.332736
 20
62.827782
 30
0.0
 10
24.575003
 20
69.654890
 30
0.0
  0
SPLINE
  5
14d
100
AcDbEntity
  8
0
 62
7
100
AcDbSpline
 70
8
 71
3
 72
8
 73
4
 74
0
 40
0
 40
0
 40
0
 40
0
 40
1
 40
1
 40
1
 40
1
 10
24.575003
 20
69.654890
 30
0.0
 10
28.664115
 20
74.980149
 30
0.0
 10
34.053012
 20
78.976066
 30
0.0
 10
39.570342
 20
79.895604
 30
0.0
  0
SPLINE
  5
14e
100
AcDbEntity
  8
0
 62
7
100
AcDbSpline
 70
8
 71
3
 72
8
 73
4
 74
0
 40
0
 40
0
 40
0
 40
0
 40
1
 40
1
 40
1
 40
1
 10
39.570342
 20
79.895604
 30
0.0
 10
46.153628
 20
80.992800
 30
0.0
 10
54.809501
 20
80.627068
 30
0.0
 10
70.658215
 20
77.335373
 30
0.0
  0
SPLINE
  5
14f
100
AcDbEntity
  8
0
 62
7
100
AcDbSpline
 70
8
 71
3
 72
8
 73
4
 74
0
 40
0
 40
0
 40
0
 40
0
 40
1
 40
1
 40
1
 40
1
 10
70.658215
 20
77.335373
 30
0.0
 10
74.876916
 20
76.459172
 30
0.0
 10
78.608185
 20
78.005093
 30
0.0
 10
79.801732
 20
79.225042
 30
0.0
  0
SPLINE
  5
150
100
AcDbEntity
  8
0
 62
7
100
AcDbSpline
 70
8
 71
3
 72
8
 73
4
 74
0
 40
0
 40
0
 40
0
 40
0
 40
1
 40
1
 40
1
 40
1
 10
79.801732
 20
79.225042
 30
0.0
 10
80.064908
 20
79.494108
 30
0.0
 10
78.818767
 20
79.340852
 30
0.0
 10
78.818767
 20
79.340852
 30
0.0
  0
SPLINE
  5
151
100
AcDbEntity
  8
0
 62
7
100
AcDbSpline
 70
8
 71
3
 72
8
 73
4
 74
0
 40
0
 40
0
 40
0
 40
0
 40
1
 40
1
 40
1
 40
1
 10
78.818767
 20
79.340852
 30
0.0
 10
78.818767
 20
79.340852
 30
0.0
 10
86.881812
 20
82.575221
 30
0.0
 10
87.437300
 20
83.686092
 30
0.0
  0
SPLINE
  5
152
100
AcDbEntity
  8
0
 62
7
100
AcDbSpline
 70
8
 71
3
 72
8
 73
4
 74
0
 40
0
 40
0
 40
0
 40
0
 40
1
 40
1
 40
1
 40
1
 10
87.437300
 20
83.686092
 30
0.0
 10
87.992788
 20
84.797068
 30
0.0
 10
90.286162
 20
89.562527
 30
0.0
 10
90.286162
 20
91.599246
 30
0.0
  0
SPLINE
  5
153
100
AcDbEntity
  8
0
 62
7
100
AcDbSpline
 70
8
 71
3
 72
8
 73
4
 74
0
 40
0
 40
0
 40
0
 40
0
 40
1
 40
1
 40
1
 40
1
 10
90.286162
 20
91.599246
 30
0.0
 10
90.286162
 20
93.635966
 30
0.0
 10
90.290054
 20
100.912429
 30
0.0
 10
89.741403
 20
103.436055
 30
0.0
  0
SPLINE
  5
154
100
AcDbEntity
  8
0
 62
7
100
AcDbSpline
 70
8
 71
3
 72
8
 73
4
 74
0
 40
0
 40
0
 40
0
 40
0
 40
1
 40
1
 40
1
 40
1
 10
89.741403
 20
103.436055
 30
0.0
 10
89.192857
 20
105.959681
 30
0.0
 10
91.736995
 20
105.604362
 30
0.0
 10
93.218226
 20
104.123131
 30
0.0
  0
SPLINE
  5
155
100
AcDbEntity
  8
0
 62
7
100
AcDbSpline
 70
8
 71
3
 72
8
 73
4
 74
0
 40
0
 40
0
 40
0
 40
0
 40
1
 40
1
 40
1
 40
1
 10
93.218226
 20
104.123131
 30
0.0
 10
94.699458
 20
102.641899
 30
0.0
 10
97.065305
 20
95.791125
 30
0.0
 10
96.900793
 20
95.626614
 30
0.0
  0
SPLINE
  5
156
100
AcDbEntity
  8
0
 62
7
100
AcDbSpline
 70
8
 71
3
 72
8
 73
4
 74
0
 40
0
 40
0
 40
0
 40
0
 40
1
 40
1
 40
1
 40
1
 10
96.900793
 20
95.626614
 30
0.0
 10
96.736177
 20
95.461997
 30
0.0
 10
100.439256
 20
98.054205
 30
0.0
 10
100.994744
 20
99.350204
 30
0.0
  0
SPLINE
  5
157
100
AcDbEntity
  8
0
 62
7
100
AcDbSpline
 70
8
 71
3
 72
8
 73
4
 74
0
 40
0
 40
0
 40
0
 40
0
 40
1
 40
1
 40
1
 40
1
 10
100.994744
 20
99.350204
 30
0.0
 10
101.550232
 20
100.646308
 30
0.0
 10
103.216591
 20
100.831435
 30
0.0
 10
103.772079
 20
98.609588
 30
0.0
  0
SPLINE
  5
158
100
AcDbEntity
  8
0
 62
7
100
AcDbSpline
 70
8
 71
3
 72
8
 73
4
 74
0
 40
0
 40
0
 40
0
 40
0
 40
1
 40
1
 40
1
 40
1
 10
103.772079
 20
98.609588
 30
0.0
 10
104.327567
 20
96.387741
 30
0.0
 10
99.287257
 20
86.409887
 30
0.0
 10
99.122641
 20
86.245376
 30
0.0
  0
SPLINE
  5
159
100
AcDbEntity
  8
0
 62
7
100
AcDbSpline
 70
8
 71
3
 72
8
 73
4
 74
0
 40
0
 40
0
 40
0
 40
0
 40
1
 40
1
 40
1
 40
1
 10
99.122641
 20
86.245376
 30
0.0
 10
99.122641
 20
86.245376
 30
0.0
 10
97.531700
 20
82.369477
 30
0.0
 10
97.641409
 20
82.698604
 30
0.0
  0
LWPOLYLINE
  5
15a
100
AcDbEntity
  8
0
 62
7
100
AcDbPolyline
 90
2
 70
0
 10
70.786689
 20
160.068660
 30
0.0
 10
70.786689
 20
160.068660
 30
0.0
  0
SPLINE
  5
15b
100
AcDbEntity
  8
0
 62
7
100
AcDbSpline
 70
8
 71
3
 72
8
 73
4
 74
0
 40
0
 40
0
 40
0
 40
0
 40
1
 40
1
 40
1
 40
1
 10
101.179871
 20
79.600346
 30
0.0
 10
102.661208
 20
77.596550
 30
0.0
 10
103.447790
 20
75.206405
 30
0.0
 10
103.237207
 20
74.304854
 30
0.0
  0
SPLINE
  5
15c
100
AcDbEntity
  8
0
 62
7
100
AcDbSpline
 70
8
 71
3
 72
8
 73
4
 74
0
 40
0
 40
0
 40
0
 40
0
 40
1
 40
1
 40
1
 40
1
 10
103.237207
 20
74.304854
 30
0.0
 10
102.982026
 20
73.212391
 30
0.0
 10
105.047672
 20
70.519520
 30
0.0
 10
105.705927
 20
69.367416
 30
0.0
  0
SPLINE
  5
15d
100
AcDbEntity
  8
0
 62
7
100
AcDbSpline
 70
8
 71
3
 72
8
 73
4
 74
0
 40
0
 40
0
 40
0
 40
0
 40
1
 40
1
 40
1
 40
1
 10
105.705927
 20
69.367416
 30
0.0
 10
106.364287
 20
68.215312
 30
0.0
 10
106.611159
 20
66.240337
 30
0.0
 10
106.117415
 20
65.417466
 30
0.0
  0
SPLINE
  5
15e
100
AcDbEntity
  8
0
 62
7
100
AcDbSpline
 70
8
 71
3
 72
8
 73
4
 74
0
 40
0
 40
0
 40
0
 40
0
 40
1
 40
1
 40
1
 40
1
 10
106.117415
 20
65.417466
 30
0.0
 10
105.623671
 20
64.594489
 30
0.0
 10
104.142440
 20
64.100745
 30
0.0
 10
104.142440
 20
64.100745
 30
0.0
  0
SPLINE
  5
15f
100
AcDbEntity
  8
0
 62
7
100
AcDbSpline
 70
8
 71
3
 72
8
 73
4
 74
0
 40
0
 40
0
 40
0
 40
0
 40
1
 40
1
 40
1
 40
1
 10
104.142440
 20
64.100745
 30
0.0
 10
104.142440
 20
64.100745
 30
0.0
 10
103.394987
 20
63.111154
 30
0.0
 10
102.743464
 20
63.003548
 30
0.0
  0
SPLINE
  5
160
100
AcDbEntity
  8
0
 62
7
100
AcDbSpline
 70
8
 71
3
 72
8
 73
4
 74
0
 40
0
 40
0
 40
0
 40
0
 40
1
 40
1
 40
1
 40
1
 10
102.743464
 20
63.003548
 30
0.0
 10
101.568850
 20
62.809585
 30
0.0
 10
98.848315
 20
62.180677
 30
0.0
 10
96.873340
 20
63.497292
 30
0.0
  0
SPLINE
  5
161
100
AcDbEntity
  8
0
 62
7
100
AcDbSpline
 70
8
 71
3
 72
8
 73
4
 74
0
 40
0
 40
0
 40
0
 40
0
 40
1
 40
1
 40
1
 40
1
 10
96.873340
 20
63.497292
 30
0.0
 10
95.101900
 20
64.678217
 30
0.0
 10
88.973334
 20
66.240337
 30
0.0
 10
87.437300
 20
62.290386
 30
0.0
  0
SPLINE
  5
162
100
AcDbEntity
  8
0
 62
7
100
AcDbSpline
 70
8
 71
3
 72
8
 73
4
 74
0
 40
0
 40
0
 40
0
 40
0
 40
1
 40
1
 40
1
 40
1
 10
87.437300
 20
62.290386
 30
0.0
 10
86.861932
 20
60.810943
 30
0.0
 10
83.946698
 20
59.170355
 30
0.0
 10
84.068608
 20
56.854050
 30
0.0
  0
SPLINE
  5
163
100
AcDbEntity
  8
0
 62
7
100
AcDbSpline
 70
8
 71
3
 72
8
 73
4
 74
0
 40
0
 40
0
 40
0
 40
0
 40
1
 40
1
 40
1
 40
1
 10
84.068608
 20
56.854050
 30
0.0
 10
84.190624
 20
54.537641
 30
0.0
 10
84.502396
 20
51.091532
 30
0.0
 10
85.775464
 20
49.904927
 30
0.0
  0
SPLINE
  5
164
100
AcDbEntity
  8
0
 62
7
100
AcDbSpline
 70
8
 71
3
 72
8
 73
4
 74
0
 40
0
 40
0
 40
0
 40
0
 40
1
 40
1
 40
1
 40
1
 10
85.775464
 20
49.904927
 30
0.0
 10
88.140785
 20
47.700120
 30
0.0
 10
93.959052
 20
45.837799
 30
0.0
 10
93.920764
 20
45.799511
 30
0.0
  0
SPLINE
  5
165
100
AcDbEntity
  8
0
 62
7
100
AcDbSpline
 70
8
 71
3
 72
8
 73
4
 74
0
 40
0
 40
0
 40
0
 40
0
 40
1
 40
1
 40
1
 40
1
 10
93.920764
 20
45.799511
 30
0.0
 10
93.737846
 20
45.616593
 30
0.0
 10
101.997483
 20
41.828208
 30
0.0
 10
104.671947
 20
41.005337
 30
0.0
  0
SPLINE
  5
166
100
AcDbEntity
  8
0
 62
7
100
AcDbSpline
 70
8
 71
3
 72
8
 73
4
 74
0
 40
0
 40
0
 40
0
 40
0
 40
1
 40
1
 40
1
 40
1
 10
104.671947
 20
41.005337
 30
0.0
 10
106.343565
 20
40.490976
 30
0.0
 10
106.805437
 20
38.871846
 30
0.0
 10
106.256786
 20
38.597520
 30
0.0
  0
SPLINE
  5
167
100
AcDbEntity
  8
0
 62
7
100
AcDbSpline
 70
8
 71
3
 72
8
 73
4
 74
0
 40
0
 40
0
 40
0
 40
0
 40
1
 40
1
 40
1
 40
1
 10
106.256786
 20
38.597520
 30
0.0
 10
105.708241
 20
38.323195
 30
0.0
 10
105.508282
 20
37.489805
 30
0.0
 10
104.428125
 20
37.104087
 30
0.0
  0
SPLINE
  5
168
100
AcDbEntity
  8
0
 62
7
100
AcDbSpline
 70
8
 71
3
 72
8
 73
4
 74
0
 40
0
 40
0
 40
0
 40
0
 40
1
 40
1
 40
1
 40
1
 10
104.428125
 20
37.104087
 30
0.0
 10
103.462201
 20
36.759077
 30
0.0
 10
99.483745
 20
38.200863
 30
0.0
 10
97.844839
 20
38.323195
 30
0.0
  0
SPLINE
  5
169
100
AcDbEntity
  8
0
 62
7
100
AcDbSpline
 70
8
 71
3
 72
8
 73
4
 74
0
 40
0
 40
0
 40
0
 40
0
 40
1
 40
1
 40
1
 40
1
 10
97.844839
 20
38.323195
 30
0.0
 10
94.597111
 20
38.565649
 30
0.0
 10
90.529668
 20
41.004916
 30
0.0
 10
90.408178
 20
40.883426
 30
0.0
  0
SPLINE
  5
16a
100
AcDbEntity
  8
0
 62
7
100
AcDbSpline
 70
8
 71
3
 72
8
 73
4
 74
0
 40
0
 40
0
 40
0
 40
0
 40
1
 40
1
 40
1
 40
1
 10
90.408178
 20
40.883426
 30
0.0
 10
90.225259
 20
40.700507
 30
0.0
 10
94.022164
 20
34.830173
 30
0.0
 10
95.894267
 20
31.374177
 30
0.0
  0
SPLINE
  5
16b
100
AcDbEntity
  8
0
 62
7
100
AcDbSpline
 70
8
 71
3
 72
8
 73
4
 74
0
 40
0
 40
0
 40
0
 40
0
 40
1
 40
1
 40
1
 40
1
 10
95.894267
 20
31.374177
 30
0.0
 10
97.099911
 20
29.148227
 30
0.0
 10
96.656130
 20
26.253820
 30
0.0
 10
95.975786
 20
25.921958
 30
0.0
  0
SPLINE
  5
16c
100
AcDbEntity
  8
0
 62
7
100
AcDbSpline
 70
8
 71
3
 72
8
 73
4
 74
0
 40
0
 40
0
 40
0
 40
0
 40
1
 40
1
 40
1
 40
1
 10
95.975786
 20
25.921958
 30
0.0
 10
95.295337
 20
25.590095
 30
0.0
 10
95.327314
 20
25.238879
 30
0.0
 10
94.918876
 20
25.034607
 30
0.0
  0
SPLINE
  5
16d
100
AcDbEntity
  8
0
 62
7
100
AcDbSpline
 70
8
 71
3
 72
8
 73
4
 74
0
 40
0
 40
0
 40
0
 40
0
 40
1
 40
1
 40
1
 40
1
 10
94.918876
 20
25.034607
 30
0.0
 10
93.869960
 20
24.510149
 30
0.0
 10
93.289332
 20
25.856216
 30
0.0
 10
92.724482
 20
27.107195
 30
0.0
  0
SPLINE
  5
16e
100
AcDbEntity
  8
0
 62
7
100
AcDbSpline
 70
8
 71
3
 72
8
 73
4
 74
0
 40
0
 40
0
 40
0
 40
0
 40
1
 40
1
 40
1
 40
1
 10
92.724482
 20
27.107195
 30
0.0
 10
92.159738
 20
28.358174
 30
0.0
 10
90.900028
 20
32.622947
 30
0.0
 10
89.920430
 20
33.812392
 30
0.0
  0
SPLINE
  5
16f
100
AcDbEntity
  8
0
 62
7
100
AcDbSpline
 70
8
 71
3
 72
8
 73
4
 74
0
 40
0
 40
0
 40
0
 40
0
 40
1
 40
1
 40
1
 40
1
 10
89.920430
 20
33.812392
 30
0.0
 10
88.213679
 20
35.884980
 30
0.0
 10
84.434341
 20
40.839143
 30
0.0
 10
84.251527
 20
40.656329
 30
0.0
  0
SPLINE
  5
170
100
AcDbEntity
  8
0
 62
7
100
AcDbSpline
 70
8
 71
3
 72
8
 73
4
 74
0
 40
0
 40
0
 40
0
 40
0
 40
1
 40
1
 40
1
 40
1
 10
84.251527
 20
40.656329
 30
0.0
 10
84.184418
 20
40.589220
 30
0.0
 10
77.176180
 20
46.480486
 30
0.0
 10
75.169018
 20
45.759856
 30
0.0
  0
SPLINE
  5
171
100
AcDbEntity
  8
0
 62
7
100
AcDbSpline
 70
8
 71
3
 72
8
 73
4
 74
0
 40
0
 40
0
 40
0
 40
0
 40
1
 40
1
 40
1
 40
1
 10
75.169018
 20
45.759856
 30
0.0
 10
70.414394
 20
44.053105
 30
0.0
 10
67.497581
 20
44.063729
 30
0.0
 10
67.381772
 20
43.947919
 30
0.0
  0
SPLINE
  5
172
100
AcDbEntity
  8
0
 62
7
100
AcDbSpline
 70
8
 71
3
 72
8
 73
4
 74
0
 40
0
 40
0
 40
0
 40
0
 40
1
 40
1
 40
1
 40
1
 10
67.381772
 20
43.947919
 30
0.0
 10
67.198853
 20
43.765106
 30
0.0
 10
64.730134
 20
41.090643
 30
0.0
 10
63.701518
 20
39.856178
 30
0.0
  0
SPLINE
  5
173
100
AcDbEntity
  8
0
 62
7
100
AcDbSpline
 70
8
 71
3
 72
8
 73
4
 74
0
 40
0
 40
0
 40
0
 40
0
 40
1
 40
1
 40
1
 40
1
 10
63.701518
 20
39.856178
 30
0.0
 10
62.672903
 20
38.621818
 30
0.0
 10
54.603757
 20
38.987656
 30
0.0
 10
54.420839
 20
38.804737
 30
0.0
  0
SPLINE
  5
174
100
AcDbEntity
  8
0
 62
7
100
AcDbSpline
 70
8
 71
3
 72
8
 73
4
 74
0
 40
0
 40
0
 40
0
 40
0
 40
1
 40
1
 40
1
 40
1
 10
54.420839
 20
38.804737
 30
0.0
 10
54.320807
 20
38.704705
 30
0.0
 10
59.198394
 20
35.519248
 30
0.0
 10
62.368073
 20
35.153410
 30
0.0
  0
SPLINE
  5
175
100
AcDbEntity
  8
0
 62
7
100
AcDbSpline
 70
8
 71
3
 72
8
 73
4
 74
0
 40
0
 40
0
 40
0
 40
0
 40
1
 40
1
 40
1
 40
1
 10
62.368073
 20
35.153410
 30
0.0
 10
64.723823
 20
34.881609
 30
0.0
 10
67.214315
 20
34.298036
 30
0.0
 10
68.097984
 20
33.690481
 30
0.0
  0
SPLINE
  5
176
100
AcDbEntity
  8
0
 62
7
100
AcDbSpline
 70
8
 71
3
 72
8
 73
4
 74
0
 40
0
 40
0
 40
0
 40
0
 40
1
 40
1
 40
1
 40
1
 10
68.097984
 20
33.690481
 30
0.0
 10
70.048661
 20
32.349463
 30
0.0
 10
67.038654
 20
29.712761
 30
0.0
 10
63.952913
 20
29.789232
 30
0.0
  0
SPLINE
  5
177
100
AcDbEntity
  8
0
 62
7
100
AcDbSpline
 70
8
 71
3
 72
8
 73
4
 74
0
 40
0
 40
0
 40
0
 40
0
 40
1
 40
1
 40
1
 40
1
 10
63.952913
 20
29.789232
 30
0.0
 10
60.131395
 20
29.884110
 30
0.0
 10
54.242022
 20
32.616320
 30
0.0
 10
51.152074
 20
33.202838
 30
0.0
  0
SPLINE
  5
178
100
AcDbEntity
  8
0
 62
7
100
AcDbSpline
 70
8
 71
3
 72
8
 73
4
 74
0
 40
0
 40
0
 40
0
 40
0
 40
1
 40
1
 40
1
 40
1
 10
51.152074
 20
33.202838
 30
0.0
 10
47.232627
 20
33.946820
 30
0.0
 10
43.468751
 20
33.448448
 30
0.0
 10
41.764840
 20
34.543856
 30
0.0
  0
SPLINE
  5
179
100
AcDbEntity
  8
0
 62
7
100
AcDbSpline
 70
8
 71
3
 72
8
 73
4
 74
0
 40
0
 40
0
 40
0
 40
0
 40
1
 40
1
 40
1
 40
1
 10
41.764840
 20
34.543856
 30
0.0
 10
38.351234
 20
36.738355
 30
0.0
 10
43.288672
 20
40.427759
 30
0.0
 10
43.105859
 20
40.244841
 30
0.0
  0
SPLINE
  5
17a
100
AcDbEntity
  8
0
 62
7
100
AcDbSpline
 70
8
 71
3
 72
8
 73
4
 74
0
 40
0
 40
0
 40
0
 40
0
 40
1
 40
1
 40
1
 40
1
 10
43.105859
 20
40.244841
 30
0.0
 10
42.922940
 20
40.061922
 30
0.0
 10
45.963135
 20
42.896479
 30
0.0
 10
45.780217
 20
42.713560
 30
0.0
  0
SPLINE
  5
17b
100
AcDbEntity
  8
0
 62
7
100
AcDbSpline
 70
8
 71
3
 72
8
 73
4
 74
0
 40
0
 40
0
 40
0
 40
0
 40
1
 40
1
 40
1
 40
1
 10
45.780217
 20
42.713560
 30
0.0
 10
45.597403
 20
42.530641
 30
0.0
 10
38.899885
 20
43.016917
 30
0.0
 10
38.716966
 20
42.833998
 30
0.0
  0
SPLINE
  5
17c
100
AcDbEntity
  8
0
 62
7
100
AcDbSpline
 70
8
 71
3
 72
8
 73
4
 74
0
 40
0
 40
0
 40
0
 40
0
 40
1
 40
1
 40
1
 40
1
 10
38.716966
 20
42.833998
 30
0.0
 10
38.534048
 20
42.651079
 30
0.0
 10
35.966348
 20
41.933394
 30
0.0
 10
33.718520
 20
41.980623
 30
0.0
  0
SPLINE
  5
17d
100
AcDbEntity
  8
0
 62
7
100
AcDbSpline
 70
8
 71
3
 72
8
 73
4
 74
0
 40
0
 40
0
 40
0
 40
0
 40
1
 40
1
 40
1
 40
1
 10
33.718520
 20
41.980623
 30
0.0
 10
31.470692
 20
42.027746
 30
0.0
 10
28.598163
 20
44.540749
 30
0.0
 10
27.744788
 20
44.296927
 30
0.0
  0
SPLINE
  5
17e
100
AcDbEntity
  8
0
 62
7
100
AcDbSpline
 70
8
 71
3
 72
8
 73
4
 74
0
 40
0
 40
0
 40
0
 40
0
 40
1
 40
1
 40
1
 40
1
 10
27.744788
 20
44.296927
 30
0.0
 10
27.744788
 20
44.296927
 30
0.0
 10
25.029302
 20
43.809284
 30
0.0
 10
23.112074
 20
43.809284
 30
0.0
  0
SPLINE
  5
17f
100
AcDbEntity
  8
0
 62
7
100
AcDbSpline
 70
8
 71
3
 72
8
 73
4
 74
0
 40
0
 40
0
 40
0
 40
0
 40
1
 40
1
 40
1
 40
1
 10
5.926667
 20
22.577782
 30
0.0
 10
5.926667
 20
22.421912
 30
0.0
 10
5.800311
 20
22.295555
 30
0.0
 10
5.644444
 20
22.295555
 30
0.0
  0
SPLINE
  5
180
100
AcDbEntity
  8
0
 62
7
100
AcDbSpline
 70
8
 71
3
 72
8
 73
4
 74
0
 40
0
 40
0
 40
0
 40
0
 40
1
 40
1
 40
1
 40
1
 10
5.644444
 20
22.295555
 30
0.0
 10
5.488577
 20
22.295555
 30
0.0
 10
5.362222
 20
22.421912
 30
0.0
 10
5.362222
 20
22.577782
 30
0.0
  0
SPLINE
  5
181
100
AcDbEntity
  8
0
 62
7
100
AcDbSpline
 70
8
 71
3
 72
8
 73
4
 74
0
 40
0
 40
0
 40
0
 40
0
 40
1
 40
1
 40
1
 40
1
 10
5.362222
 20
22.577782
 30
0.0
 10
5.362222
 20
22.733651
 30
0.0
 10
5.488577
 20
22.860008
 30
0.0
 10
5.644444
 20
22.860008
 30
0.0
  0
SPLINE
  5
182
100
AcDbEntity
  8
0
 62
7
100
AcDbSpline
 70
8
 71
3
 72
8
 73
4
 74
0
 40
0
 40
0
 40
0
 40
0
 40
1
 40
1
 40
1
 40
1
 10
5.644444
 20
22.860008
 30
0.0
 10
5.800311
 20
22.860008
 30
0.0
 10
5.926667
 20
22.733651
 30
0.0
 10
5.926667
 20
22.577782
 30
0.0
  0
LWPOLYLINE
  5
183
100
AcDbEntity
  8
0
 62
7
100
AcDbPolyline
 90
2
 70
0
 10
97.641409
 20
82.698604
 30
0.0
 10
101.179871
 20
79.600346
 30
0.0
  0
SPLINE
  5
184
100
AcDbEntity
  8
0
 62
7
100
AcDbSpline
 70
8
 71
3
 72
8
 73
4
 74
0
 40
0
 40
0
 40
0
 40
0
 40
1
 40
1
 40
1
 40
1
 10
22.860000
 20
5.644450
 30
0.0
 10
22.860000
 20
5.488579
 30
0.0
 10
22.733645
 20
5.362222
 30
0.0
 10
22.577777
 20
5.362222
 30
0.0
  0
SPLINE
  5
185
100
AcDbEntity
  8
0
 62
7
100
AcDbSpline
 70
8
 71
3
 72
8
 73
4
 74
0
 40
0
 40
0
 40
0
 40
0
 40
1
 40
1
 40
1
 40
1
 10
22.577777
 20
5.362222
 30
0.0
 10
22.421911
 20
5.362222
 30
0.0
 10
22.295556
 20
5.488579
 30
0.0
 10
22.295556
 20
5.644450
 30
0.0
  0
SPLINE
  5
186
100
AcDbEntity
  8
0
 62
7
100
AcDbSpline
 70
8
 71
3
 72
8
 73
4
 74
0
 40
0
 40
0
 40
0
 40
0
 40
1
 40
1
 40
1
 40
1
 10
22.295556
 20
5.644450
 30
0.0
 10
22.295556
 20
5.800319
 30
0.0
 10
22.421911
 20
5.926675
 30
0.0
 10
22.577777
 20
5.926675
 30
0.0
  0
SPLINE
  5
187
100
AcDbEntity
  8
0
 62
7
100
AcDbSpline
 70
8
 71
3
 72
8
 73
4
 74
0
 40
0
 40
0
 40
0
 40
0
 40
1
 40
1
 40
1
 40
1
 10
22.577777
 20
5.926675
 30
0.0
 10
22.733645
 20
5.926675
 30
0.0
 10
22.860000
 20
5.800319
 30
0.0
 10
22.860000
 20
5.644450
 30
0.0
  0
LWPOLYLINE
  5
188
100
AcDbEntity
  8
0
 62
7
100
AcDbPolyline
 90
2
 70
1
 10
5.926667
 20
22.577782
 30
0.0
 10
5.926667
 20
22.577782
 30
0.0
  0
SPLINE
  5
189
100
AcDbEntity
  8
0
 62
7
100
AcDbSpline
 70
8
 71
3
 72
8
 73
4
 74
0
 40
0
 40
0
 40
0
 40
0
 40
1
 40
1
 40
1
 40
1
 10
104.704444
 20
248.355561
 30
0.0
 10
104.704444
 20
248.199690
 30
0.0
 10
104.578088
 20
248.073333
 30
0.0
 10
104.422222
 20
248.073333
 30
0.0
  0
SPLINE
  5
18a
100
AcDbEntity
  8
0
 62
7
100
AcDbSpline
 70
8
 71
3
 72
8
 73
4
 74
0
 40
0
 40
0
 40
0
 40
0
 40
1
 40
1
 40
1
 40
1
 10
104.422222
 20
248.073333
 30
0.0
 10
104.266357
 20
248.073333
 30
0.0
 10
104.140000
 20
248.199690
 30
0.0
 10
104.140000
 20
248.355561
 30
0.0
  0
SPLINE
  5
18b
100
AcDbEntity
  8
0
 62
7
100
AcDbSpline
 70
8
 71
3
 72
8
 73
4
 74
0
 40
0
 40
0
 40
0
 40
0
 40
1
 40
1
 40
1
 40
1
 10
104.140000
 20
248.355561
 30
0.0
 10
104.140000
 20
248.511430
 30
0.0
 10
104.266357
 20
248.637786
 30
0.0
 10
104.422222
 20
248.637786
 30
0.0
  0
SPLINE
  5
18c
100
AcDbEntity
  8
0
 62
7
100
AcDbSpline
 70
8
 71
3
 72
8
 73
4
 74
0
 40
0
 40
0
 40
0
 40
0
 40
1
 40
1
 40
1
 40
1
 10
104.422222
 20
248.637786
 30
0.0
 10
104.578088
 20
248.637786
 30
0.0
 10
104.704444
 20
248.511430
 30
0.0
 10
104.704444
 20
248.355561
 30
0.0
  0
LWPOLYLINE
  5
18d
100
AcDbEntity
  8
0
 62
7
100
AcDbPolyline
 90
2
 70
1
 10
22.860000
 20
5.644450
 30
0.0
 10
22.860000
 20
5.644450
 30
0.0
  0
SPLINE
  5
18e
100
AcDbEntity
  8
0
 62
7
100
AcDbSpline
 70
8
 71
3
 72
8
 73
4
 74
0
 40
0
 40
0
 40
0
 40
0
 40
1
 40
1
 40
1
 40
1
 10
22.860000
 20
248.355561
 30
0.0
 10
22.860000
 20
248.199690
 30
0.0
 10
22.733643
 20
248.073333
 30
0.0
 10
22.577778
 20
248.073333
 30
0.0
  0
SPLINE
  5
18f
100
AcDbEntity
  8
0
 62
7
100
AcDbSpline
 70
8
 71
3
 72
8
 73
4
 74
0
 40
0
 40
0
 40
0
 40
0
 40
1
 40
1
 40
1
 40
1
 10
22.577778
 20
248.073333
 30
0.0
 10
22.421912
 20
248.073333
 30
0.0
 10
22.295556
 20
248.199690
 30
0.0
 10
22.295556
 20
248.355561
 30
0.0
  0
SPLINE
  5
190
100
AcDbEntity
  8
0
 62
7
100
AcDbSpline
 70
8
 71
3
 72
8
 73
4
 74
0
 40
0
 40
0
 40
0
 40
0
 40
1
 40
1
 40
1
 40
1
 10
22.295556
 20
248.355561
 30
0.0
 10
22.295556
 20
248.511430
 30
0.0
 10
22.421912
 20
248.637786
 30
0.0
 10
22.577778
 20
248.637786
 30
0.0
  0
SPLINE
  5
191
100
AcDbEntity
  8
0
 62
7
100
AcDbSpline
 70
8
 71
3
 72
8
 73
4
 74
0
 40
0
 40
0
 40
0
 40
0
 40
1
 40
1
 40
1
 40
1
 10
22.577778
 20
248.637786
 30
0.0
 10
22.733643
 20
248.637786
 30
0.0
 10
22.860000
 20
248.511430
 30
0.0
 10
22.860000
 20
248.355561
 30
0.0
  0
LWPOLYLINE
  5
192
100
AcDbEntity
  8
0
 62
7
100
AcDbPolyline
 90
2
 70
1
 10
104.704444
 20
248.355561
 30
0.0
 10
104.704444
 20
248.355561
 30
0.0
  0
SPLINE
  5
193
100
AcDbEntity
  8
0
 62
7
100
AcDbSpline
 70
8
 71
3
 72
8
 73
4
 74
0
 40
0
 40
0
 40
0
 40
0
 40
1
 40
1
 40
1
 40
1
 10
104.704444
 20
121.355561
 30
0.0
 10
104.704444
 20
121.199690
 30
0.0
 10
104.578088
 20
121.073333
 30
0.0
 10
104.422222
 20
121.073333
 30
0.0
  0
SPLINE
  5
194
100
AcDbEntity
  8
0
 62
7
100
AcDbSpline
 70
8
 71
3
 72
8
 73
4
 74
0
 40
0
 40
0
 40
0
 40
0
 40
1
 40
1
 40
1
 40
1
 10
104.422222
 20
121.073333
 30
0.0
 10
104.266357
 20
121.073333
 30
0.0
 10
104.140000
 20
121.199690
 30
0.0
 10
104.140000
 20
121.355561
 30
0.0
  0
SPLINE
  5
195
100
AcDbEntity
  8
0
 62
7
100
AcDbSpline
 70
8
 71
3
 72
8
 73
4
 74
0
 40
0
 40
0
 40
0
 40
0
 40
1
 40
1
 40
1
 40
1
 10
104.140000
 20
121.355561
 30
0.0
 10
104.140000
 20
121.511430
 30
0.0
 10
104.266357
 20
121.637786
 30
0.0
 10
104.422222
 20
121.637786
 30
0.0
  0
SPLINE
  5
196
100
AcDbEntity
  8
0
 62
7
100
AcDbSpline
 70
8
 71
3
 72
8
 73
4
 74
0
 40
0
 40
0
 40
0
 40
0
 40
1
 40
1
 40
1
 40
1
 10
104.422222
 20
121.637786
 30
0.0
 10
104.578088
 20
121.637786
 30
0.0
 10
104.704444
 20
121.511430
 30
0.0
 10
104.704444
 20
121.355561
 30
0.0
  0
LWPOLYLINE
  5
197
100
AcDbEntity
  8
0
 62
7
100
AcDbPolyline
 90
2
 70
1
 10
22.860000
 20
248.355561
 30
0.0
 10
22.860000
 20
248.355561
 30
0.0
  0
SPLINE
  5
198
100
AcDbEntity
  8
0
 62
7
100
AcDbSpline
 70
8
 71
3
 72
8
 73
4
 74
0
 40
0
 40
0
 40
0
 40
0
 40
1
 40
1
 40
1
 40
1
 10
22.860000
 20
121.355561
 30
0.0
 10
22.860000
 20
121.199690
 30
0.0
 10
22.733645
 20
121.073333
 30
0.0
 10
22.577777
 20
121.073333
 30
0.0
  0
SPLINE
  5
199
100
AcDbEntity
  8
0
 62
7
100
AcDbSpline
 70
8
 71
3
 72
8
 73
4
 74
0
 40
0
 40
0
 40
0
 40
0
 40
1
 40
1
 40
1
 40
1
 10
22.577777
 20
121.073333
 30
0.0
 10
22.421911
 20
121.073333
 30
0.0
 10
22.295556
 20
121.199690
 30
0.0
 10
22.295556
 20
121.355561
 30
0.0
  0
SPLINE
  5
19a
100
AcDbEntity
  8
0
 62
7
100
AcDbSpline
 70
8
 71
3
 72
8
 73
4
 74
0
 40
0
 40
0
 40
0
 40
0
 40
1
 40
1
 40
1
 40
1
 10
22.295556
 20
121.355561
 30
0.0
 10
22.295556
 20
121.511430
 30
0.0
 10
22.421911
 20
121.637786
 30
0.0
 10
22.577777
 20
121.637786
 30
0.0
  0
SPLINE
  5
19b
100
AcDbEntity
  8
0
 62
7
100
AcDbSpline
 70
8
 71
3
 72
8
 73
4
 74
0
 40
0
 40
0
 40
0
 40
0
 40
1
 40
1
 40
1
 40
1
 10
22.577777
 20
121.637786
 30
0.0
 10
22.733645
 20
121.637786
 30
0.0
 10
22.860000
 20
121.511430
 30
0.0
 10
22.860000
 20
121.355561
 30
0.0
  0
LWPOLYLINE
  5
19c
100
AcDbEntity
  8
0
 62
7
100
AcDbPolyline
 90
2
 70
1
 10
104.704444
 20
121.355561
 30
0.0
 10
104.704444
 20
121.355561
 30
0.0
  0
SPLINE
  5
19d
100
AcDbEntity
  8
0
 62
7
100
AcDbSpline
 70
8
 71
3
 72
8
 73
4
 74
0
 40
0
 40
0
 40
0
 40
0
 40
1
 40
1
 40
1
 40
1
 10
22.860000
 20
132.644450
 30
0.0
 10
22.860000
 20
132.488579
 30
0.0
 10
22.733645
 20
132.362222
 30
0.0
 10
22.577777
 20
132.362222
 30
0.0
  0
SPLINE
  5
19e
100
AcDbEntity
  8
0
 62
7
100
AcDbSpline
 70
8
 71
3
 72
8
 73
4
 74
0
 40
0
 40
0
 40
0
 40
0
 40
1
 40
1
 40
1
 40
1
 10
22.577777
 20
132.362222
 30
0.0
 10
22.421911
 20
132.362222
 30
0.0
 10
22.295556
 20
132.488579
 30
0.0
 10
22.295556
 20
132.644450
 30
0.0
  0
SPLINE
  5
19f
100
AcDbEntity
  8
0
 62
7
100
AcDbSpline
 70
8
 71
3
 72
8
 73
4
 74
0
 40
0
 40
0
 40
0
 40
0
 40
1
 40
1
 40
1
 40
1
 10
22.295556
 20
132.644450
 30
0.0
 10
22.295556
 20
132.800319
 30
0.0
 10
22.421911
 20
132.926675
 30
0.0
 10
22.577777
 20
132.926675
 30
0.0
  0
SPLINE
  5
1a0
100
AcDbEntity
  8
0
 62
7
100
AcDbSpline
 70
8
 71
3
 72
8
 73
4
 74
0
 40
0
 40
0
 40
0
 40
0
 40
1
 40
1
 40
1
 40
1
 10
22.577777
 20
132.926675
 30
0.0
 10
22.733645
 20
132.926675
 30
0.0
 10
22.860000
 20
132.800319
 30
0.0
 10
22.860000
 20
132.644450
 30
0.0
  0
LWPOLYLINE
  5
1a1
100
AcDbEntity
  8
0
 62
7
100
AcDbPolyline
 90
2
 70
1
 10
22.860000
 20
121.355561
 30
0.0
 10
22.860000
 20
121.355561
 30
0.0
  0
SPLINE
  5
1a2
100
AcDbEntity
  8
0
 62
7
100
AcDbSpline
 70
8
 71
3
 72
8
 73
4
 74
0
 40
0
 40
0
 40
0
 40
0
 40
1
 40
1
 40
1
 40
1
 10
104.704444
 20
5.644450
 30
0.0
 10
104.704444
 20
5.488579
 30
0.0
 10
104.578088
 20
5.362222
 30
0.0
 10
104.422222
 20
5.362222
 30
0.0
  0
SPLINE
  5
1a3
100
AcDbEntity
  8
0
 62
7
100
AcDbSpline
 70
8
 71
3
 72
8
 73
4
 74
0
 40
0
 40
0
 40
0
 40
0
 40
1
 40
1
 40
1
 40
1
 10
104.422222
 20
5.362222
 30
0.0
 10
104.266357
 20
5.362222
 30
0.0
 10
104.140000
 20
5.488579
 30
0.0
 10
104.140000
 20
5.644450
 30
0.0
  0
SPLINE
  5
1a4
100
AcDbEntity
  8
0
 62
7
100
AcDbSpline
 70
8
 71
3
 72
8
 73
4
 74
0
 40
0
 40
0
 40
0
 40
0
 40
1
 40
1
 40
1
 40
1
 10
104.140000
 20
5.644450
 30
0.0
 10
104.140000
 20
5.800319
 30
0.0
 10
104.266357
 20
5.926675
 30
0.0
 10
104.422222
 20
5.926675
 30
0.0
  0
SPLINE
  5
1a5
100
AcDbEntity
  8
0
 62
7
100
AcDbSpline
 70
8
 71
3
 72
8
 73
4
 74
0
 40
0
 40
0
 40
0
 40
0
 40
1
 40
1
 40
1
 40
1
 10
104.422222
 20
5.926675
 30
0.0
 10
104.578088
 20
5.926675
 30
0.0
 10
104.704444
 20
5.800319
 30
0.0
 10
104.704444
 20
5.644450
 30
0.0
  0
LWPOLYLINE
  5
1a6
100
AcDbEntity
  8
0
 62
7
100
AcDbPolyline
 90
2
 70
1
 10
22.860000
 20
132.644450
 30
0.0
 10
22.860000
 20
132.644450
 30
0.0
  0
SPLINE
  5
1a7
100
AcDbEntity
  8
0
 62
7
100
AcDbSpline
 70
8
 71
3
 72
8
 73
4
 74
0
 40
0
 40
0
 40
0
 40
0
 40
1
 40
1
 40
1
 40
1
 10
104.704444
 20
132.644450
 30
0.0
 10
104.704444
 20
132.488579
 30
0.0
 10
104.578088
 20
132.362222
 30
0.0
 10
104.422222
 20
132.362222
 30
0.0
  0
SPLINE
  5
1a8
100
AcDbEntity
  8
0
 62
7
100
AcDbSpline
 70
8
 71
3
 72
8
 73
4
 74
0
 40
0
 40
0
 40
0
 40
0
 40
1
 40
1
 40
1
 40
1
 10
104.422222
 20
132.362222
 30
0.0
 10
104.266357
 20
132.362222
 30
0.0
 10
104.140000
 20
132.488579
 30
0.0
 10
104.140000
 20
132.644450
 30
0.0
  0
SPLINE
  5
1a9
100
AcDbEntity
  8
0
 62
7
100
AcDbSpline
 70
8
 71
3
 72
8
 73
4
 74
0
 40
0
 40
0
 40
0
 40
0
 40
1
 40
1
 40
1
 40
1
 10
104.140000
 20
132.644450
 30
0.0
 10
104.140000
 20
132.800319
 30
0.0
 10
104.266357
 20
132.926675
 30
0.0
 10
104.422222
 20
132.926675
 30
0.0
  0
SPLINE
  5
1aa
100
AcDbEntity
  8
0
 62
7
100
AcDbSpline
 70
8
 71
3
 72
8
 73
4
 74
0
 40
0
 40
0
 40
0
 40
0
 40
1
 40
1
 40
1
 40
1
 10
104.422222
 20
132.926675
 30
0.0
 10
104.578088
 20
132.926675
 30
0.0
 10
104.704444
 20
132.800319
 30
0.0
 10
104.704444
 20
132.644450
 30
0.0
  0
LWPOLYLINE
  5
1ab
100
AcDbEntity
  8
0
 62
7
100
AcDbPolyline
 90
2
 70
1
 10
104.704444
 20
5.644450
 30
0.0
 10
104.704444
 20
5.644450
 30
0.0
  0
SPLINE
  5
1ac
100
AcDbEntity
  8
0
 62
7
100
AcDbSpline
 70
8
 71
3
 72
8
 73
4
 74
0
 40
0
 40
0
 40
0
 40
0
 40
1
 40
1
 40
1
 40
1
 10
5.926667
 20
104.422228
 30
0.0
 10
5.926667
 20
104.266357
 30
0.0
 10
5.800311
 20
104.140000
 30
0.0
 10
5.644444
 20
104.140000
 30
0.0
  0
SPLINE
  5
1ad
100
AcDbEntity
  8
0
 62
7
100
AcDbSpline
 70
8
 71
3
 72
8
 73
4
 74
0
 40
0
 40
0
 40
0
 40
0
 40
1
 40
1
 40
1
 40
1
 10
5.644444
 20
104.140000
 30
0.0
 10
5.488577
 20
104.140000
 30
0.0
 10
5.362222
 20
104.266357
 30
0.0
 10
5.362222
 20
104.422228
 30
0.0
  0
SPLINE
  5
1ae
100
AcDbEntity
  8
0
 62
7
100
AcDbSpline
 70
8
 71
3
 72
8
 73
4
 74
0
 40
0
 40
0
 40
0
 40
0
 40
1
 40
1
 40
1
 40
1
 10
5.362222
 20
104.422228
 30
0.0
 10
5.362222
 20
104.578096
 30
0.0
 10
5.488577
 20
104.704453
 30
0.0
 10
5.644444
 20
104.704453
 30
0.0
  0
SPLINE
  5
1af
100
AcDbEntity
  8
0
 62
7
100
AcDbSpline
 70
8
 71
3
 72
8
 73
4
 74
0
 40
0
 40
0
 40
0
 40
0
 40
1
 40
1
 40
1
 40
1
 10
5.644444
 20
104.704453
 30
0.0
 10
5.800311
 20
104.704453
 30
0.0
 10
5.926667
 20
104.578096
 30
0.0
 10
5.926667
 20
104.422228
 30
0.0
  0
LWPOLYLINE
  5
1b0
100
AcDbEntity
  8
0
 62
7
100
AcDbPolyline
 90
2
 70
1
 10
104.704444
 20
132.644450
 30
0.0
 10
104.704444
 20
132.644450
 30
0.0
  0
SPLINE
  5
1b1
100
AcDbEntity
  8
0
 62
7
100
AcDbSpline
 70
8
 71
3
 72
8
 73
4
 74
0
 40
0
 40
0
 40
0
 40
0
 40
1
 40
1
 40
1
 40
1
 10
5.926667
 20
231.422228
 30
0.0
 10
5.926667
 20
231.266357
 30
0.0
 10
5.800311
 20
231.140000
 30
0.0
 10
5.644444
 20
231.140000
 30
0.0
  0
SPLINE
  5
1b2
100
AcDbEntity
  8
0
 62
7
100
AcDbSpline
 70
8
 71
3
 72
8
 73
4
 74
0
 40
0
 40
0
 40
0
 40
0
 40
1
 40
1
 40
1
 40
1
 10
5.644444
 20
231.140000
 30
0.0
 10
5.488577
 20
231.140000
 30
0.0
 10
5.362222
 20
231.266357
 30
0.0
 10
5.362222
 20
231.422228
 30
0.0
  0
SPLINE
  5
1b3
100
AcDbEntity
  8
0
 62
7
100
AcDbSpline
 70
8
 71
3
 72
8
 73
4
 74
0
 40
0
 40
0
 40
0
 40
0
 40
1
 40
1
 40
1
 40
1
 10
5.362222
 20
231.422228
 30
0.0
 10
5.362222
 20
231.578096
 30
0.0
 10
5.488577
 20
231.704453
 30
0.0
 10
5.644444
 20
231.704453
 30
0.0
  0
SPLINE
  5
1b4
100
AcDbEntity
  8
0
 62
7
100
AcDbSpline
 70
8
 71
3
 72
8
 73
4
 74
0
 40
0
 40
0
 40
0
 40
0
 40
1
 40
1
 40
1
 40
1
 10
5.644444
 20
231.704453
 30
0.0
 10
5.800311
 20
231.704453
 30
0.0
 10
5.926667
 20
231.578096
 30
0.0
 10
5.926667
 20
231.422228
 30
0.0
  0
LWPOLYLINE
  5
1b5
100
AcDbEntity
  8
0
 62
7
100
AcDbPolyline
 90
2
 70
1
 10
5.926667
 20
104.422228
 30
0.0
 10
5.926667
 20
104.422228
 30
0.0
  0
SPLINE
  5
1b6
100
AcDbEntity
  8
0
 62
7
100
AcDbSpline
 70
8
 71
3
 72
8
 73
4
 74
0
 40
0
 40
0
 40
0
 40
0
 40
1
 40
1
 40
1
 40
1
 10
121.637778
 20
231.422228
 30
0.0
 10
121.637778
 20
231.266357
 30
0.0
 10
121.511421
 20
231.140000
 30
0.0
 10
121.355556
 20
231.140000
 30
0.0
  0
SPLINE
  5
1b7
100
AcDbEntity
  8
0
 62
7
100
AcDbSpline
 70
8
 71
3
 72
8
 73
4
 74
0
 40
0
 40
0
 40
0
 40
0
 40
1
 40
1
 40
1
 40
1
 10
121.355556
 20
231.140000
 30
0.0
 10
121.199690
 20
231.140000
 30
0.0
 10
121.073333
 20
231.266357
 30
0.0
 10
121.073333
 20
231.422228
 30
0.0
  0
SPLINE
  5
1b8
100
AcDbEntity
  8
0
 62
7
100
AcDbSpline
 70
8
 71
3
 72
8
 73
4
 74
0
 40
0
 40
0
 40
0
 40
0
 40
1
 40
1
 40
1
 40
1
 10
121.073333
 20
231.422228
 30
0.0
 10
121.073333
 20
231.578096
 30
0.0
 10
121.199690
 20
231.704453
 30
0.0
 10
121.355556
 20
231.704453
 30
0.0
  0
SPLINE
  5
1b9
100
AcDbEntity
  8
0
 62
7
100
AcDbSpline
 70
8
 71
3
 72
8
 73
4
 74
0
 40
0
 40
0
 40
0
 40
0
 40
1
 40
1
 40
1
 40
1
 10
121.355556
 20
231.704453
 30
0.0
 10
121.511421
 20
231.704453
 30
0.0
 10
121.637778
 20
231.578096
 30
0.0
 10
121.637778
 20
231.422228
 30
0.0
  0
LWPOLYLINE
  5
1ba
100
AcDbEntity
  8
0
 62
7
100
AcDbPolyline
 90
2
 70
1
 10
5.926667
 20
231.422228
 30
0.0
 10
5.926667
 20
231.422228
 30
0.0
  0
SPLINE
  5
1bb
100
AcDbEntity
  8
0
 62
7
100
AcDbSpline
 70
8
 71
3
 72
8
 73
4
 74
0
 40
0
 40
0
 40
0
 40
0
 40
1
 40
1
 40
1
 40
1
 10
121.637778
 20
104.422228
 30
0.0
 10
121.637778
 20
104.266357
 30
0.0
 10
121.511421
 20
104.140000
 30
0.0
 10
121.355556
 20
104.140000
 30
0.0
  0
SPLINE
  5
1bc
100
AcDbEntity
  8
0
 62
7
100
AcDbSpline
 70
8
 71
3
 72
8
 73
4
 74
0
 40
0
 40
0
 40
0
 40
0
 40
1
 40
1
 40
1
 40
1
 10
121.355556
 20
104.140000
 30
0.0
 10
121.199690
 20
104.140000
 30
0.0
 10
121.073333
 20
104.266357
 30
0.0
 10
121.073333
 20
104.422228
 30
0.0
  0
SPLINE
  5
1bd
100
AcDbEntity
  8
0
 62
7
100
AcDbSpline
 70
8
 71
3
 72
8
 73
4
 74
0
 40
0
 40
0
 40
0
 40
0
 40
1
 40
1
 40
1
 40
1
 10
121.073333
 20
104.422228
 30
0.0
 10
121.073333
 20
104.578096
 30
0.0
 10
121.199690
 20
104.704453
 30
0.0
 10
121.355556
 20
104.704453
 30
0.0
  0
SPLINE
  5
1be
100
AcDbEntity
  8
0
 62
7
100
AcDbSpline
 70
8
 71
3
 72
8
 73
4
 74
0
 40
0
 40
0
 40
0
 40
0
 40
1
 40
1
 40
1
 40
1
 10
121.355556
 20
104.704453
 30
0.0
 10
121.511421
 20
104.704453
 30
0.0
 10
121.637778
 20
104.578096
 30
0.0
 10
121.637778
 20
104.422228
 30
0.0
  0
LWPOLYLINE
  5
1bf
100
AcDbEntity
  8
0
 62
7
100
AcDbPolyline
 90
2
 70
1
 10
121.637778
 20
231.422228
 30
0.0
 10
121.637778
 20
231.422228
 30
0.0
  0
SPLINE
  5
1c0
100
AcDbEntity
  8
0
 62
7
100
AcDbSpline
 70
8
 71
3
 72
8
 73
4
 74
0
 40
0
 40
0
 40
0
 40
0
 40
1
 40
1
 40
1
 40
1
 10
5.926667
 20
149.577781
 30
0.0
 10
5.926667
 20
149.421912
 30
0.0
 10
5.800310
 20
149.295556
 30
0.0
 10
5.644444
 20
149.295556
 30
0.0
  0
SPLINE
  5
1c1
100
AcDbEntity
  8
0
 62
7
100
AcDbSpline
 70
8
 71
3
 72
8
 73
4
 74
0
 40
0
 40
0
 40
0
 40
0
 40
1
 40
1
 40
1
 40
1
 10
5.644444
 20
149.295556
 30
0.0
 10
5.488576
 20
149.295556
 30
0.0
 10
5.362222
 20
149.421912
 30
0.0
 10
5.362222
 20
149.577781
 30
0.0
  0
SPLINE
  5
1c2
100
AcDbEntity
  8
0
 62
7
100
AcDbSpline
 70
8
 71
3
 72
8
 73
4
 74
0
 40
0
 40
0
 40
0
 40
0
 40
1
 40
1
 40
1
 40
1
 10
5.362222
 20
149.577781
 30
0.0
 10
5.362222
 20
149.733652
 30
0.0
 10
5.488576
 20
149.860008
 30
0.0
 10
5.644444
 20
149.860008
 30
0.0
  0
SPLINE
  5
1c3
100
AcDbEntity
  8
0
 62
7
100
AcDbSpline
 70
8
 71
3
 72
8
 73
4
 74
0
 40
0
 40
0
 40
0
 40
0
 40
1
 40
1
 40
1
 40
1
 10
5.644444
 20
149.860008
 30
0.0
 10
5.800310
 20
149.860008
 30
0.0
 10
5.926667
 20
149.733652
 30
0.0
 10
5.926667
 20
149.577781
 30
0.0
  0
LWPOLYLINE
  5
1c4
100
AcDbEntity
  8
0
 62
7
100
AcDbPolyline
 90
2
 70
1
 10
121.637778
 20
104.422228
 30
0.0
 10
121.637778
 20
104.422228
 30
0.0
  0
SPLINE
  5
1c5
100
AcDbEntity
  8
0
 62
7
100
AcDbSpline
 70
8
 71
3
 72
8
 73
4
 74
0
 40
0
 40
0
 40
0
 40
0
 40
1
 40
1
 40
1
 40
1
 10
121.637778
 20
149.577781
 30
0.0
 10
121.637778
 20
149.421912
 30
0.0
 10
121.511421
 20
149.295556
 30
0.0
 10
121.355556
 20
149.295556
 30
0.0
  0
SPLINE
  5
1c6
100
AcDbEntity
  8
0
 62
7
100
AcDbSpline
 70
8
 71
3
 72
8
 73
4
 74
0
 40
0
 40
0
 40
0
 40
0
 40
1
 40
1
 40
1
 40
1
 10
121.355556
 20
149.295556
 30
0.0
 10
121.199687
 20
149.295556
 30
0.0
 10
121.073333
 20
149.421912
 30
0.0
 10
121.073333
 20
149.577781
 30
0.0
  0
SPLINE
  5
1c7
100
AcDbEntity
  8
0
 62
7
100
AcDbSpline
 70
8
 71
3
 72
8
 73
4
 74
0
 40
0
 40
0
 40
0
 40
0
 40
1
 40
1
 40
1
 40
1
 10
121.073333
 20
149.577781
 30
0.0
 10
121.073333
 20
149.733652
 30
0.0
 10
121.199687
 20
149.860008
 30
0.0
 10
121.355556
 20
149.860008
 30
0.0
  0
SPLINE
  5
1c8
100
AcDbEntity
  8
0
 62
7
100
AcDbSpline
 70
8
 71
3
 72
8
 73
4
 74
0
 40
0
 40
0
 40
0
 40
0
 40
1
 40
1
 40
1
 40
1
 10
121.355556
 20
149.860008
 30
0.0
 10
121.511421
 20
149.860008
 30
0.0
 10
121.637778
 20
149.733652
 30
0.0
 10
121.637778
 20
149.577781
 30
0.0
  0
LWPOLYLINE
  5
1c9
100
AcDbEntity
  8
0
 62
7
100
AcDbPolyline
 90
2
 70
1
 10
5.926667
 20
149.577781
 30
0.0
 10
5.926667
 20
149.577781
 30
0.0
  0
SPLINE
  5
1ca
100
AcDbEntity
  8
0
 62
7
100
AcDbSpline
 70
8
 71
3
 72
8
 73
4
 74
0
 40
0
 40
0
 40
0
 40
0
 40
1
 40
1
 40
1
 40
1
 10
121.637778
 20
22.577781
 30
0.0
 10
121.637778
 20
22.421912
 30
0.0
 10
121.511421
 20
22.295556
 30
0.0
 10
121.355556
 20
22.295556
 30
0.0
  0
SPLINE
  5
1cb
100
AcDbEntity
  8
0
 62
7
100
AcDbSpline
 70
8
 71
3
 72
8
 73
4
 74
0
 40
0
 40
0
 40
0
 40
0
 40
1
 40
1
 40
1
 40
1
 10
121.355556
 20
22.295556
 30
0.0
 10
121.199687
 20
22.295556
 30
0.0
 10
121.073333
 20
22.421912
 30
0.0
 10
121.073333
 20
22.577781
 30
0.0
  0
SPLINE
  5
1cc
100
AcDbEntity
  8
0
 62
7
100
AcDbSpline
 70
8
 71
3
 72
8
 73
4
 74
0
 40
0
 40
0
 40
0
 40
0
 40
1
 40
1
 40
1
 40
1
 10
121.073333
 20
22.577781
 30
0.0
 10
121.073333
 20
22.733652
 30
0.0
 10
121.199687
 20
22.860008
 30
0.0
 10
121.355556
 20
22.860008
 30
0.0
  0
SPLINE
  5
1cd
100
AcDbEntity
  8
0
 62
7
100
AcDbSpline
 70
8
 71
3
 72
8
 73
4
 74
0
 40
0
 40
0
 40
0
 40
0
 40
1
 40
1
 40
1
 40
1
 10
121.355556
 20
22.860008
 30
0.0
 10
121.511421
 20
22.860008
 30
0.0
 10
121.637778
 20
22.733652
 30
0.0
 10
121.637778
 20
22.577781
 30
0.0
  0
LWPOLYLINE
  5
1ce
100
AcDbEntity
  8
0
 62
7
100
AcDbPolyline
 90
2
 70
1
 10
121.637778
 20
149.577781
 30
0.0
 10
121.637778
 20
149.577781
 30
0.0
  0
LWPOLYLINE
  5
1cf
100
AcDbEntity
  8
0
 62
7
100
AcDbPolyline
 90
2
 70
1
 10
121.637778
 20
22.577781
 30
0.0
 10
121.637778
 20
22.577781
 30
0.0
  0
ENDSEC
  0
SECTION
  2
OBJECTS
  0
DICTIONARY
  5
C
330
0
100
AcDbDictionary
  3
ACAD_GROUP
350
D
  3
ACAD_MLINESTYLE
350
17
  0
DICTIONARY
  5
D
330
C
100
AcDbDictionary
  0
DICTIONARY
  5
1A
330
C
100
AcDbDictionary
  0
DICTIONARY
  5
17
330
C
100
AcDbDictionary
  3
STANDARD
350
18
  0
DICTIONARY
  5
19
330
C
100
AcDbDictionary
  0
ENDSEC
  0
EOF
