  0
SECTION
  2
HEADER
  9
$ACADVER
  1
AC1014
  9
$HANDSEED
  5
FFFF
  9
$MEASUREMENT
 70
     1
  0
ENDSEC
  0
SECTION
  2
TABLES
  0
TABLE
  2
VPORT
  5
8
330
0
100
AcDbSymbolTable
 70
     4
  0
VPORT
  5
2E
330
8
100
AcDbSymbolTableRecord
100
AcDbViewportTableRecord
  2
*ACTIVE
 70
     0
 10
0.0
 20
0.0
 11
1.0
 21
1.0
 12
210.0
 22
148.5
 13
0.0
 23
0.0
 14
10.0
 24
10.0
 15
10.0
 25
10.0
 16
0.0
 26
0.0
 36
1.0
 17
0.0
 27
0.0
 37
0.0
 40
341.0
 41
1.24
 42
50.0
 43
0.0
 44
0.0
 50
0.0
 51
0.0
 71
     0
 72
   100
 73
     1
 74
     3
 75
     0
 76
     0
 77
     0
 78
     0
  0
ENDTAB
  0
TABLE
  2
LTYPE
  5
5
330
0
100
AcDbSymbolTable
 70
     1
  0
LTYPE
  5
14
330
5
100
AcDbSymbolTableRecord
100
AcDbLinetypeTableRecord
  2
BYBLOCK
 70
     0
  3

 72
    65
 73
     0
 40
0.0
  0
LTYPE
  5
15
330
5
100
AcDbSymbolTableRecord
100
AcDbLinetypeTableRecord
  2
BYLAYER
 70
     0
  3

 72
    65
 73
     0
 40
0.0
  0
LTYPE
  5
16
330
5
100
AcDbSymbolTableRecord
100
AcDbLinetypeTableRecord
  2
CONTINUOUS
 70
     0
  3
Solid line
 72
    65
 73
     0
 40
0.0
  0
ENDTAB
  0
TABLE
  2
LAYER
  5
2
100
AcDbSymbolTable
 70
1
  0
LAYER
  5
50
100
AcDbSymbolTableRecord
100
AcDbLayerTableRecord
  2
0
 70
0
  6
CONTINUOUS
  0
ENDTAB
  0
TABLE
  2
STYLE
  5
3
330
0
100
AcDbSymbolTable
 70
     1
  0
STYLE
  5
11
330
3
100
AcDbSymbolTableRecord
100
AcDbTextStyleTableRecord
  2
STANDARD
 70
     0
 40
0.0
 41
1.0
 50
0.0
 71
     0
 42
2.5
  3
txt
  4

  0
ENDTAB
  0
TABLE
  2
VIEW
  5
6
330
0
100
AcDbSymbolTable
 70
     0
  0
ENDTAB
  0
TABLE
  2
UCS
  5
7
330
0
100
AcDbSymbolTable
 70
     0
  0
ENDTAB
  0
TABLE
  2
APPID
  5
9
330
0
100
AcDbSymbolTable
 70
     2
  0
APPID
  5
12
330
9
100
AcDbSymbolTableRecord
100
AcDbRegAppTableRecord
  2
ACAD
 70
     0
  0
ENDTAB
  0
TABLE
  2
DIMSTYLE
  5
A
330
0
100
AcDbSymbolTable
 70
     1
  0
DIMSTYLE
105
27
330
A
100
AcDbSymbolTableRecord
100
AcDbDimStyleTableRecord
  2
ISO-25
 70
     0
  3

  4

  5

  6

  7

 40
1.0
 41
2.5
 42
0.625
 43
3.75
 44
1.25
 45
0.0
 46
0.0
 47
0.0
 48
0.0
140
2.5
141
2.5
142
0.0
143
0.03937007874016
144
1.0
145
0.0
146
1.0
147
0.625
 71
     0
 72
     0
 73
     0
 74
     0
 75
     0
 76
     0
 77
     1
 78
     8
170
     0
171
     3
172
     1
173
     0
174
     0
175
     0
176
     0
177
     0
178
     0
270
     2
271
     2
272
     2
273
     2
274
     3
340
11
275
     0
280
     0
281
     0
282
     0
283
     0
284
     8
285
     0
286
     0
287
     3
288
     0
  0
ENDTAB
  0
TABLE
  2
BLOCK_RECORD
  5
1
330
0
100
AcDbSymbolTable
 70
     1
  0
BLOCK_RECORD
  5
1F
330
1
100
AcDbSymbolTableRecord
100
AcDbBlockTableRecord
  2
*MODEL_SPACE
  0
BLOCK_RECORD
  5
1B
330
1
100
AcDbSymbolTableRecord
100
AcDbBlockTableRecord
  2
*PAPER_SPACE
  0
ENDTAB
  0
ENDSEC
  0
SECTION
  2
BLOCKS
  0
BLOCK
  5
20
330
1F
100
AcDbEntity
  8
0
100
AcDbBlockBegin
  2
*MODEL_SPACE
 70
     0
 10
0.0
 20
0.0
 30
0.0
  3
*MODEL_SPACE
  1

  0
ENDBLK
  5
21
330
1F
100
AcDbEntity
  8
0
100
AcDbBlockEnd
  0
BLOCK
  5
1C
330
1B
100
AcDbEntity
 67
     1
  8
0
100
AcDbBlockBegin
  2
*PAPER_SPACE
  1

  0
ENDBLK
  5
1D
330
1B
100
AcDbEntity
 67
     1
  8
0
100
AcDbBlockEnd
  0
ENDSEC
  0
SECTION
  2
ENTITIES
  0
SPLINE
  5
100
100
AcDbEntity
  8
0
 62
7
100
AcDbSpline
 70
8
 71
3
 72
8
 73
4
 74
0
 40
0
 40
0
 40
0
 40
0
 40
1
 40
1
 40
1
 40
1
 10
114.976281
 20
126.953922
 30
0.0
 10
121.637998
 20
126.953922
 30
0.0
 10
127.000000
 20
121.591493
 30
0.0
 10
127.000000
 20
114.932325
 30
0.0
  0
SPLINE
  5
101
100
AcDbEntity
  8
0
 62
7
100
AcDbSpline
 70
8
 71
3
 72
8
 73
4
 74
0
 40
0
 40
0
 40
0
 40
0
 40
1
 40
1
 40
1
 40
1
 10
127.000000
 20
12.019150
 30
0.0
 10
127.000000
 20
5.359953
 30
0.0
 10
121.637998
 20
0.000006
 30
0.0
 10
114.976281
 20
0.000006
 30
0.0
  0
LWPOLYLINE
  5
102
100
AcDbEntity
  8
0
 62
7
100
AcDbPolyline
 90
2
 70
0
 10
127.000000
 20
114.932325
 30
0.0
 10
127.000000
 20
12.019150
 30
0.0
  0
SPLINE
  5
103
100
AcDbEntity
  8
0
 62
7
100
AcDbSpline
 70
8
 71
3
 72
8
 73
4
 74
0
 40
0
 40
0
 40
0
 40
0
 40
1
 40
1
 40
1
 40
1
 10
12.023712
 20
0.000006
 30
0.0
 10
5.361991
 20
0.000006
 30
0.0
 10
0.000000
 20
5.359953
 30
0.0
 10
0.000000
 20
12.019150
 30
0.0
  0
LWPOLYLINE
  5
104
100
AcDbEntity
  8
0
 62
7
100
AcDbPolyline
 90
2
 70
0
 10
114.976281
 20
0.000006
 30
0.0
 10
12.023712
 20
0.000006
 30
0.0
  0
SPLINE
  5
105
100
AcDbEntity
  8
0
 62
7
100
AcDbSpline
 70
8
 71
3
 72
8
 73
4
 74
0
 40
0
 40
0
 40
0
 40
0
 40
1
 40
1
 40
1
 40
1
 10
0.000000
 20
114.932325
 30
0.0
 10
0.000000
 20
121.591493
 30
0.0
 10
5.361991
 20
126.953922
 30
0.0
 10
12.023712
 20
126.953922
 30
0.0
  0
LWPOLYLINE
  5
106
100
AcDbEntity
  8
0
 62
7
100
AcDbPolyline
 90
2
 70
0
 10
0.000000
 20
12.019150
 30
0.0
 10
0.000000
 20
114.932325
 30
0.0
  0
SPLINE
  5
107
100
AcDbEntity
  8
0
 62
7
100
AcDbSpline
 70
8
 71
3
 72
8
 73
4
 74
0
 40
0
 40
0
 40
0
 40
0
 40
1
 40
1
 40
1
 40
1
 10
114.976281
 20
127.048545
 30
0.0
 10
121.637998
 20
127.048545
 30
0.0
 10
127.000000
 20
132.408490
 30
0.0
 10
127.000000
 20
139.067659
 30
0.0
  0
LWPOLYLINE
  5
108
100
AcDbEntity
  8
0
 62
7
100
AcDbPolyline
 90
2
 70
0
 10
12.023712
 20
126.953922
 30
0.0
 10
114.976281
 20
127.048545
 30
0.0
  0
SPLINE
  5
109
100
AcDbEntity
  8
0
 62
7
100
AcDbSpline
 70
8
 71
3
 72
8
 73
4
 74
0
 40
0
 40
0
 40
0
 40
0
 40
1
 40
1
 40
1
 40
1
 10
127.000000
 20
241.980890
 30
0.0
 10
127.000000
 20
248.640087
 30
0.0
 10
121.638006
 20
254.000006
 30
0.0
 10
114.976281
 20
254.000006
 30
0.0
  0
LWPOLYLINE
  5
10a
100
AcDbEntity
  8
0
 62
7
100
AcDbPolyline
 90
2
 70
0
 10
127.000000
 20
139.067659
 30
0.0
 10
127.000000
 20
241.980890
 30
0.0
  0
SPLINE
  5
10b
100
AcDbEntity
  8
0
 62
7
100
AcDbSpline
 70
8
 71
3
 72
8
 73
4
 74
0
 40
0
 40
0
 40
0
 40
0
 40
1
 40
1
 40
1
 40
1
 10
12.023712
 20
254.000006
 30
0.0
 10
5.361991
 20
254.000006
 30
0.0
 10
0.000000
 20
248.640087
 30
0.0
 10
0.000000
 20
241.980890
 30
0.0
  0
LWPOLYLINE
  5
10c
100
AcDbEntity
  8
0
 62
7
100
AcDbPolyline
 90
2
 70
0
 10
114.976281
 20
254.000006
 30
0.0
 10
12.023712
 20
254.000006
 30
0.0
  0
SPLINE
  5
10d
100
AcDbEntity
  8
0
 62
7
100
AcDbSpline
 70
8
 71
3
 72
8
 73
4
 74
0
 40
0
 40
0
 40
0
 40
0
 40
1
 40
1
 40
1
 40
1
 10
0.000000
 20
139.067659
 30
0.0
 10
0.000000
 20
132.408490
 30
0.0
 10
5.361991
 20
127.048545
 30
0.0
 10
12.023712
 20
127.048545
 30
0.0
  0
SPLINE
  5
10e
100
AcDbEntity
  8
0
 62
7
100
AcDbSpline
 70
8
 71
3
 72
8
 73
4
 74
0
 40
0
 40
0
 40
0
 40
0
 40
1
 40
1
 40
1
 40
1
 10
112.431660
 20
178.345459
 30
0.0
 10
111.476149
 20
178.636404
 30
0.0
 10
109.599102
 20
179.145084
 30
0.0
 10
108.083790
 20
178.906732
 30
0.0
  0
SPLINE
  5
10f
100
AcDbEntity
  8
0
 62
7
100
AcDbSpline
 70
8
 71
3
 72
8
 73
4
 74
0
 40
0
 40
0
 40
0
 40
0
 40
1
 40
1
 40
1
 40
1
 10
108.083790
 20
178.906732
 30
0.0
 10
106.356108
 20
178.634931
 30
0.0
 10
104.056002
 20
178.798075
 30
0.0
 10
102.404053
 20
178.275615
 30
0.0
  0
SPLINE
  5
110
100
AcDbEntity
  8
0
 62
7
100
AcDbSpline
 70
8
 71
3
 72
8
 73
4
 74
0
 40
0
 40
0
 40
0
 40
0
 40
1
 40
1
 40
1
 40
1
 10
102.404053
 20
178.275615
 30
0.0
 10
100.115729
 20
177.551934
 30
0.0
 10
100.164430
 20
177.900206
 30
0.0
 10
97.670887
 20
177.960057
 30
0.0
  0
SPLINE
  5
111
100
AcDbEntity
  8
0
 62
7
100
AcDbSpline
 70
8
 71
3
 72
8
 73
4
 74
0
 40
0
 40
0
 40
0
 40
0
 40
1
 40
1
 40
1
 40
1
 10
97.670887
 20
177.960057
 30
0.0
 10
95.177344
 20
178.020013
 30
0.0
 10
93.457129
 20
179.860034
 30
0.0
 10
93.457129
 20
179.860034
 30
0.0
  0
LWPOLYLINE
  5
112
100
AcDbEntity
  8
0
 62
7
100
AcDbPolyline
 90
2
 70
0
 10
0.000000
 20
241.980890
 30
0.0
 10
0.000000
 20
139.067659
 30
0.0
  0
SPLINE
  5
113
100
AcDbEntity
  8
0
 62
7
100
AcDbSpline
 70
8
 71
3
 72
8
 73
4
 74
0
 40
0
 40
0
 40
0
 40
0
 40
1
 40
1
 40
1
 40
1
 10
93.457129
 20
179.859929
 30
0.0
 10
93.094132
 20
182.385764
 30
0.0
 10
92.524128
 20
185.628653
 30
0.0
 10
95.218261
 20
187.492973
 30
0.0
  0
SPLINE
  5
114
100
AcDbEntity
  8
0
 62
7
100
AcDbSpline
 70
8
 71
3
 72
8
 73
4
 74
0
 40
0
 40
0
 40
0
 40
0
 40
1
 40
1
 40
1
 40
1
 10
95.218261
 20
187.492973
 30
0.0
 10
96.087625
 20
188.094532
 30
0.0
 10
97.432219
 20
187.525686
 30
0.0
 10
99.125822
 20
187.637814
 30
0.0
  0
SPLINE
  5
115
100
AcDbEntity
  8
0
 62
7
100
AcDbSpline
 70
8
 71
3
 72
8
 73
4
 74
0
 40
0
 40
0
 40
0
 40
0
 40
1
 40
1
 40
1
 40
1
 10
99.125822
 20
187.637814
 30
0.0
 10
101.059249
 20
187.765720
 30
0.0
 10
102.750642
 20
188.243476
 30
0.0
 10
103.660502
 20
188.457951
 30
0.0
  0
SPLINE
  5
116
100
AcDbEntity
  8
0
 62
7
100
AcDbSpline
 70
8
 71
3
 72
8
 73
4
 74
0
 40
0
 40
0
 40
0
 40
0
 40
1
 40
1
 40
1
 40
1
 10
103.660502
 20
188.457951
 30
0.0
 10
105.367253
 20
188.860288
 30
0.0
 10
106.556067
 20
187.801273
 30
0.0
 10
107.922119
 20
188.198456
 30
0.0
  0
SPLINE
  5
117
100
AcDbEntity
  8
0
 62
7
100
AcDbSpline
 70
8
 71
3
 72
8
 73
4
 74
0
 40
0
 40
0
 40
0
 40
0
 40
1
 40
1
 40
1
 40
1
 10
107.922119
 20
188.198456
 30
0.0
 10
109.993971
 20
188.800752
 30
0.0
 10
110.741319
 20
190.918886
 30
0.0
 10
110.741319
 20
190.918886
 30
0.0
  0
SPLINE
  5
118
100
AcDbEntity
  8
0
 62
7
100
AcDbSpline
 70
8
 71
3
 72
8
 73
4
 74
0
 40
0
 40
0
 40
0
 40
0
 40
1
 40
1
 40
1
 40
1
 10
110.741319
 20
190.918886
 30
0.0
 10
110.741319
 20
190.918886
 30
0.0
 10
112.126831
 20
191.544112
 30
0.0
 10
112.045732
 20
193.028079
 30
0.0
  0
SPLINE
  5
119
100
AcDbEntity
  8
0
 62
7
100
AcDbSpline
 70
8
 71
3
 72
8
 73
4
 74
0
 40
0
 40
0
 40
0
 40
0
 40
1
 40
1
 40
1
 40
1
 10
112.045732
 20
193.028079
 30
0.0
 10
111.967263
 20
194.462818
 30
0.0
 10
110.272504
 20
195.730942
 30
0.0
 10
108.776757
 20
197.119820
 30
0.0
  0
SPLINE
  5
11a
100
AcDbEntity
  8
0
 62
7
100
AcDbSpline
 70
8
 71
3
 72
8
 73
4
 74
0
 40
0
 40
0
 40
0
 40
0
 40
1
 40
1
 40
1
 40
1
 10
108.776757
 20
197.119820
 30
0.0
 10
107.426061
 20
198.374060
 30
0.0
 10
107.971136
 20
199.502918
 30
0.0
 10
106.356949
 20
201.177902
 30
0.0
  0
SPLINE
  5
11b
100
AcDbEntity
  8
0
 62
7
100
AcDbSpline
 70
8
 71
3
 72
8
 73
4
 74
0
 40
0
 40
0
 40
0
 40
0
 40
1
 40
1
 40
1
 40
1
 10
106.356949
 20
201.177902
 30
0.0
 10
105.649993
 20
201.911470
 30
0.0
 10
104.356729
 20
202.744439
 30
0.0
 10
103.732344
 20
203.098391
 30
0.0
  0
SPLINE
  5
11c
100
AcDbEntity
  8
0
 62
7
100
AcDbSpline
 70
8
 71
3
 72
8
 73
4
 74
0
 40
0
 40
0
 40
0
 40
0
 40
1
 40
1
 40
1
 40
1
 10
103.732344
 20
203.098391
 30
0.0
 10
102.479998
 20
203.808503
 30
0.0
 10
101.299599
 20
203.729403
 30
0.0
 10
101.299599
 20
203.729403
 30
0.0
  0
SPLINE
  5
11d
100
AcDbEntity
  8
0
 62
7
100
AcDbSpline
 70
8
 71
3
 72
8
 73
4
 74
0
 40
0
 40
0
 40
0
 40
0
 40
1
 40
1
 40
1
 40
1
 10
101.299599
 20
203.729403
 30
0.0
 10
101.299599
 20
203.729403
 30
0.0
 10
101.917673
 20
205.526298
 30
0.0
 10
102.027697
 20
208.543352
 30
0.0
  0
SPLINE
  5
11e
100
AcDbEntity
  8
0
 62
7
100
AcDbSpline
 70
8
 71
3
 72
8
 73
4
 74
0
 40
0
 40
0
 40
0
 40
0
 40
1
 40
1
 40
1
 40
1
 10
102.027697
 20
208.543352
 30
0.0
 10
102.102800
 20
210.604370
 30
0.0
 10
101.500610
 20
212.632779
 30
0.0
 10
101.195044
 20
214.517926
 30
0.0
  0
SPLINE
  5
11f
100
AcDbEntity
  8
0
 62
7
100
AcDbSpline
 70
8
 71
3
 72
8
 73
4
 74
0
 40
0
 40
0
 40
0
 40
0
 40
1
 40
1
 40
1
 40
1
 10
101.195044
 20
214.517926
 30
0.0
 10
100.734013
 20
217.362370
 30
0.0
 10
100.365230
 20
219.658373
 30
0.0
 10
99.383423
 20
219.480924
 30
0.0
  0
SPLINE
  5
120
100
AcDbEntity
  8
0
 62
7
100
AcDbSpline
 70
8
 71
3
 72
8
 73
4
 74
0
 40
0
 40
0
 40
0
 40
0
 40
1
 40
1
 40
1
 40
1
 10
99.383423
 20
219.480924
 30
0.0
 10
97.928593
 20
219.217748
 30
0.0
 10
96.909444
 20
216.018827
 30
0.0
 10
97.026937
 20
211.307118
 30
0.0
  0
SPLINE
  5
121
100
AcDbEntity
  8
0
 62
7
100
AcDbSpline
 70
8
 71
3
 72
8
 73
4
 74
0
 40
0
 40
0
 40
0
 40
0
 40
1
 40
1
 40
1
 40
1
 10
97.026937
 20
211.307118
 30
0.0
 10
96.815513
 20
212.409574
 30
0.0
 10
96.514155
 20
213.524653
 30
0.0
 10
96.092043
 20
214.250543
 30
0.0
  0
SPLINE
  5
122
100
AcDbEntity
  8
0
 62
7
100
AcDbSpline
 70
8
 71
3
 72
8
 73
4
 74
0
 40
0
 40
0
 40
0
 40
0
 40
1
 40
1
 40
1
 40
1
 10
96.092043
 20
214.250543
 30
0.0
 10
95.204692
 20
215.776794
 30
0.0
 10
93.820758
 20
218.522783
 30
0.0
 10
93.375926
 20
218.910710
 30
0.0
  0
SPLINE
  5
123
100
AcDbEntity
  8
0
 62
7
100
AcDbSpline
 70
8
 71
3
 72
8
 73
4
 74
0
 40
0
 40
0
 40
0
 40
0
 40
1
 40
1
 40
1
 40
1
 10
93.375926
 20
218.910710
 30
0.0
 10
92.931199
 20
219.298531
 30
0.0
 10
91.670332
 20
219.791118
 30
0.0
 10
91.062251
 20
219.661634
 30
0.0
  0
SPLINE
  5
124
100
AcDbEntity
  8
0
 62
7
100
AcDbSpline
 70
8
 71
3
 72
8
 73
4
 74
0
 40
0
 40
0
 40
0
 40
0
 40
1
 40
1
 40
1
 40
1
 10
91.062251
 20
219.661634
 30
0.0
 10
89.642133
 20
219.359224
 30
0.0
 10
91.687478
 20
213.874397
 30
0.0
 10
92.524023
 20
209.249256
 30
0.0
  0
SPLINE
  5
125
100
AcDbEntity
  8
0
 62
7
100
AcDbSpline
 70
8
 71
3
 72
8
 73
4
 74
0
 40
0
 40
0
 40
0
 40
0
 40
1
 40
1
 40
1
 40
1
 10
92.524023
 20
209.249256
 30
0.0
 10
93.360569
 20
204.624116
 30
0.0
 10
93.295143
 20
202.786514
 30
0.0
 10
93.295143
 20
202.786514
 30
0.0
  0
SPLINE
  5
126
100
AcDbEntity
  8
0
 62
7
100
AcDbSpline
 70
8
 71
3
 72
8
 73
4
 74
0
 40
0
 40
0
 40
0
 40
0
 40
1
 40
1
 40
1
 40
1
 10
93.295143
 20
202.786514
 30
0.0
 10
93.295143
 20
202.786514
 30
0.0
 10
92.148088
 20
201.361347
 30
0.0
 10
91.652135
 20
199.960477
 30
0.0
  0
SPLINE
  5
127
100
AcDbEntity
  8
0
 62
7
100
AcDbSpline
 70
8
 71
3
 72
8
 73
4
 74
0
 40
0
 40
0
 40
0
 40
0
 40
1
 40
1
 40
1
 40
1
 10
91.652135
 20
199.960477
 30
0.0
 10
90.903210
 20
197.844763
 30
0.0
 10
89.605212
 20
196.498591
 30
0.0
 10
87.651169
 20
194.764912
 30
0.0
  0
SPLINE
  5
128
100
AcDbEntity
  8
0
 62
7
100
AcDbSpline
 70
8
 71
3
 72
8
 73
4
 74
0
 40
0
 40
0
 40
0
 40
0
 40
1
 40
1
 40
1
 40
1
 10
87.651169
 20
194.764912
 30
0.0
 10
86.104512
 20
193.392654
 30
0.0
 10
80.363767
 20
195.098773
 30
0.0
 10
77.160638
 20
194.052802
 30
0.0
  0
SPLINE
  5
129
100
AcDbEntity
  8
0
 62
7
100
AcDbSpline
 70
8
 71
3
 72
8
 73
4
 74
0
 40
0
 40
0
 40
0
 40
0
 40
1
 40
1
 40
1
 40
1
 10
77.160638
 20
194.052802
 30
0.0
 10
75.711278
 20
193.579464
 30
0.0
 10
73.620493
 20
193.034074
 30
0.0
 10
67.702299
 20
191.408948
 30
0.0
  0
SPLINE
  5
12a
100
AcDbEntity
  8
0
 62
7
100
AcDbSpline
 70
8
 71
3
 72
8
 73
4
 74
0
 40
0
 40
0
 40
0
 40
0
 40
1
 40
1
 40
1
 40
1
 10
67.702299
 20
191.408948
 30
0.0
 10
62.442466
 20
189.964742
 30
0.0
 10
58.493041
 20
185.961883
 30
0.0
 10
52.238357
 20
184.781589
 30
0.0
  0
SPLINE
  5
12b
100
AcDbEntity
  8
0
 62
7
100
AcDbSpline
 70
8
 71
3
 72
8
 73
4
 74
0
 40
0
 40
0
 40
0
 40
0
 40
1
 40
1
 40
1
 40
1
 10
52.238357
 20
184.781589
 30
0.0
 10
47.071297
 20
183.806514
 30
0.0
 10
42.786539
 20
180.724875
 30
0.0
 10
40.646422
 20
182.480642
 30
0.0
  0
SPLINE
  5
12c
100
AcDbEntity
  8
0
 62
7
100
AcDbSpline
 70
8
 71
3
 72
8
 73
4
 74
0
 40
0
 40
0
 40
0
 40
0
 40
1
 40
1
 40
1
 40
1
 10
40.646422
 20
182.480642
 30
0.0
 10
39.564582
 20
183.368098
 30
0.0
 10
37.111325
 20
185.656528
 30
0.0
 10
35.412569
 20
186.202865
 30
0.0
  0
SPLINE
  5
12d
100
AcDbEntity
  8
0
 62
7
100
AcDbSpline
 70
8
 71
3
 72
8
 73
4
 74
0
 40
0
 40
0
 40
0
 40
0
 40
1
 40
1
 40
1
 40
1
 10
35.412569
 20
186.202865
 30
0.0
 10
33.544884
 20
186.803688
 30
0.0
 10
31.387621
 20
185.870371
 30
0.0
 10
31.387621
 20
185.870371
 30
0.0
  0
SPLINE
  5
12e
100
AcDbEntity
  8
0
 62
7
100
AcDbSpline
 70
8
 71
3
 72
8
 73
4
 74
0
 40
0
 40
0
 40
0
 40
0
 40
1
 40
1
 40
1
 40
1
 10
31.387621
 20
185.870371
 30
0.0
 10
31.387621
 20
185.870371
 30
0.0
 10
35.982362
 20
181.746653
 30
0.0
 10
36.455595
 20
180.642198
 30
0.0
  0
LWPOLYLINE
  5
12f
100
AcDbEntity
  8
0
 62
7
100
AcDbPolyline
 90
2
 70
0
 10
93.457129
 20
179.860034
 30
0.0
 10
93.457129
 20
179.859929
 30
0.0
  0
SPLINE
  5
130
100
AcDbEntity
  8
0
 62
7
100
AcDbSpline
 70
8
 71
3
 72
8
 73
4
 74
0
 40
0
 40
0
 40
0
 40
0
 40
1
 40
1
 40
1
 40
1
 10
37.989209
 20
174.444946
 30
0.0
 10
38.037595
 20
172.939627
 30
0.0
 10
37.067042
 20
171.911958
 30
0.0
 10
36.441500
 20
171.010092
 30
0.0
  0
SPLINE
  5
131
100
AcDbEntity
  8
0
 62
7
100
AcDbSpline
 70
8
 71
3
 72
8
 73
4
 74
0
 40
0
 40
0
 40
0
 40
0
 40
1
 40
1
 40
1
 40
1
 10
36.441500
 20
171.010092
 30
0.0
 10
36.027592
 20
170.413476
 30
0.0
 10
35.853930
 20
170.218671
 30
0.0
 10
34.830679
 20
170.177543
 30
0.0
  0
SPLINE
  5
132
100
AcDbEntity
  8
0
 62
7
100
AcDbSpline
 70
8
 71
3
 72
8
 73
4
 74
0
 40
0
 40
0
 40
0
 40
0
 40
1
 40
1
 40
1
 40
1
 10
34.830679
 20
170.177543
 30
0.0
 10
31.833505
 20
171.012827
 30
0.0
 10
31.773443
 20
176.135182
 30
0.0
 10
30.059751
 20
176.136970
 30
0.0
  0
SPLINE
  5
133
100
AcDbEntity
  8
0
 62
7
100
AcDbSpline
 70
8
 71
3
 72
8
 73
4
 74
0
 40
0
 40
0
 40
0
 40
0
 40
1
 40
1
 40
1
 40
1
 10
30.059751
 20
176.136970
 30
0.0
 10
29.422954
 20
176.138022
 30
0.0
 10
28.647732
 20
175.466198
 30
0.0
 10
27.802140
 20
174.522363
 30
0.0
  0
SPLINE
  5
134
100
AcDbEntity
  8
0
 62
7
100
AcDbSpline
 70
8
 71
3
 72
8
 73
4
 74
0
 40
0
 40
0
 40
0
 40
0
 40
1
 40
1
 40
1
 40
1
 10
27.802140
 20
174.522363
 30
0.0
 10
27.389600
 20
175.051134
 30
0.0
 10
26.980321
 20
175.384468
 30
0.0
 10
26.510559
 20
175.306210
 30
0.0
  0
SPLINE
  5
135
100
AcDbEntity
  8
0
 62
7
100
AcDbSpline
 70
8
 71
3
 72
8
 73
4
 74
0
 40
0
 40
0
 40
0
 40
0
 40
1
 40
1
 40
1
 40
1
 10
26.510559
 20
175.306210
 30
0.0
 10
24.981363
 20
175.051239
 30
0.0
 10
23.301856
 20
170.732716
 30
0.0
 10
21.487184
 20
168.195836
 30
0.0
  0
SPLINE
  5
136
100
AcDbEntity
  8
0
 62
7
100
AcDbSpline
 70
8
 71
3
 72
8
 73
4
 74
0
 40
0
 40
0
 40
0
 40
0
 40
1
 40
1
 40
1
 40
1
 10
21.487184
 20
168.195836
 30
0.0
 10
18.360210
 20
166.502760
 30
0.0
 10
13.952700
 20
165.299115
 30
0.0
 10
13.008023
 20
164.290274
 30
0.0
  0
SPLINE
  5
137
100
AcDbEntity
  8
0
 62
7
100
AcDbSpline
 70
8
 71
3
 72
8
 73
4
 74
0
 40
0
 40
0
 40
0
 40
0
 40
1
 40
1
 40
1
 40
1
 10
13.008023
 20
164.290274
 30
0.0
 10
12.441175
 20
163.684823
 30
0.0
 10
11.296855
 20
162.351588
 30
0.0
 10
12.614627
 20
161.676714
 30
0.0
  0
SPLINE
  5
138
100
AcDbEntity
  8
0
 62
7
100
AcDbSpline
 70
8
 71
3
 72
8
 73
4
 74
0
 40
0
 40
0
 40
0
 40
0
 40
1
 40
1
 40
1
 40
1
 10
12.614627
 20
161.676714
 30
0.0
 10
12.162116
 20
161.350532
 30
0.0
 10
11.824784
 20
161.056642
 30
0.0
 10
11.654698
 20
160.800724
 30
0.0
  0
SPLINE
  5
139
100
AcDbEntity
  8
0
 62
7
100
AcDbSpline
 70
8
 71
3
 72
8
 73
4
 74
0
 40
0
 40
0
 40
0
 40
0
 40
1
 40
1
 40
1
 40
1
 10
11.654698
 20
160.800724
 30
0.0
 10
11.041673
 20
159.877505
 30
0.0
 10
9.626393
 20
157.502191
 30
0.0
 10
14.013497
 20
158.136148
 30
0.0
  0
SPLINE
  5
13a
100
AcDbEntity
  8
0
 62
7
100
AcDbSpline
 70
8
 71
3
 72
8
 73
4
 74
0
 40
0
 40
0
 40
0
 40
0
 40
1
 40
1
 40
1
 40
1
 10
14.013497
 20
158.136148
 30
0.0
 10
18.087042
 20
158.724770
 30
0.0
 10
17.930735
 20
160.703426
 30
0.0
 10
19.710064
 20
162.185605
 30
0.0
  0
SPLINE
  5
13b
100
AcDbEntity
  8
0
 62
7
100
AcDbSpline
 70
8
 71
3
 72
8
 73
4
 74
0
 40
0
 40
0
 40
0
 40
0
 40
1
 40
1
 40
1
 40
1
 10
19.710064
 20
162.185605
 30
0.0
 10
21.489498
 20
163.667783
 30
0.0
 10
26.878816
 20
165.766036
 30
0.0
 10
29.375830
 20
165.073806
 30
0.0
  0
SPLINE
  5
13c
100
AcDbEntity
  8
0
 62
7
100
AcDbSpline
 70
8
 71
3
 72
8
 73
4
 74
0
 40
0
 40
0
 40
0
 40
0
 40
1
 40
1
 40
1
 40
1
 10
29.375830
 20
165.073806
 30
0.0
 10
31.872844
 20
164.381681
 30
0.0
 10
36.506189
 20
162.435842
 30
0.0
 10
38.457603
 20
161.457927
 30
0.0
  0
SPLINE
  5
13d
100
AcDbEntity
  8
0
 62
7
100
AcDbSpline
 70
8
 71
3
 72
8
 73
4
 74
0
 40
0
 40
0
 40
0
 40
0
 40
1
 40
1
 40
1
 40
1
 10
38.457603
 20
161.457927
 30
0.0
 10
40.409016
 20
160.480011
 30
0.0
 10
44.777818
 20
156.629356
 30
0.0
 10
50.341219
 20
158.030015
 30
0.0
  0
SPLINE
  5
13e
100
AcDbEntity
  8
0
 62
7
100
AcDbSpline
 70
8
 71
3
 72
8
 73
4
 74
0
 40
0
 40
0
 40
0
 40
0
 40
1
 40
1
 40
1
 40
1
 10
50.341219
 20
158.030015
 30
0.0
 10
54.868747
 20
159.169812
 30
0.0
 10
57.690050
 20
166.653492
 30
0.0
 10
59.199997
 20
167.116311
 30
0.0
  0
SPLINE
  5
13f
100
AcDbEntity
  8
0
 62
7
100
AcDbSpline
 70
8
 71
3
 72
8
 73
4
 74
0
 40
0
 40
0
 40
0
 40
0
 40
1
 40
1
 40
1
 40
1
 10
59.199997
 20
167.116311
 30
0.0
 10
63.123336
 20
168.318904
 30
0.0
 10
65.468251
 20
165.188880
 30
0.0
 10
71.378450
 20
166.033524
 30
0.0
  0
SPLINE
  5
140
100
AcDbEntity
  8
0
 62
7
100
AcDbSpline
 70
8
 71
3
 72
8
 73
4
 74
0
 40
0
 40
0
 40
0
 40
0
 40
1
 40
1
 40
1
 40
1
 10
71.378450
 20
166.033524
 30
0.0
 10
77.288650
 20
166.878274
 30
0.0
 10
80.753587
 20
167.489616
 30
0.0
 10
82.653775
 20
167.340357
 30
0.0
  0
SPLINE
  5
141
100
AcDbEntity
  8
0
 62
7
100
AcDbSpline
 70
8
 71
3
 72
8
 73
4
 74
0
 40
0
 40
0
 40
0
 40
0
 40
1
 40
1
 40
1
 40
1
 10
82.653775
 20
167.340357
 30
0.0
 10
83.769695
 20
167.252632
 30
0.0
 10
86.606671
 20
163.935166
 30
0.0
 10
89.592485
 20
163.863008
 30
0.0
  0
SPLINE
  5
142
100
AcDbEntity
  8
0
 62
7
100
AcDbSpline
 70
8
 71
3
 72
8
 73
4
 74
0
 40
0
 40
0
 40
0
 40
0
 40
1
 40
1
 40
1
 40
1
 10
89.592485
 20
163.863008
 30
0.0
 10
94.259910
 20
163.750038
 30
0.0
 10
93.666345
 20
165.199819
 30
0.0
 10
97.534460
 20
166.285340
 30
0.0
  0
SPLINE
  5
143
100
AcDbEntity
  8
0
 62
7
100
AcDbSpline
 70
8
 71
3
 72
8
 73
4
 74
0
 40
0
 40
0
 40
0
 40
0
 40
1
 40
1
 40
1
 40
1
 10
97.534460
 20
166.285340
 30
0.0
 10
99.278868
 20
166.774876
 30
0.0
 10
100.864444
 20
167.971053
 30
0.0
 10
102.005082
 20
168.277040
 30
0.0
  0
SPLINE
  5
144
100
AcDbEntity
  8
0
 62
7
100
AcDbSpline
 70
8
 71
3
 72
8
 73
4
 74
0
 40
0
 40
0
 40
0
 40
0
 40
1
 40
1
 40
1
 40
1
 10
102.005082
 20
168.277040
 30
0.0
 10
104.261851
 20
168.882281
 30
0.0
 10
106.383456
 20
168.477314
 30
0.0
 10
108.314043
 20
168.826532
 30
0.0
  0
SPLINE
  5
145
100
AcDbEntity
  8
0
 62
7
100
AcDbSpline
 70
8
 71
3
 72
8
 73
4
 74
0
 40
0
 40
0
 40
0
 40
0
 40
1
 40
1
 40
1
 40
1
 10
108.314043
 20
168.826532
 30
0.0
 10
112.323739
 20
169.551686
 30
0.0
 10
113.083814
 20
169.622476
 30
0.0
 10
112.308066
 20
171.199006
 30
0.0
  0
SPLINE
  5
146
100
AcDbEntity
  8
0
 62
7
100
AcDbSpline
 70
8
 71
3
 72
8
 73
4
 74
0
 40
0
 40
0
 40
0
 40
0
 40
1
 40
1
 40
1
 40
1
 10
112.308066
 20
171.199006
 30
0.0
 10
111.996295
 20
171.832753
 30
0.0
 10
107.571639
 20
172.931633
 30
0.0
 10
105.003203
 20
173.202382
 30
0.0
  0
SPLINE
  5
147
100
AcDbEntity
  8
0
 62
7
100
AcDbSpline
 70
8
 71
3
 72
8
 73
4
 74
0
 40
0
 40
0
 40
0
 40
0
 40
1
 40
1
 40
1
 40
1
 10
105.003203
 20
173.202382
 30
0.0
 10
102.699206
 20
173.445257
 30
0.0
 10
99.489030
 20
170.534019
 30
0.0
 10
97.009687
 20
170.135574
 30
0.0
  0
SPLINE
  5
148
100
AcDbEntity
  8
0
 62
7
100
AcDbSpline
 70
8
 71
3
 72
8
 73
4
 74
0
 40
0
 40
0
 40
0
 40
0
 40
1
 40
1
 40
1
 40
1
 10
97.009687
 20
170.135574
 30
0.0
 10
98.542775
 20
171.600922
 30
0.0
 10
97.908818
 20
173.396029
 30
0.0
 10
98.775236
 20
173.858007
 30
0.0
  0
SPLINE
  5
149
100
AcDbEntity
  8
0
 62
7
100
AcDbSpline
 70
8
 71
3
 72
8
 73
4
 74
0
 40
0
 40
0
 40
0
 40
0
 40
1
 40
1
 40
1
 40
1
 10
98.775236
 20
173.858007
 30
0.0
 10
100.645025
 20
174.854961
 30
0.0
 10
107.121127
 20
175.478610
 30
0.0
 10
108.760979
 20
175.235315
 30
0.0
  0
SPLINE
  5
14a
100
AcDbEntity
  8
0
 62
7
100
AcDbSpline
 70
8
 71
3
 72
8
 73
4
 74
0
 40
0
 40
0
 40
0
 40
0
 40
1
 40
1
 40
1
 40
1
 10
108.760979
 20
175.235315
 30
0.0
 10
110.400831
 20
174.992124
 30
0.0
 10
112.575450
 20
174.903347
 30
0.0
 10
113.713669
 20
175.147800
 30
0.0
  0
SPLINE
  5
14b
100
AcDbEntity
  8
0
 62
7
100
AcDbSpline
 70
8
 71
3
 72
8
 73
4
 74
0
 40
0
 40
0
 40
0
 40
0
 40
1
 40
1
 40
1
 40
1
 10
113.713669
 20
175.147800
 30
0.0
 10
114.819912
 20
175.385310
 30
0.0
 10
115.575043
 20
176.692669
 30
0.0
 10
115.833591
 20
177.289916
 30
0.0
  0
SPLINE
  5
14c
100
AcDbEntity
  8
0
 62
7
100
AcDbSpline
 70
8
 71
3
 72
8
 73
4
 74
0
 40
0
 40
0
 40
0
 40
0
 40
1
 40
1
 40
1
 40
1
 10
115.833591
 20
177.289916
 30
0.0
 10
116.761227
 20
179.432558
 30
0.0
 10
113.387171
 20
178.054514
 30
0.0
 10
112.431660
 20
178.345459
 30
0.0
  0
SPLINE
  5
14d
100
AcDbEntity
  8
0
 62
7
100
AcDbSpline
 70
8
 71
3
 72
8
 73
4
 74
0
 40
0
 40
0
 40
0
 40
0
 40
1
 40
1
 40
1
 40
1
 10
40.913447
 20
71.023151
 30
0.0
 10
40.727794
 20
71.332504
 30
0.0
 10
40.528676
 20
71.597257
 30
0.0
 10
40.501117
 20
72.419813
 30
0.0
  0
SPLINE
  5
14e
100
AcDbEntity
  8
0
 62
7
100
AcDbSpline
 70
8
 71
3
 72
8
 73
4
 74
0
 40
0
 40
0
 40
0
 40
0
 40
1
 40
1
 40
1
 40
1
 10
40.501117
 20
72.419813
 30
0.0
 10
37.609550
 20
72.961417
 30
0.0
 10
34.824852
 20
74.048621
 30
0.0
 10
34.824852
 20
74.048621
 30
0.0
  0
LWPOLYLINE
  5
14f
100
AcDbEntity
  8
0
 62
7
100
AcDbPolyline
 90
2
 70
0
 10
36.455595
 20
180.642198
 30
0.0
 10
37.989209
 20
174.444946
 30
0.0
  0
SPLINE
  5
150
100
AcDbEntity
  8
0
 62
7
100
AcDbSpline
 70
8
 71
3
 72
8
 73
4
 74
0
 40
0
 40
0
 40
0
 40
0
 40
1
 40
1
 40
1
 40
1
 10
40.495753
 20
72.724432
 30
0.0
 10
40.495753
 20
73.126033
 30
0.0
 10
40.524364
 20
73.532577
 30
0.0
 10
40.594628
 20
73.905042
 30
0.0
  0
LWPOLYLINE
  5
151
100
AcDbEntity
  8
0
 62
7
100
AcDbPolyline
 90
2
 70
0
 10
34.824852
 20
74.048621
 30
0.0
 10
40.495753
 20
72.724432
 30
0.0
  0
SPLINE
  5
152
100
AcDbEntity
  8
0
 62
7
100
AcDbSpline
 70
8
 71
3
 72
8
 73
4
 74
0
 40
0
 40
0
 40
0
 40
0
 40
1
 40
1
 40
1
 40
1
 10
38.035554
 20
74.308431
 30
0.0
 10
36.233820
 20
74.474625
 30
0.0
 10
34.348779
 20
74.759153
 30
0.0
 10
34.348779
 20
74.759153
 30
0.0
  0
SPLINE
  5
153
100
AcDbEntity
  8
0
 62
7
100
AcDbSpline
 70
8
 71
3
 72
8
 73
4
 74
0
 40
0
 40
0
 40
0
 40
0
 40
1
 40
1
 40
1
 40
1
 10
34.348779
 20
74.759153
 30
0.0
 10
34.348779
 20
74.759153
 30
0.0
 10
36.806138
 20
74.579706
 30
0.0
 10
37.540022
 20
74.559194
 30
0.0
  0
SPLINE
  5
154
100
AcDbEntity
  8
0
 62
7
100
AcDbSpline
 70
8
 71
3
 72
8
 73
4
 74
0
 40
0
 40
0
 40
0
 40
0
 40
1
 40
1
 40
1
 40
1
 10
37.540022
 20
74.559194
 30
0.0
 10
38.273801
 20
74.538683
 30
0.0
 10
40.644486
 20
74.135084
 30
0.0
 10
40.644486
 20
74.135084
 30
0.0
  0
SPLINE
  5
155
100
AcDbEntity
  8
0
 62
7
100
AcDbSpline
 70
8
 71
3
 72
8
 73
4
 74
0
 40
0
 40
0
 40
0
 40
0
 40
1
 40
1
 40
1
 40
1
 10
40.644486
 20
74.135084
 30
0.0
 10
40.729371
 20
74.477044
 30
0.0
 10
40.908188
 20
74.984777
 30
0.0
 10
41.131077
 20
75.555518
 30
0.0
  0
SPLINE
  5
156
100
AcDbEntity
  8
0
 62
7
100
AcDbSpline
 70
8
 71
3
 72
8
 73
4
 74
0
 40
0
 40
0
 40
0
 40
0
 40
1
 40
1
 40
1
 40
1
 10
41.131077
 20
75.555518
 30
0.0
 10
40.669310
 20
75.895058
 30
0.0
 10
39.191971
 20
76.848992
 30
0.0
 10
38.302201
 20
77.419311
 30
0.0
  0
SPLINE
  5
157
100
AcDbEntity
  8
0
 62
7
100
AcDbSpline
 70
8
 71
3
 72
8
 73
4
 74
0
 40
0
 40
0
 40
0
 40
0
 40
1
 40
1
 40
1
 40
1
 10
38.302201
 20
77.419311
 30
0.0
 10
39.533931
 20
76.689845
 30
0.0
 10
41.257511
 20
75.880017
 30
0.0
 10
41.257511
 20
75.880017
 30
0.0
  0
LWPOLYLINE
  5
158
100
AcDbEntity
  8
0
 62
7
100
AcDbPolyline
 90
2
 70
0
 10
40.594628
 20
73.905042
 30
0.0
 10
38.035554
 20
74.308431
 30
0.0
  0
SPLINE
  5
159
100
AcDbEntity
  8
0
 62
7
100
AcDbSpline
 70
8
 71
3
 72
8
 73
4
 74
0
 40
0
 40
0
 40
0
 40
0
 40
1
 40
1
 40
1
 40
1
 10
41.256354
 20
75.871392
 30
0.0
 10
41.851813
 20
77.352413
 30
0.0
 10
43.287604
 20
78.148882
 30
0.0
 10
43.556565
 20
78.600131
 30
0.0
  0
SPLINE
  5
15a
100
AcDbEntity
  8
0
 62
7
100
AcDbSpline
 70
8
 71
3
 72
8
 73
4
 74
0
 40
0
 40
0
 40
0
 40
0
 40
1
 40
1
 40
1
 40
1
 10
43.556565
 20
78.600131
 30
0.0
 10
43.952275
 20
79.263961
 30
0.0
 10
45.007503
 20
81.569010
 30
0.0
 10
45.267102
 20
82.335922
 30
0.0
  0
SPLINE
  5
15b
100
AcDbEntity
  8
0
 62
7
100
AcDbSpline
 70
8
 71
3
 72
8
 73
4
 74
0
 40
0
 40
0
 40
0
 40
0
 40
1
 40
1
 40
1
 40
1
 10
45.267102
 20
82.335922
 30
0.0
 10
45.526596
 20
83.102729
 30
0.0
 10
46.143408
 20
85.008071
 30
0.0
 10
46.566467
 20
85.570291
 30
0.0
  0
SPLINE
  5
15c
100
AcDbEntity
  8
0
 62
7
100
AcDbSpline
 70
8
 71
3
 72
8
 73
4
 74
0
 40
0
 40
0
 40
0
 40
0
 40
1
 40
1
 40
1
 40
1
 10
46.566467
 20
85.570291
 30
0.0
 10
47.513668
 20
86.828949
 30
0.0
 10
48.503891
 20
87.421778
 30
0.0
 10
49.616865
 20
88.184693
 30
0.0
  0
SPLINE
  5
15d
100
AcDbEntity
  8
0
 62
7
100
AcDbSpline
 70
8
 71
3
 72
8
 73
4
 74
0
 40
0
 40
0
 40
0
 40
0
 40
1
 40
1
 40
1
 40
1
 10
49.616865
 20
88.184693
 30
0.0
 10
50.729840
 20
88.947609
 30
0.0
 10
52.289225
 20
89.708420
 30
0.0
 10
52.631395
 20
89.877559
 30
0.0
  0
SPLINE
  5
15e
100
AcDbEntity
  8
0
 62
7
100
AcDbSpline
 70
8
 71
3
 72
8
 73
4
 74
0
 40
0
 40
0
 40
0
 40
0
 40
1
 40
1
 40
1
 40
1
 10
52.631395
 20
89.877559
 30
0.0
 10
52.973566
 20
90.046593
 30
0.0
 10
54.852296
 20
90.857158
 30
0.0
 10
55.433554
 20
91.059221
 30
0.0
  0
SPLINE
  5
15f
100
AcDbEntity
  8
0
 62
7
100
AcDbSpline
 70
8
 71
3
 72
8
 73
4
 74
0
 40
0
 40
0
 40
0
 40
0
 40
1
 40
1
 40
1
 40
1
 10
55.433554
 20
91.059221
 30
0.0
 10
56.014813
 20
91.261388
 30
0.0
 10
57.482476
 20
91.220471
 30
0.0
 10
57.482476
 20
91.220471
 30
0.0
  0
SPLINE
  5
160
100
AcDbEntity
  8
0
 62
7
100
AcDbSpline
 70
8
 71
3
 72
8
 73
4
 74
0
 40
0
 40
0
 40
0
 40
0
 40
1
 40
1
 40
1
 40
1
 10
57.482476
 20
91.220471
 30
0.0
 10
57.482476
 20
91.220471
 30
0.0
 10
59.922479
 20
94.725168
 30
0.0
 10
60.334703
 20
95.269402
 30
0.0
  0
SPLINE
  5
161
100
AcDbEntity
  8
0
 62
7
100
AcDbSpline
 70
8
 71
3
 72
8
 73
4
 74
0
 40
0
 40
0
 40
0
 40
0
 40
1
 40
1
 40
1
 40
1
 10
60.334703
 20
95.269402
 30
0.0
 10
60.746823
 20
95.813740
 30
0.0
 10
61.130016
 20
97.450542
 30
0.0
 10
61.373101
 20
98.336945
 30
0.0
  0
SPLINE
  5
162
100
AcDbEntity
  8
0
 62
7
100
AcDbSpline
 70
8
 71
3
 72
8
 73
4
 74
0
 40
0
 40
0
 40
0
 40
0
 40
1
 40
1
 40
1
 40
1
 10
61.373101
 20
98.336945
 30
0.0
 10
61.616186
 20
99.223349
 30
0.0
 10
65.049568
 20
103.474553
 30
0.0
 10
65.700880
 20
104.051814
 30
0.0
  0
SPLINE
  5
163
100
AcDbEntity
  8
0
 62
7
100
AcDbSpline
 70
8
 71
3
 72
8
 73
4
 74
0
 40
0
 40
0
 40
0
 40
0
 40
1
 40
1
 40
1
 40
1
 10
65.700880
 20
104.051814
 30
0.0
 10
66.352193
 20
104.629076
 30
0.0
 10
70.194538
 20
105.037935
 30
0.0
 10
70.586251
 20
104.848389
 30
0.0
  0
SPLINE
  5
164
100
AcDbEntity
  8
0
 62
7
100
AcDbSpline
 70
8
 71
3
 72
8
 73
4
 74
0
 40
0
 40
0
 40
0
 40
0
 40
1
 40
1
 40
1
 40
1
 10
70.586251
 20
104.848389
 30
0.0
 10
70.977859
 20
104.658739
 30
0.0
 10
71.382195
 20
103.496221
 30
0.0
 10
71.361684
 20
102.762443
 30
0.0
  0
SPLINE
  5
165
100
AcDbEntity
  8
0
 62
7
100
AcDbSpline
 70
8
 71
3
 72
8
 73
4
 74
0
 40
0
 40
0
 40
0
 40
0
 40
1
 40
1
 40
1
 40
1
 10
71.361684
 20
102.762443
 30
0.0
 10
71.341172
 20
102.028559
 30
0.0
 10
69.309291
 20
98.214719
 30
0.0
 10
68.880658
 20
97.789977
 30
0.0
  0
SPLINE
  5
166
100
AcDbEntity
  8
0
 62
7
100
AcDbSpline
 70
8
 71
3
 72
8
 73
4
 74
0
 40
0
 40
0
 40
0
 40
0
 40
1
 40
1
 40
1
 40
1
 10
68.880658
 20
97.789977
 30
0.0
 10
68.452024
 20
97.365236
 30
0.0
 10
67.895800
 20
95.217229
 30
0.0
 10
67.895800
 20
95.217229
 30
0.0
  0
SPLINE
  5
167
100
AcDbEntity
  8
0
 62
7
100
AcDbSpline
 70
8
 71
3
 72
8
 73
4
 74
0
 40
0
 40
0
 40
0
 40
0
 40
1
 40
1
 40
1
 40
1
 10
67.895800
 20
95.217229
 30
0.0
 10
67.895800
 20
95.217229
 30
0.0
 10
70.022664
 20
97.460324
 30
0.0
 10
70.744030
 20
98.412890
 30
0.0
  0
SPLINE
  5
168
100
AcDbEntity
  8
0
 62
7
100
AcDbSpline
 70
8
 71
3
 72
8
 73
4
 74
0
 40
0
 40
0
 40
0
 40
0
 40
1
 40
1
 40
1
 40
1
 10
70.744030
 20
98.412890
 30
0.0
 10
71.465292
 20
99.365351
 30
0.0
 10
77.574609
 20
102.767597
 30
0.0
 10
78.258950
 20
103.105875
 30
0.0
  0
SPLINE
  5
169
100
AcDbEntity
  8
0
 62
7
100
AcDbSpline
 70
8
 71
3
 72
8
 73
4
 74
0
 40
0
 40
0
 40
0
 40
0
 40
1
 40
1
 40
1
 40
1
 10
78.258950
 20
103.105875
 30
0.0
 10
78.943186
 20
103.444049
 30
0.0
 10
83.771020
 20
102.892453
 30
0.0
 10
84.298739
 20
102.599825
 30
0.0
  0
SPLINE
  5
16a
100
AcDbEntity
  8
0
 62
7
100
AcDbSpline
 70
8
 71
3
 72
8
 73
4
 74
0
 40
0
 40
0
 40
0
 40
0
 40
1
 40
1
 40
1
 40
1
 10
84.298739
 20
102.599825
 30
0.0
 10
84.826563
 20
102.307197
 30
0.0
 10
85.383314
 20
100.922106
 30
0.0
 10
85.383314
 20
100.922106
 30
0.0
  0
SPLINE
  5
16b
100
AcDbEntity
  8
0
 62
7
100
AcDbSpline
 70
8
 71
3
 72
8
 73
4
 74
0
 40
0
 40
0
 40
0
 40
0
 40
1
 40
1
 40
1
 40
1
 10
85.383314
 20
100.922106
 30
0.0
 10
85.383314
 20
100.922106
 30
0.0
 10
83.660680
 20
97.516388
 30
0.0
 10
83.264970
 20
96.852558
 30
0.0
  0
SPLINE
  5
16c
100
AcDbEntity
  8
0
 62
7
100
AcDbSpline
 70
8
 71
3
 72
8
 73
4
 74
0
 40
0
 40
0
 40
0
 40
0
 40
1
 40
1
 40
1
 40
1
 10
83.264970
 20
96.852558
 30
0.0
 10
82.869365
 20
96.188729
 30
0.0
 10
79.365824
 20
91.562431
 30
0.0
 10
79.176279
 20
91.170718
 30
0.0
  0
SPLINE
  5
16d
100
AcDbEntity
  8
0
 62
7
100
AcDbSpline
 70
8
 71
3
 72
8
 73
4
 74
0
 40
0
 40
0
 40
0
 40
0
 40
1
 40
1
 40
1
 40
1
 10
79.176279
 20
91.170718
 30
0.0
 10
78.986733
 20
90.779005
 30
0.0
 10
76.401994
 20
89.203632
 30
0.0
 10
75.956846
 20
88.898487
 30
0.0
  0
SPLINE
  5
16e
100
AcDbEntity
  8
0
 62
7
100
AcDbSpline
 70
8
 71
3
 72
8
 73
4
 74
0
 40
0
 40
0
 40
0
 40
0
 40
1
 40
1
 40
1
 40
1
 10
75.956846
 20
88.898487
 30
0.0
 10
75.511593
 20
88.593342
 30
0.0
 10
74.600786
 20
87.249168
 30
0.0
 10
74.052556
 20
86.807912
 30
0.0
  0
SPLINE
  5
16f
100
AcDbEntity
  8
0
 62
7
100
AcDbSpline
 70
8
 71
3
 72
8
 73
4
 74
0
 40
0
 40
0
 40
0
 40
0
 40
1
 40
1
 40
1
 40
1
 10
74.052556
 20
86.807912
 30
0.0
 10
73.504220
 20
86.366761
 30
0.0
 10
71.002157
 20
84.193615
 30
0.0
 10
70.503470
 20
83.393674
 30
0.0
  0
SPLINE
  5
170
100
AcDbEntity
  8
0
 62
7
100
AcDbSpline
 70
8
 71
3
 72
8
 73
4
 74
0
 40
0
 40
0
 40
0
 40
0
 40
1
 40
1
 40
1
 40
1
 10
70.503470
 20
83.393674
 30
0.0
 10
70.004782
 20
82.593734
 30
0.0
 10
69.922842
 20
79.658409
 30
0.0
 10
69.922842
 20
79.658409
 30
0.0
  0
SPLINE
  5
171
100
AcDbEntity
  8
0
 62
7
100
AcDbSpline
 70
8
 71
3
 72
8
 73
4
 74
0
 40
0
 40
0
 40
0
 40
0
 40
1
 40
1
 40
1
 40
1
 10
69.922842
 20
79.658409
 30
0.0
 10
69.922842
 20
79.658409
 30
0.0
 10
74.752780
 20
76.753483
 30
0.0
 10
76.282608
 20
75.380909
 30
0.0
  0
SPLINE
  5
172
100
AcDbEntity
  8
0
 62
7
100
AcDbSpline
 70
8
 71
3
 72
8
 73
4
 74
0
 40
0
 40
0
 40
0
 40
0
 40
1
 40
1
 40
1
 40
1
 10
76.282608
 20
75.380909
 30
0.0
 10
77.812330
 20
74.008229
 30
0.0
 10
82.792368
 20
63.671481
 30
0.0
 10
83.154419
 20
62.826625
 30
0.0
  0
SPLINE
  5
173
100
AcDbEntity
  8
0
 62
7
100
AcDbSpline
 70
8
 71
3
 72
8
 73
4
 74
0
 40
0
 40
0
 40
0
 40
0
 40
1
 40
1
 40
1
 40
1
 10
83.154419
 20
62.826625
 30
0.0
 10
83.516470
 20
61.981770
 30
0.0
 10
87.629880
 20
57.851531
 30
0.0
 10
88.836786
 20
55.558367
 30
0.0
  0
SPLINE
  5
174
100
AcDbEntity
  8
0
 62
7
100
AcDbSpline
 70
8
 71
3
 72
8
 73
4
 74
0
 40
0
 40
0
 40
0
 40
0
 40
1
 40
1
 40
1
 40
1
 10
88.836786
 20
55.558367
 30
0.0
 10
90.043797
 20
53.265204
 30
0.0
 10
91.639365
 20
47.644476
 30
0.0
 10
92.122065
 20
45.472067
 30
0.0
  0
SPLINE
  5
175
100
AcDbEntity
  8
0
 62
7
100
AcDbSpline
 70
8
 71
3
 72
8
 73
4
 74
0
 40
0
 40
0
 40
0
 40
0
 40
1
 40
1
 40
1
 40
1
 10
92.122065
 20
45.472067
 30
0.0
 10
92.604869
 20
43.299657
 30
0.0
 10
92.519563
 20
40.249469
 30
0.0
 10
91.916005
 20
38.197708
 30
0.0
  0
SPLINE
  5
176
100
AcDbEntity
  8
0
 62
7
100
AcDbSpline
 70
8
 71
3
 72
8
 73
4
 74
0
 40
0
 40
0
 40
0
 40
0
 40
1
 40
1
 40
1
 40
1
 10
91.916005
 20
38.197708
 30
0.0
 10
91.507357
 20
36.808304
 30
0.0
 10
89.801658
 20
32.779569
 30
0.0
 10
89.801658
 20
32.779569
 30
0.0
  0
SPLINE
  5
177
100
AcDbEntity
  8
0
 62
7
100
AcDbSpline
 70
8
 71
3
 72
8
 73
4
 74
0
 40
0
 40
0
 40
0
 40
0
 40
1
 40
1
 40
1
 40
1
 10
89.801658
 20
32.779569
 30
0.0
 10
89.801658
 20
32.779569
 30
0.0
 10
89.703940
 20
31.566562
 30
0.0
 10
89.245329
 20
30.228489
 30
0.0
  0
SPLINE
  5
178
100
AcDbEntity
  8
0
 62
7
100
AcDbSpline
 70
8
 71
3
 72
8
 73
4
 74
0
 40
0
 40
0
 40
0
 40
0
 40
1
 40
1
 40
1
 40
1
 10
89.245329
 20
30.228489
 30
0.0
 10
89.657027
 20
28.663950
 30
0.0
 10
91.083667
 20
28.241838
 30
0.0
 10
91.387445
 20
27.846023
 30
0.0
  0
SPLINE
  5
179
100
AcDbEntity
  8
0
 62
7
100
AcDbSpline
 70
8
 71
3
 72
8
 73
4
 74
0
 40
0
 40
0
 40
0
 40
0
 40
1
 40
1
 40
1
 40
1
 10
91.387445
 20
27.846023
 30
0.0
 10
91.950506
 20
27.112034
 30
0.0
 10
89.801658
 20
26.128017
 30
0.0
 10
87.422978
 20
26.524464
 30
0.0
  0
SPLINE
  5
17a
100
AcDbEntity
  8
0
 62
7
100
AcDbSpline
 70
8
 71
3
 72
8
 73
4
 74
0
 40
0
 40
0
 40
0
 40
0
 40
1
 40
1
 40
1
 40
1
 10
87.422978
 20
26.524464
 30
0.0
 10
87.084700
 20
26.580844
 30
0.0
 10
86.768721
 20
26.656367
 30
0.0
 10
86.473989
 20
26.743672
 30
0.0
  0
SPLINE
  5
17b
100
AcDbEntity
  8
0
 62
7
100
AcDbSpline
 70
8
 71
3
 72
8
 73
4
 74
0
 40
0
 40
0
 40
0
 40
0
 40
1
 40
1
 40
1
 40
1
 10
86.473989
 20
26.743672
 30
0.0
 10
84.650166
 20
25.573581
 30
0.0
 10
82.004734
 20
24.321971
 30
0.0
 10
82.004734
 20
24.321971
 30
0.0
  0
SPLINE
  5
17c
100
AcDbEntity
  8
0
 62
7
100
AcDbSpline
 70
8
 71
3
 72
8
 73
4
 74
0
 40
0
 40
0
 40
0
 40
0
 40
1
 40
1
 40
1
 40
1
 10
82.004734
 20
24.321971
 30
0.0
 10
82.004734
 20
24.321971
 30
0.0
 10
75.760148
 20
24.635215
 30
0.0
 10
74.432488
 20
24.635215
 30
0.0
  0
SPLINE
  5
17d
100
AcDbEntity
  8
0
 62
7
100
AcDbSpline
 70
8
 71
3
 72
8
 73
4
 74
0
 40
0
 40
0
 40
0
 40
0
 40
1
 40
1
 40
1
 40
1
 10
74.432488
 20
24.635215
 30
0.0
 10
73.104829
 20
24.635215
 30
0.0
 10
72.308043
 20
26.119287
 30
0.0
 10
71.829236
 20
26.039976
 30
0.0
  0
SPLINE
  5
17e
100
AcDbEntity
  8
0
 62
7
100
AcDbSpline
 70
8
 71
3
 72
8
 73
4
 74
0
 40
0
 40
0
 40
0
 40
0
 40
1
 40
1
 40
1
 40
1
 10
71.829236
 20
26.039976
 30
0.0
 10
71.350429
 20
25.960561
 30
0.0
 10
70.331911
 20
25.026929
 30
0.0
 10
70.331911
 20
25.026929
 30
0.0
  0
LWPOLYLINE
  5
17f
100
AcDbEntity
  8
0
 62
7
100
AcDbPolyline
 90
2
 70
0
 10
41.257511
 20
75.880017
 30
0.0
 10
41.256354
 20
75.871392
 30
0.0
  0
SPLINE
  5
180
100
AcDbEntity
  8
0
 62
7
100
AcDbSpline
 70
8
 71
3
 72
8
 73
4
 74
0
 40
0
 40
0
 40
0
 40
0
 40
1
 40
1
 40
1
 40
1
 10
68.921996
 20
24.454190
 30
0.0
 10
68.921996
 20
24.454190
 30
0.0
 10
67.932089
 20
22.389491
 30
0.0
 10
67.344730
 20
21.332265
 30
0.0
  0
SPLINE
  5
181
100
AcDbEntity
  8
0
 62
7
100
AcDbSpline
 70
8
 71
3
 72
8
 73
4
 74
0
 40
0
 40
0
 40
0
 40
0
 40
1
 40
1
 40
1
 40
1
 10
67.344730
 20
21.332265
 30
0.0
 10
66.757370
 20
20.275039
 30
0.0
 10
65.377117
 20
20.186893
 30
0.0
 10
65.024744
 20
20.832946
 30
0.0
  0
SPLINE
  5
182
100
AcDbEntity
  8
0
 62
7
100
AcDbSpline
 70
8
 71
3
 72
8
 73
4
 74
0
 40
0
 40
0
 40
0
 40
0
 40
1
 40
1
 40
1
 40
1
 10
65.024744
 20
20.832946
 30
0.0
 10
64.259304
 20
20.152602
 30
0.0
 10
62.447578
 20
19.980202
 30
0.0
 10
61.839812
 20
19.903416
 30
0.0
  0
SPLINE
  5
183
100
AcDbEntity
  8
0
 62
7
100
AcDbSpline
 70
8
 71
3
 72
8
 73
4
 74
0
 40
0
 40
0
 40
0
 40
0
 40
1
 40
1
 40
1
 40
1
 10
61.839812
 20
19.903416
 30
0.0
 10
61.574848
 20
20.080339
 30
0.0
 10
61.170933
 20
20.444809
 30
0.0
 10
60.736935
 20
21.156078
 30
0.0
  0
SPLINE
  5
184
100
AcDbEntity
  8
0
 62
7
100
AcDbSpline
 70
8
 71
3
 72
8
 73
4
 74
0
 40
0
 40
0
 40
0
 40
0
 40
1
 40
1
 40
1
 40
1
 10
60.736935
 20
21.156078
 30
0.0
 10
59.973389
 20
20.774252
 30
0.0
 10
60.090882
 20
21.713985
 30
0.0
 10
59.679709
 20
23.358571
 30
0.0
  0
SPLINE
  5
185
100
AcDbEntity
  8
0
 62
7
100
AcDbSpline
 70
8
 71
3
 72
8
 73
4
 74
0
 40
0
 40
0
 40
0
 40
0
 40
1
 40
1
 40
1
 40
1
 10
59.679709
 20
23.358571
 30
0.0
 10
59.268536
 20
25.003262
 30
0.0
 10
59.935732
 20
25.511311
 30
0.0
 10
59.935732
 20
25.511311
 30
0.0
  0
SPLINE
  5
186
100
AcDbEntity
  8
0
 62
7
100
AcDbSpline
 70
8
 71
3
 72
8
 73
4
 74
0
 40
0
 40
0
 40
0
 40
0
 40
1
 40
1
 40
1
 40
1
 10
59.935732
 20
25.511311
 30
0.0
 10
59.935732
 20
25.511311
 30
0.0
 10
58.270004
 20
25.869575
 30
0.0
 10
57.336793
 20
25.114864
 30
0.0
  0
SPLINE
  5
187
100
AcDbEntity
  8
0
 62
7
100
AcDbSpline
 70
8
 71
3
 72
8
 73
4
 74
0
 40
0
 40
0
 40
0
 40
0
 40
1
 40
1
 40
1
 40
1
 10
57.336793
 20
25.114864
 30
0.0
 10
56.506874
 20
24.443776
 30
0.0
 10
56.067406
 20
22.565678
 30
0.0
 10
54.561561
 20
21.678958
 30
0.0
  0
SPLINE
  5
188
100
AcDbEntity
  8
0
 62
7
100
AcDbSpline
 70
8
 71
3
 72
8
 73
4
 74
0
 40
0
 40
0
 40
0
 40
0
 40
1
 40
1
 40
1
 40
1
 10
54.561561
 20
21.678958
 30
0.0
 10
54.217287
 20
20.495193
 30
0.0
 10
52.146803
 20
20.979786
 30
0.0
 10
52.430595
 20
21.927093
 30
0.0
  0
SPLINE
  5
189
100
AcDbEntity
  8
0
 62
7
100
AcDbSpline
 70
8
 71
3
 72
8
 73
4
 74
0
 40
0
 40
0
 40
0
 40
0
 40
1
 40
1
 40
1
 40
1
 10
52.430595
 20
21.927093
 30
0.0
 10
52.430595
 20
21.927093
 30
0.0
 10
49.811986
 20
20.054674
 30
0.0
 10
49.900132
 20
20.979786
 30
0.0
  0
SPLINE
  5
18a
100
AcDbEntity
  8
0
 62
7
100
AcDbSpline
 70
8
 71
3
 72
8
 73
4
 74
0
 40
0
 40
0
 40
0
 40
0
 40
1
 40
1
 40
1
 40
1
 10
49.900132
 20
20.979786
 30
0.0
 10
48.534500
 20
20.407153
 30
0.0
 10
48.666614
 20
22.653824
 30
0.0
 10
48.666614
 20
22.653824
 30
0.0
  0
LWPOLYLINE
  5
18b
100
AcDbEntity
  8
0
 62
7
100
AcDbPolyline
 90
2
 70
0
 10
70.331911
 20
25.026929
 30
0.0
 10
68.921996
 20
24.454190
 30
0.0
  0
SPLINE
  5
18c
100
AcDbEntity
  8
0
 62
7
100
AcDbSpline
 70
8
 71
3
 72
8
 73
4
 74
0
 40
0
 40
0
 40
0
 40
0
 40
1
 40
1
 40
1
 40
1
 10
50.905501
 20
26.568537
 30
0.0
 10
50.905501
 20
26.568537
 30
0.0
 10
50.629072
 20
28.699608
 30
0.0
 10
50.156681
 20
28.815103
 30
0.0
  0
SPLINE
  5
18d
100
AcDbEntity
  8
0
 62
7
100
AcDbSpline
 70
8
 71
3
 72
8
 73
4
 74
0
 40
0
 40
0
 40
0
 40
0
 40
1
 40
1
 40
1
 40
1
 10
50.156681
 20
28.815103
 30
0.0
 10
49.500109
 20
28.975512
 30
0.0
 10
48.703008
 20
29.740110
 30
0.0
 10
47.910115
 20
30.268881
 30
0.0
  0
SPLINE
  5
18e
100
AcDbEntity
  8
0
 62
7
100
AcDbSpline
 70
8
 71
3
 72
8
 73
4
 74
0
 40
0
 40
0
 40
0
 40
0
 40
1
 40
1
 40
1
 40
1
 10
47.910115
 20
30.268881
 30
0.0
 10
47.117221
 20
30.797757
 30
0.0
 10
44.846989
 20
33.264582
 30
0.0
 10
44.085231
 20
34.547853
 30
0.0
  0
SPLINE
  5
18f
100
AcDbEntity
  8
0
 62
7
100
AcDbSpline
 70
8
 71
3
 72
8
 73
4
 74
0
 40
0
 40
0
 40
0
 40
0
 40
1
 40
1
 40
1
 40
1
 10
44.085231
 20
34.547853
 30
0.0
 10
43.323472
 20
35.831230
 30
0.0
 10
43.344089
 20
36.133955
 30
0.0
 10
43.020536
 20
37.669147
 30
0.0
  0
SPLINE
  5
190
100
AcDbEntity
  8
0
 62
7
100
AcDbSpline
 70
8
 71
3
 72
8
 73
4
 74
0
 40
0
 40
0
 40
0
 40
0
 40
1
 40
1
 40
1
 40
1
 10
43.020536
 20
37.669147
 30
0.0
 10
42.675526
 20
39.305528
 30
0.0
 10
41.038303
 20
42.690840
 30
0.0
 10
41.038303
 20
42.690840
 30
0.0
  0
SPLINE
  5
191
100
AcDbEntity
  8
0
 62
7
100
AcDbSpline
 70
8
 71
3
 72
8
 73
4
 74
0
 40
0
 40
0
 40
0
 40
0
 40
1
 40
1
 40
1
 40
1
 10
41.038303
 20
42.690840
 30
0.0
 10
39.952046
 20
45.828858
 30
0.0
 10
39.742094
 20
51.747894
 30
0.0
 10
40.828352
 20
55.610119
 30
0.0
  0
SPLINE
  5
192
100
AcDbEntity
  8
0
 62
7
100
AcDbSpline
 70
8
 71
3
 72
8
 73
4
 74
0
 40
0
 40
0
 40
0
 40
0
 40
1
 40
1
 40
1
 40
1
 10
40.828352
 20
55.610119
 30
0.0
 10
41.553926
 20
58.189809
 30
0.0
 10
42.809533
 20
63.074444
 30
0.0
 10
43.292337
 20
63.798545
 30
0.0
  0
SPLINE
  5
193
100
AcDbEntity
  8
0
 62
7
100
AcDbSpline
 70
8
 71
3
 72
8
 73
4
 74
0
 40
0
 40
0
 40
0
 40
0
 40
1
 40
1
 40
1
 40
1
 10
43.292337
 20
63.798545
 30
0.0
 10
43.775037
 20
64.522752
 30
0.0
 10
43.997085
 20
68.380034
 30
0.0
 10
43.997085
 20
68.380034
 30
0.0
  0
SPLINE
  5
194
100
AcDbEntity
  8
0
 62
7
100
AcDbSpline
 70
8
 71
3
 72
8
 73
4
 74
0
 40
0
 40
0
 40
0
 40
0
 40
1
 40
1
 40
1
 40
1
 10
43.997085
 20
68.380034
 30
0.0
 10
43.997085
 20
68.380034
 30
0.0
 10
42.235006
 20
68.820553
 30
0.0
 10
40.913447
 20
71.023151
 30
0.0
  0
SPLINE
  5
195
100
AcDbEntity
  8
0
 62
7
100
AcDbSpline
 70
8
 71
3
 72
8
 73
4
 74
0
 40
0
 40
0
 40
0
 40
0
 40
1
 40
1
 40
1
 40
1
 10
5.926667
 20
22.577782
 30
0.0
 10
5.926667
 20
22.421912
 30
0.0
 10
5.800311
 20
22.295555
 30
0.0
 10
5.644444
 20
22.295555
 30
0.0
  0
SPLINE
  5
196
100
AcDbEntity
  8
0
 62
7
100
AcDbSpline
 70
8
 71
3
 72
8
 73
4
 74
0
 40
0
 40
0
 40
0
 40
0
 40
1
 40
1
 40
1
 40
1
 10
5.644444
 20
22.295555
 30
0.0
 10
5.488577
 20
22.295555
 30
0.0
 10
5.362222
 20
22.421912
 30
0.0
 10
5.362222
 20
22.577782
 30
0.0
  0
SPLINE
  5
197
100
AcDbEntity
  8
0
 62
7
100
AcDbSpline
 70
8
 71
3
 72
8
 73
4
 74
0
 40
0
 40
0
 40
0
 40
0
 40
1
 40
1
 40
1
 40
1
 10
5.362222
 20
22.577782
 30
0.0
 10
5.362222
 20
22.733651
 30
0.0
 10
5.488577
 20
22.860008
 30
0.0
 10
5.644444
 20
22.860008
 30
0.0
  0
SPLINE
  5
198
100
AcDbEntity
  8
0
 62
7
100
AcDbSpline
 70
8
 71
3
 72
8
 73
4
 74
0
 40
0
 40
0
 40
0
 40
0
 40
1
 40
1
 40
1
 40
1
 10
5.644444
 20
22.860008
 30
0.0
 10
5.800311
 20
22.860008
 30
0.0
 10
5.926667
 20
22.733651
 30
0.0
 10
5.926667
 20
22.577782
 30
0.0
  0
LWPOLYLINE
  5
199
100
AcDbEntity
  8
0
 62
7
100
AcDbPolyline
 90
3
 70
0
 10
48.666614
 20
22.653824
 30
0.0
 10
49.312667
 20
23.889551
 30
0.0
 10
50.905501
 20
26.568537
 30
0.0
  0
SPLINE
  5
19a
100
AcDbEntity
  8
0
 62
7
100
AcDbSpline
 70
8
 71
3
 72
8
 73
4
 74
0
 40
0
 40
0
 40
0
 40
0
 40
1
 40
1
 40
1
 40
1
 10
22.860000
 20
5.644450
 30
0.0
 10
22.860000
 20
5.488579
 30
0.0
 10
22.733645
 20
5.362222
 30
0.0
 10
22.577777
 20
5.362222
 30
0.0
  0
SPLINE
  5
19b
100
AcDbEntity
  8
0
 62
7
100
AcDbSpline
 70
8
 71
3
 72
8
 73
4
 74
0
 40
0
 40
0
 40
0
 40
0
 40
1
 40
1
 40
1
 40
1
 10
22.577777
 20
5.362222
 30
0.0
 10
22.421911
 20
5.362222
 30
0.0
 10
22.295556
 20
5.488579
 30
0.0
 10
22.295556
 20
5.644450
 30
0.0
  0
SPLINE
  5
19c
100
AcDbEntity
  8
0
 62
7
100
AcDbSpline
 70
8
 71
3
 72
8
 73
4
 74
0
 40
0
 40
0
 40
0
 40
0
 40
1
 40
1
 40
1
 40
1
 10
22.295556
 20
5.644450
 30
0.0
 10
22.295556
 20
5.800319
 30
0.0
 10
22.421911
 20
5.926675
 30
0.0
 10
22.577777
 20
5.926675
 30
0.0
  0
SPLINE
  5
19d
100
AcDbEntity
  8
0
 62
7
100
AcDbSpline
 70
8
 71
3
 72
8
 73
4
 74
0
 40
0
 40
0
 40
0
 40
0
 40
1
 40
1
 40
1
 40
1
 10
22.577777
 20
5.926675
 30
0.0
 10
22.733645
 20
5.926675
 30
0.0
 10
22.860000
 20
5.800319
 30
0.0
 10
22.860000
 20
5.644450
 30
0.0
  0
LWPOLYLINE
  5
19e
100
AcDbEntity
  8
0
 62
7
100
AcDbPolyline
 90
2
 70
1
 10
5.926667
 20
22.577782
 30
0.0
 10
5.926667
 20
22.577782
 30
0.0
  0
SPLINE
  5
19f
100
AcDbEntity
  8
0
 62
7
100
AcDbSpline
 70
8
 71
3
 72
8
 73
4
 74
0
 40
0
 40
0
 40
0
 40
0
 40
1
 40
1
 40
1
 40
1
 10
104.704444
 20
248.355561
 30
0.0
 10
104.704444
 20
248.199690
 30
0.0
 10
104.578088
 20
248.073333
 30
0.0
 10
104.422222
 20
248.073333
 30
0.0
  0
SPLINE
  5
1a0
100
AcDbEntity
  8
0
 62
7
100
AcDbSpline
 70
8
 71
3
 72
8
 73
4
 74
0
 40
0
 40
0
 40
0
 40
0
 40
1
 40
1
 40
1
 40
1
 10
104.422222
 20
248.073333
 30
0.0
 10
104.266357
 20
248.073333
 30
0.0
 10
104.140000
 20
248.199690
 30
0.0
 10
104.140000
 20
248.355561
 30
0.0
  0
SPLINE
  5
1a1
100
AcDbEntity
  8
0
 62
7
100
AcDbSpline
 70
8
 71
3
 72
8
 73
4
 74
0
 40
0
 40
0
 40
0
 40
0
 40
1
 40
1
 40
1
 40
1
 10
104.140000
 20
248.355561
 30
0.0
 10
104.140000
 20
248.511430
 30
0.0
 10
104.266357
 20
248.637786
 30
0.0
 10
104.422222
 20
248.637786
 30
0.0
  0
SPLINE
  5
1a2
100
AcDbEntity
  8
0
 62
7
100
AcDbSpline
 70
8
 71
3
 72
8
 73
4
 74
0
 40
0
 40
0
 40
0
 40
0
 40
1
 40
1
 40
1
 40
1
 10
104.422222
 20
248.637786
 30
0.0
 10
104.578088
 20
248.637786
 30
0.0
 10
104.704444
 20
248.511430
 30
0.0
 10
104.704444
 20
248.355561
 30
0.0
  0
LWPOLYLINE
  5
1a3
100
AcDbEntity
  8
0
 62
7
100
AcDbPolyline
 90
2
 70
1
 10
22.860000
 20
5.644450
 30
0.0
 10
22.860000
 20
5.644450
 30
0.0
  0
SPLINE
  5
1a4
100
AcDbEntity
  8
0
 62
7
100
AcDbSpline
 70
8
 71
3
 72
8
 73
4
 74
0
 40
0
 40
0
 40
0
 40
0
 40
1
 40
1
 40
1
 40
1
 10
22.860000
 20
248.355561
 30
0.0
 10
22.860000
 20
248.199690
 30
0.0
 10
22.733643
 20
248.073333
 30
0.0
 10
22.577778
 20
248.073333
 30
0.0
  0
SPLINE
  5
1a5
100
AcDbEntity
  8
0
 62
7
100
AcDbSpline
 70
8
 71
3
 72
8
 73
4
 74
0
 40
0
 40
0
 40
0
 40
0
 40
1
 40
1
 40
1
 40
1
 10
22.577778
 20
248.073333
 30
0.0
 10
22.421912
 20
248.073333
 30
0.0
 10
22.295556
 20
248.199690
 30
0.0
 10
22.295556
 20
248.355561
 30
0.0
  0
SPLINE
  5
1a6
100
AcDbEntity
  8
0
 62
7
100
AcDbSpline
 70
8
 71
3
 72
8
 73
4
 74
0
 40
0
 40
0
 40
0
 40
0
 40
1
 40
1
 40
1
 40
1
 10
22.295556
 20
248.355561
 30
0.0
 10
22.295556
 20
248.511430
 30
0.0
 10
22.421912
 20
248.637786
 30
0.0
 10
22.577778
 20
248.637786
 30
0.0
  0
SPLINE
  5
1a7
100
AcDbEntity
  8
0
 62
7
100
AcDbSpline
 70
8
 71
3
 72
8
 73
4
 74
0
 40
0
 40
0
 40
0
 40
0
 40
1
 40
1
 40
1
 40
1
 10
22.577778
 20
248.637786
 30
0.0
 10
22.733643
 20
248.637786
 30
0.0
 10
22.860000
 20
248.511430
 30
0.0
 10
22.860000
 20
248.355561
 30
0.0
  0
LWPOLYLINE
  5
1a8
100
AcDbEntity
  8
0
 62
7
100
AcDbPolyline
 90
2
 70
1
 10
104.704444
 20
248.355561
 30
0.0
 10
104.704444
 20
248.355561
 30
0.0
  0
SPLINE
  5
1a9
100
AcDbEntity
  8
0
 62
7
100
AcDbSpline
 70
8
 71
3
 72
8
 73
4
 74
0
 40
0
 40
0
 40
0
 40
0
 40
1
 40
1
 40
1
 40
1
 10
104.704444
 20
121.355561
 30
0.0
 10
104.704444
 20
121.199690
 30
0.0
 10
104.578088
 20
121.073333
 30
0.0
 10
104.422222
 20
121.073333
 30
0.0
  0
SPLINE
  5
1aa
100
AcDbEntity
  8
0
 62
7
100
AcDbSpline
 70
8
 71
3
 72
8
 73
4
 74
0
 40
0
 40
0
 40
0
 40
0
 40
1
 40
1
 40
1
 40
1
 10
104.422222
 20
121.073333
 30
0.0
 10
104.266357
 20
121.073333
 30
0.0
 10
104.140000
 20
121.199690
 30
0.0
 10
104.140000
 20
121.355561
 30
0.0
  0
SPLINE
  5
1ab
100
AcDbEntity
  8
0
 62
7
100
AcDbSpline
 70
8
 71
3
 72
8
 73
4
 74
0
 40
0
 40
0
 40
0
 40
0
 40
1
 40
1
 40
1
 40
1
 10
104.140000
 20
121.355561
 30
0.0
 10
104.140000
 20
121.511430
 30
0.0
 10
104.266357
 20
121.637786
 30
0.0
 10
104.422222
 20
121.637786
 30
0.0
  0
SPLINE
  5
1ac
100
AcDbEntity
  8
0
 62
7
100
AcDbSpline
 70
8
 71
3
 72
8
 73
4
 74
0
 40
0
 40
0
 40
0
 40
0
 40
1
 40
1
 40
1
 40
1
 10
104.422222
 20
121.637786
 30
0.0
 10
104.578088
 20
121.637786
 30
0.0
 10
104.704444
 20
121.511430
 30
0.0
 10
104.704444
 20
121.355561
 30
0.0
  0
LWPOLYLINE
  5
1ad
100
AcDbEntity
  8
0
 62
7
100
AcDbPolyline
 90
2
 70
1
 10
22.860000
 20
248.355561
 30
0.0
 10
22.860000
 20
248.355561
 30
0.0
  0
SPLINE
  5
1ae
100
AcDbEntity
  8
0
 62
7
100
AcDbSpline
 70
8
 71
3
 72
8
 73
4
 74
0
 40
0
 40
0
 40
0
 40
0
 40
1
 40
1
 40
1
 40
1
 10
22.860000
 20
121.355561
 30
0.0
 10
22.860000
 20
121.199690
 30
0.0
 10
22.733645
 20
121.073333
 30
0.0
 10
22.577777
 20
121.073333
 30
0.0
  0
SPLINE
  5
1af
100
AcDbEntity
  8
0
 62
7
100
AcDbSpline
 70
8
 71
3
 72
8
 73
4
 74
0
 40
0
 40
0
 40
0
 40
0
 40
1
 40
1
 40
1
 40
1
 10
22.577777
 20
121.073333
 30
0.0
 10
22.421911
 20
121.073333
 30
0.0
 10
22.295556
 20
121.199690
 30
0.0
 10
22.295556
 20
121.355561
 30
0.0
  0
SPLINE
  5
1b0
100
AcDbEntity
  8
0
 62
7
100
AcDbSpline
 70
8
 71
3
 72
8
 73
4
 74
0
 40
0
 40
0
 40
0
 40
0
 40
1
 40
1
 40
1
 40
1
 10
22.295556
 20
121.355561
 30
0.0
 10
22.295556
 20
121.511430
 30
0.0
 10
22.421911
 20
121.637786
 30
0.0
 10
22.577777
 20
121.637786
 30
0.0
  0
SPLINE
  5
1b1
100
AcDbEntity
  8
0
 62
7
100
AcDbSpline
 70
8
 71
3
 72
8
 73
4
 74
0
 40
0
 40
0
 40
0
 40
0
 40
1
 40
1
 40
1
 40
1
 10
22.577777
 20
121.637786
 30
0.0
 10
22.733645
 20
121.637786
 30
0.0
 10
22.860000
 20
121.511430
 30
0.0
 10
22.860000
 20
121.355561
 30
0.0
  0
LWPOLYLINE
  5
1b2
100
AcDbEntity
  8
0
 62
7
100
AcDbPolyline
 90
2
 70
1
 10
104.704444
 20
121.355561
 30
0.0
 10
104.704444
 20
121.355561
 30
0.0
  0
SPLINE
  5
1b3
100
AcDbEntity
  8
0
 62
7
100
AcDbSpline
 70
8
 71
3
 72
8
 73
4
 74
0
 40
0
 40
0
 40
0
 40
0
 40
1
 40
1
 40
1
 40
1
 10
22.860000
 20
132.644450
 30
0.0
 10
22.860000
 20
132.488579
 30
0.0
 10
22.733645
 20
132.362222
 30
0.0
 10
22.577777
 20
132.362222
 30
0.0
  0
SPLINE
  5
1b4
100
AcDbEntity
  8
0
 62
7
100
AcDbSpline
 70
8
 71
3
 72
8
 73
4
 74
0
 40
0
 40
0
 40
0
 40
0
 40
1
 40
1
 40
1
 40
1
 10
22.577777
 20
132.362222
 30
0.0
 10
22.421911
 20
132.362222
 30
0.0
 10
22.295556
 20
132.488579
 30
0.0
 10
22.295556
 20
132.644450
 30
0.0
  0
SPLINE
  5
1b5
100
AcDbEntity
  8
0
 62
7
100
AcDbSpline
 70
8
 71
3
 72
8
 73
4
 74
0
 40
0
 40
0
 40
0
 40
0
 40
1
 40
1
 40
1
 40
1
 10
22.295556
 20
132.644450
 30
0.0
 10
22.295556
 20
132.800319
 30
0.0
 10
22.421911
 20
132.926675
 30
0.0
 10
22.577777
 20
132.926675
 30
0.0
  0
SPLINE
  5
1b6
100
AcDbEntity
  8
0
 62
7
100
AcDbSpline
 70
8
 71
3
 72
8
 73
4
 74
0
 40
0
 40
0
 40
0
 40
0
 40
1
 40
1
 40
1
 40
1
 10
22.577777
 20
132.926675
 30
0.0
 10
22.733645
 20
132.926675
 30
0.0
 10
22.860000
 20
132.800319
 30
0.0
 10
22.860000
 20
132.644450
 30
0.0
  0
LWPOLYLINE
  5
1b7
100
AcDbEntity
  8
0
 62
7
100
AcDbPolyline
 90
2
 70
1
 10
22.860000
 20
121.355561
 30
0.0
 10
22.860000
 20
121.355561
 30
0.0
  0
SPLINE
  5
1b8
100
AcDbEntity
  8
0
 62
7
100
AcDbSpline
 70
8
 71
3
 72
8
 73
4
 74
0
 40
0
 40
0
 40
0
 40
0
 40
1
 40
1
 40
1
 40
1
 10
104.704444
 20
5.644450
 30
0.0
 10
104.704444
 20
5.488579
 30
0.0
 10
104.578088
 20
5.362222
 30
0.0
 10
104.422222
 20
5.362222
 30
0.0
  0
SPLINE
  5
1b9
100
AcDbEntity
  8
0
 62
7
100
AcDbSpline
 70
8
 71
3
 72
8
 73
4
 74
0
 40
0
 40
0
 40
0
 40
0
 40
1
 40
1
 40
1
 40
1
 10
104.422222
 20
5.362222
 30
0.0
 10
104.266357
 20
5.362222
 30
0.0
 10
104.140000
 20
5.488579
 30
0.0
 10
104.140000
 20
5.644450
 30
0.0
  0
SPLINE
  5
1ba
100
AcDbEntity
  8
0
 62
7
100
AcDbSpline
 70
8
 71
3
 72
8
 73
4
 74
0
 40
0
 40
0
 40
0
 40
0
 40
1
 40
1
 40
1
 40
1
 10
104.140000
 20
5.644450
 30
0.0
 10
104.140000
 20
5.800319
 30
0.0
 10
104.266357
 20
5.926675
 30
0.0
 10
104.422222
 20
5.926675
 30
0.0
  0
SPLINE
  5
1bb
100
AcDbEntity
  8
0
 62
7
100
AcDbSpline
 70
8
 71
3
 72
8
 73
4
 74
0
 40
0
 40
0
 40
0
 40
0
 40
1
 40
1
 40
1
 40
1
 10
104.422222
 20
5.926675
 30
0.0
 10
104.578088
 20
5.926675
 30
0.0
 10
104.704444
 20
5.800319
 30
0.0
 10
104.704444
 20
5.644450
 30
0.0
  0
LWPOLYLINE
  5
1bc
100
AcDbEntity
  8
0
 62
7
100
AcDbPolyline
 90
2
 70
1
 10
22.860000
 20
132.644450
 30
0.0
 10
22.860000
 20
132.644450
 30
0.0
  0
SPLINE
  5
1bd
100
AcDbEntity
  8
0
 62
7
100
AcDbSpline
 70
8
 71
3
 72
8
 73
4
 74
0
 40
0
 40
0
 40
0
 40
0
 40
1
 40
1
 40
1
 40
1
 10
104.704444
 20
132.644450
 30
0.0
 10
104.704444
 20
132.488579
 30
0.0
 10
104.578088
 20
132.362222
 30
0.0
 10
104.422222
 20
132.362222
 30
0.0
  0
SPLINE
  5
1be
100
AcDbEntity
  8
0
 62
7
100
AcDbSpline
 70
8
 71
3
 72
8
 73
4
 74
0
 40
0
 40
0
 40
0
 40
0
 40
1
 40
1
 40
1
 40
1
 10
104.422222
 20
132.362222
 30
0.0
 10
104.266357
 20
132.362222
 30
0.0
 10
104.140000
 20
132.488579
 30
0.0
 10
104.140000
 20
132.644450
 30
0.0
  0
SPLINE
  5
1bf
100
AcDbEntity
  8
0
 62
7
100
AcDbSpline
 70
8
 71
3
 72
8
 73
4
 74
0
 40
0
 40
0
 40
0
 40
0
 40
1
 40
1
 40
1
 40
1
 10
104.140000
 20
132.644450
 30
0.0
 10
104.140000
 20
132.800319
 30
0.0
 10
104.266357
 20
132.926675
 30
0.0
 10
104.422222
 20
132.926675
 30
0.0
  0
SPLINE
  5
1c0
100
AcDbEntity
  8
0
 62
7
100
AcDbSpline
 70
8
 71
3
 72
8
 73
4
 74
0
 40
0
 40
0
 40
0
 40
0
 40
1
 40
1
 40
1
 40
1
 10
104.422222
 20
132.926675
 30
0.0
 10
104.578088
 20
132.926675
 30
0.0
 10
104.704444
 20
132.800319
 30
0.0
 10
104.704444
 20
132.644450
 30
0.0
  0
LWPOLYLINE
  5
1c1
100
AcDbEntity
  8
0
 62
7
100
AcDbPolyline
 90
2
 70
1
 10
104.704444
 20
5.644450
 30
0.0
 10
104.704444
 20
5.644450
 30
0.0
  0
SPLINE
  5
1c2
100
AcDbEntity
  8
0
 62
7
100
AcDbSpline
 70
8
 71
3
 72
8
 73
4
 74
0
 40
0
 40
0
 40
0
 40
0
 40
1
 40
1
 40
1
 40
1
 10
5.926667
 20
104.422228
 30
0.0
 10
5.926667
 20
104.266357
 30
0.0
 10
5.800311
 20
104.140000
 30
0.0
 10
5.644444
 20
104.140000
 30
0.0
  0
SPLINE
  5
1c3
100
AcDbEntity
  8
0
 62
7
100
AcDbSpline
 70
8
 71
3
 72
8
 73
4
 74
0
 40
0
 40
0
 40
0
 40
0
 40
1
 40
1
 40
1
 40
1
 10
5.644444
 20
104.140000
 30
0.0
 10
5.488577
 20
104.140000
 30
0.0
 10
5.362222
 20
104.266357
 30
0.0
 10
5.362222
 20
104.422228
 30
0.0
  0
SPLINE
  5
1c4
100
AcDbEntity
  8
0
 62
7
100
AcDbSpline
 70
8
 71
3
 72
8
 73
4
 74
0
 40
0
 40
0
 40
0
 40
0
 40
1
 40
1
 40
1
 40
1
 10
5.362222
 20
104.422228
 30
0.0
 10
5.362222
 20
104.578096
 30
0.0
 10
5.488577
 20
104.704453
 30
0.0
 10
5.644444
 20
104.704453
 30
0.0
  0
SPLINE
  5
1c5
100
AcDbEntity
  8
0
 62
7
100
AcDbSpline
 70
8
 71
3
 72
8
 73
4
 74
0
 40
0
 40
0
 40
0
 40
0
 40
1
 40
1
 40
1
 40
1
 10
5.644444
 20
104.704453
 30
0.0
 10
5.800311
 20
104.704453
 30
0.0
 10
5.926667
 20
104.578096
 30
0.0
 10
5.926667
 20
104.422228
 30
0.0
  0
LWPOLYLINE
  5
1c6
100
AcDbEntity
  8
0
 62
7
100
AcDbPolyline
 90
2
 70
1
 10
104.704444
 20
132.644450
 30
0.0
 10
104.704444
 20
132.644450
 30
0.0
  0
SPLINE
  5
1c7
100
AcDbEntity
  8
0
 62
7
100
AcDbSpline
 70
8
 71
3
 72
8
 73
4
 74
0
 40
0
 40
0
 40
0
 40
0
 40
1
 40
1
 40
1
 40
1
 10
5.926667
 20
231.422228
 30
0.0
 10
5.926667
 20
231.266357
 30
0.0
 10
5.800311
 20
231.140000
 30
0.0
 10
5.644444
 20
231.140000
 30
0.0
  0
SPLINE
  5
1c8
100
AcDbEntity
  8
0
 62
7
100
AcDbSpline
 70
8
 71
3
 72
8
 73
4
 74
0
 40
0
 40
0
 40
0
 40
0
 40
1
 40
1
 40
1
 40
1
 10
5.644444
 20
231.140000
 30
0.0
 10
5.488577
 20
231.140000
 30
0.0
 10
5.362222
 20
231.266357
 30
0.0
 10
5.362222
 20
231.422228
 30
0.0
  0
SPLINE
  5
1c9
100
AcDbEntity
  8
0
 62
7
100
AcDbSpline
 70
8
 71
3
 72
8
 73
4
 74
0
 40
0
 40
0
 40
0
 40
0
 40
1
 40
1
 40
1
 40
1
 10
5.362222
 20
231.422228
 30
0.0
 10
5.362222
 20
231.578096
 30
0.0
 10
5.488577
 20
231.704453
 30
0.0
 10
5.644444
 20
231.704453
 30
0.0
  0
SPLINE
  5
1ca
100
AcDbEntity
  8
0
 62
7
100
AcDbSpline
 70
8
 71
3
 72
8
 73
4
 74
0
 40
0
 40
0
 40
0
 40
0
 40
1
 40
1
 40
1
 40
1
 10
5.644444
 20
231.704453
 30
0.0
 10
5.800311
 20
231.704453
 30
0.0
 10
5.926667
 20
231.578096
 30
0.0
 10
5.926667
 20
231.422228
 30
0.0
  0
LWPOLYLINE
  5
1cb
100
AcDbEntity
  8
0
 62
7
100
AcDbPolyline
 90
2
 70
1
 10
5.926667
 20
104.422228
 30
0.0
 10
5.926667
 20
104.422228
 30
0.0
  0
SPLINE
  5
1cc
100
AcDbEntity
  8
0
 62
7
100
AcDbSpline
 70
8
 71
3
 72
8
 73
4
 74
0
 40
0
 40
0
 40
0
 40
0
 40
1
 40
1
 40
1
 40
1
 10
121.637778
 20
231.422228
 30
0.0
 10
121.637778
 20
231.266357
 30
0.0
 10
121.511421
 20
231.140000
 30
0.0
 10
121.355556
 20
231.140000
 30
0.0
  0
SPLINE
  5
1cd
100
AcDbEntity
  8
0
 62
7
100
AcDbSpline
 70
8
 71
3
 72
8
 73
4
 74
0
 40
0
 40
0
 40
0
 40
0
 40
1
 40
1
 40
1
 40
1
 10
121.355556
 20
231.140000
 30
0.0
 10
121.199690
 20
231.140000
 30
0.0
 10
121.073333
 20
231.266357
 30
0.0
 10
121.073333
 20
231.422228
 30
0.0
  0
SPLINE
  5
1ce
100
AcDbEntity
  8
0
 62
7
100
AcDbSpline
 70
8
 71
3
 72
8
 73
4
 74
0
 40
0
 40
0
 40
0
 40
0
 40
1
 40
1
 40
1
 40
1
 10
121.073333
 20
231.422228
 30
0.0
 10
121.073333
 20
231.578096
 30
0.0
 10
121.199690
 20
231.704453
 30
0.0
 10
121.355556
 20
231.704453
 30
0.0
  0
SPLINE
  5
1cf
100
AcDbEntity
  8
0
 62
7
100
AcDbSpline
 70
8
 71
3
 72
8
 73
4
 74
0
 40
0
 40
0
 40
0
 40
0
 40
1
 40
1
 40
1
 40
1
 10
121.355556
 20
231.704453
 30
0.0
 10
121.511421
 20
231.704453
 30
0.0
 10
121.637778
 20
231.578096
 30
0.0
 10
121.637778
 20
231.422228
 30
0.0
  0
LWPOLYLINE
  5
1d0
100
AcDbEntity
  8
0
 62
7
100
AcDbPolyline
 90
2
 70
1
 10
5.926667
 20
231.422228
 30
0.0
 10
5.926667
 20
231.422228
 30
0.0
  0
SPLINE
  5
1d1
100
AcDbEntity
  8
0
 62
7
100
AcDbSpline
 70
8
 71
3
 72
8
 73
4
 74
0
 40
0
 40
0
 40
0
 40
0
 40
1
 40
1
 40
1
 40
1
 10
121.637778
 20
104.422228
 30
0.0
 10
121.637778
 20
104.266357
 30
0.0
 10
121.511421
 20
104.140000
 30
0.0
 10
121.355556
 20
104.140000
 30
0.0
  0
SPLINE
  5
1d2
100
AcDbEntity
  8
0
 62
7
100
AcDbSpline
 70
8
 71
3
 72
8
 73
4
 74
0
 40
0
 40
0
 40
0
 40
0
 40
1
 40
1
 40
1
 40
1
 10
121.355556
 20
104.140000
 30
0.0
 10
121.199690
 20
104.140000
 30
0.0
 10
121.073333
 20
104.266357
 30
0.0
 10
121.073333
 20
104.422228
 30
0.0
  0
SPLINE
  5
1d3
100
AcDbEntity
  8
0
 62
7
100
AcDbSpline
 70
8
 71
3
 72
8
 73
4
 74
0
 40
0
 40
0
 40
0
 40
0
 40
1
 40
1
 40
1
 40
1
 10
121.073333
 20
104.422228
 30
0.0
 10
121.073333
 20
104.578096
 30
0.0
 10
121.199690
 20
104.704453
 30
0.0
 10
121.355556
 20
104.704453
 30
0.0
  0
SPLINE
  5
1d4
100
AcDbEntity
  8
0
 62
7
100
AcDbSpline
 70
8
 71
3
 72
8
 73
4
 74
0
 40
0
 40
0
 40
0
 40
0
 40
1
 40
1
 40
1
 40
1
 10
121.355556
 20
104.704453
 30
0.0
 10
121.511421
 20
104.704453
 30
0.0
 10
121.637778
 20
104.578096
 30
0.0
 10
121.637778
 20
104.422228
 30
0.0
  0
LWPOLYLINE
  5
1d5
100
AcDbEntity
  8
0
 62
7
100
AcDbPolyline
 90
2
 70
1
 10
121.637778
 20
231.422228
 30
0.0
 10
121.637778
 20
231.422228
 30
0.0
  0
SPLINE
  5
1d6
100
AcDbEntity
  8
0
 62
7
100
AcDbSpline
 70
8
 71
3
 72
8
 73
4
 74
0
 40
0
 40
0
 40
0
 40
0
 40
1
 40
1
 40
1
 40
1
 10
5.926667
 20
149.577781
 30
0.0
 10
5.926667
 20
149.421912
 30
0.0
 10
5.800310
 20
149.295556
 30
0.0
 10
5.644444
 20
149.295556
 30
0.0
  0
SPLINE
  5
1d7
100
AcDbEntity
  8
0
 62
7
100
AcDbSpline
 70
8
 71
3
 72
8
 73
4
 74
0
 40
0
 40
0
 40
0
 40
0
 40
1
 40
1
 40
1
 40
1
 10
5.644444
 20
149.295556
 30
0.0
 10
5.488576
 20
149.295556
 30
0.0
 10
5.362222
 20
149.421912
 30
0.0
 10
5.362222
 20
149.577781
 30
0.0
  0
SPLINE
  5
1d8
100
AcDbEntity
  8
0
 62
7
100
AcDbSpline
 70
8
 71
3
 72
8
 73
4
 74
0
 40
0
 40
0
 40
0
 40
0
 40
1
 40
1
 40
1
 40
1
 10
5.362222
 20
149.577781
 30
0.0
 10
5.362222
 20
149.733652
 30
0.0
 10
5.488576
 20
149.860008
 30
0.0
 10
5.644444
 20
149.860008
 30
0.0
  0
SPLINE
  5
1d9
100
AcDbEntity
  8
0
 62
7
100
AcDbSpline
 70
8
 71
3
 72
8
 73
4
 74
0
 40
0
 40
0
 40
0
 40
0
 40
1
 40
1
 40
1
 40
1
 10
5.644444
 20
149.860008
 30
0.0
 10
5.800310
 20
149.860008
 30
0.0
 10
5.926667
 20
149.733652
 30
0.0
 10
5.926667
 20
149.577781
 30
0.0
  0
LWPOLYLINE
  5
1da
100
AcDbEntity
  8
0
 62
7
100
AcDbPolyline
 90
2
 70
1
 10
121.637778
 20
104.422228
 30
0.0
 10
121.637778
 20
104.422228
 30
0.0
  0
SPLINE
  5
1db
100
AcDbEntity
  8
0
 62
7
100
AcDbSpline
 70
8
 71
3
 72
8
 73
4
 74
0
 40
0
 40
0
 40
0
 40
0
 40
1
 40
1
 40
1
 40
1
 10
121.637778
 20
149.577781
 30
0.0
 10
121.637778
 20
149.421912
 30
0.0
 10
121.511421
 20
149.295556
 30
0.0
 10
121.355556
 20
149.295556
 30
0.0
  0
SPLINE
  5
1dc
100
AcDbEntity
  8
0
 62
7
100
AcDbSpline
 70
8
 71
3
 72
8
 73
4
 74
0
 40
0
 40
0
 40
0
 40
0
 40
1
 40
1
 40
1
 40
1
 10
121.355556
 20
149.295556
 30
0.0
 10
121.199687
 20
149.295556
 30
0.0
 10
121.073333
 20
149.421912
 30
0.0
 10
121.073333
 20
149.577781
 30
0.0
  0
SPLINE
  5
1dd
100
AcDbEntity
  8
0
 62
7
100
AcDbSpline
 70
8
 71
3
 72
8
 73
4
 74
0
 40
0
 40
0
 40
0
 40
0
 40
1
 40
1
 40
1
 40
1
 10
121.073333
 20
149.577781
 30
0.0
 10
121.073333
 20
149.733652
 30
0.0
 10
121.199687
 20
149.860008
 30
0.0
 10
121.355556
 20
149.860008
 30
0.0
  0
SPLINE
  5
1de
100
AcDbEntity
  8
0
 62
7
100
AcDbSpline
 70
8
 71
3
 72
8
 73
4
 74
0
 40
0
 40
0
 40
0
 40
0
 40
1
 40
1
 40
1
 40
1
 10
121.355556
 20
149.860008
 30
0.0
 10
121.511421
 20
149.860008
 30
0.0
 10
121.637778
 20
149.733652
 30
0.0
 10
121.637778
 20
149.577781
 30
0.0
  0
LWPOLYLINE
  5
1df
100
AcDbEntity
  8
0
 62
7
100
AcDbPolyline
 90
2
 70
1
 10
5.926667
 20
149.577781
 30
0.0
 10
5.926667
 20
149.577781
 30
0.0
  0
SPLINE
  5
1e0
100
AcDbEntity
  8
0
 62
7
100
AcDbSpline
 70
8
 71
3
 72
8
 73
4
 74
0
 40
0
 40
0
 40
0
 40
0
 40
1
 40
1
 40
1
 40
1
 10
121.637778
 20
22.577781
 30
0.0
 10
121.637778
 20
22.421912
 30
0.0
 10
121.511421
 20
22.295556
 30
0.0
 10
121.355556
 20
22.295556
 30
0.0
  0
SPLINE
  5
1e1
100
AcDbEntity
  8
0
 62
7
100
AcDbSpline
 70
8
 71
3
 72
8
 73
4
 74
0
 40
0
 40
0
 40
0
 40
0
 40
1
 40
1
 40
1
 40
1
 10
121.355556
 20
22.295556
 30
0.0
 10
121.199687
 20
22.295556
 30
0.0
 10
121.073333
 20
22.421912
 30
0.0
 10
121.073333
 20
22.577781
 30
0.0
  0
SPLINE
  5
1e2
100
AcDbEntity
  8
0
 62
7
100
AcDbSpline
 70
8
 71
3
 72
8
 73
4
 74
0
 40
0
 40
0
 40
0
 40
0
 40
1
 40
1
 40
1
 40
1
 10
121.073333
 20
22.577781
 30
0.0
 10
121.073333
 20
22.733652
 30
0.0
 10
121.199687
 20
22.860008
 30
0.0
 10
121.355556
 20
22.860008
 30
0.0
  0
SPLINE
  5
1e3
100
AcDbEntity
  8
0
 62
7
100
AcDbSpline
 70
8
 71
3
 72
8
 73
4
 74
0
 40
0
 40
0
 40
0
 40
0
 40
1
 40
1
 40
1
 40
1
 10
121.355556
 20
22.860008
 30
0.0
 10
121.511421
 20
22.860008
 30
0.0
 10
121.637778
 20
22.733652
 30
0.0
 10
121.637778
 20
22.577781
 30
0.0
  0
LWPOLYLINE
  5
1e4
100
AcDbEntity
  8
0
 62
7
100
AcDbPolyline
 90
2
 70
1
 10
121.637778
 20
149.577781
 30
0.0
 10
121.637778
 20
149.577781
 30
0.0
  0
LWPOLYLINE
  5
1e5
100
AcDbEntity
  8
0
 62
7
100
AcDbPolyline
 90
2
 70
1
 10
121.637778
 20
22.577781
 30
0.0
 10
121.637778
 20
22.577781
 30
0.0
  0
ENDSEC
  0
SECTION
  2
OBJECTS
  0
DICTIONARY
  5
C
330
0
100
AcDbDictionary
  3
ACAD_GROUP
350
D
  3
ACAD_MLINESTYLE
350
17
  0
DICTIONARY
  5
D
330
C
100
AcDbDictionary
  0
DICTIONARY
  5
1A
330
C
100
AcDbDictionary
  0
DICTIONARY
  5
17
330
C
100
AcDbDictionary
  3
STANDARD
350
18
  0
DICTIONARY
  5
19
330
C
100
AcDbDictionary
  0
ENDSEC
  0
EOF
