  0
SECTION
  2
HEADER
  9
$ACADVER
  1
AC1014
  9
$HANDSEED
  5
FFFF
  9
$MEASUREMENT
 70
     1
  0
ENDSEC
  0
SECTION
  2
TABLES
  0
TABLE
  2
VPORT
  5
8
330
0
100
AcDbSymbolTable
 70
     4
  0
VPORT
  5
2E
330
8
100
AcDbSymbolTableRecord
100
AcDbViewportTableRecord
  2
*ACTIVE
 70
     0
 10
0.0
 20
0.0
 11
1.0
 21
1.0
 12
210.0
 22
148.5
 13
0.0
 23
0.0
 14
10.0
 24
10.0
 15
10.0
 25
10.0
 16
0.0
 26
0.0
 36
1.0
 17
0.0
 27
0.0
 37
0.0
 40
341.0
 41
1.24
 42
50.0
 43
0.0
 44
0.0
 50
0.0
 51
0.0
 71
     0
 72
   100
 73
     1
 74
     3
 75
     0
 76
     0
 77
     0
 78
     0
  0
ENDTAB
  0
TABLE
  2
LTYPE
  5
5
330
0
100
AcDbSymbolTable
 70
     1
  0
LTYPE
  5
14
330
5
100
AcDbSymbolTableRecord
100
AcDbLinetypeTableRecord
  2
BYBLOCK
 70
     0
  3

 72
    65
 73
     0
 40
0.0
  0
LTYPE
  5
15
330
5
100
AcDbSymbolTableRecord
100
AcDbLinetypeTableRecord
  2
BYLAYER
 70
     0
  3

 72
    65
 73
     0
 40
0.0
  0
LTYPE
  5
16
330
5
100
AcDbSymbolTableRecord
100
AcDbLinetypeTableRecord
  2
CONTINUOUS
 70
     0
  3
Solid line
 72
    65
 73
     0
 40
0.0
  0
ENDTAB
  0
TABLE
  2
LAYER
  5
2
100
AcDbSymbolTable
 70
1
  0
LAYER
  5
50
100
AcDbSymbolTableRecord
100
AcDbLayerTableRecord
  2
0
 70
0
  6
CONTINUOUS
  0
ENDTAB
  0
TABLE
  2
STYLE
  5
3
330
0
100
AcDbSymbolTable
 70
     1
  0
STYLE
  5
11
330
3
100
AcDbSymbolTableRecord
100
AcDbTextStyleTableRecord
  2
STANDARD
 70
     0
 40
0.0
 41
1.0
 50
0.0
 71
     0
 42
2.5
  3
txt
  4

  0
ENDTAB
  0
TABLE
  2
VIEW
  5
6
330
0
100
AcDbSymbolTable
 70
     0
  0
ENDTAB
  0
TABLE
  2
UCS
  5
7
330
0
100
AcDbSymbolTable
 70
     0
  0
ENDTAB
  0
TABLE
  2
APPID
  5
9
330
0
100
AcDbSymbolTable
 70
     2
  0
APPID
  5
12
330
9
100
AcDbSymbolTableRecord
100
AcDbRegAppTableRecord
  2
ACAD
 70
     0
  0
ENDTAB
  0
TABLE
  2
DIMSTYLE
  5
A
330
0
100
AcDbSymbolTable
 70
     1
  0
DIMSTYLE
105
27
330
A
100
AcDbSymbolTableRecord
100
AcDbDimStyleTableRecord
  2
ISO-25
 70
     0
  3

  4

  5

  6

  7

 40
1.0
 41
2.5
 42
0.625
 43
3.75
 44
1.25
 45
0.0
 46
0.0
 47
0.0
 48
0.0
140
2.5
141
2.5
142
0.0
143
0.03937007874016
144
1.0
145
0.0
146
1.0
147
0.625
 71
     0
 72
     0
 73
     0
 74
     0
 75
     0
 76
     0
 77
     1
 78
     8
170
     0
171
     3
172
     1
173
     0
174
     0
175
     0
176
     0
177
     0
178
     0
270
     2
271
     2
272
     2
273
     2
274
     3
340
11
275
     0
280
     0
281
     0
282
     0
283
     0
284
     8
285
     0
286
     0
287
     3
288
     0
  0
ENDTAB
  0
TABLE
  2
BLOCK_RECORD
  5
1
330
0
100
AcDbSymbolTable
 70
     1
  0
BLOCK_RECORD
  5
1F
330
1
100
AcDbSymbolTableRecord
100
AcDbBlockTableRecord
  2
*MODEL_SPACE
  0
BLOCK_RECORD
  5
1B
330
1
100
AcDbSymbolTableRecord
100
AcDbBlockTableRecord
  2
*PAPER_SPACE
  0
ENDTAB
  0
ENDSEC
  0
SECTION
  2
BLOCKS
  0
BLOCK
  5
20
330
1F
100
AcDbEntity
  8
0
100
AcDbBlockBegin
  2
*MODEL_SPACE
 70
     0
 10
0.0
 20
0.0
 30
0.0
  3
*MODEL_SPACE
  1

  0
ENDBLK
  5
21
330
1F
100
AcDbEntity
  8
0
100
AcDbBlockEnd
  0
BLOCK
  5
1C
330
1B
100
AcDbEntity
 67
     1
  8
0
100
AcDbBlockBegin
  2
*PAPER_SPACE
  1

  0
ENDBLK
  5
1D
330
1B
100
AcDbEntity
 67
     1
  8
0
100
AcDbBlockEnd
  0
ENDSEC
  0
SECTION
  2
ENTITIES
  0
SPLINE
  5
100
100
AcDbEntity
  8
0
 62
7
100
AcDbSpline
 70
8
 71
3
 72
8
 73
4
 74
0
 40
0
 40
0
 40
0
 40
0
 40
1
 40
1
 40
1
 40
1
 10
114.976281
 20
126.953922
 30
0.0
 10
121.637998
 20
126.953922
 30
0.0
 10
127.000000
 20
121.591493
 30
0.0
 10
127.000000
 20
114.932325
 30
0.0
  0
SPLINE
  5
101
100
AcDbEntity
  8
0
 62
7
100
AcDbSpline
 70
8
 71
3
 72
8
 73
4
 74
0
 40
0
 40
0
 40
0
 40
0
 40
1
 40
1
 40
1
 40
1
 10
127.000000
 20
12.019150
 30
0.0
 10
127.000000
 20
5.359953
 30
0.0
 10
121.637998
 20
0.000006
 30
0.0
 10
114.976281
 20
0.000006
 30
0.0
  0
LWPOLYLINE
  5
102
100
AcDbEntity
  8
0
 62
7
100
AcDbPolyline
 90
2
 70
0
 10
127.000000
 20
114.932325
 30
0.0
 10
127.000000
 20
12.019150
 30
0.0
  0
SPLINE
  5
103
100
AcDbEntity
  8
0
 62
7
100
AcDbSpline
 70
8
 71
3
 72
8
 73
4
 74
0
 40
0
 40
0
 40
0
 40
0
 40
1
 40
1
 40
1
 40
1
 10
12.023712
 20
0.000006
 30
0.0
 10
5.361991
 20
0.000006
 30
0.0
 10
0.000000
 20
5.359953
 30
0.0
 10
0.000000
 20
12.019150
 30
0.0
  0
LWPOLYLINE
  5
104
100
AcDbEntity
  8
0
 62
7
100
AcDbPolyline
 90
2
 70
0
 10
114.976281
 20
0.000006
 30
0.0
 10
12.023712
 20
0.000006
 30
0.0
  0
SPLINE
  5
105
100
AcDbEntity
  8
0
 62
7
100
AcDbSpline
 70
8
 71
3
 72
8
 73
4
 74
0
 40
0
 40
0
 40
0
 40
0
 40
1
 40
1
 40
1
 40
1
 10
0.000000
 20
114.932325
 30
0.0
 10
0.000000
 20
121.591493
 30
0.0
 10
5.361991
 20
126.953922
 30
0.0
 10
12.023712
 20
126.953922
 30
0.0
  0
LWPOLYLINE
  5
106
100
AcDbEntity
  8
0
 62
7
100
AcDbPolyline
 90
2
 70
0
 10
0.000000
 20
12.019150
 30
0.0
 10
0.000000
 20
114.932325
 30
0.0
  0
SPLINE
  5
107
100
AcDbEntity
  8
0
 62
7
100
AcDbSpline
 70
8
 71
3
 72
8
 73
4
 74
0
 40
0
 40
0
 40
0
 40
0
 40
1
 40
1
 40
1
 40
1
 10
114.976281
 20
127.048545
 30
0.0
 10
121.637998
 20
127.048545
 30
0.0
 10
127.000000
 20
132.408490
 30
0.0
 10
127.000000
 20
139.067659
 30
0.0
  0
LWPOLYLINE
  5
108
100
AcDbEntity
  8
0
 62
7
100
AcDbPolyline
 90
2
 70
0
 10
12.023712
 20
126.953922
 30
0.0
 10
114.976281
 20
127.048545
 30
0.0
  0
SPLINE
  5
109
100
AcDbEntity
  8
0
 62
7
100
AcDbSpline
 70
8
 71
3
 72
8
 73
4
 74
0
 40
0
 40
0
 40
0
 40
0
 40
1
 40
1
 40
1
 40
1
 10
127.000000
 20
241.980890
 30
0.0
 10
127.000000
 20
248.640087
 30
0.0
 10
121.638006
 20
254.000006
 30
0.0
 10
114.976281
 20
254.000006
 30
0.0
  0
LWPOLYLINE
  5
10a
100
AcDbEntity
  8
0
 62
7
100
AcDbPolyline
 90
2
 70
0
 10
127.000000
 20
139.067659
 30
0.0
 10
127.000000
 20
241.980890
 30
0.0
  0
SPLINE
  5
10b
100
AcDbEntity
  8
0
 62
7
100
AcDbSpline
 70
8
 71
3
 72
8
 73
4
 74
0
 40
0
 40
0
 40
0
 40
0
 40
1
 40
1
 40
1
 40
1
 10
12.023712
 20
254.000006
 30
0.0
 10
5.361991
 20
254.000006
 30
0.0
 10
0.000000
 20
248.640087
 30
0.0
 10
0.000000
 20
241.980890
 30
0.0
  0
LWPOLYLINE
  5
10c
100
AcDbEntity
  8
0
 62
7
100
AcDbPolyline
 90
2
 70
0
 10
114.976281
 20
254.000006
 30
0.0
 10
12.023712
 20
254.000006
 30
0.0
  0
SPLINE
  5
10d
100
AcDbEntity
  8
0
 62
7
100
AcDbSpline
 70
8
 71
3
 72
8
 73
4
 74
0
 40
0
 40
0
 40
0
 40
0
 40
1
 40
1
 40
1
 40
1
 10
0.000000
 20
139.067659
 30
0.0
 10
0.000000
 20
132.408490
 30
0.0
 10
5.361991
 20
127.048545
 30
0.0
 10
12.023712
 20
127.048545
 30
0.0
  0
SPLINE
  5
10e
100
AcDbEntity
  8
0
 62
7
100
AcDbSpline
 70
8
 71
3
 72
8
 73
4
 74
0
 40
0
 40
0
 40
0
 40
0
 40
1
 40
1
 40
1
 40
1
 10
17.085491
 20
165.119682
 30
0.0
 10
17.085491
 20
165.119682
 30
0.0
 10
16.980304
 20
165.487833
 30
0.0
 10
16.980304
 20
165.855985
 30
0.0
  0
SPLINE
  5
10f
100
AcDbEntity
  8
0
 62
7
100
AcDbSpline
 70
8
 71
3
 72
8
 73
4
 74
0
 40
0
 40
0
 40
0
 40
0
 40
1
 40
1
 40
1
 40
1
 10
16.980304
 20
165.855985
 30
0.0
 10
16.980304
 20
166.224136
 30
0.0
 10
16.822525
 20
166.381915
 30
0.0
 10
17.085491
 20
167.170812
 30
0.0
  0
SPLINE
  5
110
100
AcDbEntity
  8
0
 62
7
100
AcDbSpline
 70
8
 71
3
 72
8
 73
4
 74
0
 40
0
 40
0
 40
0
 40
0
 40
1
 40
1
 40
1
 40
1
 10
17.085491
 20
167.170812
 30
0.0
 10
17.348456
 20
167.959708
 30
0.0
 10
17.821794
 20
169.274535
 30
0.0
 10
18.242538
 20
169.905652
 30
0.0
  0
SPLINE
  5
111
100
AcDbEntity
  8
0
 62
7
100
AcDbSpline
 70
8
 71
3
 72
8
 73
4
 74
0
 40
0
 40
0
 40
0
 40
0
 40
1
 40
1
 40
1
 40
1
 10
18.242538
 20
169.905652
 30
0.0
 10
18.663283
 20
170.536769
 30
0.0
 10
19.662551
 20
172.377526
 30
0.0
 10
19.662551
 20
172.377526
 30
0.0
  0
LWPOLYLINE
  5
112
100
AcDbEntity
  8
0
 62
7
100
AcDbPolyline
 90
2
 70
0
 10
0.000000
 20
241.980890
 30
0.0
 10
0.000000
 20
139.067659
 30
0.0
  0
SPLINE
  5
113
100
AcDbEntity
  8
0
 62
7
100
AcDbSpline
 70
8
 71
3
 72
8
 73
4
 74
0
 40
0
 40
0
 40
0
 40
0
 40
1
 40
1
 40
1
 40
1
 10
20.802033
 20
174.200718
 30
0.0
 10
21.012405
 20
174.516276
 30
0.0
 10
21.257910
 20
175.357766
 30
0.0
 10
21.678654
 20
175.988883
 30
0.0
  0
SPLINE
  5
114
100
AcDbEntity
  8
0
 62
7
100
AcDbSpline
 70
8
 71
3
 72
8
 73
4
 74
0
 40
0
 40
0
 40
0
 40
0
 40
1
 40
1
 40
1
 40
1
 10
21.678654
 20
175.988883
 30
0.0
 10
22.099399
 20
176.620000
 30
0.0
 10
22.449985
 20
177.531648
 30
0.0
 10
23.010942
 20
178.513350
 30
0.0
  0
SPLINE
  5
115
100
AcDbEntity
  8
0
 62
7
100
AcDbSpline
 70
8
 71
3
 72
8
 73
4
 74
0
 40
0
 40
0
 40
0
 40
0
 40
1
 40
1
 40
1
 40
1
 10
23.010942
 20
178.513350
 30
0.0
 10
23.572005
 20
179.495158
 30
0.0
 10
24.904293
 20
181.248190
 30
0.0
 10
25.430224
 20
181.598881
 30
0.0
  0
SPLINE
  5
116
100
AcDbEntity
  8
0
 62
7
100
AcDbSpline
 70
8
 71
3
 72
8
 73
4
 74
0
 40
0
 40
0
 40
0
 40
0
 40
1
 40
1
 40
1
 40
1
 10
25.430224
 20
181.598881
 30
0.0
 10
25.956155
 20
181.949466
 30
0.0
 10
27.604106
 20
182.265025
 30
0.0
 10
28.024851
 20
182.265025
 30
0.0
  0
SPLINE
  5
117
100
AcDbEntity
  8
0
 62
7
100
AcDbSpline
 70
8
 71
3
 72
8
 73
4
 74
0
 40
0
 40
0
 40
0
 40
0
 40
1
 40
1
 40
1
 40
1
 10
28.024851
 20
182.265025
 30
0.0
 10
28.445595
 20
182.265025
 30
0.0
 10
29.497457
 20
181.774121
 30
0.0
 10
29.672802
 20
181.774121
 30
0.0
  0
SPLINE
  5
118
100
AcDbEntity
  8
0
 62
7
100
AcDbSpline
 70
8
 71
3
 72
8
 73
4
 74
0
 40
0
 40
0
 40
0
 40
0
 40
1
 40
1
 40
1
 40
1
 10
29.672802
 20
181.774121
 30
0.0
 10
29.848042
 20
181.774121
 30
0.0
 10
30.829850
 20
181.949466
 30
0.0
 10
31.005090
 20
181.984493
 30
0.0
  0
SPLINE
  5
119
100
AcDbEntity
  8
0
 62
7
100
AcDbSpline
 70
8
 71
3
 72
8
 73
4
 74
0
 40
0
 40
0
 40
0
 40
0
 40
1
 40
1
 40
1
 40
1
 10
31.005090
 20
181.984493
 30
0.0
 10
31.180435
 20
182.019626
 30
0.0
 10
31.706366
 20
181.704067
 30
0.0
 10
31.881712
 20
181.633908
 30
0.0
  0
SPLINE
  5
11a
100
AcDbEntity
  8
0
 62
7
100
AcDbSpline
 70
8
 71
3
 72
8
 73
4
 74
0
 40
0
 40
0
 40
0
 40
0
 40
1
 40
1
 40
1
 40
1
 10
31.881712
 20
181.633908
 30
0.0
 10
32.056952
 20
181.563749
 30
0.0
 10
33.459504
 20
181.879307
 30
0.0
 10
34.265861
 20
182.194866
 30
0.0
  0
SPLINE
  5
11b
100
AcDbEntity
  8
0
 62
7
100
AcDbSpline
 70
8
 71
3
 72
8
 73
4
 74
0
 40
0
 40
0
 40
0
 40
0
 40
1
 40
1
 40
1
 40
1
 10
34.265861
 20
182.194866
 30
0.0
 10
35.072323
 20
182.510424
 30
0.0
 10
35.633281
 20
184.298589
 30
0.0
 10
36.264398
 20
185.034892
 30
0.0
  0
SPLINE
  5
11c
100
AcDbEntity
  8
0
 62
7
100
AcDbSpline
 70
8
 71
3
 72
8
 73
4
 74
0
 40
0
 40
0
 40
0
 40
0
 40
1
 40
1
 40
1
 40
1
 10
36.264398
 20
185.034892
 30
0.0
 10
36.895515
 20
185.771195
 30
0.0
 10
37.737004
 20
187.910050
 30
0.0
 10
37.772136
 20
188.050263
 30
0.0
  0
SPLINE
  5
11d
100
AcDbEntity
  8
0
 62
7
100
AcDbSpline
 70
8
 71
3
 72
8
 73
4
 74
0
 40
0
 40
0
 40
0
 40
0
 40
1
 40
1
 40
1
 40
1
 10
37.772136
 20
188.050263
 30
0.0
 10
37.807163
 20
188.190477
 30
0.0
 10
37.701977
 20
189.031966
 30
0.0
 10
37.807163
 20
189.067098
 30
0.0
  0
SPLINE
  5
11e
100
AcDbEntity
  8
0
 62
7
100
AcDbSpline
 70
8
 71
3
 72
8
 73
4
 74
0
 40
0
 40
0
 40
0
 40
0
 40
1
 40
1
 40
1
 40
1
 10
37.807163
 20
189.067098
 30
0.0
 10
37.912349
 20
189.102125
 30
0.0
 10
38.578493
 20
191.521407
 30
0.0
 10
38.683679
 20
191.696752
 30
0.0
  0
SPLINE
  5
11f
100
AcDbEntity
  8
0
 62
7
100
AcDbSpline
 70
8
 71
3
 72
8
 73
4
 74
0
 40
0
 40
0
 40
0
 40
0
 40
1
 40
1
 40
1
 40
1
 10
38.683679
 20
191.696752
 30
0.0
 10
38.788866
 20
191.871992
 30
0.0
 10
38.894052
 20
192.853800
 30
0.0
 10
39.104424
 20
193.449784
 30
0.0
  0
SPLINE
  5
120
100
AcDbEntity
  8
0
 62
7
100
AcDbSpline
 70
8
 71
3
 72
8
 73
4
 74
0
 40
0
 40
0
 40
0
 40
0
 40
1
 40
1
 40
1
 40
1
 10
39.104424
 20
193.449784
 30
0.0
 10
39.314796
 20
194.045874
 30
0.0
 10
40.962748
 20
195.939225
 30
0.0
 10
41.558838
 20
197.061246
 30
0.0
  0
SPLINE
  5
121
100
AcDbEntity
  8
0
 62
7
100
AcDbSpline
 70
8
 71
3
 72
8
 73
4
 74
0
 40
0
 40
0
 40
0
 40
0
 40
1
 40
1
 40
1
 40
1
 10
41.558838
 20
197.061246
 30
0.0
 10
41.572302
 20
197.086596
 30
0.0
 10
41.584503
 20
197.113734
 30
0.0
 10
41.597652
 20
197.139715
 30
0.0
  0
SPLINE
  5
122
100
AcDbEntity
  8
0
 62
7
100
AcDbSpline
 70
8
 71
3
 72
8
 73
4
 74
0
 40
0
 40
0
 40
0
 40
0
 40
1
 40
1
 40
1
 40
1
 10
41.597652
 20
197.139715
 30
0.0
 10
40.093490
 20
197.751688
 30
0.0
 10
37.912349
 20
199.199996
 30
0.0
 10
37.912349
 20
199.199996
 30
0.0
  0
SPLINE
  5
123
100
AcDbEntity
  8
0
 62
7
100
AcDbSpline
 70
8
 71
3
 72
8
 73
4
 74
0
 40
0
 40
0
 40
0
 40
0
 40
1
 40
1
 40
1
 40
1
 10
37.912349
 20
199.199996
 30
0.0
 10
37.912349
 20
199.199996
 30
0.0
 10
40.962748
 20
201.514091
 30
0.0
 10
42.750913
 20
201.829650
 30
0.0
  0
LWPOLYLINE
  5
124
100
AcDbEntity
  8
0
 62
7
100
AcDbPolyline
 90
2
 70
0
 10
19.662551
 20
172.377526
 30
0.0
 10
20.802033
 20
174.200718
 30
0.0
  0
SPLINE
  5
125
100
AcDbEntity
  8
0
 62
7
100
AcDbSpline
 70
8
 71
3
 72
8
 73
4
 74
0
 40
0
 40
0
 40
0
 40
0
 40
1
 40
1
 40
1
 40
1
 10
44.628591
 20
201.926737
 30
0.0
 10
44.633324
 20
201.929997
 30
0.0
 10
44.638268
 20
201.933363
 30
0.0
 10
44.642896
 20
201.936624
 30
0.0
  0
SPLINE
  5
126
100
AcDbEntity
  8
0
 62
7
100
AcDbSpline
 70
8
 71
3
 72
8
 73
4
 74
0
 40
0
 40
0
 40
0
 40
0
 40
1
 40
1
 40
1
 40
1
 10
44.642896
 20
201.936624
 30
0.0
 10
45.034399
 20
202.203692
 30
0.0
 10
45.364157
 20
202.414800
 30
0.0
 10
45.485753
 20
202.495794
 30
0.0
  0
SPLINE
  5
127
100
AcDbEntity
  8
0
 62
7
100
AcDbSpline
 70
8
 71
3
 72
8
 73
4
 74
0
 40
0
 40
0
 40
0
 40
0
 40
1
 40
1
 40
1
 40
1
 10
45.485753
 20
202.495794
 30
0.0
 10
45.485753
 20
202.495794
 30
0.0
 10
47.799848
 20
203.793160
 30
0.0
 10
49.237427
 20
204.178772
 30
0.0
  0
SPLINE
  5
128
100
AcDbEntity
  8
0
 62
7
100
AcDbSpline
 70
8
 71
3
 72
8
 73
4
 74
0
 40
0
 40
0
 40
0
 40
0
 40
1
 40
1
 40
1
 40
1
 10
49.237427
 20
204.178772
 30
0.0
 10
50.674901
 20
204.564490
 30
0.0
 10
53.444873
 20
204.915075
 30
0.0
 10
54.040858
 20
205.055394
 30
0.0
  0
SPLINE
  5
129
100
AcDbEntity
  8
0
 62
7
100
AcDbSpline
 70
8
 71
3
 72
8
 73
4
 74
0
 40
0
 40
0
 40
0
 40
0
 40
1
 40
1
 40
1
 40
1
 10
54.040858
 20
205.055394
 30
0.0
 10
54.636948
 20
205.195607
 30
0.0
 10
57.512001
 20
205.125448
 30
0.0
 10
58.178250
 20
205.125448
 30
0.0
  0
SPLINE
  5
12a
100
AcDbEntity
  8
0
 62
7
100
AcDbSpline
 70
8
 71
3
 72
8
 73
4
 74
0
 40
0
 40
0
 40
0
 40
0
 40
1
 40
1
 40
1
 40
1
 10
58.178250
 20
205.125448
 30
0.0
 10
58.844394
 20
205.125448
 30
0.0
 10
60.597532
 20
204.845021
 30
0.0
 10
61.439021
 20
204.774862
 30
0.0
  0
SPLINE
  5
12b
100
AcDbEntity
  8
0
 62
7
100
AcDbSpline
 70
8
 71
3
 72
8
 73
4
 74
0
 40
0
 40
0
 40
0
 40
0
 40
1
 40
1
 40
1
 40
1
 10
61.439021
 20
204.774862
 30
0.0
 10
62.280510
 20
204.704703
 30
0.0
 10
63.262213
 20
204.424277
 30
0.0
 10
63.928357
 20
204.248931
 30
0.0
  0
SPLINE
  5
12c
100
AcDbEntity
  8
0
 62
7
100
AcDbSpline
 70
8
 71
3
 72
8
 73
4
 74
0
 40
0
 40
0
 40
0
 40
0
 40
1
 40
1
 40
1
 40
1
 10
63.928357
 20
204.248931
 30
0.0
 10
64.594606
 20
204.073586
 30
0.0
 10
68.240989
 20
202.530926
 30
0.0
 10
69.047451
 20
202.250394
 30
0.0
  0
SPLINE
  5
12d
100
AcDbEntity
  8
0
 62
7
100
AcDbSpline
 70
8
 71
3
 72
8
 73
4
 74
0
 40
0
 40
0
 40
0
 40
0
 40
1
 40
1
 40
1
 40
1
 10
69.047451
 20
202.250394
 30
0.0
 10
69.853914
 20
201.969863
 30
0.0
 10
70.625244
 20
201.864677
 30
0.0
 10
71.326520
 20
201.619278
 30
0.0
  0
SPLINE
  5
12e
100
AcDbEntity
  8
0
 62
7
100
AcDbSpline
 70
8
 71
3
 72
8
 73
4
 74
0
 40
0
 40
0
 40
0
 40
0
 40
1
 40
1
 40
1
 40
1
 10
71.326520
 20
201.619278
 30
0.0
 10
72.027691
 20
201.373878
 30
0.0
 10
75.253435
 20
199.866140
 30
0.0
 10
76.165083
 20
199.515554
 30
0.0
  0
SPLINE
  5
12f
100
AcDbEntity
  8
0
 62
7
100
AcDbSpline
 70
8
 71
3
 72
8
 73
4
 74
0
 40
0
 40
0
 40
0
 40
0
 40
1
 40
1
 40
1
 40
1
 10
76.165083
 20
199.515554
 30
0.0
 10
77.076626
 20
199.164969
 30
0.0
 10
83.983885
 20
196.465156
 30
0.0
 10
83.983885
 20
196.465156
 30
0.0
  0
SPLINE
  5
130
100
AcDbEntity
  8
0
 62
7
100
AcDbSpline
 70
8
 71
3
 72
8
 73
4
 74
0
 40
0
 40
0
 40
0
 40
0
 40
1
 40
1
 40
1
 40
1
 10
83.983885
 20
196.465156
 30
0.0
 10
83.983885
 20
196.465156
 30
0.0
 10
84.615002
 20
196.324943
 30
0.0
 10
84.860402
 20
196.289811
 30
0.0
  0
SPLINE
  5
131
100
AcDbEntity
  8
0
 62
7
100
AcDbSpline
 70
8
 71
3
 72
8
 73
4
 74
0
 40
0
 40
0
 40
0
 40
0
 40
1
 40
1
 40
1
 40
1
 10
84.860402
 20
196.289811
 30
0.0
 10
85.105906
 20
196.254784
 30
0.0
 10
86.333008
 20
195.799012
 30
0.0
 10
86.508353
 20
195.728853
 30
0.0
  0
SPLINE
  5
132
100
AcDbEntity
  8
0
 62
7
100
AcDbSpline
 70
8
 71
3
 72
8
 73
4
 74
0
 40
0
 40
0
 40
0
 40
0
 40
1
 40
1
 40
1
 40
1
 10
86.508353
 20
195.728853
 30
0.0
 10
86.683699
 20
195.658694
 30
0.0
 10
88.314084
 20
195.465887
 30
0.0
 10
88.875042
 20
195.360701
 30
0.0
  0
SPLINE
  5
133
100
AcDbEntity
  8
0
 62
7
100
AcDbSpline
 70
8
 71
3
 72
8
 73
4
 74
0
 40
0
 40
0
 40
0
 40
0
 40
1
 40
1
 40
1
 40
1
 10
88.875042
 20
195.360701
 30
0.0
 10
89.435999
 20
195.255515
 30
0.0
 10
91.101517
 20
194.361433
 30
0.0
 10
91.101517
 20
194.361433
 30
0.0
  0
SPLINE
  5
134
100
AcDbEntity
  8
0
 62
7
100
AcDbSpline
 70
8
 71
3
 72
8
 73
4
 74
0
 40
0
 40
0
 40
0
 40
0
 40
1
 40
1
 40
1
 40
1
 10
91.101517
 20
194.361433
 30
0.0
 10
91.101517
 20
194.361433
 30
0.0
 10
91.978033
 20
194.712018
 30
0.0
 10
92.258565
 20
194.747150
 30
0.0
  0
SPLINE
  5
135
100
AcDbEntity
  8
0
 62
7
100
AcDbSpline
 70
8
 71
3
 72
8
 73
4
 74
0
 40
0
 40
0
 40
0
 40
0
 40
1
 40
1
 40
1
 40
1
 10
92.258565
 20
194.747150
 30
0.0
 10
92.538991
 20
194.782177
 30
0.0
 10
93.345453
 20
194.606832
 30
0.0
 10
93.345453
 20
194.606832
 30
0.0
  0
SPLINE
  5
136
100
AcDbEntity
  8
0
 62
7
100
AcDbSpline
 70
8
 71
3
 72
8
 73
4
 74
0
 40
0
 40
0
 40
0
 40
0
 40
1
 40
1
 40
1
 40
1
 10
93.345453
 20
194.606832
 30
0.0
 10
93.345453
 20
194.606832
 30
0.0
 10
93.625985
 20
194.887364
 30
0.0
 10
93.766198
 20
195.027577
 30
0.0
  0
SPLINE
  5
137
100
AcDbEntity
  8
0
 62
7
100
AcDbSpline
 70
8
 71
3
 72
8
 73
4
 74
0
 40
0
 40
0
 40
0
 40
0
 40
1
 40
1
 40
1
 40
1
 10
93.766198
 20
195.027577
 30
0.0
 10
93.906411
 20
195.167895
 30
0.0
 10
94.677846
 20
195.623667
 30
0.0
 10
94.677846
 20
195.623667
 30
0.0
  0
SPLINE
  5
138
100
AcDbEntity
  8
0
 62
7
100
AcDbSpline
 70
8
 71
3
 72
8
 73
4
 74
0
 40
0
 40
0
 40
0
 40
0
 40
1
 40
1
 40
1
 40
1
 10
94.677846
 20
195.623667
 30
0.0
 10
95.449176
 20
195.939225
 30
0.0
 10
96.010134
 20
196.815741
 30
0.0
 10
96.010134
 20
196.815741
 30
0.0
  0
LWPOLYLINE
  5
139
100
AcDbEntity
  8
0
 62
7
100
AcDbPolyline
 90
2
 70
0
 10
42.750913
 20
201.829650
 30
0.0
 10
44.628591
 20
201.926737
 30
0.0
  0
SPLINE
  5
13a
100
AcDbEntity
  8
0
 62
7
100
AcDbSpline
 70
8
 71
3
 72
8
 73
4
 74
0
 40
0
 40
0
 40
0
 40
0
 40
1
 40
1
 40
1
 40
1
 10
96.851623
 20
197.166432
 30
0.0
 10
96.851623
 20
197.166432
 30
0.0
 10
96.651665
 20
197.800284
 30
0.0
 10
96.711410
 20
198.218294
 30
0.0
  0
SPLINE
  5
13b
100
AcDbEntity
  8
0
 62
7
100
AcDbSpline
 70
8
 71
3
 72
8
 73
4
 74
0
 40
0
 40
0
 40
0
 40
0
 40
1
 40
1
 40
1
 40
1
 10
96.711410
 20
198.218294
 30
0.0
 10
96.816596
 20
198.954597
 30
0.0
 10
97.272368
 20
200.707629
 30
0.0
 10
97.307500
 20
200.988161
 30
0.0
  0
SPLINE
  5
13c
100
AcDbEntity
  8
0
 62
7
100
AcDbSpline
 70
8
 71
3
 72
8
 73
4
 74
0
 40
0
 40
0
 40
0
 40
0
 40
1
 40
1
 40
1
 40
1
 10
97.307500
 20
200.988161
 30
0.0
 10
97.342527
 20
201.268692
 30
0.0
 10
97.202314
 20
202.145208
 30
0.0
 10
97.167182
 20
202.530926
 30
0.0
  0
SPLINE
  5
13d
100
AcDbEntity
  8
0
 62
7
100
AcDbSpline
 70
8
 71
3
 72
8
 73
4
 74
0
 40
0
 40
0
 40
0
 40
0
 40
1
 40
1
 40
1
 40
1
 10
97.167182
 20
202.530926
 30
0.0
 10
97.132155
 20
202.916538
 30
0.0
 10
98.098395
 20
206.862176
 30
0.0
 10
98.343794
 20
207.563452
 30
0.0
  0
SPLINE
  5
13e
100
AcDbEntity
  8
0
 62
7
100
AcDbSpline
 70
8
 71
3
 72
8
 73
4
 74
0
 40
0
 40
0
 40
0
 40
0
 40
1
 40
1
 40
1
 40
1
 10
98.343794
 20
207.563452
 30
0.0
 10
98.589194
 20
208.264623
 30
0.0
 10
99.972181
 20
210.314701
 30
0.0
 10
100.077367
 20
210.489942
 30
0.0
  0
SPLINE
  5
13f
100
AcDbEntity
  8
0
 62
7
100
AcDbSpline
 70
8
 71
3
 72
8
 73
4
 74
0
 40
0
 40
0
 40
0
 40
0
 40
1
 40
1
 40
1
 40
1
 10
100.077367
 20
210.489942
 30
0.0
 10
100.182553
 20
210.665287
 30
0.0
 10
100.287740
 20
211.366563
 30
0.0
 10
100.498112
 20
211.857362
 30
0.0
  0
SPLINE
  5
140
100
AcDbEntity
  8
0
 62
7
100
AcDbSpline
 70
8
 71
3
 72
8
 73
4
 74
0
 40
0
 40
0
 40
0
 40
0
 40
1
 40
1
 40
1
 40
1
 10
100.498112
 20
211.857362
 30
0.0
 10
100.708484
 20
212.348265
 30
0.0
 10
100.463085
 20
213.329968
 30
0.0
 10
100.587836
 20
214.049862
 30
0.0
  0
SPLINE
  5
141
100
AcDbEntity
  8
0
 62
7
100
AcDbSpline
 70
8
 71
3
 72
8
 73
4
 74
0
 40
0
 40
0
 40
0
 40
0
 40
1
 40
1
 40
1
 40
1
 10
100.587836
 20
214.049862
 30
0.0
 10
100.633381
 20
214.312932
 30
0.0
 10
100.848697
 20
214.627334
 30
0.0
 10
100.848697
 20
214.627334
 30
0.0
  0
SPLINE
  5
142
100
AcDbEntity
  8
0
 62
7
100
AcDbSpline
 70
8
 71
3
 72
8
 73
4
 74
0
 40
0
 40
0
 40
0
 40
0
 40
1
 40
1
 40
1
 40
1
 10
100.848697
 20
214.627334
 30
0.0
 10
101.059070
 20
214.697388
 30
0.0
 10
101.620133
 20
214.416962
 30
0.0
 10
102.110931
 20
214.346802
 30
0.0
  0
SPLINE
  5
143
100
AcDbEntity
  8
0
 62
7
100
AcDbSpline
 70
8
 71
3
 72
8
 73
4
 74
0
 40
0
 40
0
 40
0
 40
0
 40
1
 40
1
 40
1
 40
1
 10
102.110931
 20
214.346802
 30
0.0
 10
102.601835
 20
214.276643
 30
0.0
 10
103.112303
 20
213.523931
 30
0.0
 10
103.462889
 20
213.208373
 30
0.0
  0
SPLINE
  5
144
100
AcDbEntity
  8
0
 62
7
100
AcDbSpline
 70
8
 71
3
 72
8
 73
4
 74
0
 40
0
 40
0
 40
0
 40
0
 40
1
 40
1
 40
1
 40
1
 10
103.462889
 20
213.208373
 30
0.0
 10
103.813474
 20
212.892814
 30
0.0
 10
104.725123
 20
210.894277
 30
0.0
 10
104.830309
 20
210.368346
 30
0.0
  0
SPLINE
  5
145
100
AcDbEntity
  8
0
 62
7
100
AcDbSpline
 70
8
 71
3
 72
8
 73
4
 74
0
 40
0
 40
0
 40
0
 40
0
 40
1
 40
1
 40
1
 40
1
 10
104.830309
 20
210.368346
 30
0.0
 10
104.935495
 20
209.842416
 30
0.0
 10
104.819370
 20
207.370331
 30
0.0
 10
104.810744
 20
206.703240
 30
0.0
  0
SPLINE
  5
146
100
AcDbEntity
  8
0
 62
7
100
AcDbSpline
 70
8
 71
3
 72
8
 73
4
 74
0
 40
0
 40
0
 40
0
 40
0
 40
1
 40
1
 40
1
 40
1
 10
104.810744
 20
206.703240
 30
0.0
 10
104.775717
 20
204.003532
 30
0.0
 10
104.179627
 20
201.829650
 30
0.0
 10
104.179627
 20
201.829650
 30
0.0
  0
SPLINE
  5
147
100
AcDbEntity
  8
0
 62
7
100
AcDbSpline
 70
8
 71
3
 72
8
 73
4
 74
0
 40
0
 40
0
 40
0
 40
0
 40
1
 40
1
 40
1
 40
1
 10
104.179627
 20
201.829650
 30
0.0
 10
104.179627
 20
201.829650
 30
0.0
 10
105.321002
 20
202.234511
 30
0.0
 10
105.811801
 20
202.725415
 30
0.0
  0
SPLINE
  5
148
100
AcDbEntity
  8
0
 62
7
100
AcDbSpline
 70
8
 71
3
 72
8
 73
4
 74
0
 40
0
 40
0
 40
0
 40
0
 40
1
 40
1
 40
1
 40
1
 10
105.811801
 20
202.725415
 30
0.0
 10
106.065825
 20
202.979335
 30
0.0
 10
106.061618
 20
202.947568
 30
0.0
 10
106.051205
 20
202.927583
 30
0.0
  0
SPLINE
  5
149
100
AcDbEntity
  8
0
 62
7
100
AcDbSpline
 70
8
 71
3
 72
8
 73
4
 74
0
 40
0
 40
0
 40
0
 40
0
 40
1
 40
1
 40
1
 40
1
 10
106.051205
 20
202.927583
 30
0.0
 10
106.063722
 20
202.946622
 30
0.0
 10
106.103272
 20
203.003107
 30
0.0
 10
106.209615
 20
203.144372
 30
0.0
  0
SPLINE
  5
14a
100
AcDbEntity
  8
0
 62
7
100
AcDbSpline
 70
8
 71
3
 72
8
 73
4
 74
0
 40
0
 40
0
 40
0
 40
0
 40
1
 40
1
 40
1
 40
1
 10
106.209615
 20
203.144372
 30
0.0
 10
106.589863
 20
203.649370
 30
0.0
 10
109.070784
 20
206.839246
 30
0.0
 10
109.596714
 20
207.246737
 30
0.0
  0
SPLINE
  5
14b
100
AcDbEntity
  8
0
 62
7
100
AcDbSpline
 70
8
 71
3
 72
8
 73
4
 74
0
 40
0
 40
0
 40
0
 40
0
 40
1
 40
1
 40
1
 40
1
 10
109.596714
 20
207.246737
 30
0.0
 10
110.122645
 20
207.654228
 30
0.0
 10
110.611971
 20
208.271776
 30
0.0
 10
110.874831
 20
208.475416
 30
0.0
  0
SPLINE
  5
14c
100
AcDbEntity
  8
0
 62
7
100
AcDbSpline
 70
8
 71
3
 72
8
 73
4
 74
0
 40
0
 40
0
 40
0
 40
0
 40
1
 40
1
 40
1
 40
1
 10
110.874831
 20
208.475416
 30
0.0
 10
111.137797
 20
208.679162
 30
0.0
 10
111.842439
 20
209.000716
 30
0.0
 10
112.393299
 20
209.231074
 30
0.0
  0
SPLINE
  5
14d
100
AcDbEntity
  8
0
 62
7
100
AcDbSpline
 70
8
 71
3
 72
8
 73
4
 74
0
 40
0
 40
0
 40
0
 40
0
 40
1
 40
1
 40
1
 40
1
 10
112.393299
 20
209.231074
 30
0.0
 10
112.944159
 20
209.461537
 30
0.0
 10
114.586746
 20
209.015968
 30
0.0
 10
114.586746
 20
209.015968
 30
0.0
  0
SPLINE
  5
14e
100
AcDbEntity
  8
0
 62
7
100
AcDbSpline
 70
8
 71
3
 72
8
 73
4
 74
0
 40
0
 40
0
 40
0
 40
0
 40
1
 40
1
 40
1
 40
1
 10
114.586746
 20
209.015968
 30
0.0
 10
114.586746
 20
209.015968
 30
0.0
 10
114.491762
 20
208.463741
 30
0.0
 10
114.382684
 20
208.351191
 30
0.0
  0
SPLINE
  5
14f
100
AcDbEntity
  8
0
 62
7
100
AcDbSpline
 70
8
 71
3
 72
8
 73
4
 74
0
 40
0
 40
0
 40
0
 40
0
 40
1
 40
1
 40
1
 40
1
 10
114.382684
 20
208.351191
 30
0.0
 10
114.273606
 20
208.238642
 30
0.0
 10
113.909557
 20
207.256098
 30
0.0
 10
113.856754
 20
207.088958
 30
0.0
  0
SPLINE
  5
150
100
AcDbEntity
  8
0
 62
7
100
AcDbSpline
 70
8
 71
3
 72
8
 73
4
 74
0
 40
0
 40
0
 40
0
 40
0
 40
1
 40
1
 40
1
 40
1
 10
113.856754
 20
207.088958
 30
0.0
 10
113.803950
 20
206.921817
 30
0.0
 10
113.348810
 20
205.924968
 30
0.0
 10
113.431276
 20
206.325517
 30
0.0
  0
SPLINE
  5
151
100
AcDbEntity
  8
0
 62
7
100
AcDbSpline
 70
8
 71
3
 72
8
 73
4
 74
0
 40
0
 40
0
 40
0
 40
0
 40
1
 40
1
 40
1
 40
1
 10
113.431276
 20
206.325517
 30
0.0
 10
113.513636
 20
206.725960
 30
0.0
 10
113.137491
 20
205.256299
 30
0.0
 10
113.137491
 20
205.256299
 30
0.0
  0
SPLINE
  5
152
100
AcDbEntity
  8
0
 62
7
100
AcDbSpline
 70
8
 71
3
 72
8
 73
4
 74
0
 40
0
 40
0
 40
0
 40
0
 40
1
 40
1
 40
1
 40
1
 10
113.137491
 20
205.256299
 30
0.0
 10
113.020208
 20
204.955046
 30
0.0
 10
112.241831
 20
203.791161
 30
0.0
 10
111.962561
 20
203.210218
 30
0.0
  0
SPLINE
  5
153
100
AcDbEntity
  8
0
 62
7
100
AcDbSpline
 70
8
 71
3
 72
8
 73
4
 74
0
 40
0
 40
0
 40
0
 40
0
 40
1
 40
1
 40
1
 40
1
 10
111.962561
 20
203.210218
 30
0.0
 10
111.683397
 20
202.629170
 30
0.0
 10
110.776482
 20
200.743918
 30
0.0
 10
110.438204
 20
200.251858
 30
0.0
  0
SPLINE
  5
154
100
AcDbEntity
  8
0
 62
7
100
AcDbSpline
 70
8
 71
3
 72
8
 73
4
 74
0
 40
0
 40
0
 40
0
 40
0
 40
1
 40
1
 40
1
 40
1
 10
110.438204
 20
200.251858
 30
0.0
 10
109.859680
 20
199.410368
 30
0.0
 10
109.377822
 20
198.492409
 30
0.0
 10
109.053217
 20
198.042948
 30
0.0
  0
SPLINE
  5
155
100
AcDbEntity
  8
0
 62
7
100
AcDbSpline
 70
8
 71
3
 72
8
 73
4
 74
0
 40
0
 40
0
 40
0
 40
0
 40
1
 40
1
 40
1
 40
1
 10
109.053217
 20
198.042948
 30
0.0
 10
108.597446
 20
197.411831
 30
0.0
 10
108.316914
 20
196.920928
 30
0.0
 10
108.036488
 20
196.710555
 30
0.0
  0
SPLINE
  5
156
100
AcDbEntity
  8
0
 62
7
100
AcDbSpline
 70
8
 71
3
 72
8
 73
4
 74
0
 40
0
 40
0
 40
0
 40
0
 40
1
 40
1
 40
1
 40
1
 10
108.036488
 20
196.710555
 30
0.0
 10
107.755957
 20
196.500183
 30
0.0
 10
106.248323
 20
195.308108
 30
0.0
 10
106.248323
 20
195.308108
 30
0.0
  0
SPLINE
  5
157
100
AcDbEntity
  8
0
 62
7
100
AcDbSpline
 70
8
 71
3
 72
8
 73
4
 74
0
 40
0
 40
0
 40
0
 40
0
 40
1
 40
1
 40
1
 40
1
 10
106.248323
 20
195.308108
 30
0.0
 10
106.248323
 20
195.308108
 30
0.0
 10
107.089813
 20
194.466619
 30
0.0
 10
107.405371
 20
194.010847
 30
0.0
  0
SPLINE
  5
158
100
AcDbEntity
  8
0
 62
7
100
AcDbSpline
 70
8
 71
3
 72
8
 73
4
 74
0
 40
0
 40
0
 40
0
 40
0
 40
1
 40
1
 40
1
 40
1
 10
107.405371
 20
194.010847
 30
0.0
 10
107.720930
 20
193.554971
 30
0.0
 10
107.861143
 20
192.853800
 30
0.0
 10
108.492260
 20
191.871992
 30
0.0
  0
SPLINE
  5
159
100
AcDbEntity
  8
0
 62
7
100
AcDbSpline
 70
8
 71
3
 72
8
 73
4
 74
0
 40
0
 40
0
 40
0
 40
0
 40
1
 40
1
 40
1
 40
1
 10
108.492260
 20
191.871992
 30
0.0
 10
110.385610
 20
189.628056
 30
0.0
 10
110.858948
 20
186.051727
 30
0.0
 10
110.911541
 20
185.736168
 30
0.0
  0
SPLINE
  5
15a
100
AcDbEntity
  8
0
 62
7
100
AcDbSpline
 70
8
 71
3
 72
8
 73
4
 74
0
 40
0
 40
0
 40
0
 40
0
 40
1
 40
1
 40
1
 40
1
 10
110.911541
 20
185.736168
 30
0.0
 10
110.964134
 20
185.420610
 30
0.0
 10
112.178614
 20
183.207072
 30
0.0
 10
112.178614
 20
183.207072
 30
0.0
  0
LWPOLYLINE
  5
15b
100
AcDbEntity
  8
0
 62
7
100
AcDbPolyline
 90
8
 70
0
 10
96.010134
 20
196.815741
 30
0.0
 10
95.834894
 20
197.061246
 30
0.0
 10
95.589390
 20
197.341672
 30
0.0
 10
96.466011
 20
196.956060
 30
0.0
 10
95.799762
 20
197.867603
 30
0.0
 10
96.360825
 20
197.411831
 30
0.0
 10
96.150453
 20
198.007921
 30
0.0
 10
96.851623
 20
197.166432
 30
0.0
  0
SPLINE
  5
15c
100
AcDbEntity
  8
0
 62
7
100
AcDbSpline
 70
8
 71
3
 72
8
 73
4
 74
0
 40
0
 40
0
 40
0
 40
0
 40
1
 40
1
 40
1
 40
1
 10
112.209012
 20
183.110406
 30
0.0
 10
112.232364
 20
183.039826
 30
0.0
 10
112.255610
 20
182.977766
 30
0.0
 10
112.278961
 20
182.931169
 30
0.0
  0
SPLINE
  5
15d
100
AcDbEntity
  8
0
 62
7
100
AcDbSpline
 70
8
 71
3
 72
8
 73
4
 74
0
 40
0
 40
0
 40
0
 40
0
 40
1
 40
1
 40
1
 40
1
 10
112.278961
 20
182.931169
 30
0.0
 10
112.283064
 20
182.922859
 30
0.0
 10
112.288112
 20
182.913392
 30
0.0
 10
112.292741
 20
182.904452
 30
0.0
  0
LWPOLYLINE
  5
15e
100
AcDbEntity
  8
0
 62
7
100
AcDbPolyline
 90
3
 70
0
 10
112.178614
 20
183.207072
 30
0.0
 10
113.725271
 20
184.500231
 30
0.0
 10
112.209012
 20
183.110406
 30
0.0
  0
SPLINE
  5
15f
100
AcDbEntity
  8
0
 62
7
100
AcDbSpline
 70
8
 71
3
 72
8
 73
4
 74
0
 40
0
 40
0
 40
0
 40
0
 40
1
 40
1
 40
1
 40
1
 10
112.324612
 20
182.843549
 30
0.0
 10
112.488282
 20
182.536616
 30
0.0
 10
112.804892
 20
182.006477
 30
0.0
 10
112.804892
 20
181.879307
 30
0.0
  0
SPLINE
  5
160
100
AcDbEntity
  8
0
 62
7
100
AcDbSpline
 70
8
 71
3
 72
8
 73
4
 74
0
 40
0
 40
0
 40
0
 40
0
 40
1
 40
1
 40
1
 40
1
 10
112.804892
 20
181.879307
 30
0.0
 10
112.804892
 20
181.879307
 30
0.0
 10
113.365850
 20
180.722260
 30
0.0
 10
111.823190
 20
179.389972
 30
0.0
  0
SPLINE
  5
161
100
AcDbEntity
  8
0
 62
7
100
AcDbSpline
 70
8
 71
3
 72
8
 73
4
 74
0
 40
0
 40
0
 40
0
 40
0
 40
1
 40
1
 40
1
 40
1
 10
111.823190
 20
179.389972
 30
0.0
 10
111.316192
 20
178.952082
 30
0.0
 10
110.210265
 20
178.653669
 30
0.0
 10
110.210265
 20
178.653669
 30
0.0
  0
SPLINE
  5
162
100
AcDbEntity
  8
0
 62
7
100
AcDbSpline
 70
8
 71
3
 72
8
 73
4
 74
0
 40
0
 40
0
 40
0
 40
0
 40
1
 40
1
 40
1
 40
1
 10
110.210265
 20
178.653669
 30
0.0
 10
110.210265
 20
178.653669
 30
0.0
 10
109.123377
 20
177.812179
 30
0.0
 10
108.492260
 20
177.356303
 30
0.0
  0
SPLINE
  5
163
100
AcDbEntity
  8
0
 62
7
100
AcDbSpline
 70
8
 71
3
 72
8
 73
4
 74
0
 40
0
 40
0
 40
0
 40
0
 40
1
 40
1
 40
1
 40
1
 10
108.492260
 20
177.356303
 30
0.0
 10
107.861143
 20
176.900531
 30
0.0
 10
103.829042
 20
178.022552
 30
0.0
 10
103.232952
 20
177.531648
 30
0.0
  0
SPLINE
  5
164
100
AcDbEntity
  8
0
 62
7
100
AcDbSpline
 70
8
 71
3
 72
8
 73
4
 74
0
 40
0
 40
0
 40
0
 40
0
 40
1
 40
1
 40
1
 40
1
 10
103.232952
 20
177.531648
 30
0.0
 10
102.636862
 20
177.040744
 30
0.0
 10
101.690187
 20
176.725186
 30
0.0
 10
101.339601
 20
176.059042
 30
0.0
  0
SPLINE
  5
165
100
AcDbEntity
  8
0
 62
7
100
AcDbSpline
 70
8
 71
3
 72
8
 73
4
 74
0
 40
0
 40
0
 40
0
 40
0
 40
1
 40
1
 40
1
 40
1
 10
101.339601
 20
176.059042
 30
0.0
 10
100.989016
 20
175.392898
 30
0.0
 10
100.392926
 20
174.130664
 30
0.0
 10
100.147526
 20
173.604733
 30
0.0
  0
SPLINE
  5
166
100
AcDbEntity
  8
0
 62
7
100
AcDbSpline
 70
8
 71
3
 72
8
 73
4
 74
0
 40
0
 40
0
 40
0
 40
0
 40
1
 40
1
 40
1
 40
1
 10
100.147526
 20
173.604733
 30
0.0
 10
99.902022
 20
173.078802
 30
0.0
 10
99.586463
 20
170.203644
 30
0.0
 10
99.235878
 20
169.432314
 30
0.0
  0
SPLINE
  5
167
100
AcDbEntity
  8
0
 62
7
100
AcDbSpline
 70
8
 71
3
 72
8
 73
4
 74
0
 40
0
 40
0
 40
0
 40
0
 40
1
 40
1
 40
1
 40
1
 10
99.235878
 20
169.432314
 30
0.0
 10
98.885293
 20
168.660984
 30
0.0
 10
97.623059
 20
166.592288
 30
0.0
 10
97.307500
 20
166.171543
 30
0.0
  0
SPLINE
  5
168
100
AcDbEntity
  8
0
 62
7
100
AcDbSpline
 70
8
 71
3
 72
8
 73
4
 74
0
 40
0
 40
0
 40
0
 40
0
 40
1
 40
1
 40
1
 40
1
 10
97.307500
 20
166.171543
 30
0.0
 10
97.057999
 20
165.838945
 30
0.0
 10
94.892742
 20
164.882592
 30
0.0
 10
94.229859
 20
164.678110
 30
0.0
  0
SPLINE
  5
169
100
AcDbEntity
  8
0
 62
7
100
AcDbSpline
 70
8
 71
3
 72
8
 73
4
 74
0
 40
0
 40
0
 40
0
 40
0
 40
1
 40
1
 40
1
 40
1
 10
94.229859
 20
164.678110
 30
0.0
 10
94.305277
 20
164.358660
 30
0.0
 10
93.801225
 20
162.928338
 30
0.0
 10
93.801225
 20
162.928338
 30
0.0
  0
SPLINE
  5
16a
100
AcDbEntity
  8
0
 62
7
100
AcDbSpline
 70
8
 71
3
 72
8
 73
4
 74
0
 40
0
 40
0
 40
0
 40
0
 40
1
 40
1
 40
1
 40
1
 10
93.801225
 20
162.928338
 30
0.0
 10
93.801225
 20
162.928338
 30
0.0
 10
92.889682
 20
160.947262
 30
0.0
 10
93.029895
 20
160.351278
 30
0.0
  0
SPLINE
  5
16b
100
AcDbEntity
  8
0
 62
7
100
AcDbSpline
 70
8
 71
3
 72
8
 73
4
 74
0
 40
0
 40
0
 40
0
 40
0
 40
1
 40
1
 40
1
 40
1
 10
93.029895
 20
160.351278
 30
0.0
 10
93.170108
 20
159.755188
 30
0.0
 10
93.555826
 20
158.703326
 30
0.0
 10
93.625985
 20
158.387768
 30
0.0
  0
SPLINE
  5
16c
100
AcDbEntity
  8
0
 62
7
100
AcDbSpline
 70
8
 71
3
 72
8
 73
4
 74
0
 40
0
 40
0
 40
0
 40
0
 40
1
 40
1
 40
1
 40
1
 10
93.625985
 20
158.387768
 30
0.0
 10
93.696039
 20
158.072209
 30
0.0
 10
95.168645
 20
155.477582
 30
0.0
 10
95.449176
 20
154.986784
 30
0.0
  0
SPLINE
  5
16d
100
AcDbEntity
  8
0
 62
7
100
AcDbSpline
 70
8
 71
3
 72
8
 73
4
 74
0
 40
0
 40
0
 40
0
 40
0
 40
1
 40
1
 40
1
 40
1
 10
95.449176
 20
154.986784
 30
0.0
 10
95.729708
 20
154.495880
 30
0.0
 10
98.639788
 20
150.043034
 30
0.0
 10
98.780106
 20
149.657317
 30
0.0
  0
SPLINE
  5
16e
100
AcDbEntity
  8
0
 62
7
100
AcDbSpline
 70
8
 71
3
 72
8
 73
4
 74
0
 40
0
 40
0
 40
0
 40
0
 40
1
 40
1
 40
1
 40
1
 10
98.780106
 20
149.657317
 30
0.0
 10
98.920320
 20
149.271599
 30
0.0
 10
100.217580
 20
147.588621
 30
0.0
 10
100.322767
 20
147.483434
 30
0.0
  0
SPLINE
  5
16f
100
AcDbEntity
  8
0
 62
7
100
AcDbSpline
 70
8
 71
3
 72
8
 73
4
 74
0
 40
0
 40
0
 40
0
 40
0
 40
1
 40
1
 40
1
 40
1
 10
100.322767
 20
147.483434
 30
0.0
 10
100.427953
 20
147.378248
 30
0.0
 10
100.918856
 20
147.343221
 30
0.0
 10
101.234415
 20
147.273062
 30
0.0
  0
SPLINE
  5
170
100
AcDbEntity
  8
0
 62
7
100
AcDbSpline
 70
8
 71
3
 72
8
 73
4
 74
0
 40
0
 40
0
 40
0
 40
0
 40
1
 40
1
 40
1
 40
1
 10
101.234415
 20
147.273062
 30
0.0
 10
101.549973
 20
147.203008
 30
0.0
 10
102.601835
 20
146.957504
 30
0.0
 10
102.917393
 20
146.922477
 30
0.0
  0
SPLINE
  5
171
100
AcDbEntity
  8
0
 62
7
100
AcDbSpline
 70
8
 71
3
 72
8
 73
4
 74
0
 40
0
 40
0
 40
0
 40
0
 40
1
 40
1
 40
1
 40
1
 10
102.917393
 20
146.922477
 30
0.0
 10
103.232952
 20
146.887450
 30
0.0
 10
104.986090
 20
146.887450
 30
0.0
 10
105.231489
 20
146.852318
 30
0.0
  0
SPLINE
  5
172
100
AcDbEntity
  8
0
 62
7
100
AcDbSpline
 70
8
 71
3
 72
8
 73
4
 74
0
 40
0
 40
0
 40
0
 40
0
 40
1
 40
1
 40
1
 40
1
 10
105.231489
 20
146.852318
 30
0.0
 10
105.476888
 20
146.817291
 30
0.0
 10
106.037951
 20
146.361519
 30
0.0
 10
106.458696
 20
146.045960
 30
0.0
  0
SPLINE
  5
173
100
AcDbEntity
  8
0
 62
7
100
AcDbSpline
 70
8
 71
3
 72
8
 73
4
 74
0
 40
0
 40
0
 40
0
 40
0
 40
1
 40
1
 40
1
 40
1
 10
106.458696
 20
146.045960
 30
0.0
 10
106.879440
 20
145.730402
 30
0.0
 10
107.335212
 20
145.204471
 30
0.0
 10
107.580611
 20
144.994099
 30
0.0
  0
SPLINE
  5
174
100
AcDbEntity
  8
0
 62
7
100
AcDbSpline
 70
8
 71
3
 72
8
 73
4
 74
0
 40
0
 40
0
 40
0
 40
0
 40
1
 40
1
 40
1
 40
1
 10
107.580611
 20
144.994099
 30
0.0
 10
107.826116
 20
144.783727
 30
0.0
 10
108.492260
 20
144.503195
 30
0.0
 10
108.597446
 20
143.854512
 30
0.0
  0
SPLINE
  5
175
100
AcDbEntity
  8
0
 62
7
100
AcDbSpline
 70
8
 71
3
 72
8
 73
4
 74
0
 40
0
 40
0
 40
0
 40
0
 40
1
 40
1
 40
1
 40
1
 10
108.597446
 20
143.854512
 30
0.0
 10
108.628265
 20
143.664230
 30
0.0
 10
108.106542
 20
143.854512
 30
0.0
 10
108.106542
 20
143.854512
 30
0.0
  0
LWPOLYLINE
  5
176
100
AcDbEntity
  8
0
 62
7
100
AcDbPolyline
 90
4
 70
0
 10
112.292741
 20
182.904452
 30
0.0
 10
113.304526
 20
183.422073
 30
0.0
 10
112.331554
 20
182.843549
 30
0.0
 10
112.324612
 20
182.843549
 30
0.0
  0
SPLINE
  5
177
100
AcDbEntity
  8
0
 62
7
100
AcDbSpline
 70
8
 71
3
 72
8
 73
4
 74
0
 40
0
 40
0
 40
0
 40
0
 40
1
 40
1
 40
1
 40
1
 10
108.492260
 20
143.503927
 30
0.0
 10
108.387074
 20
143.153341
 30
0.0
 10
108.001356
 20
143.048155
 30
0.0
 10
108.001356
 20
143.048155
 30
0.0
  0
SPLINE
  5
178
100
AcDbEntity
  8
0
 62
7
100
AcDbSpline
 70
8
 71
3
 72
8
 73
4
 74
0
 40
0
 40
0
 40
0
 40
0
 40
1
 40
1
 40
1
 40
1
 10
108.001356
 20
143.048155
 30
0.0
 10
108.001356
 20
143.048155
 30
0.0
 10
107.440398
 20
143.030589
 30
0.0
 10
107.019654
 20
143.030589
 30
0.0
  0
SPLINE
  5
179
100
AcDbEntity
  8
0
 62
7
100
AcDbSpline
 70
8
 71
3
 72
8
 73
4
 74
0
 40
0
 40
0
 40
0
 40
0
 40
1
 40
1
 40
1
 40
1
 10
107.019654
 20
143.030589
 30
0.0
 10
106.598909
 20
143.030589
 30
0.0
 10
106.178164
 20
143.118209
 30
0.0
 10
105.932765
 20
143.118209
 30
0.0
  0
SPLINE
  5
17a
100
AcDbEntity
  8
0
 62
7
100
AcDbSpline
 70
8
 71
3
 72
8
 73
4
 74
0
 40
0
 40
0
 40
0
 40
0
 40
1
 40
1
 40
1
 40
1
 10
105.932765
 20
143.118209
 30
0.0
 10
105.932765
 20
143.118209
 30
0.0
 10
104.495186
 20
143.977264
 30
0.0
 10
103.338138
 20
143.977264
 30
0.0
  0
SPLINE
  5
17b
100
AcDbEntity
  8
0
 62
7
100
AcDbSpline
 70
8
 71
3
 72
8
 73
4
 74
0
 40
0
 40
0
 40
0
 40
0
 40
1
 40
1
 40
1
 40
1
 10
103.338138
 20
143.977264
 30
0.0
 10
102.181090
 20
143.977264
 30
0.0
 10
98.219043
 20
144.380443
 30
0.0
 10
98.219043
 20
144.380443
 30
0.0
  0
SPLINE
  5
17c
100
AcDbEntity
  8
0
 62
7
100
AcDbSpline
 70
8
 71
3
 72
8
 73
4
 74
0
 40
0
 40
0
 40
0
 40
0
 40
1
 40
1
 40
1
 40
1
 10
98.219043
 20
144.380443
 30
0.0
 10
98.008671
 20
144.450602
 30
0.0
 10
97.693113
 20
144.310389
 30
0.0
 10
97.342527
 20
144.380443
 30
0.0
  0
SPLINE
  5
17d
100
AcDbEntity
  8
0
 62
7
100
AcDbSpline
 70
8
 71
3
 72
8
 73
4
 74
0
 40
0
 40
0
 40
0
 40
0
 40
1
 40
1
 40
1
 40
1
 10
97.342527
 20
144.380443
 30
0.0
 10
96.991942
 20
144.450602
 30
0.0
 10
96.343259
 20
145.449871
 30
0.0
 10
96.343259
 20
145.449871
 30
0.0
  0
SPLINE
  5
17e
100
AcDbEntity
  8
0
 62
7
100
AcDbSpline
 70
8
 71
3
 72
8
 73
4
 74
0
 40
0
 40
0
 40
0
 40
0
 40
1
 40
1
 40
1
 40
1
 10
96.343259
 20
145.449871
 30
0.0
 10
96.343259
 20
145.449871
 30
0.0
 10
91.295586
 20
152.443488
 30
0.0
 10
90.189869
 20
153.549204
 30
0.0
  0
SPLINE
  5
17f
100
AcDbEntity
  8
0
 62
7
100
AcDbSpline
 70
8
 71
3
 72
8
 73
4
 74
0
 40
0
 40
0
 40
0
 40
0
 40
1
 40
1
 40
1
 40
1
 10
90.189869
 20
153.549204
 30
0.0
 10
89.291894
 20
154.447179
 30
0.0
 10
87.968337
 20
155.079242
 30
0.0
 10
87.051850
 20
155.937246
 30
0.0
  0
SPLINE
  5
180
100
AcDbEntity
  8
0
 62
7
100
AcDbSpline
 70
8
 71
3
 72
8
 73
4
 74
0
 40
0
 40
0
 40
0
 40
0
 40
1
 40
1
 40
1
 40
1
 10
87.051850
 20
155.937246
 30
0.0
 10
87.169238
 20
155.471587
 30
0.0
 10
87.257594
 20
155.047055
 30
0.0
 10
87.286731
 20
154.697943
 30
0.0
  0
SPLINE
  5
181
100
AcDbEntity
  8
0
 62
7
100
AcDbSpline
 70
8
 71
3
 72
8
 73
4
 74
0
 40
0
 40
0
 40
0
 40
0
 40
1
 40
1
 40
1
 40
1
 10
87.286731
 20
154.697943
 30
0.0
 10
87.359099
 20
153.829526
 30
0.0
 10
87.023450
 20
152.508072
 30
0.0
 10
87.910800
 20
151.480508
 30
0.0
  0
SPLINE
  5
182
100
AcDbEntity
  8
0
 62
7
100
AcDbSpline
 70
8
 71
3
 72
8
 73
4
 74
0
 40
0
 40
0
 40
0
 40
0
 40
1
 40
1
 40
1
 40
1
 10
87.910800
 20
151.480508
 30
0.0
 10
89.243193
 20
149.937848
 30
0.0
 10
91.557289
 20
150.709178
 30
0.0
 10
92.335351
 20
149.491438
 30
0.0
  0
SPLINE
  5
183
100
AcDbEntity
  8
0
 62
7
100
AcDbSpline
 70
8
 71
3
 72
8
 73
4
 74
0
 40
0
 40
0
 40
0
 40
0
 40
1
 40
1
 40
1
 40
1
 10
92.335351
 20
149.491438
 30
0.0
 10
93.738218
 20
147.295993
 30
0.0
 10
94.572660
 20
145.730402
 30
0.0
 10
92.819523
 20
145.870615
 30
0.0
  0
SPLINE
  5
184
100
AcDbEntity
  8
0
 62
7
100
AcDbSpline
 70
8
 71
3
 72
8
 73
4
 74
0
 40
0
 40
0
 40
0
 40
0
 40
1
 40
1
 40
1
 40
1
 10
92.819523
 20
145.870615
 30
0.0
 10
91.812470
 20
145.951188
 30
0.0
 10
90.007581
 20
146.404540
 30
0.0
 10
87.139470
 20
148.324924
 30
0.0
  0
SPLINE
  5
185
100
AcDbEntity
  8
0
 62
7
100
AcDbSpline
 70
8
 71
3
 72
8
 73
4
 74
0
 40
0
 40
0
 40
0
 40
0
 40
1
 40
1
 40
1
 40
1
 10
87.139470
 20
148.324924
 30
0.0
 10
85.201520
 20
149.622500
 30
0.0
 10
83.843672
 20
148.956041
 30
0.0
 10
83.142396
 20
150.568965
 30
0.0
  0
SPLINE
  5
186
100
AcDbEntity
  8
0
 62
7
100
AcDbSpline
 70
8
 71
3
 72
8
 73
4
 74
0
 40
0
 40
0
 40
0
 40
0
 40
1
 40
1
 40
1
 40
1
 10
83.142396
 20
150.568965
 30
0.0
 10
82.404200
 20
152.266775
 30
0.0
 10
83.337306
 20
156.786203
 30
0.0
 10
81.606889
 20
160.535459
 30
0.0
  0
SPLINE
  5
187
100
AcDbEntity
  8
0
 62
7
100
AcDbSpline
 70
8
 71
3
 72
8
 73
4
 74
0
 40
0
 40
0
 40
0
 40
0
 40
1
 40
1
 40
1
 40
1
 10
81.606889
 20
160.535459
 30
0.0
 10
80.851126
 20
162.173102
 30
0.0
 10
79.994806
 20
164.162488
 30
0.0
 10
79.238622
 20
165.962118
 30
0.0
  0
SPLINE
  5
188
100
AcDbEntity
  8
0
 62
7
100
AcDbSpline
 70
8
 71
3
 72
8
 73
4
 74
0
 40
0
 40
0
 40
0
 40
0
 40
1
 40
1
 40
1
 40
1
 10
79.238622
 20
165.962118
 30
0.0
 10
78.751505
 20
166.198681
 30
0.0
 10
78.132485
 20
166.532858
 30
0.0
 10
77.347060
 20
167.004092
 30
0.0
  0
SPLINE
  5
189
100
AcDbEntity
  8
0
 62
7
100
AcDbSpline
 70
8
 71
3
 72
8
 73
4
 74
0
 40
0
 40
0
 40
0
 40
0
 40
1
 40
1
 40
1
 40
1
 10
77.347060
 20
167.004092
 30
0.0
 10
74.191686
 20
168.897337
 30
0.0
 10
67.407494
 20
173.472725
 30
0.0
 10
64.725352
 20
175.050412
 30
0.0
  0
SPLINE
  5
18a
100
AcDbEntity
  8
0
 62
7
100
AcDbSpline
 70
8
 71
3
 72
8
 73
4
 74
0
 40
0
 40
0
 40
0
 40
0
 40
1
 40
1
 40
1
 40
1
 10
64.725352
 20
175.050412
 30
0.0
 10
62.170381
 20
176.553417
 30
0.0
 10
56.845857
 20
178.758855
 30
0.0
 10
56.845857
 20
178.758855
 30
0.0
  0
LWPOLYLINE
  5
18b
100
AcDbEntity
  8
0
 62
7
100
AcDbPolyline
 90
2
 70
0
 10
108.106542
 20
143.854512
 30
0.0
 10
108.492260
 20
143.503927
 30
0.0
  0
SPLINE
  5
18c
100
AcDbEntity
  8
0
 62
7
100
AcDbSpline
 70
8
 71
3
 72
8
 73
4
 74
0
 40
0
 40
0
 40
0
 40
0
 40
1
 40
1
 40
1
 40
1
 10
56.004368
 20
178.197792
 30
0.0
 10
56.004368
 20
178.197792
 30
0.0
 10
54.812293
 20
177.566675
 30
0.0
 10
54.461603
 20
177.461489
 30
0.0
  0
SPLINE
  5
18d
100
AcDbEntity
  8
0
 62
7
100
AcDbSpline
 70
8
 71
3
 72
8
 73
4
 74
0
 40
0
 40
0
 40
0
 40
0
 40
1
 40
1
 40
1
 40
1
 10
54.461603
 20
177.461489
 30
0.0
 10
54.111017
 20
177.356303
 30
0.0
 10
52.568252
 20
177.391435
 30
0.0
 10
51.551523
 20
177.286249
 30
0.0
  0
SPLINE
  5
18e
100
AcDbEntity
  8
0
 62
7
100
AcDbSpline
 70
8
 71
3
 72
8
 73
4
 74
0
 40
0
 40
0
 40
0
 40
0
 40
1
 40
1
 40
1
 40
1
 10
51.551523
 20
177.286249
 30
0.0
 10
50.534688
 20
177.181062
 30
0.0
 10
49.938598
 20
176.900531
 30
0.0
 10
49.552986
 20
176.865504
 30
0.0
  0
SPLINE
  5
18f
100
AcDbEntity
  8
0
 62
7
100
AcDbSpline
 70
8
 71
3
 72
8
 73
4
 74
0
 40
0
 40
0
 40
0
 40
0
 40
1
 40
1
 40
1
 40
1
 10
49.552986
 20
176.865504
 30
0.0
 10
49.167268
 20
176.830372
 30
0.0
 10
46.572641
 20
176.549946
 30
0.0
 10
46.572641
 20
176.549946
 30
0.0
  0
SPLINE
  5
190
100
AcDbEntity
  8
0
 62
7
100
AcDbSpline
 70
8
 71
3
 72
8
 73
4
 74
0
 40
0
 40
0
 40
0
 40
0
 40
1
 40
1
 40
1
 40
1
 10
46.572641
 20
176.549946
 30
0.0
 10
46.572641
 20
176.549946
 30
0.0
 10
46.081843
 20
176.024015
 30
0.0
 10
45.625966
 20
175.953856
 30
0.0
  0
SPLINE
  5
191
100
AcDbEntity
  8
0
 62
7
100
AcDbSpline
 70
8
 71
3
 72
8
 73
4
 74
0
 40
0
 40
0
 40
0
 40
0
 40
1
 40
1
 40
1
 40
1
 10
45.625966
 20
175.953856
 30
0.0
 10
45.170194
 20
175.883696
 30
0.0
 10
42.785940
 20
176.024015
 30
0.0
 10
42.785940
 20
176.024015
 30
0.0
  0
SPLINE
  5
192
100
AcDbEntity
  8
0
 62
7
100
AcDbSpline
 70
8
 71
3
 72
8
 73
4
 74
0
 40
0
 40
0
 40
0
 40
0
 40
1
 40
1
 40
1
 40
1
 10
42.785940
 20
176.024015
 30
0.0
 10
42.785940
 20
176.024015
 30
0.0
 10
41.734078
 20
175.708456
 30
0.0
 10
40.927721
 20
175.287712
 30
0.0
  0
SPLINE
  5
193
100
AcDbEntity
  8
0
 62
7
100
AcDbSpline
 70
8
 71
3
 72
8
 73
4
 74
0
 40
0
 40
0
 40
0
 40
0
 40
1
 40
1
 40
1
 40
1
 10
40.927721
 20
175.287712
 30
0.0
 10
40.121259
 20
174.866967
 30
0.0
 10
38.788866
 20
173.499547
 30
0.0
 10
38.438280
 20
173.148856
 30
0.0
  0
SPLINE
  5
194
100
AcDbEntity
  8
0
 62
7
100
AcDbSpline
 70
8
 71
3
 72
8
 73
4
 74
0
 40
0
 40
0
 40
0
 40
0
 40
1
 40
1
 40
1
 40
1
 10
38.438280
 20
173.148856
 30
0.0
 10
38.087695
 20
172.798271
 30
0.0
 10
36.895515
 20
170.799734
 30
0.0
 10
36.755302
 20
170.414016
 30
0.0
  0
SPLINE
  5
195
100
AcDbEntity
  8
0
 62
7
100
AcDbSpline
 70
8
 71
3
 72
8
 73
4
 74
0
 40
0
 40
0
 40
0
 40
0
 40
1
 40
1
 40
1
 40
1
 10
36.755302
 20
170.414016
 30
0.0
 10
36.615089
 20
170.028404
 30
0.0
 10
35.598254
 20
167.819495
 30
0.0
 10
35.352855
 20
167.363618
 30
0.0
  0
SPLINE
  5
196
100
AcDbEntity
  8
0
 62
7
100
AcDbSpline
 70
8
 71
3
 72
8
 73
4
 74
0
 40
0
 40
0
 40
0
 40
0
 40
1
 40
1
 40
1
 40
1
 10
35.352855
 20
167.363618
 30
0.0
 10
35.107350
 20
166.907846
 30
0.0
 10
34.791792
 20
166.276729
 30
0.0
 10
34.581419
 20
165.926144
 30
0.0
  0
SPLINE
  5
197
100
AcDbEntity
  8
0
 62
7
100
AcDbSpline
 70
8
 71
3
 72
8
 73
4
 74
0
 40
0
 40
0
 40
0
 40
0
 40
1
 40
1
 40
1
 40
1
 10
34.581419
 20
165.926144
 30
0.0
 10
34.371047
 20
165.575453
 30
0.0
 10
33.354318
 20
163.296490
 30
0.0
 10
33.073786
 20
162.735427
 30
0.0
  0
SPLINE
  5
198
100
AcDbEntity
  8
0
 62
7
100
AcDbSpline
 70
8
 71
3
 72
8
 73
4
 74
0
 40
0
 40
0
 40
0
 40
0
 40
1
 40
1
 40
1
 40
1
 10
33.073786
 20
162.735427
 30
0.0
 10
32.793255
 20
162.174469
 30
0.0
 10
31.250595
 20
158.072209
 30
0.0
 10
31.145408
 20
157.756651
 30
0.0
  0
SPLINE
  5
199
100
AcDbEntity
  8
0
 62
7
100
AcDbSpline
 70
8
 71
3
 72
8
 73
4
 74
0
 40
0
 40
0
 40
0
 40
0
 40
1
 40
1
 40
1
 40
1
 10
31.145408
 20
157.756651
 30
0.0
 10
31.040222
 20
157.441092
 30
0.0
 10
30.619478
 20
157.055375
 30
0.0
 10
30.479159
 20
156.985321
 30
0.0
  0
SPLINE
  5
19a
100
AcDbEntity
  8
0
 62
7
100
AcDbSpline
 70
8
 71
3
 72
8
 73
4
 74
0
 40
0
 40
0
 40
0
 40
0
 40
1
 40
1
 40
1
 40
1
 10
30.479159
 20
156.985321
 30
0.0
 10
30.338946
 20
156.915161
 30
0.0
 10
29.988361
 20
157.020348
 30
0.0
 10
29.988361
 20
157.020348
 30
0.0
  0
LWPOLYLINE
  5
19b
100
AcDbEntity
  8
0
 62
7
100
AcDbPolyline
 90
3
 70
0
 10
56.845857
 20
178.758855
 30
0.0
 10
56.284900
 20
178.338110
 30
0.0
 10
56.004368
 20
178.197792
 30
0.0
  0
SPLINE
  5
19c
100
AcDbEntity
  8
0
 62
7
100
AcDbSpline
 70
8
 71
3
 72
8
 73
4
 74
0
 40
0
 40
0
 40
0
 40
0
 40
1
 40
1
 40
1
 40
1
 10
27.113202
 20
161.122608
 30
0.0
 10
27.113202
 20
161.122608
 30
0.0
 10
27.043148
 20
161.788752
 30
0.0
 10
27.043148
 20
161.999124
 30
0.0
  0
SPLINE
  5
19d
100
AcDbEntity
  8
0
 62
7
100
AcDbSpline
 70
8
 71
3
 72
8
 73
4
 74
0
 40
0
 40
0
 40
0
 40
0
 40
1
 40
1
 40
1
 40
1
 10
27.043148
 20
161.999124
 30
0.0
 10
27.043148
 20
162.209496
 30
0.0
 10
27.323575
 20
162.595214
 30
0.0
 10
27.323575
 20
162.595214
 30
0.0
  0
LWPOLYLINE
  5
19e
100
AcDbEntity
  8
0
 62
7
100
AcDbPolyline
 90
13
 70
0
 10
29.988361
 20
157.020348
 30
0.0
 10
29.848042
 20
157.300879
 30
0.0
 10
29.357244
 20
156.985321
 30
0.0
 10
29.181898
 20
157.300879
 30
0.0
 10
29.076712
 20
157.511251
 30
0.0
 10
28.761154
 20
157.686492
 30
0.0
 10
28.480622
 20
158.037182
 30
0.0
 10
28.550782
 20
158.317608
 30
0.0
 10
28.165064
 20
158.317608
 30
0.0
 10
27.814478
 20
158.773485
 30
0.0
 10
27.393734
 20
159.299416
 30
0.0
 10
27.218389
 20
160.281118
 30
0.0
 10
27.113202
 20
161.122608
 30
0.0
  0
SPLINE
  5
19f
100
AcDbEntity
  8
0
 62
7
100
AcDbSpline
 70
8
 71
3
 72
8
 73
4
 74
0
 40
0
 40
0
 40
0
 40
0
 40
1
 40
1
 40
1
 40
1
 10
27.323575
 20
163.471730
 30
0.0
 10
27.323575
 20
163.471730
 30
0.0
 10
27.235955
 20
163.699668
 30
0.0
 10
27.393734
 20
164.383379
 30
0.0
  0
SPLINE
  5
1a0
100
AcDbEntity
  8
0
 62
7
100
AcDbSpline
 70
8
 71
3
 72
8
 73
4
 74
0
 40
0
 40
0
 40
0
 40
0
 40
1
 40
1
 40
1
 40
1
 10
27.393734
 20
164.383379
 30
0.0
 10
27.551513
 20
165.067089
 30
0.0
 10
27.604106
 20
166.276729
 30
0.0
 10
28.603375
 20
168.064894
 30
0.0
  0
SPLINE
  5
1a1
100
AcDbEntity
  8
0
 62
7
100
AcDbSpline
 70
8
 71
3
 72
8
 73
4
 74
0
 40
0
 40
0
 40
0
 40
0
 40
1
 40
1
 40
1
 40
1
 10
28.603375
 20
168.064894
 30
0.0
 10
29.602643
 20
169.853059
 30
0.0
 10
30.794718
 20
172.342499
 30
0.0
 10
30.794718
 20
172.342499
 30
0.0
  0
LWPOLYLINE
  5
1a2
100
AcDbEntity
  8
0
 62
7
100
AcDbPolyline
 90
2
 70
0
 10
27.323575
 20
162.595214
 30
0.0
 10
27.323575
 20
163.471730
 30
0.0
  0
SPLINE
  5
1a3
100
AcDbEntity
  8
0
 62
7
100
AcDbSpline
 70
8
 71
3
 72
8
 73
4
 74
0
 40
0
 40
0
 40
0
 40
0
 40
1
 40
1
 40
1
 40
1
 10
31.145408
 20
172.482712
 30
0.0
 10
31.145408
 20
172.482712
 30
0.0
 10
31.566153
 20
173.254043
 30
0.0
 10
31.706366
 20
173.429388
 30
0.0
  0
SPLINE
  5
1a4
100
AcDbEntity
  8
0
 62
7
100
AcDbSpline
 70
8
 71
3
 72
8
 73
4
 74
0
 40
0
 40
0
 40
0
 40
0
 40
1
 40
1
 40
1
 40
1
 10
31.706366
 20
173.429388
 30
0.0
 10
31.846579
 20
173.604733
 30
0.0
 10
32.302456
 20
174.130664
 30
0.0
 10
32.407642
 20
174.305904
 30
0.0
  0
SPLINE
  5
1a5
100
AcDbEntity
  8
0
 62
7
100
AcDbSpline
 70
8
 71
3
 72
8
 73
4
 74
0
 40
0
 40
0
 40
0
 40
0
 40
1
 40
1
 40
1
 40
1
 10
32.407642
 20
174.305904
 30
0.0
 10
32.512828
 20
174.481249
 30
0.0
 10
32.723201
 20
175.182526
 30
0.0
 10
32.898441
 20
175.427925
 30
0.0
  0
SPLINE
  5
1a6
100
AcDbEntity
  8
0
 62
7
100
AcDbSpline
 70
8
 71
3
 72
8
 73
4
 74
0
 40
0
 40
0
 40
0
 40
0
 40
1
 40
1
 40
1
 40
1
 10
32.898441
 20
175.427925
 30
0.0
 10
33.073786
 20
175.673324
 30
0.0
 10
33.529558
 20
176.584973
 30
0.0
 10
33.529558
 20
176.584973
 30
0.0
  0
SPLINE
  5
1a7
100
AcDbEntity
  8
0
 62
7
100
AcDbSpline
 70
8
 71
3
 72
8
 73
4
 74
0
 40
0
 40
0
 40
0
 40
0
 40
1
 40
1
 40
1
 40
1
 10
33.529558
 20
176.584973
 30
0.0
 10
33.529558
 20
176.584973
 30
0.0
 10
32.828387
 20
176.620000
 30
0.0
 10
32.232297
 20
176.584973
 30
0.0
  0
SPLINE
  5
1a8
100
AcDbEntity
  8
0
 62
7
100
AcDbSpline
 70
8
 71
3
 72
8
 73
4
 74
0
 40
0
 40
0
 40
0
 40
0
 40
1
 40
1
 40
1
 40
1
 10
32.232297
 20
176.584973
 30
0.0
 10
31.636207
 20
176.549946
 30
0.0
 10
30.549319
 20
176.234387
 30
0.0
 10
29.848042
 20
175.918829
 30
0.0
  0
SPLINE
  5
1a9
100
AcDbEntity
  8
0
 62
7
100
AcDbSpline
 70
8
 71
3
 72
8
 73
4
 74
0
 40
0
 40
0
 40
0
 40
0
 40
1
 40
1
 40
1
 40
1
 10
29.848042
 20
175.918829
 30
0.0
 10
29.146871
 20
175.603270
 30
0.0
 10
27.954692
 20
174.411090
 30
0.0
 10
27.218389
 20
173.569601
 30
0.0
  0
SPLINE
  5
1aa
100
AcDbEntity
  8
0
 62
7
100
AcDbSpline
 70
8
 71
3
 72
8
 73
4
 74
0
 40
0
 40
0
 40
0
 40
0
 40
1
 40
1
 40
1
 40
1
 10
27.218389
 20
173.569601
 30
0.0
 10
26.482085
 20
172.728112
 30
0.0
 10
25.079638
 20
168.450612
 30
0.0
 10
24.799107
 20
167.994735
 30
0.0
  0
SPLINE
  5
1ab
100
AcDbEntity
  8
0
 62
7
100
AcDbSpline
 70
8
 71
3
 72
8
 73
4
 74
0
 40
0
 40
0
 40
0
 40
0
 40
1
 40
1
 40
1
 40
1
 10
24.799107
 20
167.994735
 30
0.0
 10
24.518681
 20
167.538963
 30
0.0
 10
21.818868
 20
161.999124
 30
0.0
 10
21.783841
 20
161.929070
 30
0.0
  0
SPLINE
  5
1ac
100
AcDbEntity
  8
0
 62
7
100
AcDbSpline
 70
8
 71
3
 72
8
 73
4
 74
0
 40
0
 40
0
 40
0
 40
0
 40
1
 40
1
 40
1
 40
1
 10
21.783841
 20
161.929070
 30
0.0
 10
21.748708
 20
161.858911
 30
0.0
 10
20.942351
 20
161.613511
 30
0.0
 10
20.837165
 20
161.543352
 30
0.0
  0
SPLINE
  5
1ad
100
AcDbEntity
  8
0
 62
7
100
AcDbSpline
 70
8
 71
3
 72
8
 73
4
 74
0
 40
0
 40
0
 40
0
 40
0
 40
1
 40
1
 40
1
 40
1
 10
20.837165
 20
161.543352
 30
0.0
 10
20.731979
 20
161.473193
 30
0.0
 10
19.960544
 20
159.965560
 30
0.0
 10
19.644985
 20
159.755188
 30
0.0
  0
SPLINE
  5
1ae
100
AcDbEntity
  8
0
 62
7
100
AcDbSpline
 70
8
 71
3
 72
8
 73
4
 74
0
 40
0
 40
0
 40
0
 40
0
 40
1
 40
1
 40
1
 40
1
 10
19.644985
 20
159.755188
 30
0.0
 10
19.329427
 20
159.544815
 30
0.0
 10
18.417884
 20
159.159098
 30
0.0
 10
18.242538
 20
159.124071
 30
0.0
  0
SPLINE
  5
1af
100
AcDbEntity
  8
0
 62
7
100
AcDbSpline
 70
8
 71
3
 72
8
 73
4
 74
0
 40
0
 40
0
 40
0
 40
0
 40
1
 40
1
 40
1
 40
1
 10
18.242538
 20
159.124071
 30
0.0
 10
18.067193
 20
159.089044
 30
0.0
 10
17.891953
 20
159.404602
 30
0.0
 10
17.681581
 20
159.650002
 30
0.0
  0
SPLINE
  5
1b0
100
AcDbEntity
  8
0
 62
7
100
AcDbSpline
 70
8
 71
3
 72
8
 73
4
 74
0
 40
0
 40
0
 40
0
 40
0
 40
1
 40
1
 40
1
 40
1
 10
17.681581
 20
159.650002
 30
0.0
 10
17.471208
 20
159.895401
 30
0.0
 10
17.962007
 20
160.281118
 30
0.0
 10
17.962007
 20
160.281118
 30
0.0
  0
SPLINE
  5
1b1
100
AcDbEntity
  8
0
 62
7
100
AcDbSpline
 70
8
 71
3
 72
8
 73
4
 74
0
 40
0
 40
0
 40
0
 40
0
 40
1
 40
1
 40
1
 40
1
 10
17.962007
 20
160.281118
 30
0.0
 10
17.962007
 20
160.281118
 30
0.0
 10
17.401049
 20
160.105773
 30
0.0
 10
17.295863
 20
160.246091
 30
0.0
  0
SPLINE
  5
1b2
100
AcDbEntity
  8
0
 62
7
100
AcDbSpline
 70
8
 71
3
 72
8
 73
4
 74
0
 40
0
 40
0
 40
0
 40
0
 40
1
 40
1
 40
1
 40
1
 10
17.295863
 20
160.246091
 30
0.0
 10
17.295863
 20
160.246091
 30
0.0
 10
17.175530
 20
160.407973
 30
0.0
 10
17.015437
 20
160.701758
 30
0.0
  0
LWPOLYLINE
  5
1b3
100
AcDbEntity
  8
0
 62
7
100
AcDbPolyline
 90
2
 70
0
 10
30.794718
 20
172.342499
 30
0.0
 10
31.145408
 20
172.482712
 30
0.0
  0
SPLINE
  5
1b4
100
AcDbEntity
  8
0
 62
7
100
AcDbSpline
 70
8
 71
3
 72
8
 73
4
 74
0
 40
0
 40
0
 40
0
 40
0
 40
1
 40
1
 40
1
 40
1
 10
17.015437
 20
160.701863
 30
0.0
 10
16.778452
 20
161.136913
 30
0.0
 10
16.453637
 20
161.863855
 30
0.0
 10
16.296700
 20
162.805586
 30
0.0
  0
SPLINE
  5
1b5
100
AcDbEntity
  8
0
 62
7
100
AcDbSpline
 70
8
 71
3
 72
8
 73
4
 74
0
 40
0
 40
0
 40
0
 40
0
 40
1
 40
1
 40
1
 40
1
 10
16.296700
 20
162.805586
 30
0.0
 10
16.033734
 20
164.383379
 30
0.0
 10
17.085596
 20
165.119682
 30
0.0
 10
17.085596
 20
165.119682
 30
0.0
  0
SPLINE
  5
1b6
100
AcDbEntity
  8
0
 62
7
100
AcDbSpline
 70
8
 71
3
 72
8
 73
4
 74
0
 40
0
 40
0
 40
0
 40
0
 40
1
 40
1
 40
1
 40
1
 10
61.822930
 20
39.469886
 30
0.0
 10
61.557229
 20
39.292752
 30
0.0
 10
61.025934
 20
39.647019
 30
0.0
 10
61.025934
 20
39.647019
 30
0.0
  0
LWPOLYLINE
  5
1b7
100
AcDbEntity
  8
0
 62
7
100
AcDbPolyline
 90
3
 70
0
 10
17.015437
 20
160.701758
 30
0.0
 10
17.015437
 20
160.701863
 30
0.0
 10
17.015437
 20
160.701863
 30
0.0
  0
SPLINE
  5
1b8
100
AcDbEntity
  8
0
 62
7
100
AcDbSpline
 70
8
 71
3
 72
8
 73
4
 74
0
 40
0
 40
0
 40
0
 40
0
 40
1
 40
1
 40
1
 40
1
 10
63.505382
 20
40.443909
 30
0.0
 10
63.505382
 20
40.443909
 30
0.0
 10
62.088630
 20
39.647019
 30
0.0
 10
61.822930
 20
39.469886
 30
0.0
  0
SPLINE
  5
1b9
100
AcDbEntity
  8
0
 62
7
100
AcDbSpline
 70
8
 71
3
 72
8
 73
4
 74
0
 40
0
 40
0
 40
0
 40
0
 40
1
 40
1
 40
1
 40
1
 10
109.079914
 20
69.164148
 30
0.0
 10
108.843666
 20
69.459300
 30
0.0
 10
107.544932
 20
70.699024
 30
0.0
 10
107.249780
 20
71.112301
 30
0.0
  0
SPLINE
  5
1ba
100
AcDbEntity
  8
0
 62
7
100
AcDbSpline
 70
8
 71
3
 72
8
 73
4
 74
0
 40
0
 40
0
 40
0
 40
0
 40
1
 40
1
 40
1
 40
1
 10
107.249780
 20
71.112301
 30
0.0
 10
106.954627
 20
71.525472
 30
0.0
 10
105.026144
 20
73.907833
 30
0.0
 10
104.229254
 20
76.165864
 30
0.0
  0
SPLINE
  5
1bb
100
AcDbEntity
  8
0
 62
7
100
AcDbSpline
 70
8
 71
3
 72
8
 73
4
 74
0
 40
0
 40
0
 40
0
 40
0
 40
1
 40
1
 40
1
 40
1
 10
104.229254
 20
76.165864
 30
0.0
 10
103.604028
 20
77.937094
 30
0.0
 10
101.838478
 20
79.884826
 30
0.0
 10
100.643037
 20
80.283271
 30
0.0
  0
SPLINE
  5
1bc
100
AcDbEntity
  8
0
 62
7
100
AcDbSpline
 70
8
 71
3
 72
8
 73
4
 74
0
 40
0
 40
0
 40
0
 40
0
 40
1
 40
1
 40
1
 40
1
 10
100.643037
 20
80.283271
 30
0.0
 10
98.880538
 20
80.870736
 30
0.0
 10
97.745264
 20
80.852959
 30
0.0
 10
97.745264
 20
80.852959
 30
0.0
  0
SPLINE
  5
1bd
100
AcDbEntity
  8
0
 62
7
100
AcDbSpline
 70
8
 71
3
 72
8
 73
4
 74
0
 40
0
 40
0
 40
0
 40
0
 40
1
 40
1
 40
1
 40
1
 10
97.745264
 20
80.852959
 30
0.0
 10
96.918816
 20
80.734835
 30
0.0
 10
96.446531
 20
81.679407
 30
0.0
 10
96.446531
 20
81.679407
 30
0.0
  0
LWPOLYLINE
  5
1be
100
AcDbEntity
  8
0
 62
7
100
AcDbPolyline
 90
3
 70
0
 10
61.025934
 20
39.647019
 30
0.0
 10
61.734363
 20
41.152338
 30
0.0
 10
63.505382
 20
40.443909
 30
0.0
  0
SPLINE
  5
1bf
100
AcDbEntity
  8
0
 62
7
100
AcDbSpline
 70
8
 71
3
 72
8
 73
4
 74
0
 40
0
 40
0
 40
0
 40
0
 40
1
 40
1
 40
1
 40
1
 10
96.210388
 20
82.151693
 30
0.0
 10
96.210388
 20
82.151693
 30
0.0
 10
96.328406
 20
82.919131
 30
0.0
 10
96.505540
 20
83.686569
 30
0.0
  0
SPLINE
  5
1c0
100
AcDbEntity
  8
0
 62
7
100
AcDbSpline
 70
8
 71
3
 72
8
 73
4
 74
0
 40
0
 40
0
 40
0
 40
0
 40
1
 40
1
 40
1
 40
1
 10
96.505540
 20
83.686569
 30
0.0
 10
96.621665
 20
84.189885
 30
0.0
 10
97.755362
 20
86.978370
 30
0.0
 10
98.483250
 20
89.324337
 30
0.0
  0
SPLINE
  5
1c1
100
AcDbEntity
  8
0
 62
7
100
AcDbSpline
 70
8
 71
3
 72
8
 73
4
 74
0
 40
0
 40
0
 40
0
 40
0
 40
1
 40
1
 40
1
 40
1
 10
98.483250
 20
89.324337
 30
0.0
 10
98.865286
 20
90.555646
 30
0.0
 10
99.307804
 20
92.358431
 30
0.0
 10
99.368707
 20
92.866375
 30
0.0
  0
SPLINE
  5
1c2
100
AcDbEntity
  8
0
 62
7
100
AcDbSpline
 70
8
 71
3
 72
8
 73
4
 74
0
 40
0
 40
0
 40
0
 40
0
 40
1
 40
1
 40
1
 40
1
 10
99.368707
 20
92.866375
 30
0.0
 10
99.545841
 20
94.342242
 30
0.0
 10
99.752426
 20
96.142819
 30
0.0
 10
99.634407
 20
96.615105
 30
0.0
  0
SPLINE
  5
1c3
100
AcDbEntity
  8
0
 62
7
100
AcDbSpline
 70
8
 71
3
 72
8
 73
4
 74
0
 40
0
 40
0
 40
0
 40
0
 40
1
 40
1
 40
1
 40
1
 10
99.634407
 20
96.615105
 30
0.0
 10
99.516283
 20
97.087390
 30
0.0
 10
99.043997
 20
98.504143
 30
0.0
 10
98.630826
 20
98.504143
 30
0.0
  0
SPLINE
  5
1c4
100
AcDbEntity
  8
0
 62
7
100
AcDbSpline
 70
8
 71
3
 72
8
 73
4
 74
0
 40
0
 40
0
 40
0
 40
0
 40
1
 40
1
 40
1
 40
1
 10
98.630826
 20
98.504143
 30
0.0
 10
98.217550
 20
98.504143
 30
0.0
 10
97.686255
 20
98.002405
 30
0.0
 10
96.977826
 20
97.205409
 30
0.0
  0
SPLINE
  5
1c5
100
AcDbEntity
  8
0
 62
7
100
AcDbSpline
 70
8
 71
3
 72
8
 73
4
 74
0
 40
0
 40
0
 40
0
 40
0
 40
1
 40
1
 40
1
 40
1
 10
96.977826
 20
97.205409
 30
0.0
 10
96.269397
 20
96.408414
 30
0.0
 10
95.738102
 20
95.080228
 30
0.0
 10
95.738102
 20
95.080228
 30
0.0
  0
SPLINE
  5
1c6
100
AcDbEntity
  8
0
 62
7
100
AcDbSpline
 70
8
 71
3
 72
8
 73
4
 74
0
 40
0
 40
0
 40
0
 40
0
 40
1
 40
1
 40
1
 40
1
 10
95.738102
 20
95.080228
 30
0.0
 10
95.501959
 20
94.903095
 30
0.0
 10
95.118240
 20
92.954942
 30
0.0
 10
95.118240
 20
92.954942
 30
0.0
  0
SPLINE
  5
1c7
100
AcDbEntity
  8
0
 62
7
100
AcDbSpline
 70
8
 71
3
 72
8
 73
4
 74
0
 40
0
 40
0
 40
0
 40
0
 40
1
 40
1
 40
1
 40
1
 10
95.118240
 20
92.954942
 30
0.0
 10
95.118240
 20
92.954942
 30
0.0
 10
94.473238
 20
95.981253
 30
0.0
 10
94.099933
 20
96.541264
 30
0.0
  0
SPLINE
  5
1c8
100
AcDbEntity
  8
0
 62
7
100
AcDbSpline
 70
8
 71
3
 72
8
 73
4
 74
0
 40
0
 40
0
 40
0
 40
0
 40
1
 40
1
 40
1
 40
1
 10
94.099933
 20
96.541264
 30
0.0
 10
93.568637
 20
97.338259
 30
0.0
 10
92.520773
 20
97.899007
 30
0.0
 10
92.107496
 20
97.958121
 30
0.0
  0
SPLINE
  5
1c9
100
AcDbEntity
  8
0
 62
7
100
AcDbSpline
 70
8
 71
3
 72
8
 73
4
 74
0
 40
0
 40
0
 40
0
 40
0
 40
1
 40
1
 40
1
 40
1
 10
92.107496
 20
97.958121
 30
0.0
 10
91.625639
 20
98.026913
 30
0.0
 10
91.089189
 20
97.648138
 30
0.0
 10
90.513611
 20
95.965685
 30
0.0
  0
SPLINE
  5
1ca
100
AcDbEntity
  8
0
 62
7
100
AcDbSpline
 70
8
 71
3
 72
8
 73
4
 74
0
 40
0
 40
0
 40
0
 40
0
 40
1
 40
1
 40
1
 40
1
 10
90.513611
 20
95.965685
 30
0.0
 10
90.375817
 20
95.562928
 30
0.0
 10
89.834739
 20
93.781390
 30
0.0
 10
89.716615
 20
93.309104
 30
0.0
  0
SPLINE
  5
1cb
100
AcDbEntity
  8
0
 62
7
100
AcDbSpline
 70
8
 71
3
 72
8
 73
4
 74
0
 40
0
 40
0
 40
0
 40
0
 40
1
 40
1
 40
1
 40
1
 10
89.716615
 20
93.309104
 30
0.0
 10
89.598596
 20
92.836818
 30
0.0
 10
89.126310
 20
89.412903
 30
0.0
 10
89.362453
 20
87.996046
 30
0.0
  0
SPLINE
  5
1cc
100
AcDbEntity
  8
0
 62
7
100
AcDbSpline
 70
8
 71
3
 72
8
 73
4
 74
0
 40
0
 40
0
 40
0
 40
0
 40
1
 40
1
 40
1
 40
1
 10
89.362453
 20
87.996046
 30
0.0
 10
89.598596
 20
86.579294
 30
0.0
 10
90.100334
 20
83.804588
 30
0.0
 10
90.336477
 20
83.391417
 30
0.0
  0
SPLINE
  5
1cd
100
AcDbEntity
  8
0
 62
7
100
AcDbSpline
 70
8
 71
3
 72
8
 73
4
 74
0
 40
0
 40
0
 40
0
 40
0
 40
1
 40
1
 40
1
 40
1
 10
90.336477
 20
83.391417
 30
0.0
 10
90.572620
 20
82.978140
 30
0.0
 10
91.192482
 20
81.384255
 30
0.0
 10
91.192482
 20
81.384255
 30
0.0
  0
SPLINE
  5
1ce
100
AcDbEntity
  8
0
 62
7
100
AcDbSpline
 70
8
 71
3
 72
8
 73
4
 74
0
 40
0
 40
0
 40
0
 40
0
 40
1
 40
1
 40
1
 40
1
 10
91.192482
 20
81.384255
 30
0.0
 10
91.192482
 20
81.384255
 30
0.0
 10
89.480472
 20
79.967397
 30
0.0
 10
89.067196
 20
79.554226
 30
0.0
  0
SPLINE
  5
1cf
100
AcDbEntity
  8
0
 62
7
100
AcDbSpline
 70
8
 71
3
 72
8
 73
4
 74
0
 40
0
 40
0
 40
0
 40
0
 40
1
 40
1
 40
1
 40
1
 10
89.067196
 20
79.554226
 30
0.0
 10
88.654025
 20
79.140949
 30
0.0
 10
87.296176
 20
76.897644
 30
0.0
 10
86.410719
 20
76.661501
 30
0.0
  0
SPLINE
  5
1d0
100
AcDbEntity
  8
0
 62
7
100
AcDbSpline
 70
8
 71
3
 72
8
 73
4
 74
0
 40
0
 40
0
 40
0
 40
0
 40
1
 40
1
 40
1
 40
1
 10
86.410719
 20
76.661501
 30
0.0
 10
85.525157
 20
76.425358
 30
0.0
 10
84.739417
 20
76.219825
 30
0.0
 10
84.167414
 20
76.425358
 30
0.0
  0
SPLINE
  5
1d1
100
AcDbEntity
  8
0
 62
7
100
AcDbSpline
 70
8
 71
3
 72
8
 73
4
 74
0
 40
0
 40
0
 40
0
 40
0
 40
1
 40
1
 40
1
 40
1
 10
84.167414
 20
76.425358
 30
0.0
 10
82.278271
 20
77.104230
 30
0.0
 10
76.168218
 20
78.875249
 30
0.0
 10
72.537612
 20
81.177564
 30
0.0
  0
SPLINE
  5
1d2
100
AcDbEntity
  8
0
 62
7
100
AcDbSpline
 70
8
 71
3
 72
8
 73
4
 74
0
 40
0
 40
0
 40
0
 40
0
 40
1
 40
1
 40
1
 40
1
 10
72.537612
 20
81.177564
 30
0.0
 10
71.574738
 20
81.788169
 30
0.0
 10
61.025934
 20
86.874446
 30
0.0
 10
58.900753
 20
87.228608
 30
0.0
  0
SPLINE
  5
1d3
100
AcDbEntity
  8
0
 62
7
100
AcDbSpline
 70
8
 71
3
 72
8
 73
4
 74
0
 40
0
 40
0
 40
0
 40
0
 40
1
 40
1
 40
1
 40
1
 10
58.900753
 20
87.228608
 30
0.0
 10
56.775467
 20
87.582875
 30
0.0
 10
54.118675
 20
88.301612
 30
0.0
 10
51.344390
 20
88.232189
 30
0.0
  0
SPLINE
  5
1d4
100
AcDbEntity
  8
0
 62
7
100
AcDbSpline
 70
8
 71
3
 72
8
 73
4
 74
0
 40
0
 40
0
 40
0
 40
0
 40
1
 40
1
 40
1
 40
1
 10
51.344390
 20
88.232189
 30
0.0
 10
48.982961
 20
88.173179
 30
0.0
 10
44.850828
 20
87.286565
 30
0.0
 10
43.492769
 20
86.933455
 30
0.0
  0
SPLINE
  5
1d5
100
AcDbEntity
  8
0
 62
7
100
AcDbSpline
 70
8
 71
3
 72
8
 73
4
 74
0
 40
0
 40
0
 40
0
 40
0
 40
1
 40
1
 40
1
 40
1
 10
43.492769
 20
86.933455
 30
0.0
 10
39.065169
 20
85.782298
 30
0.0
 10
35.584138
 20
83.343873
 30
0.0
 10
34.365662
 20
82.275602
 30
0.0
  0
SPLINE
  5
1d6
100
AcDbEntity
  8
0
 62
7
100
AcDbSpline
 70
8
 71
3
 72
8
 73
4
 74
0
 40
0
 40
0
 40
0
 40
0
 40
1
 40
1
 40
1
 40
1
 10
34.365662
 20
82.275602
 30
0.0
 10
32.231645
 20
80.404551
 30
0.0
 10
29.678777
 20
75.864506
 30
0.0
 10
28.793320
 20
73.901732
 30
0.0
  0
SPLINE
  5
1d7
100
AcDbEntity
  8
0
 62
7
100
AcDbSpline
 70
8
 71
3
 72
8
 73
4
 74
0
 40
0
 40
0
 40
0
 40
0
 40
1
 40
1
 40
1
 40
1
 10
28.793320
 20
73.901732
 30
0.0
 10
27.907758
 20
71.939064
 30
0.0
 10
27.701067
 20
69.134590
 30
0.0
 10
27.819191
 20
68.603295
 30
0.0
  0
SPLINE
  5
1d8
100
AcDbEntity
  8
0
 62
7
100
AcDbSpline
 70
8
 71
3
 72
8
 73
4
 74
0
 40
0
 40
0
 40
0
 40
0
 40
1
 40
1
 40
1
 40
1
 10
27.819191
 20
68.603295
 30
0.0
 10
27.937210
 20
68.072000
 30
0.0
 10
28.321034
 20
65.223664
 30
0.0
 10
28.498062
 20
64.574350
 30
0.0
  0
SPLINE
  5
1d9
100
AcDbEntity
  8
0
 62
7
100
AcDbSpline
 70
8
 71
3
 72
8
 73
4
 74
0
 40
0
 40
0
 40
0
 40
0
 40
1
 40
1
 40
1
 40
1
 10
28.498062
 20
64.574350
 30
0.0
 10
28.580213
 20
64.273202
 30
0.0
 10
28.725895
 20
63.896110
 30
0.0
 10
28.876101
 20
63.525013
 30
0.0
  0
SPLINE
  5
1da
100
AcDbEntity
  8
0
 62
7
100
AcDbSpline
 70
8
 71
3
 72
8
 73
4
 74
0
 40
0
 40
0
 40
0
 40
0
 40
1
 40
1
 40
1
 40
1
 10
28.876101
 20
63.525013
 30
0.0
 10
28.917755
 20
63.278772
 30
0.0
 10
28.806678
 20
62.648391
 30
0.0
 10
28.571903
 20
62.537525
 30
0.0
  0
SPLINE
  5
1db
100
AcDbEntity
  8
0
 62
7
100
AcDbSpline
 70
8
 71
3
 72
8
 73
4
 74
0
 40
0
 40
0
 40
0
 40
0
 40
1
 40
1
 40
1
 40
1
 10
28.571903
 20
62.537525
 30
0.0
 10
28.121285
 20
62.324839
 30
0.0
 10
26.889345
 20
61.917663
 30
0.0
 10
25.865148
 20
62.352503
 30
0.0
  0
SPLINE
  5
1dc
100
AcDbEntity
  8
0
 62
7
100
AcDbSpline
 70
8
 71
3
 72
8
 73
4
 74
0
 40
0
 40
0
 40
0
 40
0
 40
1
 40
1
 40
1
 40
1
 10
25.865148
 20
62.352503
 30
0.0
 10
25.005882
 20
62.717288
 30
0.0
 10
22.304491
 20
64.060936
 30
0.0
 10
22.278931
 20
64.477684
 30
0.0
  0
SPLINE
  5
1dd
100
AcDbEntity
  8
0
 62
7
100
AcDbSpline
 70
8
 71
3
 72
8
 73
4
 74
0
 40
0
 40
0
 40
0
 40
0
 40
1
 40
1
 40
1
 40
1
 10
22.278931
 20
64.477684
 30
0.0
 10
22.240433
 20
65.105540
 30
0.0
 10
21.133559
 20
65.902430
 30
0.0
 10
21.133559
 20
65.902430
 30
0.0
  0
SPLINE
  5
1de
100
AcDbEntity
  8
0
 62
7
100
AcDbSpline
 70
8
 71
3
 72
8
 73
4
 74
0
 40
0
 40
0
 40
0
 40
0
 40
1
 40
1
 40
1
 40
1
 10
21.133559
 20
65.902430
 30
0.0
 10
21.133559
 20
65.902430
 30
0.0
 10
20.817895
 20
61.821207
 30
0.0
 10
22.594069
 20
59.708754
 30
0.0
  0
SPLINE
  5
1df
100
AcDbEntity
  8
0
 62
7
100
AcDbSpline
 70
8
 71
3
 72
8
 73
4
 74
0
 40
0
 40
0
 40
0
 40
0
 40
1
 40
1
 40
1
 40
1
 10
22.594069
 20
59.708754
 30
0.0
 10
23.282091
 20
58.890406
 30
0.0
 10
25.834223
 20
56.299881
 30
0.0
 10
26.718733
 20
56.001678
 30
0.0
  0
SPLINE
  5
1e0
100
AcDbEntity
  8
0
 62
7
100
AcDbSpline
 70
8
 71
3
 72
8
 73
4
 74
0
 40
0
 40
0
 40
0
 40
0
 40
1
 40
1
 40
1
 40
1
 10
26.718733
 20
56.001678
 30
0.0
 10
27.819191
 20
55.630581
 30
0.0
 10
30.353230
 20
55.746391
 30
0.0
 10
30.968569
 20
55.906485
 30
0.0
  0
SPLINE
  5
1e1
100
AcDbEntity
  8
0
 62
7
100
AcDbSpline
 70
8
 71
3
 72
8
 73
4
 74
0
 40
0
 40
0
 40
0
 40
0
 40
1
 40
1
 40
1
 40
1
 10
30.968569
 20
55.906485
 30
0.0
 10
31.583908
 20
56.066578
 30
0.0
 10
32.204296
 20
56.816871
 30
0.0
 10
32.204296
 20
56.816871
 30
0.0
  0
LWPOLYLINE
  5
1e2
100
AcDbEntity
  8
0
 62
7
100
AcDbPolyline
 90
2
 70
0
 10
96.446531
 20
81.679407
 30
0.0
 10
96.210388
 20
82.151693
 30
0.0
  0
SPLINE
  5
1e3
100
AcDbEntity
  8
0
 62
7
100
AcDbSpline
 70
8
 71
3
 72
8
 73
4
 74
0
 40
0
 40
0
 40
0
 40
0
 40
1
 40
1
 40
1
 40
1
 10
35.560997
 20
55.047324
 30
0.0
 10
35.560997
 20
55.047324
 30
0.0
 10
39.545659
 20
53.719139
 30
0.0
 10
42.467625
 20
53.586394
 30
0.0
  0
SPLINE
  5
1e4
100
AcDbEntity
  8
0
 62
7
100
AcDbSpline
 70
8
 71
3
 72
8
 73
4
 74
0
 40
0
 40
0
 40
0
 40
0
 40
1
 40
1
 40
1
 40
1
 10
42.467625
 20
53.586394
 30
0.0
 10
45.389697
 20
53.453544
 30
0.0
 10
48.555484
 20
55.313024
 30
0.0
 10
50.171249
 20
55.313024
 30
0.0
  0
SPLINE
  5
1e5
100
AcDbEntity
  8
0
 62
7
100
AcDbSpline
 70
8
 71
3
 72
8
 73
4
 74
0
 40
0
 40
0
 40
0
 40
0
 40
1
 40
1
 40
1
 40
1
 10
50.171249
 20
55.313024
 30
0.0
 10
52.163580
 20
55.313024
 30
0.0
 10
52.731690
 20
54.464593
 30
0.0
 10
52.731690
 20
54.464593
 30
0.0
  0
SPLINE
  5
1e6
100
AcDbEntity
  8
0
 62
7
100
AcDbSpline
 70
8
 71
3
 72
8
 73
4
 74
0
 40
0
 40
0
 40
0
 40
0
 40
1
 40
1
 40
1
 40
1
 10
52.731690
 20
54.464593
 30
0.0
 10
52.731690
 20
54.464593
 30
0.0
 10
52.997285
 20
53.461012
 30
0.0
 10
52.879266
 20
52.870707
 30
0.0
  0
SPLINE
  5
1e7
100
AcDbEntity
  8
0
 62
7
100
AcDbSpline
 70
8
 71
3
 72
8
 73
4
 74
0
 40
0
 40
0
 40
0
 40
0
 40
1
 40
1
 40
1
 40
1
 10
52.879266
 20
52.870707
 30
0.0
 10
52.761142
 20
52.280297
 30
0.0
 10
52.288857
 20
51.867126
 30
0.0
 10
52.170838
 20
51.630983
 30
0.0
  0
SPLINE
  5
1e8
100
AcDbEntity
  8
0
 62
7
100
AcDbSpline
 70
8
 71
3
 72
8
 73
4
 74
0
 40
0
 40
0
 40
0
 40
0
 40
1
 40
1
 40
1
 40
1
 10
52.170838
 20
51.630983
 30
0.0
 10
52.052714
 20
51.394840
 30
0.0
 10
52.465990
 20
50.804430
 30
0.0
 10
52.347971
 20
50.214126
 30
0.0
  0
SPLINE
  5
1e9
100
AcDbEntity
  8
0
 62
7
100
AcDbSpline
 70
8
 71
3
 72
8
 73
4
 74
0
 40
0
 40
0
 40
0
 40
0
 40
1
 40
1
 40
1
 40
1
 10
52.347971
 20
50.214126
 30
0.0
 10
52.229847
 20
49.623821
 30
0.0
 10
51.757561
 20
47.852802
 30
0.0
 10
51.580428
 20
47.616659
 30
0.0
  0
SPLINE
  5
1ea
100
AcDbEntity
  8
0
 62
7
100
AcDbSpline
 70
8
 71
3
 72
8
 73
4
 74
0
 40
0
 40
0
 40
0
 40
0
 40
1
 40
1
 40
1
 40
1
 10
51.580428
 20
47.616659
 30
0.0
 10
51.403399
 20
47.380516
 30
0.0
 10
50.931114
 20
46.081677
 30
0.0
 10
51.108247
 20
45.727515
 30
0.0
  0
SPLINE
  5
1eb
100
AcDbEntity
  8
0
 62
7
100
AcDbSpline
 70
8
 71
3
 72
8
 73
4
 74
0
 40
0
 40
0
 40
0
 40
0
 40
1
 40
1
 40
1
 40
1
 10
51.108247
 20
45.727515
 30
0.0
 10
51.285275
 20
45.373353
 30
0.0
 10
52.997285
 20
44.251648
 30
0.0
 10
53.469571
 20
44.015505
 30
0.0
  0
SPLINE
  5
1ec
100
AcDbEntity
  8
0
 62
7
100
AcDbSpline
 70
8
 71
3
 72
8
 73
4
 74
0
 40
0
 40
0
 40
0
 40
0
 40
1
 40
1
 40
1
 40
1
 10
53.469571
 20
44.015505
 30
0.0
 10
53.941857
 20
43.779362
 30
0.0
 10
56.952600
 20
43.248067
 30
0.0
 10
56.952600
 20
43.248067
 30
0.0
  0
SPLINE
  5
1ed
100
AcDbEntity
  8
0
 62
7
100
AcDbSpline
 70
8
 71
3
 72
8
 73
4
 74
0
 40
0
 40
0
 40
0
 40
0
 40
1
 40
1
 40
1
 40
1
 10
56.952600
 20
43.248067
 30
0.0
 10
56.952600
 20
43.248067
 30
0.0
 10
55.712876
 20
40.001181
 30
0.0
 10
55.476733
 20
39.706029
 30
0.0
  0
SPLINE
  5
1ee
100
AcDbEntity
  8
0
 62
7
100
AcDbSpline
 70
8
 71
3
 72
8
 73
4
 74
0
 40
0
 40
0
 40
0
 40
0
 40
1
 40
1
 40
1
 40
1
 10
55.476733
 20
39.706029
 30
0.0
 10
55.240590
 20
39.410876
 30
0.0
 10
54.591276
 20
38.879581
 30
0.0
 10
54.414143
 20
38.643438
 30
0.0
  0
SPLINE
  5
1ef
100
AcDbEntity
  8
0
 62
7
100
AcDbSpline
 70
8
 71
3
 72
8
 73
4
 74
0
 40
0
 40
0
 40
0
 40
0
 40
1
 40
1
 40
1
 40
1
 10
54.414143
 20
38.643438
 30
0.0
 10
54.237009
 20
38.407295
 30
0.0
 10
54.000866
 20
37.344599
 30
0.0
 10
53.823838
 20
36.990438
 30
0.0
  0
SPLINE
  5
1f0
100
AcDbEntity
  8
0
 62
7
100
AcDbSpline
 70
8
 71
3
 72
8
 73
4
 74
0
 40
0
 40
0
 40
0
 40
0
 40
1
 40
1
 40
1
 40
1
 10
53.823838
 20
36.990438
 30
0.0
 10
53.646705
 20
36.636276
 30
0.0
 10
53.239319
 20
34.305771
 30
0.0
 10
52.801534
 20
33.982324
 30
0.0
  0
SPLINE
  5
1f1
100
AcDbEntity
  8
0
 62
7
100
AcDbSpline
 70
8
 71
3
 72
8
 73
4
 74
0
 40
0
 40
0
 40
0
 40
0
 40
1
 40
1
 40
1
 40
1
 10
52.801534
 20
33.982324
 30
0.0
 10
52.363854
 20
33.658771
 30
0.0
 10
52.257406
 20
33.531496
 30
0.0
 10
51.814046
 20
33.232767
 30
0.0
  0
SPLINE
  5
1f2
100
AcDbEntity
  8
0
 62
7
100
AcDbSpline
 70
8
 71
3
 72
8
 73
4
 74
0
 40
0
 40
0
 40
0
 40
0
 40
1
 40
1
 40
1
 40
1
 10
51.814046
 20
33.232767
 30
0.0
 10
51.370792
 20
32.933934
 30
0.0
 10
47.698743
 20
31.757216
 30
0.0
 10
47.967704
 20
30.436814
 30
0.0
  0
SPLINE
  5
1f3
100
AcDbEntity
  8
0
 62
7
100
AcDbSpline
 70
8
 71
3
 72
8
 73
4
 74
0
 40
0
 40
0
 40
0
 40
0
 40
1
 40
1
 40
1
 40
1
 10
47.967704
 20
30.436814
 30
0.0
 10
47.967704
 20
30.436814
 30
0.0
 10
48.555800
 20
28.922765
 30
0.0
 10
48.989693
 20
28.594058
 30
0.0
  0
SPLINE
  5
1f4
100
AcDbEntity
  8
0
 62
7
100
AcDbSpline
 70
8
 71
3
 72
8
 73
4
 74
0
 40
0
 40
0
 40
0
 40
0
 40
1
 40
1
 40
1
 40
1
 10
48.989693
 20
28.594058
 30
0.0
 10
49.423480
 20
28.265456
 30
0.0
 10
50.471135
 20
27.760878
 30
0.0
 10
50.817618
 20
27.900040
 30
0.0
  0
SPLINE
  5
1f5
100
AcDbEntity
  8
0
 62
7
100
AcDbSpline
 70
8
 71
3
 72
8
 73
4
 74
0
 40
0
 40
0
 40
0
 40
0
 40
1
 40
1
 40
1
 40
1
 10
50.817618
 20
27.900040
 30
0.0
 10
51.164101
 20
28.039306
 30
0.0
 10
53.470728
 20
28.908985
 30
0.0
 10
54.361445
 20
29.045517
 30
0.0
  0
SPLINE
  5
1f6
100
AcDbEntity
  8
0
 62
7
100
AcDbSpline
 70
8
 71
3
 72
8
 73
4
 74
0
 40
0
 40
0
 40
0
 40
0
 40
1
 40
1
 40
1
 40
1
 10
54.361445
 20
29.045517
 30
0.0
 10
55.252161
 20
29.181943
 30
0.0
 10
57.956181
 20
33.212256
 30
0.0
 10
57.956181
 20
33.212256
 30
0.0
  0
SPLINE
  5
1f7
100
AcDbEntity
  8
0
 62
7
100
AcDbSpline
 70
8
 71
3
 72
8
 73
4
 74
0
 40
0
 40
0
 40
0
 40
0
 40
1
 40
1
 40
1
 40
1
 10
57.956181
 20
33.212256
 30
0.0
 10
57.956181
 20
33.212256
 30
0.0
 10
59.195905
 20
32.680961
 30
0.0
 10
59.668191
 20
32.739970
 30
0.0
  0
SPLINE
  5
1f8
100
AcDbEntity
  8
0
 62
7
100
AcDbSpline
 70
8
 71
3
 72
8
 73
4
 74
0
 40
0
 40
0
 40
0
 40
0
 40
1
 40
1
 40
1
 40
1
 10
59.668191
 20
32.739970
 30
0.0
 10
60.140477
 20
32.799085
 30
0.0
 10
65.984830
 20
36.045866
 30
0.0
 10
66.457116
 20
36.400133
 30
0.0
  0
SPLINE
  5
1f9
100
AcDbEntity
  8
0
 62
7
100
AcDbSpline
 70
8
 71
3
 72
8
 73
4
 74
0
 40
0
 40
0
 40
0
 40
0
 40
1
 40
1
 40
1
 40
1
 10
66.457116
 20
36.400133
 30
0.0
 10
66.929402
 20
36.754295
 30
0.0
 10
68.582297
 20
37.935009
 30
0.0
 10
68.700421
 20
38.230162
 30
0.0
  0
SPLINE
  5
1fa
100
AcDbEntity
  8
0
 62
7
100
AcDbSpline
 70
8
 71
3
 72
8
 73
4
 74
0
 40
0
 40
0
 40
0
 40
0
 40
1
 40
1
 40
1
 40
1
 10
68.700421
 20
38.230162
 30
0.0
 10
68.818440
 20
38.525419
 30
0.0
 10
68.995574
 20
38.761457
 30
0.0
 10
68.995574
 20
38.761457
 30
0.0
  0
SPLINE
  5
1fb
100
AcDbEntity
  8
0
 62
7
100
AcDbSpline
 70
8
 71
3
 72
8
 73
4
 74
0
 40
0
 40
0
 40
0
 40
0
 40
1
 40
1
 40
1
 40
1
 10
68.995574
 20
38.761457
 30
0.0
 10
68.995574
 20
38.761457
 30
0.0
 10
70.707583
 20
38.466305
 30
0.0
 10
71.475022
 20
38.348181
 30
0.0
  0
SPLINE
  5
1fc
100
AcDbEntity
  8
0
 62
7
100
AcDbSpline
 70
8
 71
3
 72
8
 73
4
 74
0
 40
0
 40
0
 40
0
 40
0
 40
1
 40
1
 40
1
 40
1
 10
71.475022
 20
38.348181
 30
0.0
 10
72.242460
 20
38.230162
 30
0.0
 10
74.721908
 20
37.964461
 30
0.0
 10
75.076175
 20
37.964461
 30
0.0
  0
SPLINE
  5
1fd
100
AcDbEntity
  8
0
 62
7
100
AcDbSpline
 70
8
 71
3
 72
8
 73
4
 74
0
 40
0
 40
0
 40
0
 40
0
 40
1
 40
1
 40
1
 40
1
 10
75.076175
 20
37.964461
 30
0.0
 10
75.430337
 20
37.964461
 30
0.0
 10
76.492927
 20
38.141595
 30
0.0
 10
76.492927
 20
38.141595
 30
0.0
  0
LWPOLYLINE
  5
1fe
100
AcDbEntity
  8
0
 62
7
100
AcDbPolyline
 90
2
 70
0
 10
32.204296
 20
56.816871
 30
0.0
 10
35.560997
 20
55.047324
 30
0.0
  0
SPLINE
  5
1ff
100
AcDbEntity
  8
0
 62
7
100
AcDbSpline
 70
8
 71
3
 72
8
 73
4
 74
0
 40
0
 40
0
 40
0
 40
0
 40
1
 40
1
 40
1
 40
1
 10
80.507252
 20
38.082585
 30
0.0
 10
80.507252
 20
38.082585
 30
0.0
 10
82.101243
 20
38.318728
 30
0.0
 10
82.337386
 20
38.436747
 30
0.0
  0
SPLINE
  5
200
100
AcDbEntity
  8
0
 62
7
100
AcDbSpline
 70
8
 71
3
 72
8
 73
4
 74
0
 40
0
 40
0
 40
0
 40
0
 40
1
 40
1
 40
1
 40
1
 10
82.337386
 20
38.436747
 30
0.0
 10
82.573423
 20
38.554871
 30
0.0
 10
82.337386
 20
39.381319
 30
0.0
 10
82.337386
 20
39.381319
 30
0.0
  0
LWPOLYLINE
  5
201
100
AcDbEntity
  8
0
 62
7
100
AcDbPolyline
 90
3
 70
0
 10
76.492927
 20
38.141595
 30
0.0
 10
78.382071
 20
38.053028
 30
0.0
 10
80.507252
 20
38.082585
 30
0.0
  0
SPLINE
  5
202
100
AcDbEntity
  8
0
 62
7
100
AcDbSpline
 70
8
 71
3
 72
8
 73
4
 74
0
 40
0
 40
0
 40
0
 40
0
 40
1
 40
1
 40
1
 40
1
 10
82.337386
 20
40.857186
 30
0.0
 10
82.337386
 20
40.857186
 30
0.0
 10
82.160252
 20
41.152338
 30
0.0
 10
82.160252
 20
41.447491
 30
0.0
  0
SPLINE
  5
203
100
AcDbEntity
  8
0
 62
7
100
AcDbSpline
 70
8
 71
3
 72
8
 73
4
 74
0
 40
0
 40
0
 40
0
 40
0
 40
1
 40
1
 40
1
 40
1
 10
82.160252
 20
41.447491
 30
0.0
 10
82.160252
 20
41.742748
 30
0.0
 10
80.802404
 20
42.451072
 30
0.0
 10
80.330223
 20
42.569196
 30
0.0
  0
SPLINE
  5
204
100
AcDbEntity
  8
0
 62
7
100
AcDbSpline
 70
8
 71
3
 72
8
 73
4
 74
0
 40
0
 40
0
 40
0
 40
0
 40
1
 40
1
 40
1
 40
1
 10
80.330223
 20
42.569196
 30
0.0
 10
79.857937
 20
42.687215
 30
0.0
 10
78.204937
 20
42.923463
 30
0.0
 10
78.027804
 20
43.159500
 30
0.0
  0
SPLINE
  5
205
100
AcDbEntity
  8
0
 62
7
100
AcDbSpline
 70
8
 71
3
 72
8
 73
4
 74
0
 40
0
 40
0
 40
0
 40
0
 40
1
 40
1
 40
1
 40
1
 10
78.027804
 20
43.159500
 30
0.0
 10
77.850775
 20
43.395643
 30
0.0
 10
78.299710
 20
43.713306
 30
0.0
 10
78.063567
 20
43.890439
 30
0.0
  0
SPLINE
  5
206
100
AcDbEntity
  8
0
 62
7
100
AcDbSpline
 70
8
 71
3
 72
8
 73
4
 74
0
 40
0
 40
0
 40
0
 40
0
 40
1
 40
1
 40
1
 40
1
 10
78.063567
 20
43.890439
 30
0.0
 10
77.957329
 20
43.970065
 30
0.0
 10
77.662808
 20
44.131841
 30
0.0
 10
77.083337
 20
44.458234
 30
0.0
  0
SPLINE
  5
207
100
AcDbEntity
  8
0
 62
7
100
AcDbSpline
 70
8
 71
3
 72
8
 73
4
 74
0
 40
0
 40
0
 40
0
 40
0
 40
1
 40
1
 40
1
 40
1
 10
77.083337
 20
44.458234
 30
0.0
 10
76.374698
 20
44.857521
 30
0.0
 10
73.789222
 20
45.491372
 30
0.0
 10
73.659317
 20
45.491372
 30
0.0
  0
SPLINE
  5
208
100
AcDbEntity
  8
0
 62
7
100
AcDbSpline
 70
8
 71
3
 72
8
 73
4
 74
0
 40
0
 40
0
 40
0
 40
0
 40
1
 40
1
 40
1
 40
1
 10
73.659317
 20
45.491372
 30
0.0
 10
73.423174
 20
45.491372
 30
0.0
 10
69.408850
 20
45.609496
 30
0.0
 10
69.349841
 20
45.786525
 30
0.0
  0
SPLINE
  5
209
100
AcDbEntity
  8
0
 62
7
100
AcDbSpline
 70
8
 71
3
 72
8
 73
4
 74
0
 40
0
 40
0
 40
0
 40
0
 40
1
 40
1
 40
1
 40
1
 10
69.349841
 20
45.786525
 30
0.0
 10
69.290726
 20
45.963658
 30
0.0
 10
69.231717
 20
48.620240
 30
0.0
 10
69.349841
 20
48.856383
 30
0.0
  0
SPLINE
  5
20a
100
AcDbEntity
  8
0
 62
7
100
AcDbSpline
 70
8
 71
3
 72
8
 73
4
 74
0
 40
0
 40
0
 40
0
 40
0
 40
1
 40
1
 40
1
 40
1
 10
69.349841
 20
48.856383
 30
0.0
 10
69.467859
 20
49.092420
 30
0.0
 10
70.530450
 20
49.741840
 30
0.0
 10
71.061745
 20
49.741840
 30
0.0
  0
SPLINE
  5
20b
100
AcDbEntity
  8
0
 62
7
100
AcDbSpline
 70
8
 71
3
 72
8
 73
4
 74
0
 40
0
 40
0
 40
0
 40
0
 40
1
 40
1
 40
1
 40
1
 10
71.061745
 20
49.741840
 30
0.0
 10
71.593146
 20
49.741840
 30
0.0
 10
75.902622
 20
50.214126
 30
0.0
 10
77.496508
 20
50.509278
 30
0.0
  0
SPLINE
  5
20c
100
AcDbEntity
  8
0
 62
7
100
AcDbSpline
 70
8
 71
3
 72
8
 73
4
 74
0
 40
0
 40
0
 40
0
 40
0
 40
1
 40
1
 40
1
 40
1
 10
77.496508
 20
50.509278
 30
0.0
 10
79.090499
 20
50.804430
 30
0.0
 10
85.289014
 20
54.641726
 30
0.0
 10
85.761300
 20
54.936879
 30
0.0
  0
SPLINE
  5
20d
100
AcDbEntity
  8
0
 62
7
100
AcDbSpline
 70
8
 71
3
 72
8
 73
4
 74
0
 40
0
 40
0
 40
0
 40
0
 40
1
 40
1
 40
1
 40
1
 10
85.761300
 20
54.936879
 30
0.0
 10
86.233586
 20
55.232031
 30
0.0
 10
89.893749
 20
58.419908
 30
0.0
 10
90.779206
 20
59.010213
 30
0.0
  0
SPLINE
  5
20e
100
AcDbEntity
  8
0
 62
7
100
AcDbSpline
 70
8
 71
3
 72
8
 73
4
 74
0
 40
0
 40
0
 40
0
 40
0
 40
1
 40
1
 40
1
 40
1
 10
90.779206
 20
59.010213
 30
0.0
 10
91.664768
 20
59.600622
 30
0.0
 10
93.258654
 20
60.899356
 30
0.0
 10
93.671930
 20
61.076489
 30
0.0
  0
SPLINE
  5
20f
100
AcDbEntity
  8
0
 62
7
100
AcDbSpline
 70
8
 71
3
 72
8
 73
4
 74
0
 40
0
 40
0
 40
0
 40
0
 40
1
 40
1
 40
1
 40
1
 10
93.671930
 20
61.076489
 30
0.0
 10
94.085207
 20
61.253518
 30
0.0
 10
96.741683
 20
63.614842
 30
0.0
 10
97.213969
 20
63.614842
 30
0.0
  0
SPLINE
  5
210
100
AcDbEntity
  8
0
 62
7
100
AcDbSpline
 70
8
 71
3
 72
8
 73
4
 74
0
 40
0
 40
0
 40
0
 40
0
 40
1
 40
1
 40
1
 40
1
 10
97.213969
 20
63.614842
 30
0.0
 10
97.686255
 20
63.614842
 30
0.0
 10
99.221131
 20
63.732966
 30
0.0
 10
99.693417
 20
63.791975
 30
0.0
  0
SPLINE
  5
211
100
AcDbEntity
  8
0
 62
7
100
AcDbSpline
 70
8
 71
3
 72
8
 73
4
 74
0
 40
0
 40
0
 40
0
 40
0
 40
1
 40
1
 40
1
 40
1
 10
99.693417
 20
63.791975
 30
0.0
 10
100.165703
 20
63.851090
 30
0.0
 10
101.051160
 20
63.969109
 30
0.0
 10
101.405427
 20
63.910099
 30
0.0
  0
SPLINE
  5
212
100
AcDbEntity
  8
0
 62
7
100
AcDbSpline
 70
8
 71
3
 72
8
 73
4
 74
0
 40
0
 40
0
 40
0
 40
0
 40
1
 40
1
 40
1
 40
1
 10
101.405427
 20
63.910099
 30
0.0
 10
101.529231
 20
63.889483
 30
0.0
 10
101.740339
 20
63.781667
 30
0.0
 10
101.979217
 20
63.650921
 30
0.0
  0
LWPOLYLINE
  5
213
100
AcDbEntity
  8
0
 62
7
100
AcDbPolyline
 90
3
 70
0
 10
82.337386
 20
39.381319
 30
0.0
 10
82.927690
 20
40.325891
 30
0.0
 10
82.337386
 20
40.857186
 30
0.0
  0
SPLINE
  5
214
100
AcDbEntity
  8
0
 62
7
100
AcDbSpline
 70
8
 71
3
 72
8
 73
4
 74
0
 40
0
 40
0
 40
0
 40
0
 40
1
 40
1
 40
1
 40
1
 10
102.120272
 20
63.573188
 30
0.0
 10
102.201055
 20
63.528484
 30
0.0
 10
102.283205
 20
63.483043
 30
0.0
 10
102.365566
 20
63.437919
 30
0.0
  0
LWPOLYLINE
  5
215
100
AcDbEntity
  8
0
 62
7
100
AcDbPolyline
 90
3
 70
0
 10
101.979217
 20
63.650921
 30
0.0
 10
99.752426
 20
58.656051
 30
0.0
 10
102.120272
 20
63.573188
 30
0.0
  0
SPLINE
  5
216
100
AcDbEntity
  8
0
 62
7
100
AcDbSpline
 70
8
 71
3
 72
8
 73
4
 74
0
 40
0
 40
0
 40
0
 40
0
 40
1
 40
1
 40
1
 40
1
 10
102.474118
 20
63.379435
 30
0.0
 10
102.775266
 20
63.218605
 30
0.0
 10
103.062424
 20
63.083652
 30
0.0
 10
103.235455
 20
63.083652
 30
0.0
  0
SPLINE
  5
217
100
AcDbEntity
  8
0
 62
7
100
AcDbSpline
 70
8
 71
3
 72
8
 73
4
 74
0
 40
0
 40
0
 40
0
 40
0
 40
1
 40
1
 40
1
 40
1
 10
103.235455
 20
63.083652
 30
0.0
 10
103.407540
 20
63.083652
 30
0.0
 10
104.054014
 20
63.155389
 30
0.0
 10
104.589727
 20
63.256052
 30
0.0
  0
SPLINE
  5
218
100
AcDbEntity
  8
0
 62
7
100
AcDbSpline
 70
8
 71
3
 72
8
 73
4
 74
0
 40
0
 40
0
 40
0
 40
0
 40
1
 40
1
 40
1
 40
1
 10
104.589727
 20
63.256052
 30
0.0
 10
104.526405
 20
62.688362
 30
0.0
 10
104.755395
 20
61.489135
 30
0.0
 10
104.876780
 20
60.912609
 30
0.0
  0
SPLINE
  5
219
100
AcDbEntity
  8
0
 62
7
100
AcDbSpline
 70
8
 71
3
 72
8
 73
4
 74
0
 40
0
 40
0
 40
0
 40
0
 40
1
 40
1
 40
1
 40
1
 10
104.876780
 20
60.912609
 30
0.0
 10
104.803886
 20
61.327990
 30
0.0
 10
104.717739
 20
62.135504
 30
0.0
 10
104.846276
 20
63.288239
 30
0.0
  0
SPLINE
  5
21a
100
AcDbEntity
  8
0
 62
7
100
AcDbSpline
 70
8
 71
3
 72
8
 73
4
 74
0
 40
0
 40
0
 40
0
 40
0
 40
1
 40
1
 40
1
 40
1
 10
104.846276
 20
63.288239
 30
0.0
 10
105.556177
 20
63.426033
 30
0.0
 10
106.072326
 20
63.605375
 30
0.0
 10
106.423332
 20
63.732966
 30
0.0
  0
SPLINE
  5
21b
100
AcDbEntity
  8
0
 62
7
100
AcDbSpline
 70
8
 71
3
 72
8
 73
4
 74
0
 40
0
 40
0
 40
0
 40
0
 40
1
 40
1
 40
1
 40
1
 10
106.423332
 20
63.732966
 30
0.0
 10
107.072646
 20
63.969109
 30
0.0
 10
108.253361
 20
65.149823
 30
0.0
 10
108.312370
 20
65.385966
 30
0.0
  0
SPLINE
  5
21c
100
AcDbEntity
  8
0
 62
7
100
AcDbSpline
 70
8
 71
3
 72
8
 73
4
 74
0
 40
0
 40
0
 40
0
 40
0
 40
1
 40
1
 40
1
 40
1
 10
108.312370
 20
65.385966
 30
0.0
 10
108.371485
 20
65.622109
 30
0.0
 10
108.371485
 20
65.976271
 30
0.0
 10
108.371485
 20
65.976271
 30
0.0
  0
SPLINE
  5
21d
100
AcDbEntity
  8
0
 62
7
100
AcDbSpline
 70
8
 71
3
 72
8
 73
4
 74
0
 40
0
 40
0
 40
0
 40
0
 40
1
 40
1
 40
1
 40
1
 10
108.371485
 20
65.976271
 30
0.0
 10
108.371485
 20
65.976271
 30
0.0
 10
108.989454
 20
66.002778
 30
0.0
 10
109.242216
 20
66.345264
 30
0.0
  0
SPLINE
  5
21e
100
AcDbEntity
  8
0
 62
7
100
AcDbSpline
 70
8
 71
3
 72
8
 73
4
 74
0
 40
0
 40
0
 40
0
 40
0
 40
1
 40
1
 40
1
 40
1
 10
109.242216
 20
66.345264
 30
0.0
 10
109.699776
 20
66.965126
 30
0.0
 10
109.729228
 20
67.407855
 30
0.0
 10
109.729228
 20
67.762121
 30
0.0
  0
SPLINE
  5
21f
100
AcDbEntity
  8
0
 62
7
100
AcDbSpline
 70
8
 71
3
 72
8
 73
4
 74
0
 40
0
 40
0
 40
0
 40
0
 40
1
 40
1
 40
1
 40
1
 10
109.729228
 20
67.762121
 30
0.0
 10
109.729228
 20
68.116283
 30
0.0
 10
109.315951
 20
68.868995
 30
0.0
 10
109.079914
 20
69.164148
 30
0.0
  0
SPLINE
  5
220
100
AcDbEntity
  8
0
 62
7
100
AcDbSpline
 70
8
 71
3
 72
8
 73
4
 74
0
 40
0
 40
0
 40
0
 40
0
 40
1
 40
1
 40
1
 40
1
 10
5.926667
 20
22.577782
 30
0.0
 10
5.926667
 20
22.421912
 30
0.0
 10
5.800311
 20
22.295555
 30
0.0
 10
5.644444
 20
22.295555
 30
0.0
  0
SPLINE
  5
221
100
AcDbEntity
  8
0
 62
7
100
AcDbSpline
 70
8
 71
3
 72
8
 73
4
 74
0
 40
0
 40
0
 40
0
 40
0
 40
1
 40
1
 40
1
 40
1
 10
5.644444
 20
22.295555
 30
0.0
 10
5.488577
 20
22.295555
 30
0.0
 10
5.362222
 20
22.421912
 30
0.0
 10
5.362222
 20
22.577782
 30
0.0
  0
SPLINE
  5
222
100
AcDbEntity
  8
0
 62
7
100
AcDbSpline
 70
8
 71
3
 72
8
 73
4
 74
0
 40
0
 40
0
 40
0
 40
0
 40
1
 40
1
 40
1
 40
1
 10
5.362222
 20
22.577782
 30
0.0
 10
5.362222
 20
22.733651
 30
0.0
 10
5.488577
 20
22.860008
 30
0.0
 10
5.644444
 20
22.860008
 30
0.0
  0
SPLINE
  5
223
100
AcDbEntity
  8
0
 62
7
100
AcDbSpline
 70
8
 71
3
 72
8
 73
4
 74
0
 40
0
 40
0
 40
0
 40
0
 40
1
 40
1
 40
1
 40
1
 10
5.644444
 20
22.860008
 30
0.0
 10
5.800311
 20
22.860008
 30
0.0
 10
5.926667
 20
22.733651
 30
0.0
 10
5.926667
 20
22.577782
 30
0.0
  0
LWPOLYLINE
  5
224
100
AcDbEntity
  8
0
 62
7
100
AcDbPolyline
 90
3
 70
0
 10
102.365566
 20
63.437919
 30
0.0
 10
100.815122
 20
55.704317
 30
0.0
 10
102.474118
 20
63.379435
 30
0.0
  0
SPLINE
  5
225
100
AcDbEntity
  8
0
 62
7
100
AcDbSpline
 70
8
 71
3
 72
8
 73
4
 74
0
 40
0
 40
0
 40
0
 40
0
 40
1
 40
1
 40
1
 40
1
 10
22.860000
 20
5.644450
 30
0.0
 10
22.860000
 20
5.488579
 30
0.0
 10
22.733645
 20
5.362222
 30
0.0
 10
22.577777
 20
5.362222
 30
0.0
  0
SPLINE
  5
226
100
AcDbEntity
  8
0
 62
7
100
AcDbSpline
 70
8
 71
3
 72
8
 73
4
 74
0
 40
0
 40
0
 40
0
 40
0
 40
1
 40
1
 40
1
 40
1
 10
22.577777
 20
5.362222
 30
0.0
 10
22.421911
 20
5.362222
 30
0.0
 10
22.295556
 20
5.488579
 30
0.0
 10
22.295556
 20
5.644450
 30
0.0
  0
SPLINE
  5
227
100
AcDbEntity
  8
0
 62
7
100
AcDbSpline
 70
8
 71
3
 72
8
 73
4
 74
0
 40
0
 40
0
 40
0
 40
0
 40
1
 40
1
 40
1
 40
1
 10
22.295556
 20
5.644450
 30
0.0
 10
22.295556
 20
5.800319
 30
0.0
 10
22.421911
 20
5.926675
 30
0.0
 10
22.577777
 20
5.926675
 30
0.0
  0
SPLINE
  5
228
100
AcDbEntity
  8
0
 62
7
100
AcDbSpline
 70
8
 71
3
 72
8
 73
4
 74
0
 40
0
 40
0
 40
0
 40
0
 40
1
 40
1
 40
1
 40
1
 10
22.577777
 20
5.926675
 30
0.0
 10
22.733645
 20
5.926675
 30
0.0
 10
22.860000
 20
5.800319
 30
0.0
 10
22.860000
 20
5.644450
 30
0.0
  0
LWPOLYLINE
  5
229
100
AcDbEntity
  8
0
 62
7
100
AcDbPolyline
 90
2
 70
1
 10
5.926667
 20
22.577782
 30
0.0
 10
5.926667
 20
22.577782
 30
0.0
  0
SPLINE
  5
22a
100
AcDbEntity
  8
0
 62
7
100
AcDbSpline
 70
8
 71
3
 72
8
 73
4
 74
0
 40
0
 40
0
 40
0
 40
0
 40
1
 40
1
 40
1
 40
1
 10
104.704444
 20
248.355561
 30
0.0
 10
104.704444
 20
248.199690
 30
0.0
 10
104.578088
 20
248.073333
 30
0.0
 10
104.422222
 20
248.073333
 30
0.0
  0
SPLINE
  5
22b
100
AcDbEntity
  8
0
 62
7
100
AcDbSpline
 70
8
 71
3
 72
8
 73
4
 74
0
 40
0
 40
0
 40
0
 40
0
 40
1
 40
1
 40
1
 40
1
 10
104.422222
 20
248.073333
 30
0.0
 10
104.266357
 20
248.073333
 30
0.0
 10
104.140000
 20
248.199690
 30
0.0
 10
104.140000
 20
248.355561
 30
0.0
  0
SPLINE
  5
22c
100
AcDbEntity
  8
0
 62
7
100
AcDbSpline
 70
8
 71
3
 72
8
 73
4
 74
0
 40
0
 40
0
 40
0
 40
0
 40
1
 40
1
 40
1
 40
1
 10
104.140000
 20
248.355561
 30
0.0
 10
104.140000
 20
248.511430
 30
0.0
 10
104.266357
 20
248.637786
 30
0.0
 10
104.422222
 20
248.637786
 30
0.0
  0
SPLINE
  5
22d
100
AcDbEntity
  8
0
 62
7
100
AcDbSpline
 70
8
 71
3
 72
8
 73
4
 74
0
 40
0
 40
0
 40
0
 40
0
 40
1
 40
1
 40
1
 40
1
 10
104.422222
 20
248.637786
 30
0.0
 10
104.578088
 20
248.637786
 30
0.0
 10
104.704444
 20
248.511430
 30
0.0
 10
104.704444
 20
248.355561
 30
0.0
  0
LWPOLYLINE
  5
22e
100
AcDbEntity
  8
0
 62
7
100
AcDbPolyline
 90
2
 70
1
 10
22.860000
 20
5.644450
 30
0.0
 10
22.860000
 20
5.644450
 30
0.0
  0
SPLINE
  5
22f
100
AcDbEntity
  8
0
 62
7
100
AcDbSpline
 70
8
 71
3
 72
8
 73
4
 74
0
 40
0
 40
0
 40
0
 40
0
 40
1
 40
1
 40
1
 40
1
 10
22.860000
 20
248.355561
 30
0.0
 10
22.860000
 20
248.199690
 30
0.0
 10
22.733643
 20
248.073333
 30
0.0
 10
22.577778
 20
248.073333
 30
0.0
  0
SPLINE
  5
230
100
AcDbEntity
  8
0
 62
7
100
AcDbSpline
 70
8
 71
3
 72
8
 73
4
 74
0
 40
0
 40
0
 40
0
 40
0
 40
1
 40
1
 40
1
 40
1
 10
22.577778
 20
248.073333
 30
0.0
 10
22.421912
 20
248.073333
 30
0.0
 10
22.295556
 20
248.199690
 30
0.0
 10
22.295556
 20
248.355561
 30
0.0
  0
SPLINE
  5
231
100
AcDbEntity
  8
0
 62
7
100
AcDbSpline
 70
8
 71
3
 72
8
 73
4
 74
0
 40
0
 40
0
 40
0
 40
0
 40
1
 40
1
 40
1
 40
1
 10
22.295556
 20
248.355561
 30
0.0
 10
22.295556
 20
248.511430
 30
0.0
 10
22.421912
 20
248.637786
 30
0.0
 10
22.577778
 20
248.637786
 30
0.0
  0
SPLINE
  5
232
100
AcDbEntity
  8
0
 62
7
100
AcDbSpline
 70
8
 71
3
 72
8
 73
4
 74
0
 40
0
 40
0
 40
0
 40
0
 40
1
 40
1
 40
1
 40
1
 10
22.577778
 20
248.637786
 30
0.0
 10
22.733643
 20
248.637786
 30
0.0
 10
22.860000
 20
248.511430
 30
0.0
 10
22.860000
 20
248.355561
 30
0.0
  0
LWPOLYLINE
  5
233
100
AcDbEntity
  8
0
 62
7
100
AcDbPolyline
 90
2
 70
1
 10
104.704444
 20
248.355561
 30
0.0
 10
104.704444
 20
248.355561
 30
0.0
  0
SPLINE
  5
234
100
AcDbEntity
  8
0
 62
7
100
AcDbSpline
 70
8
 71
3
 72
8
 73
4
 74
0
 40
0
 40
0
 40
0
 40
0
 40
1
 40
1
 40
1
 40
1
 10
104.704444
 20
121.355561
 30
0.0
 10
104.704444
 20
121.199690
 30
0.0
 10
104.578088
 20
121.073333
 30
0.0
 10
104.422222
 20
121.073333
 30
0.0
  0
SPLINE
  5
235
100
AcDbEntity
  8
0
 62
7
100
AcDbSpline
 70
8
 71
3
 72
8
 73
4
 74
0
 40
0
 40
0
 40
0
 40
0
 40
1
 40
1
 40
1
 40
1
 10
104.422222
 20
121.073333
 30
0.0
 10
104.266357
 20
121.073333
 30
0.0
 10
104.140000
 20
121.199690
 30
0.0
 10
104.140000
 20
121.355561
 30
0.0
  0
SPLINE
  5
236
100
AcDbEntity
  8
0
 62
7
100
AcDbSpline
 70
8
 71
3
 72
8
 73
4
 74
0
 40
0
 40
0
 40
0
 40
0
 40
1
 40
1
 40
1
 40
1
 10
104.140000
 20
121.355561
 30
0.0
 10
104.140000
 20
121.511430
 30
0.0
 10
104.266357
 20
121.637786
 30
0.0
 10
104.422222
 20
121.637786
 30
0.0
  0
SPLINE
  5
237
100
AcDbEntity
  8
0
 62
7
100
AcDbSpline
 70
8
 71
3
 72
8
 73
4
 74
0
 40
0
 40
0
 40
0
 40
0
 40
1
 40
1
 40
1
 40
1
 10
104.422222
 20
121.637786
 30
0.0
 10
104.578088
 20
121.637786
 30
0.0
 10
104.704444
 20
121.511430
 30
0.0
 10
104.704444
 20
121.355561
 30
0.0
  0
LWPOLYLINE
  5
238
100
AcDbEntity
  8
0
 62
7
100
AcDbPolyline
 90
2
 70
1
 10
22.860000
 20
248.355561
 30
0.0
 10
22.860000
 20
248.355561
 30
0.0
  0
SPLINE
  5
239
100
AcDbEntity
  8
0
 62
7
100
AcDbSpline
 70
8
 71
3
 72
8
 73
4
 74
0
 40
0
 40
0
 40
0
 40
0
 40
1
 40
1
 40
1
 40
1
 10
22.860000
 20
121.355561
 30
0.0
 10
22.860000
 20
121.199690
 30
0.0
 10
22.733645
 20
121.073333
 30
0.0
 10
22.577777
 20
121.073333
 30
0.0
  0
SPLINE
  5
23a
100
AcDbEntity
  8
0
 62
7
100
AcDbSpline
 70
8
 71
3
 72
8
 73
4
 74
0
 40
0
 40
0
 40
0
 40
0
 40
1
 40
1
 40
1
 40
1
 10
22.577777
 20
121.073333
 30
0.0
 10
22.421911
 20
121.073333
 30
0.0
 10
22.295556
 20
121.199690
 30
0.0
 10
22.295556
 20
121.355561
 30
0.0
  0
SPLINE
  5
23b
100
AcDbEntity
  8
0
 62
7
100
AcDbSpline
 70
8
 71
3
 72
8
 73
4
 74
0
 40
0
 40
0
 40
0
 40
0
 40
1
 40
1
 40
1
 40
1
 10
22.295556
 20
121.355561
 30
0.0
 10
22.295556
 20
121.511430
 30
0.0
 10
22.421911
 20
121.637786
 30
0.0
 10
22.577777
 20
121.637786
 30
0.0
  0
SPLINE
  5
23c
100
AcDbEntity
  8
0
 62
7
100
AcDbSpline
 70
8
 71
3
 72
8
 73
4
 74
0
 40
0
 40
0
 40
0
 40
0
 40
1
 40
1
 40
1
 40
1
 10
22.577777
 20
121.637786
 30
0.0
 10
22.733645
 20
121.637786
 30
0.0
 10
22.860000
 20
121.511430
 30
0.0
 10
22.860000
 20
121.355561
 30
0.0
  0
LWPOLYLINE
  5
23d
100
AcDbEntity
  8
0
 62
7
100
AcDbPolyline
 90
2
 70
1
 10
104.704444
 20
121.355561
 30
0.0
 10
104.704444
 20
121.355561
 30
0.0
  0
SPLINE
  5
23e
100
AcDbEntity
  8
0
 62
7
100
AcDbSpline
 70
8
 71
3
 72
8
 73
4
 74
0
 40
0
 40
0
 40
0
 40
0
 40
1
 40
1
 40
1
 40
1
 10
22.860000
 20
132.644450
 30
0.0
 10
22.860000
 20
132.488579
 30
0.0
 10
22.733645
 20
132.362222
 30
0.0
 10
22.577777
 20
132.362222
 30
0.0
  0
SPLINE
  5
23f
100
AcDbEntity
  8
0
 62
7
100
AcDbSpline
 70
8
 71
3
 72
8
 73
4
 74
0
 40
0
 40
0
 40
0
 40
0
 40
1
 40
1
 40
1
 40
1
 10
22.577777
 20
132.362222
 30
0.0
 10
22.421911
 20
132.362222
 30
0.0
 10
22.295556
 20
132.488579
 30
0.0
 10
22.295556
 20
132.644450
 30
0.0
  0
SPLINE
  5
240
100
AcDbEntity
  8
0
 62
7
100
AcDbSpline
 70
8
 71
3
 72
8
 73
4
 74
0
 40
0
 40
0
 40
0
 40
0
 40
1
 40
1
 40
1
 40
1
 10
22.295556
 20
132.644450
 30
0.0
 10
22.295556
 20
132.800319
 30
0.0
 10
22.421911
 20
132.926675
 30
0.0
 10
22.577777
 20
132.926675
 30
0.0
  0
SPLINE
  5
241
100
AcDbEntity
  8
0
 62
7
100
AcDbSpline
 70
8
 71
3
 72
8
 73
4
 74
0
 40
0
 40
0
 40
0
 40
0
 40
1
 40
1
 40
1
 40
1
 10
22.577777
 20
132.926675
 30
0.0
 10
22.733645
 20
132.926675
 30
0.0
 10
22.860000
 20
132.800319
 30
0.0
 10
22.860000
 20
132.644450
 30
0.0
  0
LWPOLYLINE
  5
242
100
AcDbEntity
  8
0
 62
7
100
AcDbPolyline
 90
2
 70
1
 10
22.860000
 20
121.355561
 30
0.0
 10
22.860000
 20
121.355561
 30
0.0
  0
SPLINE
  5
243
100
AcDbEntity
  8
0
 62
7
100
AcDbSpline
 70
8
 71
3
 72
8
 73
4
 74
0
 40
0
 40
0
 40
0
 40
0
 40
1
 40
1
 40
1
 40
1
 10
104.704444
 20
5.644450
 30
0.0
 10
104.704444
 20
5.488579
 30
0.0
 10
104.578088
 20
5.362222
 30
0.0
 10
104.422222
 20
5.362222
 30
0.0
  0
SPLINE
  5
244
100
AcDbEntity
  8
0
 62
7
100
AcDbSpline
 70
8
 71
3
 72
8
 73
4
 74
0
 40
0
 40
0
 40
0
 40
0
 40
1
 40
1
 40
1
 40
1
 10
104.422222
 20
5.362222
 30
0.0
 10
104.266357
 20
5.362222
 30
0.0
 10
104.140000
 20
5.488579
 30
0.0
 10
104.140000
 20
5.644450
 30
0.0
  0
SPLINE
  5
245
100
AcDbEntity
  8
0
 62
7
100
AcDbSpline
 70
8
 71
3
 72
8
 73
4
 74
0
 40
0
 40
0
 40
0
 40
0
 40
1
 40
1
 40
1
 40
1
 10
104.140000
 20
5.644450
 30
0.0
 10
104.140000
 20
5.800319
 30
0.0
 10
104.266357
 20
5.926675
 30
0.0
 10
104.422222
 20
5.926675
 30
0.0
  0
SPLINE
  5
246
100
AcDbEntity
  8
0
 62
7
100
AcDbSpline
 70
8
 71
3
 72
8
 73
4
 74
0
 40
0
 40
0
 40
0
 40
0
 40
1
 40
1
 40
1
 40
1
 10
104.422222
 20
5.926675
 30
0.0
 10
104.578088
 20
5.926675
 30
0.0
 10
104.704444
 20
5.800319
 30
0.0
 10
104.704444
 20
5.644450
 30
0.0
  0
LWPOLYLINE
  5
247
100
AcDbEntity
  8
0
 62
7
100
AcDbPolyline
 90
2
 70
1
 10
22.860000
 20
132.644450
 30
0.0
 10
22.860000
 20
132.644450
 30
0.0
  0
SPLINE
  5
248
100
AcDbEntity
  8
0
 62
7
100
AcDbSpline
 70
8
 71
3
 72
8
 73
4
 74
0
 40
0
 40
0
 40
0
 40
0
 40
1
 40
1
 40
1
 40
1
 10
104.704444
 20
132.644450
 30
0.0
 10
104.704444
 20
132.488579
 30
0.0
 10
104.578088
 20
132.362222
 30
0.0
 10
104.422222
 20
132.362222
 30
0.0
  0
SPLINE
  5
249
100
AcDbEntity
  8
0
 62
7
100
AcDbSpline
 70
8
 71
3
 72
8
 73
4
 74
0
 40
0
 40
0
 40
0
 40
0
 40
1
 40
1
 40
1
 40
1
 10
104.422222
 20
132.362222
 30
0.0
 10
104.266357
 20
132.362222
 30
0.0
 10
104.140000
 20
132.488579
 30
0.0
 10
104.140000
 20
132.644450
 30
0.0
  0
SPLINE
  5
24a
100
AcDbEntity
  8
0
 62
7
100
AcDbSpline
 70
8
 71
3
 72
8
 73
4
 74
0
 40
0
 40
0
 40
0
 40
0
 40
1
 40
1
 40
1
 40
1
 10
104.140000
 20
132.644450
 30
0.0
 10
104.140000
 20
132.800319
 30
0.0
 10
104.266357
 20
132.926675
 30
0.0
 10
104.422222
 20
132.926675
 30
0.0
  0
SPLINE
  5
24b
100
AcDbEntity
  8
0
 62
7
100
AcDbSpline
 70
8
 71
3
 72
8
 73
4
 74
0
 40
0
 40
0
 40
0
 40
0
 40
1
 40
1
 40
1
 40
1
 10
104.422222
 20
132.926675
 30
0.0
 10
104.578088
 20
132.926675
 30
0.0
 10
104.704444
 20
132.800319
 30
0.0
 10
104.704444
 20
132.644450
 30
0.0
  0
LWPOLYLINE
  5
24c
100
AcDbEntity
  8
0
 62
7
100
AcDbPolyline
 90
2
 70
1
 10
104.704444
 20
5.644450
 30
0.0
 10
104.704444
 20
5.644450
 30
0.0
  0
SPLINE
  5
24d
100
AcDbEntity
  8
0
 62
7
100
AcDbSpline
 70
8
 71
3
 72
8
 73
4
 74
0
 40
0
 40
0
 40
0
 40
0
 40
1
 40
1
 40
1
 40
1
 10
5.926667
 20
104.422228
 30
0.0
 10
5.926667
 20
104.266357
 30
0.0
 10
5.800311
 20
104.140000
 30
0.0
 10
5.644444
 20
104.140000
 30
0.0
  0
SPLINE
  5
24e
100
AcDbEntity
  8
0
 62
7
100
AcDbSpline
 70
8
 71
3
 72
8
 73
4
 74
0
 40
0
 40
0
 40
0
 40
0
 40
1
 40
1
 40
1
 40
1
 10
5.644444
 20
104.140000
 30
0.0
 10
5.488577
 20
104.140000
 30
0.0
 10
5.362222
 20
104.266357
 30
0.0
 10
5.362222
 20
104.422228
 30
0.0
  0
SPLINE
  5
24f
100
AcDbEntity
  8
0
 62
7
100
AcDbSpline
 70
8
 71
3
 72
8
 73
4
 74
0
 40
0
 40
0
 40
0
 40
0
 40
1
 40
1
 40
1
 40
1
 10
5.362222
 20
104.422228
 30
0.0
 10
5.362222
 20
104.578096
 30
0.0
 10
5.488577
 20
104.704453
 30
0.0
 10
5.644444
 20
104.704453
 30
0.0
  0
SPLINE
  5
250
100
AcDbEntity
  8
0
 62
7
100
AcDbSpline
 70
8
 71
3
 72
8
 73
4
 74
0
 40
0
 40
0
 40
0
 40
0
 40
1
 40
1
 40
1
 40
1
 10
5.644444
 20
104.704453
 30
0.0
 10
5.800311
 20
104.704453
 30
0.0
 10
5.926667
 20
104.578096
 30
0.0
 10
5.926667
 20
104.422228
 30
0.0
  0
LWPOLYLINE
  5
251
100
AcDbEntity
  8
0
 62
7
100
AcDbPolyline
 90
2
 70
1
 10
104.704444
 20
132.644450
 30
0.0
 10
104.704444
 20
132.644450
 30
0.0
  0
SPLINE
  5
252
100
AcDbEntity
  8
0
 62
7
100
AcDbSpline
 70
8
 71
3
 72
8
 73
4
 74
0
 40
0
 40
0
 40
0
 40
0
 40
1
 40
1
 40
1
 40
1
 10
5.926667
 20
231.422228
 30
0.0
 10
5.926667
 20
231.266357
 30
0.0
 10
5.800311
 20
231.140000
 30
0.0
 10
5.644444
 20
231.140000
 30
0.0
  0
SPLINE
  5
253
100
AcDbEntity
  8
0
 62
7
100
AcDbSpline
 70
8
 71
3
 72
8
 73
4
 74
0
 40
0
 40
0
 40
0
 40
0
 40
1
 40
1
 40
1
 40
1
 10
5.644444
 20
231.140000
 30
0.0
 10
5.488577
 20
231.140000
 30
0.0
 10
5.362222
 20
231.266357
 30
0.0
 10
5.362222
 20
231.422228
 30
0.0
  0
SPLINE
  5
254
100
AcDbEntity
  8
0
 62
7
100
AcDbSpline
 70
8
 71
3
 72
8
 73
4
 74
0
 40
0
 40
0
 40
0
 40
0
 40
1
 40
1
 40
1
 40
1
 10
5.362222
 20
231.422228
 30
0.0
 10
5.362222
 20
231.578096
 30
0.0
 10
5.488577
 20
231.704453
 30
0.0
 10
5.644444
 20
231.704453
 30
0.0
  0
SPLINE
  5
255
100
AcDbEntity
  8
0
 62
7
100
AcDbSpline
 70
8
 71
3
 72
8
 73
4
 74
0
 40
0
 40
0
 40
0
 40
0
 40
1
 40
1
 40
1
 40
1
 10
5.644444
 20
231.704453
 30
0.0
 10
5.800311
 20
231.704453
 30
0.0
 10
5.926667
 20
231.578096
 30
0.0
 10
5.926667
 20
231.422228
 30
0.0
  0
LWPOLYLINE
  5
256
100
AcDbEntity
  8
0
 62
7
100
AcDbPolyline
 90
2
 70
1
 10
5.926667
 20
104.422228
 30
0.0
 10
5.926667
 20
104.422228
 30
0.0
  0
SPLINE
  5
257
100
AcDbEntity
  8
0
 62
7
100
AcDbSpline
 70
8
 71
3
 72
8
 73
4
 74
0
 40
0
 40
0
 40
0
 40
0
 40
1
 40
1
 40
1
 40
1
 10
121.637778
 20
231.422228
 30
0.0
 10
121.637778
 20
231.266357
 30
0.0
 10
121.511421
 20
231.140000
 30
0.0
 10
121.355556
 20
231.140000
 30
0.0
  0
SPLINE
  5
258
100
AcDbEntity
  8
0
 62
7
100
AcDbSpline
 70
8
 71
3
 72
8
 73
4
 74
0
 40
0
 40
0
 40
0
 40
0
 40
1
 40
1
 40
1
 40
1
 10
121.355556
 20
231.140000
 30
0.0
 10
121.199690
 20
231.140000
 30
0.0
 10
121.073333
 20
231.266357
 30
0.0
 10
121.073333
 20
231.422228
 30
0.0
  0
SPLINE
  5
259
100
AcDbEntity
  8
0
 62
7
100
AcDbSpline
 70
8
 71
3
 72
8
 73
4
 74
0
 40
0
 40
0
 40
0
 40
0
 40
1
 40
1
 40
1
 40
1
 10
121.073333
 20
231.422228
 30
0.0
 10
121.073333
 20
231.578096
 30
0.0
 10
121.199690
 20
231.704453
 30
0.0
 10
121.355556
 20
231.704453
 30
0.0
  0
SPLINE
  5
25a
100
AcDbEntity
  8
0
 62
7
100
AcDbSpline
 70
8
 71
3
 72
8
 73
4
 74
0
 40
0
 40
0
 40
0
 40
0
 40
1
 40
1
 40
1
 40
1
 10
121.355556
 20
231.704453
 30
0.0
 10
121.511421
 20
231.704453
 30
0.0
 10
121.637778
 20
231.578096
 30
0.0
 10
121.637778
 20
231.422228
 30
0.0
  0
LWPOLYLINE
  5
25b
100
AcDbEntity
  8
0
 62
7
100
AcDbPolyline
 90
2
 70
1
 10
5.926667
 20
231.422228
 30
0.0
 10
5.926667
 20
231.422228
 30
0.0
  0
SPLINE
  5
25c
100
AcDbEntity
  8
0
 62
7
100
AcDbSpline
 70
8
 71
3
 72
8
 73
4
 74
0
 40
0
 40
0
 40
0
 40
0
 40
1
 40
1
 40
1
 40
1
 10
121.637778
 20
104.422228
 30
0.0
 10
121.637778
 20
104.266357
 30
0.0
 10
121.511421
 20
104.140000
 30
0.0
 10
121.355556
 20
104.140000
 30
0.0
  0
SPLINE
  5
25d
100
AcDbEntity
  8
0
 62
7
100
AcDbSpline
 70
8
 71
3
 72
8
 73
4
 74
0
 40
0
 40
0
 40
0
 40
0
 40
1
 40
1
 40
1
 40
1
 10
121.355556
 20
104.140000
 30
0.0
 10
121.199690
 20
104.140000
 30
0.0
 10
121.073333
 20
104.266357
 30
0.0
 10
121.073333
 20
104.422228
 30
0.0
  0
SPLINE
  5
25e
100
AcDbEntity
  8
0
 62
7
100
AcDbSpline
 70
8
 71
3
 72
8
 73
4
 74
0
 40
0
 40
0
 40
0
 40
0
 40
1
 40
1
 40
1
 40
1
 10
121.073333
 20
104.422228
 30
0.0
 10
121.073333
 20
104.578096
 30
0.0
 10
121.199690
 20
104.704453
 30
0.0
 10
121.355556
 20
104.704453
 30
0.0
  0
SPLINE
  5
25f
100
AcDbEntity
  8
0
 62
7
100
AcDbSpline
 70
8
 71
3
 72
8
 73
4
 74
0
 40
0
 40
0
 40
0
 40
0
 40
1
 40
1
 40
1
 40
1
 10
121.355556
 20
104.704453
 30
0.0
 10
121.511421
 20
104.704453
 30
0.0
 10
121.637778
 20
104.578096
 30
0.0
 10
121.637778
 20
104.422228
 30
0.0
  0
LWPOLYLINE
  5
260
100
AcDbEntity
  8
0
 62
7
100
AcDbPolyline
 90
2
 70
1
 10
121.637778
 20
231.422228
 30
0.0
 10
121.637778
 20
231.422228
 30
0.0
  0
SPLINE
  5
261
100
AcDbEntity
  8
0
 62
7
100
AcDbSpline
 70
8
 71
3
 72
8
 73
4
 74
0
 40
0
 40
0
 40
0
 40
0
 40
1
 40
1
 40
1
 40
1
 10
5.926667
 20
149.577781
 30
0.0
 10
5.926667
 20
149.421912
 30
0.0
 10
5.800310
 20
149.295556
 30
0.0
 10
5.644444
 20
149.295556
 30
0.0
  0
SPLINE
  5
262
100
AcDbEntity
  8
0
 62
7
100
AcDbSpline
 70
8
 71
3
 72
8
 73
4
 74
0
 40
0
 40
0
 40
0
 40
0
 40
1
 40
1
 40
1
 40
1
 10
5.644444
 20
149.295556
 30
0.0
 10
5.488576
 20
149.295556
 30
0.0
 10
5.362222
 20
149.421912
 30
0.0
 10
5.362222
 20
149.577781
 30
0.0
  0
SPLINE
  5
263
100
AcDbEntity
  8
0
 62
7
100
AcDbSpline
 70
8
 71
3
 72
8
 73
4
 74
0
 40
0
 40
0
 40
0
 40
0
 40
1
 40
1
 40
1
 40
1
 10
5.362222
 20
149.577781
 30
0.0
 10
5.362222
 20
149.733652
 30
0.0
 10
5.488576
 20
149.860008
 30
0.0
 10
5.644444
 20
149.860008
 30
0.0
  0
SPLINE
  5
264
100
AcDbEntity
  8
0
 62
7
100
AcDbSpline
 70
8
 71
3
 72
8
 73
4
 74
0
 40
0
 40
0
 40
0
 40
0
 40
1
 40
1
 40
1
 40
1
 10
5.644444
 20
149.860008
 30
0.0
 10
5.800310
 20
149.860008
 30
0.0
 10
5.926667
 20
149.733652
 30
0.0
 10
5.926667
 20
149.577781
 30
0.0
  0
LWPOLYLINE
  5
265
100
AcDbEntity
  8
0
 62
7
100
AcDbPolyline
 90
2
 70
1
 10
121.637778
 20
104.422228
 30
0.0
 10
121.637778
 20
104.422228
 30
0.0
  0
SPLINE
  5
266
100
AcDbEntity
  8
0
 62
7
100
AcDbSpline
 70
8
 71
3
 72
8
 73
4
 74
0
 40
0
 40
0
 40
0
 40
0
 40
1
 40
1
 40
1
 40
1
 10
121.637778
 20
149.577781
 30
0.0
 10
121.637778
 20
149.421912
 30
0.0
 10
121.511421
 20
149.295556
 30
0.0
 10
121.355556
 20
149.295556
 30
0.0
  0
SPLINE
  5
267
100
AcDbEntity
  8
0
 62
7
100
AcDbSpline
 70
8
 71
3
 72
8
 73
4
 74
0
 40
0
 40
0
 40
0
 40
0
 40
1
 40
1
 40
1
 40
1
 10
121.355556
 20
149.295556
 30
0.0
 10
121.199687
 20
149.295556
 30
0.0
 10
121.073333
 20
149.421912
 30
0.0
 10
121.073333
 20
149.577781
 30
0.0
  0
SPLINE
  5
268
100
AcDbEntity
  8
0
 62
7
100
AcDbSpline
 70
8
 71
3
 72
8
 73
4
 74
0
 40
0
 40
0
 40
0
 40
0
 40
1
 40
1
 40
1
 40
1
 10
121.073333
 20
149.577781
 30
0.0
 10
121.073333
 20
149.733652
 30
0.0
 10
121.199687
 20
149.860008
 30
0.0
 10
121.355556
 20
149.860008
 30
0.0
  0
SPLINE
  5
269
100
AcDbEntity
  8
0
 62
7
100
AcDbSpline
 70
8
 71
3
 72
8
 73
4
 74
0
 40
0
 40
0
 40
0
 40
0
 40
1
 40
1
 40
1
 40
1
 10
121.355556
 20
149.860008
 30
0.0
 10
121.511421
 20
149.860008
 30
0.0
 10
121.637778
 20
149.733652
 30
0.0
 10
121.637778
 20
149.577781
 30
0.0
  0
LWPOLYLINE
  5
26a
100
AcDbEntity
  8
0
 62
7
100
AcDbPolyline
 90
2
 70
1
 10
5.926667
 20
149.577781
 30
0.0
 10
5.926667
 20
149.577781
 30
0.0
  0
SPLINE
  5
26b
100
AcDbEntity
  8
0
 62
7
100
AcDbSpline
 70
8
 71
3
 72
8
 73
4
 74
0
 40
0
 40
0
 40
0
 40
0
 40
1
 40
1
 40
1
 40
1
 10
121.637778
 20
22.577781
 30
0.0
 10
121.637778
 20
22.421912
 30
0.0
 10
121.511421
 20
22.295556
 30
0.0
 10
121.355556
 20
22.295556
 30
0.0
  0
SPLINE
  5
26c
100
AcDbEntity
  8
0
 62
7
100
AcDbSpline
 70
8
 71
3
 72
8
 73
4
 74
0
 40
0
 40
0
 40
0
 40
0
 40
1
 40
1
 40
1
 40
1
 10
121.355556
 20
22.295556
 30
0.0
 10
121.199687
 20
22.295556
 30
0.0
 10
121.073333
 20
22.421912
 30
0.0
 10
121.073333
 20
22.577781
 30
0.0
  0
SPLINE
  5
26d
100
AcDbEntity
  8
0
 62
7
100
AcDbSpline
 70
8
 71
3
 72
8
 73
4
 74
0
 40
0
 40
0
 40
0
 40
0
 40
1
 40
1
 40
1
 40
1
 10
121.073333
 20
22.577781
 30
0.0
 10
121.073333
 20
22.733652
 30
0.0
 10
121.199687
 20
22.860008
 30
0.0
 10
121.355556
 20
22.860008
 30
0.0
  0
SPLINE
  5
26e
100
AcDbEntity
  8
0
 62
7
100
AcDbSpline
 70
8
 71
3
 72
8
 73
4
 74
0
 40
0
 40
0
 40
0
 40
0
 40
1
 40
1
 40
1
 40
1
 10
121.355556
 20
22.860008
 30
0.0
 10
121.511421
 20
22.860008
 30
0.0
 10
121.637778
 20
22.733652
 30
0.0
 10
121.637778
 20
22.577781
 30
0.0
  0
LWPOLYLINE
  5
26f
100
AcDbEntity
  8
0
 62
7
100
AcDbPolyline
 90
2
 70
1
 10
121.637778
 20
149.577781
 30
0.0
 10
121.637778
 20
149.577781
 30
0.0
  0
LWPOLYLINE
  5
270
100
AcDbEntity
  8
0
 62
7
100
AcDbPolyline
 90
2
 70
1
 10
121.637778
 20
22.577781
 30
0.0
 10
121.637778
 20
22.577781
 30
0.0
  0
ENDSEC
  0
SECTION
  2
OBJECTS
  0
DICTIONARY
  5
C
330
0
100
AcDbDictionary
  3
ACAD_GROUP
350
D
  3
ACAD_MLINESTYLE
350
17
  0
DICTIONARY
  5
D
330
C
100
AcDbDictionary
  0
DICTIONARY
  5
1A
330
C
100
AcDbDictionary
  0
DICTIONARY
  5
17
330
C
100
AcDbDictionary
  3
STANDARD
350
18
  0
DICTIONARY
  5
19
330
C
100
AcDbDictionary
  0
ENDSEC
  0
EOF
