  0
SECTION
  2
HEADER
  9
$ACADVER
  1
AC1014
  9
$HANDSEED
  5
FFFF
  9
$MEASUREMENT
 70
     1
  0
ENDSEC
  0
SECTION
  2
TABLES
  0
TABLE
  2
VPORT
  5
8
330
0
100
AcDbSymbolTable
 70
     4
  0
VPORT
  5
2E
330
8
100
AcDbSymbolTableRecord
100
AcDbViewportTableRecord
  2
*ACTIVE
 70
     0
 10
0.0
 20
0.0
 11
1.0
 21
1.0
 12
210.0
 22
148.5
 13
0.0
 23
0.0
 14
10.0
 24
10.0
 15
10.0
 25
10.0
 16
0.0
 26
0.0
 36
1.0
 17
0.0
 27
0.0
 37
0.0
 40
341.0
 41
1.24
 42
50.0
 43
0.0
 44
0.0
 50
0.0
 51
0.0
 71
     0
 72
   100
 73
     1
 74
     3
 75
     0
 76
     0
 77
     0
 78
     0
  0
ENDTAB
  0
TABLE
  2
LTYPE
  5
5
330
0
100
AcDbSymbolTable
 70
     1
  0
LTYPE
  5
14
330
5
100
AcDbSymbolTableRecord
100
AcDbLinetypeTableRecord
  2
BYBLOCK
 70
     0
  3

 72
    65
 73
     0
 40
0.0
  0
LTYPE
  5
15
330
5
100
AcDbSymbolTableRecord
100
AcDbLinetypeTableRecord
  2
BYLAYER
 70
     0
  3

 72
    65
 73
     0
 40
0.0
  0
LTYPE
  5
16
330
5
100
AcDbSymbolTableRecord
100
AcDbLinetypeTableRecord
  2
CONTINUOUS
 70
     0
  3
Solid line
 72
    65
 73
     0
 40
0.0
  0
ENDTAB
  0
TABLE
  2
LAYER
  5
2
100
AcDbSymbolTable
 70
1
  0
LAYER
  5
50
100
AcDbSymbolTableRecord
100
AcDbLayerTableRecord
  2
0
 70
0
  6
CONTINUOUS
  0
ENDTAB
  0
TABLE
  2
STYLE
  5
3
330
0
100
AcDbSymbolTable
 70
     1
  0
STYLE
  5
11
330
3
100
AcDbSymbolTableRecord
100
AcDbTextStyleTableRecord
  2
STANDARD
 70
     0
 40
0.0
 41
1.0
 50
0.0
 71
     0
 42
2.5
  3
txt
  4

  0
ENDTAB
  0
TABLE
  2
VIEW
  5
6
330
0
100
AcDbSymbolTable
 70
     0
  0
ENDTAB
  0
TABLE
  2
UCS
  5
7
330
0
100
AcDbSymbolTable
 70
     0
  0
ENDTAB
  0
TABLE
  2
APPID
  5
9
330
0
100
AcDbSymbolTable
 70
     2
  0
APPID
  5
12
330
9
100
AcDbSymbolTableRecord
100
AcDbRegAppTableRecord
  2
ACAD
 70
     0
  0
ENDTAB
  0
TABLE
  2
DIMSTYLE
  5
A
330
0
100
AcDbSymbolTable
 70
     1
  0
DIMSTYLE
105
27
330
A
100
AcDbSymbolTableRecord
100
AcDbDimStyleTableRecord
  2
ISO-25
 70
     0
  3

  4

  5

  6

  7

 40
1.0
 41
2.5
 42
0.625
 43
3.75
 44
1.25
 45
0.0
 46
0.0
 47
0.0
 48
0.0
140
2.5
141
2.5
142
0.0
143
0.03937007874016
144
1.0
145
0.0
146
1.0
147
0.625
 71
     0
 72
     0
 73
     0
 74
     0
 75
     0
 76
     0
 77
     1
 78
     8
170
     0
171
     3
172
     1
173
     0
174
     0
175
     0
176
     0
177
     0
178
     0
270
     2
271
     2
272
     2
273
     2
274
     3
340
11
275
     0
280
     0
281
     0
282
     0
283
     0
284
     8
285
     0
286
     0
287
     3
288
     0
  0
ENDTAB
  0
TABLE
  2
BLOCK_RECORD
  5
1
330
0
100
AcDbSymbolTable
 70
     1
  0
BLOCK_RECORD
  5
1F
330
1
100
AcDbSymbolTableRecord
100
AcDbBlockTableRecord
  2
*MODEL_SPACE
  0
BLOCK_RECORD
  5
1B
330
1
100
AcDbSymbolTableRecord
100
AcDbBlockTableRecord
  2
*PAPER_SPACE
  0
ENDTAB
  0
ENDSEC
  0
SECTION
  2
BLOCKS
  0
BLOCK
  5
20
330
1F
100
AcDbEntity
  8
0
100
AcDbBlockBegin
  2
*MODEL_SPACE
 70
     0
 10
0.0
 20
0.0
 30
0.0
  3
*MODEL_SPACE
  1

  0
ENDBLK
  5
21
330
1F
100
AcDbEntity
  8
0
100
AcDbBlockEnd
  0
BLOCK
  5
1C
330
1B
100
AcDbEntity
 67
     1
  8
0
100
AcDbBlockBegin
  2
*PAPER_SPACE
  1

  0
ENDBLK
  5
1D
330
1B
100
AcDbEntity
 67
     1
  8
0
100
AcDbBlockEnd
  0
ENDSEC
  0
SECTION
  2
ENTITIES
  0
SPLINE
  5
100
100
AcDbEntity
  8
0
 62
7
100
AcDbSpline
 70
8
 71
3
 72
8
 73
4
 74
0
 40
0
 40
0
 40
0
 40
0
 40
1
 40
1
 40
1
 40
1
 10
114.976281
 20
126.953922
 30
0.0
 10
121.637998
 20
126.953922
 30
0.0
 10
127.000000
 20
121.591493
 30
0.0
 10
127.000000
 20
114.932325
 30
0.0
  0
SPLINE
  5
101
100
AcDbEntity
  8
0
 62
7
100
AcDbSpline
 70
8
 71
3
 72
8
 73
4
 74
0
 40
0
 40
0
 40
0
 40
0
 40
1
 40
1
 40
1
 40
1
 10
127.000000
 20
12.019150
 30
0.0
 10
127.000000
 20
5.359953
 30
0.0
 10
121.637998
 20
0.000006
 30
0.0
 10
114.976281
 20
0.000006
 30
0.0
  0
LWPOLYLINE
  5
102
100
AcDbEntity
  8
0
 62
7
100
AcDbPolyline
 90
2
 70
0
 10
127.000000
 20
114.932325
 30
0.0
 10
127.000000
 20
12.019150
 30
0.0
  0
SPLINE
  5
103
100
AcDbEntity
  8
0
 62
7
100
AcDbSpline
 70
8
 71
3
 72
8
 73
4
 74
0
 40
0
 40
0
 40
0
 40
0
 40
1
 40
1
 40
1
 40
1
 10
12.023712
 20
0.000006
 30
0.0
 10
5.361991
 20
0.000006
 30
0.0
 10
0.000000
 20
5.359953
 30
0.0
 10
0.000000
 20
12.019150
 30
0.0
  0
LWPOLYLINE
  5
104
100
AcDbEntity
  8
0
 62
7
100
AcDbPolyline
 90
2
 70
0
 10
114.976281
 20
0.000006
 30
0.0
 10
12.023712
 20
0.000006
 30
0.0
  0
SPLINE
  5
105
100
AcDbEntity
  8
0
 62
7
100
AcDbSpline
 70
8
 71
3
 72
8
 73
4
 74
0
 40
0
 40
0
 40
0
 40
0
 40
1
 40
1
 40
1
 40
1
 10
0.000000
 20
114.932325
 30
0.0
 10
0.000000
 20
121.591493
 30
0.0
 10
5.361991
 20
126.953922
 30
0.0
 10
12.023712
 20
126.953922
 30
0.0
  0
LWPOLYLINE
  5
106
100
AcDbEntity
  8
0
 62
7
100
AcDbPolyline
 90
2
 70
0
 10
0.000000
 20
12.019150
 30
0.0
 10
0.000000
 20
114.932325
 30
0.0
  0
SPLINE
  5
107
100
AcDbEntity
  8
0
 62
7
100
AcDbSpline
 70
8
 71
3
 72
8
 73
4
 74
0
 40
0
 40
0
 40
0
 40
0
 40
1
 40
1
 40
1
 40
1
 10
114.976281
 20
127.048545
 30
0.0
 10
121.637998
 20
127.048545
 30
0.0
 10
127.000000
 20
132.408490
 30
0.0
 10
127.000000
 20
139.067659
 30
0.0
  0
LWPOLYLINE
  5
108
100
AcDbEntity
  8
0
 62
7
100
AcDbPolyline
 90
2
 70
0
 10
12.023712
 20
126.953922
 30
0.0
 10
114.976281
 20
127.048545
 30
0.0
  0
SPLINE
  5
109
100
AcDbEntity
  8
0
 62
7
100
AcDbSpline
 70
8
 71
3
 72
8
 73
4
 74
0
 40
0
 40
0
 40
0
 40
0
 40
1
 40
1
 40
1
 40
1
 10
127.000000
 20
241.980890
 30
0.0
 10
127.000000
 20
248.640087
 30
0.0
 10
121.638006
 20
254.000006
 30
0.0
 10
114.976281
 20
254.000006
 30
0.0
  0
LWPOLYLINE
  5
10a
100
AcDbEntity
  8
0
 62
7
100
AcDbPolyline
 90
2
 70
0
 10
127.000000
 20
139.067659
 30
0.0
 10
127.000000
 20
241.980890
 30
0.0
  0
SPLINE
  5
10b
100
AcDbEntity
  8
0
 62
7
100
AcDbSpline
 70
8
 71
3
 72
8
 73
4
 74
0
 40
0
 40
0
 40
0
 40
0
 40
1
 40
1
 40
1
 40
1
 10
12.023712
 20
254.000006
 30
0.0
 10
5.361991
 20
254.000006
 30
0.0
 10
0.000000
 20
248.640087
 30
0.0
 10
0.000000
 20
241.980890
 30
0.0
  0
LWPOLYLINE
  5
10c
100
AcDbEntity
  8
0
 62
7
100
AcDbPolyline
 90
2
 70
0
 10
114.976281
 20
254.000006
 30
0.0
 10
12.023712
 20
254.000006
 30
0.0
  0
SPLINE
  5
10d
100
AcDbEntity
  8
0
 62
7
100
AcDbSpline
 70
8
 71
3
 72
8
 73
4
 74
0
 40
0
 40
0
 40
0
 40
0
 40
1
 40
1
 40
1
 40
1
 10
0.000000
 20
139.067659
 30
0.0
 10
0.000000
 20
132.408490
 30
0.0
 10
5.361991
 20
127.048545
 30
0.0
 10
12.023712
 20
127.048545
 30
0.0
  0
LWPOLYLINE
  5
10e
100
AcDbEntity
  8
0
 62
7
100
AcDbPolyline
 90
2
 70
0
 10
0.000000
 20
241.980890
 30
0.0
 10
0.000000
 20
139.067659
 30
0.0
  0
SPLINE
  5
10f
100
AcDbEntity
  8
0
 62
7
100
AcDbSpline
 70
8
 71
3
 72
8
 73
4
 74
0
 40
0
 40
0
 40
0
 40
0
 40
1
 40
1
 40
1
 40
1
 10
109.418995
 20
197.231885
 30
0.0
 10
108.438134
 20
198.959462
 30
0.0
 10
106.818057
 20
200.352548
 30
0.0
 10
104.898620
 20
201.491188
 30
0.0
  0
SPLINE
  5
110
100
AcDbEntity
  8
0
 62
7
100
AcDbSpline
 70
8
 71
3
 72
8
 73
4
 74
0
 40
0
 40
0
 40
0
 40
0
 40
1
 40
1
 40
1
 40
1
 10
104.898620
 20
201.491188
 30
0.0
 10
102.979078
 20
202.629723
 30
0.0
 10
100.980541
 20
203.298707
 30
0.0
 10
100.980541
 20
203.298707
 30
0.0
  0
SPLINE
  5
111
100
AcDbEntity
  8
0
 62
7
100
AcDbSpline
 70
8
 71
3
 72
8
 73
4
 74
0
 40
0
 40
0
 40
0
 40
0
 40
1
 40
1
 40
1
 40
1
 10
100.980541
 20
203.298707
 30
0.0
 10
100.800673
 20
203.912573
 30
0.0
 10
105.418871
 20
213.374173
 30
0.0
 10
105.488399
 20
216.589503
 30
0.0
  0
SPLINE
  5
112
100
AcDbEntity
  8
0
 62
7
100
AcDbSpline
 70
8
 71
3
 72
8
 73
4
 74
0
 40
0
 40
0
 40
0
 40
0
 40
1
 40
1
 40
1
 40
1
 10
105.488399
 20
216.589503
 30
0.0
 10
105.557822
 20
219.804729
 30
0.0
 10
103.957520
 20
223.486665
 30
0.0
 10
103.034196
 20
223.813794
 30
0.0
  0
SPLINE
  5
113
100
AcDbEntity
  8
0
 62
7
100
AcDbSpline
 70
8
 71
3
 72
8
 73
4
 74
0
 40
0
 40
0
 40
0
 40
0
 40
1
 40
1
 40
1
 40
1
 10
103.034196
 20
223.813794
 30
0.0
 10
102.110872
 20
224.140923
 30
0.0
 10
100.226146
 20
222.307423
 30
0.0
 10
100.006938
 20
221.649378
 30
0.0
  0
SPLINE
  5
114
100
AcDbEntity
  8
0
 62
7
100
AcDbSpline
 70
8
 71
3
 72
8
 73
4
 74
0
 40
0
 40
0
 40
0
 40
0
 40
1
 40
1
 40
1
 40
1
 10
100.006938
 20
221.649378
 30
0.0
 10
99.232768
 20
219.326132
 30
0.0
 10
100.407277
 20
213.377329
 30
0.0
 10
99.775634
 20
211.767244
 30
0.0
  0
SPLINE
  5
115
100
AcDbEntity
  8
0
 62
7
100
AcDbSpline
 70
8
 71
3
 72
8
 73
4
 74
0
 40
0
 40
0
 40
0
 40
0
 40
1
 40
1
 40
1
 40
1
 10
99.775634
 20
211.767244
 30
0.0
 10
99.775634
 20
211.767244
 30
0.0
 10
98.537698
 20
220.954098
 30
0.0
 10
97.236966
 20
221.078743
 30
0.0
  0
SPLINE
  5
116
100
AcDbEntity
  8
0
 62
7
100
AcDbSpline
 70
8
 71
3
 72
8
 73
4
 74
0
 40
0
 40
0
 40
0
 40
0
 40
1
 40
1
 40
1
 40
1
 10
97.236966
 20
221.078743
 30
0.0
 10
95.936339
 20
221.203389
 30
0.0
 10
94.863020
 20
219.687236
 30
0.0
 10
94.863020
 20
219.687236
 30
0.0
  0
SPLINE
  5
117
100
AcDbEntity
  8
0
 62
7
100
AcDbSpline
 70
8
 71
3
 72
8
 73
4
 74
0
 40
0
 40
0
 40
0
 40
0
 40
1
 40
1
 40
1
 40
1
 10
94.863020
 20
219.687236
 30
0.0
 10
94.863020
 20
219.687236
 30
0.0
 10
93.320675
 20
217.875089
 30
0.0
 10
93.413239
 20
212.615781
 30
0.0
  0
SPLINE
  5
118
100
AcDbEntity
  8
0
 62
7
100
AcDbSpline
 70
8
 71
3
 72
8
 73
4
 74
0
 40
0
 40
0
 40
0
 40
0
 40
1
 40
1
 40
1
 40
1
 10
93.413239
 20
212.615781
 30
0.0
 10
93.445426
 20
210.781860
 30
0.0
 10
93.454472
 20
209.022727
 30
0.0
 10
93.413239
 20
207.421794
 30
0.0
  0
SPLINE
  5
119
100
AcDbEntity
  8
0
 62
7
100
AcDbSpline
 70
8
 71
3
 72
8
 73
4
 74
0
 40
0
 40
0
 40
0
 40
0
 40
1
 40
1
 40
1
 40
1
 10
93.413239
 20
207.421794
 30
0.0
 10
93.337189
 20
204.431667
 30
0.0
 10
93.087583
 20
201.993557
 30
0.0
 10
92.492650
 20
200.651697
 30
0.0
  0
SPLINE
  5
11a
100
AcDbEntity
  8
0
 62
7
100
AcDbSpline
 70
8
 71
3
 72
8
 73
4
 74
0
 40
0
 40
0
 40
0
 40
0
 40
1
 40
1
 40
1
 40
1
 10
92.492650
 20
200.651697
 30
0.0
 10
91.579213
 20
198.591311
 30
0.0
 10
89.110284
 20
196.643999
 30
0.0
 10
88.516297
 20
196.406384
 30
0.0
  0
SPLINE
  5
11b
100
AcDbEntity
  8
0
 62
7
100
AcDbSpline
 70
8
 71
3
 72
8
 73
4
 74
0
 40
0
 40
0
 40
0
 40
0
 40
1
 40
1
 40
1
 40
1
 10
88.516297
 20
196.406384
 30
0.0
 10
87.922416
 20
196.168874
 30
0.0
 10
81.105512
 20
194.167181
 30
0.0
 10
76.936564
 20
195.730668
 30
0.0
  0
SPLINE
  5
11c
100
AcDbEntity
  8
0
 62
7
100
AcDbSpline
 70
8
 71
3
 72
8
 73
4
 74
0
 40
0
 40
0
 40
0
 40
0
 40
1
 40
1
 40
1
 40
1
 10
76.936564
 20
195.730668
 30
0.0
 10
71.361172
 20
197.821453
 30
0.0
 10
66.785048
 20
200.982613
 30
0.0
 10
55.517928
 20
203.177111
 30
0.0
  0
SPLINE
  5
11d
100
AcDbEntity
  8
0
 62
7
100
AcDbSpline
 70
8
 71
3
 72
8
 73
4
 74
0
 40
0
 40
0
 40
0
 40
0
 40
1
 40
1
 40
1
 40
1
 10
55.517928
 20
203.177111
 30
0.0
 10
49.183092
 20
204.410945
 30
0.0
 10
39.957109
 20
201.632979
 30
0.0
 10
37.581374
 20
200.563867
 30
0.0
  0
SPLINE
  5
11e
100
AcDbEntity
  8
0
 62
7
100
AcDbSpline
 70
8
 71
3
 72
8
 73
4
 74
0
 40
0
 40
0
 40
0
 40
0
 40
1
 40
1
 40
1
 40
1
 10
37.581374
 20
200.563867
 30
0.0
 10
35.205745
 20
199.494755
 30
0.0
 10
30.335521
 20
194.862146
 30
0.0
 10
29.147653
 20
188.804160
 30
0.0
  0
SPLINE
  5
11f
100
AcDbEntity
  8
0
 62
7
100
AcDbSpline
 70
8
 71
3
 72
8
 73
4
 74
0
 40
0
 40
0
 40
0
 40
0
 40
1
 40
1
 40
1
 40
1
 10
29.147653
 20
188.804160
 30
0.0
 10
27.959786
 20
182.746173
 30
0.0
 10
26.940112
 20
189.224904
 30
0.0
 10
25.810938
 20
189.838140
 30
0.0
  0
SPLINE
  5
120
100
AcDbEntity
  8
0
 62
7
100
AcDbSpline
 70
8
 71
3
 72
8
 73
4
 74
0
 40
0
 40
0
 40
0
 40
0
 40
1
 40
1
 40
1
 40
1
 10
25.810938
 20
189.838140
 30
0.0
 10
23.615914
 20
191.030109
 30
0.0
 10
18.011595
 20
189.966256
 30
0.0
 10
18.011595
 20
189.966256
 30
0.0
  0
SPLINE
  5
121
100
AcDbEntity
  8
0
 62
7
100
AcDbSpline
 70
8
 71
3
 72
8
 73
4
 74
0
 40
0
 40
0
 40
0
 40
0
 40
1
 40
1
 40
1
 40
1
 10
18.011595
 20
189.966256
 30
0.0
 10
18.011595
 20
189.966256
 30
0.0
 10
20.292452
 20
187.314829
 30
0.0
 10
21.726349
 20
184.842323
 30
0.0
  0
SPLINE
  5
122
100
AcDbEntity
  8
0
 62
7
100
AcDbSpline
 70
8
 71
3
 72
8
 73
4
 74
0
 40
0
 40
0
 40
0
 40
0
 40
1
 40
1
 40
1
 40
1
 10
21.726349
 20
184.842323
 30
0.0
 10
23.080306
 20
182.507822
 30
0.0
 10
27.746995
 20
180.358868
 30
0.0
 10
27.746995
 20
180.358868
 30
0.0
  0
SPLINE
  5
123
100
AcDbEntity
  8
0
 62
7
100
AcDbSpline
 70
8
 71
3
 72
8
 73
4
 74
0
 40
0
 40
0
 40
0
 40
0
 40
1
 40
1
 40
1
 40
1
 10
27.746995
 20
180.358868
 30
0.0
 10
27.746995
 20
180.358868
 30
0.0
 10
31.718088
 20
174.466340
 30
0.0
 10
30.810647
 20
171.105222
 30
0.0
  0
SPLINE
  5
124
100
AcDbEntity
  8
0
 62
7
100
AcDbSpline
 70
8
 71
3
 72
8
 73
4
 74
0
 40
0
 40
0
 40
0
 40
0
 40
1
 40
1
 40
1
 40
1
 10
30.810647
 20
171.105222
 30
0.0
 10
29.903206
 20
167.744103
 30
0.0
 10
30.601642
 20
164.475233
 30
0.0
 10
26.426382
 20
163.648049
 30
0.0
  0
SPLINE
  5
125
100
AcDbEntity
  8
0
 62
7
100
AcDbSpline
 70
8
 71
3
 72
8
 73
4
 74
0
 40
0
 40
0
 40
0
 40
0
 40
1
 40
1
 40
1
 40
1
 10
26.426382
 20
163.648049
 30
0.0
 10
25.008894
 20
163.367202
 30
0.0
 10
20.595283
 20
161.080139
 30
0.0
 10
19.089438
 20
160.865034
 30
0.0
  0
SPLINE
  5
126
100
AcDbEntity
  8
0
 62
7
100
AcDbSpline
 70
8
 71
3
 72
8
 73
4
 74
0
 40
0
 40
0
 40
0
 40
0
 40
1
 40
1
 40
1
 40
1
 10
19.089438
 20
160.865034
 30
0.0
 10
17.318418
 20
160.611956
 30
0.0
 10
12.511411
 20
158.334991
 30
0.0
 10
14.442103
 20
155.306892
 30
0.0
  0
SPLINE
  5
127
100
AcDbEntity
  8
0
 62
7
100
AcDbSpline
 70
8
 71
3
 72
8
 73
4
 74
0
 40
0
 40
0
 40
0
 40
0
 40
1
 40
1
 40
1
 40
1
 10
14.442103
 20
155.306892
 30
0.0
 10
16.882211
 20
151.479799
 30
0.0
 10
22.299509
 20
148.018123
 30
0.0
 10
22.180648
 20
146.830255
 30
0.0
  0
SPLINE
  5
128
100
AcDbEntity
  8
0
 62
7
100
AcDbSpline
 70
8
 71
3
 72
8
 73
4
 74
0
 40
0
 40
0
 40
0
 40
0
 40
1
 40
1
 40
1
 40
1
 10
22.180648
 20
146.830255
 30
0.0
 10
22.061893
 20
145.642388
 30
0.0
 10
35.955933
 20
143.750194
 30
0.0
 10
41.014230
 20
142.906917
 30
0.0
  0
SPLINE
  5
129
100
AcDbEntity
  8
0
 62
7
100
AcDbSpline
 70
8
 71
3
 72
8
 73
4
 74
0
 40
0
 40
0
 40
0
 40
0
 40
1
 40
1
 40
1
 40
1
 10
41.014230
 20
142.906917
 30
0.0
 10
42.589077
 20
142.644267
 30
0.0
 10
42.287929
 20
143.455358
 30
0.0
 10
42.287929
 20
143.455358
 30
0.0
  0
SPLINE
  5
12a
100
AcDbEntity
  8
0
 62
7
100
AcDbSpline
 70
8
 71
3
 72
8
 73
4
 74
0
 40
0
 40
0
 40
0
 40
0
 40
1
 40
1
 40
1
 40
1
 10
42.287929
 20
143.455358
 30
0.0
 10
42.287929
 20
143.455358
 30
0.0
 10
44.310553
 20
143.630387
 30
0.0
 10
45.093559
 20
143.750194
 30
0.0
  0
SPLINE
  5
12b
100
AcDbEntity
  8
0
 62
7
100
AcDbSpline
 70
8
 71
3
 72
8
 73
4
 74
0
 40
0
 40
0
 40
0
 40
0
 40
1
 40
1
 40
1
 40
1
 10
45.093559
 20
143.750194
 30
0.0
 10
46.302989
 20
143.935427
 30
0.0
 10
46.975129
 20
145.047140
 30
0.0
 10
47.072321
 20
145.435908
 30
0.0
  0
SPLINE
  5
12c
100
AcDbEntity
  8
0
 62
7
100
AcDbSpline
 70
8
 71
3
 72
8
 73
4
 74
0
 40
0
 40
0
 40
0
 40
0
 40
1
 40
1
 40
1
 40
1
 10
47.072321
 20
145.435908
 30
0.0
 10
47.221265
 20
146.031893
 30
0.0
 10
46.147209
 20
148.124256
 30
0.0
 10
44.294144
 20
149.379232
 30
0.0
  0
SPLINE
  5
12d
100
AcDbEntity
  8
0
 62
7
100
AcDbSpline
 70
8
 71
3
 72
8
 73
4
 74
0
 40
0
 40
0
 40
0
 40
0
 40
1
 40
1
 40
1
 40
1
 10
44.294144
 20
149.379232
 30
0.0
 10
44.531655
 20
150.329483
 30
0.0
 10
42.365556
 20
153.883829
 30
0.0
 10
38.183881
 20
152.981857
 30
0.0
  0
SPLINE
  5
12e
100
AcDbEntity
  8
0
 62
7
100
AcDbSpline
 70
8
 71
3
 72
8
 73
4
 74
0
 40
0
 40
0
 40
0
 40
0
 40
1
 40
1
 40
1
 40
1
 10
38.183881
 20
152.981857
 30
0.0
 10
35.565376
 20
152.417113
 30
0.0
 10
33.256014
 20
152.770749
 30
0.0
 10
30.528432
 20
152.940204
 30
0.0
  0
SPLINE
  5
12f
100
AcDbEntity
  8
0
 62
7
100
AcDbSpline
 70
8
 71
3
 72
8
 73
4
 74
0
 40
0
 40
0
 40
0
 40
0
 40
1
 40
1
 40
1
 40
1
 10
30.528432
 20
152.940204
 30
0.0
 10
27.771398
 20
153.111552
 30
0.0
 10
26.963463
 20
154.332027
 30
0.0
 10
26.783910
 20
155.476137
 30
0.0
  0
SPLINE
  5
130
100
AcDbEntity
  8
0
 62
7
100
AcDbSpline
 70
8
 71
3
 72
8
 73
4
 74
0
 40
0
 40
0
 40
0
 40
0
 40
1
 40
1
 40
1
 40
1
 10
26.783910
 20
155.476137
 30
0.0
 10
27.165105
 20
155.992811
 30
0.0
 10
27.653589
 20
156.477824
 30
0.0
 10
28.259462
 20
156.788860
 30
0.0
  0
SPLINE
  5
131
100
AcDbEntity
  8
0
 62
7
100
AcDbSpline
 70
8
 71
3
 72
8
 73
4
 74
0
 40
0
 40
0
 40
0
 40
0
 40
1
 40
1
 40
1
 40
1
 10
28.259462
 20
156.788860
 30
0.0
 10
32.787831
 20
159.113579
 30
0.0
 10
42.413942
 20
161.110118
 30
0.0
 10
43.355884
 20
162.994212
 30
0.0
  0
SPLINE
  5
132
100
AcDbEntity
  8
0
 62
7
100
AcDbSpline
 70
8
 71
3
 72
8
 73
4
 74
0
 40
0
 40
0
 40
0
 40
0
 40
1
 40
1
 40
1
 40
1
 10
43.355884
 20
162.994212
 30
0.0
 10
44.662506
 20
165.607457
 30
0.0
 10
46.919275
 20
168.241423
 30
0.0
 10
49.322779
 20
169.340513
 30
0.0
  0
SPLINE
  5
133
100
AcDbEntity
  8
0
 62
7
100
AcDbSpline
 70
8
 71
3
 72
8
 73
4
 74
0
 40
0
 40
0
 40
0
 40
0
 40
1
 40
1
 40
1
 40
1
 10
49.322779
 20
169.340513
 30
0.0
 10
50.776136
 20
170.005080
 30
0.0
 10
54.288196
 20
168.364070
 30
0.0
 10
60.075223
 20
168.114884
 30
0.0
  0
SPLINE
  5
134
100
AcDbEntity
  8
0
 62
7
100
AcDbSpline
 70
8
 71
3
 72
8
 73
4
 74
0
 40
0
 40
0
 40
0
 40
0
 40
1
 40
1
 40
1
 40
1
 10
60.075223
 20
168.114884
 30
0.0
 10
66.033388
 20
167.858335
 30
0.0
 10
69.425326
 20
169.185679
 30
0.0
 10
70.019312
 20
168.591798
 30
0.0
  0
SPLINE
  5
135
100
AcDbEntity
  8
0
 62
7
100
AcDbSpline
 70
8
 71
3
 72
8
 73
4
 74
0
 40
0
 40
0
 40
0
 40
0
 40
1
 40
1
 40
1
 40
1
 10
70.019312
 20
168.591798
 30
0.0
 10
70.613193
 20
167.997917
 30
0.0
 10
64.977214
 20
165.284746
 30
0.0
 10
65.023496
 20
163.706112
 30
0.0
  0
SPLINE
  5
136
100
AcDbEntity
  8
0
 62
7
100
AcDbSpline
 70
8
 71
3
 72
8
 73
4
 74
0
 40
0
 40
0
 40
0
 40
0
 40
1
 40
1
 40
1
 40
1
 10
65.023496
 20
163.706112
 30
0.0
 10
65.051580
 20
162.748918
 30
0.0
 10
66.169393
 20
161.582088
 30
0.0
 10
67.713526
 20
160.631836
 30
0.0
  0
SPLINE
  5
137
100
AcDbEntity
  8
0
 62
7
100
AcDbSpline
 70
8
 71
3
 72
8
 73
4
 74
0
 40
0
 40
0
 40
0
 40
0
 40
1
 40
1
 40
1
 40
1
 10
67.713526
 20
160.631836
 30
0.0
 10
67.984275
 20
160.465221
 30
0.0
 10
68.574265
 20
160.487415
 30
0.0
 10
69.375573
 20
160.633098
 30
0.0
  0
LWPOLYLINE
  5
138
100
AcDbEntity
  8
0
 62
7
100
AcDbPolyline
 90
2
 70
0
 10
110.582459
 20
193.259845
 30
0.0
 10
109.418995
 20
197.231885
 30
0.0
  0
SPLINE
  5
139
100
AcDbEntity
  8
0
 62
7
100
AcDbSpline
 70
8
 71
3
 72
8
 73
4
 74
0
 40
0
 40
0
 40
0
 40
0
 40
1
 40
1
 40
1
 40
1
 10
69.375573
 20
160.633098
 30
0.0
 10
69.375573
 20
160.633098
 30
0.0
 10
71.909507
 20
157.829361
 30
0.0
 10
74.215188
 20
157.449850
 30
0.0
  0
SPLINE
  5
13a
100
AcDbEntity
  8
0
 62
7
100
AcDbSpline
 70
8
 71
3
 72
8
 73
4
 74
0
 40
0
 40
0
 40
0
 40
0
 40
1
 40
1
 40
1
 40
1
 10
74.215188
 20
157.449850
 30
0.0
 10
76.520658
 20
157.070338
 30
0.0
 10
81.148007
 20
163.498474
 30
0.0
 10
83.351552
 20
163.395287
 30
0.0
  0
SPLINE
  5
13b
100
AcDbEntity
  8
0
 62
7
100
AcDbSpline
 70
8
 71
3
 72
8
 73
4
 74
0
 40
0
 40
0
 40
0
 40
0
 40
1
 40
1
 40
1
 40
1
 10
83.351552
 20
163.395287
 30
0.0
 10
83.795227
 20
163.374565
 30
0.0
 10
84.294651
 20
163.496897
 30
0.0
 10
84.822054
 20
163.698223
 30
0.0
  0
SPLINE
  5
13c
100
AcDbEntity
  8
0
 62
7
100
AcDbSpline
 70
8
 71
3
 72
8
 73
4
 74
0
 40
0
 40
0
 40
0
 40
0
 40
1
 40
1
 40
1
 40
1
 10
84.822054
 20
163.698223
 30
0.0
 10
86.967747
 20
162.534654
 30
0.0
 10
91.277013
 20
159.884488
 30
0.0
 10
92.308784
 20
160.119685
 30
0.0
  0
SPLINE
  5
13d
100
AcDbEntity
  8
0
 62
7
100
AcDbSpline
 70
8
 71
3
 72
8
 73
4
 74
0
 40
0
 40
0
 40
0
 40
0
 40
1
 40
1
 40
1
 40
1
 10
92.308784
 20
160.119685
 30
0.0
 10
93.994182
 20
160.503930
 30
0.0
 10
94.284180
 20
162.233400
 30
0.0
 10
93.851024
 20
163.648365
 30
0.0
  0
SPLINE
  5
13e
100
AcDbEntity
  8
0
 62
7
100
AcDbSpline
 70
8
 71
3
 72
8
 73
4
 74
0
 40
0
 40
0
 40
0
 40
0
 40
1
 40
1
 40
1
 40
1
 10
93.851024
 20
163.648365
 30
0.0
 10
93.761405
 20
163.940993
 30
0.0
 10
93.674101
 20
164.267701
 30
0.0
 10
93.572280
 20
164.615762
 30
0.0
  0
SPLINE
  5
13f
100
AcDbEntity
  8
0
 62
7
100
AcDbSpline
 70
8
 71
3
 72
8
 73
4
 74
0
 40
0
 40
0
 40
0
 40
0
 40
1
 40
1
 40
1
 40
1
 10
93.572280
 20
164.615762
 30
0.0
 10
94.617831
 20
164.039131
 30
0.0
 10
95.542943
 20
163.575576
 30
0.0
 10
95.875016
 20
163.774798
 30
0.0
  0
SPLINE
  5
140
100
AcDbEntity
  8
0
 62
7
100
AcDbSpline
 70
8
 71
3
 72
8
 73
4
 74
0
 40
0
 40
0
 40
0
 40
0
 40
1
 40
1
 40
1
 40
1
 10
95.875016
 20
163.774798
 30
0.0
 10
96.507500
 20
164.154310
 30
0.0
 10
98.025547
 20
167.210915
 30
0.0
 10
95.875016
 20
168.592114
 30
0.0
  0
SPLINE
  5
141
100
AcDbEntity
  8
0
 62
7
100
AcDbSpline
 70
8
 71
3
 72
8
 73
4
 74
0
 40
0
 40
0
 40
0
 40
0
 40
1
 40
1
 40
1
 40
1
 10
95.875016
 20
168.592114
 30
0.0
 10
93.724485
 20
169.973313
 30
0.0
 10
90.183814
 20
171.491255
 30
0.0
 10
89.234403
 20
171.238282
 30
0.0
  0
SPLINE
  5
142
100
AcDbEntity
  8
0
 62
7
100
AcDbSpline
 70
8
 71
3
 72
8
 73
4
 74
0
 40
0
 40
0
 40
0
 40
0
 40
1
 40
1
 40
1
 40
1
 10
89.234403
 20
171.238282
 30
0.0
 10
88.681650
 20
171.091021
 30
0.0
 10
86.833529
 20
170.418461
 30
0.0
 10
85.344724
 20
170.072609
 30
0.0
  0
SPLINE
  5
143
100
AcDbEntity
  8
0
 62
7
100
AcDbSpline
 70
8
 71
3
 72
8
 73
4
 74
0
 40
0
 40
0
 40
0
 40
0
 40
1
 40
1
 40
1
 40
1
 10
85.344724
 20
170.072609
 30
0.0
 10
87.689113
 20
171.366609
 30
0.0
 10
91.697863
 20
173.747077
 30
0.0
 10
92.792956
 20
176.926013
 30
0.0
  0
SPLINE
  5
144
100
AcDbEntity
  8
0
 62
7
100
AcDbSpline
 70
8
 71
3
 72
8
 73
4
 74
0
 40
0
 40
0
 40
0
 40
0
 40
1
 40
1
 40
1
 40
1
 10
92.792956
 20
176.926013
 30
0.0
 10
93.331825
 20
178.490236
 30
0.0
 10
95.789289
 20
180.180999
 30
0.0
 10
96.995038
 20
180.743534
 30
0.0
  0
SPLINE
  5
145
100
AcDbEntity
  8
0
 62
7
100
AcDbSpline
 70
8
 71
3
 72
8
 73
4
 74
0
 40
0
 40
0
 40
0
 40
0
 40
1
 40
1
 40
1
 40
1
 10
96.995038
 20
180.743534
 30
0.0
 10
97.748591
 20
181.094961
 30
0.0
 10
100.150728
 20
183.120215
 30
0.0
 10
103.538143
 20
182.868505
 30
0.0
  0
SPLINE
  5
146
100
AcDbEntity
  8
0
 62
7
100
AcDbSpline
 70
8
 71
3
 72
8
 73
4
 74
0
 40
0
 40
0
 40
0
 40
0
 40
1
 40
1
 40
1
 40
1
 10
103.538143
 20
182.868505
 30
0.0
 10
107.019699
 20
182.609852
 30
0.0
 10
110.227982
 20
184.584301
 30
0.0
 10
110.227982
 20
184.584301
 30
0.0
  0
SPLINE
  5
147
100
AcDbEntity
  8
0
 62
7
100
AcDbSpline
 70
8
 71
3
 72
8
 73
4
 74
0
 40
0
 40
0
 40
0
 40
0
 40
1
 40
1
 40
1
 40
1
 10
110.227982
 20
184.584301
 30
0.0
 10
110.227982
 20
184.584301
 30
0.0
 10
113.417437
 20
184.366461
 30
0.0
 10
113.535140
 20
186.940787
 30
0.0
  0
SPLINE
  5
148
100
AcDbEntity
  8
0
 62
7
100
AcDbSpline
 70
8
 71
3
 72
8
 73
4
 74
0
 40
0
 40
0
 40
0
 40
0
 40
1
 40
1
 40
1
 40
1
 10
113.535140
 20
186.940787
 30
0.0
 10
113.652843
 20
189.515008
 30
0.0
 10
110.778526
 20
191.570766
 30
0.0
 10
110.582459
 20
193.260161
 30
0.0
  0
SPLINE
  5
149
100
AcDbEntity
  8
0
 62
7
100
AcDbSpline
 70
8
 71
3
 72
8
 73
4
 74
0
 40
0
 40
0
 40
0
 40
0
 40
1
 40
1
 40
1
 40
1
 10
21.700958
 20
44.373723
 30
0.0
 10
19.872296
 20
44.373723
 30
0.0
 10
18.531173
 20
44.617544
 30
0.0
 10
15.361493
 20
46.446206
 30
0.0
  0
SPLINE
  5
14a
100
AcDbEntity
  8
0
 62
7
100
AcDbSpline
 70
8
 71
3
 72
8
 73
4
 74
0
 40
0
 40
0
 40
0
 40
0
 40
1
 40
1
 40
1
 40
1
 10
15.361493
 20
46.446206
 30
0.0
 10
17.921619
 20
49.859812
 30
0.0
 10
20.583144
 20
47.001378
 30
0.0
 10
22.310511
 20
48.153061
 30
0.0
  0
SPLINE
  5
14b
100
AcDbEntity
  8
0
 62
7
100
AcDbSpline
 70
8
 71
3
 72
8
 73
4
 74
0
 40
0
 40
0
 40
0
 40
0
 40
1
 40
1
 40
1
 40
1
 10
22.310511
 20
48.153061
 30
0.0
 10
23.773440
 20
49.128347
 30
0.0
 10
24.207859
 20
50.478517
 30
0.0
 10
24.207859
 20
50.478517
 30
0.0
  0
SPLINE
  5
14c
100
AcDbEntity
  8
0
 62
7
100
AcDbSpline
 70
8
 71
3
 72
8
 73
4
 74
0
 40
0
 40
0
 40
0
 40
0
 40
1
 40
1
 40
1
 40
1
 10
24.207859
 20
50.478517
 30
0.0
 10
24.207859
 20
50.478517
 30
0.0
 10
17.921619
 20
63.392221
 30
0.0
 10
23.163887
 20
70.219329
 30
0.0
  0
SPLINE
  5
14d
100
AcDbEntity
  8
0
 62
7
100
AcDbSpline
 70
8
 71
3
 72
8
 73
4
 74
0
 40
0
 40
0
 40
0
 40
0
 40
1
 40
1
 40
1
 40
1
 10
23.163887
 20
70.219329
 30
0.0
 10
27.252998
 20
75.544588
 30
0.0
 10
32.641895
 20
79.540505
 30
0.0
 10
38.159225
 20
80.460042
 30
0.0
  0
SPLINE
  5
14e
100
AcDbEntity
  8
0
 62
7
100
AcDbSpline
 70
8
 71
3
 72
8
 73
4
 74
0
 40
0
 40
0
 40
0
 40
0
 40
1
 40
1
 40
1
 40
1
 10
38.159225
 20
80.460042
 30
0.0
 10
44.742511
 20
81.557239
 30
0.0
 10
53.398385
 20
81.191507
 30
0.0
 10
69.247098
 20
77.899811
 30
0.0
  0
SPLINE
  5
14f
100
AcDbEntity
  8
0
 62
7
100
AcDbSpline
 70
8
 71
3
 72
8
 73
4
 74
0
 40
0
 40
0
 40
0
 40
0
 40
1
 40
1
 40
1
 40
1
 10
69.247098
 20
77.899811
 30
0.0
 10
73.465799
 20
77.023611
 30
0.0
 10
77.197068
 20
78.569532
 30
0.0
 10
78.390615
 20
79.789481
 30
0.0
  0
SPLINE
  5
150
100
AcDbEntity
  8
0
 62
7
100
AcDbSpline
 70
8
 71
3
 72
8
 73
4
 74
0
 40
0
 40
0
 40
0
 40
0
 40
1
 40
1
 40
1
 40
1
 10
78.390615
 20
79.789481
 30
0.0
 10
78.653791
 20
80.058547
 30
0.0
 10
77.407651
 20
79.905291
 30
0.0
 10
77.407651
 20
79.905291
 30
0.0
  0
SPLINE
  5
151
100
AcDbEntity
  8
0
 62
7
100
AcDbSpline
 70
8
 71
3
 72
8
 73
4
 74
0
 40
0
 40
0
 40
0
 40
0
 40
1
 40
1
 40
1
 40
1
 10
77.407651
 20
79.905291
 30
0.0
 10
77.407651
 20
79.905291
 30
0.0
 10
85.470695
 20
83.139660
 30
0.0
 10
86.026183
 20
84.250531
 30
0.0
  0
SPLINE
  5
152
100
AcDbEntity
  8
0
 62
7
100
AcDbSpline
 70
8
 71
3
 72
8
 73
4
 74
0
 40
0
 40
0
 40
0
 40
0
 40
1
 40
1
 40
1
 40
1
 10
86.026183
 20
84.250531
 30
0.0
 10
86.581672
 20
85.361507
 30
0.0
 10
88.875045
 20
90.126966
 30
0.0
 10
88.875045
 20
92.163685
 30
0.0
  0
SPLINE
  5
153
100
AcDbEntity
  8
0
 62
7
100
AcDbSpline
 70
8
 71
3
 72
8
 73
4
 74
0
 40
0
 40
0
 40
0
 40
0
 40
1
 40
1
 40
1
 40
1
 10
88.875045
 20
92.163685
 30
0.0
 10
88.875045
 20
94.200405
 30
0.0
 10
88.878937
 20
101.476867
 30
0.0
 10
88.330286
 20
104.000494
 30
0.0
  0
SPLINE
  5
154
100
AcDbEntity
  8
0
 62
7
100
AcDbSpline
 70
8
 71
3
 72
8
 73
4
 74
0
 40
0
 40
0
 40
0
 40
0
 40
1
 40
1
 40
1
 40
1
 10
88.330286
 20
104.000494
 30
0.0
 10
87.781740
 20
106.524120
 30
0.0
 10
90.325878
 20
106.168801
 30
0.0
 10
91.807109
 20
104.687570
 30
0.0
  0
SPLINE
  5
155
100
AcDbEntity
  8
0
 62
7
100
AcDbSpline
 70
8
 71
3
 72
8
 73
4
 74
0
 40
0
 40
0
 40
0
 40
0
 40
1
 40
1
 40
1
 40
1
 10
91.807109
 20
104.687570
 30
0.0
 10
93.288341
 20
103.206338
 30
0.0
 10
95.654188
 20
96.355564
 30
0.0
 10
95.489677
 20
96.191053
 30
0.0
  0
SPLINE
  5
156
100
AcDbEntity
  8
0
 62
7
100
AcDbSpline
 70
8
 71
3
 72
8
 73
4
 74
0
 40
0
 40
0
 40
0
 40
0
 40
1
 40
1
 40
1
 40
1
 10
95.489677
 20
96.191053
 30
0.0
 10
95.325060
 20
96.026436
 30
0.0
 10
99.028139
 20
98.618644
 30
0.0
 10
99.583627
 20
99.914643
 30
0.0
  0
SPLINE
  5
157
100
AcDbEntity
  8
0
 62
7
100
AcDbSpline
 70
8
 71
3
 72
8
 73
4
 74
0
 40
0
 40
0
 40
0
 40
0
 40
1
 40
1
 40
1
 40
1
 10
99.583627
 20
99.914643
 30
0.0
 10
100.139115
 20
101.210746
 30
0.0
 10
101.805474
 20
101.395874
 30
0.0
 10
102.360962
 20
99.174027
 30
0.0
  0
SPLINE
  5
158
100
AcDbEntity
  8
0
 62
7
100
AcDbSpline
 70
8
 71
3
 72
8
 73
4
 74
0
 40
0
 40
0
 40
0
 40
0
 40
1
 40
1
 40
1
 40
1
 10
102.360962
 20
99.174027
 30
0.0
 10
102.916450
 20
96.952180
 30
0.0
 10
97.876140
 20
86.974326
 30
0.0
 10
97.711524
 20
86.809815
 30
0.0
  0
SPLINE
  5
159
100
AcDbEntity
  8
0
 62
7
100
AcDbSpline
 70
8
 71
3
 72
8
 73
4
 74
0
 40
0
 40
0
 40
0
 40
0
 40
1
 40
1
 40
1
 40
1
 10
97.711524
 20
86.809815
 30
0.0
 10
97.711524
 20
86.809815
 30
0.0
 10
96.120583
 20
82.933916
 30
0.0
 10
96.230292
 20
83.263043
 30
0.0
  0
LWPOLYLINE
  5
15a
100
AcDbEntity
  8
0
 62
7
100
AcDbPolyline
 90
2
 70
0
 10
69.375573
 20
160.633098
 30
0.0
 10
69.375573
 20
160.633098
 30
0.0
  0
SPLINE
  5
15b
100
AcDbEntity
  8
0
 62
7
100
AcDbSpline
 70
8
 71
3
 72
8
 73
4
 74
0
 40
0
 40
0
 40
0
 40
0
 40
1
 40
1
 40
1
 40
1
 10
99.768755
 20
80.164785
 30
0.0
 10
101.250091
 20
78.160989
 30
0.0
 10
102.036673
 20
75.770844
 30
0.0
 10
101.826091
 20
74.869293
 30
0.0
  0
SPLINE
  5
15c
100
AcDbEntity
  8
0
 62
7
100
AcDbSpline
 70
8
 71
3
 72
8
 73
4
 74
0
 40
0
 40
0
 40
0
 40
0
 40
1
 40
1
 40
1
 40
1
 10
101.826091
 20
74.869293
 30
0.0
 10
101.570909
 20
73.776830
 30
0.0
 10
103.636555
 20
71.083959
 30
0.0
 10
104.294810
 20
69.931855
 30
0.0
  0
SPLINE
  5
15d
100
AcDbEntity
  8
0
 62
7
100
AcDbSpline
 70
8
 71
3
 72
8
 73
4
 74
0
 40
0
 40
0
 40
0
 40
0
 40
1
 40
1
 40
1
 40
1
 10
104.294810
 20
69.931855
 30
0.0
 10
104.953170
 20
68.779751
 30
0.0
 10
105.200042
 20
66.804776
 30
0.0
 10
104.706298
 20
65.981904
 30
0.0
  0
SPLINE
  5
15e
100
AcDbEntity
  8
0
 62
7
100
AcDbSpline
 70
8
 71
3
 72
8
 73
4
 74
0
 40
0
 40
0
 40
0
 40
0
 40
1
 40
1
 40
1
 40
1
 10
104.706298
 20
65.981904
 30
0.0
 10
104.212554
 20
65.158928
 30
0.0
 10
102.731323
 20
64.665184
 30
0.0
 10
102.731323
 20
64.665184
 30
0.0
  0
SPLINE
  5
15f
100
AcDbEntity
  8
0
 62
7
100
AcDbSpline
 70
8
 71
3
 72
8
 73
4
 74
0
 40
0
 40
0
 40
0
 40
0
 40
1
 40
1
 40
1
 40
1
 10
102.731323
 20
64.665184
 30
0.0
 10
102.731323
 20
64.665184
 30
0.0
 10
101.983870
 20
63.675593
 30
0.0
 10
101.332347
 20
63.567987
 30
0.0
  0
SPLINE
  5
160
100
AcDbEntity
  8
0
 62
7
100
AcDbSpline
 70
8
 71
3
 72
8
 73
4
 74
0
 40
0
 40
0
 40
0
 40
0
 40
1
 40
1
 40
1
 40
1
 10
101.332347
 20
63.567987
 30
0.0
 10
100.157733
 20
63.374024
 30
0.0
 10
97.437198
 20
62.745116
 30
0.0
 10
95.462223
 20
64.061731
 30
0.0
  0
SPLINE
  5
161
100
AcDbEntity
  8
0
 62
7
100
AcDbSpline
 70
8
 71
3
 72
8
 73
4
 74
0
 40
0
 40
0
 40
0
 40
0
 40
1
 40
1
 40
1
 40
1
 10
95.462223
 20
64.061731
 30
0.0
 10
93.690783
 20
65.242656
 30
0.0
 10
87.562217
 20
66.804776
 30
0.0
 10
86.026183
 20
62.854825
 30
0.0
  0
SPLINE
  5
162
100
AcDbEntity
  8
0
 62
7
100
AcDbSpline
 70
8
 71
3
 72
8
 73
4
 74
0
 40
0
 40
0
 40
0
 40
0
 40
1
 40
1
 40
1
 40
1
 10
86.026183
 20
62.854825
 30
0.0
 10
85.450815
 20
61.375382
 30
0.0
 10
82.535581
 20
59.734793
 30
0.0
 10
82.657492
 20
57.418489
 30
0.0
  0
SPLINE
  5
163
100
AcDbEntity
  8
0
 62
7
100
AcDbSpline
 70
8
 71
3
 72
8
 73
4
 74
0
 40
0
 40
0
 40
0
 40
0
 40
1
 40
1
 40
1
 40
1
 10
82.657492
 20
57.418489
 30
0.0
 10
82.779508
 20
55.102080
 30
0.0
 10
83.091279
 20
51.655971
 30
0.0
 10
84.364347
 20
50.469366
 30
0.0
  0
SPLINE
  5
164
100
AcDbEntity
  8
0
 62
7
100
AcDbSpline
 70
8
 71
3
 72
8
 73
4
 74
0
 40
0
 40
0
 40
0
 40
0
 40
1
 40
1
 40
1
 40
1
 10
84.364347
 20
50.469366
 30
0.0
 10
86.729668
 20
48.264559
 30
0.0
 10
92.547935
 20
46.402238
 30
0.0
 10
92.509648
 20
46.363950
 30
0.0
  0
SPLINE
  5
165
100
AcDbEntity
  8
0
 62
7
100
AcDbSpline
 70
8
 71
3
 72
8
 73
4
 74
0
 40
0
 40
0
 40
0
 40
0
 40
1
 40
1
 40
1
 40
1
 10
92.509648
 20
46.363950
 30
0.0
 10
92.326729
 20
46.181031
 30
0.0
 10
100.586367
 20
42.392647
 30
0.0
 10
103.260830
 20
41.569775
 30
0.0
  0
SPLINE
  5
166
100
AcDbEntity
  8
0
 62
7
100
AcDbSpline
 70
8
 71
3
 72
8
 73
4
 74
0
 40
0
 40
0
 40
0
 40
0
 40
1
 40
1
 40
1
 40
1
 10
103.260830
 20
41.569775
 30
0.0
 10
104.932448
 20
41.055415
 30
0.0
 10
105.394321
 20
39.436285
 30
0.0
 10
104.845670
 20
39.161959
 30
0.0
  0
SPLINE
  5
167
100
AcDbEntity
  8
0
 62
7
100
AcDbSpline
 70
8
 71
3
 72
8
 73
4
 74
0
 40
0
 40
0
 40
0
 40
0
 40
1
 40
1
 40
1
 40
1
 10
104.845670
 20
39.161959
 30
0.0
 10
104.297124
 20
38.887634
 30
0.0
 10
104.097165
 20
38.054244
 30
0.0
 10
103.017008
 20
37.668526
 30
0.0
  0
SPLINE
  5
168
100
AcDbEntity
  8
0
 62
7
100
AcDbSpline
 70
8
 71
3
 72
8
 73
4
 74
0
 40
0
 40
0
 40
0
 40
0
 40
1
 40
1
 40
1
 40
1
 10
103.017008
 20
37.668526
 30
0.0
 10
102.051084
 20
37.323516
 30
0.0
 10
98.072628
 20
38.765302
 30
0.0
 10
96.433722
 20
38.887634
 30
0.0
  0
SPLINE
  5
169
100
AcDbEntity
  8
0
 62
7
100
AcDbSpline
 70
8
 71
3
 72
8
 73
4
 74
0
 40
0
 40
0
 40
0
 40
0
 40
1
 40
1
 40
1
 40
1
 10
96.433722
 20
38.887634
 30
0.0
 10
93.185995
 20
39.130088
 30
0.0
 10
89.118551
 20
41.569355
 30
0.0
 10
88.997061
 20
41.447865
 30
0.0
  0
SPLINE
  5
16a
100
AcDbEntity
  8
0
 62
7
100
AcDbSpline
 70
8
 71
3
 72
8
 73
4
 74
0
 40
0
 40
0
 40
0
 40
0
 40
1
 40
1
 40
1
 40
1
 10
88.997061
 20
41.447865
 30
0.0
 10
88.814143
 20
41.264946
 30
0.0
 10
92.611047
 20
35.394612
 30
0.0
 10
94.483150
 20
31.938615
 30
0.0
  0
SPLINE
  5
16b
100
AcDbEntity
  8
0
 62
7
100
AcDbSpline
 70
8
 71
3
 72
8
 73
4
 74
0
 40
0
 40
0
 40
0
 40
0
 40
1
 40
1
 40
1
 40
1
 10
94.483150
 20
31.938615
 30
0.0
 10
95.688794
 20
29.712666
 30
0.0
 10
95.245014
 20
26.818259
 30
0.0
 10
94.564670
 20
26.486396
 30
0.0
  0
SPLINE
  5
16c
100
AcDbEntity
  8
0
 62
7
100
AcDbSpline
 70
8
 71
3
 72
8
 73
4
 74
0
 40
0
 40
0
 40
0
 40
0
 40
1
 40
1
 40
1
 40
1
 10
94.564670
 20
26.486396
 30
0.0
 10
93.884220
 20
26.154534
 30
0.0
 10
93.916197
 20
25.803317
 30
0.0
 10
93.507759
 20
25.599046
 30
0.0
  0
SPLINE
  5
16d
100
AcDbEntity
  8
0
 62
7
100
AcDbSpline
 70
8
 71
3
 72
8
 73
4
 74
0
 40
0
 40
0
 40
0
 40
0
 40
1
 40
1
 40
1
 40
1
 10
93.507759
 20
25.599046
 30
0.0
 10
92.458843
 20
25.074588
 30
0.0
 10
91.878215
 20
26.420655
 30
0.0
 10
91.313366
 20
27.671634
 30
0.0
  0
SPLINE
  5
16e
100
AcDbEntity
  8
0
 62
7
100
AcDbSpline
 70
8
 71
3
 72
8
 73
4
 74
0
 40
0
 40
0
 40
0
 40
0
 40
1
 40
1
 40
1
 40
1
 10
91.313366
 20
27.671634
 30
0.0
 10
90.748621
 20
28.922613
 30
0.0
 10
89.488912
 20
33.187386
 30
0.0
 10
88.509313
 20
34.376831
 30
0.0
  0
SPLINE
  5
16f
100
AcDbEntity
  8
0
 62
7
100
AcDbSpline
 70
8
 71
3
 72
8
 73
4
 74
0
 40
0
 40
0
 40
0
 40
0
 40
1
 40
1
 40
1
 40
1
 10
88.509313
 20
34.376831
 30
0.0
 10
86.802562
 20
36.449419
 30
0.0
 10
83.023224
 20
41.403581
 30
0.0
 10
82.840410
 20
41.220768
 30
0.0
  0
SPLINE
  5
170
100
AcDbEntity
  8
0
 62
7
100
AcDbSpline
 70
8
 71
3
 72
8
 73
4
 74
0
 40
0
 40
0
 40
0
 40
0
 40
1
 40
1
 40
1
 40
1
 10
82.840410
 20
41.220768
 30
0.0
 10
82.773302
 20
41.153659
 30
0.0
 10
75.765064
 20
47.044925
 30
0.0
 10
73.757901
 20
46.324295
 30
0.0
  0
SPLINE
  5
171
100
AcDbEntity
  8
0
 62
7
100
AcDbSpline
 70
8
 71
3
 72
8
 73
4
 74
0
 40
0
 40
0
 40
0
 40
0
 40
1
 40
1
 40
1
 40
1
 10
73.757901
 20
46.324295
 30
0.0
 10
69.003277
 20
44.617544
 30
0.0
 10
66.086465
 20
44.628168
 30
0.0
 10
65.970655
 20
44.512358
 30
0.0
  0
SPLINE
  5
172
100
AcDbEntity
  8
0
 62
7
100
AcDbSpline
 70
8
 71
3
 72
8
 73
4
 74
0
 40
0
 40
0
 40
0
 40
0
 40
1
 40
1
 40
1
 40
1
 10
65.970655
 20
44.512358
 30
0.0
 10
65.787736
 20
44.329545
 30
0.0
 10
63.319017
 20
41.655081
 30
0.0
 10
62.290402
 20
40.420617
 30
0.0
  0
SPLINE
  5
173
100
AcDbEntity
  8
0
 62
7
100
AcDbSpline
 70
8
 71
3
 72
8
 73
4
 74
0
 40
0
 40
0
 40
0
 40
0
 40
1
 40
1
 40
1
 40
1
 10
62.290402
 20
40.420617
 30
0.0
 10
61.261786
 20
39.186257
 30
0.0
 10
53.192641
 20
39.552095
 30
0.0
 10
53.009722
 20
39.369176
 30
0.0
  0
SPLINE
  5
174
100
AcDbEntity
  8
0
 62
7
100
AcDbSpline
 70
8
 71
3
 72
8
 73
4
 74
0
 40
0
 40
0
 40
0
 40
0
 40
1
 40
1
 40
1
 40
1
 10
53.009722
 20
39.369176
 30
0.0
 10
52.909690
 20
39.269144
 30
0.0
 10
57.787277
 20
36.083686
 30
0.0
 10
60.956957
 20
35.717849
 30
0.0
  0
SPLINE
  5
175
100
AcDbEntity
  8
0
 62
7
100
AcDbSpline
 70
8
 71
3
 72
8
 73
4
 74
0
 40
0
 40
0
 40
0
 40
0
 40
1
 40
1
 40
1
 40
1
 10
60.956957
 20
35.717849
 30
0.0
 10
63.312706
 20
35.446048
 30
0.0
 10
65.803198
 20
34.862475
 30
0.0
 10
66.686867
 20
34.254920
 30
0.0
  0
SPLINE
  5
176
100
AcDbEntity
  8
0
 62
7
100
AcDbSpline
 70
8
 71
3
 72
8
 73
4
 74
0
 40
0
 40
0
 40
0
 40
0
 40
1
 40
1
 40
1
 40
1
 10
66.686867
 20
34.254920
 30
0.0
 10
68.637545
 20
32.913902
 30
0.0
 10
65.627538
 20
30.277200
 30
0.0
 10
62.541796
 20
30.353671
 30
0.0
  0
SPLINE
  5
177
100
AcDbEntity
  8
0
 62
7
100
AcDbSpline
 70
8
 71
3
 72
8
 73
4
 74
0
 40
0
 40
0
 40
0
 40
0
 40
1
 40
1
 40
1
 40
1
 10
62.541796
 20
30.353671
 30
0.0
 10
58.720278
 20
30.448548
 30
0.0
 10
52.830905
 20
33.180759
 30
0.0
 10
49.740957
 20
33.767277
 30
0.0
  0
SPLINE
  5
178
100
AcDbEntity
  8
0
 62
7
100
AcDbSpline
 70
8
 71
3
 72
8
 73
4
 74
0
 40
0
 40
0
 40
0
 40
0
 40
1
 40
1
 40
1
 40
1
 10
49.740957
 20
33.767277
 30
0.0
 10
45.821510
 20
34.511258
 30
0.0
 10
42.057634
 20
34.012886
 30
0.0
 10
40.353724
 20
35.108295
 30
0.0
  0
SPLINE
  5
179
100
AcDbEntity
  8
0
 62
7
100
AcDbSpline
 70
8
 71
3
 72
8
 73
4
 74
0
 40
0
 40
0
 40
0
 40
0
 40
1
 40
1
 40
1
 40
1
 10
40.353724
 20
35.108295
 30
0.0
 10
36.940117
 20
37.302794
 30
0.0
 10
41.877555
 20
40.992198
 30
0.0
 10
41.694742
 20
40.809280
 30
0.0
  0
SPLINE
  5
17a
100
AcDbEntity
  8
0
 62
7
100
AcDbSpline
 70
8
 71
3
 72
8
 73
4
 74
0
 40
0
 40
0
 40
0
 40
0
 40
1
 40
1
 40
1
 40
1
 10
41.694742
 20
40.809280
 30
0.0
 10
41.511823
 20
40.626361
 30
0.0
 10
44.552019
 20
43.460917
 30
0.0
 10
44.369100
 20
43.277999
 30
0.0
  0
SPLINE
  5
17b
100
AcDbEntity
  8
0
 62
7
100
AcDbSpline
 70
8
 71
3
 72
8
 73
4
 74
0
 40
0
 40
0
 40
0
 40
0
 40
1
 40
1
 40
1
 40
1
 10
44.369100
 20
43.277999
 30
0.0
 10
44.186286
 20
43.095080
 30
0.0
 10
37.488768
 20
43.581355
 30
0.0
 10
37.305850
 20
43.398437
 30
0.0
  0
SPLINE
  5
17c
100
AcDbEntity
  8
0
 62
7
100
AcDbSpline
 70
8
 71
3
 72
8
 73
4
 74
0
 40
0
 40
0
 40
0
 40
0
 40
1
 40
1
 40
1
 40
1
 10
37.305850
 20
43.398437
 30
0.0
 10
37.122931
 20
43.215518
 30
0.0
 10
34.555232
 20
42.497833
 30
0.0
 10
32.307404
 20
42.545061
 30
0.0
  0
SPLINE
  5
17d
100
AcDbEntity
  8
0
 62
7
100
AcDbSpline
 70
8
 71
3
 72
8
 73
4
 74
0
 40
0
 40
0
 40
0
 40
0
 40
1
 40
1
 40
1
 40
1
 10
32.307404
 20
42.545061
 30
0.0
 10
30.059575
 20
42.592185
 30
0.0
 10
27.187047
 20
45.105187
 30
0.0
 10
26.333671
 20
44.861366
 30
0.0
  0
SPLINE
  5
17e
100
AcDbEntity
  8
0
 62
7
100
AcDbSpline
 70
8
 71
3
 72
8
 73
4
 74
0
 40
0
 40
0
 40
0
 40
0
 40
1
 40
1
 40
1
 40
1
 10
26.333671
 20
44.861366
 30
0.0
 10
26.333671
 20
44.861366
 30
0.0
 10
23.618186
 20
44.373723
 30
0.0
 10
21.700958
 20
44.373723
 30
0.0
  0
SPLINE
  5
17f
100
AcDbEntity
  8
0
 62
7
100
AcDbSpline
 70
8
 71
3
 72
8
 73
4
 74
0
 40
0
 40
0
 40
0
 40
0
 40
1
 40
1
 40
1
 40
1
 10
5.926667
 20
22.577782
 30
0.0
 10
5.926667
 20
22.421912
 30
0.0
 10
5.800311
 20
22.295555
 30
0.0
 10
5.644444
 20
22.295555
 30
0.0
  0
SPLINE
  5
180
100
AcDbEntity
  8
0
 62
7
100
AcDbSpline
 70
8
 71
3
 72
8
 73
4
 74
0
 40
0
 40
0
 40
0
 40
0
 40
1
 40
1
 40
1
 40
1
 10
5.644444
 20
22.295555
 30
0.0
 10
5.488577
 20
22.295555
 30
0.0
 10
5.362222
 20
22.421912
 30
0.0
 10
5.362222
 20
22.577782
 30
0.0
  0
SPLINE
  5
181
100
AcDbEntity
  8
0
 62
7
100
AcDbSpline
 70
8
 71
3
 72
8
 73
4
 74
0
 40
0
 40
0
 40
0
 40
0
 40
1
 40
1
 40
1
 40
1
 10
5.362222
 20
22.577782
 30
0.0
 10
5.362222
 20
22.733651
 30
0.0
 10
5.488577
 20
22.860008
 30
0.0
 10
5.644444
 20
22.860008
 30
0.0
  0
SPLINE
  5
182
100
AcDbEntity
  8
0
 62
7
100
AcDbSpline
 70
8
 71
3
 72
8
 73
4
 74
0
 40
0
 40
0
 40
0
 40
0
 40
1
 40
1
 40
1
 40
1
 10
5.644444
 20
22.860008
 30
0.0
 10
5.800311
 20
22.860008
 30
0.0
 10
5.926667
 20
22.733651
 30
0.0
 10
5.926667
 20
22.577782
 30
0.0
  0
LWPOLYLINE
  5
183
100
AcDbEntity
  8
0
 62
7
100
AcDbPolyline
 90
2
 70
0
 10
96.230292
 20
83.263043
 30
0.0
 10
99.768755
 20
80.164785
 30
0.0
  0
SPLINE
  5
184
100
AcDbEntity
  8
0
 62
7
100
AcDbSpline
 70
8
 71
3
 72
8
 73
4
 74
0
 40
0
 40
0
 40
0
 40
0
 40
1
 40
1
 40
1
 40
1
 10
22.860000
 20
5.644450
 30
0.0
 10
22.860000
 20
5.488579
 30
0.0
 10
22.733645
 20
5.362222
 30
0.0
 10
22.577777
 20
5.362222
 30
0.0
  0
SPLINE
  5
185
100
AcDbEntity
  8
0
 62
7
100
AcDbSpline
 70
8
 71
3
 72
8
 73
4
 74
0
 40
0
 40
0
 40
0
 40
0
 40
1
 40
1
 40
1
 40
1
 10
22.577777
 20
5.362222
 30
0.0
 10
22.421911
 20
5.362222
 30
0.0
 10
22.295556
 20
5.488579
 30
0.0
 10
22.295556
 20
5.644450
 30
0.0
  0
SPLINE
  5
186
100
AcDbEntity
  8
0
 62
7
100
AcDbSpline
 70
8
 71
3
 72
8
 73
4
 74
0
 40
0
 40
0
 40
0
 40
0
 40
1
 40
1
 40
1
 40
1
 10
22.295556
 20
5.644450
 30
0.0
 10
22.295556
 20
5.800319
 30
0.0
 10
22.421911
 20
5.926675
 30
0.0
 10
22.577777
 20
5.926675
 30
0.0
  0
SPLINE
  5
187
100
AcDbEntity
  8
0
 62
7
100
AcDbSpline
 70
8
 71
3
 72
8
 73
4
 74
0
 40
0
 40
0
 40
0
 40
0
 40
1
 40
1
 40
1
 40
1
 10
22.577777
 20
5.926675
 30
0.0
 10
22.733645
 20
5.926675
 30
0.0
 10
22.860000
 20
5.800319
 30
0.0
 10
22.860000
 20
5.644450
 30
0.0
  0
LWPOLYLINE
  5
188
100
AcDbEntity
  8
0
 62
7
100
AcDbPolyline
 90
2
 70
1
 10
5.926667
 20
22.577782
 30
0.0
 10
5.926667
 20
22.577782
 30
0.0
  0
SPLINE
  5
189
100
AcDbEntity
  8
0
 62
7
100
AcDbSpline
 70
8
 71
3
 72
8
 73
4
 74
0
 40
0
 40
0
 40
0
 40
0
 40
1
 40
1
 40
1
 40
1
 10
104.704444
 20
248.355561
 30
0.0
 10
104.704444
 20
248.199690
 30
0.0
 10
104.578088
 20
248.073333
 30
0.0
 10
104.422222
 20
248.073333
 30
0.0
  0
SPLINE
  5
18a
100
AcDbEntity
  8
0
 62
7
100
AcDbSpline
 70
8
 71
3
 72
8
 73
4
 74
0
 40
0
 40
0
 40
0
 40
0
 40
1
 40
1
 40
1
 40
1
 10
104.422222
 20
248.073333
 30
0.0
 10
104.266357
 20
248.073333
 30
0.0
 10
104.140000
 20
248.199690
 30
0.0
 10
104.140000
 20
248.355561
 30
0.0
  0
SPLINE
  5
18b
100
AcDbEntity
  8
0
 62
7
100
AcDbSpline
 70
8
 71
3
 72
8
 73
4
 74
0
 40
0
 40
0
 40
0
 40
0
 40
1
 40
1
 40
1
 40
1
 10
104.140000
 20
248.355561
 30
0.0
 10
104.140000
 20
248.511430
 30
0.0
 10
104.266357
 20
248.637786
 30
0.0
 10
104.422222
 20
248.637786
 30
0.0
  0
SPLINE
  5
18c
100
AcDbEntity
  8
0
 62
7
100
AcDbSpline
 70
8
 71
3
 72
8
 73
4
 74
0
 40
0
 40
0
 40
0
 40
0
 40
1
 40
1
 40
1
 40
1
 10
104.422222
 20
248.637786
 30
0.0
 10
104.578088
 20
248.637786
 30
0.0
 10
104.704444
 20
248.511430
 30
0.0
 10
104.704444
 20
248.355561
 30
0.0
  0
LWPOLYLINE
  5
18d
100
AcDbEntity
  8
0
 62
7
100
AcDbPolyline
 90
2
 70
1
 10
22.860000
 20
5.644450
 30
0.0
 10
22.860000
 20
5.644450
 30
0.0
  0
SPLINE
  5
18e
100
AcDbEntity
  8
0
 62
7
100
AcDbSpline
 70
8
 71
3
 72
8
 73
4
 74
0
 40
0
 40
0
 40
0
 40
0
 40
1
 40
1
 40
1
 40
1
 10
22.860000
 20
248.355561
 30
0.0
 10
22.860000
 20
248.199690
 30
0.0
 10
22.733643
 20
248.073333
 30
0.0
 10
22.577778
 20
248.073333
 30
0.0
  0
SPLINE
  5
18f
100
AcDbEntity
  8
0
 62
7
100
AcDbSpline
 70
8
 71
3
 72
8
 73
4
 74
0
 40
0
 40
0
 40
0
 40
0
 40
1
 40
1
 40
1
 40
1
 10
22.577778
 20
248.073333
 30
0.0
 10
22.421912
 20
248.073333
 30
0.0
 10
22.295556
 20
248.199690
 30
0.0
 10
22.295556
 20
248.355561
 30
0.0
  0
SPLINE
  5
190
100
AcDbEntity
  8
0
 62
7
100
AcDbSpline
 70
8
 71
3
 72
8
 73
4
 74
0
 40
0
 40
0
 40
0
 40
0
 40
1
 40
1
 40
1
 40
1
 10
22.295556
 20
248.355561
 30
0.0
 10
22.295556
 20
248.511430
 30
0.0
 10
22.421912
 20
248.637786
 30
0.0
 10
22.577778
 20
248.637786
 30
0.0
  0
SPLINE
  5
191
100
AcDbEntity
  8
0
 62
7
100
AcDbSpline
 70
8
 71
3
 72
8
 73
4
 74
0
 40
0
 40
0
 40
0
 40
0
 40
1
 40
1
 40
1
 40
1
 10
22.577778
 20
248.637786
 30
0.0
 10
22.733643
 20
248.637786
 30
0.0
 10
22.860000
 20
248.511430
 30
0.0
 10
22.860000
 20
248.355561
 30
0.0
  0
LWPOLYLINE
  5
192
100
AcDbEntity
  8
0
 62
7
100
AcDbPolyline
 90
2
 70
1
 10
104.704444
 20
248.355561
 30
0.0
 10
104.704444
 20
248.355561
 30
0.0
  0
SPLINE
  5
193
100
AcDbEntity
  8
0
 62
7
100
AcDbSpline
 70
8
 71
3
 72
8
 73
4
 74
0
 40
0
 40
0
 40
0
 40
0
 40
1
 40
1
 40
1
 40
1
 10
104.704444
 20
121.355561
 30
0.0
 10
104.704444
 20
121.199690
 30
0.0
 10
104.578088
 20
121.073333
 30
0.0
 10
104.422222
 20
121.073333
 30
0.0
  0
SPLINE
  5
194
100
AcDbEntity
  8
0
 62
7
100
AcDbSpline
 70
8
 71
3
 72
8
 73
4
 74
0
 40
0
 40
0
 40
0
 40
0
 40
1
 40
1
 40
1
 40
1
 10
104.422222
 20
121.073333
 30
0.0
 10
104.266357
 20
121.073333
 30
0.0
 10
104.140000
 20
121.199690
 30
0.0
 10
104.140000
 20
121.355561
 30
0.0
  0
SPLINE
  5
195
100
AcDbEntity
  8
0
 62
7
100
AcDbSpline
 70
8
 71
3
 72
8
 73
4
 74
0
 40
0
 40
0
 40
0
 40
0
 40
1
 40
1
 40
1
 40
1
 10
104.140000
 20
121.355561
 30
0.0
 10
104.140000
 20
121.511430
 30
0.0
 10
104.266357
 20
121.637786
 30
0.0
 10
104.422222
 20
121.637786
 30
0.0
  0
SPLINE
  5
196
100
AcDbEntity
  8
0
 62
7
100
AcDbSpline
 70
8
 71
3
 72
8
 73
4
 74
0
 40
0
 40
0
 40
0
 40
0
 40
1
 40
1
 40
1
 40
1
 10
104.422222
 20
121.637786
 30
0.0
 10
104.578088
 20
121.637786
 30
0.0
 10
104.704444
 20
121.511430
 30
0.0
 10
104.704444
 20
121.355561
 30
0.0
  0
LWPOLYLINE
  5
197
100
AcDbEntity
  8
0
 62
7
100
AcDbPolyline
 90
2
 70
1
 10
22.860000
 20
248.355561
 30
0.0
 10
22.860000
 20
248.355561
 30
0.0
  0
SPLINE
  5
198
100
AcDbEntity
  8
0
 62
7
100
AcDbSpline
 70
8
 71
3
 72
8
 73
4
 74
0
 40
0
 40
0
 40
0
 40
0
 40
1
 40
1
 40
1
 40
1
 10
22.860000
 20
121.355561
 30
0.0
 10
22.860000
 20
121.199690
 30
0.0
 10
22.733645
 20
121.073333
 30
0.0
 10
22.577777
 20
121.073333
 30
0.0
  0
SPLINE
  5
199
100
AcDbEntity
  8
0
 62
7
100
AcDbSpline
 70
8
 71
3
 72
8
 73
4
 74
0
 40
0
 40
0
 40
0
 40
0
 40
1
 40
1
 40
1
 40
1
 10
22.577777
 20
121.073333
 30
0.0
 10
22.421911
 20
121.073333
 30
0.0
 10
22.295556
 20
121.199690
 30
0.0
 10
22.295556
 20
121.355561
 30
0.0
  0
SPLINE
  5
19a
100
AcDbEntity
  8
0
 62
7
100
AcDbSpline
 70
8
 71
3
 72
8
 73
4
 74
0
 40
0
 40
0
 40
0
 40
0
 40
1
 40
1
 40
1
 40
1
 10
22.295556
 20
121.355561
 30
0.0
 10
22.295556
 20
121.511430
 30
0.0
 10
22.421911
 20
121.637786
 30
0.0
 10
22.577777
 20
121.637786
 30
0.0
  0
SPLINE
  5
19b
100
AcDbEntity
  8
0
 62
7
100
AcDbSpline
 70
8
 71
3
 72
8
 73
4
 74
0
 40
0
 40
0
 40
0
 40
0
 40
1
 40
1
 40
1
 40
1
 10
22.577777
 20
121.637786
 30
0.0
 10
22.733645
 20
121.637786
 30
0.0
 10
22.860000
 20
121.511430
 30
0.0
 10
22.860000
 20
121.355561
 30
0.0
  0
LWPOLYLINE
  5
19c
100
AcDbEntity
  8
0
 62
7
100
AcDbPolyline
 90
2
 70
1
 10
104.704444
 20
121.355561
 30
0.0
 10
104.704444
 20
121.355561
 30
0.0
  0
SPLINE
  5
19d
100
AcDbEntity
  8
0
 62
7
100
AcDbSpline
 70
8
 71
3
 72
8
 73
4
 74
0
 40
0
 40
0
 40
0
 40
0
 40
1
 40
1
 40
1
 40
1
 10
22.860000
 20
132.644450
 30
0.0
 10
22.860000
 20
132.488579
 30
0.0
 10
22.733645
 20
132.362222
 30
0.0
 10
22.577777
 20
132.362222
 30
0.0
  0
SPLINE
  5
19e
100
AcDbEntity
  8
0
 62
7
100
AcDbSpline
 70
8
 71
3
 72
8
 73
4
 74
0
 40
0
 40
0
 40
0
 40
0
 40
1
 40
1
 40
1
 40
1
 10
22.577777
 20
132.362222
 30
0.0
 10
22.421911
 20
132.362222
 30
0.0
 10
22.295556
 20
132.488579
 30
0.0
 10
22.295556
 20
132.644450
 30
0.0
  0
SPLINE
  5
19f
100
AcDbEntity
  8
0
 62
7
100
AcDbSpline
 70
8
 71
3
 72
8
 73
4
 74
0
 40
0
 40
0
 40
0
 40
0
 40
1
 40
1
 40
1
 40
1
 10
22.295556
 20
132.644450
 30
0.0
 10
22.295556
 20
132.800319
 30
0.0
 10
22.421911
 20
132.926675
 30
0.0
 10
22.577777
 20
132.926675
 30
0.0
  0
SPLINE
  5
1a0
100
AcDbEntity
  8
0
 62
7
100
AcDbSpline
 70
8
 71
3
 72
8
 73
4
 74
0
 40
0
 40
0
 40
0
 40
0
 40
1
 40
1
 40
1
 40
1
 10
22.577777
 20
132.926675
 30
0.0
 10
22.733645
 20
132.926675
 30
0.0
 10
22.860000
 20
132.800319
 30
0.0
 10
22.860000
 20
132.644450
 30
0.0
  0
LWPOLYLINE
  5
1a1
100
AcDbEntity
  8
0
 62
7
100
AcDbPolyline
 90
2
 70
1
 10
22.860000
 20
121.355561
 30
0.0
 10
22.860000
 20
121.355561
 30
0.0
  0
SPLINE
  5
1a2
100
AcDbEntity
  8
0
 62
7
100
AcDbSpline
 70
8
 71
3
 72
8
 73
4
 74
0
 40
0
 40
0
 40
0
 40
0
 40
1
 40
1
 40
1
 40
1
 10
104.704444
 20
5.644450
 30
0.0
 10
104.704444
 20
5.488579
 30
0.0
 10
104.578088
 20
5.362222
 30
0.0
 10
104.422222
 20
5.362222
 30
0.0
  0
SPLINE
  5
1a3
100
AcDbEntity
  8
0
 62
7
100
AcDbSpline
 70
8
 71
3
 72
8
 73
4
 74
0
 40
0
 40
0
 40
0
 40
0
 40
1
 40
1
 40
1
 40
1
 10
104.422222
 20
5.362222
 30
0.0
 10
104.266357
 20
5.362222
 30
0.0
 10
104.140000
 20
5.488579
 30
0.0
 10
104.140000
 20
5.644450
 30
0.0
  0
SPLINE
  5
1a4
100
AcDbEntity
  8
0
 62
7
100
AcDbSpline
 70
8
 71
3
 72
8
 73
4
 74
0
 40
0
 40
0
 40
0
 40
0
 40
1
 40
1
 40
1
 40
1
 10
104.140000
 20
5.644450
 30
0.0
 10
104.140000
 20
5.800319
 30
0.0
 10
104.266357
 20
5.926675
 30
0.0
 10
104.422222
 20
5.926675
 30
0.0
  0
SPLINE
  5
1a5
100
AcDbEntity
  8
0
 62
7
100
AcDbSpline
 70
8
 71
3
 72
8
 73
4
 74
0
 40
0
 40
0
 40
0
 40
0
 40
1
 40
1
 40
1
 40
1
 10
104.422222
 20
5.926675
 30
0.0
 10
104.578088
 20
5.926675
 30
0.0
 10
104.704444
 20
5.800319
 30
0.0
 10
104.704444
 20
5.644450
 30
0.0
  0
LWPOLYLINE
  5
1a6
100
AcDbEntity
  8
0
 62
7
100
AcDbPolyline
 90
2
 70
1
 10
22.860000
 20
132.644450
 30
0.0
 10
22.860000
 20
132.644450
 30
0.0
  0
SPLINE
  5
1a7
100
AcDbEntity
  8
0
 62
7
100
AcDbSpline
 70
8
 71
3
 72
8
 73
4
 74
0
 40
0
 40
0
 40
0
 40
0
 40
1
 40
1
 40
1
 40
1
 10
104.704444
 20
132.644450
 30
0.0
 10
104.704444
 20
132.488579
 30
0.0
 10
104.578088
 20
132.362222
 30
0.0
 10
104.422222
 20
132.362222
 30
0.0
  0
SPLINE
  5
1a8
100
AcDbEntity
  8
0
 62
7
100
AcDbSpline
 70
8
 71
3
 72
8
 73
4
 74
0
 40
0
 40
0
 40
0
 40
0
 40
1
 40
1
 40
1
 40
1
 10
104.422222
 20
132.362222
 30
0.0
 10
104.266357
 20
132.362222
 30
0.0
 10
104.140000
 20
132.488579
 30
0.0
 10
104.140000
 20
132.644450
 30
0.0
  0
SPLINE
  5
1a9
100
AcDbEntity
  8
0
 62
7
100
AcDbSpline
 70
8
 71
3
 72
8
 73
4
 74
0
 40
0
 40
0
 40
0
 40
0
 40
1
 40
1
 40
1
 40
1
 10
104.140000
 20
132.644450
 30
0.0
 10
104.140000
 20
132.800319
 30
0.0
 10
104.266357
 20
132.926675
 30
0.0
 10
104.422222
 20
132.926675
 30
0.0
  0
SPLINE
  5
1aa
100
AcDbEntity
  8
0
 62
7
100
AcDbSpline
 70
8
 71
3
 72
8
 73
4
 74
0
 40
0
 40
0
 40
0
 40
0
 40
1
 40
1
 40
1
 40
1
 10
104.422222
 20
132.926675
 30
0.0
 10
104.578088
 20
132.926675
 30
0.0
 10
104.704444
 20
132.800319
 30
0.0
 10
104.704444
 20
132.644450
 30
0.0
  0
LWPOLYLINE
  5
1ab
100
AcDbEntity
  8
0
 62
7
100
AcDbPolyline
 90
2
 70
1
 10
104.704444
 20
5.644450
 30
0.0
 10
104.704444
 20
5.644450
 30
0.0
  0
SPLINE
  5
1ac
100
AcDbEntity
  8
0
 62
7
100
AcDbSpline
 70
8
 71
3
 72
8
 73
4
 74
0
 40
0
 40
0
 40
0
 40
0
 40
1
 40
1
 40
1
 40
1
 10
5.926667
 20
104.422228
 30
0.0
 10
5.926667
 20
104.266357
 30
0.0
 10
5.800311
 20
104.140000
 30
0.0
 10
5.644444
 20
104.140000
 30
0.0
  0
SPLINE
  5
1ad
100
AcDbEntity
  8
0
 62
7
100
AcDbSpline
 70
8
 71
3
 72
8
 73
4
 74
0
 40
0
 40
0
 40
0
 40
0
 40
1
 40
1
 40
1
 40
1
 10
5.644444
 20
104.140000
 30
0.0
 10
5.488577
 20
104.140000
 30
0.0
 10
5.362222
 20
104.266357
 30
0.0
 10
5.362222
 20
104.422228
 30
0.0
  0
SPLINE
  5
1ae
100
AcDbEntity
  8
0
 62
7
100
AcDbSpline
 70
8
 71
3
 72
8
 73
4
 74
0
 40
0
 40
0
 40
0
 40
0
 40
1
 40
1
 40
1
 40
1
 10
5.362222
 20
104.422228
 30
0.0
 10
5.362222
 20
104.578096
 30
0.0
 10
5.488577
 20
104.704453
 30
0.0
 10
5.644444
 20
104.704453
 30
0.0
  0
SPLINE
  5
1af
100
AcDbEntity
  8
0
 62
7
100
AcDbSpline
 70
8
 71
3
 72
8
 73
4
 74
0
 40
0
 40
0
 40
0
 40
0
 40
1
 40
1
 40
1
 40
1
 10
5.644444
 20
104.704453
 30
0.0
 10
5.800311
 20
104.704453
 30
0.0
 10
5.926667
 20
104.578096
 30
0.0
 10
5.926667
 20
104.422228
 30
0.0
  0
LWPOLYLINE
  5
1b0
100
AcDbEntity
  8
0
 62
7
100
AcDbPolyline
 90
2
 70
1
 10
104.704444
 20
132.644450
 30
0.0
 10
104.704444
 20
132.644450
 30
0.0
  0
SPLINE
  5
1b1
100
AcDbEntity
  8
0
 62
7
100
AcDbSpline
 70
8
 71
3
 72
8
 73
4
 74
0
 40
0
 40
0
 40
0
 40
0
 40
1
 40
1
 40
1
 40
1
 10
5.926667
 20
231.422228
 30
0.0
 10
5.926667
 20
231.266357
 30
0.0
 10
5.800311
 20
231.140000
 30
0.0
 10
5.644444
 20
231.140000
 30
0.0
  0
SPLINE
  5
1b2
100
AcDbEntity
  8
0
 62
7
100
AcDbSpline
 70
8
 71
3
 72
8
 73
4
 74
0
 40
0
 40
0
 40
0
 40
0
 40
1
 40
1
 40
1
 40
1
 10
5.644444
 20
231.140000
 30
0.0
 10
5.488577
 20
231.140000
 30
0.0
 10
5.362222
 20
231.266357
 30
0.0
 10
5.362222
 20
231.422228
 30
0.0
  0
SPLINE
  5
1b3
100
AcDbEntity
  8
0
 62
7
100
AcDbSpline
 70
8
 71
3
 72
8
 73
4
 74
0
 40
0
 40
0
 40
0
 40
0
 40
1
 40
1
 40
1
 40
1
 10
5.362222
 20
231.422228
 30
0.0
 10
5.362222
 20
231.578096
 30
0.0
 10
5.488577
 20
231.704453
 30
0.0
 10
5.644444
 20
231.704453
 30
0.0
  0
SPLINE
  5
1b4
100
AcDbEntity
  8
0
 62
7
100
AcDbSpline
 70
8
 71
3
 72
8
 73
4
 74
0
 40
0
 40
0
 40
0
 40
0
 40
1
 40
1
 40
1
 40
1
 10
5.644444
 20
231.704453
 30
0.0
 10
5.800311
 20
231.704453
 30
0.0
 10
5.926667
 20
231.578096
 30
0.0
 10
5.926667
 20
231.422228
 30
0.0
  0
LWPOLYLINE
  5
1b5
100
AcDbEntity
  8
0
 62
7
100
AcDbPolyline
 90
2
 70
1
 10
5.926667
 20
104.422228
 30
0.0
 10
5.926667
 20
104.422228
 30
0.0
  0
SPLINE
  5
1b6
100
AcDbEntity
  8
0
 62
7
100
AcDbSpline
 70
8
 71
3
 72
8
 73
4
 74
0
 40
0
 40
0
 40
0
 40
0
 40
1
 40
1
 40
1
 40
1
 10
121.637778
 20
231.422228
 30
0.0
 10
121.637778
 20
231.266357
 30
0.0
 10
121.511421
 20
231.140000
 30
0.0
 10
121.355556
 20
231.140000
 30
0.0
  0
SPLINE
  5
1b7
100
AcDbEntity
  8
0
 62
7
100
AcDbSpline
 70
8
 71
3
 72
8
 73
4
 74
0
 40
0
 40
0
 40
0
 40
0
 40
1
 40
1
 40
1
 40
1
 10
121.355556
 20
231.140000
 30
0.0
 10
121.199690
 20
231.140000
 30
0.0
 10
121.073333
 20
231.266357
 30
0.0
 10
121.073333
 20
231.422228
 30
0.0
  0
SPLINE
  5
1b8
100
AcDbEntity
  8
0
 62
7
100
AcDbSpline
 70
8
 71
3
 72
8
 73
4
 74
0
 40
0
 40
0
 40
0
 40
0
 40
1
 40
1
 40
1
 40
1
 10
121.073333
 20
231.422228
 30
0.0
 10
121.073333
 20
231.578096
 30
0.0
 10
121.199690
 20
231.704453
 30
0.0
 10
121.355556
 20
231.704453
 30
0.0
  0
SPLINE
  5
1b9
100
AcDbEntity
  8
0
 62
7
100
AcDbSpline
 70
8
 71
3
 72
8
 73
4
 74
0
 40
0
 40
0
 40
0
 40
0
 40
1
 40
1
 40
1
 40
1
 10
121.355556
 20
231.704453
 30
0.0
 10
121.511421
 20
231.704453
 30
0.0
 10
121.637778
 20
231.578096
 30
0.0
 10
121.637778
 20
231.422228
 30
0.0
  0
LWPOLYLINE
  5
1ba
100
AcDbEntity
  8
0
 62
7
100
AcDbPolyline
 90
2
 70
1
 10
5.926667
 20
231.422228
 30
0.0
 10
5.926667
 20
231.422228
 30
0.0
  0
SPLINE
  5
1bb
100
AcDbEntity
  8
0
 62
7
100
AcDbSpline
 70
8
 71
3
 72
8
 73
4
 74
0
 40
0
 40
0
 40
0
 40
0
 40
1
 40
1
 40
1
 40
1
 10
121.637778
 20
104.422228
 30
0.0
 10
121.637778
 20
104.266357
 30
0.0
 10
121.511421
 20
104.140000
 30
0.0
 10
121.355556
 20
104.140000
 30
0.0
  0
SPLINE
  5
1bc
100
AcDbEntity
  8
0
 62
7
100
AcDbSpline
 70
8
 71
3
 72
8
 73
4
 74
0
 40
0
 40
0
 40
0
 40
0
 40
1
 40
1
 40
1
 40
1
 10
121.355556
 20
104.140000
 30
0.0
 10
121.199690
 20
104.140000
 30
0.0
 10
121.073333
 20
104.266357
 30
0.0
 10
121.073333
 20
104.422228
 30
0.0
  0
SPLINE
  5
1bd
100
AcDbEntity
  8
0
 62
7
100
AcDbSpline
 70
8
 71
3
 72
8
 73
4
 74
0
 40
0
 40
0
 40
0
 40
0
 40
1
 40
1
 40
1
 40
1
 10
121.073333
 20
104.422228
 30
0.0
 10
121.073333
 20
104.578096
 30
0.0
 10
121.199690
 20
104.704453
 30
0.0
 10
121.355556
 20
104.704453
 30
0.0
  0
SPLINE
  5
1be
100
AcDbEntity
  8
0
 62
7
100
AcDbSpline
 70
8
 71
3
 72
8
 73
4
 74
0
 40
0
 40
0
 40
0
 40
0
 40
1
 40
1
 40
1
 40
1
 10
121.355556
 20
104.704453
 30
0.0
 10
121.511421
 20
104.704453
 30
0.0
 10
121.637778
 20
104.578096
 30
0.0
 10
121.637778
 20
104.422228
 30
0.0
  0
LWPOLYLINE
  5
1bf
100
AcDbEntity
  8
0
 62
7
100
AcDbPolyline
 90
2
 70
1
 10
121.637778
 20
231.422228
 30
0.0
 10
121.637778
 20
231.422228
 30
0.0
  0
SPLINE
  5
1c0
100
AcDbEntity
  8
0
 62
7
100
AcDbSpline
 70
8
 71
3
 72
8
 73
4
 74
0
 40
0
 40
0
 40
0
 40
0
 40
1
 40
1
 40
1
 40
1
 10
5.926667
 20
149.577781
 30
0.0
 10
5.926667
 20
149.421912
 30
0.0
 10
5.800310
 20
149.295556
 30
0.0
 10
5.644444
 20
149.295556
 30
0.0
  0
SPLINE
  5
1c1
100
AcDbEntity
  8
0
 62
7
100
AcDbSpline
 70
8
 71
3
 72
8
 73
4
 74
0
 40
0
 40
0
 40
0
 40
0
 40
1
 40
1
 40
1
 40
1
 10
5.644444
 20
149.295556
 30
0.0
 10
5.488576
 20
149.295556
 30
0.0
 10
5.362222
 20
149.421912
 30
0.0
 10
5.362222
 20
149.577781
 30
0.0
  0
SPLINE
  5
1c2
100
AcDbEntity
  8
0
 62
7
100
AcDbSpline
 70
8
 71
3
 72
8
 73
4
 74
0
 40
0
 40
0
 40
0
 40
0
 40
1
 40
1
 40
1
 40
1
 10
5.362222
 20
149.577781
 30
0.0
 10
5.362222
 20
149.733652
 30
0.0
 10
5.488576
 20
149.860008
 30
0.0
 10
5.644444
 20
149.860008
 30
0.0
  0
SPLINE
  5
1c3
100
AcDbEntity
  8
0
 62
7
100
AcDbSpline
 70
8
 71
3
 72
8
 73
4
 74
0
 40
0
 40
0
 40
0
 40
0
 40
1
 40
1
 40
1
 40
1
 10
5.644444
 20
149.860008
 30
0.0
 10
5.800310
 20
149.860008
 30
0.0
 10
5.926667
 20
149.733652
 30
0.0
 10
5.926667
 20
149.577781
 30
0.0
  0
LWPOLYLINE
  5
1c4
100
AcDbEntity
  8
0
 62
7
100
AcDbPolyline
 90
2
 70
1
 10
121.637778
 20
104.422228
 30
0.0
 10
121.637778
 20
104.422228
 30
0.0
  0
SPLINE
  5
1c5
100
AcDbEntity
  8
0
 62
7
100
AcDbSpline
 70
8
 71
3
 72
8
 73
4
 74
0
 40
0
 40
0
 40
0
 40
0
 40
1
 40
1
 40
1
 40
1
 10
121.637778
 20
149.577781
 30
0.0
 10
121.637778
 20
149.421912
 30
0.0
 10
121.511421
 20
149.295556
 30
0.0
 10
121.355556
 20
149.295556
 30
0.0
  0
SPLINE
  5
1c6
100
AcDbEntity
  8
0
 62
7
100
AcDbSpline
 70
8
 71
3
 72
8
 73
4
 74
0
 40
0
 40
0
 40
0
 40
0
 40
1
 40
1
 40
1
 40
1
 10
121.355556
 20
149.295556
 30
0.0
 10
121.199687
 20
149.295556
 30
0.0
 10
121.073333
 20
149.421912
 30
0.0
 10
121.073333
 20
149.577781
 30
0.0
  0
SPLINE
  5
1c7
100
AcDbEntity
  8
0
 62
7
100
AcDbSpline
 70
8
 71
3
 72
8
 73
4
 74
0
 40
0
 40
0
 40
0
 40
0
 40
1
 40
1
 40
1
 40
1
 10
121.073333
 20
149.577781
 30
0.0
 10
121.073333
 20
149.733652
 30
0.0
 10
121.199687
 20
149.860008
 30
0.0
 10
121.355556
 20
149.860008
 30
0.0
  0
SPLINE
  5
1c8
100
AcDbEntity
  8
0
 62
7
100
AcDbSpline
 70
8
 71
3
 72
8
 73
4
 74
0
 40
0
 40
0
 40
0
 40
0
 40
1
 40
1
 40
1
 40
1
 10
121.355556
 20
149.860008
 30
0.0
 10
121.511421
 20
149.860008
 30
0.0
 10
121.637778
 20
149.733652
 30
0.0
 10
121.637778
 20
149.577781
 30
0.0
  0
LWPOLYLINE
  5
1c9
100
AcDbEntity
  8
0
 62
7
100
AcDbPolyline
 90
2
 70
1
 10
5.926667
 20
149.577781
 30
0.0
 10
5.926667
 20
149.577781
 30
0.0
  0
SPLINE
  5
1ca
100
AcDbEntity
  8
0
 62
7
100
AcDbSpline
 70
8
 71
3
 72
8
 73
4
 74
0
 40
0
 40
0
 40
0
 40
0
 40
1
 40
1
 40
1
 40
1
 10
121.637778
 20
22.577781
 30
0.0
 10
121.637778
 20
22.421912
 30
0.0
 10
121.511421
 20
22.295556
 30
0.0
 10
121.355556
 20
22.295556
 30
0.0
  0
SPLINE
  5
1cb
100
AcDbEntity
  8
0
 62
7
100
AcDbSpline
 70
8
 71
3
 72
8
 73
4
 74
0
 40
0
 40
0
 40
0
 40
0
 40
1
 40
1
 40
1
 40
1
 10
121.355556
 20
22.295556
 30
0.0
 10
121.199687
 20
22.295556
 30
0.0
 10
121.073333
 20
22.421912
 30
0.0
 10
121.073333
 20
22.577781
 30
0.0
  0
SPLINE
  5
1cc
100
AcDbEntity
  8
0
 62
7
100
AcDbSpline
 70
8
 71
3
 72
8
 73
4
 74
0
 40
0
 40
0
 40
0
 40
0
 40
1
 40
1
 40
1
 40
1
 10
121.073333
 20
22.577781
 30
0.0
 10
121.073333
 20
22.733652
 30
0.0
 10
121.199687
 20
22.860008
 30
0.0
 10
121.355556
 20
22.860008
 30
0.0
  0
SPLINE
  5
1cd
100
AcDbEntity
  8
0
 62
7
100
AcDbSpline
 70
8
 71
3
 72
8
 73
4
 74
0
 40
0
 40
0
 40
0
 40
0
 40
1
 40
1
 40
1
 40
1
 10
121.355556
 20
22.860008
 30
0.0
 10
121.511421
 20
22.860008
 30
0.0
 10
121.637778
 20
22.733652
 30
0.0
 10
121.637778
 20
22.577781
 30
0.0
  0
LWPOLYLINE
  5
1ce
100
AcDbEntity
  8
0
 62
7
100
AcDbPolyline
 90
2
 70
1
 10
121.637778
 20
149.577781
 30
0.0
 10
121.637778
 20
149.577781
 30
0.0
  0
LWPOLYLINE
  5
1cf
100
AcDbEntity
  8
0
 62
7
100
AcDbPolyline
 90
2
 70
1
 10
121.637778
 20
22.577781
 30
0.0
 10
121.637778
 20
22.577781
 30
0.0
  0
ENDSEC
  0
SECTION
  2
OBJECTS
  0
DICTIONARY
  5
C
330
0
100
AcDbDictionary
  3
ACAD_GROUP
350
D
  3
ACAD_MLINESTYLE
350
17
  0
DICTIONARY
  5
D
330
C
100
AcDbDictionary
  0
DICTIONARY
  5
1A
330
C
100
AcDbDictionary
  0
DICTIONARY
  5
17
330
C
100
AcDbDictionary
  3
STANDARD
350
18
  0
DICTIONARY
  5
19
330
C
100
AcDbDictionary
  0
ENDSEC
  0
EOF
