  0
SECTION
  2
HEADER
  9
$ACADVER
  1
AC1014
  9
$HANDSEED
  5
FFFF
  9
$MEASUREMENT
 70
     1
  0
ENDSEC
  0
SECTION
  2
TABLES
  0
TABLE
  2
VPORT
  5
8
330
0
100
AcDbSymbolTable
 70
     4
  0
VPORT
  5
2E
330
8
100
AcDbSymbolTableRecord
100
AcDbViewportTableRecord
  2
*ACTIVE
 70
     0
 10
0.0
 20
0.0
 11
1.0
 21
1.0
 12
210.0
 22
148.5
 13
0.0
 23
0.0
 14
10.0
 24
10.0
 15
10.0
 25
10.0
 16
0.0
 26
0.0
 36
1.0
 17
0.0
 27
0.0
 37
0.0
 40
341.0
 41
1.24
 42
50.0
 43
0.0
 44
0.0
 50
0.0
 51
0.0
 71
     0
 72
   100
 73
     1
 74
     3
 75
     0
 76
     0
 77
     0
 78
     0
  0
ENDTAB
  0
TABLE
  2
LTYPE
  5
5
330
0
100
AcDbSymbolTable
 70
     1
  0
LTYPE
  5
14
330
5
100
AcDbSymbolTableRecord
100
AcDbLinetypeTableRecord
  2
BYBLOCK
 70
     0
  3

 72
    65
 73
     0
 40
0.0
  0
LTYPE
  5
15
330
5
100
AcDbSymbolTableRecord
100
AcDbLinetypeTableRecord
  2
BYLAYER
 70
     0
  3

 72
    65
 73
     0
 40
0.0
  0
LTYPE
  5
16
330
5
100
AcDbSymbolTableRecord
100
AcDbLinetypeTableRecord
  2
CONTINUOUS
 70
     0
  3
Solid line
 72
    65
 73
     0
 40
0.0
  0
ENDTAB
  0
TABLE
  2
LAYER
  5
2
100
AcDbSymbolTable
 70
1
  0
LAYER
  5
50
100
AcDbSymbolTableRecord
100
AcDbLayerTableRecord
  2
0
 70
0
  6
CONTINUOUS
  0
ENDTAB
  0
TABLE
  2
STYLE
  5
3
330
0
100
AcDbSymbolTable
 70
     1
  0
STYLE
  5
11
330
3
100
AcDbSymbolTableRecord
100
AcDbTextStyleTableRecord
  2
STANDARD
 70
     0
 40
0.0
 41
1.0
 50
0.0
 71
     0
 42
2.5
  3
txt
  4

  0
ENDTAB
  0
TABLE
  2
VIEW
  5
6
330
0
100
AcDbSymbolTable
 70
     0
  0
ENDTAB
  0
TABLE
  2
UCS
  5
7
330
0
100
AcDbSymbolTable
 70
     0
  0
ENDTAB
  0
TABLE
  2
APPID
  5
9
330
0
100
AcDbSymbolTable
 70
     2
  0
APPID
  5
12
330
9
100
AcDbSymbolTableRecord
100
AcDbRegAppTableRecord
  2
ACAD
 70
     0
  0
ENDTAB
  0
TABLE
  2
DIMSTYLE
  5
A
330
0
100
AcDbSymbolTable
 70
     1
  0
DIMSTYLE
105
27
330
A
100
AcDbSymbolTableRecord
100
AcDbDimStyleTableRecord
  2
ISO-25
 70
     0
  3

  4

  5

  6

  7

 40
1.0
 41
2.5
 42
0.625
 43
3.75
 44
1.25
 45
0.0
 46
0.0
 47
0.0
 48
0.0
140
2.5
141
2.5
142
0.0
143
0.03937007874016
144
1.0
145
0.0
146
1.0
147
0.625
 71
     0
 72
     0
 73
     0
 74
     0
 75
     0
 76
     0
 77
     1
 78
     8
170
     0
171
     3
172
     1
173
     0
174
     0
175
     0
176
     0
177
     0
178
     0
270
     2
271
     2
272
     2
273
     2
274
     3
340
11
275
     0
280
     0
281
     0
282
     0
283
     0
284
     8
285
     0
286
     0
287
     3
288
     0
  0
ENDTAB
  0
TABLE
  2
BLOCK_RECORD
  5
1
330
0
100
AcDbSymbolTable
 70
     1
  0
BLOCK_RECORD
  5
1F
330
1
100
AcDbSymbolTableRecord
100
AcDbBlockTableRecord
  2
*MODEL_SPACE
  0
BLOCK_RECORD
  5
1B
330
1
100
AcDbSymbolTableRecord
100
AcDbBlockTableRecord
  2
*PAPER_SPACE
  0
ENDTAB
  0
ENDSEC
  0
SECTION
  2
BLOCKS
  0
BLOCK
  5
20
330
1F
100
AcDbEntity
  8
0
100
AcDbBlockBegin
  2
*MODEL_SPACE
 70
     0
 10
0.0
 20
0.0
 30
0.0
  3
*MODEL_SPACE
  1

  0
ENDBLK
  5
21
330
1F
100
AcDbEntity
  8
0
100
AcDbBlockEnd
  0
BLOCK
  5
1C
330
1B
100
AcDbEntity
 67
     1
  8
0
100
AcDbBlockBegin
  2
*PAPER_SPACE
  1

  0
ENDBLK
  5
1D
330
1B
100
AcDbEntity
 67
     1
  8
0
100
AcDbBlockEnd
  0
ENDSEC
  0
SECTION
  2
ENTITIES
  0
SPLINE
  5
100
100
AcDbEntity
  8
0
 62
7
100
AcDbSpline
 70
8
 71
3
 72
8
 73
4
 74
0
 40
0
 40
0
 40
0
 40
0
 40
1
 40
1
 40
1
 40
1
 10
114.976281
 20
126.953922
 30
0.0
 10
121.637998
 20
126.953922
 30
0.0
 10
127.000000
 20
121.591493
 30
0.0
 10
127.000000
 20
114.932325
 30
0.0
  0
SPLINE
  5
101
100
AcDbEntity
  8
0
 62
7
100
AcDbSpline
 70
8
 71
3
 72
8
 73
4
 74
0
 40
0
 40
0
 40
0
 40
0
 40
1
 40
1
 40
1
 40
1
 10
127.000000
 20
12.019150
 30
0.0
 10
127.000000
 20
5.359953
 30
0.0
 10
121.637998
 20
0.000006
 30
0.0
 10
114.976281
 20
0.000006
 30
0.0
  0
LWPOLYLINE
  5
102
100
AcDbEntity
  8
0
 62
7
100
AcDbPolyline
 90
2
 70
0
 10
127.000000
 20
114.932325
 30
0.0
 10
127.000000
 20
12.019150
 30
0.0
  0
SPLINE
  5
103
100
AcDbEntity
  8
0
 62
7
100
AcDbSpline
 70
8
 71
3
 72
8
 73
4
 74
0
 40
0
 40
0
 40
0
 40
0
 40
1
 40
1
 40
1
 40
1
 10
12.023712
 20
0.000006
 30
0.0
 10
5.361991
 20
0.000006
 30
0.0
 10
0.000000
 20
5.359953
 30
0.0
 10
0.000000
 20
12.019150
 30
0.0
  0
LWPOLYLINE
  5
104
100
AcDbEntity
  8
0
 62
7
100
AcDbPolyline
 90
2
 70
0
 10
114.976281
 20
0.000006
 30
0.0
 10
12.023712
 20
0.000006
 30
0.0
  0
SPLINE
  5
105
100
AcDbEntity
  8
0
 62
7
100
AcDbSpline
 70
8
 71
3
 72
8
 73
4
 74
0
 40
0
 40
0
 40
0
 40
0
 40
1
 40
1
 40
1
 40
1
 10
0.000000
 20
114.932325
 30
0.0
 10
0.000000
 20
121.591493
 30
0.0
 10
5.361991
 20
126.953922
 30
0.0
 10
12.023712
 20
126.953922
 30
0.0
  0
LWPOLYLINE
  5
106
100
AcDbEntity
  8
0
 62
7
100
AcDbPolyline
 90
2
 70
0
 10
0.000000
 20
12.019150
 30
0.0
 10
0.000000
 20
114.932325
 30
0.0
  0
SPLINE
  5
107
100
AcDbEntity
  8
0
 62
7
100
AcDbSpline
 70
8
 71
3
 72
8
 73
4
 74
0
 40
0
 40
0
 40
0
 40
0
 40
1
 40
1
 40
1
 40
1
 10
114.976281
 20
127.048545
 30
0.0
 10
121.637998
 20
127.048545
 30
0.0
 10
127.000000
 20
132.408490
 30
0.0
 10
127.000000
 20
139.067659
 30
0.0
  0
LWPOLYLINE
  5
108
100
AcDbEntity
  8
0
 62
7
100
AcDbPolyline
 90
2
 70
0
 10
12.023712
 20
126.953922
 30
0.0
 10
114.976281
 20
127.048545
 30
0.0
  0
SPLINE
  5
109
100
AcDbEntity
  8
0
 62
7
100
AcDbSpline
 70
8
 71
3
 72
8
 73
4
 74
0
 40
0
 40
0
 40
0
 40
0
 40
1
 40
1
 40
1
 40
1
 10
127.000000
 20
241.980890
 30
0.0
 10
127.000000
 20
248.640087
 30
0.0
 10
121.638006
 20
254.000006
 30
0.0
 10
114.976281
 20
254.000006
 30
0.0
  0
LWPOLYLINE
  5
10a
100
AcDbEntity
  8
0
 62
7
100
AcDbPolyline
 90
2
 70
0
 10
127.000000
 20
139.067659
 30
0.0
 10
127.000000
 20
241.980890
 30
0.0
  0
SPLINE
  5
10b
100
AcDbEntity
  8
0
 62
7
100
AcDbSpline
 70
8
 71
3
 72
8
 73
4
 74
0
 40
0
 40
0
 40
0
 40
0
 40
1
 40
1
 40
1
 40
1
 10
12.023712
 20
254.000006
 30
0.0
 10
5.361991
 20
254.000006
 30
0.0
 10
0.000000
 20
248.640087
 30
0.0
 10
0.000000
 20
241.980890
 30
0.0
  0
LWPOLYLINE
  5
10c
100
AcDbEntity
  8
0
 62
7
100
AcDbPolyline
 90
2
 70
0
 10
114.976281
 20
254.000006
 30
0.0
 10
12.023712
 20
254.000006
 30
0.0
  0
SPLINE
  5
10d
100
AcDbEntity
  8
0
 62
7
100
AcDbSpline
 70
8
 71
3
 72
8
 73
4
 74
0
 40
0
 40
0
 40
0
 40
0
 40
1
 40
1
 40
1
 40
1
 10
0.000000
 20
139.067659
 30
0.0
 10
0.000000
 20
132.408490
 30
0.0
 10
5.361991
 20
127.048545
 30
0.0
 10
12.023712
 20
127.048545
 30
0.0
  0
SPLINE
  5
10e
100
AcDbEntity
  8
0
 62
7
100
AcDbSpline
 70
8
 71
3
 72
8
 73
4
 74
0
 40
0
 40
0
 40
0
 40
0
 40
1
 40
1
 40
1
 40
1
 10
10.341394
 20
47.838945
 30
0.0
 10
10.844921
 20
48.890911
 30
0.0
 10
13.736804
 20
50.848215
 30
0.0
 10
16.053108
 20
52.972660
 30
0.0
  0
SPLINE
  5
10f
100
AcDbEntity
  8
0
 62
7
100
AcDbSpline
 70
8
 71
3
 72
8
 73
4
 74
0
 40
0
 40
0
 40
0
 40
0
 40
1
 40
1
 40
1
 40
1
 10
16.053108
 20
52.972660
 30
0.0
 10
15.422622
 20
52.850960
 30
0.0
 10
14.649399
 20
52.814565
 30
0.0
 10
13.644871
 20
52.913125
 30
0.0
  0
SPLINE
  5
110
100
AcDbEntity
  8
0
 62
7
100
AcDbSpline
 70
8
 71
3
 72
8
 73
4
 74
0
 40
0
 40
0
 40
0
 40
0
 40
1
 40
1
 40
1
 40
1
 10
13.644871
 20
52.913125
 30
0.0
 10
9.419964
 20
53.327137
 30
0.0
 10
11.391468
 20
54.979927
 30
0.0
 10
12.215812
 20
55.608835
 30
0.0
  0
SPLINE
  5
111
100
AcDbEntity
  8
0
 62
7
100
AcDbSpline
 70
8
 71
3
 72
8
 73
4
 74
0
 40
0
 40
0
 40
0
 40
0
 40
1
 40
1
 40
1
 40
1
 10
12.215812
 20
55.608835
 30
0.0
 10
13.179527
 20
56.343982
 30
0.0
 10
17.073834
 20
56.998555
 30
0.0
 10
20.193025
 20
58.067562
 30
0.0
  0
SPLINE
  5
112
100
AcDbEntity
  8
0
 62
7
100
AcDbSpline
 70
8
 71
3
 72
8
 73
4
 74
0
 40
0
 40
0
 40
0
 40
0
 40
1
 40
1
 40
1
 40
1
 10
20.193025
 20
58.067562
 30
0.0
 10
21.338712
 20
59.570988
 30
0.0
 10
22.499441
 20
60.853207
 30
0.0
 10
23.511648
 20
61.171921
 30
0.0
  0
SPLINE
  5
113
100
AcDbEntity
  8
0
 62
7
100
AcDbSpline
 70
8
 71
3
 72
8
 73
4
 74
0
 40
0
 40
0
 40
0
 40
0
 40
1
 40
1
 40
1
 40
1
 10
23.511648
 20
61.171921
 30
0.0
 10
24.211556
 20
61.392391
 30
0.0
 10
24.663541
 20
61.012459
 30
0.0
 10
25.205986
 20
60.484635
 30
0.0
  0
SPLINE
  5
114
100
AcDbEntity
  8
0
 62
7
100
AcDbSpline
 70
8
 71
3
 72
8
 73
4
 74
0
 40
0
 40
0
 40
0
 40
0
 40
1
 40
1
 40
1
 40
1
 10
25.205986
 20
60.484635
 30
0.0
 10
26.951445
 20
61.370618
 30
0.0
 10
28.632215
 20
62.081255
 30
0.0
 10
29.726467
 20
61.995423
 30
0.0
  0
SPLINE
  5
115
100
AcDbEntity
  8
0
 62
7
100
AcDbSpline
 70
8
 71
3
 72
8
 73
4
 74
0
 40
0
 40
0
 40
0
 40
0
 40
1
 40
1
 40
1
 40
1
 10
29.726467
 20
61.995423
 30
0.0
 10
30.861951
 20
61.906331
 30
0.0
 10
31.796741
 20
60.990685
 30
0.0
 10
33.126609
 20
59.998780
 30
0.0
  0
SPLINE
  5
116
100
AcDbEntity
  8
0
 62
7
100
AcDbSpline
 70
8
 71
3
 72
8
 73
4
 74
0
 40
0
 40
0
 40
0
 40
0
 40
1
 40
1
 40
1
 40
1
 10
33.126609
 20
59.998780
 30
0.0
 10
33.691459
 20
60.823229
 30
0.0
 10
34.274085
 20
61.833016
 30
0.0
 10
34.412089
 20
62.458663
 30
0.0
  0
SPLINE
  5
117
100
AcDbEntity
  8
0
 62
7
100
AcDbSpline
 70
8
 71
3
 72
8
 73
4
 74
0
 40
0
 40
0
 40
0
 40
0
 40
1
 40
1
 40
1
 40
1
 10
34.412089
 20
62.458663
 30
0.0
 10
34.866704
 20
64.519681
 30
0.0
 10
34.000496
 20
66.376847
 30
0.0
 10
34.000496
 20
66.376847
 30
0.0
  0
SPLINE
  5
118
100
AcDbEntity
  8
0
 62
7
100
AcDbSpline
 70
8
 71
3
 72
8
 73
4
 74
0
 40
0
 40
0
 40
0
 40
0
 40
1
 40
1
 40
1
 40
1
 10
34.000496
 20
66.376847
 30
0.0
 10
34.000496
 20
66.376847
 30
0.0
 10
30.417224
 20
69.471634
 30
0.0
 10
30.704593
 20
72.161455
 30
0.0
  0
SPLINE
  5
119
100
AcDbEntity
  8
0
 62
7
100
AcDbSpline
 70
8
 71
3
 72
8
 73
4
 74
0
 40
0
 40
0
 40
0
 40
0
 40
1
 40
1
 40
1
 40
1
 10
30.704593
 20
72.161455
 30
0.0
 10
30.989963
 20
74.832447
 30
0.0
 10
31.012262
 20
75.966669
 30
0.0
 10
32.006482
 20
75.929644
 30
0.0
  0
SPLINE
  5
11a
100
AcDbEntity
  8
0
 62
7
100
AcDbSpline
 70
8
 71
3
 72
8
 73
4
 74
0
 40
0
 40
0
 40
0
 40
0
 40
1
 40
1
 40
1
 40
1
 10
32.006482
 20
75.929644
 30
0.0
 10
33.000806
 20
75.892618
 30
0.0
 10
33.723751
 20
74.979392
 30
0.0
 10
34.365281
 20
73.193962
 30
0.0
  0
SPLINE
  5
11b
100
AcDbEntity
  8
0
 62
7
100
AcDbSpline
 70
8
 71
3
 72
8
 73
4
 74
0
 40
0
 40
0
 40
0
 40
0
 40
1
 40
1
 40
1
 40
1
 10
34.365281
 20
73.193962
 30
0.0
 10
35.924771
 20
68.853666
 30
0.0
 10
35.737119
 20
69.498878
 30
0.0
 10
36.680008
 20
68.528641
 30
0.0
  0
SPLINE
  5
11c
100
AcDbEntity
  8
0
 62
7
100
AcDbSpline
 70
8
 71
3
 72
8
 73
4
 74
0
 40
0
 40
0
 40
0
 40
0
 40
1
 40
1
 40
1
 40
1
 10
36.680008
 20
68.528641
 30
0.0
 10
37.705257
 20
67.473518
 30
0.0
 10
39.518877
 20
68.860818
 30
0.0
 10
44.571389
 20
69.430296
 30
0.0
  0
SPLINE
  5
11d
100
AcDbEntity
  8
0
 62
7
100
AcDbSpline
 70
8
 71
3
 72
8
 73
4
 74
0
 40
0
 40
0
 40
0
 40
0
 40
1
 40
1
 40
1
 40
1
 10
44.571389
 20
69.430296
 30
0.0
 10
50.687438
 20
70.119792
 30
0.0
 10
54.414183
 20
69.662337
 30
0.0
 10
59.589763
 20
70.677699
 30
0.0
  0
SPLINE
  5
11e
100
AcDbEntity
  8
0
 62
7
100
AcDbSpline
 70
8
 71
3
 72
8
 73
4
 74
0
 40
0
 40
0
 40
0
 40
0
 40
1
 40
1
 40
1
 40
1
 10
59.589763
 20
70.677699
 30
0.0
 10
65.413289
 20
71.820231
 30
0.0
 10
69.232283
 20
73.701065
 30
0.0
 10
72.720677
 20
74.981285
 30
0.0
  0
SPLINE
  5
11f
100
AcDbEntity
  8
0
 62
7
100
AcDbSpline
 70
8
 71
3
 72
8
 73
4
 74
0
 40
0
 40
0
 40
0
 40
0
 40
1
 40
1
 40
1
 40
1
 10
72.720677
 20
74.981285
 30
0.0
 10
75.779490
 20
76.103937
 30
0.0
 10
81.997780
 20
77.174522
 30
0.0
 10
83.587669
 20
78.386792
 30
0.0
  0
SPLINE
  5
120
100
AcDbEntity
  8
0
 62
7
100
AcDbSpline
 70
8
 71
3
 72
8
 73
4
 74
0
 40
0
 40
0
 40
0
 40
0
 40
1
 40
1
 40
1
 40
1
 10
83.587669
 20
78.386792
 30
0.0
 10
85.596303
 20
79.918408
 30
0.0
 10
86.944474
 20
81.123315
 30
0.0
 10
87.818466
 20
83.109861
 30
0.0
  0
SPLINE
  5
121
100
AcDbEntity
  8
0
 62
7
100
AcDbSpline
 70
8
 71
3
 72
8
 73
4
 74
0
 40
0
 40
0
 40
0
 40
0
 40
1
 40
1
 40
1
 40
1
 10
87.818466
 20
83.109861
 30
0.0
 10
88.397200
 20
84.425109
 30
0.0
 10
89.605579
 20
85.717005
 30
0.0
 10
89.605579
 20
85.717005
 30
0.0
  0
SPLINE
  5
122
100
AcDbEntity
  8
0
 62
7
100
AcDbSpline
 70
8
 71
3
 72
8
 73
4
 74
0
 40
0
 40
0
 40
0
 40
0
 40
1
 40
1
 40
1
 40
1
 10
89.605579
 20
85.717005
 30
0.0
 10
89.605579
 20
85.717005
 30
0.0
 10
88.580329
 20
86.027094
 30
0.0
 10
84.698329
 20
88.390732
 30
0.0
  0
SPLINE
  5
123
100
AcDbEntity
  8
0
 62
7
100
AcDbSpline
 70
8
 71
3
 72
8
 73
4
 74
0
 40
0
 40
0
 40
0
 40
0
 40
1
 40
1
 40
1
 40
1
 10
84.698329
 20
88.390732
 30
0.0
 10
80.816434
 20
90.754265
 30
0.0
 10
75.536825
 20
92.795297
 30
0.0
 10
76.229581
 20
94.016403
 30
0.0
  0
SPLINE
  5
124
100
AcDbEntity
  8
0
 62
7
100
AcDbSpline
 70
8
 71
3
 72
8
 73
4
 74
0
 40
0
 40
0
 40
0
 40
0
 40
1
 40
1
 40
1
 40
1
 10
76.229581
 20
94.016403
 30
0.0
 10
76.526206
 20
94.539283
 30
0.0
 10
77.691774
 20
95.135058
 30
0.0
 10
78.257781
 20
95.207742
 30
0.0
  0
SPLINE
  5
125
100
AcDbEntity
  8
0
 62
7
100
AcDbSpline
 70
8
 71
3
 72
8
 73
4
 74
0
 40
0
 40
0
 40
0
 40
0
 40
1
 40
1
 40
1
 40
1
 10
78.257781
 20
95.207742
 30
0.0
 10
78.823788
 20
95.280530
 30
0.0
 10
81.697894
 20
94.518877
 30
0.0
 10
83.371301
 20
94.181125
 30
0.0
  0
SPLINE
  5
126
100
AcDbEntity
  8
0
 62
7
100
AcDbSpline
 70
8
 71
3
 72
8
 73
4
 74
0
 40
0
 40
0
 40
0
 40
0
 40
1
 40
1
 40
1
 40
1
 10
83.371301
 20
94.181125
 30
0.0
 10
84.167455
 20
94.020400
 30
0.0
 10
85.167565
 20
93.522344
 30
0.0
 10
86.100776
 20
92.967592
 30
0.0
  0
SPLINE
  5
127
100
AcDbEntity
  8
0
 62
7
100
AcDbSpline
 70
8
 71
3
 72
8
 73
4
 74
0
 40
0
 40
0
 40
0
 40
0
 40
1
 40
1
 40
1
 40
1
 10
86.100776
 20
92.967592
 30
0.0
 10
82.787728
 20
95.770908
 30
0.0
 10
81.767317
 20
98.018736
 30
0.0
 10
81.701050
 20
99.918503
 30
0.0
  0
SPLINE
  5
128
100
AcDbEntity
  8
0
 62
7
100
AcDbSpline
 70
8
 71
3
 72
8
 73
4
 74
0
 40
0
 40
0
 40
0
 40
0
 40
1
 40
1
 40
1
 40
1
 10
81.701050
 20
99.918503
 30
0.0
 10
81.667495
 20
100.882640
 30
0.0
 10
84.100030
 20
99.535626
 30
0.0
 10
86.453150
 20
98.043350
 30
0.0
  0
SPLINE
  5
129
100
AcDbEntity
  8
0
 62
7
100
AcDbSpline
 70
8
 71
3
 72
8
 73
4
 74
0
 40
0
 40
0
 40
0
 40
0
 40
1
 40
1
 40
1
 40
1
 10
86.453150
 20
98.043350
 30
0.0
 10
88.012640
 20
97.054390
 30
0.0
 10
89.866125
 20
96.188076
 30
0.0
 10
91.308543
 20
94.810874
 30
0.0
  0
SPLINE
  5
12a
100
AcDbEntity
  8
0
 62
7
100
AcDbSpline
 70
8
 71
3
 72
8
 73
4
 74
0
 40
0
 40
0
 40
0
 40
0
 40
1
 40
1
 40
1
 40
1
 10
91.308543
 20
94.810874
 30
0.0
 10
93.420050
 20
92.794981
 30
0.0
 10
97.510739
 20
86.592259
 30
0.0
 10
97.510739
 20
86.592259
 30
0.0
  0
SPLINE
  5
12b
100
AcDbEntity
  8
0
 62
7
100
AcDbSpline
 70
8
 71
3
 72
8
 73
4
 74
0
 40
0
 40
0
 40
0
 40
0
 40
1
 40
1
 40
1
 40
1
 10
97.510739
 20
86.592259
 30
0.0
 10
97.510739
 20
86.592259
 30
0.0
 10
97.789903
 20
85.734676
 30
0.0
 10
98.946530
 20
84.960086
 30
0.0
  0
SPLINE
  5
12c
100
AcDbEntity
  8
0
 62
7
100
AcDbSpline
 70
8
 71
3
 72
8
 73
4
 74
0
 40
0
 40
0
 40
0
 40
0
 40
1
 40
1
 40
1
 40
1
 10
98.946530
 20
84.960086
 30
0.0
 10
99.523161
 20
84.573947
 30
0.0
 10
101.456377
 20
83.987008
 30
0.0
 10
102.085601
 20
83.228827
 30
0.0
  0
SPLINE
  5
12d
100
AcDbEntity
  8
0
 62
7
100
AcDbSpline
 70
8
 71
3
 72
8
 73
4
 74
0
 40
0
 40
0
 40
0
 40
0
 40
1
 40
1
 40
1
 40
1
 10
102.085601
 20
83.228827
 30
0.0
 10
103.521918
 20
81.497988
 30
0.0
 10
102.915309
 20
80.448546
 30
0.0
 10
104.127790
 20
79.142134
 30
0.0
  0
SPLINE
  5
12e
100
AcDbEntity
  8
0
 62
7
100
AcDbSpline
 70
8
 71
3
 72
8
 73
4
 74
0
 40
0
 40
0
 40
0
 40
0
 40
1
 40
1
 40
1
 40
1
 10
104.127790
 20
79.142134
 30
0.0
 10
105.470491
 20
77.695614
 30
0.0
 10
107.013782
 20
76.351125
 30
0.0
 10
106.986539
 20
74.961931
 30
0.0
  0
SPLINE
  5
12f
100
AcDbEntity
  8
0
 62
7
100
AcDbSpline
 70
8
 71
3
 72
8
 73
4
 74
0
 40
0
 40
0
 40
0
 40
0
 40
1
 40
1
 40
1
 40
1
 10
106.986539
 20
74.961931
 30
0.0
 10
106.958139
 20
73.525193
 30
0.0
 10
105.577360
 20
73.021667
 30
0.0
 10
105.577360
 20
73.021667
 30
0.0
  0
SPLINE
  5
130
100
AcDbEntity
  8
0
 62
7
100
AcDbSpline
 70
8
 71
3
 72
8
 73
4
 74
0
 40
0
 40
0
 40
0
 40
0
 40
1
 40
1
 40
1
 40
1
 10
105.577360
 20
73.021667
 30
0.0
 10
105.577360
 20
73.021667
 30
0.0
 10
104.704736
 20
71.032807
 30
0.0
 10
102.663704
 20
70.600703
 30
0.0
  0
SPLINE
  5
131
100
AcDbEntity
  8
0
 62
7
100
AcDbSpline
 70
8
 71
3
 72
8
 73
4
 74
0
 40
0
 40
0
 40
0
 40
0
 40
1
 40
1
 40
1
 40
1
 10
102.663704
 20
70.600703
 30
0.0
 10
101.317952
 20
70.315753
 30
0.0
 10
100.247578
 20
71.422101
 30
0.0
 10
98.572909
 20
71.156612
 30
0.0
  0
SPLINE
  5
132
100
AcDbEntity
  8
0
 62
7
100
AcDbSpline
 70
8
 71
3
 72
8
 73
4
 74
0
 40
0
 40
0
 40
0
 40
0
 40
1
 40
1
 40
1
 40
1
 10
98.572909
 20
71.156612
 30
0.0
 10
97.680194
 20
71.015031
 30
0.0
 10
96.014887
 20
70.675700
 30
0.0
 10
94.141311
 20
70.691058
 30
0.0
  0
SPLINE
  5
133
100
AcDbEntity
  8
0
 62
7
100
AcDbSpline
 70
8
 71
3
 72
8
 73
4
 74
0
 40
0
 40
0
 40
0
 40
0
 40
1
 40
1
 40
1
 40
1
 10
94.141311
 20
70.691058
 30
0.0
 10
92.500197
 20
70.704521
 30
0.0
 10
91.244379
 20
71.349418
 30
0.0
 10
90.362919
 20
70.831797
 30
0.0
  0
SPLINE
  5
134
100
AcDbEntity
  8
0
 62
7
100
AcDbSpline
 70
8
 71
3
 72
8
 73
4
 74
0
 40
0
 40
0
 40
0
 40
0
 40
1
 40
1
 40
1
 40
1
 10
90.362919
 20
70.831797
 30
0.0
 10
86.535090
 20
68.583443
 30
0.0
 10
88.728852
 20
65.625713
 30
0.0
 10
88.077540
 20
63.483281
 30
0.0
  0
SPLINE
  5
135
100
AcDbEntity
  8
0
 62
7
100
AcDbSpline
 70
8
 71
3
 72
8
 73
4
 74
0
 40
0
 40
0
 40
0
 40
0
 40
1
 40
1
 40
1
 40
1
 10
88.077540
 20
63.483281
 30
0.0
 10
88.077540
 20
63.483281
 30
0.0
 10
90.644608
 20
58.272885
 30
0.0
 10
92.233655
 20
57.497558
 30
0.0
  0
SPLINE
  5
136
100
AcDbEntity
  8
0
 62
7
100
AcDbSpline
 70
8
 71
3
 72
8
 73
4
 74
0
 40
0
 40
0
 40
0
 40
0
 40
1
 40
1
 40
1
 40
1
 10
92.233655
 20
57.497558
 30
0.0
 10
94.619593
 20
56.333358
 30
0.0
 10
96.717846
 20
59.556577
 30
0.0
 10
100.888582
 20
58.933770
 30
0.0
  0
SPLINE
  5
137
100
AcDbEntity
  8
0
 62
7
100
AcDbSpline
 70
8
 71
3
 72
8
 73
4
 74
0
 40
0
 40
0
 40
0
 40
0
 40
1
 40
1
 40
1
 40
1
 10
100.888582
 20
58.933770
 30
0.0
 10
105.741135
 20
58.209142
 30
0.0
 10
108.477553
 20
61.080093
 30
0.0
 10
111.355236
 20
60.125739
 30
0.0
  0
SPLINE
  5
138
100
AcDbEntity
  8
0
 62
7
100
AcDbSpline
 70
8
 71
3
 72
8
 73
4
 74
0
 40
0
 40
0
 40
0
 40
0
 40
1
 40
1
 40
1
 40
1
 10
111.355236
 20
60.125739
 30
0.0
 10
113.725606
 20
59.339683
 30
0.0
 10
116.507464
 20
58.393955
 30
0.0
 10
116.671134
 20
57.730861
 30
0.0
  0
SPLINE
  5
139
100
AcDbEntity
  8
0
 62
7
100
AcDbSpline
 70
8
 71
3
 72
8
 73
4
 74
0
 40
0
 40
0
 40
0
 40
0
 40
1
 40
1
 40
1
 40
1
 10
116.671134
 20
57.730861
 30
0.0
 10
117.078415
 20
56.081437
 30
0.0
 10
117.516830
 20
55.165686
 30
0.0
 10
113.579397
 20
55.308424
 30
0.0
  0
SPLINE
  5
13a
100
AcDbEntity
  8
0
 62
7
100
AcDbSpline
 70
8
 71
3
 72
8
 73
4
 74
0
 40
0
 40
0
 40
0
 40
0
 40
1
 40
1
 40
1
 40
1
 10
113.579397
 20
55.308424
 30
0.0
 10
111.683522
 20
55.377216
 30
0.0
 10
109.937537
 20
56.300014
 30
0.0
 10
107.718004
 20
55.878217
 30
0.0
  0
SPLINE
  5
13b
100
AcDbEntity
  8
0
 62
7
100
AcDbSpline
 70
8
 71
3
 72
8
 73
4
 74
0
 40
0
 40
0
 40
0
 40
0
 40
1
 40
1
 40
1
 40
1
 10
107.718004
 20
55.878217
 30
0.0
 10
106.983910
 20
55.738740
 30
0.0
 10
106.044808
 20
55.206709
 30
0.0
 10
104.998205
 20
54.783650
 30
0.0
  0
SPLINE
  5
13c
100
AcDbEntity
  8
0
 62
7
100
AcDbSpline
 70
8
 71
3
 72
8
 73
4
 74
0
 40
0
 40
0
 40
0
 40
0
 40
1
 40
1
 40
1
 40
1
 10
104.998205
 20
54.783650
 30
0.0
 10
106.257915
 20
54.274234
 30
0.0
 10
107.436946
 20
53.304733
 30
0.0
 10
108.070483
 20
52.712955
 30
0.0
  0
SPLINE
  5
13d
100
AcDbEntity
  8
0
 62
7
100
AcDbSpline
 70
8
 71
3
 72
8
 73
4
 74
0
 40
0
 40
0
 40
0
 40
0
 40
1
 40
1
 40
1
 40
1
 10
108.070483
 20
52.712955
 30
0.0
 10
108.776177
 20
52.053543
 30
0.0
 10
110.984034
 20
50.826442
 30
0.0
 10
110.574755
 20
50.348371
 30
0.0
  0
SPLINE
  5
13e
100
AcDbEntity
  8
0
 62
7
100
AcDbSpline
 70
8
 71
3
 72
8
 73
4
 74
0
 40
0
 40
0
 40
0
 40
0
 40
1
 40
1
 40
1
 40
1
 10
110.574755
 20
50.348371
 30
0.0
 10
110.165580
 20
49.870300
 30
0.0
 10
108.883992
 20
49.126318
 30
0.0
 10
107.822454
 20
49.390966
 30
0.0
  0
SPLINE
  5
13f
100
AcDbEntity
  8
0
 62
7
100
AcDbSpline
 70
8
 71
3
 72
8
 73
4
 74
0
 40
0
 40
0
 40
0
 40
0
 40
1
 40
1
 40
1
 40
1
 10
107.822454
 20
49.390966
 30
0.0
 10
106.730095
 20
49.663188
 30
0.0
 10
104.432093
 20
49.752701
 30
0.0
 10
103.111797
 20
50.661825
 30
0.0
  0
SPLINE
  5
140
100
AcDbEntity
  8
0
 62
7
100
AcDbSpline
 70
8
 71
3
 72
8
 73
4
 74
0
 40
0
 40
0
 40
0
 40
0
 40
1
 40
1
 40
1
 40
1
 10
103.111797
 20
50.661825
 30
0.0
 10
102.206670
 20
51.285264
 30
0.0
 10
99.975146
 20
52.057330
 30
0.0
 10
98.001538
 20
52.458826
 30
0.0
  0
SPLINE
  5
141
100
AcDbEntity
  8
0
 62
7
100
AcDbSpline
 70
8
 71
3
 72
8
 73
4
 74
0
 40
0
 40
0
 40
0
 40
0
 40
1
 40
1
 40
1
 40
1
 10
98.001538
 20
52.458826
 30
0.0
 10
96.197595
 20
51.581258
 30
0.0
 10
94.581094
 20
50.884189
 30
0.0
 10
91.665650
 20
51.543601
 30
0.0
  0
SPLINE
  5
142
100
AcDbEntity
  8
0
 62
7
100
AcDbSpline
 70
8
 71
3
 72
8
 73
4
 74
0
 40
0
 40
0
 40
0
 40
0
 40
1
 40
1
 40
1
 40
1
 10
91.665650
 20
51.543601
 30
0.0
 10
89.123721
 20
50.670135
 30
0.0
 10
86.311149
 20
49.894703
 30
0.0
 10
85.546445
 20
51.560010
 30
0.0
  0
SPLINE
  5
143
100
AcDbEntity
  8
0
 62
7
100
AcDbSpline
 70
8
 71
3
 72
8
 73
4
 74
0
 40
0
 40
0
 40
0
 40
0
 40
1
 40
1
 40
1
 40
1
 10
85.546445
 20
51.560010
 30
0.0
 10
85.193020
 20
52.329867
 30
0.0
 10
84.426633
 20
53.356379
 30
0.0
 10
83.508463
 20
54.433696
 30
0.0
  0
SPLINE
  5
144
100
AcDbEntity
  8
0
 62
7
100
AcDbSpline
 70
8
 71
3
 72
8
 73
4
 74
0
 40
0
 40
0
 40
0
 40
0
 40
1
 40
1
 40
1
 40
1
 10
83.508463
 20
54.433696
 30
0.0
 10
82.088871
 20
54.383312
 30
0.0
 10
80.591651
 20
53.637752
 30
0.0
 10
77.675470
 20
52.957934
 30
0.0
  0
SPLINE
  5
145
100
AcDbEntity
  8
0
 62
7
100
AcDbSpline
 70
8
 71
3
 72
8
 73
4
 74
0
 40
0
 40
0
 40
0
 40
0
 40
1
 40
1
 40
1
 40
1
 10
77.675470
 20
52.957934
 30
0.0
 10
74.632856
 20
52.248559
 30
0.0
 10
72.418897
 20
53.160312
 30
0.0
 10
67.403411
 20
53.765238
 30
0.0
  0
SPLINE
  5
146
100
AcDbEntity
  8
0
 62
7
100
AcDbSpline
 70
8
 71
3
 72
8
 73
4
 74
0
 40
0
 40
0
 40
0
 40
0
 40
1
 40
1
 40
1
 40
1
 10
67.403411
 20
53.765238
 30
0.0
 10
61.672028
 20
54.456626
 30
0.0
 10
59.139671
 20
54.271394
 30
0.0
 10
55.422287
 20
52.883883
 30
0.0
  0
SPLINE
  5
147
100
AcDbEntity
  8
0
 62
7
100
AcDbSpline
 70
8
 71
3
 72
8
 73
4
 74
0
 40
0
 40
0
 40
0
 40
0
 40
1
 40
1
 40
1
 40
1
 10
55.422287
 20
52.883883
 30
0.0
 10
49.794723
 20
50.783421
 30
0.0
 10
48.537222
 20
48.387490
 30
0.0
 10
44.402355
 20
46.443861
 30
0.0
  0
SPLINE
  5
148
100
AcDbEntity
  8
0
 62
7
100
AcDbSpline
 70
8
 71
3
 72
8
 73
4
 74
0
 40
0
 40
0
 40
0
 40
0
 40
1
 40
1
 40
1
 40
1
 10
44.402355
 20
46.443861
 30
0.0
 10
42.336709
 20
45.472887
 30
0.0
 10
36.728604
 20
51.250132
 30
0.0
 10
34.916983
 20
52.333233
 30
0.0
  0
SPLINE
  5
149
100
AcDbEntity
  8
0
 62
7
100
AcDbSpline
 70
8
 71
3
 72
8
 73
4
 74
0
 40
0
 40
0
 40
0
 40
0
 40
1
 40
1
 40
1
 40
1
 10
34.916983
 20
52.333233
 30
0.0
 10
33.105467
 20
53.416230
 30
0.0
 10
29.217786
 20
53.993071
 30
0.0
 10
26.733500
 20
54.319253
 30
0.0
  0
SPLINE
  5
14a
100
AcDbEntity
  8
0
 62
7
100
AcDbSpline
 70
8
 71
3
 72
8
 73
4
 74
0
 40
0
 40
0
 40
0
 40
0
 40
1
 40
1
 40
1
 40
1
 10
26.733500
 20
54.319253
 30
0.0
 10
24.249318
 20
54.645436
 30
0.0
 10
19.371836
 20
51.909964
 30
0.0
 10
17.867885
 20
50.250863
 30
0.0
  0
SPLINE
  5
14b
100
AcDbEntity
  8
0
 62
7
100
AcDbSpline
 70
8
 71
3
 72
8
 73
4
 74
0
 40
0
 40
0
 40
0
 40
0
 40
1
 40
1
 40
1
 40
1
 10
17.867885
 20
50.250863
 30
0.0
 10
16.363828
 20
48.591762
 30
0.0
 10
16.780260
 20
46.718186
 30
0.0
 10
12.959162
 20
45.605527
 30
0.0
  0
SPLINE
  5
14c
100
AcDbEntity
  8
0
 62
7
100
AcDbSpline
 70
8
 71
3
 72
8
 73
4
 74
0
 40
0
 40
0
 40
0
 40
0
 40
1
 40
1
 40
1
 40
1
 10
12.959162
 20
45.605527
 30
0.0
 10
8.843859
 20
44.407141
 30
0.0
 10
9.878786
 20
46.872389
 30
0.0
 10
10.341394
 20
47.838945
 30
0.0
  0
SPLINE
  5
14d
100
AcDbEntity
  8
0
 62
7
100
AcDbSpline
 70
8
 71
3
 72
8
 73
4
 74
0
 40
0
 40
0
 40
0
 40
0
 40
1
 40
1
 40
1
 40
1
 10
94.945407
 20
179.499709
 30
0.0
 10
94.541176
 20
179.700299
 30
0.0
 10
93.570939
 20
179.700299
 30
0.0
 10
92.924150
 20
180.168482
 30
0.0
  0
SPLINE
  5
14e
100
AcDbEntity
  8
0
 62
7
100
AcDbSpline
 70
8
 71
3
 72
8
 73
4
 74
0
 40
0
 40
0
 40
0
 40
0
 40
1
 40
1
 40
1
 40
1
 10
92.924150
 20
180.168482
 30
0.0
 10
92.277360
 20
180.636666
 30
0.0
 10
92.762478
 20
182.041111
 30
0.0
 10
92.681590
 20
182.642986
 30
0.0
  0
SPLINE
  5
14f
100
AcDbEntity
  8
0
 62
7
100
AcDbSpline
 70
8
 71
3
 72
8
 73
4
 74
0
 40
0
 40
0
 40
0
 40
0
 40
1
 40
1
 40
1
 40
1
 10
92.681590
 20
182.642986
 30
0.0
 10
92.600807
 20
183.244967
 30
0.0
 10
93.328380
 20
186.254553
 30
0.0
 10
93.328380
 20
186.722631
 30
0.0
  0
SPLINE
  5
150
100
AcDbEntity
  8
0
 62
7
100
AcDbSpline
 70
8
 71
3
 72
8
 73
4
 74
0
 40
0
 40
0
 40
0
 40
0
 40
1
 40
1
 40
1
 40
1
 10
93.328380
 20
186.722631
 30
0.0
 10
93.328380
 20
187.190815
 30
0.0
 10
94.541176
 20
189.397831
 30
0.0
 10
95.026295
 20
190.467890
 30
0.0
  0
SPLINE
  5
151
100
AcDbEntity
  8
0
 62
7
100
AcDbSpline
 70
8
 71
3
 72
8
 73
4
 74
0
 40
0
 40
0
 40
0
 40
0
 40
1
 40
1
 40
1
 40
1
 10
95.026295
 20
190.467890
 30
0.0
 10
95.511308
 20
191.537948
 30
0.0
 10
94.945407
 20
194.213148
 30
0.0
 10
93.570939
 20
197.356426
 30
0.0
  0
SPLINE
  5
152
100
AcDbEntity
  8
0
 62
7
100
AcDbSpline
 70
8
 71
3
 72
8
 73
4
 74
0
 40
0
 40
0
 40
0
 40
0
 40
1
 40
1
 40
1
 40
1
 10
93.570939
 20
197.356426
 30
0.0
 10
92.196577
 20
200.499809
 30
0.0
 10
87.992391
 20
203.375598
 30
0.0
 10
87.507273
 20
203.709985
 30
0.0
  0
SPLINE
  5
153
100
AcDbEntity
  8
0
 62
7
100
AcDbSpline
 70
8
 71
3
 72
8
 73
4
 74
0
 40
0
 40
0
 40
0
 40
0
 40
1
 40
1
 40
1
 40
1
 10
87.507273
 20
203.709985
 30
0.0
 10
87.022154
 20
204.044372
 30
0.0
 10
83.141416
 20
206.786470
 30
0.0
 10
81.524495
 20
207.254548
 30
0.0
  0
SPLINE
  5
154
100
AcDbEntity
  8
0
 62
7
100
AcDbSpline
 70
8
 71
3
 72
8
 73
4
 74
0
 40
0
 40
0
 40
0
 40
0
 40
1
 40
1
 40
1
 40
1
 10
81.524495
 20
207.254548
 30
0.0
 10
79.907468
 20
207.722732
 30
0.0
 10
77.562869
 20
207.722732
 30
0.0
 10
76.188401
 20
207.789630
 30
0.0
  0
SPLINE
  5
155
100
AcDbEntity
  8
0
 62
7
100
AcDbSpline
 70
8
 71
3
 72
8
 73
4
 74
0
 40
0
 40
0
 40
0
 40
0
 40
1
 40
1
 40
1
 40
1
 10
76.188401
 20
207.789630
 30
0.0
 10
75.032826
 20
207.845800
 30
0.0
 10
72.065104
 20
207.789630
 30
0.0
 10
71.418314
 20
207.789630
 30
0.0
  0
SPLINE
  5
156
100
AcDbEntity
  8
0
 62
7
100
AcDbSpline
 70
8
 71
3
 72
8
 73
4
 74
0
 40
0
 40
0
 40
0
 40
0
 40
1
 40
1
 40
1
 40
1
 10
71.418314
 20
207.789630
 30
0.0
 10
70.771524
 20
207.789630
 30
0.0
 10
67.134398
 20
207.905966
 30
0.0
 10
65.758878
 20
207.856529
 30
0.0
  0
SPLINE
  5
157
100
AcDbEntity
  8
0
 62
7
100
AcDbSpline
 70
8
 71
3
 72
8
 73
4
 74
0
 40
0
 40
0
 40
0
 40
0
 40
1
 40
1
 40
1
 40
1
 10
65.758878
 20
207.856529
 30
0.0
 10
63.899397
 20
207.789630
 30
0.0
 10
59.219245
 20
205.682962
 30
0.0
 10
57.925665
 20
205.415368
 30
0.0
  0
SPLINE
  5
158
100
AcDbEntity
  8
0
 62
7
100
AcDbSpline
 70
8
 71
3
 72
8
 73
4
 74
0
 40
0
 40
0
 40
0
 40
0
 40
1
 40
1
 40
1
 40
1
 10
57.925665
 20
205.415368
 30
0.0
 10
56.632086
 20
205.147880
 30
0.0
 10
56.047251
 20
205.080982
 30
0.0
 10
55.723909
 20
205.214778
 30
0.0
  0
SPLINE
  5
159
100
AcDbEntity
  8
0
 62
7
100
AcDbSpline
 70
8
 71
3
 72
8
 73
4
 74
0
 40
0
 40
0
 40
0
 40
0
 40
1
 40
1
 40
1
 40
1
 10
55.723909
 20
205.214778
 30
0.0
 10
55.400461
 20
205.348575
 30
0.0
 10
55.629557
 20
206.647624
 30
0.0
 10
55.248572
 20
206.987060
 30
0.0
  0
SPLINE
  5
15a
100
AcDbEntity
  8
0
 62
7
100
AcDbSpline
 70
8
 71
3
 72
8
 73
4
 74
0
 40
0
 40
0
 40
0
 40
0
 40
1
 40
1
 40
1
 40
1
 10
55.248572
 20
206.987060
 30
0.0
 10
53.522047
 20
208.525302
 30
0.0
 10
53.932588
 20
211.568338
 30
0.0
 10
54.256036
 20
212.237111
 30
0.0
  0
SPLINE
  5
15b
100
AcDbEntity
  8
0
 62
7
100
AcDbSpline
 70
8
 71
3
 72
8
 73
4
 74
0
 40
0
 40
0
 40
0
 40
0
 40
1
 40
1
 40
1
 40
1
 10
54.256036
 20
212.237111
 30
0.0
 10
55.115827
 20
214.015283
 30
0.0
 10
55.900411
 20
218.222835
 30
0.0
 10
56.223858
 20
219.225995
 30
0.0
  0
SPLINE
  5
15c
100
AcDbEntity
  8
0
 62
7
100
AcDbSpline
 70
8
 71
3
 72
8
 73
4
 74
0
 40
0
 40
0
 40
0
 40
0
 40
1
 40
1
 40
1
 40
1
 10
56.223858
 20
219.225995
 30
0.0
 10
56.547201
 20
220.229155
 30
0.0
 10
58.406787
 20
224.576289
 30
0.0
 10
58.406787
 20
224.576289
 30
0.0
  0
SPLINE
  5
15d
100
AcDbEntity
  8
0
 62
7
100
AcDbSpline
 70
8
 71
3
 72
8
 73
4
 74
0
 40
0
 40
0
 40
0
 40
0
 40
1
 40
1
 40
1
 40
1
 10
58.406787
 20
224.576289
 30
0.0
 10
58.406787
 20
224.576289
 30
0.0
 10
60.266268
 20
227.853363
 30
0.0
 10
60.266268
 20
228.990321
 30
0.0
  0
SPLINE
  5
15e
100
AcDbEntity
  8
0
 62
7
100
AcDbSpline
 70
8
 71
3
 72
8
 73
4
 74
0
 40
0
 40
0
 40
0
 40
0
 40
1
 40
1
 40
1
 40
1
 10
60.266268
 20
228.990321
 30
0.0
 10
60.266268
 20
230.127278
 30
0.0
 10
58.891905
 20
232.334294
 30
0.0
 10
58.568458
 20
232.534989
 30
0.0
  0
SPLINE
  5
15f
100
AcDbEntity
  8
0
 62
7
100
AcDbSpline
 70
8
 71
3
 72
8
 73
4
 74
0
 40
0
 40
0
 40
0
 40
0
 40
1
 40
1
 40
1
 40
1
 10
58.568458
 20
232.534989
 30
0.0
 10
58.245116
 20
232.735579
 30
0.0
 10
57.113207
 20
232.468090
 30
0.0
 10
56.628089
 20
232.334294
 30
0.0
  0
SPLINE
  5
160
100
AcDbEntity
  8
0
 62
7
100
AcDbSpline
 70
8
 71
3
 72
8
 73
4
 74
0
 40
0
 40
0
 40
0
 40
0
 40
1
 40
1
 40
1
 40
1
 10
56.628089
 20
232.334294
 30
0.0
 10
56.142970
 20
232.200497
 30
0.0
 10
52.949834
 20
227.619324
 30
0.0
 10
52.788163
 20
227.084242
 30
0.0
  0
SPLINE
  5
161
100
AcDbEntity
  8
0
 62
7
100
AcDbSpline
 70
8
 71
3
 72
8
 73
4
 74
0
 40
0
 40
0
 40
0
 40
0
 40
1
 40
1
 40
1
 40
1
 10
52.788163
 20
227.084242
 30
0.0
 10
52.626387
 20
226.549265
 30
0.0
 10
52.263915
 20
225.479207
 30
0.0
 10
52.263915
 20
225.479207
 30
0.0
  0
SPLINE
  5
162
100
AcDbEntity
  8
0
 62
7
100
AcDbSpline
 70
8
 71
3
 72
8
 73
4
 74
0
 40
0
 40
0
 40
0
 40
0
 40
1
 40
1
 40
1
 40
1
 10
52.263915
 20
225.479207
 30
0.0
 10
52.263915
 20
225.479207
 30
0.0
 10
51.014619
 20
219.627280
 30
0.0
 10
50.691172
 20
218.557116
 30
0.0
  0
SPLINE
  5
163
100
AcDbEntity
  8
0
 62
7
100
AcDbSpline
 70
8
 71
3
 72
8
 73
4
 74
0
 40
0
 40
0
 40
0
 40
0
 40
1
 40
1
 40
1
 40
1
 10
50.691172
 20
218.557116
 30
0.0
 10
50.367830
 20
217.487163
 30
0.0
 10
50.062053
 20
215.146350
 30
0.0
 10
50.062053
 20
214.343780
 30
0.0
  0
LWPOLYLINE
  5
164
100
AcDbEntity
  8
0
 62
7
100
AcDbPolyline
 90
2
 70
0
 10
0.000000
 20
241.980890
 30
0.0
 10
0.000000
 20
139.067659
 30
0.0
  0
SPLINE
  5
165
100
AcDbEntity
  8
0
 62
7
100
AcDbSpline
 70
8
 71
3
 72
8
 73
4
 74
0
 40
0
 40
0
 40
0
 40
0
 40
1
 40
1
 40
1
 40
1
 10
50.062053
 20
211.936174
 30
0.0
 10
50.062053
 20
211.936174
 30
0.0
 10
49.651512
 20
211.702029
 30
0.0
 10
49.328170
 20
211.635131
 30
0.0
  0
SPLINE
  5
166
100
AcDbEntity
  8
0
 62
7
100
AcDbSpline
 70
8
 71
3
 72
8
 73
4
 74
0
 40
0
 40
0
 40
0
 40
0
 40
1
 40
1
 40
1
 40
1
 10
49.328170
 20
211.635131
 30
0.0
 10
49.004722
 20
211.568338
 30
0.0
 10
48.803922
 20
211.133603
 30
0.0
 10
47.972110
 20
210.999806
 30
0.0
  0
SPLINE
  5
167
100
AcDbEntity
  8
0
 62
7
100
AcDbSpline
 70
8
 71
3
 72
8
 73
4
 74
0
 40
0
 40
0
 40
0
 40
0
 40
1
 40
1
 40
1
 40
1
 10
47.972110
 20
210.999806
 30
0.0
 10
47.140403
 20
210.866115
 30
0.0
 10
46.031741
 20
211.735478
 30
0.0
 10
45.789181
 20
212.002967
 30
0.0
  0
SPLINE
  5
168
100
AcDbEntity
  8
0
 62
7
100
AcDbSpline
 70
8
 71
3
 72
8
 73
4
 74
0
 40
0
 40
0
 40
0
 40
0
 40
1
 40
1
 40
1
 40
1
 10
45.789181
 20
212.002967
 30
0.0
 10
45.546622
 20
212.270560
 30
0.0
 10
44.980721
 20
214.076291
 30
0.0
 10
44.980721
 20
214.076291
 30
0.0
  0
SPLINE
  5
169
100
AcDbEntity
  8
0
 62
7
100
AcDbSpline
 70
8
 71
3
 72
8
 73
4
 74
0
 40
0
 40
0
 40
0
 40
0
 40
1
 40
1
 40
1
 40
1
 10
44.980721
 20
214.076291
 30
0.0
 10
44.980721
 20
214.076291
 30
0.0
 10
44.899832
 20
215.346940
 30
0.0
 10
44.980721
 20
215.815123
 30
0.0
  0
SPLINE
  5
16a
100
AcDbEntity
  8
0
 62
7
100
AcDbSpline
 70
8
 71
3
 72
8
 73
4
 74
0
 40
0
 40
0
 40
0
 40
0
 40
1
 40
1
 40
1
 40
1
 10
44.980721
 20
215.815123
 30
0.0
 10
45.061609
 20
216.283307
 30
0.0
 10
44.495602
 20
218.089038
 30
0.0
 10
44.172260
 20
218.891608
 30
0.0
  0
SPLINE
  5
16b
100
AcDbEntity
  8
0
 62
7
100
AcDbSpline
 70
8
 71
3
 72
8
 73
4
 74
0
 40
0
 40
0
 40
0
 40
0
 40
1
 40
1
 40
1
 40
1
 10
44.172260
 20
218.891608
 30
0.0
 10
43.848812
 20
219.694073
 30
0.0
 10
41.746772
 20
223.773718
 30
0.0
 10
40.048963
 20
225.646348
 30
0.0
  0
SPLINE
  5
16c
100
AcDbEntity
  8
0
 62
7
100
AcDbSpline
 70
8
 71
3
 72
8
 73
4
 74
0
 40
0
 40
0
 40
0
 40
0
 40
1
 40
1
 40
1
 40
1
 10
40.048963
 20
225.646348
 30
0.0
 10
38.351153
 20
227.518977
 30
0.0
 10
36.087336
 20
229.124117
 30
0.0
 10
36.087336
 20
229.124117
 30
0.0
  0
SPLINE
  5
16d
100
AcDbEntity
  8
0
 62
7
100
AcDbSpline
 70
8
 71
3
 72
8
 73
4
 74
0
 40
0
 40
0
 40
0
 40
0
 40
1
 40
1
 40
1
 40
1
 10
36.087336
 20
229.124117
 30
0.0
 10
36.087336
 20
229.124117
 30
0.0
 10
34.874645
 20
230.127278
 30
0.0
 10
32.853388
 20
229.124117
 30
0.0
  0
SPLINE
  5
16e
100
AcDbEntity
  8
0
 62
7
100
AcDbSpline
 70
8
 71
3
 72
8
 73
4
 74
0
 40
0
 40
0
 40
0
 40
0
 40
1
 40
1
 40
1
 40
1
 10
32.853388
 20
229.124117
 30
0.0
 10
31.439371
 20
228.422210
 30
0.0
 10
30.751348
 20
225.847043
 30
0.0
 10
30.913019
 20
224.509390
 30
0.0
  0
SPLINE
  5
16f
100
AcDbEntity
  8
0
 62
7
100
AcDbSpline
 70
8
 71
3
 72
8
 73
4
 74
0
 40
0
 40
0
 40
0
 40
0
 40
1
 40
1
 40
1
 40
1
 10
30.913019
 20
224.509390
 30
0.0
 10
30.945206
 20
224.243269
 30
0.0
 10
31.559809
 20
223.305535
 30
0.0
 10
31.559809
 20
223.305535
 30
0.0
  0
LWPOLYLINE
  5
170
100
AcDbEntity
  8
0
 62
7
100
AcDbPolyline
 90
2
 70
0
 10
50.062053
 20
214.343780
 30
0.0
 10
50.062053
 20
211.936174
 30
0.0
  0
SPLINE
  5
171
100
AcDbEntity
  8
0
 62
7
100
AcDbSpline
 70
8
 71
3
 72
8
 73
4
 74
0
 40
0
 40
0
 40
0
 40
0
 40
1
 40
1
 40
1
 40
1
 10
35.359659
 20
217.487163
 30
0.0
 10
35.359659
 20
217.487163
 30
0.0
 10
40.210634
 20
210.598521
 30
0.0
 10
41.099983
 20
209.394666
 30
0.0
  0
SPLINE
  5
172
100
AcDbEntity
  8
0
 62
7
100
AcDbSpline
 70
8
 71
3
 72
8
 73
4
 74
0
 40
0
 40
0
 40
0
 40
0
 40
1
 40
1
 40
1
 40
1
 10
41.099983
 20
209.394666
 30
0.0
 10
41.989332
 20
208.190915
 30
0.0
 10
42.231891
 20
207.388345
 30
0.0
 10
42.231891
 20
207.388345
 30
0.0
  0
SPLINE
  5
173
100
AcDbEntity
  8
0
 62
7
100
AcDbSpline
 70
8
 71
3
 72
8
 73
4
 74
0
 40
0
 40
0
 40
0
 40
0
 40
1
 40
1
 40
1
 40
1
 10
42.231891
 20
207.388345
 30
0.0
 10
42.231891
 20
207.388345
 30
0.0
 10
41.950833
 20
206.666873
 30
0.0
 10
41.376517
 20
205.950450
 30
0.0
  0
SPLINE
  5
174
100
AcDbEntity
  8
0
 62
7
100
AcDbSpline
 70
8
 71
3
 72
8
 73
4
 74
0
 40
0
 40
0
 40
0
 40
0
 40
1
 40
1
 40
1
 40
1
 10
41.376517
 20
205.950450
 30
0.0
 10
40.907387
 20
205.365195
 30
0.0
 10
40.780637
 20
204.328585
 30
0.0
 10
40.969447
 20
203.542844
 30
0.0
  0
SPLINE
  5
175
100
AcDbEntity
  8
0
 62
7
100
AcDbSpline
 70
8
 71
3
 72
8
 73
4
 74
0
 40
0
 40
0
 40
0
 40
0
 40
1
 40
1
 40
1
 40
1
 10
40.969447
 20
203.542844
 30
0.0
 10
41.158256
 20
202.756893
 30
0.0
 10
42.049814
 20
202.009020
 30
0.0
 10
42.111242
 20
201.302274
 30
0.0
  0
SPLINE
  5
176
100
AcDbEntity
  8
0
 62
7
100
AcDbSpline
 70
8
 71
3
 72
8
 73
4
 74
0
 40
0
 40
0
 40
0
 40
0
 40
1
 40
1
 40
1
 40
1
 10
42.111242
 20
201.302274
 30
0.0
 10
42.207698
 20
200.192981
 30
0.0
 10
41.191810
 20
197.970923
 30
0.0
 10
41.470343
 20
196.642317
 30
0.0
  0
LWPOLYLINE
  5
177
100
AcDbEntity
  8
0
 62
7
100
AcDbPolyline
 90
2
 70
0
 10
31.559809
 20
223.305535
 30
0.0
 10
35.359659
 20
217.487163
 30
0.0
  0
SPLINE
  5
178
100
AcDbEntity
  8
0
 62
7
100
AcDbSpline
 70
8
 71
3
 72
8
 73
4
 74
0
 40
0
 40
0
 40
0
 40
0
 40
1
 40
1
 40
1
 40
1
 10
41.535979
 20
196.407121
 30
0.0
 10
41.597513
 20
196.226201
 30
0.0
 10
41.679874
 20
196.038759
 30
0.0
 10
41.777276
 20
195.849845
 30
0.0
  0
LWPOLYLINE
  5
179
100
AcDbEntity
  8
0
 62
7
100
AcDbPolyline
 90
3
 70
0
 10
41.470343
 20
196.642317
 30
0.0
 10
39.458342
 20
196.487062
 30
0.0
 10
41.535979
 20
196.407121
 30
0.0
  0
SPLINE
  5
17a
100
AcDbEntity
  8
0
 62
7
100
AcDbSpline
 70
8
 71
3
 72
8
 73
4
 74
0
 40
0
 40
0
 40
0
 40
0
 40
1
 40
1
 40
1
 40
1
 10
41.864791
 20
195.687016
 30
0.0
 10
42.480235
 20
194.578039
 30
0.0
 10
43.515688
 20
193.477476
 30
0.0
 10
43.515688
 20
193.477476
 30
0.0
  0
SPLINE
  5
17b
100
AcDbEntity
  8
0
 62
7
100
AcDbSpline
 70
8
 71
3
 72
8
 73
4
 74
0
 40
0
 40
0
 40
0
 40
0
 40
1
 40
1
 40
1
 40
1
 10
43.515688
 20
193.477476
 30
0.0
 10
43.834717
 20
192.733074
 30
0.0
 10
44.232006
 20
192.273620
 30
0.0
 10
44.232006
 20
192.273620
 30
0.0
  0
LWPOLYLINE
  5
17c
100
AcDbEntity
  8
0
 62
7
100
AcDbPolyline
 90
3
 70
0
 10
41.777276
 20
195.849845
 30
0.0
 10
40.316977
 20
195.381556
 30
0.0
 10
41.864791
 20
195.687016
 30
0.0
  0
SPLINE
  5
17d
100
AcDbEntity
  8
0
 62
7
100
AcDbSpline
 70
8
 71
3
 72
8
 73
4
 74
0
 40
0
 40
0
 40
0
 40
0
 40
1
 40
1
 40
1
 40
1
 10
43.636336
 20
191.203562
 30
0.0
 10
43.636336
 20
191.203562
 30
0.0
 10
44.215807
 20
189.665319
 30
0.0
 10
44.296695
 20
189.330933
 30
0.0
  0
SPLINE
  5
17e
100
AcDbEntity
  8
0
 62
7
100
AcDbSpline
 70
8
 71
3
 72
8
 73
4
 74
0
 40
0
 40
0
 40
0
 40
0
 40
1
 40
1
 40
1
 40
1
 10
44.296695
 20
189.330933
 30
0.0
 10
44.377478
 20
188.996546
 30
0.0
 10
44.104941
 20
186.388245
 30
0.0
 10
44.266612
 20
185.652573
 30
0.0
  0
SPLINE
  5
17f
100
AcDbEntity
  8
0
 62
7
100
AcDbSpline
 70
8
 71
3
 72
8
 73
4
 74
0
 40
0
 40
0
 40
0
 40
0
 40
1
 40
1
 40
1
 40
1
 10
44.266612
 20
185.652573
 30
0.0
 10
44.428283
 20
184.916901
 30
0.0
 10
44.359491
 20
182.843682
 30
0.0
 10
44.359491
 20
182.041111
 30
0.0
  0
SPLINE
  5
180
100
AcDbEntity
  8
0
 62
7
100
AcDbSpline
 70
8
 71
3
 72
8
 73
4
 74
0
 40
0
 40
0
 40
0
 40
0
 40
1
 40
1
 40
1
 40
1
 10
44.359491
 20
182.041111
 30
0.0
 10
44.359491
 20
181.439236
 30
0.0
 10
44.185724
 20
180.435970
 30
0.0
 10
44.428283
 20
180.034685
 30
0.0
  0
SPLINE
  5
181
100
AcDbEntity
  8
0
 62
7
100
AcDbSpline
 70
8
 71
3
 72
8
 73
4
 74
0
 40
0
 40
0
 40
0
 40
0
 40
1
 40
1
 40
1
 40
1
 10
44.428283
 20
180.034685
 30
0.0
 10
44.670842
 20
179.633400
 30
0.0
 10
45.608892
 20
176.322981
 30
0.0
 10
45.932235
 20
175.119126
 30
0.0
  0
SPLINE
  5
182
100
AcDbEntity
  8
0
 62
7
100
AcDbSpline
 70
8
 71
3
 72
8
 73
4
 74
0
 40
0
 40
0
 40
0
 40
0
 40
1
 40
1
 40
1
 40
1
 10
45.932235
 20
175.119126
 30
0.0
 10
46.255682
 20
173.915270
 30
0.0
 10
47.495196
 20
171.072930
 30
0.0
 10
48.384545
 20
170.002871
 30
0.0
  0
SPLINE
  5
183
100
AcDbEntity
  8
0
 62
7
100
AcDbSpline
 70
8
 71
3
 72
8
 73
4
 74
0
 40
0
 40
0
 40
0
 40
0
 40
1
 40
1
 40
1
 40
1
 10
48.384545
 20
170.002871
 30
0.0
 10
49.273894
 20
168.932813
 30
0.0
 10
51.367834
 20
166.391410
 30
0.0
 10
52.014624
 20
165.856328
 30
0.0
  0
SPLINE
  5
184
100
AcDbEntity
  8
0
 62
7
100
AcDbSpline
 70
8
 71
3
 72
8
 73
4
 74
0
 40
0
 40
0
 40
0
 40
0
 40
1
 40
1
 40
1
 40
1
 10
52.014624
 20
165.856328
 30
0.0
 10
52.661414
 20
165.321351
 30
0.0
 10
52.903973
 20
162.311765
 30
0.0
 10
53.065644
 20
161.509194
 30
0.0
  0
SPLINE
  5
185
100
AcDbEntity
  8
0
 62
7
100
AcDbSpline
 70
8
 71
3
 72
8
 73
4
 74
0
 40
0
 40
0
 40
0
 40
0
 40
1
 40
1
 40
1
 40
1
 10
53.065644
 20
161.509194
 30
0.0
 10
53.227315
 20
160.706624
 30
0.0
 10
54.197552
 20
158.165221
 30
0.0
 10
54.440006
 20
156.827674
 30
0.0
  0
SPLINE
  5
186
100
AcDbEntity
  8
0
 62
7
100
AcDbSpline
 70
8
 71
3
 72
8
 73
4
 74
0
 40
0
 40
0
 40
0
 40
0
 40
1
 40
1
 40
1
 40
1
 10
54.440006
 20
156.827674
 30
0.0
 10
54.682566
 20
155.490022
 30
0.0
 10
55.086901
 20
151.410482
 30
0.0
 10
55.086901
 20
151.209787
 30
0.0
  0
SPLINE
  5
187
100
AcDbEntity
  8
0
 62
7
100
AcDbSpline
 70
8
 71
3
 72
8
 73
4
 74
0
 40
0
 40
0
 40
0
 40
0
 40
1
 40
1
 40
1
 40
1
 10
55.086901
 20
151.209787
 30
0.0
 10
55.086901
 20
151.009197
 30
0.0
 10
56.299592
 20
148.400896
 30
0.0
 10
56.380481
 20
147.932712
 30
0.0
  0
SPLINE
  5
188
100
AcDbEntity
  8
0
 62
7
100
AcDbSpline
 70
8
 71
3
 72
8
 73
4
 74
0
 40
0
 40
0
 40
0
 40
0
 40
1
 40
1
 40
1
 40
1
 10
56.380481
 20
147.932712
 30
0.0
 10
56.461264
 20
147.464529
 30
0.0
 10
56.380481
 20
146.260778
 30
0.0
 10
56.461264
 20
145.792595
 30
0.0
  0
SPLINE
  5
189
100
AcDbEntity
  8
0
 62
7
100
AcDbSpline
 70
8
 71
3
 72
8
 73
4
 74
0
 40
0
 40
0
 40
0
 40
0
 40
1
 40
1
 40
1
 40
1
 10
56.461264
 20
145.792595
 30
0.0
 10
56.542152
 20
145.324411
 30
0.0
 10
56.299592
 20
144.521841
 30
0.0
 10
56.299592
 20
143.986864
 30
0.0
  0
SPLINE
  5
18a
100
AcDbEntity
  8
0
 62
7
100
AcDbSpline
 70
8
 71
3
 72
8
 73
4
 74
0
 40
0
 40
0
 40
0
 40
0
 40
1
 40
1
 40
1
 40
1
 10
56.299592
 20
143.986864
 30
0.0
 10
56.299592
 20
143.451782
 30
0.0
 10
56.865494
 20
140.174707
 30
0.0
 10
57.108053
 20
139.840320
 30
0.0
  0
SPLINE
  5
18b
100
AcDbEntity
  8
0
 62
7
100
AcDbSpline
 70
8
 71
3
 72
8
 73
4
 74
0
 40
0
 40
0
 40
0
 40
0
 40
1
 40
1
 40
1
 40
1
 10
57.108053
 20
139.840320
 30
0.0
 10
57.350613
 20
139.505934
 30
0.0
 10
58.159073
 20
139.572832
 30
0.0
 10
58.401633
 20
139.305344
 30
0.0
  0
SPLINE
  5
18c
100
AcDbEntity
  8
0
 62
7
100
AcDbSpline
 70
8
 71
3
 72
8
 73
4
 74
0
 40
0
 40
0
 40
0
 40
0
 40
1
 40
1
 40
1
 40
1
 10
58.401633
 20
139.305344
 30
0.0
 10
58.644192
 20
139.037750
 30
0.0
 10
60.261219
 20
138.101488
 30
0.0
 10
60.261219
 20
138.101488
 30
0.0
  0
SPLINE
  5
18d
100
AcDbEntity
  8
0
 62
7
100
AcDbSpline
 70
8
 71
3
 72
8
 73
4
 74
0
 40
0
 40
0
 40
0
 40
0
 40
1
 40
1
 40
1
 40
1
 10
60.261219
 20
138.101488
 30
0.0
 10
60.261219
 20
138.101488
 30
0.0
 10
61.554798
 20
138.970852
 30
0.0
 10
61.797357
 20
139.238445
 30
0.0
  0
SPLINE
  5
18e
100
AcDbEntity
  8
0
 62
7
100
AcDbSpline
 70
8
 71
3
 72
8
 73
4
 74
0
 40
0
 40
0
 40
0
 40
0
 40
1
 40
1
 40
1
 40
1
 10
61.797357
 20
139.238445
 30
0.0
 10
62.039917
 20
139.505934
 30
0.0
 10
62.444147
 20
141.445461
 30
0.0
 10
62.605818
 20
143.050497
 30
0.0
  0
SPLINE
  5
18f
100
AcDbEntity
  8
0
 62
7
100
AcDbSpline
 70
8
 71
3
 72
8
 73
4
 74
0
 40
0
 40
0
 40
0
 40
0
 40
1
 40
1
 40
1
 40
1
 10
62.605818
 20
143.050497
 30
0.0
 10
62.767489
 20
144.655637
 30
0.0
 10
62.282371
 20
145.926286
 30
0.0
 10
61.959028
 20
146.528267
 30
0.0
  0
SPLINE
  5
190
100
AcDbEntity
  8
0
 62
7
100
AcDbSpline
 70
8
 71
3
 72
8
 73
4
 74
0
 40
0
 40
0
 40
0
 40
0
 40
1
 40
1
 40
1
 40
1
 10
61.959028
 20
146.528267
 30
0.0
 10
61.635581
 20
147.130142
 30
0.0
 10
61.716469
 20
149.270259
 30
0.0
 10
61.393127
 20
149.805341
 30
0.0
  0
SPLINE
  5
191
100
AcDbEntity
  8
0
 62
7
100
AcDbSpline
 70
8
 71
3
 72
8
 73
4
 74
0
 40
0
 40
0
 40
0
 40
0
 40
1
 40
1
 40
1
 40
1
 10
61.393127
 20
149.805341
 30
0.0
 10
61.069679
 20
150.340318
 30
0.0
 10
59.533541
 20
152.146049
 30
0.0
 10
59.290982
 20
152.614232
 30
0.0
  0
SPLINE
  5
192
100
AcDbEntity
  8
0
 62
7
100
AcDbSpline
 70
8
 71
3
 72
8
 73
4
 74
0
 40
0
 40
0
 40
0
 40
0
 40
1
 40
1
 40
1
 40
1
 10
59.290982
 20
152.614232
 30
0.0
 10
59.048422
 20
153.082416
 30
0.0
 10
59.048422
 20
154.018678
 30
0.0
 10
58.886751
 20
154.821248
 30
0.0
  0
SPLINE
  5
193
100
AcDbEntity
  8
0
 62
7
100
AcDbSpline
 70
8
 71
3
 72
8
 73
4
 74
0
 40
0
 40
0
 40
0
 40
0
 40
1
 40
1
 40
1
 40
1
 10
58.886751
 20
154.821248
 30
0.0
 10
58.725080
 20
155.623819
 30
0.0
 10
57.997402
 20
161.509194
 30
0.0
 10
57.916619
 20
162.779843
 30
0.0
  0
SPLINE
  5
194
100
AcDbEntity
  8
0
 62
7
100
AcDbSpline
 70
8
 71
3
 72
8
 73
4
 74
0
 40
0
 40
0
 40
0
 40
0
 40
1
 40
1
 40
1
 40
1
 10
57.916619
 20
162.779843
 30
0.0
 10
57.835731
 20
164.050597
 30
0.0
 10
57.593172
 20
167.461469
 30
0.0
 10
57.593172
 20
167.461469
 30
0.0
  0
SPLINE
  5
195
100
AcDbEntity
  8
0
 62
7
100
AcDbSpline
 70
8
 71
3
 72
8
 73
4
 74
0
 40
0
 40
0
 40
0
 40
0
 40
1
 40
1
 40
1
 40
1
 10
57.593172
 20
167.461469
 30
0.0
 10
57.593172
 20
167.461469
 30
0.0
 10
57.754843
 20
168.330832
 30
0.0
 10
58.239961
 20
168.397731
 30
0.0
  0
SPLINE
  5
196
100
AcDbEntity
  8
0
 62
7
100
AcDbSpline
 70
8
 71
3
 72
8
 73
4
 74
0
 40
0
 40
0
 40
0
 40
0
 40
1
 40
1
 40
1
 40
1
 10
58.239961
 20
168.397731
 30
0.0
 10
58.725080
 20
168.464629
 30
0.0
 10
59.452653
 20
168.330832
 30
0.0
 10
59.452653
 20
168.330832
 30
0.0
  0
SPLINE
  5
197
100
AcDbEntity
  8
0
 62
7
100
AcDbSpline
 70
8
 71
3
 72
8
 73
4
 74
0
 40
0
 40
0
 40
0
 40
0
 40
1
 40
1
 40
1
 40
1
 10
59.452653
 20
168.330832
 30
0.0
 10
59.452653
 20
168.330832
 30
0.0
 10
57.593172
 20
169.601586
 30
0.0
 10
57.835731
 20
169.802176
 30
0.0
  0
SPLINE
  5
198
100
AcDbEntity
  8
0
 62
7
100
AcDbSpline
 70
8
 71
3
 72
8
 73
4
 74
0
 40
0
 40
0
 40
0
 40
0
 40
1
 40
1
 40
1
 40
1
 10
57.835731
 20
169.802176
 30
0.0
 10
58.078290
 20
170.002871
 30
0.0
 10
61.069679
 20
170.136563
 30
0.0
 10
61.473910
 20
169.267199
 30
0.0
  0
SPLINE
  5
199
100
AcDbEntity
  8
0
 62
7
100
AcDbSpline
 70
8
 71
3
 72
8
 73
4
 74
0
 40
0
 40
0
 40
0
 40
0
 40
1
 40
1
 40
1
 40
1
 10
61.473910
 20
169.267199
 30
0.0
 10
61.878140
 20
168.397731
 30
0.0
 10
61.878140
 20
167.127082
 30
0.0
 10
61.878140
 20
167.127082
 30
0.0
  0
SPLINE
  5
19a
100
AcDbEntity
  8
0
 62
7
100
AcDbSpline
 70
8
 71
3
 72
8
 73
4
 74
0
 40
0
 40
0
 40
0
 40
0
 40
1
 40
1
 40
1
 40
1
 10
61.878140
 20
167.127082
 30
0.0
 10
61.878140
 20
167.127082
 30
0.0
 10
62.201588
 20
169.066504
 30
0.0
 10
62.848377
 20
168.999711
 30
0.0
  0
SPLINE
  5
19b
100
AcDbEntity
  8
0
 62
7
100
AcDbSpline
 70
8
 71
3
 72
8
 73
4
 74
0
 40
0
 40
0
 40
0
 40
0
 40
1
 40
1
 40
1
 40
1
 10
62.848377
 20
168.999711
 30
0.0
 10
63.495167
 20
168.932813
 30
0.0
 10
63.378831
 20
168.799016
 30
0.0
 10
63.378831
 20
168.799016
 30
0.0
  0
SPLINE
  5
19c
100
AcDbEntity
  8
0
 62
7
100
AcDbSpline
 70
8
 71
3
 72
8
 73
4
 74
0
 40
0
 40
0
 40
0
 40
0
 40
1
 40
1
 40
1
 40
1
 10
63.378831
 20
168.799016
 30
0.0
 10
63.378831
 20
168.799016
 30
0.0
 10
64.538614
 20
162.746499
 30
0.0
 10
64.781173
 20
160.940768
 30
0.0
  0
SPLINE
  5
19d
100
AcDbEntity
  8
0
 62
7
100
AcDbSpline
 70
8
 71
3
 72
8
 73
4
 74
0
 40
0
 40
0
 40
0
 40
0
 40
1
 40
1
 40
1
 40
1
 10
64.781173
 20
160.940768
 30
0.0
 10
65.023732
 20
159.135038
 30
0.0
 10
65.427963
 20
155.791065
 30
0.0
 10
65.185403
 20
154.854697
 30
0.0
  0
SPLINE
  5
19e
100
AcDbEntity
  8
0
 62
7
100
AcDbSpline
 70
8
 71
3
 72
8
 73
4
 74
0
 40
0
 40
0
 40
0
 40
0
 40
1
 40
1
 40
1
 40
1
 10
65.185403
 20
154.854697
 30
0.0
 10
64.942844
 20
153.918436
 30
0.0
 10
64.215166
 20
152.580783
 30
0.0
 10
64.215166
 20
152.112705
 30
0.0
  0
SPLINE
  5
19f
100
AcDbEntity
  8
0
 62
7
100
AcDbSpline
 70
8
 71
3
 72
8
 73
4
 74
0
 40
0
 40
0
 40
0
 40
0
 40
1
 40
1
 40
1
 40
1
 10
64.215166
 20
152.112705
 30
0.0
 10
64.215166
 20
151.644521
 30
0.0
 10
65.104515
 20
150.306974
 30
0.0
 10
65.266186
 20
150.039380
 30
0.0
  0
SPLINE
  5
1a0
100
AcDbEntity
  8
0
 62
7
100
AcDbSpline
 70
8
 71
3
 72
8
 73
4
 74
0
 40
0
 40
0
 40
0
 40
0
 40
1
 40
1
 40
1
 40
1
 10
65.266186
 20
150.039380
 30
0.0
 10
65.427963
 20
149.771892
 30
0.0
 10
65.912976
 20
147.966161
 30
0.0
 10
65.993864
 20
147.497978
 30
0.0
  0
SPLINE
  5
1a1
100
AcDbEntity
  8
0
 62
7
100
AcDbSpline
 70
8
 71
3
 72
8
 73
4
 74
0
 40
0
 40
0
 40
0
 40
0
 40
1
 40
1
 40
1
 40
1
 10
65.993864
 20
147.497978
 30
0.0
 10
66.074752
 20
147.029899
 30
0.0
 10
66.883213
 20
144.956575
 30
0.0
 10
67.044884
 20
144.622188
 30
0.0
  0
SPLINE
  5
1a2
100
AcDbEntity
  8
0
 62
7
100
AcDbSpline
 70
8
 71
3
 72
8
 73
4
 74
0
 40
0
 40
0
 40
0
 40
0
 40
1
 40
1
 40
1
 40
1
 10
67.044884
 20
144.622188
 30
0.0
 10
67.206660
 20
144.287801
 30
0.0
 10
69.470372
 20
143.685926
 30
0.0
 10
69.470372
 20
143.685926
 30
0.0
  0
LWPOLYLINE
  5
1a3
100
AcDbEntity
  8
0
 62
7
100
AcDbPolyline
 90
2
 70
0
 10
44.232006
 20
192.273620
 30
0.0
 10
43.636336
 20
191.203562
 30
0.0
  0
SPLINE
  5
1a4
100
AcDbEntity
  8
0
 62
7
100
AcDbSpline
 70
8
 71
3
 72
8
 73
4
 74
0
 40
0
 40
0
 40
0
 40
0
 40
1
 40
1
 40
1
 40
1
 10
71.572412
 20
142.548969
 30
0.0
 10
71.572412
 20
142.548969
 30
0.0
 10
73.593669
 20
145.090372
 30
0.0
 10
73.351110
 20
146.361021
 30
0.0
  0
SPLINE
  5
1a5
100
AcDbEntity
  8
0
 62
7
100
AcDbSpline
 70
8
 71
3
 72
8
 73
4
 74
0
 40
0
 40
0
 40
0
 40
0
 40
1
 40
1
 40
1
 40
1
 10
73.351110
 20
146.361021
 30
0.0
 10
73.108550
 20
147.631775
 30
0.0
 10
72.865991
 20
150.708154
 30
0.0
 10
71.814971
 20
151.176338
 30
0.0
  0
SPLINE
  5
1a6
100
AcDbEntity
  8
0
 62
7
100
AcDbSpline
 70
8
 71
3
 72
8
 73
4
 74
0
 40
0
 40
0
 40
0
 40
0
 40
1
 40
1
 40
1
 40
1
 10
71.814971
 20
151.176338
 30
0.0
 10
70.763951
 20
151.644521
 30
0.0
 10
70.036273
 20
153.316455
 30
0.0
 10
69.632043
 20
154.052127
 30
0.0
  0
SPLINE
  5
1a7
100
AcDbEntity
  8
0
 62
7
100
AcDbSpline
 70
8
 71
3
 72
8
 73
4
 74
0
 40
0
 40
0
 40
0
 40
0
 40
1
 40
1
 40
1
 40
1
 10
69.632043
 20
154.052127
 30
0.0
 10
69.227812
 20
154.787799
 30
0.0
 10
68.904470
 20
156.192245
 30
0.0
 10
68.742694
 20
156.861123
 30
0.0
  0
SPLINE
  5
1a8
100
AcDbEntity
  8
0
 62
7
100
AcDbSpline
 70
8
 71
3
 72
8
 73
4
 74
0
 40
0
 40
0
 40
0
 40
0
 40
1
 40
1
 40
1
 40
1
 10
68.742694
 20
156.861123
 30
0.0
 10
68.655074
 20
157.223490
 30
0.0
 10
68.041418
 20
167.603365
 30
0.0
 10
68.394843
 20
168.498078
 30
0.0
  0
SPLINE
  5
1a9
100
AcDbEntity
  8
0
 62
7
100
AcDbSpline
 70
8
 71
3
 72
8
 73
4
 74
0
 40
0
 40
0
 40
0
 40
0
 40
1
 40
1
 40
1
 40
1
 10
68.394843
 20
168.498078
 30
0.0
 10
68.488038
 20
168.734221
 30
0.0
 10
72.566526
 20
172.401957
 30
0.0
 10
72.566526
 20
172.401957
 30
0.0
  0
SPLINE
  5
1aa
100
AcDbEntity
  8
0
 62
7
100
AcDbSpline
 70
8
 71
3
 72
8
 73
4
 74
0
 40
0
 40
0
 40
0
 40
0
 40
1
 40
1
 40
1
 40
1
 10
72.566526
 20
172.401957
 30
0.0
 10
72.566526
 20
172.401957
 30
0.0
 10
72.566526
 20
168.489768
 30
0.0
 10
70.501512
 20
163.482171
 30
0.0
  0
SPLINE
  5
1ab
100
AcDbEntity
  8
0
 62
7
100
AcDbSpline
 70
8
 71
3
 72
8
 73
4
 74
0
 40
0
 40
0
 40
0
 40
0
 40
1
 40
1
 40
1
 40
1
 10
70.501512
 20
163.482171
 30
0.0
 10
69.926038
 20
162.086772
 30
0.0
 10
69.963064
 20
160.572827
 30
0.0
 10
69.963064
 20
160.572827
 30
0.0
  0
LWPOLYLINE
  5
1ac
100
AcDbEntity
  8
0
 62
7
100
AcDbPolyline
 90
2
 70
0
 10
69.470372
 20
143.685926
 30
0.0
 10
71.572412
 20
142.548969
 30
0.0
  0
SPLINE
  5
1ad
100
AcDbEntity
  8
0
 62
7
100
AcDbSpline
 70
8
 71
3
 72
8
 73
4
 74
0
 40
0
 40
0
 40
0
 40
0
 40
1
 40
1
 40
1
 40
1
 10
70.448182
 20
159.369077
 30
0.0
 10
70.448182
 20
159.369077
 30
0.0
 10
70.933301
 20
158.098323
 30
0.0
 10
70.933301
 20
157.763936
 30
0.0
  0
SPLINE
  5
1ae
100
AcDbEntity
  8
0
 62
7
100
AcDbSpline
 70
8
 71
3
 72
8
 73
4
 74
0
 40
0
 40
0
 40
0
 40
0
 40
1
 40
1
 40
1
 40
1
 10
70.933301
 20
157.763936
 30
0.0
 10
70.933301
 20
157.429549
 30
0.0
 10
73.439571
 20
153.684291
 30
0.0
 10
73.682131
 20
153.416803
 30
0.0
  0
SPLINE
  5
1af
100
AcDbEntity
  8
0
 62
7
100
AcDbSpline
 70
8
 71
3
 72
8
 73
4
 74
0
 40
0
 40
0
 40
0
 40
0
 40
1
 40
1
 40
1
 40
1
 10
73.682131
 20
153.416803
 30
0.0
 10
73.924690
 20
153.149314
 30
0.0
 10
75.784171
 20
151.477275
 30
0.0
 10
75.784171
 20
151.477275
 30
0.0
  0
SPLINE
  5
1b0
100
AcDbEntity
  8
0
 62
7
100
AcDbSpline
 70
8
 71
3
 72
8
 73
4
 74
0
 40
0
 40
0
 40
0
 40
0
 40
1
 40
1
 40
1
 40
1
 10
75.784171
 20
151.477275
 30
0.0
 10
75.784171
 20
151.477275
 30
0.0
 10
77.239526
 20
152.480541
 30
0.0
 10
77.643757
 20
153.015518
 30
0.0
  0
SPLINE
  5
1b1
100
AcDbEntity
  8
0
 62
7
100
AcDbSpline
 70
8
 71
3
 72
8
 73
4
 74
0
 40
0
 40
0
 40
0
 40
0
 40
1
 40
1
 40
1
 40
1
 10
77.643757
 20
153.015518
 30
0.0
 10
78.047987
 20
153.550600
 30
0.0
 10
78.025372
 20
154.453412
 30
0.0
 10
78.025372
 20
154.654107
 30
0.0
  0
SPLINE
  5
1b2
100
AcDbEntity
  8
0
 62
7
100
AcDbSpline
 70
8
 71
3
 72
8
 73
4
 74
0
 40
0
 40
0
 40
0
 40
0
 40
1
 40
1
 40
1
 40
1
 10
78.025372
 20
154.654107
 30
0.0
 10
78.025372
 20
154.854697
 30
0.0
 10
78.128770
 20
155.824409
 30
0.0
 10
78.452218
 20
156.025104
 30
0.0
  0
SPLINE
  5
1b3
100
AcDbEntity
  8
0
 62
7
100
AcDbSpline
 70
8
 71
3
 72
8
 73
4
 74
0
 40
0
 40
0
 40
0
 40
0
 40
1
 40
1
 40
1
 40
1
 10
78.452218
 20
156.025104
 30
0.0
 10
78.775560
 20
156.225694
 30
0.0
 10
79.422349
 20
159.034690
 30
0.0
 10
79.341566
 20
160.037850
 30
0.0
  0
SPLINE
  5
1b4
100
AcDbEntity
  8
0
 62
7
100
AcDbSpline
 70
8
 71
3
 72
8
 73
4
 74
0
 40
0
 40
0
 40
0
 40
0
 40
1
 40
1
 40
1
 40
1
 10
79.341566
 20
160.037850
 30
0.0
 10
79.260678
 20
161.041011
 30
0.0
 10
78.533106
 20
163.448722
 30
0.0
 10
78.128770
 20
164.853167
 30
0.0
  0
SPLINE
  5
1b5
100
AcDbEntity
  8
0
 62
7
100
AcDbSpline
 70
8
 71
3
 72
8
 73
4
 74
0
 40
0
 40
0
 40
0
 40
0
 40
1
 40
1
 40
1
 40
1
 10
78.128770
 20
164.853167
 30
0.0
 10
77.724540
 20
166.257613
 30
0.0
 10
78.533106
 20
167.461469
 30
0.0
 10
78.694777
 20
167.795855
 30
0.0
  0
SPLINE
  5
1b6
100
AcDbEntity
  8
0
 62
7
100
AcDbSpline
 70
8
 71
3
 72
8
 73
4
 74
0
 40
0
 40
0
 40
0
 40
0
 40
1
 40
1
 40
1
 40
1
 10
78.694777
 20
167.795855
 30
0.0
 10
78.856448
 20
168.130242
 30
0.0
 10
78.452218
 20
172.811762
 30
0.0
 10
78.371329
 20
173.614333
 30
0.0
  0
SPLINE
  5
1b7
100
AcDbEntity
  8
0
 62
7
100
AcDbSpline
 70
8
 71
3
 72
8
 73
4
 74
0
 40
0
 40
0
 40
0
 40
0
 40
1
 40
1
 40
1
 40
1
 10
78.371329
 20
173.614333
 30
0.0
 10
78.290546
 20
174.416903
 30
0.0
 10
77.643757
 20
178.028365
 30
0.0
 10
77.643757
 20
178.028365
 30
0.0
  0
SPLINE
  5
1b8
100
AcDbEntity
  8
0
 62
7
100
AcDbSpline
 70
8
 71
3
 72
8
 73
4
 74
0
 40
0
 40
0
 40
0
 40
0
 40
1
 40
1
 40
1
 40
1
 10
77.643757
 20
178.028365
 30
0.0
 10
77.643757
 20
178.028365
 30
0.0
 10
78.917140
 20
176.393561
 30
0.0
 10
79.018119
 20
175.888247
 30
0.0
  0
SPLINE
  5
1b9
100
AcDbEntity
  8
0
 62
7
100
AcDbSpline
 70
8
 71
3
 72
8
 73
4
 74
0
 40
0
 40
0
 40
0
 40
0
 40
1
 40
1
 40
1
 40
1
 10
79.018119
 20
175.888247
 30
0.0
 10
79.366706
 20
174.144997
 30
0.0
 10
81.377445
 20
175.491275
 30
0.0
 10
82.648093
 20
176.314251
 30
0.0
  0
SPLINE
  5
1ba
100
AcDbEntity
  8
0
 62
7
100
AcDbSpline
 70
8
 71
3
 72
8
 73
4
 74
0
 40
0
 40
0
 40
0
 40
0
 40
1
 40
1
 40
1
 40
1
 10
82.648093
 20
176.314251
 30
0.0
 10
83.784840
 20
177.050449
 30
0.0
 10
86.132911
 20
174.550595
 30
0.0
 10
86.537141
 20
174.617493
 30
0.0
  0
SPLINE
  5
1bb
100
AcDbEntity
  8
0
 62
7
100
AcDbSpline
 70
8
 71
3
 72
8
 73
4
 74
0
 40
0
 40
0
 40
0
 40
0
 40
1
 40
1
 40
1
 40
1
 10
86.537141
 20
174.617493
 30
0.0
 10
86.941371
 20
174.684392
 30
0.0
 10
87.911503
 20
174.550595
 30
0.0
 10
88.154063
 20
174.350005
 30
0.0
  0
SPLINE
  5
1bc
100
AcDbEntity
  8
0
 62
7
100
AcDbSpline
 70
8
 71
3
 72
8
 73
4
 74
0
 40
0
 40
0
 40
0
 40
0
 40
1
 40
1
 40
1
 40
1
 10
88.154063
 20
174.350005
 30
0.0
 10
88.396622
 20
174.149415
 30
0.0
 10
87.507273
 20
171.942399
 30
0.0
 10
87.345602
 20
171.541114
 30
0.0
  0
SPLINE
  5
1bd
100
AcDbEntity
  8
0
 62
7
100
AcDbSpline
 70
8
 71
3
 72
8
 73
4
 74
0
 40
0
 40
0
 40
0
 40
0
 40
1
 40
1
 40
1
 40
1
 10
87.345602
 20
171.541114
 30
0.0
 10
87.183931
 20
171.139828
 30
0.0
 10
86.052022
 20
168.330832
 30
0.0
 10
85.566904
 20
167.327672
 30
0.0
  0
SPLINE
  5
1be
100
AcDbEntity
  8
0
 62
7
100
AcDbSpline
 70
8
 71
3
 72
8
 73
4
 74
0
 40
0
 40
0
 40
0
 40
0
 40
1
 40
1
 40
1
 40
1
 10
85.566904
 20
167.327672
 30
0.0
 10
85.081785
 20
166.324511
 30
0.0
 10
83.626535
 20
164.184394
 30
0.0
 10
83.303193
 20
163.716210
 30
0.0
  0
SPLINE
  5
1bf
100
AcDbEntity
  8
0
 62
7
100
AcDbSpline
 70
8
 71
3
 72
8
 73
4
 74
0
 40
0
 40
0
 40
0
 40
0
 40
1
 40
1
 40
1
 40
1
 10
83.303193
 20
163.716210
 30
0.0
 10
82.979745
 20
163.248027
 30
0.0
 10
82.818074
 20
161.308604
 30
0.0
 10
82.737186
 20
159.970952
 30
0.0
  0
SPLINE
  5
1c0
100
AcDbEntity
  8
0
 62
7
100
AcDbSpline
 70
8
 71
3
 72
8
 73
4
 74
0
 40
0
 40
0
 40
0
 40
0
 40
1
 40
1
 40
1
 40
1
 10
82.737186
 20
159.970952
 30
0.0
 10
82.656403
 20
158.633405
 30
0.0
 10
83.060633
 20
154.687557
 30
0.0
 10
83.222304
 20
153.884986
 30
0.0
  0
SPLINE
  5
1c1
100
AcDbEntity
  8
0
 62
7
100
AcDbSpline
 70
8
 71
3
 72
8
 73
4
 74
0
 40
0
 40
0
 40
0
 40
0
 40
1
 40
1
 40
1
 40
1
 10
83.222304
 20
153.884986
 30
0.0
 10
83.383976
 20
153.082416
 30
0.0
 10
84.434996
 20
152.279846
 30
0.0
 10
84.515884
 20
152.012357
 30
0.0
  0
SPLINE
  5
1c2
100
AcDbEntity
  8
0
 62
7
100
AcDbSpline
 70
8
 71
3
 72
8
 73
4
 74
0
 40
0
 40
0
 40
0
 40
0
 40
1
 40
1
 40
1
 40
1
 10
84.515884
 20
152.012357
 30
0.0
 10
84.596772
 20
151.744764
 30
0.0
 10
85.526828
 20
152.313295
 30
0.0
 10
85.850275
 20
152.447092
 30
0.0
  0
SPLINE
  5
1c3
100
AcDbEntity
  8
0
 62
7
100
AcDbSpline
 70
8
 71
3
 72
8
 73
4
 74
0
 40
0
 40
0
 40
0
 40
0
 40
1
 40
1
 40
1
 40
1
 10
85.850275
 20
152.447092
 30
0.0
 10
86.173723
 20
152.580783
 30
0.0
 10
86.617924
 20
152.614232
 30
0.0
 10
87.103043
 20
152.881826
 30
0.0
  0
SPLINE
  5
1c4
100
AcDbEntity
  8
0
 62
7
100
AcDbSpline
 70
8
 71
3
 72
8
 73
4
 74
0
 40
0
 40
0
 40
0
 40
0
 40
1
 40
1
 40
1
 40
1
 10
87.103043
 20
152.881826
 30
0.0
 10
87.588161
 20
153.149314
 30
0.0
 10
89.124300
 20
155.690717
 30
0.0
 10
89.205083
 20
156.225694
 30
0.0
  0
SPLINE
  5
1c5
100
AcDbEntity
  8
0
 62
7
100
AcDbSpline
 70
8
 71
3
 72
8
 73
4
 74
0
 40
0
 40
0
 40
0
 40
0
 40
1
 40
1
 40
1
 40
1
 10
89.205083
 20
156.225694
 30
0.0
 10
89.285971
 20
156.760776
 30
0.0
 10
90.256208
 20
159.369077
 30
0.0
 10
90.417879
 20
159.904054
 30
0.0
  0
SPLINE
  5
1c6
100
AcDbEntity
  8
0
 62
7
100
AcDbSpline
 70
8
 71
3
 72
8
 73
4
 74
0
 40
0
 40
0
 40
0
 40
0
 40
1
 40
1
 40
1
 40
1
 10
90.417879
 20
159.904054
 30
0.0
 10
90.579550
 20
160.439136
 30
0.0
 10
91.468899
 20
162.177968
 30
0.0
 10
91.792241
 20
162.713050
 30
0.0
  0
SPLINE
  5
1c7
100
AcDbEntity
  8
0
 62
7
100
AcDbSpline
 70
8
 71
3
 72
8
 73
4
 74
0
 40
0
 40
0
 40
0
 40
0
 40
1
 40
1
 40
1
 40
1
 10
91.792241
 20
162.713050
 30
0.0
 10
92.115689
 20
163.248027
 30
0.0
 10
92.115689
 20
165.521941
 30
0.0
 10
92.115689
 20
165.521941
 30
0.0
  0
SPLINE
  5
1c8
100
AcDbEntity
  8
0
 62
7
100
AcDbSpline
 70
8
 71
3
 72
8
 73
4
 74
0
 40
0
 40
0
 40
0
 40
0
 40
1
 40
1
 40
1
 40
1
 10
92.115689
 20
165.521941
 30
0.0
 10
92.115689
 20
165.521941
 30
0.0
 10
93.732716
 20
169.668484
 30
0.0
 10
94.217729
 20
171.006032
 30
0.0
  0
SPLINE
  5
1c9
100
AcDbEntity
  8
0
 62
7
100
AcDbSpline
 70
8
 71
3
 72
8
 73
4
 74
0
 40
0
 40
0
 40
0
 40
0
 40
1
 40
1
 40
1
 40
1
 10
94.217729
 20
171.006032
 30
0.0
 10
94.702847
 20
172.343684
 30
0.0
 10
95.753867
 20
172.878661
 30
0.0
 10
95.834756
 20
173.748130
 30
0.0
  0
SPLINE
  5
1ca
100
AcDbEntity
  8
0
 62
7
100
AcDbSpline
 70
8
 71
3
 72
8
 73
4
 74
0
 40
0
 40
0
 40
0
 40
0
 40
1
 40
1
 40
1
 40
1
 10
95.834756
 20
173.748130
 30
0.0
 10
95.915644
 20
174.617493
 30
0.0
 10
95.915644
 20
177.158896
 30
0.0
 10
95.915644
 20
177.627079
 30
0.0
  0
SPLINE
  5
1cb
100
AcDbEntity
  8
0
 62
7
100
AcDbSpline
 70
8
 71
3
 72
8
 73
4
 74
0
 40
0
 40
0
 40
0
 40
0
 40
1
 40
1
 40
1
 40
1
 10
95.915644
 20
177.627079
 30
0.0
 10
95.915644
 20
178.095263
 30
0.0
 10
95.349637
 20
179.299119
 30
0.0
 10
94.945407
 20
179.499709
 30
0.0
  0
SPLINE
  5
1cc
100
AcDbEntity
  8
0
 62
7
100
AcDbSpline
 70
8
 71
3
 72
8
 73
4
 74
0
 40
0
 40
0
 40
0
 40
0
 40
1
 40
1
 40
1
 40
1
 10
5.926667
 20
22.577782
 30
0.0
 10
5.926667
 20
22.421912
 30
0.0
 10
5.800311
 20
22.295555
 30
0.0
 10
5.644444
 20
22.295555
 30
0.0
  0
SPLINE
  5
1cd
100
AcDbEntity
  8
0
 62
7
100
AcDbSpline
 70
8
 71
3
 72
8
 73
4
 74
0
 40
0
 40
0
 40
0
 40
0
 40
1
 40
1
 40
1
 40
1
 10
5.644444
 20
22.295555
 30
0.0
 10
5.488577
 20
22.295555
 30
0.0
 10
5.362222
 20
22.421912
 30
0.0
 10
5.362222
 20
22.577782
 30
0.0
  0
SPLINE
  5
1ce
100
AcDbEntity
  8
0
 62
7
100
AcDbSpline
 70
8
 71
3
 72
8
 73
4
 74
0
 40
0
 40
0
 40
0
 40
0
 40
1
 40
1
 40
1
 40
1
 10
5.362222
 20
22.577782
 30
0.0
 10
5.362222
 20
22.733651
 30
0.0
 10
5.488577
 20
22.860008
 30
0.0
 10
5.644444
 20
22.860008
 30
0.0
  0
SPLINE
  5
1cf
100
AcDbEntity
  8
0
 62
7
100
AcDbSpline
 70
8
 71
3
 72
8
 73
4
 74
0
 40
0
 40
0
 40
0
 40
0
 40
1
 40
1
 40
1
 40
1
 10
5.644444
 20
22.860008
 30
0.0
 10
5.800311
 20
22.860008
 30
0.0
 10
5.926667
 20
22.733651
 30
0.0
 10
5.926667
 20
22.577782
 30
0.0
  0
LWPOLYLINE
  5
1d0
100
AcDbEntity
  8
0
 62
7
100
AcDbPolyline
 90
2
 70
0
 10
69.963064
 20
160.572827
 30
0.0
 10
70.448182
 20
159.369077
 30
0.0
  0
SPLINE
  5
1d1
100
AcDbEntity
  8
0
 62
7
100
AcDbSpline
 70
8
 71
3
 72
8
 73
4
 74
0
 40
0
 40
0
 40
0
 40
0
 40
1
 40
1
 40
1
 40
1
 10
22.860000
 20
5.644450
 30
0.0
 10
22.860000
 20
5.488579
 30
0.0
 10
22.733645
 20
5.362222
 30
0.0
 10
22.577777
 20
5.362222
 30
0.0
  0
SPLINE
  5
1d2
100
AcDbEntity
  8
0
 62
7
100
AcDbSpline
 70
8
 71
3
 72
8
 73
4
 74
0
 40
0
 40
0
 40
0
 40
0
 40
1
 40
1
 40
1
 40
1
 10
22.577777
 20
5.362222
 30
0.0
 10
22.421911
 20
5.362222
 30
0.0
 10
22.295556
 20
5.488579
 30
0.0
 10
22.295556
 20
5.644450
 30
0.0
  0
SPLINE
  5
1d3
100
AcDbEntity
  8
0
 62
7
100
AcDbSpline
 70
8
 71
3
 72
8
 73
4
 74
0
 40
0
 40
0
 40
0
 40
0
 40
1
 40
1
 40
1
 40
1
 10
22.295556
 20
5.644450
 30
0.0
 10
22.295556
 20
5.800319
 30
0.0
 10
22.421911
 20
5.926675
 30
0.0
 10
22.577777
 20
5.926675
 30
0.0
  0
SPLINE
  5
1d4
100
AcDbEntity
  8
0
 62
7
100
AcDbSpline
 70
8
 71
3
 72
8
 73
4
 74
0
 40
0
 40
0
 40
0
 40
0
 40
1
 40
1
 40
1
 40
1
 10
22.577777
 20
5.926675
 30
0.0
 10
22.733645
 20
5.926675
 30
0.0
 10
22.860000
 20
5.800319
 30
0.0
 10
22.860000
 20
5.644450
 30
0.0
  0
LWPOLYLINE
  5
1d5
100
AcDbEntity
  8
0
 62
7
100
AcDbPolyline
 90
2
 70
1
 10
5.926667
 20
22.577782
 30
0.0
 10
5.926667
 20
22.577782
 30
0.0
  0
SPLINE
  5
1d6
100
AcDbEntity
  8
0
 62
7
100
AcDbSpline
 70
8
 71
3
 72
8
 73
4
 74
0
 40
0
 40
0
 40
0
 40
0
 40
1
 40
1
 40
1
 40
1
 10
104.704444
 20
248.355561
 30
0.0
 10
104.704444
 20
248.199690
 30
0.0
 10
104.578088
 20
248.073333
 30
0.0
 10
104.422222
 20
248.073333
 30
0.0
  0
SPLINE
  5
1d7
100
AcDbEntity
  8
0
 62
7
100
AcDbSpline
 70
8
 71
3
 72
8
 73
4
 74
0
 40
0
 40
0
 40
0
 40
0
 40
1
 40
1
 40
1
 40
1
 10
104.422222
 20
248.073333
 30
0.0
 10
104.266357
 20
248.073333
 30
0.0
 10
104.140000
 20
248.199690
 30
0.0
 10
104.140000
 20
248.355561
 30
0.0
  0
SPLINE
  5
1d8
100
AcDbEntity
  8
0
 62
7
100
AcDbSpline
 70
8
 71
3
 72
8
 73
4
 74
0
 40
0
 40
0
 40
0
 40
0
 40
1
 40
1
 40
1
 40
1
 10
104.140000
 20
248.355561
 30
0.0
 10
104.140000
 20
248.511430
 30
0.0
 10
104.266357
 20
248.637786
 30
0.0
 10
104.422222
 20
248.637786
 30
0.0
  0
SPLINE
  5
1d9
100
AcDbEntity
  8
0
 62
7
100
AcDbSpline
 70
8
 71
3
 72
8
 73
4
 74
0
 40
0
 40
0
 40
0
 40
0
 40
1
 40
1
 40
1
 40
1
 10
104.422222
 20
248.637786
 30
0.0
 10
104.578088
 20
248.637786
 30
0.0
 10
104.704444
 20
248.511430
 30
0.0
 10
104.704444
 20
248.355561
 30
0.0
  0
LWPOLYLINE
  5
1da
100
AcDbEntity
  8
0
 62
7
100
AcDbPolyline
 90
2
 70
1
 10
22.860000
 20
5.644450
 30
0.0
 10
22.860000
 20
5.644450
 30
0.0
  0
SPLINE
  5
1db
100
AcDbEntity
  8
0
 62
7
100
AcDbSpline
 70
8
 71
3
 72
8
 73
4
 74
0
 40
0
 40
0
 40
0
 40
0
 40
1
 40
1
 40
1
 40
1
 10
22.860000
 20
248.355561
 30
0.0
 10
22.860000
 20
248.199690
 30
0.0
 10
22.733643
 20
248.073333
 30
0.0
 10
22.577778
 20
248.073333
 30
0.0
  0
SPLINE
  5
1dc
100
AcDbEntity
  8
0
 62
7
100
AcDbSpline
 70
8
 71
3
 72
8
 73
4
 74
0
 40
0
 40
0
 40
0
 40
0
 40
1
 40
1
 40
1
 40
1
 10
22.577778
 20
248.073333
 30
0.0
 10
22.421912
 20
248.073333
 30
0.0
 10
22.295556
 20
248.199690
 30
0.0
 10
22.295556
 20
248.355561
 30
0.0
  0
SPLINE
  5
1dd
100
AcDbEntity
  8
0
 62
7
100
AcDbSpline
 70
8
 71
3
 72
8
 73
4
 74
0
 40
0
 40
0
 40
0
 40
0
 40
1
 40
1
 40
1
 40
1
 10
22.295556
 20
248.355561
 30
0.0
 10
22.295556
 20
248.511430
 30
0.0
 10
22.421912
 20
248.637786
 30
0.0
 10
22.577778
 20
248.637786
 30
0.0
  0
SPLINE
  5
1de
100
AcDbEntity
  8
0
 62
7
100
AcDbSpline
 70
8
 71
3
 72
8
 73
4
 74
0
 40
0
 40
0
 40
0
 40
0
 40
1
 40
1
 40
1
 40
1
 10
22.577778
 20
248.637786
 30
0.0
 10
22.733643
 20
248.637786
 30
0.0
 10
22.860000
 20
248.511430
 30
0.0
 10
22.860000
 20
248.355561
 30
0.0
  0
LWPOLYLINE
  5
1df
100
AcDbEntity
  8
0
 62
7
100
AcDbPolyline
 90
2
 70
1
 10
104.704444
 20
248.355561
 30
0.0
 10
104.704444
 20
248.355561
 30
0.0
  0
SPLINE
  5
1e0
100
AcDbEntity
  8
0
 62
7
100
AcDbSpline
 70
8
 71
3
 72
8
 73
4
 74
0
 40
0
 40
0
 40
0
 40
0
 40
1
 40
1
 40
1
 40
1
 10
104.704444
 20
121.355561
 30
0.0
 10
104.704444
 20
121.199690
 30
0.0
 10
104.578088
 20
121.073333
 30
0.0
 10
104.422222
 20
121.073333
 30
0.0
  0
SPLINE
  5
1e1
100
AcDbEntity
  8
0
 62
7
100
AcDbSpline
 70
8
 71
3
 72
8
 73
4
 74
0
 40
0
 40
0
 40
0
 40
0
 40
1
 40
1
 40
1
 40
1
 10
104.422222
 20
121.073333
 30
0.0
 10
104.266357
 20
121.073333
 30
0.0
 10
104.140000
 20
121.199690
 30
0.0
 10
104.140000
 20
121.355561
 30
0.0
  0
SPLINE
  5
1e2
100
AcDbEntity
  8
0
 62
7
100
AcDbSpline
 70
8
 71
3
 72
8
 73
4
 74
0
 40
0
 40
0
 40
0
 40
0
 40
1
 40
1
 40
1
 40
1
 10
104.140000
 20
121.355561
 30
0.0
 10
104.140000
 20
121.511430
 30
0.0
 10
104.266357
 20
121.637786
 30
0.0
 10
104.422222
 20
121.637786
 30
0.0
  0
SPLINE
  5
1e3
100
AcDbEntity
  8
0
 62
7
100
AcDbSpline
 70
8
 71
3
 72
8
 73
4
 74
0
 40
0
 40
0
 40
0
 40
0
 40
1
 40
1
 40
1
 40
1
 10
104.422222
 20
121.637786
 30
0.0
 10
104.578088
 20
121.637786
 30
0.0
 10
104.704444
 20
121.511430
 30
0.0
 10
104.704444
 20
121.355561
 30
0.0
  0
LWPOLYLINE
  5
1e4
100
AcDbEntity
  8
0
 62
7
100
AcDbPolyline
 90
2
 70
1
 10
22.860000
 20
248.355561
 30
0.0
 10
22.860000
 20
248.355561
 30
0.0
  0
SPLINE
  5
1e5
100
AcDbEntity
  8
0
 62
7
100
AcDbSpline
 70
8
 71
3
 72
8
 73
4
 74
0
 40
0
 40
0
 40
0
 40
0
 40
1
 40
1
 40
1
 40
1
 10
22.860000
 20
121.355561
 30
0.0
 10
22.860000
 20
121.199690
 30
0.0
 10
22.733645
 20
121.073333
 30
0.0
 10
22.577777
 20
121.073333
 30
0.0
  0
SPLINE
  5
1e6
100
AcDbEntity
  8
0
 62
7
100
AcDbSpline
 70
8
 71
3
 72
8
 73
4
 74
0
 40
0
 40
0
 40
0
 40
0
 40
1
 40
1
 40
1
 40
1
 10
22.577777
 20
121.073333
 30
0.0
 10
22.421911
 20
121.073333
 30
0.0
 10
22.295556
 20
121.199690
 30
0.0
 10
22.295556
 20
121.355561
 30
0.0
  0
SPLINE
  5
1e7
100
AcDbEntity
  8
0
 62
7
100
AcDbSpline
 70
8
 71
3
 72
8
 73
4
 74
0
 40
0
 40
0
 40
0
 40
0
 40
1
 40
1
 40
1
 40
1
 10
22.295556
 20
121.355561
 30
0.0
 10
22.295556
 20
121.511430
 30
0.0
 10
22.421911
 20
121.637786
 30
0.0
 10
22.577777
 20
121.637786
 30
0.0
  0
SPLINE
  5
1e8
100
AcDbEntity
  8
0
 62
7
100
AcDbSpline
 70
8
 71
3
 72
8
 73
4
 74
0
 40
0
 40
0
 40
0
 40
0
 40
1
 40
1
 40
1
 40
1
 10
22.577777
 20
121.637786
 30
0.0
 10
22.733645
 20
121.637786
 30
0.0
 10
22.860000
 20
121.511430
 30
0.0
 10
22.860000
 20
121.355561
 30
0.0
  0
LWPOLYLINE
  5
1e9
100
AcDbEntity
  8
0
 62
7
100
AcDbPolyline
 90
2
 70
1
 10
104.704444
 20
121.355561
 30
0.0
 10
104.704444
 20
121.355561
 30
0.0
  0
SPLINE
  5
1ea
100
AcDbEntity
  8
0
 62
7
100
AcDbSpline
 70
8
 71
3
 72
8
 73
4
 74
0
 40
0
 40
0
 40
0
 40
0
 40
1
 40
1
 40
1
 40
1
 10
22.860000
 20
132.644450
 30
0.0
 10
22.860000
 20
132.488579
 30
0.0
 10
22.733645
 20
132.362222
 30
0.0
 10
22.577777
 20
132.362222
 30
0.0
  0
SPLINE
  5
1eb
100
AcDbEntity
  8
0
 62
7
100
AcDbSpline
 70
8
 71
3
 72
8
 73
4
 74
0
 40
0
 40
0
 40
0
 40
0
 40
1
 40
1
 40
1
 40
1
 10
22.577777
 20
132.362222
 30
0.0
 10
22.421911
 20
132.362222
 30
0.0
 10
22.295556
 20
132.488579
 30
0.0
 10
22.295556
 20
132.644450
 30
0.0
  0
SPLINE
  5
1ec
100
AcDbEntity
  8
0
 62
7
100
AcDbSpline
 70
8
 71
3
 72
8
 73
4
 74
0
 40
0
 40
0
 40
0
 40
0
 40
1
 40
1
 40
1
 40
1
 10
22.295556
 20
132.644450
 30
0.0
 10
22.295556
 20
132.800319
 30
0.0
 10
22.421911
 20
132.926675
 30
0.0
 10
22.577777
 20
132.926675
 30
0.0
  0
SPLINE
  5
1ed
100
AcDbEntity
  8
0
 62
7
100
AcDbSpline
 70
8
 71
3
 72
8
 73
4
 74
0
 40
0
 40
0
 40
0
 40
0
 40
1
 40
1
 40
1
 40
1
 10
22.577777
 20
132.926675
 30
0.0
 10
22.733645
 20
132.926675
 30
0.0
 10
22.860000
 20
132.800319
 30
0.0
 10
22.860000
 20
132.644450
 30
0.0
  0
LWPOLYLINE
  5
1ee
100
AcDbEntity
  8
0
 62
7
100
AcDbPolyline
 90
2
 70
1
 10
22.860000
 20
121.355561
 30
0.0
 10
22.860000
 20
121.355561
 30
0.0
  0
SPLINE
  5
1ef
100
AcDbEntity
  8
0
 62
7
100
AcDbSpline
 70
8
 71
3
 72
8
 73
4
 74
0
 40
0
 40
0
 40
0
 40
0
 40
1
 40
1
 40
1
 40
1
 10
104.704444
 20
5.644450
 30
0.0
 10
104.704444
 20
5.488579
 30
0.0
 10
104.578088
 20
5.362222
 30
0.0
 10
104.422222
 20
5.362222
 30
0.0
  0
SPLINE
  5
1f0
100
AcDbEntity
  8
0
 62
7
100
AcDbSpline
 70
8
 71
3
 72
8
 73
4
 74
0
 40
0
 40
0
 40
0
 40
0
 40
1
 40
1
 40
1
 40
1
 10
104.422222
 20
5.362222
 30
0.0
 10
104.266357
 20
5.362222
 30
0.0
 10
104.140000
 20
5.488579
 30
0.0
 10
104.140000
 20
5.644450
 30
0.0
  0
SPLINE
  5
1f1
100
AcDbEntity
  8
0
 62
7
100
AcDbSpline
 70
8
 71
3
 72
8
 73
4
 74
0
 40
0
 40
0
 40
0
 40
0
 40
1
 40
1
 40
1
 40
1
 10
104.140000
 20
5.644450
 30
0.0
 10
104.140000
 20
5.800319
 30
0.0
 10
104.266357
 20
5.926675
 30
0.0
 10
104.422222
 20
5.926675
 30
0.0
  0
SPLINE
  5
1f2
100
AcDbEntity
  8
0
 62
7
100
AcDbSpline
 70
8
 71
3
 72
8
 73
4
 74
0
 40
0
 40
0
 40
0
 40
0
 40
1
 40
1
 40
1
 40
1
 10
104.422222
 20
5.926675
 30
0.0
 10
104.578088
 20
5.926675
 30
0.0
 10
104.704444
 20
5.800319
 30
0.0
 10
104.704444
 20
5.644450
 30
0.0
  0
LWPOLYLINE
  5
1f3
100
AcDbEntity
  8
0
 62
7
100
AcDbPolyline
 90
2
 70
1
 10
22.860000
 20
132.644450
 30
0.0
 10
22.860000
 20
132.644450
 30
0.0
  0
SPLINE
  5
1f4
100
AcDbEntity
  8
0
 62
7
100
AcDbSpline
 70
8
 71
3
 72
8
 73
4
 74
0
 40
0
 40
0
 40
0
 40
0
 40
1
 40
1
 40
1
 40
1
 10
104.704444
 20
132.644450
 30
0.0
 10
104.704444
 20
132.488579
 30
0.0
 10
104.578088
 20
132.362222
 30
0.0
 10
104.422222
 20
132.362222
 30
0.0
  0
SPLINE
  5
1f5
100
AcDbEntity
  8
0
 62
7
100
AcDbSpline
 70
8
 71
3
 72
8
 73
4
 74
0
 40
0
 40
0
 40
0
 40
0
 40
1
 40
1
 40
1
 40
1
 10
104.422222
 20
132.362222
 30
0.0
 10
104.266357
 20
132.362222
 30
0.0
 10
104.140000
 20
132.488579
 30
0.0
 10
104.140000
 20
132.644450
 30
0.0
  0
SPLINE
  5
1f6
100
AcDbEntity
  8
0
 62
7
100
AcDbSpline
 70
8
 71
3
 72
8
 73
4
 74
0
 40
0
 40
0
 40
0
 40
0
 40
1
 40
1
 40
1
 40
1
 10
104.140000
 20
132.644450
 30
0.0
 10
104.140000
 20
132.800319
 30
0.0
 10
104.266357
 20
132.926675
 30
0.0
 10
104.422222
 20
132.926675
 30
0.0
  0
SPLINE
  5
1f7
100
AcDbEntity
  8
0
 62
7
100
AcDbSpline
 70
8
 71
3
 72
8
 73
4
 74
0
 40
0
 40
0
 40
0
 40
0
 40
1
 40
1
 40
1
 40
1
 10
104.422222
 20
132.926675
 30
0.0
 10
104.578088
 20
132.926675
 30
0.0
 10
104.704444
 20
132.800319
 30
0.0
 10
104.704444
 20
132.644450
 30
0.0
  0
LWPOLYLINE
  5
1f8
100
AcDbEntity
  8
0
 62
7
100
AcDbPolyline
 90
2
 70
1
 10
104.704444
 20
5.644450
 30
0.0
 10
104.704444
 20
5.644450
 30
0.0
  0
SPLINE
  5
1f9
100
AcDbEntity
  8
0
 62
7
100
AcDbSpline
 70
8
 71
3
 72
8
 73
4
 74
0
 40
0
 40
0
 40
0
 40
0
 40
1
 40
1
 40
1
 40
1
 10
5.926667
 20
104.422228
 30
0.0
 10
5.926667
 20
104.266357
 30
0.0
 10
5.800311
 20
104.140000
 30
0.0
 10
5.644444
 20
104.140000
 30
0.0
  0
SPLINE
  5
1fa
100
AcDbEntity
  8
0
 62
7
100
AcDbSpline
 70
8
 71
3
 72
8
 73
4
 74
0
 40
0
 40
0
 40
0
 40
0
 40
1
 40
1
 40
1
 40
1
 10
5.644444
 20
104.140000
 30
0.0
 10
5.488577
 20
104.140000
 30
0.0
 10
5.362222
 20
104.266357
 30
0.0
 10
5.362222
 20
104.422228
 30
0.0
  0
SPLINE
  5
1fb
100
AcDbEntity
  8
0
 62
7
100
AcDbSpline
 70
8
 71
3
 72
8
 73
4
 74
0
 40
0
 40
0
 40
0
 40
0
 40
1
 40
1
 40
1
 40
1
 10
5.362222
 20
104.422228
 30
0.0
 10
5.362222
 20
104.578096
 30
0.0
 10
5.488577
 20
104.704453
 30
0.0
 10
5.644444
 20
104.704453
 30
0.0
  0
SPLINE
  5
1fc
100
AcDbEntity
  8
0
 62
7
100
AcDbSpline
 70
8
 71
3
 72
8
 73
4
 74
0
 40
0
 40
0
 40
0
 40
0
 40
1
 40
1
 40
1
 40
1
 10
5.644444
 20
104.704453
 30
0.0
 10
5.800311
 20
104.704453
 30
0.0
 10
5.926667
 20
104.578096
 30
0.0
 10
5.926667
 20
104.422228
 30
0.0
  0
LWPOLYLINE
  5
1fd
100
AcDbEntity
  8
0
 62
7
100
AcDbPolyline
 90
2
 70
1
 10
104.704444
 20
132.644450
 30
0.0
 10
104.704444
 20
132.644450
 30
0.0
  0
SPLINE
  5
1fe
100
AcDbEntity
  8
0
 62
7
100
AcDbSpline
 70
8
 71
3
 72
8
 73
4
 74
0
 40
0
 40
0
 40
0
 40
0
 40
1
 40
1
 40
1
 40
1
 10
5.926667
 20
231.422228
 30
0.0
 10
5.926667
 20
231.266357
 30
0.0
 10
5.800311
 20
231.140000
 30
0.0
 10
5.644444
 20
231.140000
 30
0.0
  0
SPLINE
  5
1ff
100
AcDbEntity
  8
0
 62
7
100
AcDbSpline
 70
8
 71
3
 72
8
 73
4
 74
0
 40
0
 40
0
 40
0
 40
0
 40
1
 40
1
 40
1
 40
1
 10
5.644444
 20
231.140000
 30
0.0
 10
5.488577
 20
231.140000
 30
0.0
 10
5.362222
 20
231.266357
 30
0.0
 10
5.362222
 20
231.422228
 30
0.0
  0
SPLINE
  5
200
100
AcDbEntity
  8
0
 62
7
100
AcDbSpline
 70
8
 71
3
 72
8
 73
4
 74
0
 40
0
 40
0
 40
0
 40
0
 40
1
 40
1
 40
1
 40
1
 10
5.362222
 20
231.422228
 30
0.0
 10
5.362222
 20
231.578096
 30
0.0
 10
5.488577
 20
231.704453
 30
0.0
 10
5.644444
 20
231.704453
 30
0.0
  0
SPLINE
  5
201
100
AcDbEntity
  8
0
 62
7
100
AcDbSpline
 70
8
 71
3
 72
8
 73
4
 74
0
 40
0
 40
0
 40
0
 40
0
 40
1
 40
1
 40
1
 40
1
 10
5.644444
 20
231.704453
 30
0.0
 10
5.800311
 20
231.704453
 30
0.0
 10
5.926667
 20
231.578096
 30
0.0
 10
5.926667
 20
231.422228
 30
0.0
  0
LWPOLYLINE
  5
202
100
AcDbEntity
  8
0
 62
7
100
AcDbPolyline
 90
2
 70
1
 10
5.926667
 20
104.422228
 30
0.0
 10
5.926667
 20
104.422228
 30
0.0
  0
SPLINE
  5
203
100
AcDbEntity
  8
0
 62
7
100
AcDbSpline
 70
8
 71
3
 72
8
 73
4
 74
0
 40
0
 40
0
 40
0
 40
0
 40
1
 40
1
 40
1
 40
1
 10
121.637778
 20
231.422228
 30
0.0
 10
121.637778
 20
231.266357
 30
0.0
 10
121.511421
 20
231.140000
 30
0.0
 10
121.355556
 20
231.140000
 30
0.0
  0
SPLINE
  5
204
100
AcDbEntity
  8
0
 62
7
100
AcDbSpline
 70
8
 71
3
 72
8
 73
4
 74
0
 40
0
 40
0
 40
0
 40
0
 40
1
 40
1
 40
1
 40
1
 10
121.355556
 20
231.140000
 30
0.0
 10
121.199690
 20
231.140000
 30
0.0
 10
121.073333
 20
231.266357
 30
0.0
 10
121.073333
 20
231.422228
 30
0.0
  0
SPLINE
  5
205
100
AcDbEntity
  8
0
 62
7
100
AcDbSpline
 70
8
 71
3
 72
8
 73
4
 74
0
 40
0
 40
0
 40
0
 40
0
 40
1
 40
1
 40
1
 40
1
 10
121.073333
 20
231.422228
 30
0.0
 10
121.073333
 20
231.578096
 30
0.0
 10
121.199690
 20
231.704453
 30
0.0
 10
121.355556
 20
231.704453
 30
0.0
  0
SPLINE
  5
206
100
AcDbEntity
  8
0
 62
7
100
AcDbSpline
 70
8
 71
3
 72
8
 73
4
 74
0
 40
0
 40
0
 40
0
 40
0
 40
1
 40
1
 40
1
 40
1
 10
121.355556
 20
231.704453
 30
0.0
 10
121.511421
 20
231.704453
 30
0.0
 10
121.637778
 20
231.578096
 30
0.0
 10
121.637778
 20
231.422228
 30
0.0
  0
LWPOLYLINE
  5
207
100
AcDbEntity
  8
0
 62
7
100
AcDbPolyline
 90
2
 70
1
 10
5.926667
 20
231.422228
 30
0.0
 10
5.926667
 20
231.422228
 30
0.0
  0
SPLINE
  5
208
100
AcDbEntity
  8
0
 62
7
100
AcDbSpline
 70
8
 71
3
 72
8
 73
4
 74
0
 40
0
 40
0
 40
0
 40
0
 40
1
 40
1
 40
1
 40
1
 10
121.637778
 20
104.422228
 30
0.0
 10
121.637778
 20
104.266357
 30
0.0
 10
121.511421
 20
104.140000
 30
0.0
 10
121.355556
 20
104.140000
 30
0.0
  0
SPLINE
  5
209
100
AcDbEntity
  8
0
 62
7
100
AcDbSpline
 70
8
 71
3
 72
8
 73
4
 74
0
 40
0
 40
0
 40
0
 40
0
 40
1
 40
1
 40
1
 40
1
 10
121.355556
 20
104.140000
 30
0.0
 10
121.199690
 20
104.140000
 30
0.0
 10
121.073333
 20
104.266357
 30
0.0
 10
121.073333
 20
104.422228
 30
0.0
  0
SPLINE
  5
20a
100
AcDbEntity
  8
0
 62
7
100
AcDbSpline
 70
8
 71
3
 72
8
 73
4
 74
0
 40
0
 40
0
 40
0
 40
0
 40
1
 40
1
 40
1
 40
1
 10
121.073333
 20
104.422228
 30
0.0
 10
121.073333
 20
104.578096
 30
0.0
 10
121.199690
 20
104.704453
 30
0.0
 10
121.355556
 20
104.704453
 30
0.0
  0
SPLINE
  5
20b
100
AcDbEntity
  8
0
 62
7
100
AcDbSpline
 70
8
 71
3
 72
8
 73
4
 74
0
 40
0
 40
0
 40
0
 40
0
 40
1
 40
1
 40
1
 40
1
 10
121.355556
 20
104.704453
 30
0.0
 10
121.511421
 20
104.704453
 30
0.0
 10
121.637778
 20
104.578096
 30
0.0
 10
121.637778
 20
104.422228
 30
0.0
  0
LWPOLYLINE
  5
20c
100
AcDbEntity
  8
0
 62
7
100
AcDbPolyline
 90
2
 70
1
 10
121.637778
 20
231.422228
 30
0.0
 10
121.637778
 20
231.422228
 30
0.0
  0
SPLINE
  5
20d
100
AcDbEntity
  8
0
 62
7
100
AcDbSpline
 70
8
 71
3
 72
8
 73
4
 74
0
 40
0
 40
0
 40
0
 40
0
 40
1
 40
1
 40
1
 40
1
 10
5.926667
 20
149.577781
 30
0.0
 10
5.926667
 20
149.421912
 30
0.0
 10
5.800310
 20
149.295556
 30
0.0
 10
5.644444
 20
149.295556
 30
0.0
  0
SPLINE
  5
20e
100
AcDbEntity
  8
0
 62
7
100
AcDbSpline
 70
8
 71
3
 72
8
 73
4
 74
0
 40
0
 40
0
 40
0
 40
0
 40
1
 40
1
 40
1
 40
1
 10
5.644444
 20
149.295556
 30
0.0
 10
5.488576
 20
149.295556
 30
0.0
 10
5.362222
 20
149.421912
 30
0.0
 10
5.362222
 20
149.577781
 30
0.0
  0
SPLINE
  5
20f
100
AcDbEntity
  8
0
 62
7
100
AcDbSpline
 70
8
 71
3
 72
8
 73
4
 74
0
 40
0
 40
0
 40
0
 40
0
 40
1
 40
1
 40
1
 40
1
 10
5.362222
 20
149.577781
 30
0.0
 10
5.362222
 20
149.733652
 30
0.0
 10
5.488576
 20
149.860008
 30
0.0
 10
5.644444
 20
149.860008
 30
0.0
  0
SPLINE
  5
210
100
AcDbEntity
  8
0
 62
7
100
AcDbSpline
 70
8
 71
3
 72
8
 73
4
 74
0
 40
0
 40
0
 40
0
 40
0
 40
1
 40
1
 40
1
 40
1
 10
5.644444
 20
149.860008
 30
0.0
 10
5.800310
 20
149.860008
 30
0.0
 10
5.926667
 20
149.733652
 30
0.0
 10
5.926667
 20
149.577781
 30
0.0
  0
LWPOLYLINE
  5
211
100
AcDbEntity
  8
0
 62
7
100
AcDbPolyline
 90
2
 70
1
 10
121.637778
 20
104.422228
 30
0.0
 10
121.637778
 20
104.422228
 30
0.0
  0
SPLINE
  5
212
100
AcDbEntity
  8
0
 62
7
100
AcDbSpline
 70
8
 71
3
 72
8
 73
4
 74
0
 40
0
 40
0
 40
0
 40
0
 40
1
 40
1
 40
1
 40
1
 10
121.637778
 20
149.577781
 30
0.0
 10
121.637778
 20
149.421912
 30
0.0
 10
121.511421
 20
149.295556
 30
0.0
 10
121.355556
 20
149.295556
 30
0.0
  0
SPLINE
  5
213
100
AcDbEntity
  8
0
 62
7
100
AcDbSpline
 70
8
 71
3
 72
8
 73
4
 74
0
 40
0
 40
0
 40
0
 40
0
 40
1
 40
1
 40
1
 40
1
 10
121.355556
 20
149.295556
 30
0.0
 10
121.199687
 20
149.295556
 30
0.0
 10
121.073333
 20
149.421912
 30
0.0
 10
121.073333
 20
149.577781
 30
0.0
  0
SPLINE
  5
214
100
AcDbEntity
  8
0
 62
7
100
AcDbSpline
 70
8
 71
3
 72
8
 73
4
 74
0
 40
0
 40
0
 40
0
 40
0
 40
1
 40
1
 40
1
 40
1
 10
121.073333
 20
149.577781
 30
0.0
 10
121.073333
 20
149.733652
 30
0.0
 10
121.199687
 20
149.860008
 30
0.0
 10
121.355556
 20
149.860008
 30
0.0
  0
SPLINE
  5
215
100
AcDbEntity
  8
0
 62
7
100
AcDbSpline
 70
8
 71
3
 72
8
 73
4
 74
0
 40
0
 40
0
 40
0
 40
0
 40
1
 40
1
 40
1
 40
1
 10
121.355556
 20
149.860008
 30
0.0
 10
121.511421
 20
149.860008
 30
0.0
 10
121.637778
 20
149.733652
 30
0.0
 10
121.637778
 20
149.577781
 30
0.0
  0
LWPOLYLINE
  5
216
100
AcDbEntity
  8
0
 62
7
100
AcDbPolyline
 90
2
 70
1
 10
5.926667
 20
149.577781
 30
0.0
 10
5.926667
 20
149.577781
 30
0.0
  0
SPLINE
  5
217
100
AcDbEntity
  8
0
 62
7
100
AcDbSpline
 70
8
 71
3
 72
8
 73
4
 74
0
 40
0
 40
0
 40
0
 40
0
 40
1
 40
1
 40
1
 40
1
 10
121.637778
 20
22.577781
 30
0.0
 10
121.637778
 20
22.421912
 30
0.0
 10
121.511421
 20
22.295556
 30
0.0
 10
121.355556
 20
22.295556
 30
0.0
  0
SPLINE
  5
218
100
AcDbEntity
  8
0
 62
7
100
AcDbSpline
 70
8
 71
3
 72
8
 73
4
 74
0
 40
0
 40
0
 40
0
 40
0
 40
1
 40
1
 40
1
 40
1
 10
121.355556
 20
22.295556
 30
0.0
 10
121.199687
 20
22.295556
 30
0.0
 10
121.073333
 20
22.421912
 30
0.0
 10
121.073333
 20
22.577781
 30
0.0
  0
SPLINE
  5
219
100
AcDbEntity
  8
0
 62
7
100
AcDbSpline
 70
8
 71
3
 72
8
 73
4
 74
0
 40
0
 40
0
 40
0
 40
0
 40
1
 40
1
 40
1
 40
1
 10
121.073333
 20
22.577781
 30
0.0
 10
121.073333
 20
22.733652
 30
0.0
 10
121.199687
 20
22.860008
 30
0.0
 10
121.355556
 20
22.860008
 30
0.0
  0
SPLINE
  5
21a
100
AcDbEntity
  8
0
 62
7
100
AcDbSpline
 70
8
 71
3
 72
8
 73
4
 74
0
 40
0
 40
0
 40
0
 40
0
 40
1
 40
1
 40
1
 40
1
 10
121.355556
 20
22.860008
 30
0.0
 10
121.511421
 20
22.860008
 30
0.0
 10
121.637778
 20
22.733652
 30
0.0
 10
121.637778
 20
22.577781
 30
0.0
  0
LWPOLYLINE
  5
21b
100
AcDbEntity
  8
0
 62
7
100
AcDbPolyline
 90
2
 70
1
 10
121.637778
 20
149.577781
 30
0.0
 10
121.637778
 20
149.577781
 30
0.0
  0
LWPOLYLINE
  5
21c
100
AcDbEntity
  8
0
 62
7
100
AcDbPolyline
 90
2
 70
1
 10
121.637778
 20
22.577781
 30
0.0
 10
121.637778
 20
22.577781
 30
0.0
  0
ENDSEC
  0
SECTION
  2
OBJECTS
  0
DICTIONARY
  5
C
330
0
100
AcDbDictionary
  3
ACAD_GROUP
350
D
  3
ACAD_MLINESTYLE
350
17
  0
DICTIONARY
  5
D
330
C
100
AcDbDictionary
  0
DICTIONARY
  5
1A
330
C
100
AcDbDictionary
  0
DICTIONARY
  5
17
330
C
100
AcDbDictionary
  3
STANDARD
350
18
  0
DICTIONARY
  5
19
330
C
100
AcDbDictionary
  0
ENDSEC
  0
EOF
