<?xml version="1.0" encoding="utf-8"?>
<!-- Generator: Adobe Illustrator 18.0.0, SVG Export Plug-In . SVG Version: 6.00 Build 0)  -->
<svg version="1.2" baseProfile="tiny" id="Ebene_1" xmlns="http://www.w3.org/2000/svg" xmlns:xlink="http://www.w3.org/1999/xlink"
	 x="0px" y="0px" width="1133.9px" height="1133.9px" viewBox="0 0 1133.9 1133.9" xml:space="preserve">
<rect width="1133.9" height="1134.3"/>
<path fill="#FFFFFF" d="M1081.6,684.7c-2.2-5.2-88.4-68.3-89.1-75c-0.7-6.7,18.6-44.6,23-55.7c4.5-11.1,5.2-33.4-8.2-61.7
	c-13.4-28.2-34.2-49-41.6-59.4c-7.4-10.4-20.1-45.3-24.5-52c-4.5-6.7-27.5-27.5-74.3-48.3c-46.8-20.8-129.3-28.2-176.8-31.2
	c-47.5-3-141.9,39.4-188.7,54.2c-46.8,14.9-163.4,92.1-179.8,89.9c-16.3-2.2-20.8-21.5-34.2-41.6s-37.1-39.4-41.6-43.8
	c-4.5-4.5,2.2-34.9,0-63.9c-2.2-29-46.1-120.3-48.3-124.1c-2.2-3.7-5.9-5.9-25.3-6.7c-19.3-0.7-29.7,40.1-29.7,40.1
	s-11.9-23.8-14.9-29.7c-3-5.9-6.7-12.6-17.8-12.6s-9.7,43.1-9.7,43.1c0.7,8.9,17.8,57.2,20.8,63.9c3,6.7,18.6,31.9,22.3,39.4
	c3.7,7.4,14.9,19.3,18.6,24.5c3.7,5.2,23,35.7,22.3,40.9c-0.7,5.2-27.5,15.6-29.7,16.3c-2.2,0.7-37.9,24.9-37.9,24.9
	c-6.7,3.7-26,30.8-30.5,36.8c-4.5,5.9-11.1,26.7-12.6,29s-7.4,10.4-10.4,15.6c-3,5.2-26,58.7-24.5,63.9c1.5,5.2,10.4,14.1,13.4,15.1
	c3,1,5.9,15.3,14.9,19.8c8.9,4.5,21.5,2.2,21.5,2.2s4.5,4.5,5.9,5.2c1.5,0.7,17.8,0.7,21.5,0.7s40.9,3,49.8,5.9s53.5,48.3,53.5,48.3
	s-16.3-23.8-8.9-19.3c7.4,4.5,30.5,29.7,34.2,34.9c3.7,5.2,11.9,31.2,11.9,31.2l-2.2-26.7c0,0,11.9,11.9,17.8,16.3
	s19.3,24.5,19.3,24.5s0.7-15.6,0.7-11.9s10.4,22.3,10.4,22.3s-5.9-29-3.7-23s17.8,34.9,17.8,34.9l-10.4-31.2c0,0,17.8,26,26,31.2
	s40.9,15.6,40.9,15.6s-29,42-26,36.4c3-5.6-0.4,13.4-0.4,13.4l24.5,14.5l-24.5-10c0,0-36.8-11.1-39-11.1c-4.5,0-14.9,2.2-23.8,3.7
	c-8.9,1.5-20.1,9.3-23,15.2c-3,5.9-1.1,18.9-1.1,18.9s9.3,7.4,13,10.4c3.7,3,18.7,16.5,28.2,19.7c6.7,2.2,21.2,6.7,44.6,26.7
	c15.6,3.3,81.7,3.3,85.4,3.7c3.7,0.4,7.4-10.1,9.7-10.1s18.6,8.2,24.5,9.7c5.9,1.5,22.3-1.5,31.2-3.7c8.9-2.2,59.4-13.4,64.6-13.4
	c5.2,0,26-6.7,35.7-14.9c9.7-8.2,14.9-26.7,14.9-26.7s16.3-0.7,24.5-3.7s33.4-18.6,33.4-21.5c0-3-12.6-9.7-20.8-14.1
	c-8.2-4.5-23-5.2-23-5.2s5.9-14.1,8.9-23c3-8.9,26-55.7,33.4-68.3c7.4-12.6,52.7-31.2,79.5-31.2s72.8,16.3,91.4,16.3
	s59.4-14.9,59.4-14.9s4.5,8.2,11.9,11.9c5,2.5,18.8,7.9,38.7,16.3c2.5,1.1,5.1,2.2,7.3,5.3c3.1-0.9,5.8,0.3,7.8,10.6
	c3.7-7.8,6.7-6.5,11-3.5c1.7-0.3,4.8,1,7.9,2.5c37.9,17.1,88.4,17.1,103.3,4.5C1100.9,709.3,1083.8,689.9,1081.6,684.7z M500,802.1
	c0,0-20.8,9.7-26,10.4c-5.2,0.7-21.9,2.6-25.3-0.7c-8.2-8.2-35.7-21.5-35.7-21.5s25.3-23.8,43.8-29c18.6-5.2,40.9-10.4,46.1-4.5
	C508.1,762.7,500,802.1,500,802.1z"/>
</svg>
