<?xml version="1.0" encoding="utf-8"?>
<!-- Generator: Adobe Illustrator 18.0.0, SVG Export Plug-In . SVG Version: 6.00 Build 0)  -->
<svg version="1.2" baseProfile="tiny" id="Ebene_1" xmlns="http://www.w3.org/2000/svg" xmlns:xlink="http://www.w3.org/1999/xlink"
	 x="0px" y="0px" width="1133.9px" height="1133.9px" viewBox="0 0 1133.9 1133.9" xml:space="preserve">
<rect width="1133.9" height="1134.3"/>
<path fill="#FFFFFF" d="M859.3,607.3c-3.3-2-11.3-2-16.7-6.7c-5.3-4.7-1.3-18.7-2-24.7c-0.7-6,5.3-36,5.3-40.7s10-26.7,14-37.3
	c4-10.7-0.7-37.3-12-68.7s-46-60-50-63.3c-4-3.3-36-30.7-49.3-35.3c-13.3-4.7-32.7-4.7-44-5.3c-9.5-0.6-34,0-39.3,0
	c-5.3,0-35.3-1.2-46.7-0.7c-15.3,0.7-65.3,24.7-76,27.3c-10.7,2.7-10-2-12.7-3.3c-2.7-1.3,0.2-10.8,2-15.3c5.3-13.3,5.3-45.3,8-52
	c7.1-17.7,14.7-60,17.3-70c2.7-10,18-53.3,18-53.3s15.3-32.7,15.3-44c0-11.3-11.3-33.3-14-35.3c-2.7-2-12,0.7-16,2
	c-4,1.3-22,56-23.3,61.3c-1.3,5.3-3.3,12-3.3,12s-26.7,54-29.3,64.7c-2.7,10.7-8,31.3-8,39.3s0.7,22.7,0.7,22.7s-4.7,2.7-7.3,3.3
	c-2.7,0.7-10.7,8.7-18,9.3c0,0-16-7.3-18-10s-6.7-20.7-6.7-20.7s-0.7-12.7,0-17.3c0.7-4.7-4-22.7-6.7-30.7c-2.7-8-20-48.7-34-67.3
	S374,112.7,374,112.7s-10-10-26.7,0c-11.7,7-17.3,32.7-16,46c0.3,2.7,5.3,12,5.3,12l31.3,58c0,0,40,68.7,47.3,80.7
	c7.3,12,9.3,20,9.3,20s-11.4,5.7-14,6.7c-5.3,2-6,12.7-6,12.7s-3.2,6.5-3.2,11.8c0,5.3,5.5,10.5,5.8,12.8c0.3,2,5.6,16.8,4.9,20.2
	c-0.7,3.3-9.6,20.5-10.2,23.2c-0.7,2.7,2.2,13.8,2.7,16.7c0.3,2.1,2.1,9.2,2.7,14c0.1,1,0.4,2.1,1.3,4.3
	c-25.7,8.6-47.3,37.2-47.3,37.2s22.2-27.3,47.8-35.9c0.5,1.3,1,2.7,1.7,4.2c-10.7,13-45.2,47.5-45.2,47.5s34.3-31.8,46.1-45.3
	C416,469.4,422,482,422,482l2.7,8.7c0,0-2.7,15.3-2,18.7c0.7,3.3,10,29.3,11.3,36.7c1.3,7.3-9.3,26-9.3,34c0,6,8.7,18,10.7,22
	s4.7,38.7,7.3,50.7c2.7,12,21.3,40.7,28.7,51.3c7.3,10.7,28.7,34,34,39.3c5.3,5.3,7.3,35.3,8.7,43.3s9.3,33.3,11.3,46.7
	s5.3,54,5.3,56s10,28,10.7,32.7c0.7,4.7,0,16.7,0.7,21.3s-1.3,12.7-1.3,18s4.7,38,6.7,41.3c2,3.3,8.7,2.7,10.7,5.3
	c2,2.7,15.3,12,15.3,12s10.7-8.7,12.7-11.3c2-2.7,5.3-22,6.7-38c1.3-16-2.7-28.7-5.3-34.7c-2.7-6-2-27.3-4.7-32.7
	c-2.7-5.3-15.3-23.3-17.3-28s-2-14-3.3-22s-7.3-66.7-8-79.3c-0.7-12.7-2.7-46.7-2.7-46.7s1.3-8.7,5.3-9.3c4-0.7,10,0.7,10,0.7
	S551.3,706,553.3,704s26.7-3.3,30,5.3c3.3,8.7,3.3,21.3,3.3,21.3s2.7-19.3,8-18.7c5.3,0.7,20.7,0.7,20.7,0.7s7.3,52.7,9.3,70.7
	s5.3,51.3,3.3,60.7c-2,9.3-8,22.7-8,27.3s7.3,18,8.7,20.7c1.3,2.7,5.3,20.7,6,25.3c0.7,4.7,7.3,25.3,8.7,28.7c1.3,3.3,20,9.3,20,9.3
	l17.3,11.3c0,0,16.7-25.3,14.7-38c-2-12.7-4-43.3-12.7-48c-8.7-4.7-14.7-21.3-18-28.7c-3.3-7.3-6-21.3-7.3-28c-1.3-6.7-4-28-4-28
	l4,12c0,0,4,12.7,4,16c0,3.3,20.7,40.7,22.7,43.3s17.3,19.3,17.3,19.3s12-10,15.3-15.3c3.3-5.3,1.3-18.7,1.3-20.7s2.7-7.3,5.3-9.3
	c2.7-2,8-30,7.3-40c-0.7-10-6.7-34-10-48c-3.3-14,3.3-26,4.7-29.3c1.3-3.3-2-50-2.7-58c-0.7-8-6-44-6-44s8.7,17.3,11.3,21.3
	s13.3,14,24,18s34.7-4.7,38-5.3c3.3-0.7,11.3,0.7,13.3,2.7s-5.3,24-6.7,28c-1.3,4-10.7,32-14.7,42s-16,31.3-18.7,36
	c-2.7,4.7-4,24-4.7,37.3c-0.7,13.3,2.7,52.7,4,60.7c1.3,8,10,16,10.7,18.7c0.7,2.7,7.3-6.7,10-8c2.7-1.3,7.3,2,11.3-0.7
	c4-2.7,16.7-28,17.3-33.3s8.7-31.3,10-36.7c1.3-5.3,8.7-22.7,11.3-28c2.7-5.3,2.7-28,2.7-28s13.3-41.3,17.3-54.7
	c4-13.3,12.7-18.7,13.3-27.3c0.7-8.7,0.7-34,0.7-38.7C867.3,621.3,862.7,609.3,859.3,607.3z"/>
</svg>
