<?xml version="1.0" encoding="utf-8"?>
<!-- Generator: Adobe Illustrator 18.0.0, SVG Export Plug-In . SVG Version: 6.00 Build 0)  -->
<svg version="1.2" baseProfile="tiny" xmlns="http://www.w3.org/2000/svg" xmlns:xlink="http://www.w3.org/1999/xlink" x="0px"
	 y="0px" width="1133.9px" height="1133.9px" viewBox="0 0 1133.9 1133.9" xml:space="preserve">
<g id="Ebene_1">
</g>
<g id="Ebene_2">
	<g>
		<path d="M397.6,654.8l-8.6,5.5l-1.6-7c0,0-39,32-39.8,44.5c-0.3,5.4,7.8,14.8,14,14.8c6.2,0,25-0.8,28.1-2.3
			c3.1-1.6,17.2-35.9,19.5-39.8C411.7,666.5,397.6,654.8,397.6,654.8z"/>
		<path d="M0,0v1133.9h1133.9V0H0z M1023.9,551c-0.3,1.8-0.7,2-1.2,2.3c-0.5,2-1-8-1.6,2.5c-0.6-6.2-1.2,5.4-1.9,2.6
			c-0.7,10.5-1.4,2-2.2,2.7c-0.8-7.5-1.6,1.5-2.4,2.7c-0.8,10.7-1.7-8.3-2.5,2.6c-0.9,8.2-1.7,8.6-2.6,2.4c-0.9,0.6-1.7,4.7-2.6,2.1
			c-1.7-2.5-3.4,1.4-5,2.9c-3.9,2.6-8.4,2.3-12.2,2.5c-3.8,0.2-6.9-0.2-8.1-1c-2.3-1.6-5.5,10.1-8.6,10.1c-3.1,0-21.1-3.9-27.3,1.6
			c-6.2,5.5-13.3,0-13.3,0s-41.3,63.2-53,74.1s-39.8,54.6-52.3,66.3c0,0-28.9,28.9-49.9,35.1c-21.1,6.2-76.4,1.6-85,4.7
			c-8.6,3.1-45.2,14-46,17.2c-0.8,3.1,0.8,26.5-2.3,31.2c-3.1,4.7-11.7,6.2-11.7,6.2s25,14.8,25,19.5c0,4.7,6.2,10.9,6.2,10.9
			l-7,2.3l0.8,3.9l-5.5,4.7l-7.8,2.3v8.6c0,0-7.8,4.7-10.1,3.9c-2.3-0.8-40.6-4.7-44.5-6.2s-10.1-5.5-10.1-5.5s-23.4,25.7-26.5,31.2
			c-3.1,5.5-17.2,28.9-20.3,31.2c-3.1,2.3-15.6,15.6-23.4,15.6c-7.8,0-23.4-7-26.5-10.9c-3.1-3.9-9.4-20.3-8.6-24.2
			c0.8-3.9,3.1-14.8,5.5-17.2c2.3-2.3,8.6,0.8,10.9-1.6c2.3-2.3,30.4-45.2,30.4-45.2s-34.3-14-39.8-15.6c-5.5-1.6-10.9-10.9-14-10.9
			c-3.1,0-27.3,0-41.3-3.9c-14-3.9-28.1-16.4-30.4-18.7c-2.3-2.3-4.7-11.7-4.7-11.7s-36.7,1.6-55.4-4.7
			c-18.7-6.2-48.4-25.7-56.2-31.2c-7.8-5.5-7.8-11.7-10.9-14c-3.1-2.3-17.9-7.8-18.7-11.7c-0.8-3.9,16.4-32.8,21.8-40.6
			c5.5-7.8,24.2-27.3,26.5-30.4c2.3-3.1,3.1-9.4-0.8-12.5c-3.9-3.1-21.1-0.8-24.2-1.6c-3.1-0.8-16.4-12.5-26.5-10.1
			c-10.1,2.3-12.5,3.9-12.5,3.9s-21.1,19.5-28.1,21.8c-7,2.3-41.3,3.1-49.1-0.8c-7.8-3.9-25.7-27.3-27.3-29.6
			c-0.8-1.2-2.9-2.7-5-2.5c-1.9-4.7-3.6-7.6-8.4,0.8c2.5-7.9,4.2-12.4,3.4-12.3c-2.5,3.3-5.5,7.4-9.1,12.3
			c5.7-8.3,8.3-12.2,9.1-12.3c9.1-12.1,12.8-15.4,21.1-23.2c-2.1,0.9-2.7-1-2.3-5.3c-3.7,1.7-5.9-0.4-7.3-3.7
			c-1.7-0.6-2.6-2.4-1.5-3.7c3.1-3.9,16.4-11.7,21.1-10.9c4.7,0.8,17.9,0,19.5-3.9c1.6-3.9-2.3-16.4-2.3-18.7
			c0-2.3,3.9-44.5,7.8-67.9c3.9-23.4,25.7-45.2,30.4-51.5c4.7-6.2,46-55.4,52.3-58.5s49.1-29.6,66.3-32.8
			c17.2-3.1,49.1-10.9,78-12.5c28.9-1.6,79.6-3.1,97.5-2.3c17.9,0.8,88.9,15.6,109.2,21.8s76.4,26.5,89.7,33.5
			c13.3,7,75.7,53.8,85.8,51.5c10.1-2.3,22.6-21.1,26.5-27.3c3.9-6.2,21.1-41.3,24.2-46c3.1-4.7,14-14.8,15.6-21.8
			c1.6-7,3.9-44.5,7-55.4c3.1-10.9,36.7-73.3,40.6-77.2c0,0,10.1-3.9,13.3-3.1c3.1,0.8,16.4,10.9,18.7,17.2
			c2.3,6.2,2.3,14.8,3.9,18.7c0,0,1.6-26.5,20.3-25.7c18.7,0.8,15.6,14,15.6,21.8s8.6,24.2,5.5,42.1c-3.1,17.9-27.3,67.9-29.6,74.9
			c-2.3,7-2.3,11.7,0,15.6c2.3,3.9,18.7,21.1,32,34.3c13.3,13.3,17.9,27.3,17.9,33.5s-4.7,17.2-3.1,23.4
			c1.6,6.2,21.1,52.3,22.6,56.2c1.6,3.9,5.5,10.1,7,14.8c0.5,1.6,1.2,5.1,1.8,9.4c0.6,3.9,1,6.9,1.1,13.9
			C1025.3,543.9,1025,547.3,1023.9,551z"/>
		<path d="M142.3,584.4c-0.7,0.6-1.4,1-1.9,1.3C135,591.2,137.2,589.4,142.3,584.4z"/>
		<path d="M546.6,690.6c0,0-17.9,1.6-32,1.6c-14,0-41.3-3.1-41.3-3.1L460,717.2c0,0,5.5,2.3,8.6,3.9c3.1,1.6,5.5,6.2,7.8,8.6
			c2.3,2.3,10.9,3.1,13.3,5.5c2.3,2.3,15.6,10.1,18.7,11.7c3.1,1.6,16.4,12.5,16.4,12.5s22.6-2.3,27.3-2.3c4.7,0,35.9-14,36.7-18.7
			s-16.4-39.8-16.4-39.8L546.6,690.6z"/>
	</g>
</g>
</svg>
