<?xml version="1.0" encoding="utf-8"?>
<!-- Generator: Adobe Illustrator 18.0.0, SVG Export Plug-In . SVG Version: 6.00 Build 0)  -->
<svg version="1.2" baseProfile="tiny" id="Ebene_1" xmlns="http://www.w3.org/2000/svg" xmlns:xlink="http://www.w3.org/1999/xlink"
	 x="0px" y="0px" width="1133.9px" height="1133.9px" viewBox="0 0 1133.9 1133.9" xml:space="preserve">
<rect width="1133.9" height="1133.9"/>
<path fill="#FFFFFF" d="M1027.6,548.8c-0.6-6.7-1.3-9.5-2.2-13.3c-0.9-4.1-1.9-7.4-2.5-8.9c-1.9-4.4-6.1-10-8-13.7
	c-1.8-3.6-20-29.1-25.2-47.7c-3.3-11.8-2.1-29.6-4.5-35.1c-2.8-6.6-1.7-11.2-15.5-22.8c-13.8-11.7-31-26.8-33.5-30.4
	c-2.6-3.6-2.9-8.1-1.3-15c1.7-6.9,13.1-50.6,14.6-68.1c1.5-17.5,23.5-52.2,22.9-59.7c-0.6-7.5,0-31.7-16.8-19.7
	c-14.7,10.5-41.2,39.7-41.2,39.7c-1.8-3.6-3.5-28.9-6.3-34.7c-2.8-5.8-10.5-23.2-13.5-23.7c-3.1-0.5-12.5,4.1-12.5,4.1
	c-3.4,4.1-29.9,45-41.7,86.2c-9,31.6,2.1,80,1.1,86.9c-0.9,6.9-12,8.2-21.4,16.9c-9.5,8.7-16.9,24.8-32.7,35
	c-13.5,8.7-23.2,3.7-32.7,6.8c-9.6,3.1-65.4-26-78.2-32.7s-67-26.3-86.5-32.3c-19.6-6-88-20.3-105.3-21.1c-17.3-0.8-66.2,0.8-94,2.3
	c-27.8,1.5-58.7,9-75.2,12c-16.6,3-57.9,28.6-63.9,31.6c-0.8,0.4-2.3,1.7-4.2,3.5c-12.4,5.7-24.2,11.2-27.7,13.3
	c-5.6,3.3,5.3-2.6,22.5-7.9c-13.9,14.8-37.6,43-41,47.5c-4.5,6-25.6,27.1-29.3,49.7c-3.8,22.6-7.5,63.2-7.5,65.4s-1.5,11.7-3,15.4
	c0,0-36.1,16.9-50.8,37.2s10.2,38.4,24.8,41.8c8.2,1.9,42.3,9.6,51.9,9c9.6-0.6,21.9-5,27.1-9c7.9-6.2,24.8-12.4,24.8-12.4
	s23.7,12,26.7,12.8c3,0.8,19.6-1.5,23.3,1.5c3.8,3,3,9,0.8,12c-2.3,3-22.1,34.2-30.5,38c-6.9,3.1-18.4,18.1-13.5,30.5
	s30.5,23.7,19.2,15.8c-11.3-7.9,46.3,29.7,64.3,35.7c6.7,2.2,10.5,3.1,19.2,3.8c-1.3,2.2-8,15.9-6.8,18.1
	c3.4,5.6,23.7,14.7,39.5,14.7c15.8,0,59.8,6.8,65.4,9c4.3,1.7,32.3,11.4,45.3,15.8c7.2,2.9,13,5.3,13,5.3s-25.6,18.4-27.8,20.7
	c-2.3,2.3-14.3,3-16.6,5.3s-9.8,13.5-10.5,17.3c-0.8,3.8,2.6,18.8,5.6,22.6s8.3,14.7,15.8,14.7c7.5,0,29.7-6.8,32.7-9
	c3-2.3,28.2-29.9,32.7-33.9c9-7.9,24.4-17.3,24.4-17.3s6,3.8,9.8,5.3c3.8,1.5,29.3,5.3,31.6,6c2.3,0.8,9.8-3.8,9.8-3.8l11.3-8.3
	l7.5-2.3l5.3-4.5l-0.8-3.8l2.6-4.1c0,0-1.9-4.1-1.9-8.7S616,837.8,616,837.8s8.3-11.3,11.3-15.8c3-4.5-1.9-19.9-1.1-22.9
	c0.8-3,36.1-13.5,44.4-16.6c8.3-3,79.7-6.4,100.1-12.4c20.3-6,54.2-39.5,54.2-39.5c12-11.3,15-39.9,26.3-50.4
	c4.9-4.6,2.4-41.5,19.9-44.4c13.5-2.3,71.4-34.5,71.4-34.5s5.8-3.3,13-5.1c7.8-1.9,17.1-0.5,21.3-2.4c3.7-1.6,9.6-9.1,12-7.8
	c1.2,0.7,4.2,0.8,7.9,0.3c3.6-0.5,8-0.6,11.5-3.4c1.4-1.5,2.7-5.4,4.5-3.2c1,2.5,1.5-1.5,2.3-2.2c1.3,5.9,2.1,5.5,2.3-2.5
	c-0.1-10.5,2.3,7.7,2.2-2.7c0.7-1.2,0.7-9.9,2.1-2.8c0.7-0.7,2.1,7.3,1.9-2.8c0.9,2.6,0.5-8.7,1.6-2.7c-0.3-10.1,1-0.5,1.3-2.5
	c0.4-0.3,0.8-0.5,0.9-2.3C1027.9,555.8,1028,552.5,1027.6,548.8z M397.5,689.2c-2.3,3.8-23.7,44.8-26.7,46.3
	c-3,1.5-21.1,2.3-27.1,2.3c-6,0-13.9-9-13.5-14.3c0.8-12,46.3-50.8,46.3-50.8l1.5,6.8l8.3-5.3C386.2,674.2,399.7,685.5,397.5,689.2z
	 M570.5,754.7c-0.8,4.5-30.8,18.1-35.4,18.1c-4.5,0-34.2,10.2-34.2,10.2s-12.8-10.5-15.8-12c-3-1.5-15.8-9-18.1-11.3
	c-2.3-2.3-10.5-3-12.8-5.3c-2.3-2.3-4.5-6.8-7.5-8.3c-3-1.5-8.3-3.8-8.3-3.8l20.7-35c0,0,26.3,3,39.9,3s30.8-1.5,30.8-1.5l24.8,7.5
	C554.7,716.3,571.3,750.2,570.5,754.7z"/>
</svg>
