<?xml version="1.0" encoding="utf-8"?>
<!-- Generator: Adobe Illustrator 18.0.0, SVG Export Plug-In . SVG Version: 6.00 Build 0)  -->
<svg version="1.2" baseProfile="tiny" xmlns="http://www.w3.org/2000/svg" xmlns:xlink="http://www.w3.org/1999/xlink" x="0px"
	 y="0px" width="1133.9px" height="1133.9px" viewBox="0 0 1133.9 1133.9" xml:space="preserve">
<g id="Ebene_1">
	<g>
		<path d="M287.1,870.5c4.5-7.8,11.2-62.5,11.2-62.5l-40.2,72.5C258.1,880.5,282.7,878.3,287.1,870.5z"/>
		<path d="M0,0v1133.9h1133.9V0H0z M1094.2,721c-2.8,16.7-10.6,27.1-10.6,27.1c-1.1,1.5-7.1-0.4-7.1-0.4s5.2,4.1,3,6.7
			c-2.2,2.6-4.1,5.9-5.9,5.6s-11.5-4.5-14.9-6.7s-11.5-18.2-12.6-19c-1.1-0.7-9.7-3.3-10-4.1c-0.4-0.7-29-59.5-32-64.3
			c-3-4.8-17.8-50.2-25.7-59.1c-7.8-8.9-20.5-21.6-27.9-24.9c-7.4-3.3-19-6.7-25.3-7.1c-6.3-0.4-13.8,0-13.8,0s4.8,9.7,6.7,12.3
			c1.9,2.6,4.1,10,5.2,11.9c1.1,1.9,5.9,7.4,7.4,9.3c1.5,1.9,5.9,10,5.9,10l3.7,1.5c0,0,12.6,26.4,23.2,45.4
			c10.6,19,11.2,31.8,12.8,39c1.7,7.3,0.7,9.7,0.7,9.7v9.3c0,0,3,4.1,3,6.3s-0.7,9.3-0.7,9.3l-1.1,8.9l-1.9,10.4l-4.5,5.6l-3.7,4.8
			h-4.1l0.7,3l-3,3.7l-3.3,1.9l-1.1,2.2l-1.9,3.3l-5.2-3.3l-1.5,3c0,0-3.7,1.1-5.2,0.4s-5.9-4.8-7.1-8.2
			c-1.1-3.3-17.5-46.9-20.5-52.8c-3-5.9-13.8-30.1-16-33.8c-2.2-3.7-5.6-10.4-8.2-15.2c-2.6-4.8-13.4-28.3-14.9-32.4
			c-1.5-4.1-14.1-25.3-17.8-29c-3.7-3.7-17.8-18.2-26.4-22.7c-8.6-4.5-19.7-7.8-19.7-7.8s-25.3,1.5-30.1,0.7c-4.8-0.7-10-6.3-10-6.3
			s-27.5-3-31.6-3.3c-4.1-0.4-10.4-3.3-21.2-4.5c-10.8-1.1-27.1-0.7-30.9-1.9c-3.7-1.1-16.4-7.8-16.4-7.8l-3-1.5l-5.9-4.5
			c0,0-19,7.8-35.5,14.9c-3.3,1.4-6.5,2.8-9.4,4.2c-3,1.3-5.7,2.5-6,5.7c-2.2-2-2.9-1.6-1.9,1.4c-2.6-2.1-3.6-1.5-3.3,1.8
			c-2.4-1.2-3.9-0.9-4.4,0.1c0.2,0.1,0.6,0.6,1.1,1.3c0.7,0,1.8,1,2.9,2.1c2.2,2,4.5,4.1,4.5,4.1s-3.3-1.7-6.7-3.3
			c-1.7-0.8-3.3-1.7-4.5-2c-1.1-0.7-1.7-0.9-1.2-0.1c-0.5-0.8-1.2-0.8-1.8-0.2c-0.6,0.2-1.1,1.1-1.4,2.4c-3.1-1-5-0.1-4.9,2.3
			c-1.5-1.7-1,0-0.4,1.5c0.7,1.6,1.6,3.1,1.6,3.1s-1.5-1.2-3.2-2.3c-1.8-1.1-3.8-2-5-1.1c-2.8,1.1-5.9,2.6-8.9,4.2
			c-21.6,10.8-46.9,23.6-52.4,26.4c-10,5.2-60.2,26-68.4,31.2c0,0-35.7,18.6-43.1,24.9s-33.1,28.6-34.2,29.7
			c-1.1,1.1-11.9,10.8-11.9,10.8s-4.1,20.8-5.9,26.8c-1.9,5.9-11.5,40.9-13.8,48.7c-2.2,7.8-7.4,26.8-7.8,31.2
			c-0.4,4.5-0.4,14.5-0.7,19c-0.4,4.5-2.2,21.9-2.2,23.4c0,1.5-1.1,8.6-0.4,10.8c0.7,2.2,4.1,7.4,1.9,10c0,0-7.4,4.5-20.5,7.4
			s-29.4,5.9-33.5,7.1c-4.1,1.1-13,1.5-15.2,2.2s-10.4,3.3-11.9,3c-1.5-0.4-4.1-1.1-4.1-1.1s-7.4,3.7-11.2,4.5
			c-3.7,0.7-7.1-0.7-9.3,0c-2.2,0.7-16,4.8-18.6,5.2c-2.6,0.4-9.3,0-9.3,0s-7.1,3.3-10.8,3.3s-13.8,1.9-14.9,1.9
			c-1.1,0-10.4,2.6-11.9,2.2c-1.5-0.4-13.8,0.7-16.4,0.7c-2.6,0-9.7,2.2-14.1,2.2s-7.8-1.5-7.8-1.5l-1.5-3.3l-4.5,1.5l-2.6-1.9
			l7.4-4.8h-5.2c0,0,5.6-4.1,8.2-6.3c2.6-2.2,8.2-8.2,12.6-11.5c4.5-3.3,8.9-5.9,11.5-6.3c2.6-0.4,19,0.4,22.3,0s14.5-3,17.8-3.7
			c3.3-0.7,8.6-1.1,9.7-2.2c1.1-1.1,14.9-19,16.4-23.1c1.5-4.1,32.4-51.3,35.3-56.5c3-5.2,18.6-32.7,19.3-36.1
			c0.7-3.3,4.8-14.5,6.3-20.8c1.5-6.3,2.2-18.6,2.2-18.6l-4.1-10.4c0,0-40.2-28.3-43.5-32.7s-24.9-17.1-28.6-25.3
			c-3.7-8.2-12.6-42.8-15.2-48.3c-2.6-5.6-8.9-19-12.6-26c-3.7-7.1-16-19.3-16-19.3l-17.1-14.1c0,0-6.7,0-8.2-1.5
			c-1.5-1.5-3-4.5-3.7-5.6c-0.7-1.1-4.1-3.7-4.1-3.7l-2.2-3c0,0-12.4-2.5-17.1-7.8c-2.6-3-1.5-4.8-1.9-7.8c0,0-1.1-3.7-1.9-5.2
			c-0.7-1.5-2.6-7.1-3.3-8.6c-0.7-1.5-3.3-3.3-3.3-4.8c0-1.3,3.4-7,5.1-10.2h-0.1l-10.3-6.1l10.7,5.5c0-0.1,0.1-0.2,0.1-0.3
			c0.2-0.5,0.5-1.2,0.7-1.9L90,476.4l16.4,13.7c1.1-3.8,2.3-9.1,3.4-10.8c1.5-2.2,5.2-10,7.1-18.6c1.9-8.6,3-12.3,3-16
			c0-3.7-4.8-27.1-3.3-32c0,0,8.2-17.8,11.5-22.7c3.3-4.8,12.3-13.8,12.3-13.8s-16-12.6-19-14.9c-3-2.2-5.9-10.8-10.8-14.1
			c-4.8-3.3-16.4-14.1-21.2-18.2c-4.8-4.1-8.9-11.5-13.8-16.4s-12.6-15.6-14.9-18.2c-2.2-2.6-5.6-7.1-6.7-8.6
			c-1.1-1.5-4.8-6.3-5.9-7.8c-1.1-1.5-4.5-10.8-5.9-11.5c-1.5-0.7-5.2-1.5-5.2-1.5s4.8-8.6,11.2-8.2c6.3,0.4,14.5,1.1,17.8,2.2
			c3.3,1.1,10.4,5.6,17.1,7.8s41.6,16.4,47.2,20.1c5.6,3.7,14.9,10,20.1,15.2c5.2,5.2,12.6,12.6,12.6,12.6s-3.7-22.7-4.1-29.7
			c-0.4-7.1-1.5-25.3-0.4-30.9c1.1-5.6,10.8-26.8,14.5-30.1c3.7-3.3,13.4-11.9,18.6-12.6c5.2-0.7,8.2-2.2,10.4-1.5
			c0,0,0.4,2.6,1.5,5.2c1.1,2.6,6.7,7.8,8.9,13c2.2,5.2,3.3,12.6,4.5,14.5c1.1,1.9,14.5,27.1,17.1,34.6c2.6,7.4,3,18.2,2.6,22.3
			c-0.4,4.1-1.9,13.4-1.5,16.4c0.4,3,6.7,24.9,6.3,29.4s-1.5,11.2-1.5,11.2l7.4-8.9l-2.2,6.3l5.9-4.8l-7.1,9.7l9.3-4.1l-2.6,3
			l-1.9,2.6c0,0,5.9,9.3,14.1,12.6c0,0,8.2,4.8,9.7,6.3c1.5,1.5,4.5,4.5,4.5,4.5s8.6-1.9,11.5-1.5c3,0.4,12.3,4.1,12.3,4.1
			s27.5-11.9,33.5-13c5.9-1.1,13.4-0.7,15.2-1.5s14.9-5.6,17.5-5.9c2.6-0.4,9.3-1.9,9.3-1.9s73.3-28.6,82.9-32.4
			s43.9-19.7,51.3-22.3c7.4-2.6,15.6-3.7,24.2-6.7c8.6-3,47.2-19.3,54.3-21.2c7.1-1.9,17.5-4.8,26.4-5.6c8.9-0.7,27.5-3.7,34.6-3.7
			s37.6-0.7,43.9,0.7c6.3,1.5,35.7,5.2,50.9,9.3c15.2,4.1,39.8,17.8,39.8,17.8c3.3,2.2,21.6,13.8,27.5,20.8
			c5.9,7.1,7.8,24.9,14.1,36.8s23.8,32,26,38.3c2.2,6.3,3.3,16.7,4.5,18.6c1.1,1.9,8.2,27.5,9.3,27.9c1.1,0.4,0,9.3,0.4,10.8
			c0.4,1.5,9.3,24.2,16,32c6.7,7.8,12.6,26.8,21.2,30.1c8.6,3.3,23.4,6.7,25.3,5.9c1.9-0.7,7.4-4.1,9.3-3.7
			c1.9,0.4,12.3,2.2,14.1,2.2c1.9,0,13-5.2,17.5-5.2c4.5,0,21.9,3.3,27.5,7.1c5.6,3.7,19.7,22.3,25.7,32.7
			c5.9,10.4,9.7,20.1,14.1,26.8c4.5,6.7,7.1,15.6,9.3,19l12.1,19.3c0,0,10.6,19.5,15.1,26.2c4.5,6.7,9.5,20.6,12.3,29
			c2.8,8.4,1.1,10,1.1,13.9c0,3.9-1.1,7.8-1.1,7.8S1097,704.2,1094.2,721z"/>
	</g>
</g>
<g id="Ebene_2">
</g>
</svg>
