<?xml version="1.0" encoding="utf-8"?>
<!-- Generator: Adobe Illustrator 18.0.0, SVG Export Plug-In . SVG Version: 6.00 Build 0)  -->
<svg version="1.2" baseProfile="tiny" xmlns="http://www.w3.org/2000/svg" xmlns:xlink="http://www.w3.org/1999/xlink" x="0px"
	 y="0px" width="1133.9px" height="1133.9px" viewBox="0 0 1133.9 1133.9" xml:space="preserve">
<g id="Ebene_1">
	<path d="M0,0v1133.9h1133.9V0H0z M1094.1,586.8c-2.3,0-6.8,0-6.8,0l2.3,5.3l-8.3-1.5v8.3l-18.2,1.5l-6.1,8.3c0,0,2.3,25,0.8,37.1
		c-1.5,12.1-9.8,25.8-12.9,25.8s-19.7-8.3-22.7-12.9c-3-4.5-12.9-18.9-12.9-18.9s-3.8-25-7.6-27.3c-3.8-2.3-13.6-6.8-13.6-6.8
		s-65.9,37.1-77.3,41.7s-32.6,15.9-49.2,20.5c-16.7,4.5-93.2,15.1-103,18.2c-9.8,3-75.7,22-86.4,25s-69.7,2.3-94.7,2.3
		s-90.1,6.1-102.3,4.5c-12.1-1.5-25-9.1-28.8-6.1c-3.8,3-21.2,16.7-25.8,16.7s-28-4.5-38.6,3c-10.6,7.6-39.4,39.4-47.7,47.7
		s-19.7,18.2-25.8,20.5c-6.1,2.3-15.9-0.8-15.9-0.8s-28.8,15.1-36.4,17.4c-7.6,2.3-23.5,4.5-30.3,6.8c-6.8,2.3-29.5,13.6-29.5,13.6
		s-3,20.5-4.5,24.2c-1.5,3.8-20.5,41.7-20.5,41.7s-20.5,0.8-23.5-2.3s-8.3-13.6-7.6-15.9c0.8-2.3,3-8.3,3-8.3s-25,23.5-28.8,32.6
		c-3.8,9.1-7.6,30.3-9.1,32.6c-1.5,2.3-11.4,25.8-12.9,29.5c-1.5,3.8-8.3,13.6-19.7,14.4c-11.4,0.8-25-4.5-28-11.4
		c-3-6.8-3-21.2-1.5-25c1.5-3.8,5.3-9.8,5.3-9.8s-15.9-1.5-17.4-9.8c-1.5-8.3,0-26.5,3.8-28c3.8-1.5,15.1-6.1,17.4-11.4
		s12.1-37.9,20.5-42.4c8.3-4.5,39.4-22.7,45.4-28c6.1-5.3,26.5-27.3,27.3-34.8c0.8-7.6,5.3-28.8,11.4-31.8c6.1-3,10.6-1.5,17.4-4.5
		c6.8-3,28-26.5,28-26.5s18.2-19.7,21.2-34.8c2.9-14.3-0.4-115.1,24.8-153.1c1.5-2.2,3.1-4.2,3.8-5.8c1.6-1,2.3-1.7,0.2-1.9
		c3.5-1.2,4.2-1.9-0.8-2.1c6.3-1.2,7-1.9-0.2-2.7c8.5-0.6,9.2-1.3,1.5-3c9.7-0.3,11-1.6,4.2-3.3c6.7,0.4,8.4-0.3,6.7-1.8
		c-0.5,0.2-2.4,0.1-5.5,0.1c4.3-0.8,7-1.6,8.2-2.4c1.5-0.5,1.6-1.2,0.1-1.8c-1.5-0.6-4.4-1.3-9.1-2.1c15.1,1,15,0.7-0.1-0.1
		c16.2-0.4,18.2-1.9,15-7.2c5,2.8,4.7,1.9,1.6-0.6c-0.9,1.1-4.6,0.6-10.7-0.1c5.8-0.4,10.1-1.1,13.3-1.8c3.2-0.6,5.2-1.3,6.2-2
		c2-1.4,0-3-5.3-5.1c15,0.7,17.2-1,13.7-5c7.7,0.7,9.8-0.9,11.3-3.1c2.6-0.7,4.6-2.1,6.6-3.4c5.9-4,11.4-7.2,16.5-9.9
		c40.1-21.2,103-12.9,155.3-9.1c0,0,29.5-1.5,45.4-5.3c15.9-3.8,110.6-47,134.1-56.8c23.5-9.8,103-57.6,125-58.3
		c22-0.8,42.4,9.8,42.4,9.8s11.4-14.4,10.6-24.2c-0.8-9.8-6.8-34.8-9.8-47.7s-10.6-19.7-11.4-32.6c-0.8-12.9,8.3-66.7,9.1-70.4
		c0.8-3.8,4.5-6.8,4.5-6.8c3-3,13.6-4.5,15.9-3.8s18.2,9.1,22.7,12.9c4.5,3.8,12.1,10.6,12.1,10.6s18.9-31.8,22.7-35.6
		c3.8-3.8,10.6-4.5,10.6-4.5s15.1,6.8,18.2,8.3c3,1.5,19.7,20.5,22,25c2.3,4.5,3.8,58.3,3,62.9c-0.8,4.5-6.8,14.4-6.8,16.7
		s-2.3,28-6.1,34.8c-3.8,6.8-8.3,11.4-6.8,14.4c1.5,3,5.3,8.3,9.1,10.6c3.8,2.3,34.1,19.7,37.9,24.2c3.8,4.5,7.6,24.2,9.1,27.3
		c1.5,3,3,15.1,6.1,18.9s12.1,10.6,14.4,12.1c2.3,1.5,12.9,18.9,15.1,24.2c2.3,5.3,4.5,26.5,2.3,30.3c-2.3,3.8-4.5,14.4-7.6,13.6
		c-3-0.8-11.4-1.5-11.4-1.5s-0.8,6.1-4.5,6.1c-3.8,0-12.9,9.1-15.9,9.1s-25.8-4.5-30.3-2.3c-4.5,2.3-22,22-26.5,28.8
		c-4.5,6.8-10.6,21.2-10.6,24.2s-0.8,14.4-0.8,14.4s50.8-11.4,64.4-9.8c13.6,1.5,23.5,4.5,23.5,4.5s24.2-12.1,42.4-6.8
		c18.2,5.3,48.5,31.8,48.5,31.8l-5.3,3.8l6.1,4.5C1104.7,577,1096.4,586.8,1094.1,586.8z"/>
</g>
<g id="Ebene_2">
</g>
</svg>
