<?xml version="1.0" encoding="utf-8"?>
<!-- Generator: Adobe Illustrator 18.0.0, SVG Export Plug-In . SVG Version: 6.00 Build 0)  -->
<svg version="1.2" baseProfile="tiny" xmlns="http://www.w3.org/2000/svg" xmlns:xlink="http://www.w3.org/1999/xlink" x="0px"
	 y="0px" width="1133.9px" height="1133.9px" viewBox="0 0 1133.9 1133.9" xml:space="preserve">
<g id="Ebene_1">
	<path d="M0,0v1133.9h1133.9V0H0z M939.7,769.8c-8.2,17.8-19.2,28.8-23.3,31.5c-4.1,2.7-24.7,8.2-24.7,8.2s6.8,12.3,4.1,17.8
		c-2.7,5.5-49.3,8.2-60.3,13.7c-11,5.5-31.5,19.2-38.4,19.2s-26,9.6-27.4,5.5c-1.4-4.1-9.6,12.3-15.1,11s-28.8,5.5-35.6,4.1
		c-6.8-1.4-23.3-6.8-24.7-12.3c-1.4-5.5,5.5-17.8,8.2-23.3c2.7-5.5,2.7-21.9,8.2-26c5.5-4.1,32.9-23.3,32.9-23.3s-39.7,8.2-53.4,11
		c-13.7,2.7-43.8,4.1-49.3,2.7c-5.5-1.4-24.7-6.8-24.7-6.8s-5.5,26-9.6,34.2c-4.1,8.2-16.4,38.4-16.4,38.4s-17.8,39.7-23.3,45.2
		c-5.5,5.5-16.4,4.1-16.4,4.1s-21.9,24.7-32.9,32.9c-11,8.2-50.7,24.7-56.2,24.7c-5.5,0-24.7-1.4-24.7-1.4s-4.1-13.7,1.4-19.2
		c5.5-5.5,4.1-21.9,13.7-27.4c9.6-5.5-21.9,1.4-26,1.4c-4.1,0-19.2-8.2-19.2-8.2s-20.5,1.4-20.5-2.7c0-4.1,21.9-27.4,28.8-27.4
		s32.9-9.6,35.6-13.7c2.7-4.1,19.2-20.5,20.5-30.1c1.4-9.6,13.7-54.8,13.7-54.8s-21.9,1.4-30.1-2.7c-8.2-4.1-39.7-26-46.6-32.9
		c-6.8-6.8-26-46.6-32.9-52.1c-6.8-5.5-34.2-42.5-43.8-47.9c-9.6-5.5-47.9-26-56.2-27.4c-8.2-1.4-39.7-8.2-46.6-9.6
		s-27.4-9.6-30.1-15.1c-2.2-4.4-4.1-14.5-4.3-17.3c-1.3,0.1-7.3-4.3-8-7.4c-0.9-3.6,0.3-20.4,2.7-24.7c2.4-4.2,20.5-21.9,26-34.2
		c5.5-12.3,20.5-47.9,30.1-53.4s29.1-11.2,34.6-16.7c5.5-5.5,25.7-18.9,25.7-18.9s-21.9-72.6-23.3-91.8c-1.4-19.2-0.2-78,19.2-87.7
		c5.5-2.7,34.2,7.7,39.7,14.6c5.5,6.8,28.8,56.6,31.5,82.7s-5.5,60.3-2.7,65.8c2.7,5.5,50.7,68.5,64.4,75.3
		c13.7,6.8,63-2.7,72.6-1.4c9.6,1.4,39.7,11,53.4,6.8c13.7-4.1,57.5-28.8,116.4-23.3c58.9,5.5,158.9,58.9,169.9,64.4
		c11,5.5,67.1,41.1,79.5,58.9c12.3,17.8,17.8,65.8,20.5,83.6C949.3,704.1,947.9,752,939.7,769.8z"/>
</g>
<g id="Ebene_2">
</g>
</svg>
