<?xml version="1.0" encoding="utf-8"?>
<!-- Generator: Adobe Illustrator 18.0.0, SVG Export Plug-In . SVG Version: 6.00 Build 0)  -->
<svg version="1.2" baseProfile="tiny" xmlns="http://www.w3.org/2000/svg" xmlns:xlink="http://www.w3.org/1999/xlink" x="0px"
	 y="0px" width="1133.9px" height="1133.9px" viewBox="0 0 1133.9 1133.9" xml:space="preserve">
<g id="Ebene_1">
	<path d="M0,0v1133.9h1133.9V0H0z M809.6,514.7c-1.4,6.8-21.9,29.2-21.9,29.2s8.2,47.5,13.7,55.7c5.5,8.2,24.6,77.6,32.9,106.8
		c12.3,43.8-4.1,112.3-16.4,147.9c0,0-9.6,47.9-9.6,65.8s-1.4,87.7-1.4,87.7s-19.2,5.5-23.3,8.2c-4.1,2.7-8.2-9.6-8.2-9.6
		s0,21.9-6.8,24.7c-6.8,2.7-13.7,11-21.9,11s-20.5-13.7-20.5-13.7s-15.1,32.9-31.5,32.9s-23.3-11-23.3-11l-11,12.3l-15.1-9.6
		c0,0-5.5,16.4-9.6,19.2c-4.1,2.7-39.7,12.3-52.1,12.3c-12.3,0-42.5-26-42.5-26l-27.4-32.9c0,0-43.8,19.2-58.9,19.2
		c-15.1,0-57.5-15.1-57.5-15.1s-68.5,13.7-87.7,5.5c-19.2-8.2-43.8-38.4-43.8-38.4s8.7-58.2,4.1-74c-6.8-23.3-23.3-76.7-17.8-101.4
		c5.5-24.7,12.3-108.2,26-134.2c13.7-26,54.8-68.5,58.9-78.1c4.1-9.6,65.8-94.5,80.8-112.3s68.5-47.9,68.5-47.9s-5.5-32.9-12.3-41.1
		s-38.4-28.8-45.2-32.9c-6.8-4.1-19.2-17.8-24.7-20.5c-5.5-2.7-37-16.4-39.7-20.5c-2.7-4.1-49.3-50.7-54.8-57.5
		c-5.5-6.8-30.1-42.5-30.1-42.5s4.1-16.4,9.6-20.5c5.5-4.1,58.9-17.8,67.1-15.1c8.2,2.7,82.2,31.5,91.8,41.1s37,31.5,37,31.5
		s-9.6-23.3-15.1-27.4c-5.5-4.1-34.2-43.8-35.6-52.1s1.4-21.9,5.5-24.7c4.1-2.7,47.9-4.1,56.2,1.4c8.2,5.5,53.4,47.9,57.5,57.5
		c4.1,9.6,11,27.4,16.4,32.9c5.5,5.5,38.4,41.1,38.4,41.1s16.4-2.7,23.3-1.4s24.7,11,28.8,12.3c4.1,1.4,27.4,4.1,41.1,11
		c13.7,6.8,34.2,17.8,38.4,24.7c4.1,6.8,5.5,26,9.6,34.2c4.1,8.2,16.4,28.8,21.9,35.6c3.7,4.7,15.7,23.2,24.7,39l0-0.1
		c0,0,18.1-11.8,30.8-21.9c4.2-3.6,7.2-6.1,7.2-6.1c-2,1.9-4.5,4-7.2,6.1c-9.1,7.8-24.2,20.8-28.9,25.3c3.4,6.1,6.2,11.5,7.7,15.2
		c0,0,26-8.2,34.2-9.6s35.5-3.7,35.5-3.7s-20.7,2.7-40.7,7.3l-28.1,8.5c1.4,4.1,2.3,8.6,2.9,13.1l73.5,13.4c0,0-55.7-6.9-73.1-9.9
		C810.7,501.9,810.4,510.7,809.6,514.7z"/>
</g>
<g id="Ebene_2">
</g>
</svg>
