<?xml version="1.0" encoding="utf-8"?>
<!-- Generator: Adobe Illustrator 18.0.0, SVG Export Plug-In . SVG Version: 6.00 Build 0)  -->
<svg version="1.2" baseProfile="tiny" xmlns="http://www.w3.org/2000/svg" xmlns:xlink="http://www.w3.org/1999/xlink" x="0px"
	 y="0px" width="1133.9px" height="1133.9px" viewBox="0 0 1133.9 1133.9" xml:space="preserve">
<g id="Ebene_1">
	<g>
		<path d="M0,0v1133.9h1133.9V0H0z M948.3,675.3c-12-1.3-52.7-6.7-61.3-12.7s-26.7-31.3-29.3-38c-2.7-6.7,0-17.3,0-17.3
			s-11.3-14-15.3-14s-28.7,1.3-36.7,3.3s-20,5.3-32,10c-12,4.7-30,16-30,16s0,15.3,1.3,22c1.3,6.7,6.7,11.3,8,14
			c1.3,2.7-3.3,19.3-2,26c1.3,6.7,6.7,26.7,8.7,29.3c2,2.7,7.3,17.3,5.3,21.3s-21.3,16.7-26.7,19.3c-5.3,2.7-39.3,18.7-39.3,18.7
			s14,36.7,16.7,40c2.7,3.3,10,9.3,12,12s4.7,14.7,6.7,18.7s20,44.7,24,49.3s16,16.7,16.7,22.7s8.7,45.3-4.7,52.7
			c0,0-17.3,6-23.3,4.7s-18-6.7-19.3-10.7c-1.3-4-2-29.3-7.3-38c-5.3-8.7-32.7-38-32.7-38s-14,6-19.3,5.3
			c-5.3-0.7-71.3-37.3-76.7-41.3c-5.3-4-24-17.3-25.3-20.7c-1.3-3.3,0.7-6.7,0.7-6.7s-26.7,6.7-35.3,8c-8.7,1.3-35.3,2-39.3,2
			s-14-5.3-14-5.3l-21.3-0.7l-24-0.7c0,0-23.3-6-26-7.3s2.7-8,2.7-8l-4-12l6.7-6c0,0-2-4-2-7.3c0-3.3,19.3-8.7,24.7-10
			c5.3-1.3,23.3-9.3,26.7-9.3c3.3,0,14,0.7,16.7-1.3c2.7-2,29.3-17.3,32-17.3c2.7,0,48-1.3,48.7-3.3s1.3-32,0-34.7
			c-1.3-2.7-13.3-10-19.3-10s-54.7-5.3-72.7-8.7s-88-46.7-93.3-50c-5.3-3.3-46.7-39.3-56.7-46S289,574,284.3,572
			c-4.7-2-34.7-28.7-40-28.7c-5.3,0-22.7-1.3-28-2c-5.3-0.7-15.3-2-19.3-1.3c-1.4,0.2-3.8,1.5-6.5,2.9L234,614l-45.1-70.2
			c-0.9,0.5-1.8,1-2.8,1.5L227,632l-42.1-86c-3.4,1.8-6.6,3.3-8.6,3.3c-1.9,0-7.2-0.8-13.3-1.9c2.9,8.5,6.6,21.4,6,29.6
			c-0.9,11.1-1-9.9-7.9-30c-8-1.6-16.8-3.6-20.8-5c-7.3-2.7-20.7-16-21.3-18.7s-0.7-6.7-0.7-6.7s-4.7,4-8.7,1.3c-4-2.7-4-18-4-22
			s2-12,4.7-15.3c2.7-3.3,17.3-17.3,20.7-22c3.3-4.7,17.3-36,21.3-40.7c4-4.7,28-28.7,32.7-33.3c4.7-4.7,16.7-16,18-18.7
			c1.3-2.7,4-8.7,6.7-8.7c2.7,0,19.3-8,28.7-6.7c9.3,1.3,14.7-9.3,14.7-9.3l2.7-5.3c0,0-1.3-10.7-3.3-19.3c-2-8.7-27.3-80-29.3-96.7
			c-2-16.7-7.3-34-6-39.3c1.3-5.3,6.7-21.3,11.3-21.3c4.7,0,14,11.3,16.7,18s8,18.7,8,18.7s2.7,2.7,5.3,4.7c2.7,2,4.7,7.3,4.7,7.3
			s10-13.3,16-18c6-4.7,14.7-10,19.3-10.7c5.4-0.8,26,4.7,28.7,8.7s3.3,16,4.7,21.3c1.3,5.3,8.7,57.3,6,73.3
			c-2.7,16-6.7,31.3-9.3,36c-2.7,4.7-16,24-16,24s19.3,16,24,20.7c4.7,4.7,20,30,30,32.7c10,2.7,19.3,6,25.3,2.7
			c6-3.3,116-59.3,128-64c12-4.7,133.3-54,157.3-58s73.3-11.3,85.3-11.3s40.7,2,56,6c15.3,4,104,28.7,118,37.3
			c14,8.7,37.3,47.3,41.3,53.3s11.3,17.3,16.7,22c5.3,4.7,14,10,16.7,14.7c2.7,4.7,14.7,46.7,13.3,52.7c-1.3,6-8,45.3-10,52.7
			c-2,7.3-7.3,18.7-9.3,24.7s-16,40-18.7,43.3c-2.7,3.3-22,22.7-24.7,24.7c-2.7,2-16-4.7-19.3-4.7c0,0-9.3,4-7.3,7.3
			s28.7,20,37.3,26c8.7,6,43.3,26.7,46.7,30s9.3,12.7,9.3,12.7S960.3,676.7,948.3,675.3z"/>
		<path d="M625,805c0,0,16,9,19,11s9-2,9-2l-8-17L625,805z"/>
	</g>
</g>
<g id="Ebene_2">
</g>
</svg>
