<?xml version="1.0" encoding="utf-8"?>
<!-- Generator: Adobe Illustrator 18.0.0, SVG Export Plug-In . SVG Version: 6.00 Build 0)  -->
<svg version="1.2" baseProfile="tiny" id="Ebene_1" xmlns="http://www.w3.org/2000/svg" xmlns:xlink="http://www.w3.org/1999/xlink"
	 x="0px" y="0px" width="1133.9px" height="1133.9px" viewBox="0 0 1133.9 1133.9" xml:space="preserve">
<rect width="1133.9" height="1133.9"/>
<path fill="#FFFFFF" d="M899.5,774c-3.5-14.5-51-119-79.5-157s-78-87-78-87c-68.5-62-151-80.5-159.5-84s-16.5-11.5-28-17.5
	s-62-23-66.5-26s0-19-7-40.5s-22.5-33-25-39.5s0.5-12,0.5-12s26-50.5,29-55s7-19.5,9-31.5s4.5-69.5-5.5-74.5s-40.5,5.5-57.5,15
	s-33,74-33,68.5s-8-22.5-9-26s-4-7.5-25.5-33s-47.5-27.5-49-24.5s0,27.5,1,31s3.5,15.5,5,21.5s12,45,15.5,53s6.5,30.5,6.5,30.5
	s-6,4.5-17.5,9s-23,20-25.5,23.5s-2,19.5-3,22.5s-7,11-9.5,14.5s-12,20.5-15,24c-2.4,2.8-8.1,11.8-10.5,16.5c0,0.1-0.1,0.2-0.1,0.2
	l-34.3-14.4l33.5,16.2c-0.1,0.2-0.1,0.4-0.2,0.5c-0.2,1-0.2,2.6-0.1,4.5l-20.6-5.8l20.7,8.1c0.1,2.1,0.2,4.3,0,6.3
	c-0.5,4.5-3.5,21-0.5,27s20,15.5,23.5,17s6,10.5,9,13s9,4.5,13.5,7.5s15.5,22.5,17,26s0.5,22.5,1,25s11,12,12,18s0,53.5-0.5,62
	c-0.2,4.2,3.1,13.2,7.3,22.3c1,2.3,2.1,4.5,1.8,5.4c2.5,3.5,3.6,5.7,0.8,19.2c5-9.5,6.1-7.7,7.8,3.2c0.2-7.7,1.1-6.3,1.9-4.7
	c0.2,0,0.6,0.5,1.2,1.3c1.8,2.2,4.9,5.9,8.9,10.6c1.3,1.6,2.8,3.2,4.1,5c1.7,1.7,3.3,3.6,4.1,19c2.6-11.5,4.4-9.5,6.4-7.1
	c1.6,1.7,3.5,3.8,5.4,6c9,10.1,18.8,21.1,27.9,31.3c1.8,2,3.6,4,4.4,9c2.8-1.1,4.5,0.8,7,15.2c0.8-10.7,2.4-8.9,4-7.2
	c10.8,12,18.4,20.4,18.4,20.4s-19.5,88-22,100S395.5,967,395,970s-6.5,8-8.5,9s-12.5,0.5-18,1.5s-16.5,12-21,14s-14,13-14,13l5.5,1
	l0.5,5l5.5-2.5c0,0,3.5,5.5,10.5,6.5s18-4,18-4s2.5,7,5.5,9s15.5,10.5,27.5,12s39-13.5,43-18s17-28.5,20-33s7-33,9.5-42.5
	s29.5-108.5,29.5-108.5s4.9,5.4,12.8,13.3c2,2,4.2,4.1,5.9,7.9c1.5-0.7,2.4,0.2,2.6,6.5c1.5-4.6,2.4-3.7,3.5,3.7
	c0.7-5.7,1.7-4.9,2.3,1c1.3-3.8,2.2-2.5,2.8,4.9c1.4-5.6,2.5-5.1,4.1,0.7c0.3-4,1.3-2.7,2.3-0.3c0.7-0.6,1.4-0.3,2.1,0.2
	c1.5,1,2.8,3,3.9,6.6c2.7-1.6,5,0.2,7.9,5.1c0.8-0.6,1.8-0.4,2.8,0.2c1.1,0.5,2.2,1.4,3.4,2.4c0.6,0.4,1.2,0.9,0.9,3
	c1.4-0.9,1.9-0.2,1.4,5.3c1.7-4.6,2.3-4.4,2.4,4.2c1.1-7.7,1.7-6.9,2.2,1.4c0.8-7.1,1.7-6.8,2.3-3.3c1.1-2.4,1.9-1.6,2.3-1
	c1.1,1.5,1.9,2.8,3.1,3.7c0.4,0.3,1.2,0.3,3.5-3.6c-0.6,4.7,0.2,5.5,2.1,2.2c-0.4,5.7,0.4,7.4,2.6,7.1c-0.8,1.7,0,1.3,1.3,0.4
	c0.2,1.3,0.9,2.1,1.7,3.4c0.7,1.4,1.4,3.4,2.1,6.1c1-2,2-2.4,3-2.2s2,1.3,2.2,2.9c2.9,1.7,4.9,3.9,9.6,16.5c-0.8-8.1,1-6,2.7-4
	c10.2,12.3,16,21.6,16,21.6s-18.5,6-25,10s-26.5,27.5-30,30S538,989,532,989s-19,1-27,3.5s-33,22.5-36,30.5s39.5,7,39.5,7
	s12,4,28.5,6s60.5-5.5,60.5-5.5s1.5,3.5,6,6s26.5-2,35.5-4s28.5-3,52.5-2s56.5-10,62-14s-4-18-4-18s34.5,5.5,50,6s48-28,52-30
	c2-1,6.9-8.9,12.2-17.7c1.3-2.2,2.7-4.5,4.1-5.3c1.3-3.6,2.7-5.8,4.1,1.1c1.2-11.1,2.4-13,8.6-23.4c-3.9,6.9-2.8,5.4-0.1-2.6
	c-0.9,5.8-0.1,4.3,1.1,0.8c0.4,0.2,1.3-1.8,2-3.9c3.2-8.5,6-19.9,7.9-28.1c0.5-2,0.9-3.9,1.2-5.2c0.3-1.8,0.6-3,0.7-0.9
	c0.3-3.8,0.4-4.3,0.3,0c1-7.7,1.8-11.1,6,2.8c-2.6-20.4-1.9-23.6,0.2-31.9c-0.9,2.2-0.3-0.9,0.2-3.8c0.5-2.9,1-5.8,1.4-8.6
	C907.1,809,902.2,785.3,899.5,774z"/>
</svg>
