<?xml version="1.0" encoding="utf-8"?>
<!-- Generator: Adobe Illustrator 18.0.0, SVG Export Plug-In . SVG Version: 6.00 Build 0)  -->
<svg version="1.2" baseProfile="tiny" id="Ebene_1" xmlns="http://www.w3.org/2000/svg" xmlns:xlink="http://www.w3.org/1999/xlink"
	 x="0px" y="0px" width="1133.9px" height="1133.9px" viewBox="0 0 1133.9 1133.9" xml:space="preserve">
<rect width="1133.9" height="1133.9"/>
<path fill="#FFFFFF" d="M754,722.5c-3.9,0-11.8,4.4-16.5,8.8c-9.3,8.8-30.8,27-34,34.7c-3.3,7.7-6,15.2-9.7,23.3
	c-3.6,8-5.7,17.4-4.5,25.1c1.1,7.7,7.2,28.6,9.4,31.9c2.2,3.3,4.4,9.9,7.2,11S738.3,865,740,871c1.7,6-14.8,15.4-17,15.4
	c-2.2,0-20.9-3.3-26.4-7.1c-5.5-3.8-15.4-20.3-18.8-25.3s-9.9-16.5-13.8-18.7c-3.9-2.2-11.6-7.1-12.7-9.9s-11-16.5-11.6-24.2
	c-0.6-7.7-3.9-17-5-19.8s-13.2-19.2-12.7-24.7c0.5-5.5-1.3-25.3-5-33c-0.9-2-2.3-3.8-4.1-5.6c-1.7-1.7-3.8-3.4-8.2-3.6
	c-0.2-2.9-2.7-4.3-10.7-4.3c2.7-2.8,0-4.1-9.2-2.7c3.7-3.8,1-4.9-12.9-2.7c8.6-4.3,6.1-5.4-8.5-5.2c10-2.1,7.9-3-1.3-4.2
	c7.5,0.4,6.7,0,0.1-1.1c3.7-0.2,1.6-1.1-1.3-2.3c-2.2-1.1-5.1-2.4-8.4-3.8c-16.2-7.3-39-17.7-45.1-21.4c-9.9-6-68.3-41.1-81.5-49.9
	c-2.2-1.5-4.4-3.4-8.6-4.2c0-1.2-0.3-2.2-1-3.1c-0.6-1-1.6-1.9-4.1-2.3c-0.6-1.3-2.7-2.1-7-2.1c3.5-2.1,4-3.4-5.8-2.3
	c9.3-3.6,8.2-4.9-7-5.8c13.1-1.5,12.1-2.7,1.2-5.7c8.8,0.7,7.8-0.3,2.9-2.7c1.8-0.6-0.2-2.3-2.2-3.5s-3.9-1.9-5.9-1.9
	c-11.6,0-24.2,23.7-32.9,43c-11,12.7-9.9,18.2-34.1,27.6c-24.2,9.4-81.4-12.5-100.2-21.3c0,0-11-7.1-21.5-11s-36.3-12.6-47.9-14.2
	c-11.6-1.6-18.7-1.6-18.7-1.6s-6.5,45.1-8.2,51.2s-7.1,11-7.1,11s-2.7,14.9-8.2,18.7c-5.5,3.9-14.3,9.9-14.3,9.9s-6,16.5-16.5,27.5
	c-10.4,11-23.6,19.3-32.4,18.8s-19.3-7.1-20.9-16.5c-1.7-9.3-0.6-21.5,0.5-23.1c1.1-1.7-3.9-11.5-1.7-14.3
	c2.2-2.8,15.9-27,21.4-32.5s8.8-5.5,8.8-5.5s-0.1-31.4,3.8-39.6s6-19.3,7.1-20.9c1.1-1.7,21.9-34.7,26.3-37.5
	c4.4-2.8,19.7-34.1,19.7-34.1s-18.2-26.9-22.1-28.6c0,0-0.7-1.5-2.2-3.4c0.5-1.3,0.1-2.6-3-3.7c2.4-1.6,2.1-3.1-0.2-4.7
	c2.1-1.3,2.1-2.8,1-4.1c-1.1-1.2-3.4-2.2-8.2-2.6c11.7-2.4,12.5-3.5,0.1-5.9c13.2,0.6,13.2-0.3,4.5-3.7c10.7,1.8,12.6,1.1,9.6-2.9
	c4.6,2.4,4.3,1.5,1.9-0.7c4.5,1.3,7,1.3,8-0.3c1.3,0.7,1.2-0.2-0.3-1.7c3.2,1.4,5.3,2,6.7,1.6c1.3,0,1.8-1,1.8-3
	c5.4,3.6,8.5,3.3,12.6,0.3c2.2,2.7,5.5,2.6,9.7,1.7c1.9,0.9,4.7,1,7.1,1.2c3,0.4,6.3,0.4,9.2,0.2c5.9-0.3,10.5-1.3,10.5-1.3
	s32.5-36.5,42.3-45.7c9.9-9.4,46.8-34.2,62.6-37c15.9-2.8,31.9-5.6,60-5.6c28.1-0.1,83.6,3.7,151.9,32.7S580.2,445,607.2,457
	c27,12.1,45.1,15.9,62.8,22.4c17.6,6.6,65.5,24.1,74.3,19.7s12.6-10.5,13.2-14.9c0.5-4.4-0.6-12.7,1.6-16c2.2-3.3,17-12.7,17-12.7
	s4.4-9.4-0.6-15.4c-5-6-15.4-24.2-20.4-34.6c-5-10.4-10-28.6-14.4-37.9c-4.4-9.3-9.9-19.8-9.9-22.5c0-2.8,1.1-13.8,1.1-13.8
	s9.9-1.7,16.5,2.7s37.5,26.3,37.5,26.3s0-20.9,1.6-27s6-25.3,6-29.2s-2.8-18.7-1.1-20.9c1.6-2.2,6.6-6.6,11.5-6.6
	c5,0,24.8,14.3,32.5,32.4c7.7,18.1,6.7,53.4,6.7,68.2c0,14.9,1.7,41.8-0.5,47.3c-2.2,5.5-3.3,21.5-0.5,25.9
	c2.8,4.4,25.9,8.8,35.2,15.9c9.4,7.1,17.1,15.4,20.9,19.8c3.9,4.4,14.4,28.6,19.3,34.1c5,5.5,12.1,15.9,15.4,19.8s13.8,22,15.5,29.7
	c1.7,7.7-1.1,17.6-2.7,19.3s-14.8,3.3-14.8,3.3s-3.3,11.6-8.2,13.8s-38.5,10-51.1,10c-12.7,0-21.5-4.9-25.3-4.4
	c-3.8,0.6-7.1,3.3-7.1,3.3s11.6,20.3,14.4,27.5c2.8,7.1,5.6,26.9,8.3,33c2.8,6,10.5,24.7,14.9,30.2c0,0,5.5,10.4,10.5,14.3
	c5,3.8,20.9,13.7,27.5,18.1c6.6,4.4,13.2,12.6,21.5,18.7c8.3,6,33.6,19.2,43,26.3c9.4,7.1,34.7,29.6,46.3,33.5
	c11.6,3.8,19.8,6.6,24.2,6.6s37.9-7.2,51.2,6c13.2,13.2-3.8,19.8-3.8,19.8s-8.8,7.2-13.2,8.8c-4.4,1.7-17.1-1.6-20.4,0
	c-3.3,1.7-7.1,11.6-14.8,11.6c-7.7,0-20.9-9.9-22.6-10.4c-1.7-0.5-36.3-21.4-43.5-25.2s-60.6-36.2-69.4-39.5s-49-29.6-54.5-32.9
	c-5.5-3.3-24.8-12.6-27-12.6c0,0-4.6-0.7-10.8-2c-3.1-0.6-6.6-1.4-10-2.2c-3.7-0.9-7.2-2-7.2,0.7c-6.5-4.9-9.5-6.1-17.1,0.3
	c2.7-9.4,0-11.3-16.1-11.7c10.8-3.3,8.2-5.1,4-6.8c-0.5-1.5-2.6-2.8-4.4-3.7c-1.8-0.9-3.3-1.2-4.4-0.9
	C765.6,722.5,757.9,722.5,754,722.5z"/>
</svg>
