<?xml version="1.0" encoding="utf-8"?>
<!-- Generator: Adobe Illustrator 18.0.0, SVG Export Plug-In . SVG Version: 6.00 Build 0)  -->
<svg version="1.2" baseProfile="tiny" id="Ebene_1" xmlns="http://www.w3.org/2000/svg" xmlns:xlink="http://www.w3.org/1999/xlink"
	 x="0px" y="0px" width="1133.9px" height="1133.9px" viewBox="0 0 1133.9 1133.9" xml:space="preserve">
<rect width="1133.9" height="1133.9"/>
<path fill="#FFFFFF" d="M994,393c-10-30-49-97-71-112s-107-21-137-26s-165,25-186,32c-13.7,4.5-91.1,38.7-148.3,63.1
	c-4.4,1.9-8.7,3.7-12.1-4.2c-4.8,11.4-8.8,13.1-13.1,11c-3.2,5.3-6.8,6.7-10.2,8.1c-13.4,5.5-23,9.2-26.4,10c-17,4-23-21-26-30
	s13-60,12-75s-20-64-20-70s-3.2-28.1-11-33c-8-5-12-2-24-1s-29,26-36,40s2,89,2,89s-18-25-38-51s-93-69-96-69s-6-2-9,1
	s45,102,54,118s42,57,42,57s-21,14-26,16s-22,26-26,33s-4,63-4,68s-12,24-14,28c-0.1,0.1-0.1,0.3-0.2,0.5L147,481l22.3,16.9
	c-1.1,4.1-2.2,12.3-2.8,19.5L123,521l43.3-1.5c-0.2,2.9-0.3,5.6-0.3,7.5c0,8,15,32,24,35s21-4,21-4s14,13,21,14s30-9,34-9
	s18,12,18,12s81,98,92,109s40,22,40,22s-10,29-13,36s-34,70-36,81s18,66,18,66s-75,33-84,42c-4.5,4.5-1.8,15,4.6,25.2
	c1.3,2,2.7,4.1,4.2,6c1.6,2,3.2,3.9,1.7,7.2c5,0.4,6.8,2.1,7.6,12.8c3-7.7,4.9-6.3,6.9-2.6c1.9-1.4,3.9-0.4,5.9,0.3
	c4,1.4,8.2,1.6,12.5,1s8.4-1.9,13.2,4.6c3.1-9.9,6.8-12,10-13.9c3.1-2.1,5.7-4,7.5-5.4c1.8-1.4,2.9-2.3,2.9-2.3s23,4,28,5
	s16-18,16-18s18,18,22,19s6-3,8-7s-2-19-1-27s7-20,7-20s19-17,28-25s32-37,36-42s21-13,25-22s-1-24-2-36s20-48,20-48s-21,117-15,140
	s94,31,107,31s22-23,22-27s-16-9-21-12s-9-32-15-34s-18,8-25,7s-18-12-20-14s10-44,10-57s18-50,23-67s29-53,38-64
	c1.8-2.2,4.1-4,6.5-2.2c2.9-4.8,5.9-6,9.7,10.7c2.3-18.8,5.5-19.7,13.3-12.7c-1.5-8.6,1.5-9.4,4.3-10.2s5.2-1.6,7.2-2.6
	c10-5,47-32,47-32s2,13,4,29s33,173,35,198s-1,80-4,97s-35,47-40,54s-27,31-26,37s29,9,43,8s35-4,64-23s50-69,51-79s-10-17-14-26
	s-11-78-10-100s15-91,23-110c1.5-3.5,4.6-8.4,8.9-14.2c2.1-2.9,4.6-6.1,6.9-7.3c2.9-5.4,5.7-8.9,8.9-3.4c2.7-12.6,5.8-16.2,9.1-10.5
	c2.9-13,6-16.6,7.3-6.1c5-17.7,8.1-21.2,9.2-2c4.9-26,7.8-29.3,14-20.5c-0.8-14.9,1.7-17.8,5-19.3c1.2-3.6,3.2-5.9,4.9-7.8
	c1.7-2,3-3.6,3.9-4.7c10-13,31-52,41-77S1004,423,994,393z"/>
</svg>
