<?xml version="1.0" encoding="utf-8"?>
<!-- Generator: Adobe Illustrator 18.0.0, SVG Export Plug-In . SVG Version: 6.00 Build 0)  -->
<svg version="1.2" baseProfile="tiny" id="Ebene_1" xmlns="http://www.w3.org/2000/svg" xmlns:xlink="http://www.w3.org/1999/xlink"
	 x="0px" y="0px" width="1133.9px" height="1133.9px" viewBox="0 0 1133.9 1133.9" xml:space="preserve">
<rect x="-0.1" y="0" width="1132.6" height="1134.6"/>
<path fill="#FFFFFF" d="M329,775.5c-8,13.5-24,23.6-23.5,32.8S358,866.3,375,878c14.4,9.9,84,61.9,84,61.9
	c11.5,6.3,34.9,12.5,52,18.4l20.6-6.1c0,0-16.4,11.5-18,23.2c-1.6,11.7-1.8,33.5,48,39.2c6.5-2.4,33.2-23.2,40.5-40.6
	c6.6-15.6,54-36.3,54.9-76c0.4-17.7,14-104.5,17.5-115.1c3.5-10.6,41-32.1,46-32.1s16,7.3,21.5,12.6s37.7,32.1,37.8,40.5
	c0.1,8.4-50.4,41.4-52.2,43.5c-1.9,2.1-13.5,31.3-14.7,35.5c-1.2,4.2,1.2,19.8,4.9,27.8c3.7,8,2.3,31.3,3.5,33.5s9.8,11.5,9.8,11.5
	s17.4-7.1,20.4-9.6s40.2-44.1,43-49c2.9-4.9,24.9-45.3,24.9-45.3s18.1-31.8,17.3-51s-47-102.6-47-102.6s12.4-1.8,39.9-29.9
	s38-58.5,44-69.7c6-11.1,16.5-17.9,20.5-22.3c4-4.4,33-45.5,37.5-54.2s21.5-28.5,28-33.9c6.5-5.3,50-18.9,63.5-29.5s21-25.2,21-25.2
	s8-5.3,8-12.1c0-6.8-11-22.7-15.5-28.1s-29-28.5-37-35.8s-22-35.3-29.5-43.1s-47-24.2-47-24.2s-1.5-26.1-1-33.4s9-28.5,9.5-37.7
	s10.1-43.9,5.1-53.1c-5-9.2-14.5-21.8-16.5-23.2c-2-1.5-14-2.4-16.5,1c-2.5,3.4-15,25.2-22.5,49.8c-10.5-17.4-47.5-71.1-51-72.6
	s-12.8-1.4-16.5,1c-3,1.9-3,51.8-3,60s3.9,32.3,7.9,50.2s22.5,55.6,22,61.9c-0.5,6.3-22.7,18.8-26.5,24.2
	c-9.4,13.2-13.9,45.1-22.9,53.8c-9,8.7-59.1,30.9-65.6,31.8s-27.4-4.7-37.9-9.1c-11.5-4.8-54.5-36.7-74-39.6S507,330.5,483,327.6
	s-106-1.5-128,1.5s-81.9,26.2-102.9,36.4c-21,10.2-68.7,71.8-98.6,117.4S115,589.3,115.5,598c0.5,8.7,8.5,20.3,10,23.7
	c1.5,3.4,1.5,16.9,1.5,30.5c0,13.5-46.4,52.3-44.4,48.9c2-3.4,40.5,12.4,44,10.5c3.5-1.9,36.4-6.7,48.9-12c12.5-5.3,38.5-23,38.5-23
	s14.7,1.8,19.1,2c13.1,0.6,31.9-4.5,31.9-4.5c24.5,4.8,42,7.2,51,17.9c7.9,9.4,22,13.8,20,24C336,716,337,762,329,775.5z M608,782
	c0,17.4,5,46.2,3,55.9s-11,49.3-11,49.3c-4,0-26.7-19.9-39-25.2c-25-10.6-84-25.2-103-32.9s-45-23.2-50-39.7c-5-16.4-7-40.6-5-45.5
	c2-4.8-4.2-16.9,15-36.1c12-12,26-16,26-16s32,6,62,10c27.8,3.7,72,18,72,18S608,764.6,608,782z"/>
</svg>
