<?xml version="1.0" encoding="utf-8"?>
<!-- Generator: Adobe Illustrator 18.0.0, SVG Export Plug-In . SVG Version: 6.00 Build 0)  -->
<svg version="1.2" baseProfile="tiny" id="Ebene_1" xmlns="http://www.w3.org/2000/svg" xmlns:xlink="http://www.w3.org/1999/xlink"
	 x="0px" y="0px" width="1133.9px" height="1133.9px" viewBox="0 0 1133.9 1133.9" xml:space="preserve">
<rect width="1133.9" height="1133.9"/>
<path fill="#FFFFFF" d="M917.1,657c-15.7-0.6-33.8-2-45.3,3.7c-16.9,8.5-46.5,40.8-52.1,43.7c-5.6,2.8-22.5,4.2-22.5,4.2
	s-54.9,46.5-74.6,60.6c-19.7,14.1-33.8,32.4-43.7,35.2c-9.9,2.8-36.9,28.1-36.9,28.1s30.2,11,39.5,6.8c9.3-4.3,59.5-20.5,69.5-20.6
	c10-0.1,38.8,11.2,43,20.5c4.3,9.3,34.3,47.5,7.1,55.9c-27.2,8.4-56.7,30.1-78.2,29.1c-21.5-1-61.4-0.6-74.4-11.4
	c-13.1-10.8-28.6-13.1-41.6-13.9c-13-0.9-63.2-13.3-69.5-13.2c-23,0.1-83.5,3.6-90.9-7.4c-3.3-5-4.3-9.1-4-12.7
	c-9.3,3.6-16.6,5.9-19.5,6.2c-11.6,1.1-58.6,19.5-82.1,24.4c-23.6,4.9-75.5-18.8-78.6-26.4c-3.1-7.6,29.2-32.5,43.5-41.7
	c10.6-6.9,45.5-3.4,68.2-4.5c7.1-11.7,17.7-25.4,24.1-32.6c5.4-6.1,21.9-10.9,38.7-15.4c-8-17-16.3-31.3-20.1-35.8
	c-8.5-9.9-76.1,1.4-88.7,0c-12.7-1.4-70.1-21.1-77.2-25.4c-7-4.2-23.7,28.1-57.7,29.6c-20.5,0.9-45.1-12-45.1-12
	c-7.3-6.8,2.2-50.8,8.6-58.3c8.5-9.9,21-21.7,26.6-38.6c4.5-13.6,5.6-71.4,14.1-85.4c8.5-14.1,36.6-70.4,66.2-91.5
	s81.4-42.3,94.1-45.1c12.7-2.8,118.3,2.8,152.1,9.9c33.8,7,70.4,23.9,116.9,39.4c46.5,15.5,87.3,40.8,108.5,52.1s40.8-7,46.5-16.9
	c5.6-9.9,18-44,18.6-56.7c0.7-12.7-5.8-24.4-7.6-42.7c-1.8-18.4,1.1-73.3,4.7-87.2c3.6-13.9,8.2-47.5,15.7-55.6
	c7.5-8.1,29.6-25.2,35.2-24.9c5.6,0.3,18.7,19.3,22.5,28c3.8,8.7,1.7,21.2,1.7,21.2s8.3-23.5,25.3-50.8
	c6.4-10.3,12.4-20.5,27.8-18.3s8.1,32.9,10.8,61.2c-10.4,36.1-35,101.1-41.3,113.4c-6.3,12.4-23.7,46.7-21.1,52.5
	c2.5,5.8,42.1,30.5,54,45.2c11.9,14.7,17,51.7,20.9,57.5c3.9,5.9,17.5,20.5,24.5,31.7c7,11.3,19.7,47.9,12.7,56.3
	c-7,8.5-21.1,11.3-21.1,11.3s-11.3,14.1-28.2,16.9c-4.3,0.7-9.5,0.8-15.2,0.7L917.1,657z"/>
<path fill="#FFFFFF" d="M941.4,625.4l-13.1,70.4c0,0,10.6-43.7,20.2-70.4"/>
<path fill="#FFFFFF" d="M937.7,615.8l15.1,70c0,0-7.1-44.4-8.6-72.8"/>
</svg>
