<?xml version="1.0" encoding="utf-8"?>
<!-- Generator: Adobe Illustrator 18.0.0, SVG Export Plug-In . SVG Version: 6.00 Build 0)  -->
<svg version="1.2" baseProfile="tiny" id="Ebene_1" xmlns="http://www.w3.org/2000/svg" xmlns:xlink="http://www.w3.org/1999/xlink"
	 x="0px" y="0px" width="1133.9px" height="1133.9px" viewBox="0 0 1133.9 1133.9" xml:space="preserve">
<rect x="-0.1" y="0" width="1132.6" height="1134.6"/>
<path fill="#FFFFFF" d="M1027.4,803.2c-15.6-2.3-61.1-26.3-75.8-29.3c-43.2-8.8-35.7-42.7-44.9-77.5c-9.2-34.9,32.3-95.6,32.3-95.6
	s48.5-21.9,62.7-46c15-25.5,38.8-52.8,38.8-52.8s-58-11.4-80.8,0.8C948,509,937,576,925.1,513.2c-11.9-62.8-62-111.1-86.6-122.4
	c-24.5-11.2-119.9-40.6-185.6-28.3c-116.8,22-164.4,54.4-222.3,75.7c-43.3,15.9-113.8-5.3-119.9-7.8c-6.1-2.5-31.6-22.8-40.9-44.2
	c-6.1-13.9-8.5-39.2-9.1-70.2c-0.3-16.6-0.1-34.8,0.4-53.8c1.3-54.5-14.5-73.3-14.5-73.3s-11-15.8-24.5-14.6
	c-13.5,1.2-26.9,96.3-26.9,96.3c-6.4-16.7,6.1-78.3-1.7-102.4c-2.2-6.8-21.6-25.9-31.2-22.6c-9.6,3.3-26.4,41.4-25.9,74.7
	c0.5,33.3,47.7,131.6,45.8,138c0,0-20.7,6.8-40.7,18.5s-36.8,26-47.1,43.8l-12.3,41.1c-2.1,17.5-32.1,38.6-31,65.3
	S85,551.5,85,551.5s33.1,20.7,69.2,18.2c35.1-2.4,59.8,18.8,67.6,22.4c12.5,5.9,37.8,23.6,43.3,39.8c11.1,33,52.5,57.9,76.7,71.5
	c-15.4-3.7-34.5-10.8-40.2-12.3c-9.8-2.7-46.6,12.8-69,27s-6.8,45.9-0.3,49.9c3.4,2.1,13-2.7,23.9-8.6c-1.1,3.6-2,7-3,10
	c-4.6,14.6-1.7,32.6,15.7,36.6c10.7,2.5,55.5-24.6,77.8-36.6c5.5,2.1,10.6,3.4,15.2,3.2c22.8-0.9,70.3,66,94.2,62.2
	c23.9-3.8,50.3-32.6,50.3-32.6l0,0c8.3,1.6,14.4,1.8,17.2,0.1c16.1-9.7,27.7-21.7,28.1-31.7c0.6-16.3-57.6-44.8-51.4-50.9
	c6.2-6.1,41.2,7.9,103,5.6c60-2.2,96.4-19,111.4-12c24.8,11.5,48,39,61.4,66.1c9.6,19.6,109.2,40.9,155.9,65.3
	c6.3,3.3,11.3,8.3,15.2,13.7c-1.9,11.8-10.4,24.4-39,26c-28.3,1.6-52.2,5.1-79.3-0.9c-43.3-9.6-65.9,27-63.5,36.9v0
	c-19.3,12.9-30.5,34.5-29,40.7c1,4,7.9,15.6,20.4,17.6c8.1,1.3,29,3.2,29,3.2s-3.2,8.4,13.2,5.8c52.4-8.4,196.5-27.1,195.3-39.4
	s55.2-47.8,80.7-87.3C1095.3,829.9,1045.7,806,1027.4,803.2z"/>
</svg>
