<?xml version="1.0" encoding="utf-8"?>
<!-- Generator: Adobe Illustrator 18.0.0, SVG Export Plug-In . SVG Version: 6.00 Build 0)  -->
<svg version="1.2" baseProfile="tiny" id="Ebene_1" xmlns="http://www.w3.org/2000/svg" xmlns:xlink="http://www.w3.org/1999/xlink"
	 x="0px" y="0px" width="1133.9px" height="1133.9px" viewBox="0 0 1133.9 1133.9" xml:space="preserve">
<rect x="-0.1" y="0" width="1132.6" height="1134.6"/>
<path fill="#FFFFFF" d="M1058.6,869.7c-4.4-16.3-51.5-58.6-67.6-93.2c-13.2-28.5-14-88.8-30-97.3c-16-8.5-42.3,40.4-74.8,30.4
	c-32.4-10-33.9-34.2-41.4-42.7c-7.5-8.5-16.9-18.1-20-33.3c-6.9-34.4,6.1-33.7,33.4-37c57.6-7,73.7-40.5,73.7-40.5
	s-16.8-16.4-36.9-19.3c-48.7-7.1-95.6,22.1-108,29.3c-24.7,14.3-21.3,0.6-75.3-3.2c-65.4-4.6-104.9,1.9-160.5-6.5
	c-62.5-9.6-104.1-27.9-141.8-39.9c-33.1-10.6-99.8-19.2-117.3-31.4c-22.1-15.4-37-27.6-47.2-48.4c-6.8-13.7-20.2-27-20.2-27
	s-2.9-18.7,0.2-67.1c3-48.4,17.4-107,2.5-108.4c-6.4-0.6-18.7,6-22.8,10.5c-4.1,4.5-15,34.3-22.2,51c-3.5,7.9-5.2,19.7-6,31.3
	c-4.4-48.4-18.7-79.9-33.9-80.9c-10.3-0.6-11.3,23.3-12.6,53c-0.9,19.7-4.6,41.2-1.4,62.2c4.7,30.8,11.7,42.7,11.7,42.7
	s-2.6,9.3-14.6,18c-6,4.4-26.3,11.5-32.7,19.8c-14.5,19.1-7.6,30-19.9,44.4c-13.7,16-29.5,31-28.6,45.8c0.9,15.3,15.9,20,15.9,20
	s10.2,20.8,32.1,24.5c14.5,2.4,25.4-9.8,43.3-7.8c9.6,1.1,27.5,4,47.4,3c17.5-0.9,30.6-8.3,40.2-3.2c41.8,22.2,21.2,79.9,29.1,102.4
	c3.2,9.2,8.9,20.5,7.8,35.4c-5.1,5.1-16.3,14-34.1,17.1c-25.3,4.4-25.2,2.4-48.8-5.1c-23.6-7.5-43-16.7-61.1-16.8
	c-15.8-0.1-33.5,6.9-42.8,11.3s-35.7,9.8-33.1,16c2.6,6.2,13.2,17.9,24.9,18.6c4,0.2,9.2,1.1,15,2c-5.5,15.2-8.1,23.5,31.3,25.9
	c20.2,1.3,41.4-5.4,65.2-1.9c12,1.8,29.7,12.1,48.2,15c40.9,6.5,36.6,22,84.2,15.3c30.5-4.3,55.6-41.7,66.9-43.9
	c19.3-3.8,62.4-11.9,123.9-10.3s99.6-21.8,141.2-14.2c16,2.9,51.1,79.1,98.9,85.3c58.6,7.7,72.8-26,91.6-38.4
	c18.8-12.3,41.2-14,67.8-12.5c26.7,1.4,72.4,39.6,85,59.9c12.5,20.3,4.5,39.1,42.4,58.3C1067.6,908.5,1061.6,880.7,1058.6,869.7z"/>
</svg>
