<?xml version="1.0" encoding="utf-8"?>
<!-- Generator: Adobe Illustrator 18.0.0, SVG Export Plug-In . SVG Version: 6.00 Build 0)  -->
<svg version="1.2" baseProfile="tiny" id="Ebene_1" xmlns="http://www.w3.org/2000/svg" xmlns:xlink="http://www.w3.org/1999/xlink"
	 x="0px" y="0px" width="1133.9px" height="1133.9px" viewBox="0 0 1133.9 1133.9" xml:space="preserve">
<rect x="-0.1" y="0" width="1132.6" height="1134.6"/>
<g>
	<path d="M326.1,806.6l-56.4,8.9C295.1,820.8,320.5,823.2,326.1,806.6z"/>
</g>
<path fill="#FFFFFF" d="M1077.1,793.8c-3.9-10.9-30.6-33-51.4-56.2c6.1,1.8,13.7,2.9,23.7,2.9c42.1,0,24.3-18.2,16.7-25.2
	c-8.8-8.2-46.6-18.5-76.3-32.1c-9.8-16-20-29.7-29.7-33.9c-6.7-2.9-11.5,0.4-17.4,5.1c-16.4-10.4-32.3-19.1-43.1-19.3
	c-11.3-0.2-21.4,7.9-35.5,16.4c-4.8-8.7-9.5-19.2-10.3-25.5c-2.5-20.8,7.9-38.3,7.9-38.3s38.4-27,38.2-53.9
	c-0.2-26.6,0.7-37.9-9.2-38.5c-9.8-0.6-17.9,7.7-26,24.7c-19.6,41.3-17.2,35.1-27.4,43.8c-11.2,9.4-27.7-6.1-77-16.6
	c-59.7-12.8-96.9-11.9-147-27c-56.4-17-92.2-39.3-125.4-55.3c-29.1-14.1-89.4-30.7-103.9-44.2c-18.3-17.1-30.5-30.3-37.1-50.7
	c-4.4-13.5-15.1-27.5-15.1-27.5s10.4-2.1,51-21.6c40.6-19.5,94.7-34.5,89.1-47.2c-2.4-5.4-13.3-12.5-18.9-13.7
	c-5.5-1.3-34.6,3.4-51.5,5.1c-8,0.8-18.4,4.7-28.1,9.3c35.4-24.4,47.7-45.6,50.2-64.3c1.3-9.5-24,1.4-48.7,13.9
	c-16.4,8.2-35.5,15-51.1,27.2c-22.8,17.8-69.2,75-69.2,75s-3.6,8.2-15.8,14.7c-6.1,3.2-25.7,7.2-32.7,14
	c-15.9,15.7-10.9,26.6-24.2,38.3c-14.7,13-31.2,24.7-32.3,38.5c-1.1,14.2,12,20.5,12,20.5s6.7,20.5,26.4,26.7
	c13,4.1,24.6-5.7,40.9-1.5c8.7,2.3,24.8,7.2,43.3,8.9c16.2,1.5,29.2-3.7,37.4,2.3c35.6,25.9,11,53,15.4,74.8c0,0-30.4,48.9-46.9,55
	c-24.7,9.2-42.2-24.7-84-22.6c-48.6,2.4-72.8-28.6-102.1-22c-24.2,5.4-52.5,12.1-54.8,18.4c-5.6,15.9-10.9,24.5,28.1,26.9
	c18.8,1.2,36.9-6.2,58.4,0.1c7.1,2.1,15.9,8.3,25.8,13.5c-12.9,3.8-25.5,12.2-32.3,17.4c-7.6,5.8-30.6,15.8-27,20.9
	c3.6,5.1,15.5,13.7,26.2,12.1c11-1.6,33.8-0.3,47.7-7.9c9.5-5.3,32.3-10.7,52.2-12.7c16.9,10.4,32.2,18.9,61.6,15.2
	c24.2,11.1,51.2,21.5,60.4,5.8c3.7-6.4,10.8-14.4,19.4-22.9c11.2,5.9,20.4,21.5,49.2,31.3c29.3,10,96.5,15.6,146.6,14.6
	c57.2-1.2,81.9-22.1,119.2-9.7c14.4,4.8,40.9,55.3,84,67.3c53,14.7,72-3.7,90.9-12.6c18.9-8.9,48.9-37,73.8-37.7
	c24.8-0.8,70.3,31,83.5,48.8c13.2,17.8,7.3,35.9,43.9,50.6C1088.5,829.1,1080.7,803.8,1077.1,793.8z"/>
</svg>
