<?xml version="1.0" encoding="utf-8"?>
<!-- Generator: Adobe Illustrator 18.0.0, SVG Export Plug-In . SVG Version: 6.00 Build 0)  -->
<svg version="1.2" baseProfile="tiny" id="Ebene_1" xmlns="http://www.w3.org/2000/svg" xmlns:xlink="http://www.w3.org/1999/xlink"
	 x="0px" y="0px" width="1133.9px" height="1133.9px" viewBox="0 0 1133.9 1133.9" xml:space="preserve">
<g>
	<path d="M434.8,781.7c0.1-4.7-7.9,56.3-8.4,81.1c-0.2,7.4,1.2,40.4,1.2,40.4s14.5-20.6,16.9-25.9c2.4-5.3,1.2-43.2,1.2-43.2
		C446.9,802.1,434.8,781.7,434.8,781.7z"/>
	<path d="M534.6,785.4c-6-1.6-37.2-11.6-37.2-11.6s0,11,0,20.8c0,0-3.6,31.2-2.4,44.5c1.2,13.3,6,43.2,8.4,49c2.4,5.8,6,27.3,6,27.3
		s9.6-18.6,14.4-27.9c4.8-9.3,26.3-28.5,26.3-28.5s11.9-32.4,14.3-36.4c2.4-4,14.3-26.6,14.3-26.6l4.8-12.9
		C583.6,783,540.6,786.9,534.6,785.4z"/>
	<path d="M0,0v1133.9h1133.9V0H0z M784,597.5c0,0-8,32.7-8,41s4.8,19.2,4.8,19.2l-14.5,2.1c0,0-12.9,56.2-12.9,65.6
		c0,9.4,4.8,17,4.8,17l-8.1,1.2c0,0-8.1,36.1-9.7,44.6c-1.6,8.6-9.7,34.7-9.7,34.7s-4.8,34-4.8,45.6c0,11.6,3.2,32.8,3.2,32.8l6.5,9
		c0,0,11.3,6.6,16.1,7.5l-8.1,11.2c0,0,4.8,0.9,14.5,7.7c9.7,6.8,1.6,13,1.6,13s3.2,21.1,4.8,32.5c1.6,11.4-22.6,46.8-58.1,49.1
		c-35.6,2.3-57.9-5.6-62.2-13.2c0,0-11.9-15-6.4-25.9c0,0,3.9-14.4,6.3-19.6c2.4-5.2,0-17.1,0-21.9c0-4.9,15.4-13.4,28.4-55.5
		c13-42.1,14.2-65.4,15.4-76.5l-1.2-83.4c0,0-21.3,11.3-29.6,15c-8.3,3.7-17.3,17.2-19.3,27.2c-2,10-8,36.5-8,36.5l-9.5,5.1
		c0,0-2.4,21.1-5.9,26.5c-3.6,5.4-19,21.2-19,21.2s-2.4,39.4-6,49.7c-3.6,10.3-16.8,25.8-16.8,25.8s-19,14-23.8,17.1
		c-4.8,3.2-17.9,16.3-22.7,15.8c-4.8-0.5-14.4-3.9-14.4-3.9l-9.6-8.3c0,0-19.2,17.7-28.8,19.2c-9.6,1.5-33.7-15.6-33.7-15.6
		l-12.1-1.8c0,0,7.2,17.3,6,26.1c0,0-1.2,24.8-4.8,33.9c-3.6,9.2-10.9,27.5-16.9,30.9c-6,3.4-30.3,17.1-44.8,18.2
		c-14.6,1.1-55.9-13.3-53.5-29.8c2.4-16.4,13.4-49,21.9-63.9c8.5-14.9,23.1-27,23.1-27s19.4-32.5,23-75
		c3.6-42.4-14.6-80.3-13.3-90.4c1.2-10,3.6-37.5,3.6-37.5s-7.3-6.3-10.9-13.2c-3.6-6.9,8.5-57.9,9.7-61.8c1.2-3.9-7.3-16.2-7.3-16.2
		l8.5-20.9c0,0,1.2-35.9-1.2-44.2c-2.4-8.3-15.8-37.2-15.8-45.9c0-8.6,4.9-35.2,9.7-43.2c4.9-8.1,24.2-36.5,29.1-38.4
		c4.8-1.9,27.8-14.8,32.6-19.1c4.8-4.3,28.9-46.8,42.2-58.4c13.2-11.6,49.2-42,55.2-45.2c6-3.2,15.6-16.7,15.6-16.7
		s-12-22.9-18-29.5c-6-6.6-34.8-29.9-40.8-40.1c-6-10.3-16.8-71.5-19.3-82.2c-2.4-10.7-15-60.9-12.9-66.6c0,0,13.2-18.4,28-20.2
		c0,0,52.6,5.4,88.6,59.7c35.9,54.1,49,75.9,49,75.9s15.1-3.6,23.8-3c8.7,0.6,36.3-52.9,36.3-52.9s6.5-22.4,14.6-29.3
		c8.1-6.8,67.8-79,101.6-74.7c33.7,4.2,22.5,35.4,22.5,35.4s-4.8,10.5-6.4,15.7c-1.6,5.2-14.4,78.1-32.1,108.5
		c-17.7,30.5-38.7,44.8-45.1,55.6c-6.5,10.8-22.6,46.2-22.6,46.2s12.9,14.9,17.8,19.3c4.8,4.4,17.7,25.9,22.6,30.3
		c4.8,4.3,22.5,50.1,27.4,59.4c4.8,9.3,48.1,26.6,48.1,64.7S795.2,576,784,597.5z"/>
</g>
</svg>
