<?xml version="1.0" encoding="utf-8"?>
<!-- Generator: Adobe Illustrator 18.0.0, SVG Export Plug-In . SVG Version: 6.00 Build 0)  -->
<svg version="1.2" baseProfile="tiny" id="Ebene_1" xmlns="http://www.w3.org/2000/svg" xmlns:xlink="http://www.w3.org/1999/xlink"
	 x="0px" y="0px" width="1133.9px" height="1133.9px" viewBox="0 0 1133.9 1133.9" xml:space="preserve">
<g>
	<path d="M428.5,763.3c0.1-4.7-8.1,55-8.6,79.7c-0.2,7.4,1.2,40.4,1.2,40.4s14.7-18.4,17.2-23.3c2.5-4.9,1.2-42.9,1.2-42.9
		C440.7,785.4,428.5,763.3,428.5,763.3z"/>
	<path d="M492.2,764.5c0,0,0,11,0,20.8c0,0-3.7,30.6-2.5,44.1c1.2,13.5,6.1,44.1,8.6,50.3c2.5,6.1,6.1,28.2,6.1,28.2
		s9.8-17.2,14.7-25.7s27-24.5,27-24.5s12.3-30.6,14.7-34.3c2.5-3.7,14.7-24.5,14.7-24.5l4.9-12.3c0,0-44.1-2.5-50.3-4.9
		S492.2,764.5,492.2,764.5z"/>
	<path d="M0,0v1133.9h1133.9V0H0z M788.2,629c0,0-8.4,31.9-8.4,40.3s5,20.1,5,20.1h-15.1c0,0-13.4,54.9-13.4,64.4
		c0,9.5,5,17.9,5,17.9h-8.4c0,0-8.4,35.3-10.1,43.7c-1.7,8.4-10.1,33.6-10.1,33.6s-5,33.6-5,45.3c0,11.8,3.4,33.6,3.4,33.6l6.7,10.1
		c0,0,11.8,8.4,16.8,10.1l-8.4,10.1c0,0,5,1.7,15.1,10.1c10.1,8.4,1.7,13.4,1.7,13.4s3.4,21.8,5,33.6c1.7,11.8-23.5,43.7-60.4,40.3
		c-36.9-3.4-60-14.9-64.5-23.3c0,0-12.3-17-6.6-27.1c0,0,4-13.8,6.5-18.7c2.5-4.9,0-17.2,0-22.1s15.9-11,29.4-51.5
		c13.5-40.4,14.7-63.7,15.9-74.8l-1.2-84.2c0,0-22.1,8.2-30.6,10.7s-17.9,14.7-20,24.5c-2.1,9.8-8.2,35.5-8.2,35.5l-9.8,3.7
		c0,0-2.5,20.8-6.1,25.7c-3.7,4.9-19.6,18.4-19.6,18.4s-2.5,39.2-6.1,49c-3.7,9.8-17.2,23.3-17.2,23.3s-19.5,11-24.4,13.5
		s-18.4,13.5-23.3,12.3s-14.7-6.1-14.7-6.1l-9.8-9.8c0,0-19.6,14.7-29.4,14.7s-34.3-20.8-34.3-20.8l-12.3-3.7c0,0,7.4,18.4,6.1,27
		c0,0-1.2,24.5-4.9,33.1s-11,25.7-17.2,28.2s-30.6,12.3-45.4,11c-14.7-1.2-56.4-22.1-53.9-38c2.5-15.9,13.5-46.6,22.1-60.1
		c8.6-13.5,23.3-23.3,23.3-23.3s19.6-29.4,23.3-71.1c3.7-41.7-14.7-82.1-13.5-91.9c1.2-9.8,3.7-36.8,3.7-36.8s-7.4-7.4-11-14.7
		c-3.7-7.4,8.6-56.4,9.8-60.1c1.2-3.7-7.4-17.2-7.4-17.2l8.6-19.6c0,0,1.2-35.5-1.2-44.1s-15.9-39.2-15.9-47.8s4.9-34.3,9.8-41.7
		c4.9-7.4,24.5-33.1,29.4-34.3s28.2-11,33.1-14.7c4.9-3.7,29.4-42.9,42.9-52.7c13.5-9.8,50.3-35.5,56.4-38s15.9-14.7,15.9-14.7
		s-12.3-24.5-18.4-31.9s-35.5-34.3-41.7-45.4c-6.1-11-17.2-73.5-19.6-84.6c-2.5-11-15.3-62.6-13.1-68.1c0,0,13.4-16.8,28.5-16.8
		c0,0,53.7,11.8,90.7,70.5c36.9,58.8,50.4,82.3,50.4,82.3s15.6-1.7,24.6,0c9,1.7,37.5-48.7,37.5-48.7s6.7-21.8,15.1-27.7
		c8.4-5.9,70.5-71.4,105.8-63c35.3,8.4,23.5,38.6,23.5,38.6s-5,10.1-6.7,15.1c-1.7,5-15.1,77.2-33.6,105.8
		c-18.5,28.5-40.3,40.3-47,50.4s-23.5,43.7-23.5,43.7s13.4,16.8,18.5,21.8c5,5,18.5,28.5,23.5,33.6c5,5,23.5,53.7,28.5,63.8
		s50.4,33.6,50.4,72.2S799.9,608.9,788.2,629z"/>
</g>
</svg>
