<?xml version="1.0" encoding="UTF-8" standalone="no"?>
<!-- Created with Inkscape (http://www.inkscape.org/) -->

<svg
   xmlns:dc="http://purl.org/dc/elements/1.1/"
   xmlns:cc="http://creativecommons.org/ns#"
   xmlns:rdf="http://www.w3.org/1999/02/22-rdf-syntax-ns#"
   xmlns:svg="http://www.w3.org/2000/svg"
   xmlns="http://www.w3.org/2000/svg"
   xmlns:sodipodi="http://sodipodi.sourceforge.net/DTD/sodipodi-0.dtd"
   xmlns:inkscape="http://www.inkscape.org/namespaces/inkscape"
   version="1.1"
   width="450"
   height="900"
   id="svg2"
   inkscape:version="0.48.5 r10040"
   sodipodi:docname="Schneehasen-Shapes-Final-with-shape-scaling.svg">
  <sodipodi:namedview
     pagecolor="#ffffff"
     bordercolor="#666666"
     borderopacity="1"
     objecttolerance="10"
     gridtolerance="10"
     guidetolerance="10"
     inkscape:pageopacity="0"
     inkscape:pageshadow="2"
     inkscape:window-width="966"
     inkscape:window-height="692"
     id="namedview3366"
     showgrid="false"
     inkscape:zoom="0.63429568"
     inkscape:cx="282.04722"
     inkscape:cy="337.7217"
     inkscape:window-x="61"
     inkscape:window-y="16"
     inkscape:window-maximized="0"
     inkscape:current-layer="svg2"
     units="px"
     showguides="true"
     inkscape:guide-bbox="true"
     inkscape:showpageshadow="false"
     fit-margin-top="0"
     fit-margin-left="0"
     fit-margin-right="0"
     fit-margin-bottom="0">
    <sodipodi:guide
       orientation="0,1"
       position="35.0,35.0"
       id="guide3453" />
    <sodipodi:guide
       id="guide3513"
       position="35.0,35.0"
       orientation="1,0" />
    <sodipodi:guide
       orientation="1,0"
       position="415.0,35.0"
       id="guide3515" />
    <sodipodi:guide
       id="guide3517"
       position="35.0,415.0"
       orientation="0,1" />
    <sodipodi:guide
       orientation="0,1"
       position="35.0,485.0"
       id="guide3519" />
    <sodipodi:guide
       id="guide3521"
       position="35.0,865.0"
       orientation="0,1" />
  </sodipodi:namedview>
  <defs
     id="defs4" />
  <metadata
     id="metadata7">
    <rdf:RDF>
      <cc:Work
         rdf:about="">
        <dc:format>image/svg+xml</dc:format>
        <dc:type
           rdf:resource="http://purl.org/dc/dcmitype/StillImage" />
        <dc:title></dc:title>
      </cc:Work>
    </rdf:RDF>
  </metadata>
  <path
     inkscape:connector-curvature="0"
     style="fill:#000000;fill-opacity:1;fill-rule:nonzero;stroke:none"
     id="path1111"
     d="M 407.39627,450.16327 C 431.00078,450.16327 450,469.164 450,492.75948 l 0,364.65298 c 0,23.59558 -18.99922,42.58752 -42.60373,42.58752 l -364.792565,0 C 18.999179,899.99998 0,881.00804 0,857.41246 L 0,492.75948 C 0,469.164 18.999179,450.16327 42.603705,450.16327 L 407.39627,449.82799 C 431.00078,449.82799 450,430.83606 450,407.24058 L 450,42.587398 C 450,18.991819 431.00081,-2e-5 407.39627,-2e-5 l -364.792565,0 C 18.999179,-2e-5 0,18.991819 0,42.587398 L 0,407.24058 c 0,23.59548 18.999179,42.58741 42.603705,42.58741" />
  <g
     id="layer1"
     transform="matrix(0.29816548,0,0,0.29816548,736.76507,278.82998)">
    <g
       transform="matrix(1.25,0,0,-1.25,-2402.9294,4832.9017)"
       id="g3012">
      <path
         inkscape:connector-curvature="0"
         style="fill:#ffffff;fill-opacity:1;fill-rule:nonzero;stroke:none"
         id="path3026"
         d="m 551.485,6053.0894 c -0.667,-4 -27.333,-16 -31.333,-16 -4,0 -30.334,-9 -30.334,-9 0,0 -11.333,9.333 -14,10.667 -2.666,1.333 -14,8 -16,10 -2,2 -9.333,2.666 -11.333,4.666 -2,2 -4,6 -6.667,7.334 -2.666,1.333 -7.333,3.333 -7.333,3.333 l 18.333,31 c 0,0 23.334,-2.667 35.334,-2.667 12,0 27.333,1.334 27.333,1.334 l 22,-6.667 c 0,0 14.667,-30 14,-34 m -153.333,58 c -2,-3.333 -21,-39.667 -23.667,-41 -2.667,-1.333 -18.667,-2 -24,-2 -5.333,0 -12.291,8.009 -12,12.667 0.667,10.666 41,45 41,45 l 1.333,-6 7.334,4.666 c 0,0 12,-10 10,-13.333 m 558.428,124.489 c -0.555,5.955 -1.164,8.463 -1.941,11.779 -0.802,3.624 -1.649,6.6 -2.205,7.891 -1.666,3.873 -5.438,8.906 -7.048,12.115 -1.611,3.209 -17.747,25.747 -22.317,42.266 -2.894,10.46 -1.868,26.21 -3.975,31.108 -2.5,5.81 -1.509,9.909 -13.76,20.244 -12.25,10.336 -27.439,23.767 -29.713,26.92 -2.275,3.152 -2.612,7.138 -1.126,13.285 1.486,6.148 11.59,44.806 12.951,60.31 1.362,15.504 20.834,46.259 20.271,52.901 -0.563,6.643 -0.04,28.097 -14.863,17.474 -13.016,-9.329 -36.489,-35.208 -36.489,-35.208 -1.61,3.209 -3.103,25.614 -5.547,30.759 -2.443,5.146 -9.286,20.562 -12,21 -2.713,0.439 -11.067,-3.614 -11.067,-3.614 -3.04,-3.603 -26.508,-39.898 -36.933,-76.386 -8,-28 1.822,-70.909 1,-77 -0.821,-6.091 -10.623,-7.265 -19,-15 -8.376,-7.735 -15,-22 -29,-31 -11.955,-7.685 -20.533,-3.275 -29,-6 -8.466,-2.725 -58,23 -69.333,29 -11.333,6 -59.333,23.334 -76.667,28.667 -17.333,5.333 -78,18 -93.333,18.667 -15.333,0.666 -58.667,-0.667 -83.333,-2 -24.667,-1.334 -52,-8 -66.667,-10.667 -14.667,-2.667 -51.333,-25.333 -56.667,-28 -0.728,-0.364 -2.019,-1.466 -3.711,-3.104 -10.997,-5.057 -21.429,-9.963 -24.572,-11.789 -4.974,-2.889 4.74,2.267 19.921,7.029 -12.337,-13.103 -33.279,-38.103 -36.304,-42.136 -4,-5.333 -22.667,-24 -26,-44 -3.334,-20 -6.667,-56 -6.667,-58 0,-2 -1.333,-10.333 -2.667,-13.667 0,0 -32,-15 -45,-33 -13,-18 9,-34 22,-37 7.263,-1.676 37.5,-8.5 46,-8 8.5,0.5 19.415,4.398 24,8 7,5.5 22,11 22,11 0,0 21,-10.666 23.667,-11.333 2.667,-0.667 17.333,1.333 20.667,-1.333 3.333,-2.667 2.666,-8 0.666,-10.667 -2,-2.667 -19.578,-30.328 -27,-33.667 -6.085,-2.737 -16.333,-16 -12,-27 4.334,-11 27,-21 17,-14 -10,7 41,-26.333 57,-31.666 5.895,-1.965 9.276,-2.778 17,-3.334 -1.152,-1.989 -7.129,-14.117 -6,-16 3,-5 21,-13 35,-13 14,0 53,-6 58,-8 3.82,-1.528 28.651,-10.059 40.159,-14.001 6.34,-2.551 11.508,-4.665 11.508,-4.665 0,0 -22.667,-16.334 -24.667,-18.334 -2,-2 -12.666,-2.666 -14.666,-4.666 -2,-2 -8.667,-12 -9.334,-15.334 -0.666,-3.333 2.334,-16.666 5,-20 2.667,-3.333 7.334,-13 14,-13 6.667,0 26.334,6 29,8 2.667,2 24.955,26.461 29,30 8,7 21.667,15.334 21.667,15.334 0,0 5.333,-3.334 8.667,-4.667 3.333,-1.333 26,-4.667 28,-5.333 2,-0.667 8.666,3.333 8.666,3.333 l 10,7.333 6.667,2 4.667,4 -0.667,3.334 2.333,3.666 c 0,0 -1.666,3.667 -1.666,7.667 0,4 -18.334,14.333 -18.334,14.333 0,0 7.334,10 10,14 2.667,4 -1.666,17.667 -1,20.334 0.667,2.666 32,12 39.334,14.666 7.333,2.667 70.666,5.667 88.666,11 18,5.334 48,35 48,35 10.667,10 13.334,35.334 23.334,44.667 4.379,4.087 2.125,36.743 17.666,39.333 12,2 63.292,30.564 63.292,30.564 0,0 5.103,2.942 11.495,4.488 6.888,1.665 15.183,0.45 18.89,2.103 3.269,1.457 8.514,8.081 10.62,6.922 1.053,-0.58 3.738,-0.687 6.962,-0.246 3.225,0.44 7.066,0.501 10.197,3.039 1.223,1.355 2.374,4.818 4.022,2.808 0.926,-2.21 1.37,1.366 2.066,1.941 1.19,-5.238 1.901,-4.857 2.037,2.191 -0.054,9.292 2.034,-6.822 1.958,2.361 0.614,1.045 0.642,8.772 1.831,2.451 0.598,0.646 1.828,-6.506 1.652,2.46 0.777,-2.266 0.481,7.666 1.426,2.388 -0.264,8.991 0.907,0.476 1.15,2.237 0.369,0.276 0.688,0.454 0.825,2.003 0.618,3.226 0.668,6.146 0.339,9.446" />
      <path
         inkscape:connector-curvature="0"
         style="fill:#ffffff;fill-opacity:1;fill-rule:nonzero;stroke:none"
         id="path3030"
         d="m 1253.652,6066.1729 c 0,0 -1,3.5 -1,7 0,3.5 -1.5,5 1,12.5 2.5,7.5 7,20 11,26 4,6 13.5,23.5 13.5,23.5 l 10.833,17.333 c 2,3 4.334,11 8.334,17 4,6 7.333,14.667 12.666,24 5.334,9.334 18,26 23,29.334 5,3.333 20.667,6.333 24.667,6.333 4,0 14,-4.667 15.667,-4.667 1.666,0 11,1.667 12.666,2 1.667,0.334 6.667,-2.666 8.334,-3.333 1.666,-0.667 15,2.333 22.666,5.333 7.667,3 13,20 19,27 6,7 14,27.334 14.334,28.667 0.333,1.333 -0.667,9.333 0.333,9.667 1,0.333 7.333,23.333 8.333,25 1,1.666 2,11 4,16.666 2,5.667 17.667,23.667 23.334,34.334 0.128,0.241 0.244,0.499 0.369,0.746 -14.3,5.818 -35.036,19.587 -35.036,19.587 0,0 29,22 46,25 l 17.851,0.923 c 0.045,0.031 0.092,0.063 0.136,0.094 3.722,2.539 6.857,4.546 8.013,5.316 0,0 22,12.334 35.667,16 13.666,3.667 40,7 45.666,8.334 5.667,1.333 33,0.666 39.334,0.666 6.333,0 23,-2.666 31,-3.333 8,-0.667 17.333,-3.333 23.666,-5 6.334,-1.667 41,-16.333 48.667,-19 7.667,-2.667 15,-3.667 21.667,-6 6.666,-2.333 37.333,-16.667 46,-20 8.666,-3.333 74.333,-29 74.333,-29 0,0 6,-1.333 8.333,-1.667 2.334,-0.333 14,-4.666 15.667,-5.333 1.667,-0.667 17.167,-2.5 22.5,-3.5 5.333,-1 21.167,-9.5 21.167,-9.5 0,0 8.333,3.333 11,3.667 2.666,0.333 10.333,-1.334 10.333,-1.334 0,0 2.667,2.667 4,4 1.333,1.334 8.667,5.667 8.667,5.667 7.333,3 12.666,11.333 12.666,11.333 l -1.666,2.334 -2.334,2.666 8.334,-3.666 -6.334,8.666 5.334,-4.333 -2,5.667 6.666,-8 c 0,0 -1.901,6.026 -1.333,10 1,7 5.333,23.666 5.667,26.333 0.333,2.667 -1,11 -1.334,14.667 -0.333,3.666 8.853,41.177 11.186,47.844 2.333,6.666 15.481,26.156 16.481,27.822 1,1.667 2,8.334 4,13 2,4.667 -0.333,14 0.853,20.844 0.433,2.501 2.48,5.49 2.48,5.49 2,0.666 7.334,-2 12,-2.667 4.667,-0.667 9.52,-7.823 12.853,-10.823 3.333,-3 12,-22 13,-27 1,-5 -0.104,-28.502 -0.186,-34.844 -0.333,-25.666 -6,-46.333 -6,-46.333 0,0 10.851,3.849 15.517,8.516 2.415,2.414 2.375,2.112 2.276,1.922 0.119,0.181 0.495,0.718 1.506,2.061 3.615,4.801 27.201,35.127 32.201,39.001 5,3.874 9.652,9.745 12.151,11.681 2.5,1.937 9.199,4.994 14.436,7.184 5.237,2.191 20.853,-2.045 20.853,-2.045 0,0 -0.903,-5.25 -1.94,-6.32 -1.037,-1.07 -4.498,-10.411 -5,-12 -0.502,-1.589 -4.829,-11.066 -4.045,-7.258 0.783,3.807 -2.793,-10.165 -2.793,-10.165 -1.115,-2.864 -8.515,-13.929 -11.17,-19.452 -2.654,-5.524 -11.276,-23.447 -14.492,-28.125 -5.5,-8 -10.081,-16.727 -13.167,-21 -4.333,-6 -7,-10.667 -9.666,-12.667 -2.667,-2 -17,-13.333 -17,-13.333 0,0 8,-8 11,-12.333 3,-4.334 4.333,-11 10.333,-20.334 18,-21.333 22.5,-55.333 23,-58.333 0.5,-3 12.046,-24.044 12.046,-24.044 l 14.704,12.294 -14.415,-13.213 c 0.222,-0.671 0.443,-1.261 0.665,-1.704 0.039,-0.079 0.087,-0.169 0.131,-0.254 l 9.619,4.921 -9.25,-5.5 -0.066,0 c 1.556,-2.918 4.566,-7.958 4.566,-9.167 0,0 5.333,-11 -9.333,-23.666 -4.82,-4.163 -15.334,-7 -15.334,-7 0,0 -10.333,-8 -16.333,-12.334 -6,-4.333 -44.333,6.334 -50,1.667 -5.667,-4.667 -14.667,-7.667 -18,-14 -3.333,-6.333 -9,-18.333 -11.333,-23.333 -2.334,-5 -5.334,-32.334 -8.667,-39.667 -3.333,-7.333 -15.333,-27 -18.333,-31 -2.372,-3.162 -22.957,-12.254 -29.259,-14.198 0.717,-3.037 -4.075,-16.635 -4.075,-16.635 0,0 -8.666,-18.834 -7.333,-24.5 1.333,-5.667 5,-15.667 5.667,-18.667 0.666,-3 14.666,-27.667 17.333,-32.333 2.667,-4.667 30.333,-47 31.667,-50.667 1.333,-3.667 13.666,-19.667 14.666,-20.667 1,-1 5.667,-1.333 8.667,-2 3,-0.666 13,-3 16,-3.333 3,-0.333 19.667,-0.333 22,-0.667 2.333,-0.333 7.667,-4.666 11.667,-7.666 4,-3 8.333,-8 10.666,-10 2.334,-2 8.667,-4.667 9.667,-10.834 0.293,-1.809 -4.667,0 -4.667,0 l 3.667,-3.333 c -1,-3.333 -4.667,-4.333 -4.667,-4.333 0,0 -5.333,-0.167 -9.333,-0.167 -4,0 -8,0.833 -10.333,0.833 0,0 -13.667,8.167 -24.667,8.167 -11,0 -48.667,3.833 -48.667,3.833 -2,0.667 -5,-0.666 -8.333,0 -3.333,0.667 -9.5,10.167 -9.5,10.167 0,0 -47.988,66.488 -58.5,77 -8.537,8.537 -21.12,14.546 -29.833,22.703 1.116,-4.427 1.956,-8.463 2.233,-11.782 0.688,-8.256 -2.503,-20.819 5.933,-30.588 12.667,-14.666 34.667,-7.333 42.064,-18.91 13.337,-20.872 21.27,-35.756 4.603,-34.423 -9.574,0.766 -26.733,5.076 -54,23.333 -18.424,12.336 -31.333,6 -38,21.334 -7.018,16.141 1.853,59.107 -14.598,94.751 -7.185,15.569 -15.326,34.482 -22.515,51.591 -4.631,2.249 -10.516,5.426 -17.983,9.906 -29.998,17.999 -94.495,61.497 -119.994,76.496 -24.29,14.289 -74.91,35.256 -74.91,35.256 l -5.333,-4 -2.667,-1.334 c 0,0 -11.333,-6 -14.667,-7 -3.333,-1 -18,-0.666 -27.666,-1.666 -9.667,-1 -15.334,-3.667 -19,-4 -3.667,-0.334 -28.334,-3 -28.334,-3 0,0 -4.666,-5 -9,-5.667 -4.333,-0.667 -27,0.667 -27,0.667 0,0 -10,-3 -17.666,-7 -7.667,-4 -20.334,-17 -23.667,-20.334 -3.333,-3.333 -14.667,-22.333 -16,-26 -1.333,-3.666 -11,-24.666 -13.333,-29 -2.334,-4.333 -5.334,-10.333 -7.334,-13.666 -2,-3.334 -11.666,-25 -14.333,-30.334 -2.667,-5.333 -17.333,-44.333 -18.333,-47.333 -1,-3 -5,-6.667 -6.334,-7.333 -1.333,-0.667 -4.666,0.333 -4.666,0.333 l -1.334,2.667 -4.666,-3 -1.667,3 -1,2 -3,1.666 -2.667,3.334 0.667,2.666 -3.667,0 -3.333,4.334 -4,5 -1.667,9.333 -1,8 c 0,0 -0.666,6.333 -0.666,8.333 0,2 2.666,5.667 2.666,5.667 l 0,8.333 c 0,0 -0.833,2.167 0.667,8.667 1.5,6.5 2,18 11.5,35 9.5,17 20.833,40.667 20.833,40.667 l 3.334,1.333 c 0,0 4,7.333 5.333,9 1.333,1.667 5.667,6.667 6.667,8.333 1,1.667 3,8.334 4.666,10.667 1.667,2.333 6,11 6,11 0,0 -6.666,0.333 -12.333,0 -5.667,-0.333 -16,-3.333 -22.667,-6.333 -6.666,-3 -18,-14.334 -25,-22.334 -7,-8 -20.333,-48.666 -23,-53 -2.666,-4.333 -28.333,-57 -28.666,-57.666 -0.334,-0.667 -8,-3 -9,-3.667 -1,-0.667 -8.334,-15 -11.334,-17 -3,-2 -11.666,-5.667 -13.333,-6 -1.667,-0.333 -3.333,2.667 -5.333,5 -2,2.333 2.666,6 2.666,6 0,0 -5.333,-1.667 -6.333,-0.333 0,0 -1.144,1.539 -2.666,4.332 l 0,10e-4 0,0 c -2.253,4.136 -5.341,11.047 -6.833,20 -2.5,15 7.5,22 7.5,22" />
      <path
         sodipodi:nodetypes="ccccccccsccccccccccccccccccccccsccsccccssccccccscccccsscsscscsccccssccscccccscsscsscscccccccccccccccscc"
         inkscape:connector-curvature="0"
         id="path3034"
         d="m 3130.7435,6596.7964 c -0.6406,-0.054 -1.2251,-0.3249 -1.725,-0.825 -2.667,-2.666 -7.217,-23.109 -9.325,-27.325 -2.666,-5.333 -10,-28 -10,-28 0,0 -6.675,5.992 -10.675,9.325 -4,3.334 -25.325,20.658 -27.325,21.325 -2,0.666 -4.009,-2.658 -6.675,-5.325 0,0 -3.334,-10.666 -4,-14 -0.667,-3.333 0.683,-49.992 1.35,-61.325 0.667,-11.333 3.983,-17.341 6.65,-28.675 2.666,-11.333 7.333,-20.658 8,-29.325 0.666,-8.667 -8.65,-28 -8.65,-28 0,0 -24.01,1.58 -43.35,2 -30.667,0.667 -85.334,-46.008 -106,-54.675 -20.667,-8.666 -108,-43.342 -122,-46.675 -14,-3.334 -40,-4.65 -40,-4.65 -46,3.333 -101.317,10.667 -136.65,-8 -4.53,-2.393 -18.486,-9.861 -24.25,-12.25 -7.0912,-2.94 -5.5071,-2.826 -5.25,-2.85 -0.041,-0.022 -0.1736,-0.07 -0.55,-0.175 -1.292,-1.958 -3.13,-3.329 -9.95,-2.725 2.9719,-3.4131 1.1873,-4.9595 -11.1,-4.475 1.6821,9.4918 3.3948,19.0533 2.2,22.5 -2.363,6.813 -1.076,24.192 -28.6,1.225 -22.394,-18.687 -26.747,-42.533 -26.9,-59.175 -0.1083,-11.7488 4.2388,-21.5226 15.775,-32.6 -5.0708,-30.9505 1.5938,-67.6214 -4.775,-92.225 -3.407,-13.164 -15.275,-39.925 -15.275,-39.925 0,0 -18.675,-20.658 -24.675,-23.325 -6,-2.667 -9.991,-1.333 -15.325,-4 -5.333,-2.667 -9.333,-21.333 -10,-28 -0.666,-6.667 -18.666,-26.008 -24,-30.675 -5.333,-4.666 -33.657,-19.239 -40,-24.675 -7,-6 -5.325,-29.658 -7.325,-34.325 0,0 -5.667,-18 -6,-27 -0.333,-9 -12.675,-28 -12.675,-28 -1.333,-3.333 -7.666,-13.675 -5,-19.675 2.667,-6 2.325,-11.65 20.325,-5.65 12.206,4.069 19.009,11.65 22.675,15.65 2.426,2.646 13.342,17.675 14.675,19.675 1.333,2 6.667,17.325 10,25.325 3.333,8 25.325,28.675 25.325,28.675 0,0 -2.009,-5.325 -2.675,-7.325 -0.667,-2 4.009,-11.333 6.675,-14 2.667,-2.667 20.675,-2 20.675,-2 0,0 16.667,33.316 18,36.65 1.333,3.333 4,21.35 4,21.35 0,0 20,10 26,12 6,2 19.983,4 26.65,6 6.666,2 32,15.325 32,15.325 0,0 8.666,-2.675 14,-0.675 5.333,2 15.342,10.666 22.675,18 7.334,7.333 32.667,35.333 42,42 9.334,6.666 30,2.675 34,2.675 4,0 19.342,12.008 22.675,14.675 3.333,2.667 14.659,-4.017 25.325,-5.35 10.667,-1.334 68,4 90,4 22,0 49.508,4 78.675,8 29.167,4 91,37 91,37 0,0 15.994,-15.489 25.075,-18.075 9.081,-2.586 38.506,16.554 47.75,19.075 14.666,4 40.825,8 50.825,12 10,4 71.35,35 71.35,35 0,0 5.316,-2.325 8.65,-4.325 3.333,-2 6.675,-24 6.675,-24 0,0 8.658,-12.675 11.325,-16.675 2.666,-4 17.333,-11.325 20,-11.325 2.666,0 10.017,12.008 11.35,22.675 1.333,10.667 -0.675,32.65 -0.675,32.65 l -10.325,17.35 c 0,0 7.325,1.325 13.325,3.325 6,2 15,4.675 15,4.675 15.667,1.333 16,9.5 17,13 0.358,1.251 9.508,3.833 -1.325,9 -7.26,3.462 -22.508,7.833 -33.675,9 -11.166,1.167 -38.675,1 -38.675,1 0,0 -8.65,2.667 -20.65,4 -12,1.333 -56.675,-8.675 -56.675,-8.675 0,0 0.675,10.008 0.675,12.675 0,2.667 5.325,15.325 9.325,21.325 4,6 9.342,23.334 17.675,26 8.781,2.81 29.659,-2.675 32.325,-2.675 2.667,0 13.427,4.231 16,6.35 5.667,4.667 11.675,16.65 11.675,16.65 0,0 6.333,2 9,6 0.282,0.423 0.471,0.97 0.6,1.575 2.23,0.484 5.321,1.05 9.625,1.675 -3.991,-0.179 -7.085,-0.351 -9.475,-0.525 0.064,0.857 0.033,1.798 -0.075,2.825 1.457,1.041 4.85,3.05 12.6751,6.55 -6.6021,-2.197 -10.6171,-3.674 -12.9501,-4.625 -0.903,5.175 -3.157,11.301 -4.4,14.2 -2,4.667 -11.35,19.991 -13.3499,21.325 -2,1.333 -4.334,5.342 -12,14.675 -7.6671,9.334 -4.658,26 -12.3251,34 -7.666,8 -31.666,22 -35,24 -3.3329,2 -6.666,6.658 -8,9.325 -1.3329,2.666 2.667,6.675 6,12.675 3.334,6 5.325,28.675 5.3251,30.675 0,2 0.01,20 0.6749,24 0.6671,4 -4,41.325 -6,45.325 -2,4 -16.009,33.991 -22.6749,41.325 -5.417,5.958 -9.4993,9.7308 -12.2751,9.5 z"
         style="fill:#ffffff;fill-opacity:1;fill-rule:nonzero;stroke:none" />
      <path
         inkscape:connector-curvature="0"
         style="fill:#ffffff;fill-opacity:1;fill-rule:nonzero;stroke:none"
         id="path3038"
         d="m 4322.584,6371.394 c -0.126,3.406 -5.482,18.243 -8.705,21.429 -3.221,3.187 -23.988,14.461 -32.027,24.134 -8.039,9.674 -30.582,37.813 -40.574,40.301 -9.991,2.487 -28.984,2.685 -35.289,6.214 -6.304,3.528 -27.813,10.474 -27.813,10.474 0,0 -2.699,89.914 -6.328,107.469 -3.629,17.554 -20.012,86.951 -39.848,90.735 -4.395,0.838 -19.119,-26.151 -27.013,-34.17 -5.845,6.219 -11.616,10.236 -16.774,10.29 -5.711,0.061 -19.175,-33.107 -22.743,-40.465 -11.47,-23.655 10.206,-54.719 18.53,-77.655 6.569,-18.101 14.304,-65.153 21.969,-85.099 -9.097,-22.218 -21.892,-50.641 -28.406,-56.574 -10.555,-9.616 -90.528,-34.53 -98.785,-38.188 -8.256,-3.658 -32.868,-19.895 -46.199,-19.679 -13.332,0.218 -65.391,0.849 -117.218,-18.017 -71.152,-25.901 -120.109,-78.955 -140.913,-97.906 -8.445,-7.692 -43.395,-64.813 -49.946,-83.914 -4.573,-13.336 -5.078,-51.256 -4.268,-78.608 -16.619,11.368 -31.234,25.176 -31.234,25.176 0,0 -19.135,-42.302 -3,-67.191 4.006,-6.18 33.712,-27.049 49.078,-32.733 5.37,-16.48 7.258,-17.277 14.035,-25.2 11.886,-13.896 24.494,-20.953 28.876,-22.37 4.381,-1.417 24.205,-1.128 24.205,-1.128 0,0 1.109,-8.979 4.955,-13.202 3.847,-4.222 71.188,-3.593 82.408,-5.733 11.221,-2.14 33.128,-9.226 39.273,-7.491 6.146,1.735 25.782,-2.011 25.97,2.023 0.188,4.035 11.727,-8.632 16.296,-6.015 4.569,2.617 27.199,2.37 32.997,5.335 5.799,2.964 19.16,12.044 19.001,17.308 -0.159,5.263 -13.604,12.971 -17.45,17.194 -3.846,4.222 -10.728,13.687 -16.685,15.986 -5.958,2.299 -69.3,13.855 -69.3,13.855 0,0 2.841,35.471 14.52,36.066 20.61,1.052 70.84,7.167 78.772,7.785 12.985,1.012 25.937,5.996 30.506,8.613 4.569,2.617 29.218,6.311 29.218,6.311 0,0 0.836,-8.177 6.605,-14.511 5.769,-6.333 36.245,-30.799 36.245,-30.799 0,0 26.042,-31.133 32.346,-34.661 6.305,-3.529 15.79,0.477 15.79,0.477 0,0 25.912,-16.572 37.826,-21.17 11.915,-4.599 51.723,-9.284 56.639,-7.897 4.916,1.389 21.777,7.475 21.777,7.475 0,0 0.217,13.332 -6.088,16.861 -6.304,3.528 -9.239,18.624 -19.23,21.112 -9.992,2.487 20.012,4.322 23.699,5.363 3.688,1.041 15.126,12.233 15.126,12.233 0,0 18.783,3.976 17.742,7.663 -1.041,3.688 -26.606,19.03 -32.751,17.295 -6.146,-1.735 -31.927,0.276 -35.426,3.269 -3.499,2.993 -22.413,13.578 -26.071,21.835 -3.658,8.256 -40.339,46.099 -40.339,46.099 0,0 18.579,11.138 24.913,16.907 6.334,5.769 29.05,33.416 33.46,41.297 4.411,7.88 11.555,48.381 16.313,55.033 4.757,6.651 19.97,46.777 27.185,54.122 7.216,7.345 69.722,56.523 76.75,59.834 7.027,3.311 33.561,17.438 39.359,20.402 5.799,2.964 22.153,15.544 23.223,21.154 0.852,4.466 -0.016,14.032 -0.531,16.611 1.165,0.244 5.453,5.75 5.347,8.636" />
      <path
         inkscape:connector-curvature="0"
         style="fill:#ffffff;fill-opacity:1;fill-rule:nonzero;stroke:none"
         id="path3042"
         d="m 4890.3701,6314.5918 c -1.765,2.941 -3.658,5.458 -3.92,13.278 -27.49,5.149 -53.964,15.485 -53.964,15.485 l 53.913,-12.589 c 0,3.818 0.272,7.683 0.94,11.224 l -24.329,3.835 c -17.129,1.58 -35.05,4.285 -35.05,4.285 0,0 23.362,-1.706 30.339,-1.901 6.976,-0.195 29.514,-4.032 29.514,-4.032 0.807,3.251 2.507,8.078 4.626,13.504 -4.39,3.228 -18.435,12.297 -26.894,17.719 11.71,-6.935 28.096,-14.634 28.096,-14.634 l -0.011,-0.082 c 5.661,14.08 19.311,21.652 21.868,25.942 3.762,6.311 13.794,28.225 16.262,35.516 2.467,7.29 8.331,25.404 12.353,30.749 9.005,11.966 18.419,17.602 29,24.855 10.581,7.253 25.406,14.486 28.659,16.094 3.253,1.607 21.114,9.313 26.64,11.234 5.526,1.922 19.479,1.533 19.479,1.533 0,0 23.197,33.319 27.116,38.493 3.918,5.175 7.561,20.736 9.872,29.163 2.311,8.427 34.952,48.843 41.144,54.331 6.192,5.488 42.721,9.375 46.445,7.573 3.723,-1.803 7.567,-12.855 7.372,-19.831 -0.195,-6.977 -19.512,-43.235 -23.587,-47.273 -4.075,-4.038 -9.363,-24.459 -9.363,-24.459 0,0 20.22,21.325 27.078,30.381 6.857,9.055 64.938,41.4 71.444,44.616 6.505,3.215 52.403,-2.029 57.42,-4.811 5.018,-2.782 10.311,-15.95 10.311,-15.95 0,0 -16.377,-32.378 -20.139,-38.689 -3.761,-6.311 -37.069,-50.293 -38.871,-54.017 -1.802,-3.724 -26.375,-18.701 -30.607,-21.602 -4.233,-2.901 -12.892,-15.68 -18.104,-19.875 -5.213,-4.194 -29,-24.854 -33.741,-32.459 -4.741,-7.605 -5.52,-35.511 -5.52,-35.511 0,0 45.918,-27.617 60.462,-40.666 14.543,-13.05 61.888,-111.321 65.33,-119.353 3.442,-8.032 42.548,-47.298 54.022,-69.099 11.475,-21.801 26.644,-75.237 31.233,-95.89 4.59,-20.653 3.779,-49.651 -1.959,-69.157 -3.885,-13.209 -20.101,-51.51 -20.101,-51.51 0,0 -0.929,-11.532 -5.289,-24.253 3.914,-14.874 17.477,-18.887 20.365,-22.65 5.353,-6.978 -15.076,-16.333 -37.69,-12.564 -3.216,0.536 -6.22,1.254 -9.022,2.084 -17.339,-11.124 -42.489,-23.023 -42.489,-23.023 0,0 -59.367,2.978 -71.989,2.978 -12.622,0 -20.197,14.109 -24.749,13.355 -4.552,-0.755 -14.235,-9.631 -14.235,-9.631 l -13.404,-5.445 c 0,0 -9.411,-19.629 -14.995,-29.68 -5.584,-10.051 -18.706,-10.889 -22.056,-4.747 -7.277,-6.468 -24.501,-8.107 -30.279,-8.837 -2.519,1.682 -6.359,5.147 -10.485,11.909 -7.259,-3.63 -6.142,5.304 -10.051,20.939 -3.909,15.636 2.434,20.466 2.434,20.466 0,0 -15.836,3.406 -24.708,-3.769 -7.89,-6.38 -12.068,-24.235 -26.384,-32.665 -3.273,-11.254 -22.957,-6.647 -20.259,2.359 0,0 -24.895,-17.801 -24.057,-9.006 -12.983,-5.444 -11.727,15.915 -11.727,15.915 l 6.142,11.748 15.143,25.469 c 0,0 -2.628,20.26 -7.119,21.358 -6.242,1.525 -13.82,8.794 -21.358,13.821 -7.538,5.028 -29.121,28.48 -36.363,40.68 -7.242,12.201 -7.046,15.079 -10.122,29.674 -3.28,15.557 -18.845,47.741 -18.845,47.741 -10.327,29.833 -12.323,86.105 -1.996,122.823 6.898,24.525 18.835,70.963 23.425,77.847 4.589,6.885 6.7,43.556 6.7,43.556 0,0 -16.752,4.188 -29.316,25.128" />
      <path
         inkscape:connector-curvature="0"
         style="fill:#ffffff;fill-opacity:1;fill-rule:nonzero;stroke:none"
         id="path3050"
         d="m 1678.9688,4871.626 c -2.526,-1.684 -7.577,1.684 -7.577,1.684 l 6.735,14.311 16.837,-6.735 c 0,0 -13.469,-7.576 -15.995,-9.26 m 449.27,282.302 c -2.246,2.806 -14.593,14.592 -17.399,18.521 -2.806,3.928 -21.14,26.577 -28.716,48.044 -5.944,16.839 -22.729,35.356 -34.094,39.144 -16.756,5.585 -27.549,5.416 -27.549,5.416 -7.857,-1.123 -12.347,7.857 -12.347,7.857 l -2.245,4.49 c 0,0 1.122,7.296 2.806,14.592 1.104,4.785 11.882,31.295 18.802,53.598 3.632,11.706 7.839,28.845 8.418,33.674 1.684,14.031 3.648,31.149 2.526,35.639 -1.123,4.49 -5.613,17.959 -9.541,17.959 -3.929,0 -8.98,-4.77 -15.715,-12.347 -6.735,-7.577 -11.786,-20.204 -11.786,-20.204 -2.245,-1.684 -5.893,-20.205 -5.893,-20.205 0,0 -6.132,28.771 -9.681,34.095 -5.051,7.577 -15.013,12.908 -18.942,13.47 -4.581,0.654 -9.681,-2.947 -15.153,-18.942 -1.31,-3.829 -6.454,-20.766 -7.577,-25.256 -1.122,-4.49 -5.612,-37.041 -3.367,-50.511 2.245,-13.469 7.015,-39.848 9.26,-43.776 2.245,-3.929 8.138,-19.082 8.138,-19.082 0,0 -16.276,-13.47 -20.205,-17.398 -3.928,-3.929 -16.837,-25.256 -25.255,-27.501 -8.419,-2.245 -15.889,-4.199 -21.327,-2.245 -17.96,6.454 -76.048,23.291 -110.564,45.179 -9.154,5.805 -109.441,54.16 -129.645,57.527 -20.205,3.368 -45.463,10.201 -71.838,9.541 -22.45,-0.561 -61.734,-8.99 -74.645,-12.347 -42.093,-10.944 -75.187,-34.126 -86.771,-44.282 -20.288,-17.788 -44.558,-60.95 -52.976,-79.61 -8.419,-18.659 -10.384,-45.321 -9.261,-50.372 1.122,-5.051 4.771,-32.13 6.454,-38.303 0.781,-2.863 2.166,-6.448 3.594,-9.976 0.396,-2.341 -0.66,-8.334 -2.892,-9.388 -4.284,-2.022 -15.996,-5.893 -25.733,-1.759 -8.169,3.468 -33.851,16.242 -34.094,20.204 -0.366,5.969 -10.889,13.545 -10.889,13.545 0,0 -3.001,-38.8 13.885,-58.883 6.541,-7.78 30.804,-32.408 39.213,-35.243 10.462,-3.528 34.553,-2.427 40.403,-0.905 5.85,1.522 11.748,8.655 11.748,8.655 l 31.912,-16.823 c 0,0 37.882,-12.627 65.661,-13.889 27.78,-1.263 57.877,16.415 73.238,16.415 18.941,0 24.342,-8.066 24.342,-8.066 0,0 2.525,-9.541 1.403,-15.153 -1.123,-5.613 -5.613,-9.541 -6.735,-11.786 -1.123,-2.245 2.806,-7.858 1.684,-13.47 -1.123,-5.612 -5.613,-22.449 -7.297,-24.694 -1.683,-2.245 -6.173,-14.593 -4.489,-17.96 1.683,-3.367 17.959,-14.031 22.449,-16.276 4.49,-2.245 33.113,-7.296 33.113,-7.296 0,0 -11.786,-30.868 -14.031,-33.674 -2.245,-2.806 -8.418,-7.857 -10.102,-10.102 -1.684,-2.245 -3.929,-12.348 -5.612,-15.715 -1.684,-3.367 -5.557,-25.523 -9.719,-28.598 -4.161,-3.076 -5.173,-4.286 -9.388,-7.126 -4.214,-2.841 -39.124,-14.028 -36.567,-26.581 0,0 5.591,-14.394 9.716,-17.519 4.124,-3.124 14.084,-7.921 17.378,-6.598 3.294,1.324 25.223,9.592 33.691,10.89 8.468,1.297 34.175,39.613 34.175,39.613 0,0 11.786,-5.051 16.276,-4.49 4.49,0.562 60.052,31.429 64.542,34.797 4.49,3.367 20.204,14.592 21.327,17.398 1.122,2.807 2.806,5.051 2.806,5.051 0,0 16.276,-2.806 23.572,-3.929 7.296,-1.122 30.868,-3.648 34.236,-3.648 3.367,0 13.469,1.684 13.469,1.684 l 17.96,-0.842 20.204,0.281 c 0,0 15.154,2.245 17.399,3.367 2.244,1.123 0,8.98 0,8.98 l 5.612,8.98 -5.612,5.051 c 0,0 -1.684,2.806 -1.684,5.612 0,2.807 -12.909,9.541 -17.398,10.664 -4.49,1.122 -20.205,3.368 -21.889,5.612 -1.683,2.245 2.585,5.265 0.34,6.949 -1.01,0.757 -3.81,2.295 -9.319,5.398 -6.737,3.796 -31.317,9.822 -32.552,9.822 -2.245,0 -40.409,1.123 -40.97,2.806 -0.562,1.684 -1.123,26.94 0,29.185 1.122,2.244 11.224,8.418 16.275,8.418 5.052,0 46.022,4.49 61.175,7.296 15.154,2.806 74.083,39.287 78.573,42.093 4.49,2.806 39.287,33.113 47.705,38.725 8.419,5.613 23.572,17.96 27.501,19.644 3.929,1.683 29.184,24.132 33.674,24.132 4.49,0 19.082,1.123 23.572,1.684 4.49,0.562 12.908,1.684 16.276,1.123 1.177,-0.196 3.184,-1.221 5.455,-2.464 l -21.17,-47.486 22.511,46.747 c 0.768,-0.425 1.549,-0.857 2.332,-1.286 l -14.74,-73.523 15.772,72.967 c 2.863,-1.529 5.593,-2.812 7.238,-2.812 1.636,0 7.782,0.682 12.875,1.639 -0.602,-5.397 1.575,-16.798 2.729,-22.279 -0.693,3.949 -1.512,11.626 -0.29,22.585 6.749,1.31 11.656,3.015 14.993,4.228 6.173,2.245 17.398,13.47 17.959,15.715 0.562,2.245 0.562,5.612 0.562,5.612 0,0 5.875,0.252 8.278,3.508 4.35,5.893 4.63,10.102 4.63,13.47 0,3.367 -3.929,10.523 -6.173,13.329" />
      <path
         style="fill:#ffffff;fill-opacity:1;fill-rule:nonzero;stroke:none"
         d="m 820.86846,5386.3714 c -4.3916,-0.067 -8.92056,-3.4434 -10.54992,-5.25 -1.73808,-1.926 -0.42208,-16.108 -0.75008,-19.725 -0.32896,-3.618 -6.08296,-21.33 -8.14992,-26.875 -2.06608,-5.544 -3.85,-25.2 -3.85008,-25.2 0,0 -27.07296,23.303 -32.9,28 -5.82696,4.697 -15.27496,4 -15.27496,4 0,0 -1.966,-10.241 -2.2,-12.825 -0.23504,-2.584 4.038,-12.889 7.37496,-22.05 3.338,-9.162 6.43904,-26.633 10.2,-36.875 3.76008,-10.242 10.77904,-32.017 15.45008,-37.725 4.67096,-5.709 0.52496,-14.525 0.52496,-14.525 0,0 -14.024,-8.836 -16.1,-11.95 -2.076,-3.114 -6.748,-12.436 -10.9,-15.55 -3.34704,-2.51 -8.30696,-10.387 -21.8,-11.425 -9.256,-0.712 -36.318,16.598 -52.92496,22.825 -16.60704,6.227 -30.096,10.379 -57.6,15.05 -27.48104,4.667 -52.424,12.47 -116.77504,39.975 -64.35104,27.505 -120.908,51.9 -147.37504,51.9 -26.46696,0 -50.85696,-2.084 -64.34992,-9.35 -6.53,-3.516 -17.62824,-10.8306 -28.35008,-18.4 -5.492,4.8059 -12.54096,10.8771 -16.27496,17.35 -3.75304,6.504 -5.87504,19.25 -5.87496,19.25 0,0 -11.10304,-6.849 -14.65008,-15.475 -3.53192,-8.591 -4.052,-24.615 0.22504,-32.1 2.74592,-4.8043 5.25208,-8.3094 6.85,-12.45 -10.6444,-10.228 -30.51664,-31.4566 -23.92496,-57.825 7.26592,-29.061 52.60792,-80.066 43.6,-91.325 -12.45504,-15.569 -84.91208,40.606 -119.37504,18.675 -11.418,-7.265 -20.748,-32.181 -26.97504,-47.75 0,0 -2.08496,-10.358 -7.27496,-21.775 0,0 -5.198,-21.797 -9.35,-28.025 -4.07096,-6.106 -18.15,-28.03 -20.22496,-30.625 -2.07608,-2.594 2.588,-11.944 1.54992,-13.5 -1.03696,-1.557 -2.08192,-12.977 -0.52496,-21.8 1.556,-8.822 11.422,-15.031 19.72496,-15.55 8.30304,-0.519 20.764,7.246 30.62504,17.625 9.86,10.379 12.45,19.2 12.45,19.2 0,0 12.78496,10.534 14.52496,16.625 2.07608,7.266 0,18.675 0,18.675 0,0 5.718,16.092 7.27504,21.8 1.55696,5.709 17.12496,35.275 17.12496,35.275 0,0 6.752,0.01 17.65008,-1.55 10.89792,-1.557 33.676,-8.275 43.07496,-12.975 10.37904,-5.189 31.12504,-23.875 31.12504,-23.875 17.64496,-8.303 41.53,-15.564 61.24992,-14.525 24.44608,1.286 53.97408,6.219 56.05008,20.75 2.93496,20.549 20.752,52.95 31.64992,52.95 1.81704,0 3.65408,-0.655 5.52504,-1.775 1.872,-1.119 3.77904,-2.719 2.05,-3.3 4.612,-2.244 5.58696,-3.241 -2.72496,-2.525 10.25696,-2.849 11.21896,-3.972 -1.17504,-5.35 14.36096,-0.914 15.36904,-2.092 6.62496,-5.5 9.26504,1.023 8.77704,-0.188 5.42504,-2.175 4.04696,0.017 6.03,-0.747 6.62504,-1.975 2.34896,-0.357 3.31592,-1.177 3.84992,-2.125 0.682,-0.861 0.93904,-1.839 0.97504,-2.925 3.98296,-0.825 6.024,-2.641 8.1,-4.025 12.45504,-8.304 51.384,-38.391 60.72496,-44.1 5.83904,-3.567 34.036,-18.613 49.3,-25.5 3.05304,-1.378 5.87304,-2.628 7.9,-3.625 2.74104,-1.135 4.696,-2.026 1.25008,-2.175 6.17896,-1.065 6.94296,-1.399 -0.12504,-1.025 8.69896,-1.189 10.66104,-2.05 1.22504,-4 13.75696,0.131 16.11296,-0.821 8,-4.9 13.06896,2.037 15.652,0.949 12.14992,-2.6 8.67104,1.246 11.27304,0.041 8.67504,-2.575 7.554,0.017 9.92704,-1.368 10.1,-4.075 4.148,-0.225 6.094,-1.774 7.72496,-3.425 1.63104,-1.651 8.29208,-1.031 9.52504,-2.675 4.67104,-6.228 3.64904,-20.24 5.72504,-28.025 1.344,-5.039 13.48696,-21.28 14.52496,-23.875 1.038,-2.595 7.23504,-26.402 9.85,-33.2 2.59504,-6.746 23.362,-10.905 24.4,-13.5 1.038,-2.595 8.292,-7.25 11.92504,-9.325 1.95696,-1.119 20.62896,-5.96 37.37496,-16.1 14.33296,-8.679 27.114,-22.746 28.55,-24.9 3.11296,-4.671 21.386,-9.779 24.9,-15.05 6.22696,-9.341 24.90504,-14.012 29.57504,-15.05 4.67096,-1.038 18.00096,5.927 20.24992,11.4 2.24808,5.474 -13.102,18.369 -14.52496,20.775 -1.42296,2.405 -9.34896,13.486 -11.42496,16.6 -2.07608,3.113 -26.98,25.946 -44.62504,34.25 -6.64,3.125 -48.8,26.996 -48.8,35.3 0,8.361 -1.014,18.684 2.1,25.95 3.114,7.265 18.678,18.672 27.5,26.975 4.41096,4.151 11.91704,8.3 15.55,8.3 l 10.9,0 c 1.038,0.346 2.48104,0.011 4.2,-0.8 1.71904,-0.811 3.71696,-2.102 4.15,-3.5 3.978,-1.63 6.37704,-3.384 -3.77496,-6.45 15.14696,-0.459 17.73792,-2.22 15.14992,-11.075 7.25904,6.053 10.01104,4.9 16.17504,0.3 -0.0528,2.475 3.31896,1.501 6.77504,0.6 3.22,-0.793 6.52792,-1.527 9.44992,-2.125 5.846,-1.196 10.15008,-1.85 10.15008,-1.85 2.076,0 20.25992,-8.836 25.44992,-11.95 5.18904,-3.114 43.07104,-28.012 51.37504,-31.125 8.30296,-3.114 29.578,-16.092 36.32496,-19.725 6.74608,-3.633 39.444,-23.356 41,-23.875 1.55704,-0.519 8.81,-6.75 16.07504,-6.75 7.266,0 16.086,-4.157 19.2,-2.6 3.113,1.557 15.048,0.518 19.2,2.075 4.152,1.556 12.45,8.325 12.45,8.325 0,0 16.105,6.219 3.65,18.675 -12.455,12.454 -44.124,14 -48.275,14 -4.152,0 -11.927,2.592 -22.825,6.225 -10.89896,3.633 -34.778,24.929 -43.6,31.675 -8.822,6.747 -3.64096,1.541 -11.42496,7.25 -7.78408,5.708 -13.99704,13.498 -20.22504,17.65 -6.22704,4.152 -21.28,13.492 -25.95,17.125 -4.67104,3.633 -9.85,13.5 -9.85,13.5 -4.15104,5.189 -11.43,22.842 -14.02504,28.55 -2.594,5.709 -5.17992,24.378 -7.77496,31.125 -2.59504,6.747 -10.05,20.25 -10.05,20.25 0,0 1.21696,4.656 4.85,5.175 3.632,0.519 7.08904,-2.425 19.02504,-2.425 11.936,0 30.11896,2.424 36,4.5 9.92296,3.502 27.67496,18 27.67496,18 0,0 6.88096,1.411 9.67496,4.85 4.49808,5.536 4.15704,10.885 2.6,18.15 -1.55696,7.266 -11.41096,24.393 -14.52496,28.025 -3.114,3.633 -9.87896,13.485 -14.55,18.675 -4.67,5.189 -10.71704,26.824 -14.35,30.975 -3.632,4.152 -14.702,13.153 -23.52496,19.9 -8.822,6.746 -30.60504,10.898 -33.2,15.05 -2.59504,4.151 -0.23704,17.044 2.3,22.025 2.53592,4.98 3.284,30.445 4.54992,44.4 1.266,13.954 5.28808,46.938 -0.4,64.65 -5.68896,17.712 -23.074,32.852 -27.72496,33.275 -0.29072,0.026 -0.58224,0.03 -0.87504,0.025 z"
         id="path3054"
         inkscape:connector-curvature="0" />
      <path
         inkscape:connector-curvature="0"
         style="fill:#ffffff;fill-opacity:1;fill-rule:nonzero;stroke:none"
         id="path3062"
         d="m 3107.6133,5234.7637 c -0.155,0.893 -0.353,1.807 -0.588,2.734 l 24.991,17.222 -25.419,-15.66 c -2.822,9.671 -9.211,20.357 -12.652,23.939 -5.948,6.192 -10.551,17.304 -12.662,20.258 -2.11,2.955 -6.893,7.597 -8.018,12.239 -0.629,2.595 -1.829,14.913 -3.94,17.867 -2.11,2.955 -10.41,17.164 -20.117,20.962 -9.708,3.798 -14.772,7.597 -14.772,7.597 0,0 -2.954,24.901 0,31.654 2.954,6.752 17.304,33.764 18.57,38.828 1.266,5.065 3.377,15.194 4.221,18.149 0.844,2.954 6.094,47.797 1.688,55.288 -2.814,4.783 -23.213,-7.175 -41.361,-28.7 -18.148,-21.524 -21.524,-46.003 -22.369,-48.957 -0.844,-2.955 -7.596,-17.304 -7.596,-21.947 0,-4.642 -13.506,49.802 -27.856,57.821 -14.349,8.019 -41.86,40.842 -50.3,36.622 -8.441,-4.221 -6.753,-46.845 -5.065,-56.974 1.688,-10.129 10.129,-34.184 12.661,-37.983 2.532,-3.798 40.515,-54.441 40.515,-54.441 0,0 -16.381,-15.105 -18.491,-20.592 -2.11,-5.486 -15.194,-15.194 -21.103,-33.342 -5.908,-18.147 -8.517,-31.597 -12.316,-34.129 -3.798,-2.533 -40.018,-16.938 -49.725,-22.003 -9.707,-5.065 -16.46,-11.817 -23.635,-14.772 -7.175,-2.954 -76.813,-18.57 -134.633,-70.904 0,0 -41.783,-41.361 -65.84,-73.437 -24.057,-32.075 -64.152,-120.284 -67.106,-132.523 -2.298,-9.52 -18.517,-38.105 -13.666,-70.943 0.347,-2.345 0.739,-4.756 1.18,-7.232 0.442,-2.48 0.933,-5.024 0.188,-3.205 1.834,-7.041 2.432,-9.72 0.195,-26.937 3.547,11.724 4.26,8.909 5.09,2.368 -0.056,3.656 0.022,3.25 0.243,0.029 0.074,1.754 0.291,0.693 0.577,-0.789 0.27,-1.134 0.609,-2.69 0.999,-4.415 1.131,-4.991 2.7,-11.39 4.493,-17.28 -0.01,-5.584 -0.476,-13.541 -2.735,-18.812 -3.798,-8.863 -17.725,-16.459 -24.055,-22.79 -6.331,-6.33 45.382,-13.428 63.304,-5.064 2.982,1.392 5.902,2.345 8.706,2.966 8.879,-6.768 29.185,-22.806 39.891,-22.461 13.083,0.422 42.205,5.064 42.205,5.064 0,0 -8.019,-11.817 -3.377,-15.193 4.643,-3.376 32.076,-12.662 52.335,-11.818 20.258,0.844 36.718,0 44.315,-1.688 7.597,-1.688 26.167,-5.487 29.965,-3.376 3.799,2.11 5.065,5.064 5.065,5.064 0,0 37.14,-6.33 51.068,-4.642 13.927,1.688 24.057,5.065 24.057,5.065 0,0 35.874,-0.845 33.342,5.908 -2.533,6.753 -23.635,23.635 -30.388,25.745 -6.753,2.11 -17.726,2.954 -22.791,2.954 -5.064,0 -11.047,10.632 -14.001,12.742 -2.955,2.111 -16.037,1.688 -21.524,5.065 -5.487,3.376 -51.488,5.064 -51.488,5.064 0,0 12.139,19.167 20.743,29.552 1.434,1.731 2.971,3.532 2.31,-3.337 3.93,10.563 5.662,12.455 8.076,13.889 0.221,1.331 1.051,2.186 1.894,2.414 0.844,0.227 1.703,-0.172 2.572,-1.83 0.596,2.25 1.197,3.941 1.765,5.156 0.652,1.128 1.272,1.781 1.441,2.872 1.097,-0.744 1.744,-1.049 1.106,0.379 1.903,-0.295 2.521,1.143 2.217,5.99 1.587,-2.75 2.251,-2.09 1.734,1.873 1.902,-3.323 2.622,-3.342 2.937,-3.05 1.035,0.805 1.664,1.922 2.633,3.151 0.343,0.535 1.026,1.182 1.945,-0.83 0.491,2.948 1.217,3.236 1.932,-2.785 0.483,7.08 0.959,7.711 1.885,1.219 0.07,7.264 0.589,7.406 2.027,3.537 -0.449,4.612 0.02,5.212 1.188,4.44 -0.209,1.75 0.283,2.127 0.793,2.49 0.959,0.774 1.934,1.539 2.832,1.996 0.898,0.457 1.719,0.607 2.392,0.134 2.479,4.06 4.364,5.633 6.667,4.264 0.928,3.01 2.042,4.713 3.271,5.584 0.615,0.436 1.259,0.663 1.814,0.197 0.879,1.99 1.694,3.1 1.958,-0.259 1.425,4.889 2.298,5.308 3.502,0.601 0.463,6.232 1.256,7.338 2.33,4.158 0.515,4.985 1.31,5.683 1.908,0.885 0.952,6.26 1.707,7.023 2.968,3.129 0.22,5.356 0.947,6.055 2.22,5.498 1.419,3.164 3.263,4.982 4.945,6.664 6.725,6.726 12.955,18.425 12.955,18.425 0,0 31.654,-109.592 33.764,-117.611 2.11,-8.019 -1.126,-24.581 0.844,-28.7 4.642,-9.707 3.376,-13.083 6.753,-16.882 0,0 26.167,-7.597 36.296,-7.597 l 22.791,1.548 c 2.532,1.688 11.395,9.285 11.395,9.285 0,0 9.707,0.985 15.616,1.829 5.909,0.844 12.38,4.502 12.38,4.502 l 3.939,2.251 3.939,1.125 c 0,0 -8.019,11.536 -11.817,13.224 -3.799,1.688 -15.194,6.613 -19.837,7.457 -4.642,0.844 -13.505,0.422 -15.193,1.266 -1.688,0.844 -6.753,5.065 -7.175,7.597 -0.422,2.532 -23.635,83.988 -25.745,94.116 -2.111,10.13 -13.427,81.104 -9.707,90.46 0,0 54.596,48.16 60.177,71.312 5.58,23.152 22.039,66.199 18.241,88.989 -2.123,12.736 -5.7,42.427 -6.331,45.579 -1.828,9.144 9.087,25.966 12.885,28.498 3.799,2.533 15.194,5.065 22.509,4.502 8.17,-0.629 19.167,6.7 21.666,8.722 5.908,4.784 9.848,14.913 9.848,14.913 0,0 10.268,6.133 12.943,11.817 0.953,2.025 1.147,4.627 0.82,7.518 l 16.129,6.272 -16.365,-4.603 z" />
      <path
         inkscape:connector-curvature="0"
         style="fill:#ffffff;fill-opacity:1;fill-rule:nonzero;stroke:none"
         id="path3070"
         d="m 3866.4172,5044.499 c 1.01,-0.375 1.96,-1.274 2.78,-2.276 7.523,-9.196 53.137,-42.564 61.446,-54.828 8.308,-12.263 23.359,-36.036 26.669,-46.387 3.308,-10.351 18.921,-60.865 17.838,-62.967 -1.083,-2.102 -7.042,-13.66 -12.361,-16.238 -5.319,-2.577 -8.732,-10.459 -13.001,-13.578 -3.08,-2.252 -11.14,-1.959 -16.598,-2.998 -3.512,3.188 -6.412,6.645 -8.395,10.448 -10.43,20.001 -44.75,126.857 -58.378,188.824 m -302.39,181.128 c 5.109,-10.219 15.106,-14.509 24.477,-16.152 -2.31,-20.466 -2.288,-41.188 2.329,-52.73 8.359,-20.898 25.914,-53.499 34.273,-64.367 0.76,-0.987 1.865,-2.328 3.252,-3.96 1.387,-1.632 3.055,-3.557 4.06,-6.561 2.766,-1.308 4.868,-3.695 4.201,-16.167 5.179,7.353 7.589,4.622 11.696,-17.133 0.889,16.071 3.477,13.118 7.657,-1.67 1.045,8.78 3.683,5.725 6.1,-5.124 2.781,4.759 5.34,1.723 7.598,-8.798 2.656,4.588 5.01,1.692 7.431,-2.82 1.953,-1.021 3.973,-3.658 5.761,-6.104 3.578,-4.893 6.231,-9.024 7.447,-11.912 6.687,-15.882 18.39,-73.561 19.226,-91.952 0.836,-18.39 -5.016,-76.069 -8.359,-83.593 -3.344,-7.523 -6.751,-23.884 -5.915,-32.244 0.836,-8.359 20.896,-25.493 45.138,-41.376 24.242,-15.882 32.475,-36.131 43.884,-38.868 31.346,-7.524 42.63,0 37.266,12.177 -2.049,4.654 -17.554,25.078 -21.734,30.93 -4.179,5.851 -30.929,30.929 -33.437,45.14 -2.508,14.21 -5.016,60.186 -3.344,81.085 1.35,16.869 18.494,105.631 25.934,146.263 18.039,-22.964 40.093,-58.656 56.753,-92.414 12.892,-26.125 21.462,-58.127 22.791,-64.833 2.217,-4.439 10.551,-25.747 8.554,-36.727 -1.346,-7.402 -6.484,-22.434 6.016,-34.565 3.56,-3.454 11.759,-6.797 22.077,-9.825 0.18,-8.846 7.543,-7.714 15.847,-4.077 23.964,-5.466 51.778,-9.224 62.188,-9.549 17.943,-0.56 23.223,0.47 15.577,16.567 -2.632,5.541 -10.658,10.371 -20.59,15.352 23.084,8.341 48.291,20.007 47.66,31.623 -1.077,19.84 -19.63,97.288 -19.63,97.288 l 31.345,10.03 c 0,0 32.6,-47.645 30.092,-61.437 -2.507,-13.792 -6.295,-55.726 -12.538,-89.022 -3.762,-20.061 5.015,-33.853 8.777,-35.107 3.761,-1.254 31.346,28.838 33.853,35.107 2.508,6.269 8.86,30.99 8.86,30.99 0,0 16.719,45.976 15.047,55.172 -1.672,9.195 -27.585,61.858 -30.093,67.71 -2.508,5.851 -10.867,30.093 -10.867,30.093 0,0 24.241,9.195 33.437,18.39 9.195,9.196 53.499,87.355 53.499,87.355 0,0 17.554,17.972 38.453,13.793 20.898,-4.18 62.694,15.882 62.694,15.882 0,0 8.36,-0.836 15.883,1.672 7.524,2.508 20.062,22.57 20.062,29.257 0,1.652 -0.102,3.865 -0.281,6.31 l 36.226,-1.294 -36.362,3.03 c -0.503,5.981 -1.399,12.83 -2.36,16.271 l 18.66,14.136 -19.054,-12.929 c -0.058,0.143 -0.115,0.276 -0.172,0.391 -1.672,3.343 -24.242,33.437 -24.242,37.616 0,4.18 -2.508,20.062 -5.852,25.914 -3.344,5.851 -17.554,25.914 -21.734,27.586 -4.179,1.672 -21.734,13.374 -21.734,13.374 0,0 27.586,34.273 35.109,47.648 7.523,13.375 47.648,96.132 45.14,98.64 -2.508,2.508 -5.016,0.836 -7.523,0.836 -2.508,0 -63.531,-35.945 -80.249,-57.679 -16.719,-21.734 -31.766,-42.633 -31.766,-42.633 0,0 20.062,68.964 14.211,80.667 -5.852,11.703 -20.063,32.601 -30.094,33.437 -10.031,0.836 -13.375,3.344 -20.062,-0.836 -6.536,-4.085 -9.195,-22.57 -9.195,-27.586 0,-5.015 -15.883,-45.975 -16.719,-58.514 -0.836,-12.539 0,-61.441 -2.507,-68.964 -2.508,-7.524 -7.523,-28.421 -21.734,-25.078 -2.842,0.669 -10.867,3.779 -22.029,8.373 -2.79,1.148 -5.776,2.389 -8.488,6.781 -3.589,-1.753 -6.904,-0.356 -10.93,9.176 -2.867,-6.612 -6.445,-5.089 -10.124,-3.518 -47.823,20.42 -112.564,48.946 -123.974,52.75 -17.554,5.851 -130.405,30.929 -155.482,26.749 -25.078,-4.179 -96.132,-9.195 -114.523,-21.734 -16.311,-11.121 -43.798,-56.434 -55.639,-84.036 -4.122,11.216 -10.909,22.294 -24.667,26.272 0,-27.584 -22.569,-43.884 -12.538,-63.945" />
      <path
         inkscape:connector-curvature="0"
         style="fill:#ffffff;fill-opacity:1;fill-rule:nonzero;stroke:none"
         id="path3074"
         d="m 5151.7549,4895.5767 c 0,0 20.806,-3.619 28.948,-6.333 8.141,-2.713 23.519,1.81 31.661,-5.427 8.141,-7.237 12.664,-16.283 12.664,-16.283 0,0 -25.329,-20.806 -33.47,-23.52 -8.141,-2.714 -25.329,-0.905 -31.661,1.809 -6.333,2.714 -8.142,49.754 -8.142,49.754 m -71.119,-97.09 c 7.491,-3.434 15.602,-5.734 18.35,-5.734 4.222,0 42.349,7.467 49.213,4.549 6.866,-2.919 19.593,-7.376 24.547,-6.94 4.953,0.437 11.145,-3.056 12.932,-3.339 1.787,-0.282 11.388,-1.169 14.417,-1.32 3.029,-0.15 52.395,3.877 74.687,5.843 18.997,2.714 26.365,-7.775 32.008,-6.837 8.081,1.343 21.779,10.29 25.134,12.201 l 11.745,6.689 c 0,0 3.139,10.188 1.511,15.331 -1.628,5.142 -9.572,12.811 -16.532,15.134 -6.959,2.323 -15.016,5.43 -18.589,5.996 -1.787,0.283 -32.687,-3.983 -32.687,-3.983 l -27.919,-2.918 23.52,19.901 c 0,0 -2.714,15.378 -0.301,10.855 2.412,-4.523 -12.062,29.551 -12.062,29.551 0,0 26.535,8.443 33.169,12.665 6.634,4.221 21.108,25.329 21.108,25.329 l -8.444,-25.329 c 0,0 12.666,23.52 14.475,28.344 1.809,4.825 -3.016,-18.695 -3.016,-18.695 0,0 8.443,15.077 8.443,18.092 0,3.016 0.603,-9.649 0.603,-9.649 0,0 10.856,16.283 15.68,19.901 4.825,3.619 14.474,13.268 14.474,13.268 l -1.809,-21.711 c 0,0 6.633,21.108 9.649,25.33 3.015,4.221 15.68,22.916 21.71,26.535 6.031,3.618 -1.206,-13.871 -1.206,-13.871 0,0 22.917,39.2 30.154,41.612 0,0 48.246,4.222 58.197,8.745 9.951,4.523 18.997,14.474 28.948,19.901 9.95,5.428 11.643,19.842 14.172,20.203 4.221,0.603 11.157,5.127 13.268,13.871 4.274,17.706 -17.49,38.597 -19.902,42.818 -2.412,4.222 -18.092,19.902 -19.299,21.711 0,0 -1.206,11.76 -17.187,27.138 -11.879,11.431 -34.074,20.505 -35.883,21.108 -1.809,0.603 -23.52,9.046 -24.123,13.268 -0.603,4.221 15.077,28.947 18.092,33.169 3.016,4.221 12.062,13.87 15.077,19.901 3.016,6.031 15.68,26.536 18.092,31.963 2.412,5.428 21.41,34.375 24.123,50.659 2.714,16.282 0,47.944 -9.046,47.944 -9.046,0 -18.092,-17.188 -20.504,-22.012 -2.412,-4.825 -12.062,-24.123 -12.062,-24.123 0,0 -10.554,39.501 -26.233,38.898 -15.68,-0.603 -21.711,-35.883 -23.52,-38.898 -1.81,-3.016 -32.265,-50.056 -34.074,-73.576 -1.81,-23.52 4.221,-57.593 0.603,-61.211 -3.619,-3.619 -23.52,-9.951 -34.376,-26.234 -10.854,-16.284 -22.838,-33.656 -36.184,-32.566 -14.775,1.206 -80.51,65.735 -118.504,77.796 -37.994,12.062 -116.961,39.857 -155.593,41.612 -39.803,1.809 -116.696,-7.538 -154.689,-24.424 -37.994,-16.886 -62.117,-38.295 -65.735,-43.723 -3.619,-5.428 -27.742,-28.344 -33.773,-36.788 -6.03,-8.443 -9.045,-30.756 -19.901,-53.673 -10.855,-22.917 -10.252,-41.009 -6.634,-50.056 3.619,-9.046 19.299,-39.802 18.696,-45.23 -0.603,-5.428 -58.963,-3.511 -62.45,-6.501 -3.486,-2.99 -22.852,-10.94 -16.553,-25.462 6.299,-14.523 43.099,-32.62 76.82,-33.746 2.811,-0.093 5.551,-0.195 6.661,-1.045 4.225,0.635 6.819,0.521 6.75,-6.48 5.103,6.766 7.543,6.644 9.473,4.894 2.785,1.503 5.062,1.378 7.253,1.252 17.528,-1.002 34.967,2.961 38.987,4.971 6.031,3.016 9.649,9.65 9.649,9.65 0,0 33.169,-12.062 48.246,-12.062 15.077,0 52.468,13.268 74.178,13.268 21.711,0 55.449,-17.646 64.53,-25.329 15.679,-13.268 21.408,-50.357 23.821,-57.594 2.412,-7.237 6.332,-16.283 6.332,-16.283 l 7.12,-33.821" />
      <path
         inkscape:connector-curvature="0"
         style="fill:#ffffff;fill-opacity:1;fill-rule:nonzero;stroke:none"
         id="path3078"
         d="m 3240.8738,3969.4604 c -7.293,11.669 -21.319,26.803 -25.377,32.863 -4.058,6.06 -9.317,44.319 -21.647,59.585 -12.33,15.266 -53.323,40.828 -55.925,46.809 -2.601,5.982 15.367,41.538 21.894,54.336 6.526,12.797 32.034,80.086 42.797,117.488 -2.812,29.363 4.727,61.096 -11.217,63.408 -15.944,2.313 -22.139,-8.256 -28.764,-18.911 -17.579,-28.274 -26.185,-52.646 -26.185,-52.646 0,0 2.157,13.031 -1.745,22.004 -3.903,8.972 -17.456,28.686 -23.281,28.997 -5.827,0.312 -28.686,-17.455 -36.436,-25.805 -7.75,-8.35 -12.532,-43.15 -16.223,-57.56 -3.692,-14.409 -6.728,-71.214 -4.827,-90.304 1.884,-18.924 8.56,-31.132 7.859,-44.241 -0.7,-13.108 -13.458,-48.507 -19.292,-58.718 -5.834,-10.21 -26.255,-29.171 -48.134,-17.503 -21.879,11.669 -64.178,37.924 -112.312,53.968 -48.133,16.045 -86.057,33.548 -121.063,40.841 -35.006,7.293 -144.401,13.127 -157.528,10.21 -13.128,-2.917 -66.804,-24.796 -97.435,-46.675 -30.63,-21.879 -59.802,-80.223 -68.554,-94.809 -8.751,-14.586 -9.882,-74.367 -14.585,-88.478 -5.835,-17.504 -18.842,-29.782 -27.593,-39.992 -6.645,-7.752 -16.449,-53.369 -8.872,-60.367 0,0 25.448,-13.376 46.674,-12.449 35.216,1.538 52.51,35.006 59.803,30.631 7.293,-4.376 66.804,-24.797 79.931,-26.255 13.128,-1.458 83.14,10.21 91.892,0 3.93,-4.585 12.537,-19.426 20.81,-37.042 -17.398,-4.672 -34.466,-9.55 -40.098,-15.914 -6.624,-7.486 -17.667,-21.687 -24.997,-33.776 -23.53,-1.123 -59.638,2.466 -70.621,-4.631 -14.753,-9.532 -48.252,-35.359 -45.039,-43.233 3.214,-7.875 56.989,-32.402 81.388,-27.309 24.399,5.093 73.088,24.15 85.065,25.255 3.004,0.277 10.524,2.737 20.196,6.415 -0.358,-3.759 0.672,-8.017 4.123,-13.184 7.641,-11.444 70.319,-7.848 94.145,-7.705 6.523,0.04 58.52,-12.803 71.938,-13.697 13.418,-0.895 29.522,-3.215 43.044,-14.423 13.524,-11.208 54.777,-10.787 77.066,-11.798 22.289,-1.01 52.798,21.373 80.97,30.118 28.172,8.745 -2.967,48.241 -7.398,57.892 -4.43,9.65 -34.254,21.31 -44.567,21.206 -10.314,-0.106 -62.333,-16.933 -71.983,-21.363 -9.651,-4.431 -40.917,7.009 -40.917,7.009 0,0 27.963,26.167 38.174,29.085 10.21,2.917 24.796,21.878 45.216,36.465 20.42,14.586 77.305,62.719 77.305,62.719 0,0 17.504,1.459 23.338,4.376 5.834,2.917 36.465,36.465 53.968,45.216 11.933,5.967 30.643,4.476 46.891,3.848 -25.621,-51.478 -43.974,-104.491 -43.974,-104.491 0,0 21.709,56.995 48.423,104.345 5.877,-0.149 11.292,-0.07 15.756,0.674 17.503,2.917 29.172,17.503 29.172,17.503 0,0 14.585,2.918 21.878,11.669 7.293,8.751 -5.834,46.675 -13.127,58.344" />
      <path
         inkscape:connector-curvature="0"
         style="fill:#ffffff;fill-opacity:1;fill-rule:nonzero;stroke:none"
         id="path3082"
         d="m 4423.1362,4031.6228 -11.061,37.762 c -9.325,16.424 -24.727,29.668 -42.975,40.493 -18.249,10.824 -37.249,17.184 -37.249,17.184 -1.71,5.836 42.195,95.787 42.856,126.355 0.66,30.567 -14.554,65.571 -23.332,68.681 -8.778,3.11 -26.696,-14.321 -28.78,-20.577 -7.36,-22.087 3.806,-78.642 -2.199,-93.949 0,0 -11.769,87.339 -24.135,88.524 -12.365,1.185 -22.569,-13.229 -22.569,-13.229 0,0 -14.663,-17.228 -13.783,-67.228 0.306,-17.435 0.392,-34.159 0,-49.379 -0.723,-28.427 -3.096,-51.606 -8.752,-64.363 -8.684,-19.588 -32.156,-38.101 -37.803,-40.36 -5.646,-2.258 -70.454,-21.288 -110.088,-6.424 -53.005,19.877 -96.51,49.93 -203.626,70.793 -60.225,11.73 -147.936,-14.68 -170.522,-24.844 -22.585,-10.164 -68.886,-54.206 -80.179,-111.799 -11.293,-57.593 -20.987,4 -31.722,9.83 -20.868,11.332 -74.148,1.218 -74.148,1.218 0,0 21.684,-25.207 35.316,-48.713 12.872,-22.194 57.238,-42.624 57.238,-42.624 0,0 37.753,-56.02 29.126,-87.974 -8.627,-31.954 -1.987,-63.031 -41.681,-70.895 -13.476,-2.67 -55.436,-24.413 -69.752,-26.458 -16.837,-2.406 -62.537,-24.053 -44.182,-52.841 23.198,-36.384 74.7,-69.294 73.57,-80.587 -1.129,-11.293 130.961,-29.282 179.05,-37.299 14.972,-2.497 12.109,5.214 12.109,5.214 0,0 19.229,1.664 26.673,2.803 11.498,1.761 17.888,12.33 18.812,16.026 1.416,5.666 -8.795,25.558 -26.412,37.489 2.258,9.034 -18.335,42.825 -58.09,34.25 -24.894,-5.369 -46.849,-2.007 -72.78,-0.396 -26.211,1.629 -33.892,13.232 -35.599,24.109 3.624,4.912 8.268,9.523 14.028,12.48 43.051,22.101 134.566,41.082 143.521,58.994 12.422,24.844 33.877,49.885 56.727,60.334 13.817,6.318 47.206,-9.283 102.223,-11.652 56.644,-2.439 88.891,10.18 94.538,4.534 5.646,-5.646 -47.935,-31.44 -47.495,-46.448 0.267,-9.1 10.894,-20.193 25.574,-29.227 2.574,-1.584 8.183,-1.373 15.801,0.012 l 0,0 c 0,0 24.09,-26.655 46.01,-30.263 21.918,-3.608 65.91,57.504 86.859,56.523 4.218,-0.197 8.966,0.966 13.98,2.88 20.399,-11.062 61.367,-36.257 71.176,-34.021 16.023,3.653 18.78,20.095 14.662,33.547 -0.852,2.782 -1.682,5.888 -2.65,9.197 9.94,-5.482 18.735,-9.889 21.892,-7.995 6.013,3.608 20.445,32.667 0,45.798 -20.445,13.131 -54.106,27.562 -63.132,25.157 -5.255,-1.4 -22.825,-7.794 -36.979,-11.082 22.288,12.302 60.399,34.933 70.81,65.155 5.123,14.871 28.486,30.945 39.949,36.293 7.164,3.341 30.001,22.595 62.205,20.202 33.099,-2.459 63.6,16.312 63.6,16.312 0,0 30.322,-2.071 31.441,22.403 1.119,24.473 -26.207,44.017 -28.071,60.078" />
      <path
         inkscape:connector-curvature="0"
         style="fill:#ffffff;fill-opacity:1;fill-rule:nonzero;stroke:none"
         id="path3086"
         d="m 5570.2905,3895.1985 c -9.084,2.766 -26.929,7.602 -41.335,5.336 -16.425,-2.584 -38.292,-1.033 -53.997,-6 -21.755,-6.88 -21.292,-3.569 -44.998,-3 -23.706,0.57 -40.06,18.063 -40.06,18.063 l 0,-10e-4 c -3.451,24.013 -8.87,54.843 16.743,72.567 8.265,5.719 21.048,0.311 37.149,1.377 18.381,1.216 34.461,5.758 43.111,7.797 16.226,3.825 27.528,-6.243 40.515,-2.467 19.697,5.726 26.802,25.863 26.802,25.863 0,0 13.172,5.944 12.401,20.052 -0.746,13.64 -16.858,25.696 -31.078,38.9 -12.841,11.924 -7.659,22.656 -23.005,38.58 -6.721,6.974 -19.016,14.893 -24.952,18.258 -11.906,6.751 -23.128,5.999 -23.128,5.999 0,0 5.876,17.083 6.922,45.766 0.714,19.594 -5.011,38.878 -7.916,56.8 -4.383,27.042 -7.889,48.87 -17.223,47.183 -13.831,-2.502 -23.52,-32.914 -22.403,-77.708 -2.01,10.481 -4.875,21.082 -8.888,27.983 -8.436,14.51 -21.593,40.616 -25.822,44.304 -4.228,3.687 -16.215,8.37 -21.996,7.139 -13.501,-2.875 5.944,-55.019 13.897,-98.99 7.953,-43.971 7.331,-61.441 7.331,-61.441 0,0 -10.905,-13.549 -15.62,-26.867 -7.12,-20.114 -19.46,-32.912 -38.037,-49.394 -14.704,-13.046 -69.281,3.174 -99.733,-6.77 -13.779,-4.5 -33.656,-9.685 -89.92,-25.135 -50.005,-13.73 -87.552,-51.785 -147.015,-63.006 -49.123,-9.27 -89.858,-38.567 -110.204,-21.875 -10.285,8.437 -33.608,30.193 -49.758,35.387 -17.756,5.712 -38.265,-3.161 -38.265,-3.161 0,0 43.682,-39.204 48.181,-49.704 l 14.58,-58.917 c 0.46,-14.311 -8.767,-24.081 -14.714,-32.655 -3.935,-5.672 -5.586,-7.524 -15.314,-7.915 -28.494,7.941 -29.065,56.639 -45.357,56.656 -6.054,0.01 -13.424,-6.377 -21.463,-15.35 -3.922,5.027 -7.813,8.196 -12.279,7.452 -14.538,-2.424 -30.505,-43.48 -47.757,-67.598 -29.728,-16.096 -71.63,-27.539 -80.611,-37.13 -5.389,-5.756 -16.268,-18.431 -3.74,-24.847 -4.302,-3.101 -7.509,-5.895 -9.126,-8.328 -5.828,-8.777 -19.283,-31.359 22.425,-25.332 38.727,5.596 37.241,24.407 54.157,38.498 16.917,14.091 68.153,34.039 91.892,27.458 23.739,-6.58 67.788,-25.079 86.34,-34.376 18.552,-9.297 60.086,-45.905 112.977,-32.589 43.043,10.836 69.865,81.983 84.22,86.383 37.299,11.433 59.592,-18.324 115.78,-10.294 56.188,8.031 89.129,13.843 107.194,12.424 10.609,-0.834 37.58,-32.373 65.966,-33.059 44.373,-1.074 38.73,12.709 75.504,23.029 16.584,4.654 31.658,16.026 42.502,18.935 21.455,5.754 41.625,1.904 59.979,5.224 38.12,6.894 45.346,7.567 37.971,22.555 -2.964,6.025 -45.029,16.472 -69.447,19.046 -21.904,2.309 -52.423,-25.368 -75.994,-29.156 14.575,13.931 8.548,30.997 16.785,35.389 17.776,9.478 79.344,15.407 94.934,13.094 15.59,-2.312 36.264,-3.156 47.085,-0.832 10.517,2.258 17.696,14.687 20.154,20.365 8.819,20.37 -23.258,7.269 -32.342,10.035" />
      <path
         inkscape:connector-curvature="0"
         style="fill:#ffffff;fill-opacity:1;fill-rule:nonzero;stroke:none"
         id="path3090"
         d="m 43.8636,2654.479 c 4.787,10.001 32.28,28.609 54.301,48.806 -5.994,-1.157 -13.345,-1.503 -22.895,-0.566 -40.166,3.936 -21.423,19.649 -13.586,25.628 9.162,6.989 46.185,13.212 75.839,23.375 10.892,14.293 21.927,26.483 31.55,29.513 6.654,2.096 10.951,-1.516 16.108,-6.534 16.594,8.423 32.573,15.179 42.976,14.363 10.795,-0.847 19.682,-9.552 32.325,-18.982 5.37,7.838 10.909,17.438 12.221,23.386 4.322,19.594 -3.913,37.25 -3.913,37.25 0,0 -34.066,29.422 -31.334,54.994 2.713,25.393 2.925,36.176 12.377,35.824 9.453,-0.352 16.326,-9.034 22.425,-26.008 14.826,-41.263 13.042,-35.129 22.006,-44.353 9.747,-10.031 26.989,3.158 75.023,8.572 58.145,6.555 93.575,2.206 142.779,11.859 55.364,10.862 91.671,28.743 124.835,40.914 29.08,10.673 88.197,20.851 103.312,32.376 19.096,14.561 31.913,26.016 40.222,44.902 5.502,12.504 16.99,24.786 16.99,24.786 0,0 -9.747,2.948 -46.653,25.419 -36.905,22.47 -87.098,41.874 -80.512,53.483 2.82,4.971 13.901,10.635 19.282,11.326 5.381,0.692 32.705,-6.549 48.614,-9.76 7.569,-1.528 17.077,-6.263 25.949,-11.537 -31.497,26.651 -41.198,48.021 -41.828,66.082 -0.319,9.166 22.807,-3.64 45.178,-17.827 14.826,-9.402 32.447,-17.638 46.16,-30.731 20.074,-19.165 58.964,-78.134 58.964,-78.134 0,0 2.654,-8.153 13.65,-15.517 5.482,-3.671 23.861,-9.251 29.843,-16.459 13.655,-16.455 7.888,-26.432 19.415,-38.852 12.765,-13.752 27.437,-26.534 27.178,-39.741 -0.27,-13.659 -13.397,-18.446 -13.397,-18.446 0,0 -8.296,-18.908 -27.7,-23.016 -12.794,-2.709 -22.97,7.809 -38.891,5.285 -8.487,-1.346 -24.319,-4.572 -42.131,-4.426 -15.602,0.128 -27.541,6.259 -35.921,1.338 -36.391,-21.375 -15.535,-49.494 -21.727,-69.862 0,0 24.405,-49.535 39.512,-56.906 22.683,-11.068 42.631,19.575 82.282,13.654 46.133,-6.889 72.148,20.405 99.506,11.332 22.535,-7.473 48.982,-16.464 50.538,-22.768 3.872,-15.681 8.04,-24.387 -29.393,-23.03 -18.024,0.654 -34.623,9.427 -55.724,5.417 -6.979,-1.326 -15.907,-6.384 -25.857,-10.406 11.976,-4.843 23.185,-14.06 29.208,-19.686 6.709,-6.269 27.699,-17.935 23.808,-22.48 -3.89,-4.545 -16.074,-11.618 -26.166,-9.102 -10.385,2.588 -32.232,3.439 -44.784,12.082 -8.605,5.927 -29.82,13.267 -48.583,17.084 -17.15,-8.343 -32.518,-14.97 -60.235,-8.701 -24.166,-8.304 -50.905,-15.676 -58.175,0.156 -3.36,7.319 -10.646,17.078 -19.375,27.32 -13.496,-0.479 -27.73,-7.567 -55.454,-14.03 -28.926,-6.744 -49.974,1.924 -97.656,7.675 -54.488,6.573 -78.563,4.812 -113.904,-8.379 -53.501,-19.969 -65.456,-42.747 -104.766,-61.225 -19.638,-9.231 -72.954,45.693 -90.177,55.99 -17.222,10.296 -54.182,15.78 -77.8,18.881 -23.617,3.101 -69.987,-22.905 -84.285,-38.678 -14.299,-15.773 -10.34,-33.585 -46.667,-44.163 -39.124,-11.393 -29.285,12.044 -24.887,21.233" />
      <path
         style="fill:#ffffff;fill-opacity:1;fill-rule:nonzero;stroke:none"
         d="m 3078.4185,3177.1714 c -13.9515,-0.3664 -8.5295,-29.168 -15.425,-60.35 -3.929,-17.769 -5.419,-42.75 -2.2,-59.225 1.976,-10.113 22.642,-64.322 22.625,-65.125 -0.322,-14.812 14.285,-43.734 -1.15,-55.3 -15.436,-11.566 -30.751,-64.168 -68.375,-59.025 -47.27,6.461 -140.643,51.333 -172.85,59.1 -32.207,7.767 -105.494,44.104 -166.8,42.175 -84.493,-2.66 -171.444,-27.788 -214.325,-104.05 -44.968,-79.973 -33.575,-123.8 -33.575,-123.8 0,0 -4.353,-7.415 -21.6,1.85 -14.57,7.827 -22.047,16.526 -40.425,5.5 16.769,-22.053 12.86,-36.736 33.075,-45.925 19.075,-8.67 27.125,-7.35 27.125,-7.35 0,0 14.685,-20.237 31.225,-25.75 13.947,-4.649 26.322,3.967 25.45,-7.025 -0.872,-10.992 -13.469,-78.666 -21.075,-93.2 -7.605,-14.534 0,-40.973 -10.825,-48.625 -10.819,-7.652 -21.101,-45.934 -10.075,-73.5 2.416,-6.04 19.663,-25.056 31.225,-23.9 36.755,3.675 94.304,8.821 102.375,3 5.895,-4.252 35.33,-9.356 57.675,-9.7 18.399,-0.283 30.041,3.92 36.675,3.675 14.692,-0.541 43.28,6.829 43.55,14.175 0,0 14.578,0.85 15.725,10.625 1.147,9.775 -10.259,14.811 -15.7,16.85 -5.442,2.04 -28.363,17.49 -41.15,19.8 -12.788,2.311 -116.238,-17.203 -143.025,13.225 -7.32,8.314 94.119,53.319 122.325,96.825 12.089,18.647 -2.8,30.825 -2.8,30.825 0,0 31.484,-12.694 39.375,-15.525 22.363,-8.025 33.62,-3.579 58.8,-9.175 16.539,-3.675 12.872,-16.547 38.6,-38.6 19.546,-16.754 26.646,-14.253 51.45,-12.875 24.766,1.376 34.923,14.699 53.3,22.05 12.794,5.117 36.748,7.362 51.45,12.875 9.639,3.614 19.276,4.854 29.95,5.8 -0.01,-5.2 -0.641,-10.376 -2.375,-15 -5.513,-14.702 -32.174,-45.002 0,-77.175 14.701,-14.702 16.524,14.699 23.875,29.4 7.351,14.702 18.375,23.885 18.375,44.1 0,3.077 0.735,6.816 1.85,11 15.341,-10.028 31.821,-24.912 42.275,-27.525 22.052,-5.513 38.587,-14.702 47.775,-3.675 5.883,7.058 0.328,29.394 -14.7,42.275 -12.864,11.027 -34.922,11.023 -60.65,33.075 -0.719,0.617 -1.438,1.217 -2.15,1.8 1,9.189 -0.043,17.622 -5.2,23.925 -3.344,4.087 -7.303,7.268 -11.925,9.825 12.8889,8.9439 30.5013,22.3526 49.425,40.15 l -4.6,-10.525 22,24 0,-8 c 0,0 4.1176,11.1092 11.85,24.825 0.2026,0.2323 0.3975,0.4667 0.6,0.7 24.461,28.183 46.463,10.87 59.625,12.225 13.162,1.356 39.317,-8.183 56.425,-4.65 31.39,6.482 42.559,22.678 52.6,22.05 10.041,-0.629 32.38,12.527 35.475,34.5 1.823,12.945 -2.131,28.19 -12.8,39.575 -13.901,14.833 -33.658,27.806 -42.5,48.225 -14.611,33.743 -68.075,53.2 -68.075,53.2 0,0 -15.035,16.714 -12.375,44.7 2.659,27.985 19.165,69.878 25.75,87.425 6.584,17.546 -14.908,91.98 -32.75,96.75 -17.842,4.771 -12.307,-30.41 -21,-49.475 -3.509,-7.694 -6.611,-22.135 -9.325,-37.55 -0.652,-3.707 -22.595,88.973 -37.4,89.525 -0.2314,0.01 -0.4535,0.01 -0.675,0 z"
         id="path3094"
         inkscape:connector-curvature="0" />
      <path
         inkscape:connector-curvature="0"
         style="fill:#ffffff;fill-opacity:1;fill-rule:nonzero;stroke:none"
         id="path3102"
         d="m 848.1901,3906.1719 c -3.843,1.907 -13.067,1.907 -19.216,6.358 -6.149,4.451 -1.537,17.803 -2.306,23.525 -0.768,5.723 6.149,34.335 6.149,38.785 0,4.451 11.53,25.433 16.142,35.606 4.611,10.173 -0.769,35.606 -13.836,65.489 -13.066,29.884 -53.035,57.224 -57.647,60.403 -4.612,3.179 -41.506,29.248 -56.878,33.698 -15.373,4.451 -37.663,4.451 -50.73,5.087 -10.986,0.534 -39.2,0 -45.349,0 -6.149,0 -40.727,1.106 -53.804,0.636 -17.678,-0.636 -62.172,-20.664 -74.47,-23.208 -12.298,-2.543 -17.858,-3.179 -20.932,-1.907 -3.075,1.272 -0.897,13.622 -4.519,16.849 -16.414,14.624 -12.511,43.554 -9.436,49.912 8.174,16.905 15.633,56.906 18.708,66.443 3.074,9.537 20.753,50.865 20.753,50.865 0,0 17.678,31.155 17.678,41.964 0,10.809 -13.066,31.791 -16.141,33.699 -3.074,1.907 -13.835,-0.636 -18.447,-1.908 -4.612,-1.272 -34.969,-44.825 -36.506,-49.912 -1.538,-5.086 -4.984,-15.259 -4.984,-15.259 0,0 -11.877,-55.634 -14.952,-65.808 -3.074,-10.172 -5.981,-32.426 -5.981,-40.056 l 0,-22.889 c 0,0 -3.903,-2.226 -6.977,-2.862 -3.075,-0.635 -4.984,-4.768 -12.892,-6.04 -7.907,-1.271 -18.447,6.994 -20.753,9.537 -2.306,2.544 -7.686,19.711 -7.686,19.711 0,0 -0.769,12.08 0,16.531 0.769,4.451 -4.612,21.618 -7.686,29.248 -3.075,7.629 -23.059,46.414 -39.2,64.217 -16.141,17.803 -37.663,33.063 -37.663,33.063 0,0 -11.529,9.537 -30.745,0 -13.443,-6.673 -19.984,-31.155 -18.447,-43.872 0.306,-2.53 6.149,-11.445 6.149,-11.445 l 36.125,-55.315 c 0,0 46.118,-65.49 54.573,-76.935 8.455,-11.444 10.761,-19.074 10.761,-19.074 0,0 -2.672,-6.859 -8.132,-13.67 -4.46,-5.564 -5.665,-15.419 -3.87,-22.889 1.795,-7.472 10.271,-14.582 10.855,-21.301 0.917,-10.546 -8.741,-31.671 -6.093,-44.302 l -19.128,-1.476 19.752,-0.76 c 0.585,-1.72 1.368,-3.502 2.294,-5.298 l -13.883,-4.452 14.715,2.904 c 5.851,-10.543 15.695,-21.006 15.695,-21.006 3.033,-7.077 6.81,-11.445 6.81,-11.445 l -5.663,-10.173 c 0,0 5.509,-14.624 6.278,-17.803 0.768,-3.179 -1.823,-27.976 -0.286,-34.97 1.537,-6.994 0.883,-26.704 0.883,-34.334 0,-5.722 -1.652,-15.26 0.654,-19.075 2.306,-3.815 11.224,-35.287 14.298,-46.732 3.075,-11.445 14.859,-38.467 23.314,-48.64 8.455,-10.173 28.362,-34.334 34.511,-39.421 6.149,-5.086 8.455,-33.698 9.992,-41.328 1.537,-7.63 10.761,-31.791 13.066,-44.507 2.306,-12.717 6.15,-51.501 6.15,-53.409 0,-1.907 11.529,-26.704 12.298,-31.155 0.768,-4.451 0,-15.895 0.768,-20.346 0.769,-4.451 -1.537,-12.081 -1.537,-17.167 0,-5.087 5.38,-36.242 7.686,-39.421 2.306,-3.179 9.992,-2.543 12.298,-5.086 2.306,-2.544 17.679,-11.445 17.679,-11.445 0,0 12.298,8.265 14.604,10.809 2.306,2.543 6.149,20.982 7.686,36.241 1.537,15.26 -3.075,27.34 -6.149,33.063 -3.075,5.722 -2.306,26.068 -5.38,31.155 -3.075,5.086 -17.679,22.253 -19.985,26.704 -2.306,4.451 -2.306,13.352 -3.843,20.982 -1.537,7.63 -8.455,63.582 -9.223,75.662 -0.769,12.081 -3.075,44.508 -3.075,44.508 0,0 1.537,8.265 6.149,8.901 4.612,0.636 11.529,-0.636 11.529,-0.636 0,0 -17.678,12.081 -15.372,13.988 2.306,1.908 30.745,3.179 34.588,-5.086 3.843,-8.266 3.843,-20.346 3.843,-20.346 0,0 3.075,18.438 9.224,17.803 6.149,-0.636 5.043,-1.908 5.043,-1.908 0,0 11.026,-57.541 13.332,-74.708 2.306,-17.167 6.149,-48.958 3.843,-57.86 -2.306,-8.901 -9.224,-21.618 -9.224,-26.068 0,-4.451 8.455,-17.167 9.992,-19.711 1.538,-2.543 6.149,-19.71 6.918,-24.161 0.769,-4.45 8.455,-24.161 9.992,-27.34 1.538,-3.179 23.059,-8.901 23.059,-8.901 l 19.984,-10.809 c 0,0 19.216,24.161 16.91,36.241 -2.306,12.081 -4.612,41.328 -14.604,45.779 -9.992,4.451 -16.91,20.346 -20.753,27.34 -3.843,6.994 -6.917,20.346 -8.455,26.705 -0.833,3.445 -6.667,102.126 -3.307,110.632 0.886,2.245 39.66,37.114 39.66,37.114 0,0 0,-37.193 -19.632,-84.8 -5.471,-13.266 -5.119,-27.659 -5.119,-27.659 l 4.612,-11.444 c 0,0 4.612,-12.081 4.612,-15.26 0,-3.179 23.827,-38.785 26.133,-41.328 2.306,-2.543 19.984,-18.439 19.984,-18.439 0,0 13.836,9.538 17.679,14.624 3.843,5.087 3.628,13.67 3.628,15.578 0,1.907 0.983,11.126 4.058,13.034 3.074,1.907 9.223,28.612 8.455,38.149 -0.769,9.537 -7.686,32.427 -11.53,45.779 -3.843,13.352 3.844,24.797 5.381,27.976 1.537,3.179 -2.306,47.686 -3.075,55.316 -0.768,7.63 -6.917,41.964 -6.917,41.964 0,0 12.106,-15.542 13.066,-20.346 3.314,-16.573 22.43,-3.774 34.51,4.05 10.807,6.999 33.13,-16.767 36.973,-16.131 3.843,0.636 13.066,-0.636 15.372,-2.543 2.306,-1.907 -6.149,-22.889 -7.686,-26.704 -1.537,-3.815 -12.298,-30.52 -16.91,-40.057 -4.612,-9.537 -18.447,-29.883 -21.521,-34.334 -3.075,-4.451 -4.612,-22.889 -5.381,-35.606 -0.768,-12.716 3.075,-50.229 4.612,-57.859 1.537,-7.63 11.529,-15.26 12.298,-17.803 0.769,-2.544 9.611,2.861 12.686,4.133 3.075,1.271 7.298,1.589 11.91,4.133 4.612,2.543 19.216,26.704 19.984,31.79 0.769,5.087 9.993,29.884 11.53,34.97 1.537,5.087 9.992,21.618 13.066,26.705 3.075,5.086 3.075,26.704 3.075,26.704 0,0 15.373,39.421 19.984,52.137 4.612,12.717 14.604,17.803 15.373,26.069 0.769,8.265 0.769,32.426 0.769,36.877 0,4.451 -5.381,15.896 -9.224,17.803" />
      <path
         inkscape:connector-curvature="0"
         style="fill:#ffffff;fill-opacity:1;fill-rule:nonzero;stroke:none"
         id="path3110"
         d="m 1752.0522,3713.8882 c -1.779,-8.604 -9.782,-43.88 -9.782,-43.88 -3.557,0 -23.76,17.721 -34.68,22.37 -22.232,9.465 -74.697,22.371 -91.593,29.254 -16.896,6.883 -40.016,20.649 -44.463,35.276 -4.446,14.626 -6.224,36.136 -4.446,40.438 1.779,4.302 3.646,20.889 13.339,32.077 9.882,11.406 23.12,14.228 23.12,14.228 0,0 28.456,-5.335 55.134,-8.892 24.743,-3.299 64.026,-16.007 64.026,-16.007 0,0 26.677,-39.646 26.677,-55.133 0,-15.487 4.447,-41.127 2.668,-49.731 m 391.252,341.375 c 0,0 -5.375,6.156 -10.04,12.062 2.514,3.659 3.833,6.207 3.833,6.207 0,0 7.114,4.732 7.114,10.755 0,6.022 -9.782,20.219 -13.784,24.951 -4.001,4.733 -25.788,25.382 -32.902,31.835 -7.114,6.453 -19.563,31.404 -26.233,38.287 -6.669,6.883 -41.794,21.51 -41.794,21.51 0,0 -0.653,37.378 -1.212,43.823 -0.558,6.444 -2.753,45.925 -3.577,54.07 -0.824,8.144 5.45,40.382 -0.207,47.77 -5.656,7.388 -15.73,17.132 -17.687,18.132 -1.957,1 -12.632,0.201 -14.363,-3.118 -1.731,-3.319 -12.355,-24.574 -15.553,-47.28 -27.161,44.168 -51.504,55.947 -54.778,56.741 -3.275,0.794 -11.424,-0.498 -14.363,-3.119 -2.37,-2.112 0.368,-45.492 1.499,-52.717 1.13,-7.226 8.579,-39.05 17.678,-52.586 24.142,-35.916 29.644,-59.565 29.2,-65.157 -0.445,-5.593 -20.156,-16.747 -23.566,-21.51 -8.375,-11.701 -12.377,-40.093 -20.379,-47.836 -8.003,-7.743 -52.538,-27.448 -58.318,-28.308 -5.78,-0.861 -24.379,4.217 -33.716,8.089 -10.25,4.25 -48.461,32.609 -65.801,35.191 -17.341,2.581 -94.699,22.883 -116.127,24.606 -50.154,4.033 -94.26,1.29 -113.824,-1.291 -19.563,-2.581 -72.822,-23.315 -91.497,-32.349 -18.674,-9.034 -61.109,-63.851 -87.686,-104.368 -26.576,-40.518 -34.236,-94.643 -33.791,-102.387 0.445,-7.743 7.559,-18.068 8.893,-21.079 1.333,-3.012 1.333,-15.057 1.333,-27.103 0,-10.63 -32.116,-38.731 -38.444,-43.121 6.012,0.469 35.235,-11.309 38.1,-9.725 3.113,1.721 32.357,5.955 43.473,10.687 11.115,4.732 34.236,20.467 34.236,20.467 0,0 13.044,-1.634 16.992,-1.81 11.656,-0.519 28.359,3.96 28.359,3.96 21.787,-4.302 37.348,-6.426 45.352,-15.891 7.038,-8.324 19.563,-12.308 17.785,-21.342 0,0 0.889,-40.936 -6.225,-52.926 -7.114,-11.989 -21.342,-20.966 -20.898,-29.14 0.445,-8.174 46.686,-51.624 61.803,-61.948 12.843,-8.772 74.697,-55.065 74.697,-55.065 10.227,-5.593 31.04,-11.126 46.241,-16.348 l 18.313,5.421 c 0,0 -6.585,-13.072 -8.003,-23.482 -1.417,-10.41 10.671,-49.351 34.679,-32.011 5.78,2.151 29.492,20.648 36.013,36.135 5.843,13.875 48.017,32.263 48.828,67.599 0.363,15.773 12.45,92.922 15.562,102.386 3.113,9.465 36.46,28.566 40.906,28.566 4.446,0 14.228,-6.452 19.119,-11.185 4.89,-4.732 33.527,-28.558 33.621,-35.991 0.094,-7.434 -34.985,-40.228 -36.66,-42.126 -1.674,-1.898 -14.921,-28.268 -16.005,-32.011 -1.085,-3.743 -5.796,-13.719 -2.489,-20.824 3.307,-7.104 2.051,-27.835 3.079,-29.754 1.028,-1.92 8.71,-10.262 8.71,-10.262 0,0 15.498,6.326 18.121,8.5 2.623,2.174 35.716,39.185 38.26,43.554 2.543,4.368 22.159,40.316 22.159,40.316 0,0 10.076,29.077 15.353,45.395 6.179,19.109 -41.837,91.209 -41.837,91.209 0,0 11.042,1.618 35.497,26.57 24.454,24.951 33.791,52.053 39.127,61.948 5.335,9.895 14.672,15.917 18.229,19.789 3.557,3.872 29.346,40.439 33.347,48.182 4.002,7.744 19.119,25.382 24.899,30.114 5.78,4.732 44.462,16.777 56.467,26.242 3.835,3.022 7.122,6.395 9.824,9.588 5.361,-9.808 12.172,-19.991 12.172,-19.991 0,0 -8.138,13.994 -11.147,21.227 1.094,1.347 2.082,2.648 2.954,3.86 5.712,-5.857 11.079,-10.583 11.079,-10.583" />
      <path
         inkscape:connector-curvature="0"
         style="fill:#ffffff;fill-opacity:1;fill-rule:nonzero;stroke:none"
         id="path3114"
         d="m 2127.1624,2803.7673 c -10.285,16.006 -26.271,31.296 -30.953,51.589 -7.739,33.533 -53.662,60.494 -53.662,60.494 0,0 -11.012,17.911 -3.827,43.222 7.184,25.31 40.373,45.652 49.404,60.689 9.03,15.037 23.756,91.97 8.14,99.381 -15.616,7.412 -49.294,-15.251 -60.523,-31.329 -4.532,-6.488 -9.82,-19.251 -14.927,-32.981 -1.228,-3.302 13.79,80.881 0.254,83.895 -13.535,3.013 -32.755,-20.023 -44.563,-47.997 -6.624,-15.691 -12.23,-38.431 -12.055,-54.141 0.107,-9.643 9.948,-63.039 9.796,-63.775 -2.803,-13.58 5.768,-42.685 -10.398,-50.72 -16.166,-8.034 -39.172,-53.841 -72.935,-42.739 -7.062,2.322 -15.124,5.845 -23.782,10.155 l -12.129,10.525 7.589,-8.221 c -3.088,1.594 -6.239,3.275 -9.44,5.028 -0.064,0.05 -0.127,0.099 -0.191,0.149 l -4.13,5.355 2.466,-4.053 c -11.242,8.868 -21.675,18.483 -21.675,18.483 0,0 8.651,-8.163 14.651,-14.964 -4.306,2.457 -8.667,5.008 -13.047,7.616 l -8.344,9.613 5.437,-7.875 c -34.471,20.679 -69.513,44.285 -86.522,51.85 -28.332,12.6 -89.625,58.433 -146.384,67.033 -78.226,11.852 -162.538,3.44 -214.916,-59.501 -54.929,-66.005 -56.634,-126.635 -56.634,-126.635 0,0 -10.045,-23.287 -23.817,8.381 -6.174,14.195 -19.994,49.255 -51.184,57.23 18.056,-52.878 5.377,-74.012 18.056,-94.15 21.926,-34.822 55.803,-7.604 55.803,-7.604 0,0 11.268,-31.951 24.984,-33.039 13.717,-1.088 13.776,-32.351 12.96,-42.639 -0.816,-10.287 5.185,-46.592 1.5,-61.496 -5.534,-22.38 -4.5,-61.497 -28.908,-81.221 -9.647,-7.796 -19.09,-32.774 6.004,-58.946 16.918,-17.645 73.901,-9.826 126.884,-37.11 6.048,-3.114 29.597,-4.457 50.512,-4.214 17.221,0.2 31.703,1.009 37.917,0.948 13.759,-0.136 40.303,7.475 40.371,14.355 0,0 13.616,1.173 14.442,10.347 0.826,9.175 -9.975,13.588 -15.118,15.359 -5.143,1.771 -25.598,22.122 -37.62,23.961 -12.023,1.838 -114.963,-11.81 -142.072,14.736 -2.91,2.85 1.824,38.323 22.103,55.442 31.334,26.45 58.981,20.284 75.007,45.004 11.315,17.453 36.004,42.004 36.004,42.004 0,0 9.913,-3.712 13.247,-10.815 3.333,-7.102 -25.757,-39.838 -6.412,-66.922 12.204,-17.085 41.154,-16.513 77.384,-6.449 11.267,3.13 22.23,4.435 33.184,5.098 4.401,-1.421 8.831,-2.561 13.249,-3.379 34.822,-6.449 32.243,-14.187 37.402,-32.243 5.159,-18.056 -13.113,-33.533 -19.562,-46.43 -7.738,-15.477 -4.944,-33.534 1.504,-33.534 6.449,0 37.724,13.155 41.271,24.504 1.81,5.791 5.244,11.885 8.992,18.17 -0.306,-6.674 2.542,-14.158 6.851,-16.018 12.195,-5.263 20.459,8.546 34.016,25.795 5.315,6.761 11.844,23.295 12.524,31.867 0.68,8.574 9.085,31.003 7.057,51.97 -2.917,30.173 -31.281,28.391 -38.911,27.354 14.826,2.479 113.641,20.215 164.016,60.465 27.286,21.802 44.604,2.146 56.949,1.167 12.346,-0.98 34.823,-14.188 51.169,-13.831 29.991,0.654 43.011,13.668 52.147,11.391 9.137,-2.278 35.855,-1.787 42.423,17.916 3.869,11.607 -1.133,34.144 -9.028,46.43" />
      <path
         inkscape:connector-curvature="0"
         style="fill:#ffffff;fill-opacity:1;fill-rule:nonzero;stroke:none"
         id="path3122"
         d="m 3578.1438,2616.1692 c -17.385,0 -30.135,2.318 -60.269,19.703 24.339,32.453 49.642,5.278 66.064,16.227 13.908,9.272 18.038,22.108 18.038,22.108 0,0 -59.763,122.77 -9.925,187.675 38.875,50.627 90.107,88.616 142.56,97.358 62.587,10.431 144.878,6.954 295.551,-24.34 40.107,-8.33 75.58,6.367 86.927,17.965 2.502,2.558 -9.345,1.101 -9.345,1.101 0,0 76.655,30.749 81.936,41.31 5.281,10.562 27.084,55.867 27.084,75.23 0,19.363 0.037,88.54 -5.179,112.532 -5.215,23.992 18.972,20.614 33.054,6.532 14.082,-14.082 36.574,-79.212 35.01,-80.776 -1.565,-1.565 33.64,23.079 38.921,35.4 5.281,12.322 21.123,14.082 26.404,-7.041 5.281,-21.123 -42.637,-115.982 -44.202,-117.546 0,0 -15.125,-36.848 -14.082,-33.719 l 33.64,-29.455 c 14.083,-19.05 21.561,-41.773 19.559,-50.344 -2.426,-10.386 17.212,-35.987 23.47,-46.94 6.259,-10.953 8.606,-29.729 3.912,-37.552 -4.694,-7.824 -18.776,-12.518 -18.776,-12.518 0,0 -7.106,-9.408 -13.3,-10.431 -11.167,-1.844 -37.031,-7.823 -55.807,4.694 -16.841,11.227 -75.105,26.078 -89.708,-11.474 -5.47,-14.065 -33.185,-29.662 -32.026,-51.683 1.16,-22.022 4.124,-54.784 16.227,-66.065 22.487,-20.961 77.801,-38.666 77.437,-39.03 -1.739,-1.739 76.785,-37.755 102.211,-45.578 15.892,-4.89 20.283,-20.283 15.067,-22.891 -5.215,-2.608 -7.116,-10.531 -17.385,-14.198 -9.183,-3.28 -47.006,10.427 -62.587,11.59 -30.876,2.305 -69.545,25.495 -70.7,24.34 -1.739,-1.739 34.358,-57.548 52.156,-90.404 11.462,-21.162 7.243,-48.679 0.775,-51.834 -6.469,-3.155 -6.165,-6.494 -10.048,-8.436 -9.972,-4.986 -15.492,7.811 -20.862,19.704 -5.369,11.893 -17.345,52.438 -26.658,63.746 -16.226,19.704 -52.156,66.803 -53.894,65.065 -0.638,-0.638 -67.265,55.37 -86.347,48.519 -45.202,-16.226 -72.932,-16.125 -74.033,-17.226 -1.739,-1.738 -25.209,-27.164 -34.988,-38.9 -9.779,-11.735 -86.492,-8.257 -88.231,-9.996 -0.951,-0.951 45.42,-31.235 75.554,-34.713 22.396,-2.584 46.073,-8.132 54.474,-13.908 18.545,-12.749 -10.071,-37.816 -39.407,-37.089 -36.331,0.902 -92.321,26.877 -121.697,32.453 -37.262,7.073 -73.045,2.335 -89.244,12.749 -32.453,20.863 14.487,55.938 12.749,54.199 -1.739,-1.739 27.164,25.209 25.425,23.47 -1.738,-1.739 -65.411,2.884 -67.15,1.145 -1.739,-1.739 -26.15,-8.562 -47.52,-8.113 -21.37,0.448 -48.679,24.339 -56.792,22.021 0,0 -25.816,-4.636 -44.043,-4.636" />
    </g>
  </g>
  <path
     transform="matrix(0.08154814,0,0,0.08154944,29.727272,761.42391)"
     style="fill:#ffffff;fill-opacity:1;stroke:none"
     d="m -107.01988,718.28912 c 0,6.7725 -5.4902,12.2627 -12.2627,12.2627 -6.7725,0 -12.26269,-5.4902 -12.26269,-12.2627 0,-6.7725 5.49019,-12.26269 12.26269,-12.26269 6.7725,0 12.2627,5.49019 12.2627,12.26269 z"
     id="path3561" />
  <path
     id="path3580"
     d="M 81,879.99998 C 81,880.55228 80.552284,881 79.999999,881 79.447715,881 79,880.55228 79,879.99998 c 0,-0.55229 0.447715,-1.00001 0.999999,-1.00001 0.552285,0 1.000001,0.44772 1.000001,1.00001 z"
     style="fill:#ffffff;fill-opacity:1;stroke:none"
     inkscape:connector-curvature="0" />
  <path
     inkscape:connector-curvature="0"
     style="fill:#ffffff;fill-opacity:1;stroke:none"
     d="M 371,19.99998 C 371,20.55228 370.55228,21 370,21 c -0.55228,0 -1,-0.44772 -1,-1.00002 0,-0.55229 0.44772,-1.00001 1,-1.00001 0.55228,0 1,0.44772 1,1.00001 z"
     id="path3588" />
  <path
     id="path3594"
     d="M 81,19.99998 C 81,20.55228 80.55228,21 80,21 c -0.55228,0 -1,-0.44772 -1,-1.00002 0,-0.55229 0.44772,-1.00001 1,-1.00001 0.55228,0 1,0.44772 1,1.00001 z"
     style="fill:#ffffff;fill-opacity:1;stroke:none"
     inkscape:connector-curvature="0" />
  <path
     id="path3592"
     d="m 371,469.99998 c 0,0.5523 -0.44772,1.00002 -1,1.00002 -0.55228,0 -1,-0.44772 -1,-1.00002 0,-0.55229 0.44772,-1.00001 1,-1.00001 0.55228,0 1,0.44772 1,1.00001 z"
     style="fill:#ffffff;fill-opacity:1;stroke:none"
     inkscape:connector-curvature="0" />
  <path
     id="path3590"
     d="M 81,469.99998 C 81,470.55228 80.552284,471 79.999999,471 79.447715,471 79,470.55228 79,469.99998 c 0,-0.55229 0.447715,-1.00001 0.999999,-1.00001 0.552285,0 1.000001,0.44772 1.000001,1.00001 z"
     style="fill:#ffffff;fill-opacity:1;stroke:none"
     inkscape:connector-curvature="0" />
  <path
     inkscape:connector-curvature="0"
     style="fill:#ffffff;fill-opacity:1;stroke:none"
     d="M 81,429.99998 C 81,430.55228 80.552284,431 79.999999,431 79.447715,431 79,430.55228 79,429.99998 c 0,-0.55229 0.447715,-1.00001 0.999999,-1.00001 0.552285,0 1.000001,0.44772 1.000001,1.00001 z"
     id="path3584" />
  <path
     inkscape:connector-curvature="0"
     style="fill:#ffffff;fill-opacity:1;stroke:none"
     d="m 371,879.99998 c 0,0.5523 -0.44772,1.00002 -1,1.00002 -0.55228,0 -1,-0.44772 -1,-1.00002 0,-0.55229 0.44772,-1.00001 1,-1.00001 0.55228,0 1,0.44772 1,1.00001 z"
     id="path3582" />
  <path
     id="path3586"
     d="m 371,429.99998 c 0,0.5523 -0.44772,1.00002 -1,1.00002 -0.55228,0 -1,-0.44772 -1,-1.00002 0,-0.55229 0.44772,-1.00001 1,-1.00001 0.55228,0 1,0.44772 1,1.00001 z"
     style="fill:#ffffff;fill-opacity:1;stroke:none"
     inkscape:connector-curvature="0" />
  <path
     id="path3572"
     d="M 21,529.99998 C 21,530.55228 20.552284,531 19.999999,531 19.447715,531 19,530.55228 19,529.99998 c 0,-0.55229 0.447715,-1.00001 0.999999,-1.00001 0.552285,0 1.000001,0.44772 1.000001,1.00001 z"
     style="fill:#ffffff;fill-opacity:1;stroke:none"
     inkscape:connector-curvature="0" />
  <path
     inkscape:connector-curvature="0"
     style="fill:#ffffff;fill-opacity:1;stroke:none"
     d="M 21,79.99998 C 21,80.55228 20.552284,81 19.999999,81 19.447715,81 19,80.55228 19,79.99998 19,79.44769 19.447715,78.99997 19.999999,78.99997 20.552284,78.99997 21,79.44769 21,79.99998 z"
     id="path3576" />
  <path
     id="path3578"
     d="M 431,79.99998 C 431,80.55228 430.55228,81 430,81 c -0.55228,0 -1,-0.44772 -1,-1.00002 0,-0.55229 0.44772,-1.00001 1,-1.00001 0.55228,0 1,0.44772 1,1.00001 z"
     style="fill:#ffffff;fill-opacity:1;stroke:none"
     inkscape:connector-curvature="0" />
  <path
     inkscape:connector-curvature="0"
     style="fill:#ffffff;fill-opacity:1;stroke:none"
     d="m 431,529.99998 c 0,0.5523 -0.44772,1.00002 -1,1.00002 -0.55228,0 -1,-0.44772 -1,-1.00002 0,-0.55229 0.44772,-1.00001 1,-1.00001 0.55228,0 1,0.44772 1,1.00001 z"
     id="path3574" />
  <path
     id="path3564"
     d="M 21,369.99999 C 21,370.55228 20.55228,371 20,371 c -0.55229,0 -1,-0.44772 -1,-1.00001 0,-0.5523 0.44771,-1.00002 1,-1.00002 0.55228,0 1,0.44772 1,1.00002 z"
     style="fill:#ffffff;fill-opacity:1;stroke:none"
     inkscape:connector-curvature="0" />
  <path
     inkscape:connector-curvature="0"
     style="fill:#ffffff;fill-opacity:1;stroke:none"
     d="m 431,369.99999 c 0,0.55229 -0.44772,1.00001 -1,1.00001 -0.55229,0 -1,-0.44772 -1,-1.00001 0,-0.5523 0.44771,-1.00002 1,-1.00002 0.55228,0 1,0.44772 1,1.00002 z"
     id="path3570" />
  <path
     inkscape:connector-curvature="0"
     style="fill:#ffffff;fill-opacity:1;stroke:none"
     d="m 431,819.99999 c 0,0.55229 -0.44772,1.00001 -1,1.00001 -0.55229,0 -1,-0.44772 -1,-1.00001 0,-0.5523 0.44771,-1.00002 1,-1.00002 0.55228,0 1,0.44772 1,1.00002 z"
     id="path3566" />
</svg>
