<svg width="399.99998740157486" height="399.99998740157486" xmlns="http://www.w3.org/2000/svg" xmlns:svg="http://www.w3.org/2000/svg">
 <!-- Created with SVG-edit - http://svg-edit.googlecode.com/ -->
 <!-- reference image: href="http://blog.tagesanzeiger.ch/outdoor/wp-content/uploads/sites/12/2011/01/7.jpg" -->
 <g>
  <title>Layer 1</title>
	  <path id="svg_1" d="m159.687515,95.000023c0,0 92.250031,7.312508 106.312515,16.312508c14.0625,9 24.75,21.374985 30.375,32.062485c5.624969,10.6875 12.937469,38.25 12.437469,37.749969c-0.5,-0.500031 14.000031,14.000031 15.687531,23.562531c1.687469,9.562531 1.687469,25.3125 1.187469,24.812469c-0.5,-0.500031 -4.562469,4.437531 -11.312469,3.875031c-6.750031,-0.5625 -14.625031,-32.0625 -15.125031,-32.562531c-0.5,-0.500031 -6.812469,5.000031 -12.437469,3.875031c-5.625,-1.125 -10.125,-6.750031 -10.625031,-7.250031c-0.500031,-0.500031 -21.999878,3.875031 -22.499908,3.375c-0.500031,-0.500031 7.812531,7.250031 7.312408,6.75c-0.500031,-0.500031 2.187531,13.437531 -1.749969,17.375031c-3.937408,3.9375 -41.062408,10.125 -50.062408,7.3125c-9,-2.8125 -15.187531,-15.1875 -8.4375,-16.3125c6.750015,-1.125 29.8125,-3.937531 29.312469,-4.437531c-0.500031,-0.500031 -22.562469,0.500031 -25.374969,-2.874969c-2.8125,-3.375 -9.562531,-10.687531 -10.062531,-11.187531c-0.500031,-0.500031 -45.624985,9.500031 -46.125,9c-0.500031,-0.500031 -14.124985,16.250046 -16.374985,23.562546c-2.25,7.3125 -8.437477,20.25 -14.624977,18.5625c-6.1875,-1.6875 -11.8125,-12.375 -4.5,-20.25c7.3125,-7.875 11.25,-13.500015 10.749977,-14.000031c-0.500015,-0.500015 -16.937477,6.687531 -24.812477,3.875031c-7.875008,-2.8125 -12.375,-14.625 -5.0625,-16.875c7.3125,-2.25 28.687523,-8.437515 28.187477,-8.937531c-0.500015,-0.500015 -2.874977,-23.124985 -5.124977,-29.874985c-2.25,-6.75 -7.312508,-13.5 -7.812523,-14.000031c-0.500015,-0.500015 -8.499977,1.062531 -10.749977,-2.874969c-2.250008,-3.9375 0.5625,-5.624969 0.062477,-6.125031c-0.500015,-0.500031 -9.624977,1.062531 -7.937477,-5.687469c1.6875,-6.749977 3.9375,-10.124977 3.9375,-12.937477c0,-2.8125 0,-23.062508 2.8125,-25.312508c2.8125,-2.25 5.625,-6.75 5.124977,-7.250023c-0.500015,-0.500015 -2.312477,-3.437477 -1.187477,-6.249977c1.125,-2.8125 2.812492,-6.1875 2.312477,-6.687523c-0.500015,-0.500015 -15.812477,-33.812477 -14.124977,-40.562477c1.6875,-6.75 6.75,-6.1875 8.4375,-2.25c1.6875,3.9375 12.9375,11.8125 12.437477,11.312481c-0.500015,-0.500023 6.687523,-11.312481 11.187523,-15.812481c4.5,-4.5 5.625,-3.375 7.874977,1.6875c2.249985,5.0625 14.625,18.5625 14.625,24.75c0,6.1875 1.6875,21.9375 3.375,25.3125c1.6875,3.375 12.375,15.1875 12.375,15.1875l-0.000015,0l-0.000031,0l0,-0.000008l-0.000031,0l-0.000015,0z" stroke="#000000" fill="#000000"/>
 </g>
</svg>
