<?xml version="1.0" encoding="utf-8"?>
<!-- Generator: Adobe Illustrator 18.0.0, SVG Export Plug-In . SVG Version: 6.00 Build 0)  -->
<svg version="1.2" baseProfile="tiny" xmlns="http://www.w3.org/2000/svg" xmlns:xlink="http://www.w3.org/1999/xlink" x="0px"
	 y="0px" width="5669.3px" height="6803.1px" viewBox="0 0 5669.3 6803.1" xml:space="preserve">
<g id="Ebene_1">
	<rect width="5668.7" height="6826.2"/>
</g>
<g id="Ebene_2">
	<path fill="#FFFFFF" d="M956.6,567.6c-0.6-6-1.2-8.5-1.9-11.8c-0.8-3.6-1.6-6.6-2.2-7.9c-1.7-3.9-5.4-8.9-7-12.1
		c-1.6-3.2-17.7-25.7-22.3-42.3c-2.9-10.5-1.9-26.2-4-31.1c-2.5-5.8-1.5-9.9-13.8-20.2s-27.4-23.8-29.7-26.9
		c-2.3-3.2-2.6-7.1-1.1-13.3s11.6-44.8,13-60.3c1.4-15.5,20.8-46.3,20.3-52.9c-0.6-6.6,0-28.1-14.9-17.5
		c-13,9.3-36.5,35.2-36.5,35.2c-1.6-3.2-3.1-25.6-5.5-30.8c-2.4-5.1-9.3-20.6-12-21s-11.1,3.6-11.1,3.6c-3,3.6-26.5,39.9-36.9,76.4
		c-8,28,1.8,70.9,1,77c-0.8,6.1-10.6,7.3-19,15s-15,22-29,31c-12,7.7-20.5,3.3-29,6c-8.5,2.7-58-23-69.3-29
		c-11.3-6-59.3-23.3-76.7-28.7s-78-18-93.3-18.7c-15.3-0.7-58.7,0.7-83.3,2c-24.7,1.3-52,8-66.7,10.7c-14.7,2.7-51.3,25.3-56.7,28
		c-0.7,0.4-2,1.5-3.7,3.1c-11,5.1-21.4,10-24.6,11.8c-5,2.9,4.7-2.3,19.9-7c-12.3,13.1-33.3,38.1-36.3,42.1c-4,5.3-22.7,24-26,44
		c-3.3,20-6.7,56-6.7,58s-1.3,10.3-2.7,13.7c0,0-32,15-45,33s9,34,22,37c7.3,1.7,37.5,8.5,46,8s19.4-4.4,24-8c7-5.5,22-11,22-11
		s21,10.7,23.7,11.3c2.7,0.7,17.3-1.3,20.7,1.3c3.3,2.7,2.7,8,0.7,10.7s-19.6,30.3-27,33.7c-6.1,2.7-16.3,16-12,27s27,21,17,14
		s41,26.3,57,31.7c5.9,2,9.3,2.8,17,3.3c-1.2,2-7.1,14.1-6,16c3,5,21,13,35,13s53,6,58,8c3.8,1.5,28.7,10.1,40.2,14
		c6.3,2.6,11.5,4.7,11.5,4.7s-22.7,16.3-24.7,18.3s-12.7,2.7-14.7,4.7s-8.7,12-9.3,15.3c-0.7,3.3,2.3,16.7,5,20
		c2.7,3.3,7.3,13,14,13c6.7,0,26.3-6,29-8c2.7-2,25-26.5,29-30c8-7,21.7-15.3,21.7-15.3s5.3,3.3,8.7,4.7c3.3,1.3,26,4.7,28,5.3
		c2,0.7,8.7-3.3,8.7-3.3l10-7.3l6.7-2l4.7-4l-0.7-3.3l2.3-3.7c0,0-1.7-3.7-1.7-7.7s-18.3-14.3-18.3-14.3s7.3-10,10-14
		s-1.7-17.7-1-20.3c0.7-2.7,32-12,39.3-14.7c7.3-2.7,70.7-5.7,88.7-11c18-5.3,48-35,48-35c10.7-10,13.3-35.3,23.3-44.7
		c4.4-4.1,2.1-36.7,17.7-39.3c12-2,63.3-30.6,63.3-30.6s5.1-2.9,11.5-4.5c6.9-1.7,15.2-0.5,18.9-2.1c3.3-1.5,8.5-8.1,10.6-6.9
		c1.1,0.6,3.7,0.7,7,0.2c3.2-0.4,7.1-0.5,10.2-3c1.2-1.4,2.4-4.8,4-2.8c0.9,2.2,1.4-1.4,2.1-1.9c1.2,5.2,1.9,4.9,2-2.2
		c-0.1-9.3,2,6.8,2-2.4c0.6-1,0.6-8.8,1.8-2.5c0.6-0.6,1.8,6.5,1.7-2.5c0.8,2.3,0.5-7.7,1.4-2.4c-0.3-9,0.9-0.5,1.1-2.2
		c0.4-0.3,0.7-0.5,0.8-2C956.9,573.8,956.9,570.9,956.6,567.6z M398.2,692.1c-2,3.3-21,39.7-23.7,41c-2.7,1.3-18.7,2-24,2
		c-5.3,0-12.3-8-12-12.7c0.7-10.7,41-45,41-45l1.3,6l7.3-4.7C388.2,678.7,400.2,688.7,398.2,692.1z M551.5,750.1
		c-0.7,4-27.3,16-31.3,16s-30.3,9-30.3,9s-11.3-9.3-14-10.7c-2.7-1.3-14-8-16-10s-9.3-2.7-11.3-4.7s-4-6-6.7-7.3
		c-2.7-1.3-7.3-3.3-7.3-3.3l18.3-31c0,0,23.3,2.7,35.3,2.7s27.3-1.3,27.3-1.3l22,6.7C537.5,716.1,552.2,746.1,551.5,750.1z"/>
	<path fill="#FFFFFF" d="M1253.7,737c0,0-1-3.5-1-7s-1.5-5,1-12.5s7-20,11-26s13.5-23.5,13.5-23.5l10.8-17.3c2-3,4.3-11,8.3-17
		s7.3-14.7,12.7-24c5.3-9.3,18-26,23-29.3s20.7-6.3,24.7-6.3s14,4.7,15.7,4.7s11-1.7,12.7-2c1.7-0.3,6.7,2.7,8.3,3.3
		c1.7,0.7,15-2.3,22.7-5.3c7.7-3,13-20,19-27s14-27.3,14.3-28.7c0.3-1.3-0.7-9.3,0.3-9.7s7.3-23.3,8.3-25s2-11,4-16.7
		s17.7-23.7,23.3-34.3c0.1-0.2,0.2-0.5,0.4-0.7c-14.3-5.8-35-19.6-35-19.6s29-22,46-25l17.9-0.9c0,0,0.1-0.1,0.1-0.1
		c3.7-2.5,6.9-4.5,8-5.3c0,0,22-12.3,35.7-16s40-7,45.7-8.3c5.7-1.3,33-0.7,39.3-0.7s23,2.7,31,3.3c8,0.7,17.3,3.3,23.7,5
		c6.3,1.7,41,16.3,48.7,19c7.7,2.7,15,3.7,21.7,6c6.7,2.3,37.3,16.7,46,20c8.7,3.3,74.3,29,74.3,29s6,1.3,8.3,1.7
		c2.3,0.3,14,4.7,15.7,5.3c1.7,0.7,17.2,2.5,22.5,3.5c5.3,1,21.2,9.5,21.2,9.5s8.3-3.3,11-3.7s10.3,1.3,10.3,1.3s2.7-2.7,4-4
		c1.3-1.3,8.7-5.7,8.7-5.7c7.3-3,12.7-11.3,12.7-11.3l-1.7-2.3l-2.3-2.7l8.3,3.7l-6.3-8.7l5.3,4.3l-2-5.7l6.7,8c0,0-1.9-6-1.3-10
		c1-7,5.3-23.7,5.7-26.3c0.3-2.7-1-11-1.3-14.7c-0.3-3.7,8.9-41.2,11.2-47.8s15.5-26.2,16.5-27.8s2-8.3,4-13c2-4.7-0.3-14,0.9-20.8
		c0.4-2.5,2.5-5.5,2.5-5.5c2-0.7,7.3,2,12,2.7c4.7,0.7,9.5,7.8,12.9,10.8s12,22,13,27s-0.1,28.5-0.2,34.8c-0.3,25.7-6,46.3-6,46.3
		s10.9-3.8,15.5-8.5c2.4-2.4,2.4-2.1,2.3-1.9c0.1-0.2,0.5-0.7,1.5-2.1c3.6-4.8,27.2-35.1,32.2-39c5-3.9,9.7-9.7,12.2-11.7
		c2.5-1.9,9.2-5,14.4-7.2c5.2-2.2,20.9,2,20.9,2s-0.9,5.2-1.9,6.3c-1,1.1-4.5,10.4-5,12c-0.5,1.6-4.8,11.1-4,7.3
		c0.8-3.8-2.8,10.2-2.8,10.2c-1.1,2.9-8.5,13.9-11.2,19.5c-2.7,5.5-11.3,23.4-14.5,28.1c-5.5,8-10.1,16.7-13.2,21
		c-4.3,6-7,10.7-9.7,12.7s-17,13.3-17,13.3s8,8,11,12.3s4.3,11,10.3,20.3c18,21.3,22.5,55.3,23,58.3s12,24,12,24l14.7-12.3
		l-14.4,13.2c0.2,0.7,0.4,1.3,0.7,1.7c0,0.1,0.1,0.2,0.1,0.3l9.6-4.9l-9.2,5.5h-0.1c1.6,2.9,4.6,8,4.6,9.2c0,0,5.3,11-9.3,23.7
		c-4.8,4.2-15.3,7-15.3,7s-10.3,8-16.3,12.3s-44.3-6.3-50-1.7c-5.7,4.7-14.7,7.7-18,14c-3.3,6.3-9,18.3-11.3,23.3
		c-2.3,5-5.3,32.3-8.7,39.7s-15.3,27-18.3,31c-2.4,3.2-23,12.3-29.3,14.2c0.7,3-4.1,16.6-4.1,16.6s-8.7,18.8-7.3,24.5
		c1.3,5.7,5,15.7,5.7,18.7s14.7,27.7,17.3,32.3c2.7,4.7,30.3,47,31.7,50.7c1.3,3.7,13.7,19.7,14.7,20.7s5.7,1.3,8.7,2
		c3,0.7,13,3,16,3.3c3,0.3,19.7,0.3,22,0.7c2.3,0.3,7.7,4.7,11.7,7.7s8.3,8,10.7,10c2.3,2,8.7,4.7,9.7,10.8c0.3,1.8-4.7,0-4.7,0
		l3.7,3.3c-1,3.3-4.7,4.3-4.7,4.3s-5.3,0.2-9.3,0.2s-8-0.8-10.3-0.8c0,0-13.7-8.2-24.7-8.2s-48.7-3.8-48.7-3.8c-2-0.7-5,0.7-8.3,0
		c-3.3-0.7-9.5-10.2-9.5-10.2s-48-66.5-58.5-77c-8.5-8.5-21.1-14.5-29.8-22.7c1.1,4.4,2,8.5,2.2,11.8c0.7,8.3-2.5,20.8,5.9,30.6
		c12.7,14.7,34.7,7.3,42.1,18.9c13.3,20.9,21.3,35.8,4.6,34.4c-9.6-0.8-26.7-5.1-54-23.3c-18.4-12.3-31.3-6-38-21.3
		c-7-16.1,1.9-59.1-14.6-94.8c-7.2-15.6-15.3-34.5-22.5-51.6c-4.6-2.2-10.5-5.4-18-9.9c-30-18-94.5-61.5-120-76.5
		c-24.3-14.3-74.9-35.3-74.9-35.3l-5.3,4l-2.7,1.3c0,0-11.3,6-14.7,7c-3.3,1-18,0.7-27.7,1.7s-15.3,3.7-19,4c-3.7,0.3-28.3,3-28.3,3
		s-4.7,5-9,5.7c-4.3,0.7-27-0.7-27-0.7s-10,3-17.7,7s-20.3,17-23.7,20.3c-3.3,3.3-14.7,22.3-16,26c-1.3,3.7-11,24.7-13.3,29
		c-2.3,4.3-5.3,10.3-7.3,13.7s-11.7,25-14.3,30.3c-2.7,5.3-17.3,44.3-18.3,47.3s-5,6.7-6.3,7.3c-1.3,0.7-4.7-0.3-4.7-0.3l-1.3-2.7
		l-4.7,3l-1.7-3l-1-2l-3-1.7l-2.7-3.3l0.7-2.7h-3.7l-3.3-4.3l-4-5l-1.7-9.3l-1-8c0,0-0.7-6.3-0.7-8.3s2.7-5.7,2.7-5.7v-8.3
		c0,0-0.8-2.2,0.7-8.7s2-18,11.5-35s20.8-40.7,20.8-40.7l3.3-1.3c0,0,4-7.3,5.3-9c1.3-1.7,5.7-6.7,6.7-8.3c1-1.7,3-8.3,4.7-10.7
		c1.7-2.3,6-11,6-11s-6.7-0.3-12.3,0c-5.7,0.3-16,3.3-22.7,6.3c-6.7,3-18,14.3-25,22.3s-20.3,48.7-23,53c-2.7,4.3-28.3,57-28.7,57.7
		s-8,3-9,3.7c-1,0.7-8.3,15-11.3,17s-11.7,5.7-13.3,6c-1.7,0.3-3.3-2.7-5.3-5c-2-2.3,2.7-6,2.7-6s-5.3,1.7-6.3,0.3
		c0,0-1.1-1.5-2.7-4.3l0,0l0,0c-2.3-4.1-5.3-11-6.8-20C1243.7,744,1253.7,737,1253.7,737z"/>
	<path fill="#FFFFFF" d="M3263.7,633.8c0,0,2,22,0.7,32.7c-1.3,10.7-8.7,22.7-11.3,22.7c-2.7,0-17.3-7.3-20-11.3
		c-2.7-4-11.3-16.7-11.3-16.7s-3.3-22-6.7-24c-3.3-2-8.7-4.3-8.7-4.3s-61.3,31-71.3,35s-36.2,8-50.8,12
		c-9.2,2.5-38.7,21.7-47.8,19.1c-9.1-2.6-25.1-18.1-25.1-18.1s-61.8,33-91,37s-56.7,8-78.7,8s-79.3,5.3-90,4
		c-10.7-1.3-22-8-25.3-5.3c-3.3,2.7-18.7,14.7-22.7,14.7s-24.7-4-34,2.7c-9.3,6.7-34.7,34.7-42,42c-7.3,7.3-17.3,16-22.7,18
		c-5.3,2-14-0.7-14-0.7s-25.3,13.3-32,15.3c-6.7,2-20.7,4-26.7,6s-26,12-26,12s-2.7,18-4,21.3s-18,36.7-18,36.7s-18,0.7-20.7-2
		c-2.7-2.7-7.3-12-6.7-14c0.7-2,2.7-7.3,2.7-7.3s-22,20.7-25.3,28.7s-8.7,23.3-10,25.3s-12.2,17-14.7,19.7
		c-3.7,4-10.5,11.6-22.7,15.7c-18,6-17.7,0.3-20.3-5.7c-2.7-6,3.7-16.3,5-19.7c0,0,12.3-19,12.7-28s6-27,6-27
		c2-4.7,0.3-28.3,7.3-34.3c6.3-5.4,34.7-20,40-24.7c5.3-4.7,23.3-24,24-30.7c0.7-6.7,4.7-25.3,10-28c5.3-2.7,9.3-1.3,15.3-4
		c6-2.7,24.7-23.3,24.7-23.3s11.9-26.8,15.3-39.9c8.6-33.2-6.6-88.6,15.5-122c1.3-2,2.7-3.7,3.3-5.1c1.5-0.9,2.1-1.5,0.2-1.7
		c3.1-1.1,3.7-1.7-0.7-1.9c5.6-1.1,6.2-1.7-0.2-2.3c7.5-0.5,8.1-1.1,1.3-2.6c8.6-0.2,9.7-1.4,3.7-2.9c6.6,0.4,7.8-0.4,5.2-2.2
		c2,0.8,0.3,0.7-4.1,0.7c3.8-0.7,6.1-1.4,7.2-2.1c1.4-0.5,1.4-1,0.1-1.6s-3.9-1.1-8-1.8c13.3,0.8,13.2,0.7-0.1-0.1
		c14.3-0.3,16.1-1.7,13.2-6.3c4.4,2.5,4.1,1.7,1.5-0.5c-0.8,1-4,0.5-9.4-0.1c5.1-0.4,8.9-1,11.7-1.6c2.8-0.6,4.6-1.1,5.5-1.7
		c1.8-1.2,0-2.6-4.6-4.5c13.2,0.6,15.1-0.9,12.1-4.4c6.8,0.6,8.7-0.8,10-2.7c2.3-0.6-3.6,0.9,5.8-3c5.8-2.4,19.7-9.9,24.2-12.2
		c35.3-18.7,90.7-11.3,136.7-8c0,0,26-1.3,40-4.7s101.3-38,122-46.7c20.7-8.7,75.3-55.3,106-54.7c19.3,0.4,43.3,2,43.3,2
		s9.3-19.3,8.7-28c-0.7-8.7-5.3-18-8-29.3c-2.7-11.3-6-17.3-6.7-28.7c-0.7-11.3-2-58-1.3-61.3c0.7-3.3,4-14,4-14
		c2.7-2.7,4.7-6,6.7-5.3s23.3,18,27.3,21.3s10.7,9.3,10.7,9.3s7.3-22.7,10-28c2.1-4.2,6.7-24.7,9.3-27.3c2.7-2.7,7.3,1.3,14,8.7
		c6.7,7.3,20.7,37.3,22.7,41.3c2,4,6.7,41.3,6,45.3c-0.7,4-0.7,22-0.7,24s-2,24.7-5.3,30.7c-3.3,6-7.3,10-6,12.7
		c1.3,2.7,4.7,7.3,8,9.3c3.3,2,27.3,16,35,24c7.7,8,4.7,24.7,12.3,34c7.7,9.3,10,13.3,12,14.7s11.3,16.7,13.3,21.3
		c2,4.7,6.7,17.7,4,21.7s-9,6-9,6s-6,12-11.7,16.7c-2.6,2.1-13.3,6.3-16,6.3c-2.7,0-23.6-5.5-32.3-2.7c-8.3,2.7-13.7,20-17.7,26
		s-9.3,18.7-9.3,21.3c0,2.7-0.7,12.7-0.7,12.7s44.7-10,56.7-8.7c12,1.3,20.7,4,20.7,4s27.5-0.2,38.7,1c11.2,1.2,26.4,5.5,33.7,9
		c10.8,5.2,1.7,7.7,1.3,9c-1,3.5-1.3,11.7-17,13c0,0-9,2.7-15,4.7s-13.3,3.3-13.3,3.3L3263.7,633.8z"/>
	<path fill="#FFFFFF" d="M2588.1,573.7c0,0-18.6-12.1-20.9-18.9s6.7-37.5,4.3-44.3c-2.4-6.8-1.1-24.2-28.6-1.2
		c-22.4,18.7-26.7,42.5-26.9,59.2c-0.2,16.5,8.4,29.1,33.4,46.9"/>
	<path fill="#FFFFFF" d="M4322.6,431.8c-0.1-3.4-5.5-18.2-8.7-21.4c-3.2-3.2-24-14.5-32-24.1c-8-9.7-30.6-37.8-40.6-40.3
		c-10-2.5-29-2.7-35.3-6.2c-6.3-3.5-27.8-10.5-27.8-10.5s-2.7-89.9-6.3-107.5c-3.6-17.6-20-87-39.8-90.7c-4.4-0.8-19.1,26.2-27,34.2
		c-5.8-6.2-11.6-10.2-16.8-10.3c-5.7-0.1-19.2,33.1-22.7,40.5c-11.5,23.7,10.2,54.7,18.5,77.7c6.6,18.1,14.3,65.2,22,85.1
		c-9.1,22.2-21.9,50.6-28.4,56.6c-10.6,9.6-90.5,34.5-98.8,38.2c-8.3,3.7-32.9,19.9-46.2,19.7c-13.3-0.2-65.4-0.8-117.2,18
		c-71.2,25.9-120.1,79-140.9,97.9c-8.4,7.7-43.4,64.8-49.9,83.9c-4.6,13.3-5.1,51.3-4.3,78.6c-16.6-11.4-31.2-25.2-31.2-25.2
		s-19.1,42.3-3,67.2c4,6.2,33.7,27,49.1,32.7c5.4,16.5,7.3,17.3,14,25.2c11.9,13.9,24.5,21,28.9,22.4c4.4,1.4,24.2,1.1,24.2,1.1
		s1.1,9,5,13.2s71.2,3.6,82.4,5.7c11.2,2.1,33.1,9.2,39.3,7.5c6.1-1.7,25.8,2,26-2s11.7,8.6,16.3,6c4.6-2.6,27.2-2.4,33-5.3
		c5.8-3,19.2-12,19-17.3c-0.2-5.3-13.6-13-17.4-17.2c-3.8-4.2-10.7-13.7-16.7-16c-6-2.3-69.3-13.9-69.3-13.9s2.8-35.5,14.5-36.1
		c20.6-1.1,70.8-7.2,78.8-7.8c13-1,25.9-6,30.5-8.6c4.6-2.6,29.2-6.3,29.2-6.3s0.8,8.2,6.6,14.5s36.2,30.8,36.2,30.8
		s26,31.1,32.3,34.7c6.3,3.5,15.8-0.5,15.8-0.5s25.9,16.6,37.8,21.2c11.9,4.6,51.7,9.3,56.6,7.9c4.9-1.4,21.8-7.5,21.8-7.5
		s0.2-13.3-6.1-16.9c-6.3-3.5-9.2-18.6-19.2-21.1c-10-2.5,20-4.3,23.7-5.4c3.7-1,15.1-12.2,15.1-12.2s18.8-4,17.7-7.7
		s-26.6-19-32.8-17.3s-31.9-0.3-35.4-3.3c-3.5-3-22.4-13.6-26.1-21.8c-3.7-8.3-40.3-46.1-40.3-46.1s18.6-11.1,24.9-16.9
		c6.3-5.8,29.1-33.4,33.5-41.3c4.4-7.9,11.6-48.4,16.3-55c4.8-6.7,20-46.8,27.2-54.1c7.2-7.3,69.7-56.5,76.7-59.8
		c7-3.3,33.6-17.4,39.4-20.4c5.8-3,22.2-15.5,23.2-21.2c0.9-4.5,0-14-0.5-16.6C4318.4,440.1,4322.7,434.6,4322.6,431.8z"/>
	<path fill="#FFFFFF" d="M4890.4,488.6c-1.8-2.9-3.7-5.5-3.9-13.3c-27.5-5.1-54-15.5-54-15.5l53.9,12.6c0-3.8,0.3-7.7,0.9-11.2
		l-24.3-3.8c-17.1-1.6-35.1-4.3-35.1-4.3s23.4,1.7,30.3,1.9c7,0.2,29.5,4,29.5,4c0.8-3.3,2.5-8.1,4.6-13.5
		c-4.4-3.2-18.4-12.3-26.9-17.7c11.7,6.9,28.1,14.6,28.1,14.6l0,0.1c5.7-14.1,19.3-21.7,21.9-25.9c3.8-6.3,13.8-28.2,16.3-35.5
		s8.3-25.4,12.4-30.7c9-12,18.4-17.6,29-24.9c10.6-7.3,25.4-14.5,28.7-16.1s21.1-9.3,26.6-11.2c5.5-1.9,19.5-1.5,19.5-1.5
		s23.2-33.3,27.1-38.5c3.9-5.2,7.6-20.7,9.9-29.2c2.3-8.4,35-48.8,41.1-54.3c6.2-5.5,42.7-9.4,46.4-7.6c3.7,1.8,7.6,12.9,7.4,19.8
		c-0.2,7-19.5,43.2-23.6,47.3c-4.1,4-9.4,24.5-9.4,24.5s20.2-21.3,27.1-30.4s64.9-41.4,71.4-44.6c6.5-3.2,52.4,2,57.4,4.8
		c5,2.8,10.3,16,10.3,16s-16.4,32.4-20.1,38.7c-3.8,6.3-37.1,50.3-38.9,54c-1.8,3.7-26.4,18.7-30.6,21.6
		c-4.2,2.9-12.9,15.7-18.1,19.9c-5.2,4.2-29,24.9-33.7,32.5c-4.7,7.6-5.5,35.5-5.5,35.5s45.9,27.6,60.5,40.7
		c14.5,13,61.9,111.3,65.3,119.4c3.4,8,42.5,47.3,54,69.1c11.5,21.8,26.6,75.2,31.2,95.9c4.6,20.7,3.8,49.7-2,69.2
		c-3.9,13.2-20.1,51.5-20.1,51.5s-0.9,11.5-5.3,24.3c3.9,14.9,17.5,18.9,20.4,22.7c5.4,7-15.1,16.3-37.7,12.6
		c-3.2-0.5-6.2-1.3-9-2.1c-17.3,11.1-42.5,23-42.5,23s-59.4-3-72-3s-20.2-14.1-24.7-13.4c-4.6,0.8-14.2,9.6-14.2,9.6l-13.4,5.4
		c0,0-9.4,19.6-15,29.7s-18.7,10.9-22.1,4.7c-7.3,6.5-24.5,8.1-30.3,8.8c-2.5-1.7-6.4-5.1-10.5-11.9c-7.3,3.6-6.1-5.3-10.1-20.9
		c-3.9-15.6,2.4-20.5,2.4-20.5s-15.8-3.4-24.7,3.8c-7.9,6.4-12.1,24.2-26.4,32.7c-3.3,11.3-23,6.6-20.3-2.4c0,0-24.9,17.8-24.1,9
		c-13,5.4-11.7-15.9-11.7-15.9l6.1-11.7l15.1-25.5c0,0-2.6-20.3-7.1-21.4c-6.2-1.5-13.8-8.8-21.4-13.8c-7.5-5-29.1-28.5-36.4-40.7
		c-7.2-12.2-7-15.1-10.1-29.7c-3.3-15.6-18.8-47.7-18.8-47.7c-10.3-29.8-12.3-86.1-2-122.8c6.9-24.5,18.8-71,23.4-77.8
		c4.6-6.9,6.7-43.6,6.7-43.6S4902.9,509.5,4890.4,488.6z"/>
	<path fill="#FFFFFF" d="M2001.4,1402.8c-2.2,1.7-5.9,20.2-5.9,20.2s-6.1-28.8-9.7-34.1c-5.1-7.6-15-12.9-18.9-13.5
		c-4.6-0.7-9.7,2.9-15.2,18.9c-1.3,3.8-6.5,20.8-7.6,25.3s-5.6,37-3.4,50.5c2.2,13.5,7,39.8,9.3,43.8c2.2,3.9,8.1,19.1,8.1,19.1
		s-16.3,13.5-20.2,17.4c-3.9,3.9-16.8,25.3-25.3,27.5c-8.4,2.2-15.9,4.2-21.3,2.2c-18-6.5-76-23.3-110.6-45.2
		c-9.2-5.8-109.4-54.2-129.6-57.5c-20.2-3.4-45.5-10.2-71.8-9.5c-22.4,0.6-61.7,9-74.6,12.3c-42.1,10.9-75.2,34.1-86.8,44.3
		c-20.3,17.8-44.6,60.9-53,79.6c-8.4,18.7-10.4,45.3-9.3,50.4c1.1,5.1,4.8,32.1,6.5,38.3c0.8,2.9,2.2,6.4,3.6,10
		c0.4,2.3-0.7,8.3-2.9,9.4c-4.3,2-16,5.9-25.7,1.8c-8.2-3.5-33.9-16.2-34.1-20.2c-0.4-6-10.9-13.5-10.9-13.5s-3,38.8,13.9,58.9
		c6.5,7.8,30.8,32.4,39.2,35.2c10.5,3.5,34.6,2.4,40.4,0.9c5.8-1.5,11.7-8.7,11.7-8.7l31.9,16.8c0,0,37.9,12.6,65.7,13.9
		c27.8,1.3,57.9-16.4,73.2-16.4c18.9,0,24.3,8.1,24.3,8.1s2.5,9.5,1.4,15.2c-1.1,5.6-5.6,9.5-6.7,11.8c-1.1,2.2,2.8,7.9,1.7,13.5
		c-1.1,5.6-5.6,22.4-7.3,24.7c-1.7,2.2-6.2,14.6-4.5,18s18,14,22.4,16.3c4.5,2.2,33.1,7.3,33.1,7.3s-11.8,30.9-14,33.7
		c-2.2,2.8-8.4,7.9-10.1,10.1c-1.7,2.2-3.9,12.3-5.6,15.7s-5.6,25.5-9.7,28.6c-4.2,3.1-5.2,4.3-9.4,7.1c-4.2,2.8-39.1,14-36.6,26.6
		c0,0,5.6,14.4,9.7,17.5c4.1,3.1,14.1,7.9,17.4,6.6s25.2-9.6,33.7-10.9c8.5-1.3,34.2-39.6,34.2-39.6s11.8,5.1,16.3,4.5
		c4.5-0.6,60.1-31.4,64.5-34.8s20.2-14.6,21.3-17.4c1.1-2.8,2.8-5.1,2.8-5.1s16.3,2.8,23.6,3.9c7.3,1.1,30.9,3.6,34.2,3.6
		c3.4,0,13.5-1.7,13.5-1.7l18,0.8l20.2-0.3c0,0,15.2-2.2,17.4-3.4s0-9,0-9l5.6-9l-5.6-5.1c0,0-1.7-2.8-1.7-5.6s-12.9-9.5-17.4-10.7
		c-4.5-1.1-20.2-3.4-21.9-5.6c-1.7-2.2,2.6-5.3,0.3-6.9c-1-0.8-3.8-2.3-9.3-5.4c-6.7-3.8-31.3-9.8-32.6-9.8c-2.2,0-40.4-1.1-41-2.8
		s-1.1-26.9,0-29.2c1.1-2.2,11.2-8.4,16.3-8.4c5.1,0,46-4.5,61.2-7.3c15.2-2.8,74.1-39.3,78.6-42.1c4.5-2.8,39.3-33.1,47.7-38.7
		c8.4-5.6,23.6-18,27.5-19.6s29.2-24.1,33.7-24.1s19.1-1.1,23.6-1.7s12.9-1.7,16.3-1.1c1.2,0.2,3.2,1.2,5.5,2.5l-21.2,47.5
		l22.5-46.7c0.8,0.4,1.5,0.9,2.3,1.3l-14.7,73.5l15.8-73c2.9,1.5,5.6,2.8,7.2,2.8c1.6,0,7.8-0.7,12.9-1.6
		c-0.8,7.3,3.4,25.4,3.4,25.4s-2.8-9.1-1-25.7c6.7-1.3,11.7-3,15-4.2c6.2-2.2,17.4-13.5,18-15.7c0.6-2.2,0.6-5.6,0.6-5.6
		s5.9-0.3,8.3-3.5c4.3-5.9,4.6-10.1,4.6-13.5c0-3.4-3.9-10.5-6.2-13.3c-2.2-2.8-14.6-14.6-17.4-18.5c-2.8-3.9-21.1-26.6-28.7-48
		c-5.9-16.8-22.7-35.4-34.1-39.1c-16.8-5.6-27.5-5.4-27.5-5.4c-7.9,1.1-12.3-7.9-12.3-7.9l-2.2-4.5c0,0,1.1-7.3,2.8-14.6
		c1.1-4.8,11.9-31.3,18.8-53.6c3.6-11.7,7.8-28.8,8.4-33.7c1.7-14,3.6-31.1,2.5-35.6c-1.1-4.5-5.6-18-9.5-18c-3.9,0-9,4.8-15.7,12.3
		C2006.5,1390.2,2001.4,1402.8,2001.4,1402.8z M1671.4,1929.8l6.7-14.3l16.8,6.7c0,0-13.5,7.6-16,9.3
		C1676.4,1933.2,1671.4,1929.8,1671.4,1929.8z"/>
	<path fill="#FFFFFF" d="M91.6,1774.2c-4.1,6.1-18.2,28-20.2,30.6c-2.1,2.6,2.6,11.9,1.6,13.5c-1,1.6-2.1,13-0.5,21.8
		c1.6,8.8,11.4,15,19.7,15.6c8.3,0.5,20.8-7.3,30.6-17.6c9.9-10.4,12.5-19.2,12.5-19.2s12.8-10.5,14.5-16.6c2.1-7.3,0-18.7,0-18.7
		s5.7-16.1,7.3-21.8c1.6-5.7,17.1-35.3,17.1-35.3s6.7,0,17.6,1.6c10.9,1.6,33.7,8.3,43.1,13c10.4,5.2,31.1,23.9,31.1,23.9
		c17.6,8.3,41.5,15.6,61.2,14.5c24.4-1.3,54-6.2,56-20.8c2.9-20.5,20.8-52.9,31.7-52.9c1.8,0,3.7,0.6,5.5,1.8c1.9,1.1,3.8,2.7,2,3.3
		c4.6,2.2,5.6,3.3-2.7,2.5c10.3,2.8,11.2,4-1.2,5.3c14.4,0.9,15.4,2.1,6.6,5.5c9.3-1,8.8,0.2,5.4,2.2c4,0,6,0.7,6.6,2
		c2.3,0.4,3.3,1.2,3.9,2.1c0.7,0.9,0.9,1.8,1,2.9c4,0.8,6,2.6,8.1,4c12.5,8.3,51.4,38.4,60.7,44.1c5.8,3.6,34,18.6,49.3,25.5
		c3.1,1.4,5.9,2.6,7.9,3.6c2.7,1.1,4.7,2,1.3,2.2c6.2,1.1,6.9,1.4-0.1,1c8.7,1.2,10.6,2,1.2,4c13.8-0.1,16.1,0.8,8,4.9
		c13.1-2,15.7-1,12.2,2.6c8.7-1.2,11.3,0,8.7,2.6c7.6,0,9.9,1.4,10.1,4.1c4.1,0.2,6.1,1.8,7.7,3.4c1.6,1.7,8.3,1,9.5,2.7
		c4.7,6.2,3.6,20.2,5.7,28c1.3,5,13.5,21.3,14.5,23.9c1,2.6,7.2,26.4,9.9,33.2c2.6,6.7,23.4,10.9,24.4,13.5c1,2.6,8.3,7.3,11.9,9.3
		c2,1.1,20.6,5.9,37.4,16.1c14.3,8.7,27.1,22.8,28.5,24.9c3.1,4.7,21.4,9.8,24.9,15c6.2,9.3,24.9,14,29.6,15c4.7,1,18-5.9,20.2-11.4
		c2.2-5.5-13.1-18.4-14.5-20.8c-1.4-2.4-9.3-13.5-11.4-16.6c-2.1-3.1-27-25.9-44.6-34.3c-6.6-3.1-48.8-27-48.8-35.3
		c0-8.4-1-18.7,2.1-25.9c3.1-7.3,18.7-18.7,27.5-27c4.4-4.2,11.9-8.3,15.6-8.3c3.6,0,10.9,0,10.9,0c1-0.3,2.5,0,4.2,0.8
		c1.7,0.8,3.7,2.1,4.2,3.5c4,1.6,6.4,3.4-3.8,6.4c15.1,0.5,17.7,2.2,15.2,11.1c7.3-6.1,10-4.9,16.2-0.3c-0.1-2.5,3.3-1.5,6.8-0.6
		c3.2,0.8,6.5,1.5,9.4,2.1c5.8,1.2,10.2,1.9,10.2,1.9c2.1,0,20.2,8.8,25.4,11.9c5.2,3.1,43.1,28,51.4,31.1
		c8.3,3.1,29.6,16.1,36.3,19.7s39.4,23.4,41,23.9c1.6,0.5,8.8,6.7,16.1,6.7c7.3,0,16.1,4.2,19.2,2.6s15-0.5,19.2-2.1
		c4.2-1.6,12.5-8.3,12.5-8.3s16.1-6.2,3.6-18.7c-12.5-12.5-44.1-14-48.3-14s-11.9-2.6-22.8-6.2c-10.9-3.6-34.8-24.9-43.6-31.7
		s-3.6-1.6-11.4-7.3c-7.8-5.7-14-13.5-20.2-17.6c-6.2-4.2-21.3-13.5-25.9-17.1c-4.7-3.6-9.9-13.5-9.9-13.5
		c-4.2-5.2-11.4-22.8-14-28.5c-2.6-5.7-5.2-24.4-7.8-31.1s-10-20.2-10-20.2s1.2-4.7,4.8-5.2c3.6-0.5,7.1,2.4,19,2.4
		c11.9,0,30.1-2.4,36-4.5c9.9-3.5,27.7-18,27.7-18s6.9-1.4,9.7-4.8c4.5-5.5,4.2-10.9,2.6-18.2c-1.6-7.3-11.4-24.4-14.5-28
		c-3.1-3.6-9.9-13.5-14.5-18.7c-4.7-5.2-10.7-26.8-14.4-31c-3.6-4.2-14.7-13.1-23.5-19.9c-8.8-6.7-30.6-10.9-33.2-15
		c-2.6-4.2-0.2-17.1,2.3-22c2.5-5,3.3-30.4,4.5-44.4c1.3-14,5.3-46.9-0.4-64.7s-23.1-32.8-27.7-33.3s-9.7,3.3-11.4,5.2
		c-1.7,1.9-0.4,16.1-0.7,19.7c-0.3,3.6-6.1,21.3-8.2,26.9s-3.8,25.2-3.8,25.2s-27.1-23.3-32.9-28c-5.8-4.7-15.3-4-15.3-4
		s-2,10.2-2.2,12.8c-0.2,2.6,4,12.9,7.4,22c3.3,9.2,6.4,26.6,10.2,36.9c3.8,10.2,10.8,32,15.4,37.7c4.7,5.7,0.5,14.5,0.5,14.5
		s-14,8.8-16.1,11.9c-2.1,3.1-6.7,12.5-10.9,15.6c-3.3,2.5-8.3,10.4-21.8,11.4c-9.3,0.7-36.3-16.6-52.9-22.8s-30.1-10.4-57.6-15
		c-27.5-4.7-52.4-12.5-116.8-40c-64.4-27.5-120.9-51.9-147.4-51.9c-26.5,0-50.9,2.1-64.4,9.3c-13.3,7.2-45.7,30.1-55,38.9
		c-9.2,8.7-34.3,31.7-27,60.7c7.3,29.1,52.6,80.1,43.6,91.3c-12.5,15.6-84.9-40.6-119.4-18.7c-11.4,7.3-20.8,32.2-27,47.7
		c0,0-2.1,10.4-7.3,21.8C100.9,1746.2,95.7,1768,91.6,1774.2z"/>
	<path fill="#FFFFFF" d="M269.7,1532.7c10.2-1.1-13.4-13.4-21.4-27.3c-3.8-6.5-5.9-19.2-5.9-19.2s-11.1,6.8-14.6,15.5
		c-3.5,8.6-4.1,24.6,0.2,32.1c4.3,7.5,8,11.8,8.6,20.3"/>
	<path fill="#FFFFFF" d="M3107.6,1568.4c-0.2-0.9-0.4-1.8-0.6-2.7l25-17.2l-25.4,15.7c-2.8-9.7-9.2-20.4-12.7-23.9
		c-5.9-6.2-10.6-17.3-12.7-20.3c-2.1-3-6.9-7.6-8-12.2c-0.6-2.6-1.8-14.9-3.9-17.9c-2.1-3-10.4-17.2-20.1-21
		c-9.7-3.8-14.8-7.6-14.8-7.6s-3-24.9,0-31.7s17.3-33.8,18.6-38.8c1.3-5.1,3.4-15.2,4.2-18.1c0.8-3,6.1-47.8,1.7-55.3
		c-2.8-4.8-23.2,7.2-41.4,28.7c-18.1,21.5-21.5,46-22.4,49c-0.8,3-7.6,17.3-7.6,21.9s-13.5-49.8-27.9-57.8
		c-14.3-8-41.9-40.8-50.3-36.6c-8.4,4.2-6.8,46.8-5.1,57c1.7,10.1,10.1,34.2,12.7,38c2.5,3.8,40.5,54.4,40.5,54.4
		s-16.4,15.1-18.5,20.6c-2.1,5.5-15.2,15.2-21.1,33.3c-5.9,18.1-8.5,31.6-12.3,34.1c-3.8,2.5-40,16.9-49.7,22
		c-9.7,5.1-16.5,11.8-23.6,14.8c-7.2,3-76.8,18.6-134.6,70.9c0,0-41.8,41.4-65.8,73.4c-24.1,32.1-64.2,120.3-67.1,132.5
		c-2.3,9.5-18.5,38.1-13.7,70.9c0.3,2.3,0.7,4.8,1.2,7.2c0.4,2.5,0.9,5,0.2,3.2c1.8,7,2.4,9.7,0.2,26.9c3.5-11.7,4.3-8.9,5.1-2.4
		c-0.1-3.7,0-3.2,0.2,0c0.1-1.8,0.3-0.7,0.6,0.8c0.3,1.1,0.6,2.7,1,4.4c1.1,5,2.7,11.4,4.5,17.3c0,5.6-0.5,13.5-2.7,18.8
		c-3.8,8.9-17.7,16.5-24.1,22.8c-6.3,6.3,45.4,13.4,63.3,5.1c3-1.4,5.9-2.3,8.7-3c8.9,6.8,29.2,22.8,39.9,22.5
		c13.1-0.4,42.2-5.1,42.2-5.1s-8,11.8-3.4,15.2c4.6,3.4,32.1,12.7,52.3,11.8c20.3-0.8,36.7,0,44.3,1.7s26.2,5.5,30,3.4
		c3.8-2.1,5.1-5.1,5.1-5.1s37.1,6.3,51.1,4.6c13.9-1.7,24.1-5.1,24.1-5.1s35.9,0.8,33.3-5.9c-2.5-6.8-23.6-23.6-30.4-25.7
		c-6.8-2.1-17.7-3-22.8-3c-5.1,0-11-10.6-14-12.7s-16-1.7-21.5-5.1c-5.5-3.4-51.5-5.1-51.5-5.1s12.1-19.2,20.7-29.6
		c1.4-1.7,3-3.5,2.3,3.3c3.9-10.6,5.7-12.5,8.1-13.9c0.2-1.3,1.1-2.2,1.9-2.4c0.8-0.2,1.7,0.2,2.6,1.8c0.6-2.3,1.2-3.9,1.8-5.2
		c0.7-1.1,1.3-1.8,1.4-2.9c1.1,0.7,1.7,1,1.1-0.4c1.9,0.3,2.5-1.1,2.2-6c1.6,2.7,2.3,2.1,1.7-1.9c1.9,3.3,2.6,3.3,2.9,3
		c1-0.8,1.7-1.9,2.6-3.2c0.3-0.5,1-1.2,1.9,0.8c0.5-2.9,1.2-3.2,1.9,2.8c0.5-7.1,1-7.7,1.9-1.2c0.1-7.3,0.6-7.4,2-3.5
		c-0.4-4.6,0-5.2,1.2-4.4c-0.2-1.8,0.3-2.1,0.8-2.5c1-0.8,1.9-1.5,2.8-2c0.9-0.5,1.7-0.6,2.4-0.1c2.5-4.1,4.4-5.6,6.7-4.3
		c0.9-3,2-4.7,3.3-5.6c0.6-0.4,1.3-0.7,1.8-0.2c0.9-2,1.7-3.1,2,0.3c1.4-4.9,2.3-5.3,3.5-0.6c0.5-6.2,1.3-7.3,2.3-4.2
		c0.5-5,1.3-5.7,1.9-0.9c1-6.3,1.7-7,3-3.1c0.2-5.4,0.9-6.1,2.2-5.5c1.4-3.2,3.3-5,4.9-6.7c6.7-6.7,13-18.4,13-18.4
		s31.7,109.6,33.8,117.6c2.1,8-1.1,24.6,0.8,28.7c4.6,9.7,3.4,13.1,6.8,16.9c0,0,26.2,7.6,36.3,7.6l22.8-1.5
		c2.5-1.7,11.4-9.3,11.4-9.3s9.7-1,15.6-1.8c5.9-0.8,12.4-4.5,12.4-4.5l3.9-2.3l3.9-1.1c0,0-8-11.5-11.8-13.2
		c-3.8-1.7-15.2-6.6-19.8-7.5c-4.6-0.8-13.5-0.4-15.2-1.3s-6.8-5.1-7.2-7.6c-0.4-2.5-23.6-84-25.7-94.1s-13.4-81.1-9.7-90.5
		c0,0,54.6-48.2,60.2-71.3c5.6-23.2,22-66.2,18.2-89c-2.1-12.7-5.7-42.4-6.3-45.6c-1.8-9.1,9.1-26,12.9-28.5
		c3.8-2.5,15.2-5.1,22.5-4.5c8.2,0.6,19.2-6.7,21.7-8.7c5.9-4.8,9.8-14.9,9.8-14.9s10.3-6.1,12.9-11.8c1-2,1.1-4.6,0.8-7.5l16.1-6.3
		L3107.6,1568.4z"/>
	<g>
		<path fill="#FFFFFF" d="M3868.3,1921.1c-0.5-1.5-0.3-1.5,0.2-0.4C3868.8,1922.2,3868.7,1922.4,3868.3,1921.1z"/>
		<path fill="#FFFFFF" d="M3564,1577.5c5.1,10.2,15.1,14.5,24.5,16.2c-2.3,20.5-2.3,41.2,2.3,52.7c8.4,20.9,25.9,53.5,34.3,64.4
			c0.8,1,1.9,2.3,3.3,4c1.4,1.6,3.1,3.6,4.1,6.6c2.8,1.3,4.9,3.7,4.2,16.2c5.2-7.4,7.6-4.6,11.7,17.1c0.9-16.1,3.5-13.1,7.7,1.7
			c1-8.8,3.7-5.7,6.1,5.1c2.8-4.8,5.3-1.7,7.6,8.8c2.7-4.6,5-1.7,7.4,2.8c2,1,4,3.7,5.8,6.1c3.6,4.9,6.2,9,7.4,11.9
			c6.7,15.9,18.4,73.6,19.2,92s-5,76.1-8.4,83.6s-6.8,23.9-5.9,32.2s20.9,25.5,45.1,41.4s32.5,36.1,43.9,38.9
			c31.3,7.5,42.6,0,37.3-12.2c-2-4.7-17.6-25.1-21.7-30.9c-4.2-5.9-30.9-30.9-33.4-45.1c-2.5-14.2-5-60.2-3.3-81.1
			c1.3-16.9,18.5-105.6,25.9-146.3c18,23,40.1,58.7,56.8,92.4c12.9,26.1,21.5,58.1,22.8,64.8c2.2,4.4,10.6,25.7,8.6,36.7
			c-1.3,7.4-6.5,22.4,6,34.6c3.6,3.5,11.8,6.8,22.1,9.8c0.2,8.8,7.5,7.7,15.8,4.1c24,5.5,51.8,9.2,62.2,9.5
			c17.9,0.6,23.2-0.5,15.6-16.6c-2.6-5.5-10.7-10.4-20.6-15.4c23.1-8.3,48.3-20,47.7-31.6c-1.1-19.8-19.6-97.3-19.6-97.3l31.3-10
			c0,0,32.6,47.6,30.1,61.4c-2.5,13.8-6.3,55.7-12.5,89c-3.8,20.1,5,33.9,8.8,35.1s31.3-28.8,33.9-35.1c2.5-6.3,8.9-31,8.9-31
			s16.7-46,15-55.2c-1.7-9.2-27.6-61.9-30.1-67.7s-10.9-30.1-10.9-30.1s24.2-9.2,33.4-18.4s53.5-87.4,53.5-87.4s17.6-18,38.5-13.8
			c20.9,4.2,62.7-15.9,62.7-15.9s8.4,0.8,15.9-1.7s20.1-22.6,20.1-29.3c0-1.7-0.1-3.9-0.3-6.3l36.2,1.3l-36.4-3
			c-0.5-6-1.4-12.8-2.4-16.3l18.7-14.1l-19.1,12.9c-0.1-0.1-0.1-0.3-0.2-0.4c-1.7-3.3-24.2-33.4-24.2-37.6c0-4.2-2.5-20.1-5.9-25.9
			c-3.3-5.9-17.6-25.9-21.7-27.6c-4.2-1.7-21.7-13.4-21.7-13.4s27.6-34.3,35.1-47.6c7.5-13.4,47.6-96.1,45.1-98.6s-5-0.8-7.5-0.8
			c-2.5,0-63.5,35.9-80.2,57.7c-16.7,21.7-31.8,42.6-31.8,42.6s20.1-69,14.2-80.7c-5.9-11.7-20.1-32.6-30.1-33.4
			c-10-0.8-13.4-3.3-20.1,0.8c-6.5,4.1-9.2,22.6-9.2,27.6c0,5-15.9,46-16.7,58.5c-0.8,12.5,0,61.4-2.5,69s-7.5,28.4-21.7,25.1
			c-2.8-0.7-10.9-3.8-22-8.4c-2.8-1.1-5.8-2.4-8.5-6.8c-3.6,1.8-6.9,0.4-10.9-9.2c-2.9,6.6-6.4,5.1-10.1,3.5
			c-47.8-20.4-112.6-48.9-124-52.8c-17.6-5.9-130.4-30.9-155.5-26.7c-25.1,4.2-96.1,9.2-114.5,21.7c-16.3,11.1-43.8,56.4-55.6,84
			c-4.1-11.2-10.9-22.3-24.7-26.3C3576.6,1541.2,3554,1557.5,3564,1577.5z M3866.4,1758.7c1,0.4,2,1.3,2.8,2.3
			c7.5,9.2,53.1,42.6,61.4,54.8c8.3,12.3,23.4,36,26.7,46.4c3.3,10.4,18.9,60.9,17.8,63c-1.1,2.1-7,13.7-12.4,16.2
			c-5.3,2.6-8.7,10.5-13,13.6c-3.1,2.3-11.1,2-16.6,3c-3.5-3.2-6.4-6.6-8.4-10.4C3914.4,1927.5,3880,1820.6,3866.4,1758.7z"/>
	</g>
	<path fill="#FFFFFF" d="M5080.6,2004.7c7.5,3.4,15.6,5.7,18.4,5.7c4.2,0,42.3-7.5,49.2-4.5c6.9,2.9,19.6,7.4,24.5,6.9
		c5-0.4,11.1,3.1,12.9,3.3c1.8,0.3,11.4,1.2,14.4,1.3c3,0.2,52.4-3.9,74.7-5.8c19-2.7,26.4,7.8,32,6.8c8.1-1.3,21.8-10.3,25.1-12.2
		c3.4-1.9,11.7-6.7,11.7-6.7s3.1-10.2,1.5-15.3c-1.6-5.1-9.6-12.8-16.5-15.1s-15-5.4-18.6-6c-1.8-0.3-32.7,4-32.7,4l-27.9,2.9
		l23.5-19.9c0,0-2.7-15.4-0.3-10.9s-12.1-29.6-12.1-29.6s26.5-8.4,33.2-12.7c6.6-4.2,21.1-25.3,21.1-25.3l-8.4,25.3
		c0,0,12.7-23.5,14.5-28.3s-3,18.7-3,18.7s8.4-15.1,8.4-18.1s0.6,9.6,0.6,9.6s10.9-16.3,15.7-19.9c4.8-3.6,14.5-13.3,14.5-13.3
		l-1.8,21.7c0,0,6.6-21.1,9.6-25.3c3-4.2,15.7-22.9,21.7-26.5c6-3.6-1.2,13.9-1.2,13.9s22.9-39.2,30.2-41.6c0,0,48.2-4.2,58.2-8.7
		s19-14.5,28.9-19.9c10-5.4,11.6-19.8,14.2-20.2c4.2-0.6,11.2-5.1,13.3-13.9c4.3-17.7-17.5-38.6-19.9-42.8
		c-2.4-4.2-18.1-19.9-19.3-21.7c0,0-1.2-11.8-17.2-27.1c-11.9-11.4-34.1-20.5-35.9-21.1c-1.8-0.6-23.5-9-24.1-13.3
		c-0.6-4.2,15.1-28.9,18.1-33.2c3-4.2,12.1-13.9,15.1-19.9c3-6,15.7-26.5,18.1-32c2.4-5.4,21.4-34.4,24.1-50.7
		c2.7-16.3,0-47.9-9-47.9c-9,0-18.1,17.2-20.5,22c-2.4,4.8-12.1,24.1-12.1,24.1s-10.6-39.5-26.2-38.9c-15.7,0.6-21.7,35.9-23.5,38.9
		c-1.8,3-32.3,50.1-34.1,73.6c-1.8,23.5,4.2,57.6,0.6,61.2c-3.6,3.6-23.5,10-34.4,26.2c-10.9,16.3-22.8,33.7-36.2,32.6
		c-14.8-1.2-80.5-65.7-118.5-77.8s-117-39.9-155.6-41.6c-39.8-1.8-116.7,7.5-154.7,24.4s-62.1,38.3-65.7,43.7
		c-3.6,5.4-27.7,28.3-33.8,36.8c-6,8.4-9,30.8-19.9,53.7c-10.9,22.9-10.3,41-6.6,50.1s19.3,39.8,18.7,45.2c-0.6,5.4-59,3.5-62.4,6.5
		c-3.5,3-22.9,10.9-16.6,25.5c6.3,14.5,43.1,32.6,76.8,33.7c2.8,0.1,5.6,0.2,6.7,1c4.2-0.6,6.8-0.5,6.8,6.5c5.1-6.8,7.5-6.6,9.5-4.9
		c2.8-1.5,5.1-1.4,7.3-1.3c17.5,1,35-3,39-5c6-3,9.6-9.6,9.6-9.6s33.2,12.1,48.2,12.1c15.1,0,52.5-13.3,74.2-13.3
		c21.7,0,55.4,17.6,64.5,25.3c15.7,13.3,21.4,50.4,23.8,57.6c2.4,7.2,6.3,16.3,6.3,16.3l7.1,33.8 M5151.8,1907.6
		c0,0,20.8,3.6,28.9,6.3c8.1,2.7,23.5-1.8,31.7,5.4s12.7,16.3,12.7,16.3s-25.3,20.8-33.5,23.5c-8.1,2.7-25.3,0.9-31.7-1.8
		C5153.6,1954.6,5151.8,1907.6,5151.8,1907.6z"/>
	<path fill="#FFFFFF" d="M359.3,2764.1c3,7.1,6.8,11.4,6.8,11.4l-5.7,10.2c0,0,5.5,14.6,6.3,17.8c0.8,3.2-1.8,28-0.3,35
		c1.5,7,0.9,26.7,0.9,34.3c0,5.7-1.7,15.3,0.7,19.1c2.3,3.8,11.2,35.3,14.3,46.7c3.1,11.4,14.9,38.5,23.3,48.6
		c8.5,10.2,28.4,34.3,34.5,39.4c6.1,5.1,8.5,33.7,10,41.3c1.5,7.6,10.8,31.8,13.1,44.5c2.3,12.7,6.1,51.5,6.1,53.4
		s11.5,26.7,12.3,31.2c0.8,4.5,0,15.9,0.8,20.3s-1.5,12.1-1.5,17.2c0,5.1,5.4,36.2,7.7,39.4c2.3,3.2,10,2.5,12.3,5.1
		s17.7,11.4,17.7,11.4s12.3-8.3,14.6-10.8c2.3-2.5,6.1-21,7.7-36.2c1.5-15.3-3.1-27.3-6.1-33.1c-3.1-5.7-2.3-26.1-5.4-31.2
		c-3.1-5.1-17.7-22.3-20-26.7c-2.3-4.5-2.3-13.4-3.8-21c-1.5-7.6-8.5-63.6-9.2-75.7c-0.8-12.1-3.1-44.5-3.1-44.5s1.5-8.3,6.1-8.9
		c4.6-0.6,11.5,0.6,11.5,0.6s-17.7-12.1-15.4-14s30.7-3.2,34.6,5.1c3.8,8.3,3.8,20.3,3.8,20.3s3.1-18.4,9.2-17.8
		c6.1,0.6,5,1.9,5,1.9s11,57.5,13.3,74.7c2.3,17.2,6.1,49,3.8,57.9c-2.3,8.9-9.2,21.6-9.2,26.1s8.5,17.2,10,19.7
		c1.5,2.5,6.1,19.7,6.9,24.2c0.8,4.5,8.5,24.2,10,27.3c1.5,3.2,23.1,8.9,23.1,8.9l20,10.8c0,0,19.2-24.2,16.9-36.2
		c-2.3-12.1-4.6-41.3-14.6-45.8c-10-4.5-16.9-20.3-20.8-27.3s-6.9-20.3-8.5-26.7c-0.8-3.4-6.7-102.1-3.3-110.6
		c0.9-2.2,39.7-37.1,39.7-37.1s0,37.2-19.6,84.8c-5.5,13.3-5.1,27.7-5.1,27.7l4.6,11.4c0,0,4.6,12.1,4.6,15.3
		c0,3.2,23.8,38.8,26.1,41.3c2.3,2.5,20,18.4,20,18.4s13.8-9.5,17.7-14.6c3.8-5.1,3.6-13.7,3.6-15.6s1-11.1,4.1-13
		c3.1-1.9,9.2-28.6,8.5-38.1c-0.8-9.5-7.7-32.4-11.5-45.8c-3.8-13.4,3.8-24.8,5.4-28c1.5-3.2-2.3-47.7-3.1-55.3
		c-0.8-7.6-6.9-42-6.9-42s12.1,15.5,13.1,20.3c3.3,16.6,22.4,3.8,34.5-4.1c10.8-7,33.1,16.8,37,16.1c3.8-0.6,13.1,0.6,15.4,2.5
		c2.3,1.9-6.1,22.9-7.7,26.7c-1.5,3.8-12.3,30.5-16.9,40.1c-4.6,9.5-18.4,29.9-21.5,34.3c-3.1,4.5-4.6,22.9-5.4,35.6
		c-0.8,12.7,3.1,50.2,4.6,57.9c1.5,7.6,11.5,15.3,12.3,17.8c0.8,2.5,9.6-2.9,12.7-4.1c3.1-1.3,7.3-1.6,11.9-4.1
		c4.6-2.5,19.2-26.7,20-31.8c0.8-5.1,10-29.9,11.5-35s10-21.6,13.1-26.7c3.1-5.1,3.1-26.7,3.1-26.7s15.4-39.4,20-52.1
		c4.6-12.7,14.6-17.8,15.4-26.1c0.8-8.3,0.8-32.4,0.8-36.9s-5.4-15.9-9.2-17.8c-3.8-1.9-13.1-1.9-19.2-6.4
		c-6.1-4.5-1.5-17.8-2.3-23.5s6.1-34.3,6.1-38.8s11.5-25.4,16.1-35.6c4.6-10.2-0.8-35.6-13.8-65.5c-13.1-29.9-53-57.2-57.6-60.4
		c-4.6-3.2-41.5-29.2-56.9-33.7c-15.4-4.5-37.7-4.5-50.7-5.1c-11-0.5-39.2,0-45.3,0c-6.1,0-40.7-1.1-53.8-0.6
		c-17.7,0.6-62.2,20.7-74.5,23.2c-12.3,2.5-17.9,3.2-20.9,1.9c-3.1-1.3-0.9-13.6-4.5-16.8c-16.4-14.6-12.5-43.6-9.4-49.9
		c8.2-16.9,15.6-56.9,18.7-66.4c3.1-9.5,20.8-50.9,20.8-50.9s17.7-31.2,17.7-42c0-10.8-13.1-31.8-16.1-33.7
		c-3.1-1.9-13.8,0.6-18.4,1.9c-4.6,1.3-35,44.8-36.5,49.9c-1.5,5.1-5,15.3-5,15.3s-11.9,55.6-15,65.8c-3.1,10.2-6,32.4-6,40.1
		s0,22.9,0,22.9s-3.9,2.2-7,2.9c-3.1,0.6-5,4.8-12.9,6c-7.9,1.3-18.4-7-20.8-9.5s-7.7-19.7-7.7-19.7s-0.8-12.1,0-16.5
		c0.8-4.5-4.6-21.6-7.7-29.2c-3.1-7.6-23.1-46.4-39.2-64.2c-16.1-17.8-37.7-33.1-37.7-33.1s-11.5-9.5-30.7,0
		c-13.4,6.7-20,31.2-18.4,43.9c0.3,2.5,6.1,11.4,6.1,11.4l36.1,55.3c0,0,46.1,65.5,54.6,76.9c8.5,11.4,10.8,19.1,10.8,19.1
		s-2.7,6.9-8.1,13.7c-4.5,5.6-5.7,15.4-3.9,22.9s10.3,14.6,10.9,21.3c1,11-9.5,33.4-5.7,45.8C344,2747.9,359.3,2764.1,359.3,2764.1z
		"/>
	<path fill="#FFFFFF" d="M1501.3,3033.8c-7.1,12-21.3,21-20.9,29.1c0.4,8.2,46.7,51.6,61.8,61.9c12.8,8.8,74.7,55.1,74.7,55.1
		c10.2,5.6,31,11.1,46.2,16.3l18.3-5.4c0,0-6.6,13.1-8,23.5c-1.4,10.4,10.7,49.4,34.7,32c5.8-2.2,29.5-20.6,36-36.1
		c5.8-13.9,48-32.3,48.8-67.6c0.4-15.8,12.4-92.9,15.6-102.4c3.1-9.5,36.5-28.6,40.9-28.6c4.4,0,14.2,6.5,19.1,11.2
		s33.5,28.6,33.6,36c0.1,7.4-35,40.2-36.7,42.1c-1.7,1.9-14.9,28.3-16,32c-1.1,3.7-5.8,13.7-2.5,20.8c3.3,7.1,2.1,27.8,3.1,29.8
		c1,1.9,8.7,10.3,8.7,10.3s15.5-6.3,18.1-8.5c2.6-2.2,35.7-39.2,38.3-43.6c2.5-4.4,22.2-40.3,22.2-40.3s10.1-29.1,15.4-45.4
		c6.2-19.1-41.8-91.2-41.8-91.2s11-1.6,35.5-26.6s33.8-52.1,39.1-61.9c5.3-9.9,14.7-15.9,18.2-19.8s29.3-40.4,33.3-48.2
		c4-7.7,19.1-25.4,24.9-30.1c5.8-4.7,44.5-16.8,56.5-26.2s18.7-22.4,18.7-22.4s7.1-4.7,7.1-10.8s-9.8-20.2-13.8-25
		c-4-4.7-25.8-25.4-32.9-31.8s-19.6-31.4-26.2-38.3c-6.7-6.9-41.8-21.5-41.8-21.5s-0.7-37.4-1.2-43.8c-0.6-6.4-2.8-45.9-3.6-54.1
		c-0.8-8.1,5.4-40.4-0.2-47.8s-15.7-17.1-17.7-18.1c-2-1-12.6-0.2-14.4,3.1c-1.7,3.3-12.4,24.6-15.6,47.3
		c-27.2-44.2-51.5-55.9-54.8-56.7c-3.3-0.8-11.4,0.5-14.4,3.1c-2.4,2.1,0.4,45.5,1.5,52.7c1.1,7.2,8.6,39,17.7,52.6
		c24.1,35.9,29.6,59.6,29.2,65.2c-0.4,5.6-20.2,16.7-23.6,21.5c-8.4,11.7-12.4,40.1-20.4,47.8c-8,7.7-52.5,27.4-58.3,28.3
		c-5.8,0.9-24.4-4.2-33.7-8.1c-10.2-4.2-48.5-32.6-65.8-35.2c-17.3-2.6-94.7-22.9-116.1-24.6c-50.2-4-94.3-1.3-113.8,1.3
		c-19.6,2.6-72.8,23.3-91.5,32.3s-61.1,63.9-87.7,104.4s-34.2,94.6-33.8,102.4c0.4,7.7,7.6,18.1,8.9,21.1c1.3,3,1.3,15.1,1.3,27.1
		s-41.2,46.5-39.5,43.5c1.8-3,36,11,39.1,9.3c3.1-1.7,32.4-6,43.5-10.7s34.2-20.5,34.2-20.5s13,1.6,17,1.8c11.7,0.5,28.4-4,28.4-4
		c21.8,4.3,37.3,6.4,45.4,15.9c7,8.3,19.6,12.3,17.8,21.3C1507.5,2980.8,1508.4,3021.8,1501.3,3033.8z M1749.4,3039.5
		c0,15.5,4.4,41.1,2.7,49.7c-1.8,8.6-9.8,43.9-9.8,43.9c-3.6,0-23.8-17.7-34.7-22.4c-22.2-9.5-74.7-22.4-91.6-29.3
		s-40-20.6-44.5-35.3c-4.4-14.6-6.2-36.1-4.4-40.4c1.8-4.3,3.6-20.9,13.3-32.1c9.9-11.4,23.1-14.2,23.1-14.2s28.5,5.3,55.1,8.9
		c24.7,3.3,64,16,64,16S1749.4,3024,1749.4,3039.5z"/>
	<path fill="#FFFFFF" d="M3240.9,2833.7c-7.3-11.7-21.3-26.8-25.4-32.9c-4.1-6.1-9.3-44.3-21.6-59.6c-12.3-15.3-53.3-40.8-55.9-46.8
		c-2.6-6,15.4-41.5,21.9-54.3c6.5-12.8,32-80.1,42.8-117.5c-2.8-29.4,4.7-61.1-11.2-63.4c-15.9-2.3-22.1,8.3-28.8,18.9
		c-17.6,28.3-26.2,52.6-26.2,52.6s2.2-13-1.7-22c-3.9-9-17.5-28.7-23.3-29c-5.8-0.3-28.7,17.5-36.4,25.8
		c-7.7,8.3-12.5,43.2-16.2,57.6c-3.7,14.4-6.7,71.2-4.8,90.3c1.9,18.9,8.6,31.1,7.9,44.2c-0.7,13.1-13.5,48.5-19.3,58.7
		c-5.8,10.2-26.3,29.2-48.1,17.5c-21.9-11.7-64.2-37.9-112.3-54s-86.1-33.5-121.1-40.8c-35-7.3-144.4-13.1-157.5-10.2
		c-13.1,2.9-66.8,24.8-97.4,46.7s-59.8,80.2-68.6,94.8c-8.8,14.6-9.9,74.4-14.6,88.5c-5.8,17.5-18.8,29.8-27.6,40
		c-6.6,7.8-16.4,53.4-8.9,60.4c0,0,25.4,13.4,46.7,12.4c35.2-1.5,52.5-35,59.8-30.6c7.3,4.4,66.8,24.8,79.9,26.3
		c13.1,1.5,83.1-10.2,91.9,0c3.9,4.6,12.5,19.4,20.8,37c-17.4,4.7-34.5,9.5-40.1,15.9c-6.6,7.5-17.7,21.7-25,33.8
		c-23.5,1.1-59.6-2.5-70.6,4.6c-14.8,9.5-48.3,35.4-45,43.2c3.2,7.9,57,32.4,81.4,27.3s73.1-24.1,85.1-25.3c3-0.3,10.5-2.7,20.2-6.4
		c-0.4,3.8,0.7,8,4.1,13.2c7.6,11.4,70.3,7.8,94.1,7.7c6.5,0,58.5,12.8,71.9,13.7c13.4,0.9,29.5,3.2,43,14.4
		c13.5,11.2,54.8,10.8,77.1,11.8c22.3,1,52.8-21.4,81-30.1s-3-48.2-7.4-57.9c-4.4-9.7-34.3-21.3-44.6-21.2
		c-10.3,0.1-62.3,16.9-72,21.4c-9.7,4.4-40.9-7-40.9-7s28-26.2,38.2-29.1c10.2-2.9,24.8-21.9,45.2-36.5
		c20.4-14.6,77.3-62.7,77.3-62.7s17.5-1.5,23.3-4.4c5.8-2.9,36.5-36.5,54-45.2c11.9-6,30.6-4.5,46.9-3.8
		c-25.6,51.5-44,104.5-44,104.5s21.7-57,48.4-104.3c5.9,0.1,11.3,0.1,15.8-0.7c17.5-2.9,29.2-17.5,29.2-17.5s14.6-2.9,21.9-11.7
		C3261.3,2883.3,3248.2,2845.4,3240.9,2833.7z"/>
	<path fill="#FFFFFF" d="M4423.1,2771.5l-11.1-37.8c-9.3-16.4-24.7-29.7-43-40.5c-18.2-10.8-37.2-17.2-37.2-17.2
		c-1.7-5.8,42.2-95.8,42.9-126.4c0.7-30.6-14.6-65.6-23.3-68.7c-8.8-3.1-26.7,14.3-28.8,20.6c-7.4,22.1,3.8,78.6-2.2,93.9
		c0,0-11.8-87.3-24.1-88.5c-12.4-1.2-22.6,13.2-22.6,13.2s-14.7,17.2-13.8,67.2c0.3,17.4,0.4,34.2,0,49.4
		c-0.7,28.4-3.1,51.6-8.8,64.4c-8.7,19.6-32.2,38.1-37.8,40.4c-5.6,2.3-70.5,21.3-110.1,6.4c-53-19.9-96.5-49.9-203.6-70.8
		c-60.2-11.7-147.9,14.7-170.5,24.8c-22.6,10.2-68.9,54.2-80.2,111.8c-11.3,57.6-21-4-31.7-9.8c-20.9-11.3-74.1-1.2-74.1-1.2
		s21.7,25.2,35.3,48.7c12.9,22.2,57.2,42.6,57.2,42.6s37.8,56,29.1,88c-8.6,32-2,63-41.7,70.9c-13.5,2.7-55.4,24.4-69.8,26.5
		c-16.8,2.4-62.5,24.1-44.2,52.8c23.2,36.4,74.7,69.3,73.6,80.6c-1.1,11.3,131,29.3,179.1,37.3c15,2.5,12.1-5.2,12.1-5.2
		s19.2-1.7,26.7-2.8c11.5-1.8,17.9-12.3,18.8-16c1.4-5.7-8.8-25.6-26.4-37.5c2.3-9-18.3-42.8-58.1-34.2c-24.9,5.4-46.8,2-72.8,0.4
		c-26.2-1.6-33.9-13.2-35.6-24.1c3.6-4.9,8.3-9.5,14-12.5c43.1-22.1,134.6-41.1,143.5-59c12.4-24.8,33.9-49.9,56.7-60.3
		c13.8-6.3,47.2,9.3,102.2,11.7c56.6,2.4,88.9-10.2,94.5-4.5c5.6,5.6-47.9,31.4-47.5,46.4c0.3,9.1,10.9,20.2,25.6,29.2
		c2.6,1.6,8.2,1.4,15.8,0l0,0c0,0,24.1,26.7,46,30.3c21.9,3.6,65.9-57.5,86.9-56.5c4.2,0.2,9-1,14-2.9c20.4,11.1,61.4,36.3,71.2,34
		c16-3.7,18.8-20.1,14.7-33.5c-0.9-2.8-1.7-5.9-2.6-9.2c9.9,5.5,18.7,9.9,21.9,8c6-3.6,20.4-32.7,0-45.8
		c-20.4-13.1-54.1-27.6-63.1-25.2c-5.3,1.4-22.8,7.8-37,11.1c22.3-12.3,60.4-34.9,70.8-65.2c5.1-14.9,28.5-30.9,39.9-36.3
		c7.2-3.3,30-22.6,62.2-20.2c33.1,2.5,63.6-16.3,63.6-16.3s30.3,2.1,31.4-22.4C4452.3,2807.1,4425,2787.6,4423.1,2771.5z"/>
	<path fill="#FFFFFF" d="M5570.3,2908c-9.1-2.8-26.9-7.6-41.3-5.3c-16.4,2.6-38.3,1-54,6c-21.8,6.9-21.3,3.6-45,3
		c-23.7-0.6-40.1-18.1-40.1-18.1v0c-3.5-24-8.9-54.8,16.7-72.6c8.3-5.7,21-0.3,37.1-1.4c18.4-1.2,34.5-5.8,43.1-7.8
		c16.2-3.8,27.5,6.2,40.5,2.5c19.7-5.7,26.8-25.9,26.8-25.9s13.2-5.9,12.4-20.1c-0.7-13.6-16.9-25.7-31.1-38.9
		c-12.8-11.9-7.7-22.7-23-38.6c-6.7-7-19-14.9-25-18.3c-11.9-6.8-23.1-6-23.1-6s5.9-17.1,6.9-45.8c0.7-19.6-5-38.9-7.9-56.8
		c-4.4-27-7.9-48.9-17.2-47.2c-13.8,2.5-23.5,32.9-22.4,77.7c-2-10.5-4.9-21.1-8.9-28c-8.4-14.5-21.6-40.6-25.8-44.3
		c-4.2-3.7-16.2-8.4-22-7.1c-13.5,2.9,5.9,55,13.9,99c8,44,7.3,61.4,7.3,61.4s-10.9,13.5-15.6,26.9c-7.1,20.1-19.5,32.9-38,49.4
		c-14.7,13-69.3-3.2-99.7,6.8c-13.8,4.5-33.7,9.7-89.9,25.1c-50,13.7-87.6,51.8-147,63c-49.1,9.3-89.9,38.6-110.2,21.9
		c-10.3-8.4-33.6-30.2-49.8-35.4c-17.8-5.7-38.3,3.2-38.3,3.2s43.7,39.2,48.2,49.7l14.6,58.9c0.5,14.3-8.8,24.1-14.7,32.7
		c-3.9,5.7-5.6,7.5-15.3,7.9c-28.5-7.9-29.1-56.6-45.4-56.7c-6.1,0-13.4,6.4-21.5,15.4c-3.9-5-7.8-8.2-12.3-7.5
		c-14.5,2.4-30.5,43.5-47.8,67.6c-29.7,16.1-71.6,27.5-80.6,37.1c-5.4,5.8-16.3,18.4-3.7,24.8c-4.3,3.1-7.5,5.9-9.1,8.3
		c-5.8,8.8-19.3,31.4,22.4,25.3c38.7-5.6,37.2-24.4,54.2-38.5s68.2-34,91.9-27.5c23.7,6.6,67.8,25.1,86.3,34.4s60.1,45.9,113,32.6
		c43-10.8,69.9-82,84.2-86.4c37.3-11.4,59.6,18.3,115.8,10.3s89.1-13.8,107.2-12.4c10.6,0.8,37.6,32.4,66,33.1
		c44.4,1.1,38.7-12.7,75.5-23c16.6-4.7,31.7-16,42.5-18.9c21.5-5.8,41.6-1.9,60-5.2c38.1-6.9,45.3-7.6,38-22.6c-3-6-45-16.5-69.4-19
		c-21.9-2.3-52.4,25.4-76,29.2c14.6-13.9,8.5-31,16.8-35.4c17.8-9.5,79.3-15.4,94.9-13.1c15.6,2.3,36.3,3.2,47.1,0.8
		c10.5-2.3,17.7-14.7,20.2-20.4C5611.5,2897.6,5579.4,2910.7,5570.3,2908z"/>
	<path fill="#FFFFFF" d="M43.9,4148.7c4.8-10,32.3-28.6,54.3-48.8c-6,1.2-13.3,1.5-22.9,0.6c-40.2-3.9-21.4-19.6-13.6-25.6
		c9.2-7,46.2-13.2,75.8-23.4c10.9-14.3,21.9-26.5,31.6-29.5c6.7-2.1,11,1.5,16.1,6.5c16.6-8.4,32.6-15.2,43-14.4
		c10.8,0.8,19.7,9.6,32.3,19c5.4-7.8,10.9-17.4,12.2-23.4c4.3-19.6-3.9-37.3-3.9-37.3s-34.1-29.4-31.3-55
		c2.7-25.4,2.9-36.2,12.4-35.8c9.5,0.4,16.3,9,22.4,26c14.8,41.3,13,35.1,22,44.4c9.7,10,27-3.2,75-8.6
		c58.1-6.6,93.6-2.2,142.8-11.9c55.4-10.9,91.7-28.7,124.8-40.9c29.1-10.7,88.2-20.9,103.3-32.4c19.1-14.6,31.9-26,40.2-44.9
		c5.5-12.5,17-24.8,17-24.8s-9.7-2.9-46.7-25.4c-36.9-22.5-87.1-41.9-80.5-53.5c2.8-5,13.9-10.6,19.3-11.3
		c5.4-0.7,32.7,6.5,48.6,9.8c7.6,1.5,17.1,6.3,25.9,11.5c-31.5-26.7-41.2-48-41.8-66.1c-0.3-9.2,22.8,3.6,45.2,17.8
		c14.8,9.4,32.4,17.6,46.2,30.7c20.1,19.2,59,78.1,59,78.1s2.7,8.2,13.7,15.5c5.5,3.7,23.9,9.3,29.8,16.5
		c13.7,16.5,7.9,26.4,19.4,38.9c12.8,13.8,27.4,26.5,27.2,39.7c-0.3,13.7-13.4,18.4-13.4,18.4s-8.3,18.9-27.7,23
		c-12.8,2.7-23-7.8-38.9-5.3c-8.5,1.3-24.3,4.6-42.1,4.4c-15.6-0.1-27.5-6.3-35.9-1.3c-36.4,21.4-15.5,49.5-21.7,69.9
		c0,0,24.4,49.5,39.5,56.9c22.7,11.1,42.6-19.6,82.3-13.7c46.1,6.9,72.1-20.4,99.5-11.3c22.5,7.5,49,16.5,50.5,22.8
		c3.9,15.7,8,24.4-29.4,23c-18-0.7-34.6-9.4-55.7-5.4c-7,1.3-15.9,6.4-25.9,10.4c12,4.8,23.2,14.1,29.2,19.7
		c6.7,6.3,27.7,17.9,23.8,22.5c-3.9,4.5-16.1,11.6-26.2,9.1c-10.4-2.6-32.2-3.4-44.8-12.1c-8.6-5.9-29.8-13.3-48.6-17.1
		c-17.2,8.3-32.5,15-60.2,8.7c-24.2,8.3-50.9,15.7-58.2-0.2c-3.4-7.3-10.6-17.1-19.4-27.3c-13.5,0.5-27.7,7.6-55.5,14
		c-28.9,6.7-50-1.9-97.7-7.7c-54.5-6.6-78.6-4.8-113.9,8.4c-53.5,20-65.5,42.7-104.8,61.2c-19.6,9.2-73-45.7-90.2-56
		c-17.2-10.3-54.2-15.8-77.8-18.9c-23.6-3.1-70,22.9-84.3,38.7s-10.3,33.6-46.7,44.2C29.6,4181.3,39.5,4157.9,43.9,4148.7z"/>
</g>
</svg>
