  0
SECTION
  2
HEADER
  9
$ACADVER
  1
AC1014
  9
$HANDSEED
  5
FFFF
  9
$MEASUREMENT
 70
     1
  0
ENDSEC
  0
SECTION
  2
TABLES
  0
TABLE
  2
VPORT
  5
8
330
0
100
AcDbSymbolTable
 70
     4
  0
VPORT
  5
2E
330
8
100
AcDbSymbolTableRecord
100
AcDbViewportTableRecord
  2
*ACTIVE
 70
     0
 10
0.0
 20
0.0
 11
1.0
 21
1.0
 12
210.0
 22
148.5
 13
0.0
 23
0.0
 14
10.0
 24
10.0
 15
10.0
 25
10.0
 16
0.0
 26
0.0
 36
1.0
 17
0.0
 27
0.0
 37
0.0
 40
341.0
 41
1.24
 42
50.0
 43
0.0
 44
0.0
 50
0.0
 51
0.0
 71
     0
 72
   100
 73
     1
 74
     3
 75
     0
 76
     0
 77
     0
 78
     0
  0
ENDTAB
  0
TABLE
  2
LTYPE
  5
5
330
0
100
AcDbSymbolTable
 70
     1
  0
LTYPE
  5
14
330
5
100
AcDbSymbolTableRecord
100
AcDbLinetypeTableRecord
  2
BYBLOCK
 70
     0
  3

 72
    65
 73
     0
 40
0.0
  0
LTYPE
  5
15
330
5
100
AcDbSymbolTableRecord
100
AcDbLinetypeTableRecord
  2
BYLAYER
 70
     0
  3

 72
    65
 73
     0
 40
0.0
  0
LTYPE
  5
16
330
5
100
AcDbSymbolTableRecord
100
AcDbLinetypeTableRecord
  2
CONTINUOUS
 70
     0
  3
Solid line
 72
    65
 73
     0
 40
0.0
  0
ENDTAB
  0
TABLE
  2
LAYER
  5
2
100
AcDbSymbolTable
 70
2
  0
LAYER
  5
50
100
AcDbSymbolTableRecord
100
AcDbLayerTableRecord
  2
0
 70
0
  6
CONTINUOUS
  0
LAYER
  5
51
100
AcDbSymbolTableRecord
100
AcDbLayerTableRecord
  2
Layer_1
 70
0
  6
CONTINUOUS
  0
ENDTAB
  0
TABLE
  2
STYLE
  5
3
330
0
100
AcDbSymbolTable
 70
     1
  0
STYLE
  5
11
330
3
100
AcDbSymbolTableRecord
100
AcDbTextStyleTableRecord
  2
STANDARD
 70
     0
 40
0.0
 41
1.0
 50
0.0
 71
     0
 42
2.5
  3
txt
  4

  0
ENDTAB
  0
TABLE
  2
VIEW
  5
6
330
0
100
AcDbSymbolTable
 70
     0
  0
ENDTAB
  0
TABLE
  2
UCS
  5
7
330
0
100
AcDbSymbolTable
 70
     0
  0
ENDTAB
  0
TABLE
  2
APPID
  5
9
330
0
100
AcDbSymbolTable
 70
     2
  0
APPID
  5
12
330
9
100
AcDbSymbolTableRecord
100
AcDbRegAppTableRecord
  2
ACAD
 70
     0
  0
ENDTAB
  0
TABLE
  2
DIMSTYLE
  5
A
330
0
100
AcDbSymbolTable
 70
     1
  0
DIMSTYLE
105
27
330
A
100
AcDbSymbolTableRecord
100
AcDbDimStyleTableRecord
  2
ISO-25
 70
     0
  3

  4

  5

  6

  7

 40
1.0
 41
2.5
 42
0.625
 43
3.75
 44
1.25
 45
0.0
 46
0.0
 47
0.0
 48
0.0
140
2.5
141
2.5
142
0.0
143
0.03937007874016
144
1.0
145
0.0
146
1.0
147
0.625
 71
     0
 72
     0
 73
     0
 74
     0
 75
     0
 76
     0
 77
     1
 78
     8
170
     0
171
     3
172
     1
173
     0
174
     0
175
     0
176
     0
177
     0
178
     0
270
     2
271
     2
272
     2
273
     2
274
     3
340
11
275
     0
280
     0
281
     0
282
     0
283
     0
284
     8
285
     0
286
     0
287
     3
288
     0
  0
ENDTAB
  0
TABLE
  2
BLOCK_RECORD
  5
1
330
0
100
AcDbSymbolTable
 70
     1
  0
BLOCK_RECORD
  5
1F
330
1
100
AcDbSymbolTableRecord
100
AcDbBlockTableRecord
  2
*MODEL_SPACE
  0
BLOCK_RECORD
  5
1B
330
1
100
AcDbSymbolTableRecord
100
AcDbBlockTableRecord
  2
*PAPER_SPACE
  0
ENDTAB
  0
ENDSEC
  0
SECTION
  2
BLOCKS
  0
BLOCK
  5
20
330
1F
100
AcDbEntity
  8
0
100
AcDbBlockBegin
  2
*MODEL_SPACE
 70
     0
 10
0.0
 20
0.0
 30
0.0
  3
*MODEL_SPACE
  1

  0
ENDBLK
  5
21
330
1F
100
AcDbEntity
  8
0
100
AcDbBlockEnd
  0
BLOCK
  5
1C
330
1B
100
AcDbEntity
 67
     1
  8
0
100
AcDbBlockBegin
  2
*PAPER_SPACE
  1

  0
ENDBLK
  5
1D
330
1B
100
AcDbEntity
 67
     1
  8
0
100
AcDbBlockEnd
  0
ENDSEC
  0
SECTION
  2
ENTITIES
  0
SPLINE
  5
100
100
AcDbEntity
  8
Layer_1
 62
1
100
AcDbSpline
 70
8
 71
3
 72
8
 73
4
 74
0
 40
0
 40
0
 40
0
 40
0
 40
1
 40
1
 40
1
 40
1
 10
45.783235
 20
91.983235
 30
0.0
 10
46.448035
 20
91.983235
 30
0.0
 10
46.983235
 20
91.448035
 30
0.0
 10
46.983235
 20
90.783235
 30
0.0
  0
LWPOLYLINE
  5
101
100
AcDbEntity
  8
Layer_1
 62
1
100
AcDbPolyline
 90
2
 70
0
 10
3.216766
 20
91.983235
 30
0.0
 10
45.783235
 20
91.983235
 30
0.0
  0
SPLINE
  5
102
100
AcDbEntity
  8
Layer_1
 62
1
100
AcDbSpline
 70
8
 71
3
 72
8
 73
4
 74
0
 40
0
 40
0
 40
0
 40
0
 40
1
 40
1
 40
1
 40
1
 10
46.983235
 20
48.216767
 30
0.0
 10
46.983235
 20
47.551967
 30
0.0
 10
46.448035
 20
47.016767
 30
0.0
 10
45.783235
 20
47.016767
 30
0.0
  0
LWPOLYLINE
  5
103
100
AcDbEntity
  8
Layer_1
 62
1
100
AcDbPolyline
 90
2
 70
0
 10
46.983235
 20
90.783235
 30
0.0
 10
46.983235
 20
48.216767
 30
0.0
  0
SPLINE
  5
104
100
AcDbEntity
  8
Layer_1
 62
1
100
AcDbSpline
 70
8
 71
3
 72
8
 73
4
 74
0
 40
0
 40
0
 40
0
 40
0
 40
1
 40
1
 40
1
 40
1
 10
3.216766
 20
47.016767
 30
0.0
 10
2.551966
 20
47.016767
 30
0.0
 10
2.016766
 20
47.551967
 30
0.0
 10
2.016766
 20
48.216767
 30
0.0
  0
LWPOLYLINE
  5
105
100
AcDbEntity
  8
Layer_1
 62
1
100
AcDbPolyline
 90
2
 70
0
 10
45.783235
 20
47.016767
 30
0.0
 10
3.216766
 20
47.016767
 30
0.0
  0
SPLINE
  5
106
100
AcDbEntity
  8
Layer_1
 62
1
100
AcDbSpline
 70
8
 71
3
 72
8
 73
4
 74
0
 40
0
 40
0
 40
0
 40
0
 40
1
 40
1
 40
1
 40
1
 10
2.016766
 20
90.783235
 30
0.0
 10
2.016766
 20
91.448035
 30
0.0
 10
2.551966
 20
91.983235
 30
0.0
 10
3.216766
 20
91.983235
 30
0.0
  0
LWPOLYLINE
  5
107
100
AcDbEntity
  8
Layer_1
 62
1
100
AcDbPolyline
 90
2
 70
0
 10
2.016766
 20
48.216767
 30
0.0
 10
2.016766
 20
90.783235
 30
0.0
  0
LWPOLYLINE
  5
108
100
AcDbEntity
  8
Layer_1
 62
1
100
AcDbPolyline
 90
2
 70
0
 10
3.216766
 20
91.983235
 30
0.0
 10
3.216766
 20
91.983235
 30
0.0
  0
SPLINE
  5
109
100
AcDbEntity
  8
Layer_1
 62
1
100
AcDbSpline
 70
8
 71
3
 72
8
 73
4
 74
0
 40
0
 40
0
 40
0
 40
0
 40
1
 40
1
 40
1
 40
1
 10
45.783235
 20
46.983235
 30
0.0
 10
46.448035
 20
46.983235
 30
0.0
 10
46.983235
 20
46.448035
 30
0.0
 10
46.983235
 20
45.783234
 30
0.0
  0
LWPOLYLINE
  5
10a
100
AcDbEntity
  8
Layer_1
 62
1
100
AcDbPolyline
 90
2
 70
0
 10
3.216766
 20
46.983235
 30
0.0
 10
45.783235
 20
46.983235
 30
0.0
  0
SPLINE
  5
10b
100
AcDbEntity
  8
Layer_1
 62
1
100
AcDbSpline
 70
8
 71
3
 72
8
 73
4
 74
0
 40
0
 40
0
 40
0
 40
0
 40
1
 40
1
 40
1
 40
1
 10
46.983235
 20
3.216766
 30
0.0
 10
46.983235
 20
2.551967
 30
0.0
 10
46.448035
 20
2.016766
 30
0.0
 10
45.783235
 20
2.016766
 30
0.0
  0
LWPOLYLINE
  5
10c
100
AcDbEntity
  8
Layer_1
 62
1
100
AcDbPolyline
 90
2
 70
0
 10
46.983235
 20
45.783234
 30
0.0
 10
46.983235
 20
3.216766
 30
0.0
  0
SPLINE
  5
10d
100
AcDbEntity
  8
Layer_1
 62
1
100
AcDbSpline
 70
8
 71
3
 72
8
 73
4
 74
0
 40
0
 40
0
 40
0
 40
0
 40
1
 40
1
 40
1
 40
1
 10
3.216766
 20
2.016766
 30
0.0
 10
2.551966
 20
2.016766
 30
0.0
 10
2.016766
 20
2.551967
 30
0.0
 10
2.016766
 20
3.216766
 30
0.0
  0
LWPOLYLINE
  5
10e
100
AcDbEntity
  8
Layer_1
 62
1
100
AcDbPolyline
 90
2
 70
0
 10
45.783235
 20
2.016766
 30
0.0
 10
3.216766
 20
2.016766
 30
0.0
  0
SPLINE
  5
10f
100
AcDbEntity
  8
Layer_1
 62
1
100
AcDbSpline
 70
8
 71
3
 72
8
 73
4
 74
0
 40
0
 40
0
 40
0
 40
0
 40
1
 40
1
 40
1
 40
1
 10
2.016766
 20
45.783234
 30
0.0
 10
2.016766
 20
46.448035
 30
0.0
 10
2.551966
 20
46.983235
 30
0.0
 10
3.216766
 20
46.983235
 30
0.0
  0
LWPOLYLINE
  5
110
100
AcDbEntity
  8
Layer_1
 62
1
100
AcDbPolyline
 90
2
 70
0
 10
2.016766
 20
3.216766
 30
0.0
 10
2.016766
 20
45.783234
 30
0.0
  0
LWPOLYLINE
  5
111
100
AcDbEntity
  8
Layer_1
 62
1
100
AcDbPolyline
 90
2
 70
0
 10
3.216766
 20
46.983235
 30
0.0
 10
3.216766
 20
46.983235
 30
0.0
  0
SPLINE
  5
112
100
AcDbEntity
  8
Layer_1
 62
7
100
AcDbSpline
 70
8
 71
3
 72
8
 73
4
 74
0
 40
0
 40
0
 40
0
 40
0
 40
1
 40
1
 40
1
 40
1
 10
8.561186
 20
41.384049
 30
0.0
 10
8.561186
 20
41.384049
 30
0.0
 10
11.411653
 20
40.534974
 30
0.0
 10
13.109803
 20
38.897472
 30
0.0
  0
SPLINE
  5
113
100
AcDbEntity
  8
Layer_1
 62
7
100
AcDbSpline
 70
8
 71
3
 72
8
 73
4
 74
0
 40
0
 40
0
 40
0
 40
0
 40
1
 40
1
 40
1
 40
1
 10
13.109803
 20
38.897472
 30
0.0
 10
14.807954
 20
37.259969
 30
0.0
 10
15.475084
 20
35.440522
 30
0.0
 10
15.475084
 20
35.440522
 30
0.0
  0
SPLINE
  5
114
100
AcDbEntity
  8
Layer_1
 62
7
100
AcDbSpline
 70
8
 71
3
 72
8
 73
4
 74
0
 40
0
 40
0
 40
0
 40
0
 40
1
 40
1
 40
1
 40
1
 10
15.475084
 20
35.440522
 30
0.0
 10
15.475084
 20
35.440522
 30
0.0
 10
15.475084
 20
38.048396
 30
0.0
 10
16.142215
 20
38.836823
 30
0.0
  0
SPLINE
  5
115
100
AcDbEntity
  8
Layer_1
 62
7
100
AcDbSpline
 70
8
 71
3
 72
8
 73
4
 74
0
 40
0
 40
0
 40
0
 40
0
 40
1
 40
1
 40
1
 40
1
 10
16.142215
 20
38.836823
 30
0.0
 10
16.809345
 20
39.625250
 30
0.0
 10
18.386199
 20
42.960903
 30
0.0
 10
18.932033
 20
43.203496
 30
0.0
  0
SPLINE
  5
116
100
AcDbEntity
  8
Layer_1
 62
7
100
AcDbSpline
 70
8
 71
3
 72
8
 73
4
 74
0
 40
0
 40
0
 40
0
 40
0
 40
1
 40
1
 40
1
 40
1
 10
18.932033
 20
43.203496
 30
0.0
 10
19.477868
 20
43.446089
 30
0.0
 10
20.387591
 20
43.628034
 30
0.0
 10
20.751480
 20
43.385441
 30
0.0
  0
SPLINE
  5
117
100
AcDbEntity
  8
Layer_1
 62
7
100
AcDbSpline
 70
8
 71
3
 72
8
 73
4
 74
0
 40
0
 40
0
 40
0
 40
0
 40
1
 40
1
 40
1
 40
1
 10
20.751480
 20
43.385441
 30
0.0
 10
20.751480
 20
43.385441
 30
0.0
 10
21.418611
 20
42.293773
 30
0.0
 10
21.479259
 20
40.474326
 30
0.0
  0
SPLINE
  5
118
100
AcDbEntity
  8
Layer_1
 62
7
100
AcDbSpline
 70
8
 71
3
 72
8
 73
4
 74
0
 40
0
 40
0
 40
0
 40
0
 40
1
 40
1
 40
1
 40
1
 10
21.479259
 20
40.474326
 30
0.0
 10
21.539907
 20
38.654879
 30
0.0
 10
20.872777
 20
36.835432
 30
0.0
 10
20.812129
 20
36.410894
 30
0.0
  0
SPLINE
  5
119
100
AcDbEntity
  8
Layer_1
 62
7
100
AcDbSpline
 70
8
 71
3
 72
8
 73
4
 74
0
 40
0
 40
0
 40
0
 40
0
 40
1
 40
1
 40
1
 40
1
 10
20.812129
 20
36.410894
 30
0.0
 10
20.751480
 20
35.986357
 30
0.0
 10
20.387591
 20
34.470151
 30
0.0
 10
19.902405
 20
34.106261
 30
0.0
  0
SPLINE
  5
11a
100
AcDbEntity
  8
Layer_1
 62
7
100
AcDbSpline
 70
8
 71
3
 72
8
 73
4
 74
0
 40
0
 40
0
 40
0
 40
0
 40
1
 40
1
 40
1
 40
1
 10
19.902405
 20
34.106261
 30
0.0
 10
19.417219
 20
33.742372
 30
0.0
 10
19.841757
 20
32.347463
 30
0.0
 10
19.841757
 20
32.347463
 30
0.0
  0
SPLINE
  5
11b
100
AcDbEntity
  8
Layer_1
 62
7
100
AcDbSpline
 70
8
 71
3
 72
8
 73
4
 74
0
 40
0
 40
0
 40
0
 40
0
 40
1
 40
1
 40
1
 40
1
 10
19.841757
 20
32.347463
 30
0.0
 10
19.841757
 20
32.347463
 30
0.0
 10
20.751480
 20
31.134498
 30
0.0
 10
21.115370
 20
30.709960
 30
0.0
  0
SPLINE
  5
11c
100
AcDbEntity
  8
Layer_1
 62
7
100
AcDbSpline
 70
8
 71
3
 72
8
 73
4
 74
0
 40
0
 40
0
 40
0
 40
0
 40
1
 40
1
 40
1
 40
1
 10
21.115370
 20
30.709960
 30
0.0
 10
21.479259
 20
30.285423
 30
0.0
 10
21.483141
 20
29.193755
 30
0.0
 10
21.483141
 20
29.193755
 30
0.0
  0
SPLINE
  5
11d
100
AcDbEntity
  8
Layer_1
 62
7
100
AcDbSpline
 70
8
 71
3
 72
8
 73
4
 74
0
 40
0
 40
0
 40
0
 40
0
 40
1
 40
1
 40
1
 40
1
 10
21.483141
 20
29.193755
 30
0.0
 10
21.483141
 20
29.193755
 30
0.0
 10
23.359354
 20
28.769217
 30
0.0
 10
24.208430
 20
28.708569
 30
0.0
  0
SPLINE
  5
11e
100
AcDbEntity
  8
Layer_1
 62
7
100
AcDbSpline
 70
8
 71
3
 72
8
 73
4
 74
0
 40
0
 40
0
 40
0
 40
0
 40
1
 40
1
 40
1
 40
1
 10
24.208430
 20
28.708569
 30
0.0
 10
25.057505
 20
28.647921
 30
0.0
 10
27.362138
 20
29.678940
 30
0.0
 10
31.061680
 20
28.223383
 30
0.0
  0
SPLINE
  5
11f
100
AcDbEntity
  8
Layer_1
 62
7
100
AcDbSpline
 70
8
 71
3
 72
8
 73
4
 74
0
 40
0
 40
0
 40
0
 40
0
 40
1
 40
1
 40
1
 40
1
 10
31.061680
 20
28.223383
 30
0.0
 10
34.761222
 20
26.767825
 30
0.0
 10
37.369096
 20
23.917358
 30
0.0
 10
38.764005
 20
21.673374
 30
0.0
  0
SPLINE
  5
120
100
AcDbEntity
  8
Layer_1
 62
7
100
AcDbSpline
 70
8
 71
3
 72
8
 73
4
 74
0
 40
0
 40
0
 40
0
 40
0
 40
1
 40
1
 40
1
 40
1
 10
38.764005
 20
21.673374
 30
0.0
 10
40.158915
 20
19.429389
 30
0.0
 10
41.311231
 20
15.972440
 30
0.0
 10
40.886693
 20
13.485863
 30
0.0
  0
SPLINE
  5
121
100
AcDbEntity
  8
Layer_1
 62
7
100
AcDbSpline
 70
8
 71
3
 72
8
 73
4
 74
0
 40
0
 40
0
 40
0
 40
0
 40
1
 40
1
 40
1
 40
1
 10
40.886693
 20
13.485863
 30
0.0
 10
40.462156
 20
10.999285
 30
0.0
 10
39.188543
 20
6.875205
 30
0.0
 10
39.188543
 20
6.875205
 30
0.0
  0
SPLINE
  5
122
100
AcDbEntity
  8
Layer_1
 62
7
100
AcDbSpline
 70
8
 71
3
 72
8
 73
4
 74
0
 40
0
 40
0
 40
0
 40
0
 40
1
 40
1
 40
1
 40
1
 10
39.188543
 20
6.875205
 30
0.0
 10
39.188543
 20
6.875205
 30
0.0
 10
36.762614
 20
5.844185
 30
0.0
 10
36.095483
 20
5.783537
 30
0.0
  0
SPLINE
  5
123
100
AcDbEntity
  8
Layer_1
 62
7
100
AcDbSpline
 70
8
 71
3
 72
8
 73
4
 74
0
 40
0
 40
0
 40
0
 40
0
 40
1
 40
1
 40
1
 40
1
 10
36.095483
 20
5.783537
 30
0.0
 10
35.428353
 20
5.722889
 30
0.0
 10
34.336684
 20
5.177055
 30
0.0
 10
33.912147
 20
5.783537
 30
0.0
  0
SPLINE
  5
124
100
AcDbEntity
  8
Layer_1
 62
7
100
AcDbSpline
 70
8
 71
3
 72
8
 73
4
 74
0
 40
0
 40
0
 40
0
 40
0
 40
1
 40
1
 40
1
 40
1
 10
33.912147
 20
5.783537
 30
0.0
 10
33.487609
 20
6.390019
 30
0.0
 10
32.395941
 20
7.299743
 30
0.0
 10
31.607514
 20
7.178446
 30
0.0
  0
SPLINE
  5
125
100
AcDbEntity
  8
Layer_1
 62
7
100
AcDbSpline
 70
8
 71
3
 72
8
 73
4
 74
0
 40
0
 40
0
 40
0
 40
0
 40
1
 40
1
 40
1
 40
1
 10
31.607514
 20
7.178446
 30
0.0
 10
30.819087
 20
7.057150
 30
0.0
 10
30.394549
 20
6.632612
 30
0.0
 10
29.727419
 20
6.632612
 30
0.0
  0
SPLINE
  5
126
100
AcDbEntity
  8
Layer_1
 62
7
100
AcDbSpline
 70
8
 71
3
 72
8
 73
4
 74
0
 40
0
 40
0
 40
0
 40
0
 40
1
 40
1
 40
1
 40
1
 10
29.727419
 20
6.632612
 30
0.0
 10
29.060288
 20
6.632612
 30
0.0
 10
26.088525
 20
7.057150
 30
0.0
 10
25.785284
 20
7.178446
 30
0.0
  0
SPLINE
  5
127
100
AcDbEntity
  8
Layer_1
 62
7
100
AcDbSpline
 70
8
 71
3
 72
8
 73
4
 74
0
 40
0
 40
0
 40
0
 40
0
 40
1
 40
1
 40
1
 40
1
 10
25.785284
 20
7.178446
 30
0.0
 10
25.482043
 20
7.299743
 30
0.0
 10
23.723244
 20
7.602984
 30
0.0
 10
23.420003
 20
7.602984
 30
0.0
  0
SPLINE
  5
128
100
AcDbEntity
  8
Layer_1
 62
7
100
AcDbSpline
 70
8
 71
3
 72
8
 73
4
 74
0
 40
0
 40
0
 40
0
 40
0
 40
1
 40
1
 40
1
 40
1
 10
23.420003
 20
7.602984
 30
0.0
 10
23.116761
 20
7.602984
 30
0.0
 10
22.025093
 20
7.057150
 30
0.0
 10
21.843149
 20
7.057150
 30
0.0
  0
SPLINE
  5
129
100
AcDbEntity
  8
Layer_1
 62
7
100
AcDbSpline
 70
8
 71
3
 72
8
 73
4
 74
0
 40
0
 40
0
 40
0
 40
0
 40
1
 40
1
 40
1
 40
1
 10
21.843149
 20
7.057150
 30
0.0
 10
21.661204
 20
7.057150
 30
0.0
 10
21.115370
 20
8.088170
 30
0.0
 10
20.994073
 20
8.452059
 30
0.0
  0
SPLINE
  5
12a
100
AcDbEntity
  8
Layer_1
 62
7
100
AcDbSpline
 70
8
 71
3
 72
8
 73
4
 74
0
 40
0
 40
0
 40
0
 40
0
 40
1
 40
1
 40
1
 40
1
 10
20.994073
 20
8.452059
 30
0.0
 10
20.872777
 20
8.815949
 30
0.0
 10
21.236666
 20
9.846969
 30
0.0
 10
20.933425
 20
10.392803
 30
0.0
  0
SPLINE
  5
12b
100
AcDbEntity
  8
Layer_1
 62
7
100
AcDbSpline
 70
8
 71
3
 72
8
 73
4
 74
0
 40
0
 40
0
 40
0
 40
0
 40
1
 40
1
 40
1
 40
1
 10
20.933425
 20
10.392803
 30
0.0
 10
20.630184
 20
10.938637
 30
0.0
 10
18.446848
 20
11.484471
 30
0.0
 10
17.840365
 20
11.909008
 30
0.0
  0
SPLINE
  5
12c
100
AcDbEntity
  8
Layer_1
 62
7
100
AcDbSpline
 70
8
 71
3
 72
8
 73
4
 74
0
 40
0
 40
0
 40
0
 40
0
 40
1
 40
1
 40
1
 40
1
 10
17.840365
 20
11.909008
 30
0.0
 10
17.233883
 20
12.333546
 30
0.0
 10
17.537124
 20
13.849752
 30
0.0
 10
16.869994
 20
14.334938
 30
0.0
  0
SPLINE
  5
12d
100
AcDbEntity
  8
Layer_1
 62
7
100
AcDbSpline
 70
8
 71
3
 72
8
 73
4
 74
0
 40
0
 40
0
 40
0
 40
0
 40
1
 40
1
 40
1
 40
1
 10
16.869994
 20
14.334938
 30
0.0
 10
16.202863
 20
14.820124
 30
0.0
 10
15.111195
 20
15.911792
 30
0.0
 10
14.807954
 20
16.518274
 30
0.0
  0
SPLINE
  5
12e
100
AcDbEntity
  8
Layer_1
 62
7
100
AcDbSpline
 70
8
 71
3
 72
8
 73
4
 74
0
 40
0
 40
0
 40
0
 40
0
 40
1
 40
1
 40
1
 40
1
 10
14.807954
 20
16.518274
 30
0.0
 10
14.504713
 20
17.124756
 30
0.0
 10
13.473693
 20
19.429389
 30
0.0
 10
13.473693
 20
19.732630
 30
0.0
  0
SPLINE
  5
12f
100
AcDbEntity
  8
Layer_1
 62
7
100
AcDbSpline
 70
8
 71
3
 72
8
 73
4
 74
0
 40
0
 40
0
 40
0
 40
0
 40
1
 40
1
 40
1
 40
1
 10
13.473693
 20
19.732630
 30
0.0
 10
13.473693
 20
20.035872
 30
0.0
 10
13.352396
 20
22.097911
 30
0.0
 10
13.352396
 20
22.340504
 30
0.0
  0
SPLINE
  5
130
100
AcDbEntity
  8
Layer_1
 62
7
100
AcDbSpline
 70
8
 71
3
 72
8
 73
4
 74
0
 40
0
 40
0
 40
0
 40
0
 40
1
 40
1
 40
1
 40
1
 10
13.352396
 20
22.340504
 30
0.0
 10
13.352396
 20
22.583097
 30
0.0
 10
13.049155
 20
23.614117
 30
0.0
 10
13.049155
 20
23.614117
 30
0.0
  0
SPLINE
  5
131
100
AcDbEntity
  8
Layer_1
 62
7
100
AcDbSpline
 70
8
 71
3
 72
8
 73
4
 74
0
 40
0
 40
0
 40
0
 40
0
 40
1
 40
1
 40
1
 40
1
 10
13.049155
 20
23.614117
 30
0.0
 10
13.049155
 20
23.614117
 30
0.0
 10
12.078783
 20
23.930337
 30
0.0
 10
12.018135
 20
24.500006
 30
0.0
  0
SPLINE
  5
132
100
AcDbEntity
  8
Layer_1
 62
7
100
AcDbSpline
 70
8
 71
3
 72
8
 73
4
 74
0
 40
0
 40
0
 40
0
 40
0
 40
1
 40
1
 40
1
 40
1
 10
12.018135
 20
24.500006
 30
0.0
 10
11.957487
 20
25.069675
 30
0.0
 10
12.200080
 20
26.403936
 30
0.0
 10
12.260728
 20
26.585881
 30
0.0
  0
SPLINE
  5
133
100
AcDbEntity
  8
Layer_1
 62
7
100
AcDbSpline
 70
8
 71
3
 72
8
 73
4
 74
0
 40
0
 40
0
 40
0
 40
0
 40
1
 40
1
 40
1
 40
1
 10
12.260728
 20
26.585881
 30
0.0
 10
12.321376
 20
26.767825
 30
0.0
 10
12.382024
 20
27.738197
 30
0.0
 10
12.382024
 20
28.041438
 30
0.0
  0
SPLINE
  5
134
100
AcDbEntity
  8
Layer_1
 62
7
100
AcDbSpline
 70
8
 71
3
 72
8
 73
4
 74
0
 40
0
 40
0
 40
0
 40
0
 40
1
 40
1
 40
1
 40
1
 10
12.382024
 20
28.041438
 30
0.0
 10
12.382024
 20
28.344679
 30
0.0
 10
12.624617
 20
28.951162
 30
0.0
 10
12.624617
 20
28.951162
 30
0.0
  0
SPLINE
  5
135
100
AcDbEntity
  8
Layer_1
 62
7
100
AcDbSpline
 70
8
 71
3
 72
8
 73
4
 74
0
 40
0
 40
0
 40
0
 40
0
 40
1
 40
1
 40
1
 40
1
 10
12.624617
 20
28.951162
 30
0.0
 10
12.624617
 20
28.951162
 30
0.0
 10
12.018135
 20
30.224775
 30
0.0
 10
12.139431
 20
30.649312
 30
0.0
  0
SPLINE
  5
136
100
AcDbEntity
  8
Layer_1
 62
7
100
AcDbSpline
 70
8
 71
3
 72
8
 73
4
 74
0
 40
0
 40
0
 40
0
 40
0
 40
1
 40
1
 40
1
 40
1
 10
12.139431
 20
30.649312
 30
0.0
 10
12.260728
 20
31.073850
 30
0.0
 10
12.503321
 20
31.801629
 30
0.0
 10
12.745914
 20
32.044221
 30
0.0
  0
SPLINE
  5
137
100
AcDbEntity
  8
Layer_1
 62
7
100
AcDbSpline
 70
8
 71
3
 72
8
 73
4
 74
0
 40
0
 40
0
 40
0
 40
0
 40
1
 40
1
 40
1
 40
1
 10
12.745914
 20
32.044221
 30
0.0
 10
12.988507
 20
32.286814
 30
0.0
 10
13.291748
 20
32.772000
 30
0.0
 10
13.291748
 20
32.772000
 30
0.0
  0
SPLINE
  5
138
100
AcDbEntity
  8
Layer_1
 62
7
100
AcDbSpline
 70
8
 71
3
 72
8
 73
4
 74
0
 40
0
 40
0
 40
0
 40
0
 40
1
 40
1
 40
1
 40
1
 10
13.291748
 20
32.772000
 30
0.0
 10
13.291748
 20
32.772000
 30
0.0
 10
12.988507
 20
33.621076
 30
0.0
 10
12.624617
 20
33.863668
 30
0.0
  0
SPLINE
  5
139
100
AcDbEntity
  8
Layer_1
 62
7
100
AcDbSpline
 70
8
 71
3
 72
8
 73
4
 74
0
 40
0
 40
0
 40
0
 40
0
 40
1
 40
1
 40
1
 40
1
 10
12.624617
 20
33.863668
 30
0.0
 10
12.260728
 20
34.106261
 30
0.0
 10
11.290356
 20
36.228949
 30
0.0
 10
10.744522
 20
37.017377
 30
0.0
  0
SPLINE
  5
13a
100
AcDbEntity
  8
Layer_1
 62
7
100
AcDbSpline
 70
8
 71
3
 72
8
 73
4
 74
0
 40
0
 40
0
 40
0
 40
0
 40
1
 40
1
 40
1
 40
1
 10
10.744522
 20
37.017377
 30
0.0
 10
10.198688
 20
37.805804
 30
0.0
 10
8.076000
 20
41.384049
 30
0.0
 10
8.076000
 20
41.384049
 30
0.0
  0
SPLINE
  5
13b
100
AcDbEntity
  8
Layer_1
 62
7
100
AcDbSpline
 70
8
 71
3
 72
8
 73
4
 74
0
 40
0
 40
0
 40
0
 40
0
 40
1
 40
1
 40
1
 40
1
 10
20.446873
 20
54.329889
 30
0.0
 10
20.212663
 20
54.329889
 30
0.0
 10
19.884712
 20
54.048808
 30
0.0
 10
19.509962
 20
54.657839
 30
0.0
  0
SPLINE
  5
13c
100
AcDbEntity
  8
Layer_1
 62
7
100
AcDbSpline
 70
8
 71
3
 72
8
 73
4
 74
0
 40
0
 40
0
 40
0
 40
0
 40
1
 40
1
 40
1
 40
1
 10
19.509962
 20
54.657839
 30
0.0
 10
19.135141
 20
55.266799
 30
0.0
 10
20.353203
 20
57.421772
 30
0.0
 10
20.353203
 20
57.421772
 30
0.0
  0
LWPOLYLINE
  5
13d
100
AcDbEntity
  8
Layer_1
 62
7
100
AcDbPolyline
 90
2
 70
0
 10
8.076000
 20
41.384049
 30
0.0
 10
8.561186
 20
41.384049
 30
0.0
  0
SPLINE
  5
13e
100
AcDbEntity
  8
Layer_1
 62
7
100
AcDbSpline
 70
8
 71
3
 72
8
 73
4
 74
0
 40
0
 40
0
 40
0
 40
0
 40
1
 40
1
 40
1
 40
1
 10
15.246887
 20
54.938919
 30
0.0
 10
15.246887
 20
54.938919
 30
0.0
 10
14.216236
 20
52.549737
 30
0.0
 10
14.075696
 20
52.362327
 30
0.0
  0
SPLINE
  5
13f
100
AcDbEntity
  8
Layer_1
 62
7
100
AcDbSpline
 70
8
 71
3
 72
8
 73
4
 74
0
 40
0
 40
0
 40
0
 40
0
 40
1
 40
1
 40
1
 40
1
 10
14.075696
 20
52.362327
 30
0.0
 10
13.935156
 20
52.174916
 30
0.0
 10
10.937013
 20
51.847036
 30
0.0
 10
10.468523
 20
52.081246
 30
0.0
  0
SPLINE
  5
140
100
AcDbEntity
  8
Layer_1
 62
7
100
AcDbSpline
 70
8
 71
3
 72
8
 73
4
 74
0
 40
0
 40
0
 40
0
 40
0
 40
1
 40
1
 40
1
 40
1
 10
10.468523
 20
52.081246
 30
0.0
 10
10.000032
 20
52.315456
 30
0.0
 10
10.421653
 20
53.861398
 30
0.0
 10
10.421653
 20
53.861398
 30
0.0
  0
SPLINE
  5
141
100
AcDbEntity
  8
Layer_1
 62
7
100
AcDbSpline
 70
8
 71
3
 72
8
 73
4
 74
0
 40
0
 40
0
 40
0
 40
0
 40
1
 40
1
 40
1
 40
1
 10
10.421653
 20
53.861398
 30
0.0
 10
10.421653
 20
53.861398
 30
0.0
 10
11.077553
 20
54.517299
 30
0.0
 10
11.733384
 20
54.938919
 30
0.0
  0
SPLINE
  5
142
100
AcDbEntity
  8
Layer_1
 62
7
100
AcDbSpline
 70
8
 71
3
 72
8
 73
4
 74
0
 40
0
 40
0
 40
0
 40
0
 40
1
 40
1
 40
1
 40
1
 10
11.733384
 20
54.938919
 30
0.0
 10
12.389214
 20
55.360540
 30
0.0
 10
14.028896
 20
57.234361
 30
0.0
 10
14.028896
 20
57.562312
 30
0.0
  0
SPLINE
  5
143
100
AcDbEntity
  8
Layer_1
 62
7
100
AcDbSpline
 70
8
 71
3
 72
8
 73
4
 74
0
 40
0
 40
0
 40
0
 40
0
 40
1
 40
1
 40
1
 40
1
 10
14.028896
 20
57.562312
 30
0.0
 10
14.028896
 20
57.890262
 30
0.0
 10
14.309977
 20
58.780303
 30
0.0
 10
14.309977
 20
58.780303
 30
0.0
  0
LWPOLYLINE
  5
144
100
AcDbEntity
  8
Layer_1
 62
7
100
AcDbPolyline
 90
4
 70
0
 10
20.353203
 20
57.421772
 30
0.0
 10
18.760391
 20
57.749722
 30
0.0
 10
17.636070
 20
57.515442
 30
0.0
 10
15.246887
 20
54.938919
 30
0.0
  0
SPLINE
  5
145
100
AcDbEntity
  8
Layer_1
 62
7
100
AcDbSpline
 70
8
 71
3
 72
8
 73
4
 74
0
 40
0
 40
0
 40
0
 40
0
 40
1
 40
1
 40
1
 40
1
 10
12.998245
 20
60.560525
 30
0.0
 10
12.998245
 20
60.560525
 30
0.0
 10
12.108134
 20
60.185704
 30
0.0
 10
11.452304
 20
60.092034
 30
0.0
  0
SPLINE
  5
146
100
AcDbEntity
  8
Layer_1
 62
7
100
AcDbSpline
 70
8
 71
3
 72
8
 73
4
 74
0
 40
0
 40
0
 40
0
 40
0
 40
1
 40
1
 40
1
 40
1
 10
11.452304
 20
60.092034
 30
0.0
 10
10.796473
 20
59.998364
 30
0.0
 10
9.203661
 20
59.623544
 30
0.0
 10
8.735171
 20
59.670414
 30
0.0
  0
SPLINE
  5
147
100
AcDbEntity
  8
Layer_1
 62
7
100
AcDbSpline
 70
8
 71
3
 72
8
 73
4
 74
0
 40
0
 40
0
 40
0
 40
0
 40
1
 40
1
 40
1
 40
1
 10
8.735171
 20
59.670414
 30
0.0
 10
8.266751
 20
59.717284
 30
0.0
 10
7.095559
 20
59.670414
 30
0.0
 10
6.673939
 20
60.185704
 30
0.0
  0
SPLINE
  5
148
100
AcDbEntity
  8
Layer_1
 62
7
100
AcDbSpline
 70
8
 71
3
 72
8
 73
4
 74
0
 40
0
 40
0
 40
0
 40
0
 40
1
 40
1
 40
1
 40
1
 10
6.673939
 20
60.185704
 30
0.0
 10
6.252318
 20
60.701065
 30
0.0
 10
5.877568
 20
61.591106
 30
0.0
 10
5.877568
 20
61.778516
 30
0.0
  0
SPLINE
  5
149
100
AcDbEntity
  8
Layer_1
 62
7
100
AcDbSpline
 70
8
 71
3
 72
8
 73
4
 74
0
 40
0
 40
0
 40
0
 40
0
 40
1
 40
1
 40
1
 40
1
 10
5.877568
 20
61.778516
 30
0.0
 10
5.877568
 20
61.965926
 30
0.0
 10
5.783828
 20
62.855967
 30
0.0
 10
5.877568
 20
63.183917
 30
0.0
  0
SPLINE
  5
14a
100
AcDbEntity
  8
Layer_1
 62
7
100
AcDbSpline
 70
8
 71
3
 72
8
 73
4
 74
0
 40
0
 40
0
 40
0
 40
0
 40
1
 40
1
 40
1
 40
1
 10
5.877568
 20
63.183917
 30
0.0
 10
5.971238
 20
63.511868
 30
0.0
 10
6.111778
 20
64.542449
 30
0.0
 10
6.064908
 20
64.729859
 30
0.0
  0
SPLINE
  5
14b
100
AcDbEntity
  8
Layer_1
 62
7
100
AcDbSpline
 70
8
 71
3
 72
8
 73
4
 74
0
 40
0
 40
0
 40
0
 40
0
 40
1
 40
1
 40
1
 40
1
 10
6.064908
 20
64.729859
 30
0.0
 10
6.018108
 20
64.917269
 30
0.0
 10
5.455948
 20
66.182131
 30
0.0
 10
5.502748
 20
66.510011
 30
0.0
  0
SPLINE
  5
14c
100
AcDbEntity
  8
Layer_1
 62
7
100
AcDbSpline
 70
8
 71
3
 72
8
 73
4
 74
0
 40
0
 40
0
 40
0
 40
0
 40
1
 40
1
 40
1
 40
1
 10
5.502748
 20
66.510011
 30
0.0
 10
5.549618
 20
66.837961
 30
0.0
 10
5.924368
 20
67.868612
 30
0.0
 10
6.064908
 20
68.102822
 30
0.0
  0
SPLINE
  5
14d
100
AcDbEntity
  8
Layer_1
 62
7
100
AcDbSpline
 70
8
 71
3
 72
8
 73
4
 74
0
 40
0
 40
0
 40
0
 40
0
 40
1
 40
1
 40
1
 40
1
 10
6.064908
 20
68.102822
 30
0.0
 10
6.205448
 20
68.337033
 30
0.0
 10
7.282970
 20
69.648764
 30
0.0
 10
7.376640
 20
69.976714
 30
0.0
  0
SPLINE
  5
14e
100
AcDbEntity
  8
Layer_1
 62
7
100
AcDbSpline
 70
8
 71
3
 72
8
 73
4
 74
0
 40
0
 40
0
 40
0
 40
0
 40
1
 40
1
 40
1
 40
1
 10
7.376640
 20
69.976714
 30
0.0
 10
7.470310
 20
70.304595
 30
0.0
 10
7.845130
 20
71.803736
 30
0.0
 10
7.845130
 20
71.803736
 30
0.0
  0
SPLINE
  5
14f
100
AcDbEntity
  8
Layer_1
 62
7
100
AcDbSpline
 70
8
 71
3
 72
8
 73
4
 74
0
 40
0
 40
0
 40
0
 40
0
 40
1
 40
1
 40
1
 40
1
 10
7.845130
 20
71.803736
 30
0.0
 10
7.891930
 20
72.365897
 30
0.0
 10
7.142429
 20
73.958638
 30
0.0
 10
7.142429
 20
74.380259
 30
0.0
  0
SPLINE
  5
150
100
AcDbEntity
  8
Layer_1
 62
7
100
AcDbSpline
 70
8
 71
3
 72
8
 73
4
 74
0
 40
0
 40
0
 40
0
 40
0
 40
1
 40
1
 40
1
 40
1
 10
7.142429
 20
74.380259
 30
0.0
 10
7.142429
 20
74.801879
 30
0.0
 10
7.472418
 20
75.598320
 30
0.0
 10
7.494834
 20
75.879400
 30
0.0
  0
SPLINE
  5
151
100
AcDbEntity
  8
Layer_1
 62
7
100
AcDbSpline
 70
8
 71
3
 72
8
 73
4
 74
0
 40
0
 40
0
 40
0
 40
0
 40
1
 40
1
 40
1
 40
1
 10
7.494834
 20
75.879400
 30
0.0
 10
7.517180
 20
76.160481
 30
0.0
 10
7.142429
 20
76.956851
 30
0.0
 10
7.142429
 20
77.472142
 30
0.0
  0
SPLINE
  5
152
100
AcDbEntity
  8
Layer_1
 62
7
100
AcDbSpline
 70
8
 71
3
 72
8
 73
4
 74
0
 40
0
 40
0
 40
0
 40
0
 40
1
 40
1
 40
1
 40
1
 10
7.142429
 20
77.472142
 30
0.0
 10
7.142429
 20
77.987502
 30
0.0
 10
7.751390
 20
80.798305
 30
0.0
 10
8.173010
 20
81.126185
 30
0.0
  0
SPLINE
  5
153
100
AcDbEntity
  8
Layer_1
 62
7
100
AcDbSpline
 70
8
 71
3
 72
8
 73
4
 74
0
 40
0
 40
0
 40
0
 40
0
 40
1
 40
1
 40
1
 40
1
 10
8.173010
 20
81.126185
 30
0.0
 10
8.594631
 20
81.454136
 30
0.0
 10
9.344202
 20
81.641546
 30
0.0
 10
9.484742
 20
81.641546
 30
0.0
  0
SPLINE
  5
154
100
AcDbEntity
  8
Layer_1
 62
7
100
AcDbSpline
 70
8
 71
3
 72
8
 73
4
 74
0
 40
0
 40
0
 40
0
 40
0
 40
1
 40
1
 40
1
 40
1
 10
9.484742
 20
81.641546
 30
0.0
 10
9.625282
 20
81.641546
 30
0.0
 10
10.000032
 20
81.501006
 30
0.0
 10
10.187442
 20
81.313596
 30
0.0
  0
SPLINE
  5
155
100
AcDbEntity
  8
Layer_1
 62
7
100
AcDbSpline
 70
8
 71
3
 72
8
 73
4
 74
0
 40
0
 40
0
 40
0
 40
0
 40
1
 40
1
 40
1
 40
1
 10
10.187442
 20
81.313596
 30
0.0
 10
10.374853
 20
81.126185
 30
0.0
 10
10.843273
 20
79.767654
 30
0.0
 10
10.937013
 20
79.486574
 30
0.0
  0
SPLINE
  5
156
100
AcDbEntity
  8
Layer_1
 62
7
100
AcDbSpline
 70
8
 71
3
 72
8
 73
4
 74
0
 40
0
 40
0
 40
0
 40
0
 40
1
 40
1
 40
1
 40
1
 10
10.937013
 20
79.486574
 30
0.0
 10
11.030683
 20
79.205494
 30
0.0
 10
11.218093
 20
78.221713
 30
0.0
 10
11.218093
 20
78.221713
 30
0.0
  0
SPLINE
  5
157
100
AcDbEntity
  8
Layer_1
 62
7
100
AcDbSpline
 70
8
 71
3
 72
8
 73
4
 74
0
 40
0
 40
0
 40
0
 40
0
 40
1
 40
1
 40
1
 40
1
 10
11.218093
 20
78.221713
 30
0.0
 10
11.218093
 20
78.221713
 30
0.0
 10
12.810835
 20
80.657765
 30
0.0
 10
13.091915
 20
80.798305
 30
0.0
  0
SPLINE
  5
158
100
AcDbEntity
  8
Layer_1
 62
7
100
AcDbSpline
 70
8
 71
3
 72
8
 73
4
 74
0
 40
0
 40
0
 40
0
 40
0
 40
1
 40
1
 40
1
 40
1
 10
13.091915
 20
80.798305
 30
0.0
 10
13.372995
 20
80.938845
 30
0.0
 10
13.466736
 20
80.798305
 30
0.0
 10
13.607276
 20
80.610895
 30
0.0
  0
SPLINE
  5
159
100
AcDbEntity
  8
Layer_1
 62
7
100
AcDbSpline
 70
8
 71
3
 72
8
 73
4
 74
0
 40
0
 40
0
 40
0
 40
0
 40
1
 40
1
 40
1
 40
1
 10
13.607276
 20
80.610895
 30
0.0
 10
13.747816
 20
80.423485
 30
0.0
 10
13.654076
 20
76.909981
 30
0.0
 10
13.607276
 20
76.207281
 30
0.0
  0
SPLINE
  5
15a
100
AcDbEntity
  8
Layer_1
 62
7
100
AcDbSpline
 70
8
 71
3
 72
8
 73
4
 74
0
 40
0
 40
0
 40
0
 40
0
 40
1
 40
1
 40
1
 40
1
 10
13.607276
 20
76.207281
 30
0.0
 10
13.560406
 20
75.504580
 30
0.0
 10
13.755686
 20
74.099178
 30
0.0
 10
13.681481
 20
73.630758
 30
0.0
  0
SPLINE
  5
15b
100
AcDbEntity
  8
Layer_1
 62
7
100
AcDbSpline
 70
8
 71
3
 72
8
 73
4
 74
0
 40
0
 40
0
 40
0
 40
0
 40
1
 40
1
 40
1
 40
1
 10
13.681481
 20
73.630758
 30
0.0
 10
13.607276
 20
73.162268
 30
0.0
 10
13.326196
 20
72.319027
 30
0.0
 10
13.326196
 20
72.319027
 30
0.0
  0
SPLINE
  5
15c
100
AcDbEntity
  8
Layer_1
 62
7
100
AcDbSpline
 70
8
 71
3
 72
8
 73
4
 74
0
 40
0
 40
0
 40
0
 40
0
 40
1
 40
1
 40
1
 40
1
 10
13.326196
 20
72.319027
 30
0.0
 10
13.326196
 20
72.319027
 30
0.0
 10
19.369422
 20
76.675771
 30
0.0
 10
20.400003
 20
77.331602
 30
0.0
  0
SPLINE
  5
15d
100
AcDbEntity
  8
Layer_1
 62
7
100
AcDbSpline
 70
8
 71
3
 72
8
 73
4
 74
0
 40
0
 40
0
 40
0
 40
0
 40
1
 40
1
 40
1
 40
1
 10
20.400003
 20
77.331602
 30
0.0
 10
21.430654
 20
77.987502
 30
0.0
 10
25.740528
 20
79.908194
 30
0.0
 10
28.457661
 20
80.142404
 30
0.0
  0
SPLINE
  5
15e
100
AcDbEntity
  8
Layer_1
 62
7
100
AcDbSpline
 70
8
 71
3
 72
8
 73
4
 74
0
 40
0
 40
0
 40
0
 40
0
 40
1
 40
1
 40
1
 40
1
 10
28.457661
 20
80.142404
 30
0.0
 10
31.174794
 20
80.376685
 30
0.0
 10
35.016177
 20
79.908194
 30
0.0
 10
36.468449
 20
79.346034
 30
0.0
  0
SPLINE
  5
15f
100
AcDbEntity
  8
Layer_1
 62
7
100
AcDbSpline
 70
8
 71
3
 72
8
 73
4
 74
0
 40
0
 40
0
 40
0
 40
0
 40
1
 40
1
 40
1
 40
1
 10
36.468449
 20
79.346034
 30
0.0
 10
37.920720
 20
78.783873
 30
0.0
 10
40.778323
 20
77.378472
 30
0.0
 10
41.387354
 20
76.722641
 30
0.0
  0
SPLINE
  5
160
100
AcDbEntity
  8
Layer_1
 62
7
100
AcDbSpline
 70
8
 71
3
 72
8
 73
4
 74
0
 40
0
 40
0
 40
0
 40
0
 40
1
 40
1
 40
1
 40
1
 10
41.387354
 20
76.722641
 30
0.0
 10
41.996385
 20
76.066740
 30
0.0
 10
42.371135
 20
74.942419
 30
0.0
 10
42.558545
 20
74.427129
 30
0.0
  0
SPLINE
  5
161
100
AcDbEntity
  8
Layer_1
 62
7
100
AcDbSpline
 70
8
 71
3
 72
8
 73
4
 74
0
 40
0
 40
0
 40
0
 40
0
 40
1
 40
1
 40
1
 40
1
 10
42.558545
 20
74.427129
 30
0.0
 10
42.745885
 20
73.911838
 30
0.0
 10
43.448586
 20
72.365897
 30
0.0
 10
43.495456
 20
71.288376
 30
0.0
  0
SPLINE
  5
162
100
AcDbEntity
  8
Layer_1
 62
7
100
AcDbSpline
 70
8
 71
3
 72
8
 73
4
 74
0
 40
0
 40
0
 40
0
 40
0
 40
1
 40
1
 40
1
 40
1
 10
43.495456
 20
71.288376
 30
0.0
 10
43.542326
 20
70.210925
 30
0.0
 10
43.214376
 20
68.247087
 30
0.0
 10
43.073836
 20
67.402019
 30
0.0
  0
SPLINE
  5
163
100
AcDbEntity
  8
Layer_1
 62
7
100
AcDbSpline
 70
8
 71
3
 72
8
 73
4
 74
0
 40
0
 40
0
 40
0
 40
0
 40
1
 40
1
 40
1
 40
1
 10
43.073836
 20
67.402019
 30
0.0
 10
42.933295
 20
66.556881
 30
0.0
 10
42.652215
 20
65.104609
 30
0.0
 10
42.043184
 20
64.261368
 30
0.0
  0
SPLINE
  5
164
100
AcDbEntity
  8
Layer_1
 62
7
100
AcDbSpline
 70
8
 71
3
 72
8
 73
4
 74
0
 40
0
 40
0
 40
0
 40
0
 40
1
 40
1
 40
1
 40
1
 10
42.043184
 20
64.261368
 30
0.0
 10
41.434224
 20
63.418128
 30
0.0
 10
39.513462
 20
62.715427
 30
0.0
 10
39.185582
 20
62.574887
 30
0.0
  0
SPLINE
  5
165
100
AcDbEntity
  8
Layer_1
 62
7
100
AcDbSpline
 70
8
 71
3
 72
8
 73
4
 74
0
 40
0
 40
0
 40
0
 40
0
 40
1
 40
1
 40
1
 40
1
 10
39.185582
 20
62.574887
 30
0.0
 10
38.857631
 20
62.434347
 30
0.0
 10
36.187369
 20
61.778516
 30
0.0
 10
35.953158
 20
61.731646
 30
0.0
  0
SPLINE
  5
166
100
AcDbEntity
  8
Layer_1
 62
7
100
AcDbSpline
 70
8
 71
3
 72
8
 73
4
 74
0
 40
0
 40
0
 40
0
 40
0
 40
1
 40
1
 40
1
 40
1
 10
35.953158
 20
61.731646
 30
0.0
 10
35.718878
 20
61.684846
 30
0.0
 10
34.969377
 20
61.731646
 30
0.0
 10
34.969377
 20
61.731646
 30
0.0
  0
LWPOLYLINE
  5
167
100
AcDbEntity
  8
Layer_1
 62
7
100
AcDbPolyline
 90
6
 70
0
 10
14.309977
 20
58.780303
 30
0.0
 10
13.607276
 20
58.171343
 30
0.0
 10
13.654076
 20
58.920843
 30
0.0
 10
13.045115
 20
58.265013
 30
0.0
 10
13.372995
 20
59.951494
 30
0.0
 10
12.998245
 20
60.560525
 30
0.0
  0
SPLINE
  5
168
100
AcDbEntity
  8
Layer_1
 62
7
100
AcDbSpline
 70
8
 71
3
 72
8
 73
4
 74
0
 40
0
 40
0
 40
0
 40
0
 40
1
 40
1
 40
1
 40
1
 10
35.063047
 20
60.560525
 30
0.0
 10
35.063047
 20
60.560525
 30
0.0
 10
34.969377
 20
59.670414
 30
0.0
 10
35.109918
 20
59.389334
 30
0.0
  0
SPLINE
  5
169
100
AcDbEntity
  8
Layer_1
 62
7
100
AcDbSpline
 70
8
 71
3
 72
8
 73
4
 74
0
 40
0
 40
0
 40
0
 40
0
 40
1
 40
1
 40
1
 40
1
 10
35.109918
 20
59.389334
 30
0.0
 10
35.250458
 20
59.108253
 30
0.0
 10
35.578338
 20
58.171343
 30
0.0
 10
35.578338
 20
58.171343
 30
0.0
  0
SPLINE
  5
16a
100
AcDbEntity
  8
Layer_1
 62
7
100
AcDbSpline
 70
8
 71
3
 72
8
 73
4
 74
0
 40
0
 40
0
 40
0
 40
0
 40
1
 40
1
 40
1
 40
1
 10
35.578338
 20
58.171343
 30
0.0
 10
35.578338
 20
58.171343
 30
0.0
 10
35.016177
 20
57.234361
 30
0.0
 10
34.594557
 20
57.000151
 30
0.0
  0
SPLINE
  5
16b
100
AcDbEntity
  8
Layer_1
 62
7
100
AcDbSpline
 70
8
 71
3
 72
8
 73
4
 74
0
 40
0
 40
0
 40
0
 40
0
 40
1
 40
1
 40
1
 40
1
 10
34.594557
 20
57.000151
 30
0.0
 10
34.172936
 20
56.765941
 30
0.0
 10
32.345915
 20
55.594750
 30
0.0
 10
32.345915
 20
55.594750
 30
0.0
  0
SPLINE
  5
16c
100
AcDbEntity
  8
Layer_1
 62
7
100
AcDbSpline
 70
8
 71
3
 72
8
 73
4
 74
0
 40
0
 40
0
 40
0
 40
0
 40
1
 40
1
 40
1
 40
1
 10
32.345915
 20
55.594750
 30
0.0
 10
32.345915
 20
55.594750
 30
0.0
 10
29.769392
 20
55.313670
 30
0.0
 10
29.581982
 20
55.360540
 30
0.0
  0
SPLINE
  5
16d
100
AcDbEntity
  8
Layer_1
 62
7
100
AcDbSpline
 70
8
 71
3
 72
8
 73
4
 74
0
 40
0
 40
0
 40
0
 40
0
 40
1
 40
1
 40
1
 40
1
 10
29.581982
 20
55.360540
 30
0.0
 10
29.394572
 20
55.407340
 30
0.0
 10
28.129710
 20
54.657839
 30
0.0
 10
28.129710
 20
54.657839
 30
0.0
  0
SPLINE
  5
16e
100
AcDbEntity
  8
Layer_1
 62
7
100
AcDbSpline
 70
8
 71
3
 72
8
 73
4
 74
0
 40
0
 40
0
 40
0
 40
0
 40
1
 40
1
 40
1
 40
1
 10
28.129710
 20
54.657839
 30
0.0
 10
28.129710
 20
54.657839
 30
0.0
 10
27.661290
 20
54.189348
 30
0.0
 10
27.520750
 20
54.189348
 30
0.0
  0
LWPOLYLINE
  5
16f
100
AcDbEntity
  8
Layer_1
 62
7
100
AcDbPolyline
 90
2
 70
0
 10
34.969377
 20
61.731646
 30
0.0
 10
35.063047
 20
60.560525
 30
0.0
  0
SPLINE
  5
170
100
AcDbEntity
  8
Layer_1
 62
7
100
AcDbSpline
 70
8
 71
3
 72
8
 73
4
 74
0
 40
0
 40
0
 40
0
 40
0
 40
1
 40
1
 40
1
 40
1
 10
27.005389
 20
54.189348
 30
0.0
 10
27.005389
 20
54.189348
 30
0.0
 10
25.927938
 20
53.486648
 30
0.0
 10
25.599988
 20
53.486648
 30
0.0
  0
SPLINE
  5
171
100
AcDbEntity
  8
Layer_1
 62
7
100
AcDbSpline
 70
8
 71
3
 72
8
 73
4
 74
0
 40
0
 40
0
 40
0
 40
0
 40
1
 40
1
 40
1
 40
1
 10
25.599988
 20
53.486648
 30
0.0
 10
25.272108
 20
53.486648
 30
0.0
 10
24.475667
 20
53.533518
 30
0.0
 10
24.194586
 20
53.486648
 30
0.0
  0
SPLINE
  5
172
100
AcDbEntity
  8
Layer_1
 62
7
100
AcDbSpline
 70
8
 71
3
 72
8
 73
4
 74
0
 40
0
 40
0
 40
0
 40
0
 40
1
 40
1
 40
1
 40
1
 10
24.194586
 20
53.486648
 30
0.0
 10
23.913506
 20
53.439778
 30
0.0
 10
23.585626
 20
54.048808
 30
0.0
 10
23.585626
 20
54.048808
 30
0.0
  0
SPLINE
  5
173
100
AcDbEntity
  8
Layer_1
 62
7
100
AcDbSpline
 70
8
 71
3
 72
8
 73
4
 74
0
 40
0
 40
0
 40
0
 40
0
 40
1
 40
1
 40
1
 40
1
 10
23.585626
 20
54.048808
 30
0.0
 10
23.585626
 20
54.048808
 30
0.0
 10
23.677469
 20
55.313670
 30
0.0
 10
23.842323
 20
55.547880
 30
0.0
  0
SPLINE
  5
174
100
AcDbEntity
  8
Layer_1
 62
7
100
AcDbSpline
 70
8
 71
3
 72
8
 73
4
 74
0
 40
0
 40
0
 40
0
 40
0
 40
1
 40
1
 40
1
 40
1
 10
23.842323
 20
55.547880
 30
0.0
 10
24.007246
 20
55.782160
 30
0.0
 10
24.569407
 20
56.765941
 30
0.0
 10
24.756747
 20
56.812741
 30
0.0
  0
SPLINE
  5
175
100
AcDbEntity
  8
Layer_1
 62
7
100
AcDbSpline
 70
8
 71
3
 72
8
 73
4
 74
0
 40
0
 40
0
 40
0
 40
0
 40
1
 40
1
 40
1
 40
1
 10
24.756747
 20
56.812741
 30
0.0
 10
24.944157
 20
56.859611
 30
0.0
 10
26.396429
 20
57.655982
 30
0.0
 10
26.911719
 20
57.749722
 30
0.0
  0
SPLINE
  5
176
100
AcDbEntity
  8
Layer_1
 62
7
100
AcDbSpline
 70
8
 71
3
 72
8
 73
4
 74
0
 40
0
 40
0
 40
0
 40
0
 40
1
 40
1
 40
1
 40
1
 10
26.911719
 20
57.749722
 30
0.0
 10
27.427010
 20
57.843392
 30
0.0
 10
29.722522
 20
58.311883
 30
0.0
 10
29.863062
 20
58.311883
 30
0.0
  0
SPLINE
  5
177
100
AcDbEntity
  8
Layer_1
 62
7
100
AcDbSpline
 70
8
 71
3
 72
8
 73
4
 74
0
 40
0
 40
0
 40
0
 40
0
 40
1
 40
1
 40
1
 40
1
 10
29.863062
 20
58.311883
 30
0.0
 10
30.003602
 20
58.311883
 30
0.0
 10
31.034253
 20
58.686633
 30
0.0
 10
31.127923
 20
58.920843
 30
0.0
  0
SPLINE
  5
178
100
AcDbEntity
  8
Layer_1
 62
7
100
AcDbSpline
 70
8
 71
3
 72
8
 73
4
 74
0
 40
0
 40
0
 40
0
 40
0
 40
1
 40
1
 40
1
 40
1
 10
31.127923
 20
58.920843
 30
0.0
 10
31.221593
 20
59.155124
 30
0.0
 10
31.174794
 20
61.310026
 30
0.0
 10
30.940513
 20
61.403766
 30
0.0
  0
SPLINE
  5
179
100
AcDbEntity
  8
Layer_1
 62
7
100
AcDbSpline
 70
8
 71
3
 72
8
 73
4
 74
0
 40
0
 40
0
 40
0
 40
0
 40
1
 40
1
 40
1
 40
1
 10
30.940513
 20
61.403766
 30
0.0
 10
30.706303
 20
61.497436
 30
0.0
 10
29.956732
 20
61.778516
 30
0.0
 10
29.956732
 20
61.778516
 30
0.0
  0
SPLINE
  5
17a
100
AcDbEntity
  8
Layer_1
 62
7
100
AcDbSpline
 70
8
 71
3
 72
8
 73
4
 74
0
 40
0
 40
0
 40
0
 40
0
 40
1
 40
1
 40
1
 40
1
 10
29.956732
 20
61.778516
 30
0.0
 10
29.956732
 20
61.778516
 30
0.0
 10
27.848630
 20
61.169485
 30
0.0
 10
27.333340
 20
61.169485
 30
0.0
  0
SPLINE
  5
17b
100
AcDbEntity
  8
Layer_1
 62
7
100
AcDbSpline
 70
8
 71
3
 72
8
 73
4
 74
0
 40
0
 40
0
 40
0
 40
0
 40
1
 40
1
 40
1
 40
1
 10
27.333340
 20
61.169485
 30
0.0
 10
26.818049
 20
61.169485
 30
0.0
 10
25.365778
 20
60.326245
 30
0.0
 10
25.131568
 20
60.279445
 30
0.0
  0
SPLINE
  5
17c
100
AcDbEntity
  8
Layer_1
 62
7
100
AcDbSpline
 70
8
 71
3
 72
8
 73
4
 74
0
 40
0
 40
0
 40
0
 40
0
 40
1
 40
1
 40
1
 40
1
 10
25.131568
 20
60.279445
 30
0.0
 10
24.897287
 20
60.232575
 30
0.0
 10
24.145960
 20
58.499223
 30
0.0
 10
23.842323
 20
57.983932
 30
0.0
  0
SPLINE
  5
17d
100
AcDbEntity
  8
Layer_1
 62
7
100
AcDbSpline
 70
8
 71
3
 72
8
 73
4
 74
0
 40
0
 40
0
 40
0
 40
0
 40
1
 40
1
 40
1
 40
1
 10
23.842323
 20
57.983932
 30
0.0
 10
23.538756
 20
57.468642
 30
0.0
 10
23.258870
 20
54.897811
 30
0.0
 10
23.351346
 20
55.501080
 30
0.0
  0
SPLINE
  5
17e
100
AcDbEntity
  8
Layer_1
 62
7
100
AcDbSpline
 70
8
 71
3
 72
8
 73
4
 74
0
 40
0
 40
0
 40
0
 40
0
 40
1
 40
1
 40
1
 40
1
 10
23.351346
 20
55.501080
 30
0.0
 10
23.443821
 20
56.104348
 30
0.0
 10
22.669445
 20
54.666412
 30
0.0
 10
21.852274
 20
54.329889
 30
0.0
  0
SPLINE
  5
17f
100
AcDbEntity
  8
Layer_1
 62
7
100
AcDbSpline
 70
8
 71
3
 72
8
 73
4
 74
0
 40
0
 40
0
 40
0
 40
0
 40
1
 40
1
 40
1
 40
1
 10
21.852274
 20
54.329889
 30
0.0
 10
21.301286
 20
54.102987
 30
0.0
 10
20.541175
 20
54.329889
 30
0.0
 10
20.446873
 20
54.329889
 30
0.0
  0
LWPOLYLINE
  5
180
100
AcDbEntity
  8
Layer_1
 62
7
100
AcDbPolyline
 90
2
 70
0
 10
27.520750
 20
54.189348
 30
0.0
 10
27.005389
 20
54.189348
 30
0.0
  0
ENDSEC
  0
SECTION
  2
OBJECTS
  0
DICTIONARY
  5
C
330
0
100
AcDbDictionary
  3
ACAD_GROUP
350
D
  3
ACAD_MLINESTYLE
350
17
  0
DICTIONARY
  5
D
330
C
100
AcDbDictionary
  0
DICTIONARY
  5
1A
330
C
100
AcDbDictionary
  0
DICTIONARY
  5
17
330
C
100
AcDbDictionary
  3
STANDARD
350
18
  0
DICTIONARY
  5
19
330
C
100
AcDbDictionary
  0
ENDSEC
  0
EOF
